<svg width="16" height="16" viewBox="0 0 16 16" fill="none" xmlns="http://www.w3.org/2000/svg">
<g clip-path="url(#clip0_923_38)">
<path d="M0 6.4C0 4.15979 0 3.03969 0.435974 2.18404C0.819467 1.43139 1.43139 0.819467 2.18404 0.435974C3.03969 0 4.15979 0 6.4 0H9.6C11.8402 0 12.9603 0 13.816 0.435974C14.5686 0.819467 15.1805 1.43139 15.564 2.18404C16 3.03969 16 4.15979 16 6.4V9.6C16 11.8402 16 12.9603 15.564 13.816C15.1805 14.5686 14.5686 15.1805 13.816 15.564C12.9603 16 11.8402 16 9.6 16H6.4C4.15979 16 3.03969 16 2.18404 15.564C1.43139 15.1805 0.819467 14.5686 0.435974 13.816C0 12.9603 0 11.8402 0 9.6V6.4Z" fill="white"/>
<g filter="url(#filter0_i_923_38)">
<path d="M6.87732 2.16171L10 3.5C10.5523 3.5 11 3.94772 11 4.5V6.5H2V4C2 2.89543 2.89543 2 4 2H6.08948C6.36034 2 6.62837 2.05502 6.87732 2.16171Z" fill="#D78A16"/>
</g>
<g filter="url(#filter1_i_923_38)">
<path d="M4.52786 5H2V12C2 13.1046 2.89543 14 4 14H12C13.1046 14 14 13.1046 14 12V5.5C14 4.39543 13.1046 3.5 12 3.5H8.47214C8.16165 3.5 7.85542 3.57229 7.57771 3.71115L5.42229 4.78885C5.14458 4.92771 4.83835 5 4.52786 5Z" fill="#FCA729"/>
</g>
</g>
<defs>
<filter id="filter0_i_923_38" x="2" y="2" width="9.25" height="4.75" filterUnits="userSpaceOnUse" color-interpolation-filters="sRGB">
<feFlood flood-opacity="0" result="BackgroundImageFix"/>
<feBlend mode="normal" in="SourceGraphic" in2="BackgroundImageFix" result="shape"/>
<feColorMatrix in="SourceAlpha" type="matrix" values="0 0 0 0 0 0 0 0 0 0 0 0 0 0 0 0 0 0 127 0" result="hardAlpha"/>
<feOffset dx="0.25" dy="0.25"/>
<feGaussianBlur stdDeviation="0.5"/>
<feComposite in2="hardAlpha" operator="arithmetic" k2="-1" k3="1"/>
<feColorMatrix type="matrix" values="0 0 0 0 0.65 0 0 0 0 0.451183 0 0 0 0 0.151667 0 0 0 1 0"/>
<feBlend mode="normal" in2="shape" result="effect1_innerShadow_923_38"/>
</filter>
<filter id="filter1_i_923_38" x="2" y="3.5" width="12.25" height="10.75" filterUnits="userSpaceOnUse" color-interpolation-filters="sRGB">
<feFlood flood-opacity="0" result="BackgroundImageFix"/>
<feBlend mode="normal" in="SourceGraphic" in2="BackgroundImageFix" result="shape"/>
<feColorMatrix in="SourceAlpha" type="matrix" values="0 0 0 0 0 0 0 0 0 0 0 0 0 0 0 0 0 0 127 0" result="hardAlpha"/>
<feOffset dx="0.25" dy="0.25"/>
<feGaussianBlur stdDeviation="0.5"/>
<feComposite in2="hardAlpha" operator="arithmetic" k2="-1" k3="1"/>
<feColorMatrix type="matrix" values="0 0 0 0 0.920833 0 0 0 0 0.838572 0 0 0 0 0.406701 0 0 0 0.75 0"/>
<feBlend mode="normal" in2="shape" result="effect1_innerShadow_923_38"/>
</filter>
<clipPath id="clip0_923_38">
<rect width="16" height="16" fill="white"/>
</clipPath>
</defs>
</svg>
