<svg width="16" height="16" viewBox="0 0 16 16" fill="none" xmlns="http://www.w3.org/2000/svg">
<g clip-path="url(#clip0_924_38)">
<path d="M0 6.4C0 4.15979 0 3.03968 0.435974 2.18404C0.819467 1.43139 1.43139 0.819467 2.18404 0.435974C3.03968 0 4.15979 0 6.4 0H9.6C11.8402 0 12.9603 0 13.816 0.435974C14.5686 0.819467 15.1805 1.43139 15.564 2.18404C16 3.03968 16 4.15979 16 6.4V9.6C16 11.8402 16 12.9603 15.564 13.816C15.1805 14.5686 14.5686 15.1805 13.816 15.564C12.9603 16 11.8402 16 9.6 16H6.4C4.15979 16 3.03968 16 2.18404 15.564C1.43139 15.1805 0.819467 14.5686 0.435974 13.816C0 12.9603 0 11.8402 0 9.6V6.4Z" fill="white"/>
<g filter="url(#filter0_i_924_38)">
<path d="M11.5 7H13.5C13.7761 7 14 7.22386 14 7.5V8.5C14 8.77614 13.7761 9 13.5 9H11.5C11.2239 9 11 8.77614 11 8.5V7.5C11 7.22386 11.2239 7 11.5 7Z" fill="#838383"/>
<path d="M2.5 7H4.5C4.77614 7 5 7.22386 5 7.5V8.5C5 8.77614 4.77614 9 4.5 9H2.5C2.22386 9 2 8.77614 2 8.5V7.5C2 7.22386 2.22386 7 2.5 7Z" fill="#838383"/>
<path d="M7 2.5V4.5C7 4.77614 7.22386 5 7.5 5H8.5C8.77614 5 9 4.77614 9 4.5V2.5C9 2.22386 8.77614 2 8.5 2H7.5C7.22386 2 7 2.22386 7 2.5Z" fill="#838383"/>
<path d="M8.5 11H7.5C7.22386 11 7 11.2239 7 11.5V13.5C7 13.7761 7.22386 14 7.5 14H8.5C8.77614 14 9 13.7761 9 13.5V11.5C9 11.2239 8.77614 11 8.5 11Z" fill="#838383"/>
<path d="M11.1464 3.35355L9.85355 4.64645C9.65829 4.84171 9.65829 5.15829 9.85355 5.35355L10.6464 6.14645C10.8417 6.34171 11.1583 6.34171 11.3536 6.14645L12.6464 4.85355C12.8417 4.65829 12.8417 4.34171 12.6464 4.14645L11.8536 3.35355C11.6583 3.15829 11.3417 3.15829 11.1464 3.35355Z" fill="#838383"/>
<path d="M12.6464 11.1464L11.3536 9.85355C11.1583 9.65829 10.8417 9.65829 10.6464 9.85355L9.85355 10.6464C9.65829 10.8417 9.65829 11.1583 9.85355 11.3536L11.1464 12.6464C11.3417 12.8417 11.6583 12.8417 11.8536 12.6464L12.6464 11.8536C12.8417 11.6583 12.8417 11.3417 12.6464 11.1464Z" fill="#838383"/>
<path d="M4.85355 12.6464L6.14645 11.3536C6.34171 11.1583 6.34171 10.8417 6.14645 10.6464L5.35355 9.85355C5.15829 9.65829 4.84171 9.65829 4.64645 9.85355L3.35355 11.1464C3.15829 11.3417 3.15829 11.6583 3.35355 11.8536L4.14645 12.6464C4.34171 12.8417 4.65829 12.8417 4.85355 12.6464Z" fill="#838383"/>
<path d="M6.14645 5.35355L5.35355 6.14645C5.15829 6.34171 4.84171 6.34171 4.64645 6.14645L3.35355 4.85355C3.15829 4.65829 3.15829 4.34171 3.35355 4.14645L4.14645 3.35355C4.34171 3.15829 4.65829 3.15829 4.85355 3.35355L6.14645 4.64645C6.34171 4.84171 6.34171 5.15829 6.14645 5.35355Z" fill="#838383"/>
</g>
<g filter="url(#filter1_i_924_38)">
<circle cx="8" cy="8" r="4" fill="#ADADAD"/>
</g>
<g filter="url(#filter2_i_924_38)">
<circle cx="8" cy="8" r="2.5" fill="#3779C6"/>
</g>
</g>
<defs>
<filter id="filter0_i_924_38" x="2" y="2" width="12.25" height="12.25" filterUnits="userSpaceOnUse" color-interpolation-filters="sRGB">
<feFlood flood-opacity="0" result="BackgroundImageFix"/>
<feBlend mode="normal" in="SourceGraphic" in2="BackgroundImageFix" result="shape"/>
<feColorMatrix in="SourceAlpha" type="matrix" values="0 0 0 0 0 0 0 0 0 0 0 0 0 0 0 0 0 0 127 0" result="hardAlpha"/>
<feOffset dx="0.25" dy="0.25"/>
<feGaussianBlur stdDeviation="0.25"/>
<feComposite in2="hardAlpha" operator="arithmetic" k2="-1" k3="1"/>
<feColorMatrix type="matrix" values="0 0 0 0 0.795833 0 0 0 0 0.795833 0 0 0 0 0.795833 0 0 0 0.5 0"/>
<feBlend mode="normal" in2="shape" result="effect1_innerShadow_924_38"/>
</filter>
<filter id="filter1_i_924_38" x="4" y="4" width="8.25" height="8.25" filterUnits="userSpaceOnUse" color-interpolation-filters="sRGB">
<feFlood flood-opacity="0" result="BackgroundImageFix"/>
<feBlend mode="normal" in="SourceGraphic" in2="BackgroundImageFix" result="shape"/>
<feColorMatrix in="SourceAlpha" type="matrix" values="0 0 0 0 0 0 0 0 0 0 0 0 0 0 0 0 0 0 127 0" result="hardAlpha"/>
<feOffset dx="0.25" dy="0.25"/>
<feGaussianBlur stdDeviation="0.25"/>
<feComposite in2="hardAlpha" operator="arithmetic" k2="-1" k3="1"/>
<feColorMatrix type="matrix" values="0 0 0 0 0.9875 0 0 0 0 0.9875 0 0 0 0 0.9875 0 0 0 0.5 0"/>
<feBlend mode="normal" in2="shape" result="effect1_innerShadow_924_38"/>
</filter>
<filter id="filter2_i_924_38" x="5.5" y="5.5" width="5.25" height="5.25" filterUnits="userSpaceOnUse" color-interpolation-filters="sRGB">
<feFlood flood-opacity="0" result="BackgroundImageFix"/>
<feBlend mode="normal" in="SourceGraphic" in2="BackgroundImageFix" result="shape"/>
<feColorMatrix in="SourceAlpha" type="matrix" values="0 0 0 0 0 0 0 0 0 0 0 0 0 0 0 0 0 0 127 0" result="hardAlpha"/>
<feOffset dx="0.25" dy="0.25"/>
<feGaussianBlur stdDeviation="0.25"/>
<feComposite in2="hardAlpha" operator="arithmetic" k2="-1" k3="1"/>
<feColorMatrix type="matrix" values="0 0 0 0 0.459063 0 0 0 0 0.789262 0 0 0 0 0.975 0 0 0 0.5 0"/>
<feBlend mode="normal" in2="shape" result="effect1_innerShadow_924_38"/>
</filter>
<clipPath id="clip0_924_38">
<rect width="16" height="16" fill="white"/>
</clipPath>
</defs>
</svg>
