<!-- Copyright © Ewsgit 2022. -->
<!-- Licensed under the MIT License - https://ewsgit.github.io/devdash/copyright -->

<svg width="48" height="48" viewBox="0 0 48 48" fill="none" xmlns="http://www.w3.org/2000/svg">
<path fill-rule="evenodd" clip-rule="evenodd" d="M21.9045 12.5076C21.8605 11.7216 21.3951 11.0769 20.6099 11.0205C20.4317 11.0077 20.2292 11 20 11C19.7708 11 19.5683 11.0077 19.3901 11.0205C18.6049 11.0769 18.1395 11.7216 18.0955 12.5076C18.047 13.3726 18 14.7832 18 17C18 19.2168 18.047 20.6274 18.0955 21.4924C18.1395 22.2784 18.6049 22.9231 19.3901 22.9795C19.5683 22.9923 19.7708 23 20 23C20.2292 23 20.4317 22.9923 20.6099 22.9795C21.3951 22.9231 21.8605 22.2784 21.9045 21.4924C21.953 20.6274 22 19.2168 22 17C22 14.7832 21.953 13.3726 21.9045 12.5076ZM26.0955 12.5076C26.1395 11.7216 26.6049 11.0769 27.3901 11.0205C27.5683 11.0077 27.7708 11 28 11C28.2292 11 28.4317 11.0077 28.6099 11.0205C29.3951 11.0769 29.8605 11.7216 29.9045 12.5076C29.953 13.3726 30 14.7832 30 17C30 19.2168 29.953 20.6274 29.9045 21.4924C29.8605 22.2784 29.3951 22.9231 28.6099 22.9795C28.4317 22.9923 28.2292 23 28 23C27.7708 23 27.5683 22.9923 27.3901 22.9795C26.6049 22.9231 26.1395 22.2784 26.0955 21.4924C26.047 20.6274 26 19.2168 26 17C26 14.7832 26.047 13.3726 26.0955 12.5076Z" fill="#ACB4C9"/>
<path fill-rule="evenodd" clip-rule="evenodd" d="M6.81818 24.2344C6.81818 14.6392 14.5107 6.86081 24 6.86081C33.4893 6.86081 41.1818 14.6392 41.1818 24.2344C41.1818 32.343 35.6865 39.1587 28.2534 41.0721C27.6624 41.2242 27.1343 41.0625 26.7011 40.6571C26.2425 40.2278 25.9091 39.5252 25.9091 38.7125V36.8976C26.4192 36.8465 26.8891 36.7826 27.2847 36.721C28.0332 36.6045 28.6122 36.037 28.7599 35.294C28.9545 34.3144 29.2405 32.7267 29.5553 30.4891C31.1208 29.5426 32.3247 28.5261 33.0403 27.8612C33.5436 27.3935 33.8714 26.7741 33.931 26.0896C34.0284 24.9714 34.0088 23.5414 33.9574 22.3032C33.8884 20.6392 32.7013 19.3282 31.0404 19.2061C29.5343 19.0954 27.2839 19 24 19C20.7161 19 18.4657 19.0954 16.9596 19.2061C15.2987 19.3282 14.1116 20.6392 14.0426 22.3032C13.9912 23.5414 13.9716 24.9714 14.069 26.0896C14.1286 26.7741 14.4564 27.3935 14.9597 27.8612C15.6753 28.5261 16.8792 29.5425 18.4447 30.489C18.7595 32.7267 19.0455 34.3144 19.2401 35.2939C19.3878 36.037 19.9668 36.6045 20.7153 36.721C21.1109 36.7826 21.5808 36.8465 22.0909 36.8976V38.7125C22.0909 42.2646 25.1003 45.8677 29.1954 44.8135C38.2795 42.4751 45 34.1508 45 24.2344C45 12.507 35.598 3 24 3C12.402 3 3 12.507 3 24.2344C3 30.0976 5.35257 35.4088 9.15069 39.2494C10.8279 40.9454 12.7886 42.3565 14.9559 43.4037C15.5739 43.7023 16.3419 43.6444 16.748 43.0912C17.1621 42.5273 17.3409 41.9078 17.4121 41.3952C17.5069 40.7121 17.033 40.1363 16.4158 39.8287C14.7177 38.9825 13.1767 37.8604 11.8506 36.5194C8.73921 33.3733 6.81818 29.0325 6.81818 24.2344Z" fill="#576684"/>
</svg>