<!-- Copyright © Ewsgit 2022. -->
<!-- Licensed under the MIT License - https://ewsgit.github.io/devdash/copyright -->

<svg width="48" height="48" viewBox="0 0 48 48" fill="none" xmlns="http://www.w3.org/2000/svg">
<path d="M37.4262 3.56402C39.1977 3.76291 40.5658 4.9656 40.8876 6.71897C41.3959 9.48875 42 14.7306 42 24C42 32.3188 41.7297 37.3937 41.4701 40.3491C41.2722 42.6027 39.6012 44.2739 37.3491 44.4883C34.6822 44.7421 30.3984 45 24 45C17.6016 45 13.3178 44.7421 10.6509 44.4883C8.39879 44.2739 6.72777 42.6027 6.52987 40.3491C6.27032 37.3937 6 32.3187 6 24C6 15.6813 6.27032 10.6063 6.52987 7.65087C6.72778 5.39729 8.39879 3.72606 10.6509 3.51171C13.3178 3.25787 17.6016 3 24 3C30.8391 3 35.0266 3.29461 37.4262 3.56402Z" fill="#ACB4C9"/>
<path d="M33.858 7.34642C35.6091 7.50476 36.9766 8.6602 37.2704 10.3938C37.63 12.5149 38 16.1248 38 22C38 27.0666 37.8471 30.4486 37.6769 32.6439C37.5026 34.8927 35.8239 36.5309 33.5747 36.7C31.4789 36.8576 28.375 37 24 37C19.625 37 16.5211 36.8576 14.4253 36.7C12.1761 36.5309 10.4974 34.8927 10.3231 32.6439C10.1529 30.4486 10 27.0666 10 22C10 16.9334 10.1529 13.5514 10.3231 11.3561C10.4974 9.10732 12.1761 7.46911 14.4253 7.29996C16.5211 7.14235 19.625 7 24 7C28.8019 7 31.9232 7.1715 33.858 7.34642Z" fill="#576684"/>
<path d="M22.008 40.3266C22.0266 39.6075 22.4903 39.0653 23.2083 39.0219C23.43 39.0084 23.6919 39 24 39C24.3081 39 24.57 39.0084 24.7917 39.0219C25.5097 39.0653 25.9734 39.6075 25.992 40.3266C25.997 40.5192 26 40.7422 26 41C26 41.2578 25.997 41.4808 25.992 41.6734C25.9734 42.3925 25.5097 42.9347 24.7917 42.9781C24.57 42.9916 24.3081 43 24 43C23.6919 43 23.43 42.9916 23.2083 42.9781C22.4903 42.9347 22.0266 42.3925 22.008 41.6734C22.003 41.4808 22 41.2578 22 41C22 40.7422 22.003 40.5192 22.008 40.3266Z" fill="#576684"/>
</svg>