<!-- Copyright © Ewsgit 2022. -->
<!-- Licensed under the MIT License - https://ewsgit.github.io/devdash/copyright -->

<svg width="48" height="48" viewBox="0 0 48 48" fill="none" xmlns="http://www.w3.org/2000/svg">
<path d="M36.7184 8.31007C36.8689 10.3628 37 13.4552 37 18L11 18C11 12.687 11.3225 9.35882 11.6463 7.3563C11.9272 5.61888 13.2942 4.45749 15.0476 4.30545C16.8567 4.14858 19.704 4 24 4C27.8837 4 30.6888 4.12143 32.6284 4.26064C34.8788 4.42215 36.5534 6.05996 36.7184 8.31007Z" fill="#ACB4C9"/>
<path fill-rule="evenodd" clip-rule="evenodd" d="M7.76136 35.286C5.96951 35.0645 4.62856 33.7984 4.40298 32.0071C4.19164 30.3287 4 27.768 4 24C4 20.5376 4.16181 18.004 4.35203 16.2218C4.58784 14.0125 6.32532 12.4802 8.54313 12.3463C11.3736 12.1754 16.1831 12 24 12C31.8169 12 36.6264 12.1754 39.4569 12.3463C41.6747 12.4802 43.4122 14.0125 43.648 16.2218C43.8382 18.004 44 20.5376 44 24C44 27.4624 43.8382 29.9959 43.648 31.7782C43.4122 33.9875 41.6747 35.5198 39.4569 35.6537C38.5987 35.7055 37.8945 34.992 37.9271 34.1329C37.9718 32.9535 38 31.5826 38 29.9999C38 29.3309 37.4417 28.7999 36.773 28.8225C33.8685 28.921 29.7471 29 24 29C18.3689 29 14.2985 28.8634 11.4043 28.6912C10.6464 28.6462 10 29.2407 10 29.9999C10 31.4552 10.0238 32.714 10.0624 33.7986C10.095 34.7126 9.32651 35.4636 8.41755 35.3628C8.18523 35.3371 7.9667 35.3114 7.76136 35.286Z" fill="#576684"/>
<path fill-rule="evenodd" clip-rule="evenodd" d="M12.0059 31.7846C12.0016 31.2097 12.4835 30.7515 13.0578 30.7785C15.7917 30.9071 19.3676 30.9995 23.9993 30.9995C28.6445 30.9995 32.2277 30.9479 34.9646 30.8761C35.5299 30.8613 35.9966 31.3163 35.9921 31.8819C35.9641 35.4067 35.8589 37.9187 35.7405 39.6738C35.5882 41.9309 33.9284 43.5962 31.6722 43.761C29.8959 43.8908 27.3941 43.9997 23.9994 43.9997C20.6047 43.9997 18.1028 43.8908 16.3265 43.761C14.0703 43.5962 12.4105 41.9309 12.2582 39.6738C12.1388 37.9026 12.0327 35.3605 12.0059 31.7846Z" fill="#ACB4C9"/>
<path d="M36.0033 19.5527C36.0169 18.6897 36.5718 18.0449 37.4343 18.0106C37.6028 18.0039 37.7907 18 38 18C38.2093 18 38.3972 18.0039 38.5657 18.0106C39.4282 18.0449 39.9831 18.6897 39.9967 19.5527C39.9988 19.6887 40 19.8375 40 20C40 20.1625 39.9988 20.3113 39.9967 20.4473C39.9831 21.3103 39.4282 21.9551 38.5657 21.9894C38.3972 21.9961 38.2093 22 38 22C37.7907 22 37.6028 21.9961 37.4343 21.9894C36.5718 21.9551 36.0169 21.3103 36.0033 20.4473C36.0012 20.3113 36 20.1625 36 20C36 19.8375 36.0012 19.6887 36.0033 19.5527Z" fill="#ACB4C9"/>
</svg>