<!-- Copyright © Ewsgit 2022. -->
<!-- Licensed under the MIT License - https://ewsgit.github.io/devdash/copyright -->

<svg width="49" height="48" viewBox="0 0 49 48" fill="none" xmlns="http://www.w3.org/2000/svg">
<path fill-rule="evenodd" clip-rule="evenodd" d="M19.5645 11.5968C19.5992 12.3484 20.0324 12.9711 20.7844 12.9965C20.8524 12.9988 20.9243 13 21 13C21.0757 13 21.1476 12.9988 21.2156 12.9965C21.9676 12.9711 22.4008 12.3484 22.4355 11.5968C22.4762 10.7141 23.1863 10.0025 24.07 10.0005C24.2121 10.0002 24.3554 10 24.5 10C31.3964 10 35.5388 10.3685 37.9048 10.7132C39.69 10.9732 40.9497 12.3181 41.1359 14.1125C41.3238 15.9245 41.5 18.755 41.5 23C41.5 27.245 41.3238 30.0755 41.1359 31.8875C40.9497 33.6819 39.69 35.0268 37.9048 35.2868C35.5388 35.6315 31.3964 36 24.5 36C17.6036 36 13.4612 35.6315 11.0952 35.2868C9.30995 35.0268 8.05026 33.6819 7.86412 31.8875C7.67615 30.0755 7.5 27.245 7.5 23C7.5 18.755 7.67615 15.9245 7.86412 14.1125C8.05026 12.3181 9.30995 10.9732 11.0952 10.7132C12.5962 10.4945 14.8122 10.2663 17.9927 10.1286C18.8314 10.0923 19.5258 10.7583 19.5645 11.5968Z" fill="#ACB4C9"/>
<path fill-rule="evenodd" clip-rule="evenodd" d="M33.5007 10.2672C34.6656 10.3468 35.6578 10.4384 36.4987 10.5335C36.4916 11.6799 36.4621 12.4519 36.4311 12.957C36.3977 13.504 36.0611 13.943 35.5146 13.9834C35.3675 13.9943 35.1971 14.001 35.0003 14.001C34.8036 14.001 34.6332 13.9943 34.4861 13.9834C33.9396 13.943 33.603 13.504 33.5695 12.957C33.5363 12.4137 33.5046 11.5617 33.5007 10.2672ZM26.5003 10.0117C27.5747 10.0236 28.5732 10.0449 29.5003 10.0737C29.4992 11.4775 29.466 12.3871 29.4311 12.957C29.3977 13.504 29.0611 13.943 28.5146 13.9834C28.3675 13.9943 28.1971 14.001 28.0003 14.001C27.8036 14.001 27.6331 13.9943 27.4861 13.9834C26.9396 13.943 26.603 13.504 26.5695 12.957C26.5342 12.3788 26.5005 11.4508 26.5003 10.0117ZM15.5 10.2672C15.4961 11.5617 15.4644 12.4137 15.4311 12.957C15.3977 13.504 15.0611 13.943 14.5146 13.9834C14.3675 13.9943 14.1971 14.001 14.0003 14.001C13.8036 14.001 13.6331 13.9943 13.4861 13.9834C12.9396 13.943 12.603 13.504 12.5695 12.957C12.5386 12.4519 12.5091 11.6799 12.502 10.5335C13.3429 10.4384 14.3351 10.3468 15.5 10.2672Z" fill="#576684"/>
<path fill-rule="evenodd" clip-rule="evenodd" d="M7.26963 16.6741C5.50039 16.8708 4.14064 18.0731 3.89796 19.8366C3.76791 20.7817 3.64745 22.0131 3.57381 23.5921C3.53699 24.3815 4.16418 25.0329 4.95317 25.0776C5.79071 25.125 6.44739 25.651 6.48798 26.4889C6.4954 26.6422 6.49969 26.8121 6.49969 27C6.49969 27.1879 6.4954 27.3578 6.48798 27.5111C6.44739 28.349 5.79071 28.875 4.95317 28.9224C4.16418 28.9671 3.53699 29.6185 3.57381 30.4079C3.64745 31.9869 3.76791 33.2183 3.89796 34.1634C4.14064 35.9269 5.50038 37.1292 7.26963 37.3259C10.0525 37.6353 15.2868 38 24.4997 38C33.7126 38 38.9468 37.6353 41.7298 37.3259C43.499 37.1292 44.8587 35.9269 45.1014 34.1634C45.2315 33.2183 45.3519 31.9869 45.4256 30.4079C45.4624 29.6185 44.8352 28.9671 44.0462 28.9224C43.2087 28.875 42.552 28.349 42.5114 27.5111C42.504 27.3578 42.4997 27.1879 42.4997 27C42.4997 26.8121 42.504 26.6422 42.5114 26.4889C42.552 25.651 43.2087 25.125 44.0462 25.0776C44.8352 25.0329 45.4624 24.3815 45.4256 23.5921C45.3519 22.0131 45.2315 20.7817 45.1014 19.8366C44.8587 18.0731 43.499 16.8708 41.7298 16.6741C38.9468 16.3647 33.7126 16 24.4997 16C15.2868 16 10.0525 16.3647 7.26963 16.6741Z" fill="#576684"/>
<path d="M11.56 23.6291C11.5933 22.8993 11.9907 22.2703 12.7092 22.1386C13.1375 22.0601 13.72 22 14.5 22C15.28 22 15.8625 22.0601 16.2908 22.1386C17.0093 22.2703 17.4067 22.8993 17.44 23.6291C17.4716 24.3192 17.5 25.3886 17.5 27C17.5 28.6114 17.4716 29.6807 17.44 30.3709C17.4067 31.1007 17.0093 31.7297 16.2908 31.8614C15.8625 31.9399 15.28 32 14.5 32C13.72 32 13.1375 31.9399 12.7092 31.8614C11.9907 31.7297 11.5933 31.1007 11.56 30.3709C11.5284 29.6808 11.5 28.6114 11.5 27C11.5 25.3886 11.5284 24.3192 11.56 23.6291Z" fill="#ACB4C9"/>
<path d="M21.56 23.6291C21.5933 22.8993 21.9907 22.2703 22.7092 22.1386C23.1375 22.0601 23.72 22 24.5 22C25.28 22 25.8625 22.0601 26.2908 22.1386C27.0093 22.2703 27.4067 22.8993 27.44 23.6291C27.4716 24.3192 27.5 25.3886 27.5 27C27.5 28.6114 27.4716 29.6807 27.44 30.3709C27.4067 31.1007 27.0093 31.7297 26.2908 31.8614C25.8625 31.9399 25.28 32 24.5 32C23.72 32 23.1375 31.9399 22.7092 31.8614C21.9907 31.7297 21.5933 31.1007 21.56 30.3709C21.5284 29.6808 21.5 28.6114 21.5 27C21.5 25.3886 21.5284 24.3192 21.56 23.6291Z" fill="#ACB4C9"/>
<path d="M31.56 23.6291C31.5933 22.8993 31.9907 22.2703 32.7092 22.1386C33.1375 22.0601 33.72 22 34.5 22C35.28 22 35.8625 22.0601 36.2908 22.1386C37.0093 22.2703 37.4067 22.8993 37.44 23.6291C37.4716 24.3192 37.5 25.3886 37.5 27C37.5 28.6114 37.4716 29.6807 37.44 30.3709C37.4067 31.1007 37.0093 31.7297 36.2908 31.8614C35.8625 31.9399 35.28 32 34.5 32C33.72 32 33.1375 31.9399 32.7092 31.8614C31.9907 31.7297 31.5933 31.1007 31.56 30.3709C31.5284 29.6808 31.5 28.6114 31.5 27C31.5 25.3886 31.5284 24.3192 31.56 23.6291Z" fill="#ACB4C9"/>
</svg>