<!-- Copyright © Ewsgit 2022. -->
<!-- Licensed under the MIT License - https://ewsgit.github.io/devdash/copyright -->

<svg xmlns="http://www.w3.org/2000/svg" width="48" height="48" fill="none" viewBox="0 0 48 48"><circle r="21" fill="#ACB4C9" transform="matrix(-1 0 0 1 24 24)"/><path fill="#576684" fill-rule="evenodd" d="M25.9988 44.9061C25.9996 44.6145 26 44.3126 26 44C26 41.8107 25.9796 40.1457 25.9519 38.8933C26.4455 38.8429 26.9002 38.7808 27.2847 38.721C28.0332 38.6045 28.6122 38.037 28.7599 37.294C28.9545 36.3144 29.2405 34.7267 29.5553 32.4891C31.1208 31.5426 32.3247 30.5261 33.0403 29.8612C33.5436 29.3935 33.8714 28.7741 33.931 28.0896C34.0284 26.9714 34.0088 25.5414 33.9574 24.3032C33.8884 22.6392 32.7013 21.3282 31.0404 21.2061C30.7221 21.1827 30.3706 21.16 29.9831 21.1387C29.9936 20.5269 30 19.8184 30 19C30 16.7832 29.953 15.3726 29.9045 14.5076C29.8605 13.7216 29.3951 13.0769 28.6099 13.0205C28.4317 13.0077 28.2292 13 28 13C27.7708 13 27.5683 13.0077 27.3901 13.0205C26.6049 13.0769 26.1395 13.7216 26.0955 14.5076C26.047 15.3726 26 16.7832 26 19C26 19.7629 26.0056 20.4304 26.0149 21.0129C25.3909 21.0046 24.7203 21 24 21C23.2797 21 22.6091 21.0046 21.9851 21.0129C21.9944 20.4304 22 19.7629 22 19C22 16.7832 21.953 15.3726 21.9045 14.5076C21.8605 13.7216 21.3951 13.0769 20.6099 13.0205C20.4317 13.0077 20.2292 13 20 13C19.7708 13 19.5683 13.0077 19.3901 13.0205C18.6049 13.0769 18.1395 13.7216 18.0955 14.5076C18.047 15.3726 18 16.7832 18 19C18 19.8184 18.0064 20.5269 18.0169 21.1387C17.6294 21.16 17.2779 21.1827 16.9596 21.2061C15.2987 21.3282 14.1116 22.6392 14.0426 24.3032C13.9912 25.5414 13.9716 26.9714 14.069 28.0896C14.1286 28.7741 14.4564 29.3935 14.9597 29.8612C15.6753 30.5261 16.8792 31.5425 18.4447 32.489C18.7595 34.7267 19.0455 36.3144 19.2401 37.2939C19.3878 38.037 19.9668 38.6045 20.7153 38.721C21.0998 38.7808 21.5545 38.8429 22.0481 38.8933C22.0204 40.1457 22 41.8107 22 44C22 44.3126 22.0004 44.6145 22.0012 44.9061C22.6591 44.9682 23.3258 45 24 45C24.6742 45 25.3409 44.9682 25.9988 44.9061Z" clip-rule="evenodd"/></svg>