<!-- Copyright © Ewsgit 2022. -->
<!-- Licensed under the MIT License - https://ewsgit.github.io/devdash/copyright -->

<svg xmlns="http://www.w3.org/2000/svg" width="48" height="48" fill="none" viewBox="0 0 48 48"><path fill="#576684" d="M28 34H20L18.4144 39.5494C18.1691 40.408 17.3844 41 16.4914 41H14.9694C13.812 41 12.8031 41.7877 12.5224 42.9106C12.257 43.9719 13.0597 45 14.1537 45H33.8463C34.9403 45 35.743 43.9719 35.4777 42.9106C35.1969 41.7877 34.188 41 33.0306 41H31.5086C30.6156 41 29.8309 40.408 29.5856 39.5494L28 34Z"/><path fill="#576684" d="M4.50907 7.43907C4.70272 5.68619 5.90986 4.35437 7.64608 4.04509C10.3344 3.56621 15.3433 3 24 3C32.6567 3 37.6656 3.56621 40.3539 4.04509C42.0901 4.35437 43.2973 5.68619 43.4909 7.43907C43.7395 9.68868 44 13.5784 44 20C44 26.4216 43.7395 30.3113 43.4909 32.5609C43.2973 34.3138 42.0901 35.6456 40.3539 35.9549C37.6656 36.4338 32.6567 37 24 37C15.3433 37 10.3344 36.4338 7.64608 35.9549C5.90986 35.6456 4.70272 34.3138 4.50907 32.5609C4.26053 30.3113 4 26.4216 4 20C4 13.5784 4.26053 9.68868 4.50907 7.43907Z"/><path fill="#ACB4C9" fill-rule="evenodd" d="M43.5484 32C43.5289 32.1974 43.5093 32.3842 43.4897 32.5609C43.2961 34.3138 42.089 35.6456 40.3527 35.9549C37.6645 36.4338 32.6555 37 23.9988 37C15.3421 37 10.3332 36.4338 7.64489 35.9549C5.90867 35.6456 4.70153 34.3138 4.50788 32.5609C4.48835 32.3842 4.46876 32.1974 4.44922 32H43.5484Z" clip-rule="evenodd"/></svg>