<!-- Copyright © Ewsgit 2022. -->
<!-- Licensed under the MIT License - https://ewsgit.github.io/devdash/copyright -->

<svg xmlns="http://www.w3.org/2000/svg" width="48" height="48" fill="none" viewBox="0 0 48 48"><path fill="#ACB4C9" d="M43.8673 32.8715C43.4355 23.2031 42.0414 17.0939 41.0512 13.8609C40.489 12.0255 38.8819 10.8174 36.9726 10.6189C34.254 10.3364 29.7997 10 24 10C18.2003 10 13.746 10.3364 11.0274 10.6189C9.11808 10.8174 7.51097 12.0255 6.9488 13.861C5.9586 17.094 4.56451 23.2031 4.13271 32.8715C3.96531 36.6198 6.24803 40 10 40C10.4893 40 10.9487 39.985 11.3782 39.9588C14.4097 39.7733 16.5396 37.3813 17.5 34.5C17.8201 33.5396 18.5157 32.7463 19.4978 32.5005C20.4978 32.2504 21.9985 32 24 32C26.0015 32 27.5022 32.2504 28.5022 32.5005C29.4843 32.7463 30.1799 33.5396 30.5 34.5C31.4604 37.3813 33.5903 39.7733 36.6218 39.9588C37.0513 39.985 37.5107 40 38 40C41.752 40 44.0347 36.6198 43.8673 32.8715Z"/><path fill="#576684" d="M26 21.5C26 20.353 26.7341 19.5088 27.8811 19.5004C27.9199 19.5001 27.9596 19.5 28 19.5C28.0404 19.5 28.0801 19.5001 28.1189 19.5004C29.2659 19.5088 30 20.353 30 21.5C30 22.647 29.2659 23.4912 28.1189 23.4996C28.0801 23.4999 28.0404 23.5 28 23.5C27.9596 23.5 27.9199 23.4999 27.8811 23.4996C26.7341 23.4912 26 22.647 26 21.5Z"/><path fill="#576684" d="M38 21.5C38 20.353 37.2659 19.5088 36.1189 19.5004C36.0801 19.5001 36.0404 19.5 36 19.5C35.9596 19.5 35.9199 19.5001 35.8811 19.5004C34.7341 19.5088 34 20.353 34 21.5C34 22.647 34.7341 23.4912 35.8811 23.4996C35.9199 23.4999 35.9596 23.5 36 23.5C36.0404 23.5 36.0801 23.4999 36.1189 23.4996C37.2659 23.4912 38 22.647 38 21.5Z"/><path fill="#576684" d="M32 15.5C33.147 15.5 33.9912 16.2341 33.9996 17.3811C33.9999 17.4199 34 17.4596 34 17.5C34 17.5404 33.9999 17.5801 33.9996 17.6189C33.9912 18.7659 33.147 19.5 32 19.5C30.853 19.5 30.0088 18.7659 30.0004 17.6189C30.0001 17.5801 30 17.5404 30 17.5C30 17.4596 30.0001 17.4199 30.0004 17.3811C30.0088 16.2341 30.853 15.5 32 15.5Z"/><path fill="#576684" d="M32 27.5C33.147 27.5 33.9912 26.7659 33.9996 25.6189C33.9999 25.5801 34 25.5404 34 25.5C34 25.4596 33.9999 25.4199 33.9996 25.3811C33.9912 24.2341 33.147 23.5 32 23.5C30.853 23.5 30.0088 24.2341 30.0004 25.3811C30.0001 25.4199 30 25.4596 30 25.5C30 25.5404 30.0001 25.5801 30.0004 25.6189C30.0088 26.7659 30.853 27.5 32 27.5Z"/><path fill="#576684" fill-rule="evenodd" d="M17.3766 17.3609C17.3304 16.5884 16.6864 16 15.9125 16H15.0875C14.3136 16 13.6696 16.5884 13.6234 17.3609C13.5953 17.8296 13.5662 18.4032 13.5433 19.0562C13.534 19.3211 13.3211 19.534 13.0562 19.5433C12.4032 19.5662 11.8296 19.5953 11.3609 19.6234C10.5884 19.6696 10 20.3136 10 21.0875V21.9125C10 22.6864 10.5884 23.3304 11.3609 23.3766C11.8296 23.4047 12.4032 23.4338 13.0562 23.4567C13.3211 23.466 13.534 23.6789 13.5433 23.9438C13.5662 24.5968 13.5953 25.1704 13.6234 25.6391C13.6696 26.4116 14.3136 27 15.0875 27H15.9125C16.6864 27 17.3304 26.4116 17.3766 25.6391C17.4047 25.1704 17.4338 24.5968 17.4567 23.9438C17.466 23.6789 17.6789 23.466 17.9438 23.4567C18.5968 23.4338 19.1704 23.4047 19.6391 23.3766C20.4116 23.3304 21 22.6864 21 21.9125V21.0875C21 20.3136 20.4116 19.6696 19.6391 19.6234C19.1704 19.5953 18.5968 19.5662 17.9438 19.5433C17.6789 19.534 17.466 19.3211 17.4567 19.0562C17.4338 18.4032 17.4047 17.8296 17.3766 17.3609Z" clip-rule="evenodd"/></svg>