<!-- Copyright © Ewsgit 2022. -->
<!-- Licensed under the MIT License - https://ewsgit.github.io/devdash/copyright -->

<svg width="48" height="48" viewBox="0 0 48 48" fill="none" xmlns="http://www.w3.org/2000/svg">
<path fill-rule="evenodd" clip-rule="evenodd" d="M23.9992 2C20.3835 2 17.4657 3.48016 14.9165 5.65794C14.3247 6.16354 14.073 6.96442 14.5606 7.57119C14.6808 7.72075 14.8265 7.88086 15.003 8.04827C15.2224 8.25627 15.4299 8.41909 15.6189 8.54646C16.2181 8.95019 16.9475 8.7083 17.4915 8.2329C19.3174 6.63743 21.283 5.45572 23.9992 5.5C26.6882 5.54383 28.7528 6.71969 30.6089 8.32955C31.0924 8.7489 31.7237 8.9776 32.2626 8.63226C32.4766 8.49511 32.7228 8.30681 32.9955 8.04827C33.2284 7.82743 33.4072 7.6249 33.5446 7.44407C33.9597 6.89771 33.722 6.21197 33.2035 5.76253C30.6255 3.52768 27.6726 2 23.9992 2ZM23.9992 8C21.9926 8.00002 20.3629 8.74364 18.9244 9.85306C18.3183 10.3206 18.0699 11.1079 18.566 11.6909C18.6775 11.8219 18.8108 11.9616 18.9701 12.108C19.1949 12.3146 19.4052 12.4734 19.5947 12.5955C20.1675 12.9646 20.8425 12.7217 21.3843 12.3084C22.1214 11.7462 22.9341 11.3434 23.9992 11.3434C25.0998 11.3434 25.9309 11.7734 26.6876 12.3651C27.1811 12.7509 27.7935 12.9816 28.3255 12.6508C28.5316 12.5227 28.7678 12.3475 29.0284 12.108C29.2269 11.9257 29.3847 11.7564 29.5103 11.6025C29.9527 11.0602 29.7143 10.3557 29.1641 9.92317C27.7037 8.77505 26.0478 7.99998 23.9992 8Z" fill="#576684"/>
<path d="M46.379 42.9576C46.1593 44.5389 45.0579 45.7139 43.4831 45.9755C40.7221 46.4342 35.0722 47 24 47C14.0826 47 8.51551 46.7478 5.47804 46.5121C3.37001 46.3485 1.78836 44.8487 1.54677 42.7482C1.27324 40.37 0.999997 36.5943 0.999997 31C0.999998 25.4058 1.27324 21.63 1.54677 19.2518C1.78836 17.1512 3.37001 15.6515 5.47805 15.4879C8.51553 15.2522 14.0826 15 24 15C33.9174 15 39.4845 15.2522 42.522 15.4879C44.63 15.6515 46.2116 17.1512 46.4532 19.2518C46.7268 21.63 47 25.4057 47 31C47 37.1014 46.675 40.8286 46.379 42.9576Z" fill="#ACB4C9"/>
<path d="M7.52282 21.6511C7.55584 20.7885 8.1146 20.131 8.97464 20.0573C9.36963 20.0235 9.87052 20 10.5 20C11.1295 20 11.6304 20.0235 12.0254 20.0573C12.8854 20.131 13.4442 20.7885 13.4772 21.6511C13.4909 22.008 13.5 22.4517 13.5 23C13.5 23.5483 13.4909 23.992 13.4772 24.3489C13.4442 25.2115 12.8854 25.869 12.0254 25.9427C11.6304 25.9765 11.1295 26 10.5 26C9.87052 26 9.36963 25.9765 8.97464 25.9427C8.1146 25.869 7.55584 25.2115 7.52282 24.3489C7.50915 23.992 7.5 23.5483 7.5 23C7.5 22.4517 7.50915 22.008 7.52282 21.6511Z" fill="#576684"/>
<path d="M7.52282 30.6511C7.55584 29.7885 8.1146 29.131 8.97464 29.0573C9.36963 29.0235 9.87052 29 10.5 29C11.1295 29 11.6304 29.0235 12.0254 29.0573C12.8854 29.131 13.4442 29.7885 13.4772 30.6511C13.4909 31.008 13.5 31.4517 13.5 32C13.5 32.5483 13.4909 32.992 13.4772 33.3489C13.4442 34.2115 12.8854 34.869 12.0254 34.9427C11.6304 34.9765 11.1295 35 10.5 35C9.87052 35 9.36963 34.9765 8.97464 34.9427C8.1146 34.869 7.55584 34.2115 7.52282 33.3489C7.50915 32.992 7.5 32.5483 7.5 32C7.5 31.4517 7.50915 31.008 7.52282 30.6511Z" fill="#576684"/>
<path d="M16.5228 21.6511C16.5558 20.7885 17.1146 20.131 17.9746 20.0573C18.3696 20.0235 18.8705 20 19.5 20C20.1295 20 20.6304 20.0235 21.0254 20.0573C21.8854 20.131 22.4442 20.7885 22.4772 21.6511C22.4909 22.008 22.5 22.4517 22.5 23C22.5 23.5483 22.4909 23.992 22.4772 24.3489C22.4442 25.2115 21.8854 25.869 21.0254 25.9427C20.6304 25.9765 20.1295 26 19.5 26C18.8705 26 18.3696 25.9765 17.9746 25.9427C17.1146 25.869 16.5558 25.2115 16.5228 24.3489C16.5091 23.992 16.5 23.5483 16.5 23C16.5 22.4517 16.5091 22.008 16.5228 21.6511Z" fill="#576684"/>
<path d="M16.5228 30.6511C16.5558 29.7885 17.1146 29.131 17.9746 29.0573C18.3696 29.0235 18.8705 29 19.5 29C20.1295 29 20.6304 29.0235 21.0254 29.0573C21.8854 29.131 22.4442 29.7885 22.4772 30.6511C22.4909 31.008 22.5 31.4517 22.5 32C22.5 32.5483 22.4909 32.992 22.4772 33.3489C22.4442 34.2115 21.8854 34.869 21.0254 34.9427C20.6304 34.9765 20.1295 35 19.5 35C18.8705 35 18.3696 34.9765 17.9746 34.9427C17.1146 34.869 16.5558 34.2115 16.5228 33.3489C16.5091 32.992 16.5 32.5483 16.5 32C16.5 31.4517 16.5091 31.008 16.5228 30.6511Z" fill="#576684"/>
<path d="M25.5228 21.6511C25.5558 20.7885 26.1146 20.131 26.9746 20.0573C27.3696 20.0235 27.8705 20 28.5 20C29.1295 20 29.6304 20.0235 30.0254 20.0573C30.8854 20.131 31.4442 20.7885 31.4772 21.6511C31.4909 22.008 31.5 22.4517 31.5 23C31.5 23.5483 31.4909 23.992 31.4772 24.3489C31.4442 25.2115 30.8854 25.869 30.0254 25.9427C29.6304 25.9765 29.1295 26 28.5 26C27.8705 26 27.3696 25.9765 26.9746 25.9427C26.1146 25.869 25.5558 25.2115 25.5228 24.3489C25.5091 23.992 25.5 23.5483 25.5 23C25.5 22.4517 25.5091 22.008 25.5228 21.6511Z" fill="#576684"/>
<path d="M34.5228 21.6511C34.5558 20.7885 35.1146 20.131 35.9746 20.0573C36.3696 20.0235 36.8705 20 37.5 20C38.1295 20 38.6304 20.0235 39.0254 20.0573C39.8854 20.131 40.4442 20.7885 40.4772 21.6511C40.4909 22.008 40.5 22.4517 40.5 23C40.5 23.5483 40.4909 23.992 40.4772 24.3489C40.4442 25.2115 39.8854 25.869 39.0254 25.9427C38.6304 25.9765 38.1295 26 37.5 26C36.8705 26 36.3696 25.9765 35.9746 25.9427C35.1146 25.869 34.5558 25.2115 34.5228 24.3489C34.5091 23.992 34.5 23.5483 34.5 23C34.5 22.4517 34.5091 22.008 34.5228 21.6511Z" fill="#576684"/>
<path d="M25.5228 30.6511C25.5558 29.7885 26.1146 29.131 26.9746 29.0573C27.3696 29.0235 27.8705 29 28.5 29C29.1295 29 29.6304 29.0235 30.0254 29.0573C30.8854 29.131 31.4442 29.7885 31.4772 30.6511C31.4909 31.008 31.5 31.4517 31.5 32C31.5 32.5483 31.4909 32.992 31.4772 33.3489C31.4442 34.2115 30.8854 34.869 30.0254 34.9427C29.6304 34.9765 29.1295 35 28.5 35C27.8705 35 27.3696 34.9765 26.9746 34.9427C26.1146 34.869 25.5558 34.2115 25.5228 33.3489C25.5091 32.992 25.5 32.5483 25.5 32C25.5 31.4517 25.5091 31.008 25.5228 30.6511Z" fill="#576684"/>
<path d="M34.5228 30.6511C34.5558 29.7885 35.1146 29.131 35.9746 29.0573C36.3696 29.0235 36.8705 29 37.5 29C38.1295 29 38.6304 29.0235 39.0254 29.0573C39.8854 29.131 40.4442 29.7885 40.4772 30.6511C40.4909 31.008 40.5 31.4517 40.5 32C40.5 32.5483 40.4909 32.992 40.4772 33.3489C40.4442 34.2115 39.8854 34.869 39.0254 34.9427C38.6304 34.9765 38.1295 35 37.5 35C36.8705 35 36.3696 34.9765 35.9746 34.9427C35.1146 34.869 34.5558 34.2115 34.5228 33.3489C34.5091 32.992 34.5 32.5483 34.5 32C34.5 31.4517 34.5091 31.008 34.5228 30.6511Z" fill="#576684"/>
<path d="M15.1127 39.2187C15.2479 38.5504 15.8694 38.2117 16.55 38.1706C17.7625 38.0974 20.1069 38 24 38C27.8931 38 30.2375 38.0974 31.45 38.1706C32.1306 38.2117 32.7521 38.5504 32.8873 39.2187C32.9527 39.5422 33 39.962 33 40.5C33 41.038 32.9527 41.4578 32.8873 41.7813C32.7521 42.4496 32.1306 42.7883 31.45 42.8294C30.2375 42.9026 27.8931 43 24 43C20.1069 43 17.7625 42.9026 16.55 42.8294C15.8694 42.7883 15.2479 42.4496 15.1127 41.7813C15.0473 41.4578 15 41.038 15 40.5C15 39.962 15.0473 39.5422 15.1127 39.2187Z" fill="#576684"/>
</svg>