<!-- Copyright © Ewsgit 2022. -->
<!-- Licensed under the MIT License - https://ewsgit.github.io/devdash/copyright -->

<svg width="49" height="48" viewBox="0 0 49 48" fill="none" xmlns="http://www.w3.org/2000/svg">
<path d="M12.9245 6.00635C13.8077 6.03394 14.3945 6.69228 14.4436 7.57455C14.4755 8.14656 14.5 8.93326 14.5 10C14.5 11.0667 14.4755 11.8534 14.4436 12.4254C14.3945 13.3077 13.8077 13.9661 12.9245 13.9937C12.7945 13.9977 12.6532 14 12.5 14C12.3468 14 12.2055 13.9977 12.0755 13.9937C11.1923 13.9661 10.6055 13.3077 10.5564 12.4254C10.5245 11.8534 10.5 11.0667 10.5 10C10.5 8.93326 10.5245 8.14656 10.5564 7.57455C10.6055 6.69228 11.1923 6.03394 12.0755 6.00635C12.2055 6.00228 12.3468 6 12.5 6C12.6532 6 12.7945 6.00228 12.9245 6.00635Z" fill="#ACB4C9"/>
<path d="M20.9245 6.00635C21.8077 6.03394 22.3945 6.69228 22.4436 7.57455C22.4755 8.14656 22.5 8.93326 22.5 10C22.5 11.0667 22.4755 11.8534 22.4436 12.4254C22.3945 13.3077 21.8077 13.9661 20.9245 13.9937C20.7945 13.9977 20.6532 14 20.5 14C20.3468 14 20.2055 13.9977 20.0755 13.9937C19.1923 13.9661 18.6055 13.3077 18.5564 12.4254C18.5245 11.8534 18.5 11.0667 18.5 10C18.5 8.93326 18.5245 8.14656 18.5564 7.57455C18.6055 6.69228 19.1923 6.03394 20.0755 6.00635C20.2055 6.00228 20.3468 6 20.5 6C20.6532 6 20.7945 6.00228 20.9245 6.00635Z" fill="#ACB4C9"/>
<path d="M28.9245 6.00635C29.8077 6.03394 30.3945 6.69228 30.4436 7.57455C30.4755 8.14656 30.5 8.93326 30.5 10C30.5 11.0667 30.4755 11.8534 30.4436 12.4254C30.3945 13.3077 29.8077 13.9661 28.9245 13.9937C28.7945 13.9977 28.6532 14 28.5 14C28.3468 14 28.2055 13.9977 28.0755 13.9937C27.1923 13.9661 26.6055 13.3077 26.5564 12.4254C26.5245 11.8534 26.5 11.0667 26.5 10C26.5 8.93326 26.5245 8.14656 26.5564 7.57455C26.6055 6.69228 27.1923 6.03394 28.0755 6.00635C28.2055 6.00228 28.3468 6 28.5 6C28.6532 6 28.7945 6.00228 28.9245 6.00635Z" fill="#ACB4C9"/>
<path d="M36.9245 6.00635C37.8077 6.03394 38.3945 6.69228 38.4436 7.57455C38.4755 8.14656 38.5 8.93326 38.5 10C38.5 11.0667 38.4755 11.8534 38.4436 12.4254C38.3945 13.3077 37.8077 13.9661 36.9245 13.9937C36.7945 13.9977 36.6532 14 36.5 14C36.3468 14 36.2055 13.9977 36.0755 13.9937C35.1923 13.9661 34.6055 13.3077 34.5564 12.4254C34.5245 11.8534 34.5 11.0667 34.5 10C34.5 8.93326 34.5245 8.14656 34.5564 7.57455C34.6055 6.69228 35.1923 6.03394 36.0755 6.00635C36.2055 6.00228 36.3468 6 36.5 6C36.6532 6 36.7945 6.00228 36.9245 6.00635Z" fill="#ACB4C9"/>
<path d="M12.9245 34.0063C13.8077 34.0339 14.3945 34.6923 14.4436 35.5746C14.4755 36.1466 14.5 36.9333 14.5 38C14.5 39.0667 14.4755 39.8534 14.4436 40.4254C14.3945 41.3077 13.8077 41.9661 12.9245 41.9937C12.7945 41.9977 12.6532 42 12.5 42C12.3468 42 12.2055 41.9977 12.0755 41.9937C11.1923 41.9661 10.6055 41.3077 10.5564 40.4254C10.5245 39.8534 10.5 39.0667 10.5 38C10.5 36.9333 10.5245 36.1466 10.5564 35.5746C10.6055 34.6923 11.1923 34.0339 12.0755 34.0063C12.2055 34.0023 12.3468 34 12.5 34C12.6532 34 12.7945 34.0023 12.9245 34.0063Z" fill="#ACB4C9"/>
<path d="M20.9245 34.0063C21.8077 34.0339 22.3945 34.6923 22.4436 35.5746C22.4755 36.1466 22.5 36.9333 22.5 38C22.5 39.0667 22.4755 39.8534 22.4436 40.4254C22.3945 41.3077 21.8077 41.9661 20.9245 41.9937C20.7945 41.9977 20.6532 42 20.5 42C20.3468 42 20.2055 41.9977 20.0755 41.9937C19.1923 41.9661 18.6055 41.3077 18.5564 40.4254C18.5245 39.8534 18.5 39.0667 18.5 38C18.5 36.9333 18.5245 36.1466 18.5564 35.5746C18.6055 34.6923 19.1923 34.0339 20.0755 34.0063C20.2055 34.0023 20.3468 34 20.5 34C20.6532 34 20.7945 34.0023 20.9245 34.0063Z" fill="#ACB4C9"/>
<path d="M28.9245 34.0063C29.8077 34.0339 30.3945 34.6923 30.4436 35.5746C30.4755 36.1466 30.5 36.9333 30.5 38C30.5 39.0667 30.4755 39.8534 30.4436 40.4254C30.3945 41.3077 29.8077 41.9661 28.9245 41.9937C28.7945 41.9977 28.6532 42 28.5 42C28.3468 42 28.2055 41.9977 28.0755 41.9937C27.1923 41.9661 26.6055 41.3077 26.5564 40.4254C26.5245 39.8534 26.5 39.0667 26.5 38C26.5 36.9333 26.5245 36.1466 26.5564 35.5746C26.6055 34.6923 27.1923 34.0339 28.0755 34.0063C28.2055 34.0023 28.3468 34 28.5 34C28.6532 34 28.7945 34.0023 28.9245 34.0063Z" fill="#ACB4C9"/>
<path d="M36.9245 34.0063C37.8077 34.0339 38.3945 34.6923 38.4436 35.5746C38.4755 36.1466 38.5 36.9333 38.5 38C38.5 39.0667 38.4755 39.8534 38.4436 40.4254C38.3945 41.3077 37.8077 41.9661 36.9245 41.9937C36.7945 41.9977 36.6532 42 36.5 42C36.3468 42 36.2055 41.9977 36.0755 41.9937C35.1923 41.9661 34.6055 41.3077 34.5564 40.4254C34.5245 39.8534 34.5 39.0667 34.5 38C34.5 36.9333 34.5245 36.1466 34.5564 35.5746C34.6055 34.6923 35.1923 34.0339 36.0755 34.0063C36.2055 34.0023 36.3468 34 36.5 34C36.6532 34 36.7945 34.0023 36.9245 34.0063Z" fill="#ACB4C9"/>
<path d="M3.9512 15.1015C4.18166 13.3076 5.51303 12.0261 7.30649 11.7919C10.0986 11.4273 15.3273 11 24.5 11C33.6727 11 38.9014 11.4273 41.6935 11.7919C43.487 12.0261 44.8183 13.3076 45.0488 15.1015C45.2815 16.9131 45.5 19.7465 45.5 24C45.5 28.2535 45.2815 31.0869 45.0488 32.8985C44.8183 34.6924 43.487 35.9739 41.6935 36.2081C38.9014 36.5727 33.6727 37 24.5 37C15.3273 37 10.0986 36.5727 7.30649 36.2081C5.51303 35.9739 4.18166 34.6924 3.9512 32.8985C3.71848 31.0869 3.5 28.2535 3.5 24C3.5 19.7465 3.71848 16.9131 3.9512 15.1015Z" fill="#576684"/>
<path d="M9.77967 19.4728C9.95494 18.3232 10.8697 17.565 12.0265 17.4458C13.9691 17.2456 17.7312 17 24.5 17C31.2688 17 35.0309 17.2456 36.9735 17.4458C38.1303 17.565 39.0451 18.3232 39.2203 19.4728C39.3697 20.4523 39.5 21.9068 39.5 24C39.5 26.0932 39.3697 27.5477 39.2203 28.5272C39.0451 29.6768 38.1303 30.435 36.9735 30.5542C35.0309 30.7544 31.2688 31 24.5 31C17.7312 31 13.9691 30.7544 12.0265 30.5542C10.8697 30.435 9.95494 29.6768 9.77967 28.5272C9.63034 27.5477 9.5 26.0932 9.5 24C9.5 21.9068 9.63034 20.4523 9.77967 19.4728Z" fill="#ACB4C9"/>
</svg>