<!-- Copyright © Ewsgit 2022. -->
<!-- Licensed under the MIT License - https://ewsgit.github.io/devdash/copyright -->

<svg xmlns="http://www.w3.org/2000/svg" width="48" height="48" fill="none" viewBox="0 0 48 48"><path fill="#576684" d="M7.40002 33.7649C7.57332 35.5136 8.76175 36.8513 10.4938 37.1481C12.8614 37.5538 17.046 38 24 38C30.954 38 35.1386 37.5538 37.5062 37.1481C39.2382 36.8513 40.4267 35.5136 40.6 33.7649C40.8008 31.7388 41 28.3743 41 23C41 17.6257 40.8008 14.2612 40.6 12.2351C40.4267 10.4864 39.2382 9.14868 37.5062 8.85189C35.1386 8.44621 30.954 8 24 8C17.046 8 12.8614 8.44621 10.4938 8.85189C8.76175 9.14868 7.57332 10.4864 7.40002 12.2351C7.19923 14.2612 7 17.6257 7 23C7 28.3743 7.19923 31.7388 7.40002 33.7649Z"/><path fill="#ACB4C9" d="M23.9998 40C16.1497 40 11.2993 39.7261 8.45888 39.465C6.28223 39.2649 4.67757 37.6696 4.48274 35.4924C4.44543 35.0755 4.40806 34.6144 4.37156 34.1056C4.28957 32.963 5.20382 32 6.34936 32H17.2791C17.9086 32 18.4675 32.4028 18.6665 33C18.8656 33.5972 19.4245 34 20.054 34H27.9458C28.5753 34 29.1341 33.5972 29.3332 33C29.5323 32.4028 30.0911 32 30.7206 32H41.6503C42.7958 32 43.7101 32.963 43.6281 34.1056C43.5916 34.6144 43.5542 35.0755 43.5169 35.4924C43.3221 37.6696 41.7174 39.2649 39.5408 39.465C36.7003 39.7261 31.8499 40 23.9998 40Z"/><path fill="#ACB4C9" fill-rule="evenodd" d="M21.8138 23.3074C21.8728 22.7434 21.4591 22.2374 20.8937 22.1951C20.0073 22.1289 19.207 22.0761 18.5523 22.0358C17.7716 21.9879 17.3438 21.1157 17.8113 20.4887C19.1657 18.672 21.7237 15.4384 24.8011 12.5041C25.4317 11.9028 26.4357 12.3843 26.3866 13.2542C26.2892 14.9793 26.1649 16.4571 26.0355 17.6944C25.9765 18.2584 26.3901 18.7644 26.9556 18.8066C27.842 18.8729 28.6423 18.9257 29.297 18.9659C30.0777 19.0139 30.5055 19.8861 30.038 20.5131C28.6835 22.3297 26.1256 25.5634 23.0482 28.4977C22.4176 29.099 21.4135 28.6175 21.4627 27.7476C21.5601 26.0225 21.6844 24.5447 21.8138 23.3074Z" clip-rule="evenodd"/></svg>