<!-- Copyright © Ewsgit 2022. -->
<!-- Licensed under the MIT License - https://ewsgit.github.io/devdash/copyright -->

<svg width="48" height="48" viewBox="0 0 48 48" fill="none" xmlns="http://www.w3.org/2000/svg">
<path fill-rule="evenodd" clip-rule="evenodd" d="M23.1477 6C20.134 6 17.6176 8.298 17.3448 11.2992L16.9919 15.1811C16.8919 16.2811 15.9191 17.0918 14.8191 16.9918C13.719 16.8918 12.9083 15.919 13.0083 14.8189L13.3612 10.9371C13.8214 5.87554 18.0652 2 23.1477 2C28.0729 2 32.2373 5.64603 32.8882 10.528L33.2422 13.1831C33.5336 15.3681 35.3975 17 37.6019 17C40.031 17 42.0001 15.0308 42.0001 12.6018V4C42.0001 2.89543 42.8956 2 44.0001 2C45.1047 2 46.0001 2.89543 46.0001 4V12.6018C46.0001 17.24 42.2401 21 37.6019 21C33.3927 21 29.8336 17.884 29.2773 13.7117L28.9233 11.0567C28.5373 8.16191 26.0681 6 23.1477 6Z" fill="#576684"/>
<path d="M15 9C21.8869 9 26.6579 13.758 26.8977 20.6408C26.9612 22.4662 27 24.5739 27 27C27 29.4261 26.9612 31.5338 26.8977 33.3592C26.6579 40.242 21.8869 45 15 45C8.11307 45 3.34205 40.242 3.10233 33.3592C3.03875 31.5338 3 29.4261 3 27C3 24.5739 3.03875 22.4662 3.10233 20.6408C3.34206 13.758 8.11307 9 15 9Z" fill="#ACB4C9"/>
<path d="M15 15C16.1574 15 16.9148 15.8424 16.9632 16.9988C16.985 17.5203 17 18.1779 17 19C17 19.8221 16.985 20.4797 16.9632 21.0012C16.9148 22.1576 16.1574 23 15 23C13.8426 23 13.0852 22.1576 13.0368 21.0012C13.015 20.4797 13 19.8221 13 19C13 18.1779 13.015 17.5203 13.0368 16.9988C13.0852 15.8424 13.8426 15 15 15Z" fill="#576684"/>
</svg>