<!-- Copyright © Ewsgit 2022. -->
<!-- Licensed under the MIT License - https://ewsgit.github.io/devdash/copyright -->

<svg width="48" height="48" viewBox="0 0 48 48" fill="none" xmlns="http://www.w3.org/2000/svg">
<path d="M35.3496 29.3708C34.8074 29.1404 34.4106 28.6716 34.312 28.0908C34.1702 27.2564 34 25.866 34 23.9992C34 22.1323 34.1702 20.7419 34.312 19.9075C34.4106 19.3267 34.8074 18.8579 35.3496 18.6275C36.3569 18.1996 38.1491 17.4758 40.1181 16.8566C41.9902 16.2679 43.7368 17.4079 43.8675 19.3661C43.9445 20.5191 44 22.0325 44 23.9992C44 25.9658 43.9445 27.4792 43.8675 28.6322C43.7368 30.5904 41.9902 31.7304 40.1181 31.1417C38.1491 30.5225 36.3569 29.7987 35.3496 29.3708Z" fill="#576684"/>
<path d="M4.42669 11.9402C4.6033 10.0749 5.90248 8.69798 7.76464 8.49098C9.98623 8.24402 13.7602 8 20 8C26.2398 8 30.0138 8.24402 32.2354 8.49098C34.0975 8.69798 35.3967 10.0749 35.5733 11.9402C35.7857 14.1833 36 17.9465 36 24C36 30.0535 35.7857 33.8167 35.5733 36.0598C35.3967 37.9251 34.0975 39.302 32.2354 39.509C30.0138 39.756 26.2398 40 20 40C13.7602 40 9.98623 39.756 7.76463 39.509C5.90248 39.302 4.6033 37.9251 4.42669 36.0598C4.2143 33.8167 4 30.0535 4 24C4 17.9465 4.2143 14.1833 4.42669 11.9402Z" fill="#ACB4C9"/>
<path d="M24.0449 15.1991C24.0798 14.6247 24.4535 14.1798 25.0241 14.1054C25.4646 14.0479 26.1013 14 27 14C27.8987 14 28.5354 14.0479 28.9759 14.1054C29.5465 14.1798 29.9202 14.6247 29.9551 15.1991C29.9801 15.6099 30 16.1911 30 17C30 17.8089 29.9801 18.3901 29.9551 18.8009C29.9202 19.3753 29.5465 19.8202 28.9759 19.8946C28.5354 19.9521 27.8987 20 27 20C26.1013 20 25.4646 19.9521 25.0241 19.8946C24.4535 19.8202 24.0798 19.3753 24.0449 18.8009C24.0199 18.3901 24 17.8089 24 17C24 16.1911 24.0199 15.6099 24.0449 15.1991Z" fill="#576684"/>
</svg>