<!-- Copyright © Ewsgit 2022. -->
<!-- Licensed under the MIT License - https://ewsgit.github.io/devdash/copyright -->

<svg xmlns="http://www.w3.org/2000/svg" width="48" height="48" fill="none" viewBox="0 0 48 48"><path fill="#576684" d="M3.43969 9.58394C3.66651 6.7156 5.53792 4.47436 8.37618 4.00205C11.4322 3.49351 16.3648 3 24 3C31.6352 3 36.5678 3.49351 39.6238 4.00205C42.4621 4.47436 44.3335 6.7156 44.5603 9.58394C44.7887 12.4718 45 17.0278 45 24C45 30.9722 44.7887 35.5282 44.5603 38.4161C44.3335 41.2844 42.4621 43.5256 39.6238 43.9979C36.5678 44.5065 31.6352 45 24 45C16.3648 45 11.4322 44.5065 8.37618 43.9979C5.53791 43.5256 3.66651 41.2844 3.43969 38.4161C3.21133 35.5282 3 30.9722 3 24C3 17.0278 3.21133 12.4718 3.43969 9.58394Z"/><path fill="#ACB4C9" fill-rule="evenodd" d="M29.4445 44.9077C27.8043 44.9666 25.9943 45.0002 24.0001 45.0002C23.3432 45.0002 22.7063 44.9966 22.089 44.9896V30.9555H18.0017C17.086 30.9555 16.2718 30.334 16.1417 29.4276C15.915 27.8488 15.9971 26.5509 16.1326 25.6565C16.2578 24.8296 16.9995 24.3038 17.8359 24.3038H22.089C22.089 12.1123 26.7741 11.0817 35.0007 11.0059C35.8616 10.998 36.6241 11.5548 36.7503 12.4063C36.8876 13.3323 36.975 14.6499 36.7559 16.1583C36.6263 17.05 35.8187 17.6457 34.9178 17.6648C30.2696 17.7633 29.4445 18.5638 29.4445 24.3038H34.9746C35.8491 24.3038 36.6194 24.8749 36.746 25.7402C36.8846 26.6872 36.9758 28.0203 36.7612 29.4865C36.6323 30.3675 35.8317 30.9555 34.9413 30.9555H29.4445V44.9077Z" clip-rule="evenodd"/></svg>