<!-- Copyright © Ewsgit 2022. -->
<!-- Licensed under the MIT License - https://ewsgit.github.io/devdash/copyright -->

<svg width="48" height="48" viewBox="0 0 48 48" fill="none" xmlns="http://www.w3.org/2000/svg">
<path d="M29.8975 3.35689C31.7559 3.61744 33.0774 5.06675 33.5496 6.88296L37.6074 22.4902C37.8649 23.4803 37.8649 24.5197 37.6074 25.5098L33.5496 41.117C33.0774 42.9333 31.7559 44.3826 29.8975 44.6431C28.5125 44.8373 26.5817 45 24 45C21.4183 45 19.4875 44.8373 18.1025 44.6431C16.2441 44.3826 14.9226 42.9333 14.4504 41.117L10.3925 25.5098C10.1351 24.5197 10.1351 23.4803 10.3925 22.4902L14.4504 6.88297C14.9226 5.06675 16.2441 3.61744 18.1025 3.35689C19.4875 3.16273 21.4183 3 24 3C26.5817 3 28.5125 3.16273 29.8975 3.35689Z" fill="#ACB4C9"/>
<circle cx="24" cy="24" r="16" fill="#576684"/>
<path fill-rule="evenodd" clip-rule="evenodd" d="M39.7192 27C39.9035 26.0283 40 25.0254 40 24L33.3382 24L29.7775 18.2139C29.4815 17.7329 28.9405 17.4589 28.3776 17.505C27.8148 17.5511 27.3255 17.9094 27.1117 18.4321L23.8633 26.3725L20.8416 20.3292C20.6112 19.8684 20.1605 19.5581 19.6478 19.5073C19.1351 19.4566 18.6323 19.6724 18.316 20.0791L15.2664 24H8C8 24 8 24 8 24C8 25.0254 8.09645 26.0283 8.28079 27H16C16.4629 27 16.8998 26.7863 17.184 26.4209L19.2228 23.7997L22.6584 30.6708C22.9216 31.1973 23.4683 31.5211 24.0565 31.499C24.6446 31.4768 25.1655 31.1127 25.3883 30.568L28.7702 22.3012L31.2225 26.2862C31.4955 26.7298 31.9791 27 32.5 27H39.7192Z" fill="#ACB4C9"/>
</svg>