<!-- Copyright © Ewsgit 2022. -->
<!-- Licensed under the MIT License - https://ewsgit.github.io/devdash/copyright -->

<svg xmlns="http://www.w3.org/2000/svg" width="48" height="48" fill="none" viewBox="0 0 48 48"><path fill="#576684" d="M18.2931 38.2535C17.0714 38.3909 16.7123 39.5548 17.6057 40.3994C18.1199 40.8854 18.7846 41.4827 19.6364 42.2C20.953 43.3087 21.9716 43.9874 22.6923 44.3982C23.5168 44.8681 24.4832 44.8682 25.3077 44.3983C26.0285 43.9875 27.0472 43.3088 28.3636 42.2C29.215 41.4829 29.8795 40.8858 30.3936 40.3998C31.2872 39.5551 30.928 38.3908 29.7061 38.2534C28.4835 38.1159 26.6631 38 24 38C21.3363 38 19.5157 38.1159 18.2931 38.2535Z"/><path fill="#ACB4C9" d="M46.379 30.9576C46.1593 32.5389 45.0579 33.7139 43.4831 33.9755C40.7221 34.4342 35.0722 35 24 35C14.0826 35 8.51551 34.7478 5.47804 34.5121C3.37001 34.3485 1.78836 32.8487 1.54677 30.7482C1.27324 28.37 0.999997 24.5943 0.999997 19C0.999998 13.4058 1.27324 9.62998 1.54677 7.25177C1.78836 5.15125 3.37001 3.6515 5.47805 3.48791C8.51553 3.25219 14.0826 3 24 3C33.9174 3 39.4845 3.25219 42.522 3.48791C44.63 3.6515 46.2116 5.15125 46.4532 7.25177C46.7268 9.62998 47 13.4057 47 19C47 25.1014 46.675 28.8286 46.379 30.9576Z"/><path fill="#576684" d="M7.52282 9.65107C7.55584 8.78851 8.1146 8.13095 8.97464 8.0573C9.36963 8.02348 9.87052 8 10.5 8C11.1295 8 11.6304 8.02348 12.0254 8.0573C12.8854 8.13095 13.4442 8.78851 13.4772 9.65107C13.4909 10.008 13.5 10.4517 13.5 11C13.5 11.5483 13.4909 11.992 13.4772 12.3489C13.4442 13.2115 12.8854 13.869 12.0254 13.9427C11.6304 13.9765 11.1295 14 10.5 14C9.87052 14 9.36963 13.9765 8.97464 13.9427C8.1146 13.869 7.55584 13.2115 7.52282 12.3489C7.50915 11.992 7.5 11.5483 7.5 11C7.5 10.4517 7.50915 10.008 7.52282 9.65107Z"/><path fill="#576684" d="M7.52282 18.6511C7.55584 17.7885 8.1146 17.131 8.97464 17.0573C9.36963 17.0235 9.87052 17 10.5 17C11.1295 17 11.6304 17.0235 12.0254 17.0573C12.8854 17.131 13.4442 17.7885 13.4772 18.6511C13.4909 19.008 13.5 19.4517 13.5 20C13.5 20.5483 13.4909 20.992 13.4772 21.3489C13.4442 22.2115 12.8854 22.869 12.0254 22.9427C11.6304 22.9765 11.1295 23 10.5 23C9.87052 23 9.36963 22.9765 8.97464 22.9427C8.1146 22.869 7.55584 22.2115 7.52282 21.3489C7.50915 20.992 7.5 20.5483 7.5 20C7.5 19.4517 7.50915 19.008 7.52282 18.6511Z"/><path fill="#576684" d="M16.5228 9.65107C16.5558 8.78851 17.1146 8.13095 17.9746 8.0573C18.3696 8.02348 18.8705 8 19.5 8C20.1295 8 20.6304 8.02348 21.0254 8.0573C21.8854 8.13095 22.4442 8.78851 22.4772 9.65107C22.4909 10.008 22.5 10.4517 22.5 11C22.5 11.5483 22.4909 11.992 22.4772 12.3489C22.4442 13.2115 21.8854 13.869 21.0254 13.9427C20.6304 13.9765 20.1295 14 19.5 14C18.8705 14 18.3696 13.9765 17.9746 13.9427C17.1146 13.869 16.5558 13.2115 16.5228 12.3489C16.5091 11.992 16.5 11.5483 16.5 11C16.5 10.4517 16.5091 10.008 16.5228 9.65107Z"/><path fill="#576684" d="M16.5228 18.6511C16.5558 17.7885 17.1146 17.131 17.9746 17.0573C18.3696 17.0235 18.8705 17 19.5 17C20.1295 17 20.6304 17.0235 21.0254 17.0573C21.8854 17.131 22.4442 17.7885 22.4772 18.6511C22.4909 19.008 22.5 19.4517 22.5 20C22.5 20.5483 22.4909 20.992 22.4772 21.3489C22.4442 22.2115 21.8854 22.869 21.0254 22.9427C20.6304 22.9765 20.1295 23 19.5 23C18.8705 23 18.3696 22.9765 17.9746 22.9427C17.1146 22.869 16.5558 22.2115 16.5228 21.3489C16.5091 20.992 16.5 20.5483 16.5 20C16.5 19.4517 16.5091 19.008 16.5228 18.6511Z"/><path fill="#576684" d="M25.5228 9.65107C25.5558 8.78851 26.1146 8.13095 26.9746 8.0573C27.3696 8.02348 27.8705 8 28.5 8C29.1295 8 29.6304 8.02348 30.0254 8.0573C30.8854 8.13095 31.4442 8.78851 31.4772 9.65107C31.4909 10.008 31.5 10.4517 31.5 11C31.5 11.5483 31.4909 11.992 31.4772 12.3489C31.4442 13.2115 30.8854 13.869 30.0254 13.9427C29.6304 13.9765 29.1295 14 28.5 14C27.8705 14 27.3696 13.9765 26.9746 13.9427C26.1146 13.869 25.5558 13.2115 25.5228 12.3489C25.5091 11.992 25.5 11.5483 25.5 11C25.5 10.4517 25.5091 10.008 25.5228 9.65107Z"/><path fill="#576684" d="M34.5228 9.65107C34.5558 8.78851 35.1146 8.13095 35.9746 8.0573C36.3696 8.02348 36.8705 8 37.5 8C38.1295 8 38.6304 8.02348 39.0254 8.0573C39.8854 8.13095 40.4442 8.78851 40.4772 9.65107C40.4909 10.008 40.5 10.4517 40.5 11C40.5 11.5483 40.4909 11.992 40.4772 12.3489C40.4442 13.2115 39.8854 13.869 39.0254 13.9427C38.6304 13.9765 38.1295 14 37.5 14C36.8705 14 36.3696 13.9765 35.9746 13.9427C35.1146 13.869 34.5558 13.2115 34.5228 12.3489C34.5091 11.992 34.5 11.5483 34.5 11C34.5 10.4517 34.5091 10.008 34.5228 9.65107Z"/><path fill="#576684" d="M25.5228 18.6511C25.5558 17.7885 26.1146 17.131 26.9746 17.0573C27.3696 17.0235 27.8705 17 28.5 17C29.1295 17 29.6304 17.0235 30.0254 17.0573C30.8854 17.131 31.4442 17.7885 31.4772 18.6511C31.4909 19.008 31.5 19.4517 31.5 20C31.5 20.5483 31.4909 20.992 31.4772 21.3489C31.4442 22.2115 30.8854 22.869 30.0254 22.9427C29.6304 22.9765 29.1295 23 28.5 23C27.8705 23 27.3696 22.9765 26.9746 22.9427C26.1146 22.869 25.5558 22.2115 25.5228 21.3489C25.5091 20.992 25.5 20.5483 25.5 20C25.5 19.4517 25.5091 19.008 25.5228 18.6511Z"/><path fill="#576684" d="M34.5228 18.6511C34.5558 17.7885 35.1146 17.131 35.9746 17.0573C36.3696 17.0235 36.8705 17 37.5 17C38.1295 17 38.6304 17.0235 39.0254 17.0573C39.8854 17.131 40.4442 17.7885 40.4772 18.6511C40.4909 19.008 40.5 19.4517 40.5 20C40.5 20.5483 40.4909 20.992 40.4772 21.3489C40.4442 22.2115 39.8854 22.869 39.0254 22.9427C38.6304 22.9765 38.1295 23 37.5 23C36.8705 23 36.3696 22.9765 35.9746 22.9427C35.1146 22.869 34.5558 22.2115 34.5228 21.3489C34.5091 20.992 34.5 20.5483 34.5 20C34.5 19.4517 34.5091 19.008 34.5228 18.6511Z"/><path fill="#576684" d="M15.1127 27.2187C15.2479 26.5504 15.8694 26.2117 16.55 26.1706C17.7625 26.0974 20.1069 26 24 26C27.8931 26 30.2375 26.0974 31.45 26.1706C32.1306 26.2117 32.7521 26.5504 32.8873 27.2187C32.9527 27.5422 33 27.962 33 28.5C33 29.038 32.9527 29.4578 32.8873 29.7813C32.7521 30.4496 32.1306 30.7883 31.45 30.8294C30.2375 30.9026 27.8931 31 24 31C20.1069 31 17.7625 30.9026 16.55 30.8294C15.8694 30.7883 15.2479 30.4496 15.1127 29.7813C15.0473 29.4578 15 29.038 15 28.5C15 27.962 15.0473 27.5422 15.1127 27.2187Z"/></svg>