<!-- Copyright © Ewsgit 2022. -->
<!-- Licensed under the MIT License - https://ewsgit.github.io/devdash/copyright -->

<svg width="48" height="48" viewBox="0 0 48 48" fill="none" xmlns="http://www.w3.org/2000/svg">
<path fill-rule="evenodd" clip-rule="evenodd" d="M29.3301 4.7545C28.7645 4.28292 28.055 4.05303 27.3187 4.04098C25.7265 4.01491 23.6254 4 21.9999 4C15.0314 4 10.8789 4.27365 8.52561 4.52758C6.78226 4.7157 5.43797 5.89653 5.11155 7.61934C4.71008 9.73827 4.24905 13.3128 4.07322 19.0043C4.03908 20.1094 4.92317 21.0107 6.02638 21.0842C6.1409 21.0918 6.24856 21.0997 6.34969 21.1078C7.24955 21.1798 7.90748 21.8079 7.96368 22.7089C7.98541 23.0574 7.99983 23.4833 7.99983 24C7.99983 24.5167 7.98541 24.9426 7.96368 25.2911C7.90748 26.1921 7.24955 26.8202 6.34968 26.8922C6.24856 26.9003 6.1409 26.9082 6.02638 26.9158C4.92317 26.9893 4.03908 27.8906 4.07322 28.9957C4.24905 34.6872 4.71008 38.2617 5.11155 40.3807C5.43797 42.1035 6.78227 43.2843 8.52561 43.4724C10.8789 43.7263 15.0315 44 21.9999 44C28.9684 44 33.121 43.7263 35.4743 43.4724C37.2176 43.2843 38.5619 42.1035 38.8883 40.3807C39.3964 37.6989 39.9999 32.6855 39.9999 24C39.9999 21.3707 39.9446 19.0779 39.8534 17.0845C39.8343 16.6666 39.7464 16.2552 39.547 15.8875C39.0235 14.9219 37.6342 12.7419 34.3923 9.5C31.7832 6.89086 30.1999 5.47973 29.3301 4.7545Z" fill="#ACB4C9"/>
<path d="M27.4245 10.0063C28.3077 10.0339 28.8945 10.6923 28.9436 11.5746C28.9755 12.1466 29 12.9333 29 14C29 15.0667 28.9755 15.8534 28.9436 16.4254C28.8945 17.3077 28.3077 17.9661 27.4245 17.9937C27.2945 17.9977 27.1532 18 27 18C26.8468 18 26.7055 17.9977 26.5755 17.9937C25.6923 17.9661 25.1055 17.3077 25.0564 16.4254C25.0245 15.8534 25 15.0667 25 14C25 12.9333 25.0245 12.1466 25.0564 11.5746C25.1055 10.6923 25.6923 10.0339 26.5755 10.0063C26.7055 10.0023 26.8468 10 27 10C27.1532 10 27.2945 10.0023 27.4245 10.0063Z" fill="#576684"/>
<path d="M20.4245 10.0063C21.3077 10.0339 21.8945 10.6923 21.9436 11.5746C21.9755 12.1466 22 12.9333 22 14C22 15.0667 21.9755 15.8534 21.9436 16.4254C21.8945 17.3077 21.3077 17.9661 20.4245 17.9937C20.2945 17.9977 20.1532 18 20 18C19.8468 18 19.7055 17.9977 19.5755 17.9937C18.6923 17.9661 18.1055 17.3077 18.0564 16.4254C18.0245 15.8534 18 15.0667 18 14C18 12.9333 18.0245 12.1466 18.0564 11.5746C18.1055 10.6923 18.6923 10.0339 19.5755 10.0063C19.7055 10.0023 19.8468 10 20 10C20.1532 10 20.2945 10.0023 20.4245 10.0063Z" fill="#576684"/>
<path d="M32.8149 36.161C32.6907 37.0279 32.0082 37.6026 31.1369 37.6914C29.751 37.8325 27.1307 38 22.5 38C17.8693 38 15.249 37.8325 13.8631 37.6914C12.9918 37.6027 12.3093 37.0279 12.1851 36.161C12.0851 35.4627 12 34.4442 12 33C12 31.5558 12.0851 30.5373 12.1851 29.839C12.3093 28.9721 12.9918 28.3974 13.8631 28.3086C15.249 28.1675 17.8693 28 22.5 28C27.1307 28 29.751 28.1675 31.1369 28.3086C32.0082 28.3973 32.6907 28.9721 32.8149 29.839C32.9149 30.5373 33 31.5558 33 33C33 34.4442 32.9149 35.4627 32.8149 36.161Z" fill="#576684"/>
<path d="M13.4245 10.0063C14.3077 10.0339 14.8945 10.6923 14.9436 11.5746C14.9755 12.1466 15 12.9333 15 14C15 15.0667 14.9755 15.8534 14.9436 16.4254C14.8945 17.3077 14.3077 17.9661 13.4245 17.9937C13.2945 17.9977 13.1532 18 13 18C12.8468 18 12.7055 17.9977 12.5755 17.9937C11.6923 17.9661 11.1055 17.3077 11.0564 16.4254C11.0245 15.8534 11 15.0667 11 14C11 12.9333 11.0245 12.1466 11.0564 11.5746C11.1055 10.6923 11.6923 10.0339 12.5755 10.0063C12.7055 10.0023 12.8468 10 13 10C13.1532 10 13.2945 10.0023 13.4245 10.0063Z" fill="#576684"/>
</svg>