<!-- Copyright © Ewsgit 2022. -->
<!-- Licensed under the MIT License - https://ewsgit.github.io/devdash/copyright -->

<svg xmlns="http://www.w3.org/2000/svg" width="49" height="48" fill="none" viewBox="0 0 49 48"><path fill="#ACB4C9" d="M14.5602 11.876C14.5791 12.2828 14.7486 12.6731 15.1329 12.8076C15.4277 12.9107 15.8661 13 16.5 13C17.134 13 17.5723 12.9107 17.8671 12.8076C18.2515 12.6731 18.4209 12.2828 18.4398 11.876C18.467 11.2906 18.5 10.3092 18.5 9C18.5 7.39962 18.4506 5.25177 18.423 4.17503C18.4117 3.73697 18.2359 3.31259 17.8194 3.1763C17.5257 3.08017 17.1006 3 16.5 3C15.8994 3 15.4744 3.08017 15.1806 3.1763C14.7642 3.3126 14.5883 3.73697 14.5771 4.17501C14.5494 5.25175 14.5 7.39961 14.5 9C14.5 10.3092 14.5331 11.2906 14.5602 11.876Z"/><path fill="#ACB4C9" d="M22.5602 11.876C22.5791 12.2828 22.7486 12.6731 23.1329 12.8076C23.4277 12.9107 23.8661 13 24.5 13C25.134 13 25.5723 12.9107 25.8671 12.8076C26.2515 12.6731 26.4209 12.2828 26.4398 11.876C26.467 11.2906 26.5 10.3092 26.5 9C26.5 7.39962 26.4506 5.25177 26.423 4.17503C26.4117 3.73697 26.2359 3.31259 25.8194 3.1763C25.5257 3.08017 25.1006 3 24.5 3C23.8994 3 23.4744 3.08017 23.1806 3.1763C22.7642 3.3126 22.5883 3.73697 22.5771 4.17501C22.5494 5.25175 22.5 7.39961 22.5 9C22.5 10.3092 22.5331 11.2906 22.5602 11.876Z"/><path fill="#ACB4C9" d="M30.5602 11.876C30.5791 12.2828 30.7486 12.6731 31.1329 12.8076C31.4277 12.9107 31.8661 13 32.5 13C33.134 13 33.5723 12.9107 33.8671 12.8076C34.2515 12.6731 34.4209 12.2828 34.4398 11.876C34.467 11.2906 34.5 10.3092 34.5 9C34.5 7.39962 34.4506 5.25177 34.423 4.17503C34.4117 3.73697 34.2359 3.31259 33.8194 3.1763C33.5257 3.08017 33.1006 3 32.5 3C31.8994 3 31.4744 3.08017 31.1806 3.1763C30.7642 3.3126 30.5883 3.73697 30.5771 4.17501C30.5494 5.25175 30.5 7.39961 30.5 9C30.5 10.3092 30.5331 11.2906 30.5602 11.876Z"/><path fill="#ACB4C9" d="M14.5602 43.876C14.5791 44.2828 14.7486 44.6731 15.1329 44.8076C15.4277 44.9107 15.8661 45 16.5 45C17.134 45 17.5723 44.9107 17.8671 44.8076C18.2515 44.6731 18.4209 44.2828 18.4398 43.876C18.467 43.2906 18.5 42.3092 18.5 41C18.5 39.3996 18.4506 37.2518 18.423 36.175C18.4117 35.737 18.2359 35.3126 17.8194 35.1763C17.5257 35.0802 17.1006 35 16.5 35C15.8994 35 15.4744 35.0802 15.1806 35.1763C14.7642 35.3126 14.5883 35.737 14.5771 36.175C14.5494 37.2517 14.5 39.3996 14.5 41C14.5 42.3092 14.5331 43.2906 14.5602 43.876Z"/><path fill="#ACB4C9" d="M22.5602 43.876C22.5791 44.2828 22.7486 44.6731 23.1329 44.8076C23.4277 44.9107 23.8661 45 24.5 45C25.134 45 25.5723 44.9107 25.8671 44.8076C26.2515 44.6731 26.4209 44.2828 26.4398 43.876C26.467 43.2906 26.5 42.3092 26.5 41C26.5 39.3996 26.4506 37.2518 26.423 36.175C26.4117 35.737 26.2359 35.3126 25.8194 35.1763C25.5257 35.0802 25.1006 35 24.5 35C23.8994 35 23.4744 35.0802 23.1806 35.1763C22.7642 35.3126 22.5883 35.737 22.5771 36.175C22.5494 37.2517 22.5 39.3996 22.5 41C22.5 42.3092 22.5331 43.2906 22.5602 43.876Z"/><path fill="#ACB4C9" d="M30.5602 43.876C30.5791 44.2828 30.7486 44.6731 31.1329 44.8076C31.4277 44.9107 31.8661 45 32.5 45C33.134 45 33.5723 44.9107 33.8671 44.8076C34.2515 44.6731 34.4209 44.2828 34.4398 43.876C34.467 43.2906 34.5 42.3092 34.5 41C34.5 39.3996 34.4506 37.2518 34.423 36.175C34.4117 35.737 34.2359 35.3126 33.8194 35.1763C33.5257 35.0802 33.1006 35 32.5 35C31.8994 35 31.4744 35.0802 31.1806 35.1763C30.7642 35.3126 30.5883 35.737 30.5771 36.175C30.5494 37.2517 30.5 39.3996 30.5 41C30.5 42.3092 30.5331 43.2906 30.5602 43.876Z"/><path fill="#ACB4C9" d="M36.624 14.0602C36.2172 14.0791 35.8269 14.2486 35.6924 14.6329C35.5893 14.9277 35.5 15.3661 35.5 16C35.5 16.634 35.5893 17.0723 35.6924 17.3671C35.8269 17.7515 36.2172 17.9209 36.624 17.9398C37.2094 17.967 38.1908 18 39.5 18C41.1004 18 43.2482 17.9506 44.325 17.923C44.763 17.9117 45.1874 17.7359 45.3237 17.3194C45.4198 17.0257 45.5 16.6006 45.5 16C45.5 15.3994 45.4198 14.9744 45.3237 14.6806C45.1874 14.2642 44.763 14.0883 44.325 14.0771C43.2483 14.0494 41.1004 14 39.5 14C38.1908 14 37.2094 14.0331 36.624 14.0602Z"/><path fill="#ACB4C9" d="M36.624 22.0602C36.2172 22.0791 35.8269 22.2486 35.6924 22.6329C35.5893 22.9277 35.5 23.3661 35.5 24C35.5 24.634 35.5893 25.0723 35.6924 25.3671C35.8269 25.7515 36.2172 25.9209 36.624 25.9398C37.2094 25.967 38.1908 26 39.5 26C41.1004 26 43.2482 25.9506 44.325 25.923C44.763 25.9117 45.1874 25.7359 45.3237 25.3194C45.4198 25.0257 45.5 24.6006 45.5 24C45.5 23.3994 45.4198 22.9744 45.3237 22.6806C45.1874 22.2642 44.763 22.0883 44.325 22.0771C43.2483 22.0494 41.1004 22 39.5 22C38.1908 22 37.2094 22.0331 36.624 22.0602Z"/><path fill="#ACB4C9" d="M36.624 30.0602C36.2172 30.0791 35.8269 30.2486 35.6924 30.6329C35.5893 30.9277 35.5 31.3661 35.5 32C35.5 32.634 35.5893 33.0723 35.6924 33.3671C35.8269 33.7515 36.2172 33.9209 36.624 33.9398C37.2094 33.967 38.1908 34 39.5 34C41.1004 34 43.2482 33.9506 44.325 33.923C44.763 33.9117 45.1874 33.7359 45.3237 33.3194C45.4198 33.0257 45.5 32.6006 45.5 32C45.5 31.3994 45.4198 30.9744 45.3237 30.6806C45.1874 30.2642 44.763 30.0883 44.325 30.0771C43.2483 30.0494 41.1004 30 39.5 30C38.1908 30 37.2094 30.0331 36.624 30.0602Z"/><path fill="#ACB4C9" d="M4.62395 14.0602C4.2172 14.0791 3.8269 14.2486 3.69245 14.6329C3.58932 14.9277 3.5 15.3661 3.5 16C3.5 16.634 3.58931 17.0723 3.69243 17.3671C3.82689 17.7515 4.21721 17.9209 4.62399 17.9398C5.20943 17.967 6.19082 18 7.5 18C9.10038 18 11.2482 17.9506 12.325 17.923C12.763 17.9117 13.1874 17.7359 13.3237 17.3194C13.4198 17.0257 13.5 16.6006 13.5 16C13.5 15.3994 13.4198 14.9744 13.3237 14.6806C13.1874 14.2642 12.763 14.0883 12.325 14.0771C11.2483 14.0494 9.10039 14 7.5 14C6.19079 14 5.20939 14.0331 4.62395 14.0602Z"/><path fill="#ACB4C9" d="M4.62395 22.0602C4.2172 22.0791 3.8269 22.2486 3.69245 22.6329C3.58932 22.9277 3.5 23.3661 3.5 24C3.5 24.634 3.58931 25.0723 3.69243 25.3671C3.82689 25.7515 4.21721 25.9209 4.62399 25.9398C5.20943 25.967 6.19082 26 7.5 26C9.10038 26 11.2482 25.9506 12.325 25.923C12.763 25.9117 13.1874 25.7359 13.3237 25.3194C13.4198 25.0257 13.5 24.6006 13.5 24C13.5 23.3994 13.4198 22.9744 13.3237 22.6806C13.1874 22.2642 12.763 22.0883 12.325 22.0771C11.2483 22.0494 9.10039 22 7.5 22C6.19079 22 5.20939 22.0331 4.62395 22.0602Z"/><path fill="#ACB4C9" d="M4.62395 30.0602C4.2172 30.0791 3.8269 30.2486 3.69245 30.6329C3.58932 30.9277 3.5 31.3661 3.5 32C3.5 32.634 3.58931 33.0723 3.69243 33.3671C3.82689 33.7515 4.21721 33.9209 4.62399 33.9398C5.20943 33.967 6.19082 34 7.5 34C9.10038 34 11.2482 33.9506 12.325 33.923C12.763 33.9117 13.1874 33.7359 13.3237 33.3194C13.4198 33.0257 13.5 32.6006 13.5 32C13.5 31.3994 13.4198 30.9744 13.3237 30.6806C13.1874 30.2642 12.763 30.0883 12.325 30.0771C11.2483 30.0494 9.10039 30 7.5 30C6.19079 30 5.20939 30.0331 4.62395 30.0602Z"/><path fill="#576684" d="M7.93764 11.3868C8.10075 9.66811 9.22562 8.31361 10.9195 7.98002C13.2733 7.51643 17.4726 7 24.5 7C31.5274 7 35.7267 7.51643 38.0805 7.98002C39.7744 8.31361 40.8992 9.66811 41.0624 11.3868C41.2751 13.6282 41.5 17.5283 41.5 24C41.5 30.4717 41.2751 34.3718 41.0624 36.6132C40.8992 38.3319 39.7744 39.6864 38.0805 40.02C35.7267 40.4836 31.5274 41 24.5 41C17.4726 41 13.2734 40.4836 10.9195 40.02C9.22563 39.6864 8.10075 38.3319 7.93764 36.6132C7.72492 34.3718 7.5 30.4717 7.5 24C7.5 17.5283 7.72492 13.6282 7.93764 11.3868Z"/><path fill="#ACB4C9" d="M14.6687 17.695C14.7834 15.9724 15.905 14.6345 17.6142 14.392C19.0886 14.1827 21.294 14 24.5 14C27.706 14 29.9114 14.1827 31.3858 14.392C33.095 14.6345 34.2166 15.9724 34.3313 17.695C34.4232 19.0768 34.5 21.0992 34.5 24C34.5 26.9008 34.4232 28.9233 34.3313 30.305C34.2166 32.0276 33.095 33.3655 31.3858 33.608C29.9114 33.8173 27.706 34 24.5 34C21.294 34 19.0886 33.8173 17.6142 33.608C15.905 33.3655 14.7834 32.0276 14.6687 30.305C14.5768 28.9232 14.5 26.9008 14.5 24C14.5 21.0992 14.5768 19.0767 14.6687 17.695Z"/></svg>