<!-- Copyright © Ewsgit 2022. -->
<!-- Licensed under the MIT License - https://ewsgit.github.io/devdash/copyright -->

<svg xmlns="http://www.w3.org/2000/svg" width="48" height="48" fill="none" viewBox="0 0 48 48"><circle cx="24" cy="17" r="8" fill="#576684"/><path fill="#576684" d="M15.7524 3.78888C15.4541 3.52575 15.0692 3.35384 14.7008 3.50379C14.429 3.61442 14.0898 3.8269 13.7398 4.23242C13.3917 4.63578 13.2302 5.00157 13.159 5.28703C13.0616 5.6777 13.2898 6.03876 13.5972 6.29874C14.8726 7.37718 18.5542 10.4383 22.2235 12.9984C22.6135 13.2705 23.1171 13.403 23.4899 13.1077C23.5733 13.0416 23.6587 12.9616 23.7422 12.8648C23.8442 12.7466 23.9188 12.6319 23.9734 12.5256C24.1587 12.1643 23.9705 11.7648 23.6949 11.4665C20.6285 8.14801 17.0098 4.89806 15.7524 3.78888Z"/><path fill="#576684" d="M32.2476 3.78888C32.5459 3.52575 32.9308 3.35384 33.2992 3.50379C33.571 3.61442 33.9102 3.8269 34.2602 4.23242C34.6083 4.63578 34.7698 5.00157 34.841 5.28703C34.9384 5.6777 34.7102 6.03876 34.4028 6.29874C33.1274 7.37718 29.4458 10.4383 25.7765 12.9984C25.3865 13.2705 24.8829 13.403 24.5101 13.1077C24.4267 13.0416 24.3413 12.9616 24.2578 12.8648C24.1558 12.7466 24.0812 12.6319 24.0266 12.5256C23.8413 12.1643 24.0295 11.7648 24.3051 11.4665C27.3715 8.14801 30.9902 4.89806 32.2476 3.78888Z"/><path fill="#ACB4C9" d="M4.49868 39.6037C4.69976 41.3895 5.93921 42.7452 7.71203 43.0399C10.3922 43.4854 15.3583 44 24 44C31.7553 44 36.5504 43.7698 39.3896 43.5436C41.6455 43.364 43.3376 41.7145 43.5525 39.4617C43.7807 37.0708 44 33.3747 44 28C44 22.6253 43.7807 18.9292 43.5525 16.5383C43.3376 14.2855 41.6454 12.636 39.3896 12.4564C36.5503 12.2302 31.7553 12 24 12C16.2447 12 11.4496 12.2302 8.61044 12.4564C6.35455 12.636 4.66244 14.2855 4.44747 16.5383C4.21932 18.9292 4 22.6253 4 28C4 33.7763 4.25333 37.4247 4.49868 39.6037Z"/><path fill="#576684" d="M8.26548 36.0501C8.41073 37.806 9.57236 39.1673 11.3139 39.4344C13.1919 39.7225 16.2371 40 21 40C25.0276 40 27.8269 39.8898 29.7309 39.7589C31.9824 39.6042 33.625 37.931 33.778 35.6794C33.8986 33.9027 34 31.3989 34 28C34 24.6011 33.8986 22.0973 33.778 20.3206C33.625 18.069 31.9824 16.3957 29.7309 16.2411C27.8269 16.1102 25.0276 16 21 16C16.9724 16 14.1731 16.1102 12.2691 16.2411C10.0176 16.3958 8.37498 18.069 8.22204 20.3206C8.10135 22.0973 8 24.6011 8 28C8 31.8004 8.12671 34.3726 8.26548 36.0501Z"/><circle cx="39" cy="22" r="2" fill="#576684"/><circle cx="39" cy="34" r="2" fill="#576684"/></svg>