<!-- Copyright © Ewsgit 2022. -->
<!-- Licensed under the MIT License - https://ewsgit.github.io/devdash/copyright -->

<svg width="48" height="48" viewBox="0 0 48 48" fill="none" xmlns="http://www.w3.org/2000/svg">
<path d="M35.7931 9.53377C36.1419 7.41899 35.9863 5.58853 35.7886 4.40747C35.6462 3.55658 34.882 2.99824 34.0193 3.0044C24.0006 3.07592 18.2873 4.20356 18.2873 19.0569H12.9274C12.0891 19.0569 11.3465 19.584 11.2038 20.4101C11.0079 21.5441 10.8597 23.3332 11.2173 25.556C11.3629 26.4615 12.1752 27.0853 13.0924 27.0853H18.2873V43.43C18.2873 44.081 18.6351 44.6502 19.2748 44.7711C19.9072 44.8906 20.9092 45 22.4583 45C23.9942 45 25.0854 44.8925 25.8214 44.7742C26.6063 44.648 27.0905 43.9546 27.0905 43.1596V27.0853H33.9613C34.8534 27.0853 35.6523 26.4956 35.7997 25.6158C36.143 23.5675 35.9822 21.7073 35.7833 20.4955C35.6414 19.6307 34.8708 19.0569 33.9945 19.0569H27.0905C27.0905 12.0086 28.1125 11.131 33.9348 11.0384C34.8374 11.024 35.6461 10.4245 35.7931 9.53377Z" fill="#ACB4C9"/>
</svg>