<!-- Copyright © Ewsgit 2022. -->
<!-- Licensed under the MIT License - https://ewsgit.github.io/devdash/copyright -->

<svg width="49" height="48" viewBox="0 0 49 48" fill="none" xmlns="http://www.w3.org/2000/svg">
<path d="M4.11261 37.8426C4.29773 39.3688 5.28424 40.5605 6.7914 40.8637C9.34091 41.3768 14.4967 42 24.5 42C33.2929 42 38.3404 41.7325 41.1647 41.4742C43.2532 41.2831 44.7505 39.7432 44.9584 37.6562C45.2215 35.0158 45.5 30.6499 45.5 24C45.5 17.3501 45.2215 12.9842 44.9584 10.3438C44.7505 8.25678 43.2532 6.71685 41.1647 6.52583C38.3404 6.26753 33.2929 6.00001 24.5 6C15.7071 6 10.6596 6.26752 7.83534 6.52583C5.74675 6.71685 4.24954 8.25678 4.04161 10.3437C3.77854 12.9842 3.5 17.3501 3.5 24C3.5 31.2532 3.83137 35.524 4.11261 37.8426Z" fill="#576684"/>
<path d="M6.52282 22.6511C6.55584 21.7885 7.1146 21.131 7.97464 21.0573C8.36963 21.0235 8.87052 21 9.5 21C10.1295 21 10.6304 21.0235 11.0254 21.0573C11.8854 21.131 12.4442 21.7885 12.4772 22.6511C12.4909 23.008 12.5 23.4517 12.5 24C12.5 24.5483 12.4909 24.992 12.4772 25.3489C12.4442 26.2115 11.8854 26.869 11.0254 26.9427C10.6304 26.9765 10.1295 27 9.5 27C8.87052 27 8.36963 26.9765 7.97464 26.9427C7.1146 26.869 6.55584 26.2115 6.52282 25.3489C6.50915 24.992 6.5 24.5483 6.5 24C6.5 23.4517 6.50915 23.008 6.52282 22.6511Z" fill="#ACB4C9"/>
<path d="M6.52282 12.6511C6.55584 11.7885 7.1146 11.131 7.97464 11.0573C8.36963 11.0235 8.87052 11 9.5 11C10.1295 11 10.6304 11.0235 11.0254 11.0573C11.8854 11.131 12.4442 11.7885 12.4772 12.6511C12.4909 13.008 12.5 13.4517 12.5 14C12.5 14.5483 12.4909 14.992 12.4772 15.3489C12.4442 16.2115 11.8854 16.869 11.0254 16.9427C10.6304 16.9765 10.1295 17 9.5 17C8.87052 17 8.36963 16.9765 7.97464 16.9427C7.1146 16.869 6.55584 16.2115 6.52282 15.3489C6.50915 14.992 6.5 14.5483 6.5 14C6.5 13.4517 6.50915 13.008 6.52282 12.6511Z" fill="#ACB4C9"/>
<path d="M6.52282 32.6511C6.55584 31.7885 7.1146 31.131 7.97464 31.0573C8.36963 31.0235 8.87052 31 9.5 31C10.1295 31 10.6304 31.0235 11.0254 31.0573C11.8854 31.131 12.4442 31.7885 12.4772 32.6511C12.4909 33.008 12.5 33.4517 12.5 34C12.5 34.5483 12.4909 34.992 12.4772 35.3489C12.4442 36.2115 11.8854 36.869 11.0254 36.9427C10.6304 36.9765 10.1295 37 9.5 37C8.87052 37 8.36963 36.9765 7.97464 36.9427C7.1146 36.869 6.55584 36.2115 6.52282 35.3489C6.50915 34.992 6.5 34.5483 6.5 34C6.5 33.4517 6.50915 33.008 6.52282 32.6511Z" fill="#ACB4C9"/>
<path d="M42.4772 22.6511C42.4442 21.7885 41.8854 21.131 41.0254 21.0573C40.6304 21.0235 40.1295 21 39.5 21C38.8705 21 38.3696 21.0235 37.9746 21.0573C37.1146 21.131 36.5558 21.7885 36.5228 22.6511C36.5091 23.008 36.5 23.4517 36.5 24C36.5 24.5483 36.5091 24.992 36.5228 25.3489C36.5558 26.2115 37.1146 26.869 37.9746 26.9427C38.3696 26.9765 38.8705 27 39.5 27C40.1295 27 40.6304 26.9765 41.0254 26.9427C41.8854 26.869 42.4442 26.2115 42.4772 25.3489C42.4909 24.992 42.5 24.5483 42.5 24C42.5 23.4517 42.4909 23.008 42.4772 22.6511Z" fill="#ACB4C9"/>
<path d="M42.4772 12.6511C42.4442 11.7885 41.8854 11.131 41.0254 11.0573C40.6304 11.0235 40.1295 11 39.5 11C38.8705 11 38.3696 11.0235 37.9746 11.0573C37.1146 11.131 36.5558 11.7885 36.5228 12.6511C36.5091 13.008 36.5 13.4517 36.5 14C36.5 14.5483 36.5091 14.992 36.5228 15.3489C36.5558 16.2115 37.1146 16.869 37.9746 16.9427C38.3696 16.9765 38.8705 17 39.5 17C40.1295 17 40.6304 16.9765 41.0254 16.9427C41.8854 16.869 42.4442 16.2115 42.4772 15.3489C42.4909 14.992 42.5 14.5483 42.5 14C42.5 13.4517 42.4909 13.008 42.4772 12.6511Z" fill="#ACB4C9"/>
<path d="M42.4772 32.6511C42.4442 31.7885 41.8854 31.131 41.0254 31.0573C40.6304 31.0235 40.1295 31 39.5 31C38.8705 31 38.3696 31.0235 37.9746 31.0573C37.1146 31.131 36.5558 31.7885 36.5228 32.6511C36.5091 33.008 36.5 33.4517 36.5 34C36.5 34.5483 36.5091 34.992 36.5228 35.3489C36.5558 36.2115 37.1146 36.869 37.9746 36.9427C38.3696 36.9765 38.8705 37 39.5 37C40.1295 37 40.6304 36.9765 41.0254 36.9427C41.8854 36.869 42.4442 36.2115 42.4772 35.3489C42.4909 34.992 42.5 34.5483 42.5 34C42.5 33.4517 42.4909 33.008 42.4772 32.6511Z" fill="#ACB4C9"/>
<path d="M19.8126 19.7997C20.0223 18.4609 21.1449 17.6941 22.3539 18.116C23.3449 18.4618 24.7421 19.038 26.6472 19.9981C28.2208 20.791 29.4479 21.4967 30.3858 22.0863C31.8714 23.0202 31.8714 24.9798 30.3858 25.9137C29.4479 26.5033 28.2208 27.209 26.6472 28.0019C24.7421 28.962 23.3449 29.5382 22.3539 29.884C21.1449 30.3059 20.0223 29.5391 19.8126 28.2003C19.6459 27.1362 19.5 25.7151 19.5 24C19.5 22.2849 19.6459 20.8638 19.8126 19.7997Z" fill="#ACB4C9"/>
</svg>