<!-- Copyright © Ewsgit 2022. -->
<!-- Licensed under the MIT License - https://ewsgit.github.io/devdash/copyright -->

<svg width="48" height="48" viewBox="0 0 48 48" fill="none" xmlns="http://www.w3.org/2000/svg">
<path d="M33.4268 7.84533C33.2605 5.89065 31.2471 4.77797 29.5337 5.7333C22.7256 9.52924 19 14 19 14C19 14 14.8398 14.6934 11.1383 15.5027C9.80222 15.7949 8.74208 16.7903 8.498 18.136C8.24867 19.5106 8 21.5067 8 24C8 26.4933 8.24867 28.4894 8.498 29.864C8.74208 31.2097 9.80222 32.2051 11.1383 32.4973C14.8398 33.3066 19 34 19 34C19 34 22.7256 38.4708 29.5337 42.2667C31.2471 43.222 33.2605 42.1093 33.4268 40.1547C33.6986 36.9601 34 31.6855 34 24C34 16.3145 33.6986 11.0399 33.4268 7.84533Z" fill="#ACB4C9"/>
<path d="M3.65934 36.7027C3.07849 37.1994 2.64763 37.8839 2.86666 38.6161C3.02769 39.1544 3.37257 39.8649 4.08374 40.7124C4.79491 41.5599 5.43465 42.023 5.93683 42.275C6.61988 42.6179 7.36883 42.3124 7.95886 41.8266C11.0356 39.2936 21.201 30.9182 26.2507 26.6811C31.3003 22.4439 41.3136 13.8873 44.3425 11.2972C44.9233 10.8005 45.3542 10.1159 45.1351 9.38373C44.9741 8.84541 44.6292 8.13499 43.9181 7.28745C43.2069 6.43991 42.5671 5.9769 42.065 5.72484C41.3819 5.382 40.633 5.68745 40.0429 6.17321C36.9662 8.70628 26.8008 17.0816 21.7511 21.3188C16.7015 25.5559 6.68819 34.1125 3.65934 36.7027Z" fill="#576684"/>
</svg>