<!-- Copyright © Ewsgit 2022. -->
<!-- Licensed under the MIT License - https://ewsgit.github.io/devdash/copyright -->

<svg xmlns="http://www.w3.org/2000/svg" width="48" height="48" fill="none" viewBox="0 0 48 48"><path fill="#ACB4C9" fill-rule="evenodd" d="M8.29738 8.41311C6.20751 8.56929 4.65902 10.0453 4.45226 12.1307C4.33309 13.3327 4.21587 14.9171 4.13057 16.9718C4.08428 18.0867 5.0116 18.9761 6.03104 19.43C7.78005 20.2087 8.99944 21.9619 8.99944 24C8.99944 26.0381 7.78005 27.7913 6.03104 28.57C5.0116 29.0239 4.08428 29.9133 4.13057 31.0282C4.21587 33.0829 4.33309 34.6673 4.45226 35.8693C4.65902 37.9547 6.20751 39.4307 8.29737 39.5869C11.0309 39.7912 15.8246 40 23.9994 40C32.1743 40 36.968 39.7912 39.7015 39.5869C41.7914 39.4307 43.3399 37.9547 43.5466 35.8693C43.6658 34.6673 43.783 33.0829 43.8683 31.0282C43.9146 29.9133 42.9873 29.0239 41.9678 28.57C40.2188 27.7913 38.9994 26.0381 38.9994 24C38.9994 21.9619 40.2188 20.2087 41.9678 19.43C42.9873 18.9761 43.9146 18.0867 43.8683 16.9718C43.783 14.9171 43.6658 13.3327 43.5466 12.1307C43.3399 10.0453 41.7914 8.56929 39.7015 8.41311C36.968 8.20884 32.1743 8 23.9994 8C15.8246 8 11.0309 8.20884 8.29738 8.41311Z" clip-rule="evenodd"/><path fill="#576684" d="M22.6685 15.5672C23.2282 14.4881 24.7718 14.4881 25.3315 15.5672L27.2756 19.3153L31.4081 20.129C32.5505 20.3539 33.0122 21.7379 32.2338 22.6036L29.3 25.8664L29.838 30.2259C29.9845 31.4134 28.75 32.2861 27.6794 31.7517L24 29.9153L20.3206 31.7517C19.25 32.2861 18.0155 31.4134 18.162 30.2259L18.7 25.8664L15.7662 22.6036C14.9878 21.7379 15.4495 20.3539 16.5919 20.129L20.7244 19.3153L22.6685 15.5672Z"/></svg>