<!-- Copyright © Ewsgit 2022. -->
<!-- Licensed under the MIT License - https://ewsgit.github.io/devdash/copyright -->

<svg width="48" height="48" viewBox="0 0 48 48" fill="none" xmlns="http://www.w3.org/2000/svg">
<path d="M7.97775 14.7527C7.20294 15.0513 6.60114 15.7022 6.77781 16.5135C6.81938 16.7044 6.87918 16.9157 6.96334 17.147C7.04749 17.3782 7.13752 17.5785 7.22838 17.7515C7.61457 18.4866 8.49395 18.5983 9.27945 18.329C11.1673 17.6819 15.4486 16.1869 23.6222 13.212C31.7957 10.2371 36.0363 8.6303 37.8985 7.91258C38.6733 7.61395 39.2751 6.96307 39.0984 6.15172C39.0568 5.96082 38.997 5.7495 38.9129 5.51828C38.8287 5.28706 38.7387 5.08674 38.6478 4.91379C38.2617 4.17868 37.3823 4.06692 36.5968 4.33619C34.7089 4.98336 30.4277 6.47829 22.2541 9.45324C14.0805 12.4282 9.83991 14.0349 7.97775 14.7527Z" fill="#576684"/>
<path d="M4.47617 39.6874C4.68332 41.4818 5.95292 42.827 7.73794 43.1039C10.4241 43.5207 15.386 44 24 44C31.7576 44 36.5532 43.784 39.3921 43.572C41.6458 43.4036 43.3542 41.7739 43.5746 39.5246C43.7946 37.2787 44 33.8762 44 29C44 24.1237 43.7946 20.7213 43.5746 18.4753C43.3542 16.2261 41.6458 14.5964 39.3921 14.428C36.5532 14.216 31.7576 14 24 14C16.2424 14 11.4468 14.216 8.60793 14.428C6.35418 14.5964 4.64578 16.2261 4.42542 18.4753C4.2054 20.7213 4 24.1238 4 29C4 34.2499 4.23808 37.6248 4.47617 39.6874Z" fill="#ACB4C9"/>
<path d="M19 23.5446C19 22.8131 18.4711 22.1974 17.7421 22.1363C16.9241 22.0677 15.707 22 14.0909 22C12.6537 22 11.6898 22.0536 11.0607 22.1137C10.4211 22.1748 10 22.71 10 23.3526V25.6474C10 26.29 10.4211 26.8252 11.0607 26.8863C11.6898 26.9464 12.6537 27 14.0909 27C15.707 27 16.9241 26.9323 17.7421 26.8637C18.4711 26.8026 19 26.1869 19 25.4554V23.5446Z" fill="#576684"/>
<path d="M19 32.5446C19 31.8131 18.4711 31.1974 17.7421 31.1363C16.9241 31.0677 15.707 31 14.0909 31C12.6537 31 11.6898 31.0536 11.0607 31.1137C10.4211 31.1748 10 31.71 10 32.3526V34.6474C10 35.29 10.4211 35.8252 11.0607 35.8863C11.6898 35.9464 12.6537 36 14.0909 36C15.707 36 16.9241 35.9323 17.7421 35.8637C18.4711 35.8026 19 35.1869 19 34.4554V32.5446Z" fill="#576684"/>
<circle r="8" transform="matrix(-1 0 0 1 31 29)" fill="#576684"/>
</svg>