<!-- Copyright © Ewsgit 2022. -->
<!-- Licensed under the MIT License - https://ewsgit.github.io/devdash/copyright -->

<svg xmlns="http://www.w3.org/2000/svg" width="48" height="48" fill="none" viewBox="0 0 48 48"><path fill="#576684" d="M27.9994 33H19.9994L18.4138 38.5494C18.1685 39.408 17.3837 40 16.4908 40H14.9688C13.8114 40 12.8025 40.7877 12.5217 41.9106C12.2564 42.9719 13.0591 44 14.1531 44H33.8457C34.9397 44 35.7424 42.9719 35.477 41.9106C35.1963 40.7877 34.1874 40 33.03 40H31.508C30.615 40 29.8303 39.408 29.5849 38.5494L27.9994 33Z"/><path fill="#ACB4C9" d="M33.4056 4.48957C35.7605 4.748 37.7113 6.08568 38.169 8.41016C38.6067 10.6336 39 14.2353 39 20C39 25.7647 38.6067 29.3664 38.169 31.5898C37.7113 33.9143 35.7605 35.252 33.4056 35.5104C31.1595 35.7569 27.9444 36 24 36C20.0556 36 16.8405 35.7569 14.5944 35.5104C12.2395 35.252 10.2887 33.9143 9.83104 31.5898C9.39328 29.3664 9 25.7647 9 20C9 14.2353 9.39328 10.6336 9.83104 8.41016C10.2887 6.08568 12.2395 4.748 14.5944 4.48957C16.8405 4.2431 20.0556 4 24 4C27.9444 4 31.1595 4.2431 33.4056 4.48957Z"/><path fill="#576684" fill-rule="evenodd" d="M9.03906 17C9.07978 15.4887 9.15066 14.1626 9.242 13H16.0004C17.105 13 18.0004 13.8954 18.0004 15C18.0004 16.1046 17.105 17 16.0004 17H9.03906ZM9.242 27C9.15066 25.8374 9.07978 24.5113 9.03906 23H16.0004C17.105 23 18.0004 23.8954 18.0004 25C18.0004 26.1046 17.105 27 16.0004 27H9.242ZM38.9618 23C38.921 24.5113 38.8502 25.8374 38.7588 27H32.0004C30.8958 27 30.0004 26.1046 30.0004 25C30.0004 23.8954 30.8958 23 32.0004 23H38.9618ZM38.7588 13C38.8502 14.1626 38.921 15.4887 38.9618 17H32.0004C30.8958 17 30.0004 16.1046 30.0004 15C30.0004 13.8954 30.8958 13 32.0004 13H38.7588Z" clip-rule="evenodd"/></svg>