<!-- Copyright © Ewsgit 2022. -->
<!-- Licensed under the MIT License - https://ewsgit.github.io/devdash/copyright -->

<svg width="49" height="48" viewBox="0 0 49 48" fill="none" xmlns="http://www.w3.org/2000/svg">
<path d="M4.06402 10.5738C4.26291 8.80233 5.4656 7.43418 7.21897 7.11242C9.98875 6.60414 15.2306 6 24.5 6C33.7694 6 39.0112 6.60414 41.781 7.11242C43.5344 7.43418 44.7371 8.80233 44.936 10.5738C45.2054 12.9734 45.5 17.1609 45.5 24C45.5 30.8391 45.2054 35.0266 44.936 37.4262C44.7371 39.1977 43.5344 40.5658 41.781 40.8876C39.0113 41.3959 33.7694 42 24.5 42C15.2306 42 9.98875 41.3959 7.21897 40.8876C5.4656 40.5658 4.26291 39.1977 4.06402 37.4262C3.79461 35.0266 3.5 30.8391 3.5 24C3.5 17.1609 3.79461 12.9734 4.06402 10.5738Z" fill="#ACB4C9"/>
<path d="M17.9167 18.7525C18.1964 17.0798 19.6931 16.1217 21.3051 16.6489C22.6264 17.0809 24.4894 17.8008 27.0294 19.0003C29.1275 19.991 30.7636 20.8727 32.0141 21.6093C33.9949 22.7761 33.9949 25.2244 32.0141 26.3912C30.7636 27.1278 29.1275 28.0095 27.0294 29.0003C24.4894 30.1997 22.6264 30.9196 21.3051 31.3517C19.6931 31.8788 18.1964 30.9208 17.9167 29.2481C17.6945 27.9186 17.5 26.1431 17.5 24.0003C17.5 21.8574 17.6945 20.0819 17.9167 18.7525Z" fill="#576684"/>
</svg>