<!-- Copyright © Ewsgit 2022. -->
<!-- Licensed under the MIT License - https://ewsgit.github.io/devdash/copyright -->

<svg width="48" height="48" viewBox="0 0 48 48" fill="none" xmlns="http://www.w3.org/2000/svg">
<path d="M27.4268 7.84533C27.2605 5.89065 25.2471 4.77797 23.5337 5.7333C16.7256 9.52924 13 14 13 14C13 14 8.8398 14.6934 5.13826 15.5027C3.80222 15.7949 2.74208 16.7903 2.498 18.136C2.24867 19.5106 2 21.5067 2 24C2 26.4933 2.24867 28.4894 2.498 29.864C2.74208 31.2097 3.80222 32.2051 5.13826 32.4973C8.8398 33.3066 13 34 13 34C13 34 16.7256 38.4708 23.5337 42.2667C25.2471 43.222 27.2605 42.1093 27.4268 40.1547C27.6986 36.9601 28 31.6855 28 24C28 16.3145 27.6986 11.0399 27.4268 7.84533Z" fill="#ACB4C9"/>
<path fill-rule="evenodd" clip-rule="evenodd" d="M41.0375 12.669C40.3918 12.0415 39.4636 11.7475 38.7183 12.2603C38.4773 12.4262 38.2123 12.6388 37.9319 12.9112C37.6516 13.1837 37.4328 13.4412 37.2621 13.6755C36.7345 14.3997 37.037 15.3018 37.6826 15.9293L38.3399 16.568C42.7705 20.8738 42.3626 27.4584 37.9319 31.7642L37.5536 32.1318C36.983 32.6863 36.6965 33.4642 37.1468 34.1149C37.3303 34.3799 37.5832 34.6856 37.9319 35.0244C38.2806 35.3633 38.5951 35.6091 38.8679 35.7874C39.5374 36.225 40.3379 35.9466 40.9084 35.3921L41.2868 35.0244C47.5702 28.918 47.5702 19.0176 41.2868 12.9112L41.0375 12.669ZM34.9261 17.2571C34.3884 16.7346 33.624 16.48 32.9837 16.8784C32.6977 17.0564 32.3679 17.3053 32.0097 17.6535C31.6514 18.0017 31.3952 18.3222 31.212 18.6001C30.8021 19.2224 31.0641 19.9653 31.6017 20.4878C33.5792 22.4095 33.5792 25.5253 31.6017 27.4471C31.0598 27.9737 30.7845 28.7119 31.2032 29.3356C31.3866 29.6088 31.6452 29.9271 32.0097 30.2813C32.3741 30.6355 32.7016 30.8868 32.9828 31.065C33.6246 31.4719 34.3842 31.2043 34.9261 30.6778C38.7396 26.9717 38.7396 20.9631 34.9261 17.2571Z" fill="#576684"/>
</svg>