<!-- Copyright © Ewsgit 2022. -->
<!-- Licensed under the MIT License - https://ewsgit.github.io/devdash/copyright -->

<svg width="48" height="48" viewBox="0 0 48 48" fill="none" xmlns="http://www.w3.org/2000/svg">
<path d="M31.4268 7.84533C31.2605 5.89065 29.2471 4.77797 27.5337 5.7333C20.7256 9.52924 17 14 17 14C17 14 12.8398 14.6934 9.13826 15.5027C7.80222 15.7949 6.74208 16.7903 6.498 18.136C6.24867 19.5106 6 21.5067 6 24C6 26.4933 6.24867 28.4894 6.498 29.864C6.74208 31.2097 7.80222 32.2051 9.13826 32.4973C12.8398 33.3066 17 34 17 34C17 34 20.7256 38.4708 27.5337 42.2667C29.2471 43.222 31.2605 42.1093 31.4268 40.1547C31.6986 36.9601 32 31.6855 32 24C32 16.3145 31.6986 11.0399 31.4268 7.84533Z" fill="#ACB4C9"/>
<path fill-rule="evenodd" clip-rule="evenodd" d="M36.9837 16.8786C37.624 16.4802 38.3884 16.7348 38.9261 17.2573C42.7396 20.9633 42.7396 26.972 38.9261 30.678C38.3842 31.2046 37.6246 31.4721 36.9828 31.0653C36.7016 30.887 36.3741 30.6357 36.0097 30.2815C35.6452 29.9273 35.3866 29.6091 35.2032 29.3358C34.7845 28.7121 35.0598 27.9739 35.6017 27.4473C37.5792 25.5255 37.5792 22.4097 35.6017 20.488C35.0641 19.9655 34.8021 19.2227 35.212 18.6004C35.3952 18.3224 35.6514 18.002 36.0097 17.6538C36.3679 17.3056 36.6977 17.0566 36.9837 16.8786Z" fill="#576684"/>
</svg>