<!-- Copyright © Ewsgit 2022. -->
<!-- Licensed under the MIT License - https://ewsgit.github.io/devdash/copyright -->

<svg width="48" height="48" viewBox="0 0 48 48" fill="none" xmlns="http://www.w3.org/2000/svg">
<path fill-rule="evenodd" clip-rule="evenodd" d="M7.68009 5.02577C5.92293 5.33785 4.71393 6.70729 4.51915 8.48128C4.26763 10.7721 4 14.6917 4 21C4 27.3083 4.26763 31.2279 4.51915 33.5187C4.71393 35.2927 5.92293 36.6622 7.68009 36.9742C9.24171 37.2516 11.5882 37.555 15 37.7594V41.8388C15 43.5158 16.9399 44.4481 18.2494 43.4005L25.0031 37.9975C33.0623 37.9569 37.7521 37.4303 40.3199 36.9742C42.0771 36.6622 43.2861 35.2927 43.4809 33.5187C43.7324 31.2279 44 27.3083 44 21C44 14.6917 43.7324 10.7721 43.4809 8.48128C43.2861 6.70728 42.0771 5.33785 40.3199 5.02577C37.6474 4.55112 32.6762 4 24 4C15.3238 4 10.3526 4.55112 7.68009 5.02577Z" fill="#ACB4C9"/>
<path fill-rule="evenodd" clip-rule="evenodd" d="M39.4589 21.263C39.2124 24.4698 37.4239 26.812 35.012 28.3092C32.5758 29.8215 29.4828 30.5 26.509 30.5H21.491C18.5172 30.5 15.4242 29.8215 12.988 28.3092C10.5761 26.812 8.78762 24.4698 8.5411 21.263C8.51394 21.0124 8.5 20.7578 8.5 20.5C8.5 20.4381 8.5008 20.3764 8.5024 20.315C8.50081 20.2108 8.5 20.1058 8.5 20C8.5 19.8535 8.52101 19.7119 8.56018 19.578C9.01152 16.1478 11.9466 13.5 15.5 13.5C19.366 13.5 22.5 16.634 22.5 20.5C22.5 23.5329 20.5712 26.1153 17.8733 27.0874C19.0192 27.3608 20.2477 27.5 21.491 27.5H26.509C27.7523 27.5 28.9808 27.3608 30.1267 27.0874C27.4288 26.1153 25.5 23.5329 25.5 20.5C25.5 16.634 28.634 13.5 32.5 13.5C36.0534 13.5 38.9885 16.1478 39.4398 19.578C39.479 19.7119 39.5 19.8535 39.5 20C39.5 20.1058 39.4992 20.2108 39.4976 20.315C39.4992 20.3764 39.5 20.4381 39.5 20.5C39.5 20.7578 39.4861 21.0124 39.4589 21.263ZM36.4968 20.3377C36.4116 18.2038 34.6548 16.5 32.5 16.5C30.2909 16.5 28.5 18.2909 28.5 20.5C28.5 22.7091 30.2909 24.5 32.5 24.5C34.5472 24.5 36.2352 22.9621 36.4717 20.9786C36.4748 20.9338 36.4774 20.8888 36.4796 20.8436C36.4877 20.678 36.4935 20.5094 36.4968 20.3377ZM11.5283 20.9786C11.7648 22.9621 13.4528 24.5 15.5 24.5C17.7091 24.5 19.5 22.7091 19.5 20.5C19.5 18.2909 17.7091 16.5 15.5 16.5C13.3452 16.5 11.5884 18.2038 11.5032 20.3377C11.5065 20.5094 11.5123 20.678 11.5204 20.8436C11.5226 20.8888 11.5252 20.9338 11.5283 20.9786Z" fill="#576684"/>
</svg>