<!-- Copyright © Ewsgit 2022. -->
<!-- Licensed under the MIT License - https://ewsgit.github.io/devdash/copyright -->

<svg xmlns="http://www.w3.org/2000/svg" width="49" height="48" fill="none" viewBox="0 0 49 48"><path fill="#ACB4C9" d="M5.06198 39.315C5.23932 41.0322 6.36521 42.3915 8.05375 42.751C10.719 43.3184 15.7432 44 24.5 44C33.2568 44 38.281 43.3184 40.9463 42.751C42.6348 42.3915 43.7607 41.0322 43.938 39.315C44.201 36.7688 44.5 32.0939 44.5 24C44.5 15.9061 44.201 11.2312 43.938 8.68502C43.7607 6.96777 42.6348 5.60848 40.9462 5.24901C38.281 4.68162 33.2568 4 24.5 4C15.7432 4 10.719 4.68162 8.05375 5.24901C6.36521 5.60848 5.23932 6.96777 5.06198 8.68502C4.79904 11.2312 4.5 15.9061 4.5 24C4.5 32.0939 4.79904 36.7688 5.06198 39.315Z"/><path fill="#576684" fill-rule="evenodd" d="M44.3055 34H4.69336C4.79938 36.3635 4.9346 38.0869 5.06143 39.315C5.23877 41.0322 6.36466 42.3915 8.0532 42.751C10.7185 43.3184 15.7426 44 24.4995 44C33.2563 44 38.2804 43.3184 40.9457 42.751C42.6342 42.3915 43.7601 41.0322 43.9375 39.315C44.0643 38.0868 44.1995 36.3635 44.3055 34Z" clip-rule="evenodd"/><path fill="#576684" d="M18.8165 16.7406C19.0756 15.072 20.5676 14.1259 22.1689 14.6619C23.3215 15.0477 24.8907 15.6585 26.9706 16.6253C28.5757 17.3714 29.8767 18.0469 30.9167 18.6315C32.9424 19.7703 32.9424 22.2303 30.9167 23.3691C29.8767 23.9537 28.5757 24.6292 26.9706 25.3753C24.8907 26.3421 23.3215 26.9529 22.1689 27.3387C20.5676 27.8747 19.0756 26.9286 18.8165 25.26C18.6424 24.1392 18.5 22.7022 18.5 21.0003C18.5 19.2984 18.6424 17.8614 18.8165 16.7406Z"/></svg>