<!-- Copyright © Ewsgit 2022. -->
<!-- Licensed under the MIT License - https://ewsgit.github.io/devdash/copyright -->

<svg width="49" height="48" viewBox="0 0 49 48" fill="none" xmlns="http://www.w3.org/2000/svg">
<path d="M4.88753 11.1919C5.06821 9.40944 6.29277 8.05252 8.06249 7.77317C10.423 7.40056 14.5718 7 21.5 7C28.4282 7 32.577 7.40056 34.9375 7.77317C36.7072 8.05251 37.9318 9.40944 38.1125 11.1919C38.3089 13.1303 38.5 16.2391 38.5 21C38.5 25.7609 38.3089 28.8697 38.1125 30.8081C37.9318 32.5906 36.7072 33.9475 34.9375 34.2268C32.577 34.5994 28.4282 35 21.5 35C14.5718 35 10.423 34.5994 8.06249 34.2268C6.29278 33.9475 5.06821 32.5906 4.88753 30.8081C4.69105 28.8697 4.5 25.7609 4.5 21C4.5 16.2391 4.69105 13.1303 4.88753 11.1919Z" fill="#576684"/>
<path d="M8.93093 15.2898C9.11668 13.5103 10.3336 12.1476 12.0989 11.8565C14.5665 11.4496 18.9918 11 26.5 11C34.0082 11 38.4335 11.4496 40.9011 11.8565C42.6664 12.1476 43.8833 13.5103 44.0691 15.2898C44.2841 17.3502 44.5 20.7307 44.5 26C44.5 31.2693 44.2841 34.6498 44.0691 36.7102C43.8833 38.4897 42.6664 39.8524 40.9011 40.1435C38.4335 40.5504 34.0082 41 26.5 41C18.9918 41 14.5665 40.5504 12.0989 40.1435C10.3336 39.8524 9.11668 38.4897 8.93093 36.7102C8.71586 34.6498 8.5 31.2693 8.5 26C8.5 20.7307 8.71586 17.3502 8.93093 15.2898Z" fill="#ACB4C9"/>
<path d="M20.8165 21.7403C21.0756 20.0717 22.5676 19.1256 24.1689 19.6616C25.3215 20.0474 26.8907 20.6582 28.9706 21.625C30.5757 22.3711 31.8767 23.0466 32.9167 23.6312C34.9424 24.77 34.9424 27.23 32.9167 28.3688C31.8767 28.9534 30.5757 29.6289 28.9706 30.375C26.8907 31.3418 25.3215 31.9526 24.1689 32.3384C22.5676 32.8744 21.0756 31.9283 20.8165 30.2597C20.6424 29.1389 20.5 27.7019 20.5 26C20.5 24.2981 20.6424 22.8611 20.8165 21.7403Z" fill="#576684"/>
</svg>