<!-- Copyright © Ewsgit 2022. -->
<!-- Licensed under the MIT License - https://ewsgit.github.io/devdash/copyright -->

<svg width="48" height="48" viewBox="0 0 48 48" fill="none" xmlns="http://www.w3.org/2000/svg">
<path fill-rule="evenodd" clip-rule="evenodd" d="M23.2208 10C17.7201 10 13.0649 14.0634 12.3217 19.5138L10.9728 29.4053C10.749 31.047 9.23668 32.1964 7.59502 31.9725C5.95336 31.7486 4.804 30.2363 5.02787 28.5947L6.37672 18.7031C7.52535 10.2798 14.7196 4 23.2208 4H24.7799C33.2811 4 40.4754 10.2798 41.624 18.7031L42.9729 28.5947C43.1967 30.2363 42.0474 31.7486 40.4057 31.9725C38.764 32.1964 37.2517 31.047 37.0279 29.4053L35.679 19.5138C34.9358 14.0634 30.2807 10 24.7799 10H23.2208Z" fill="#576684"/>
<path d="M7.35689 40.405C6.06719 40.1532 4.9899 39.2772 4.67973 38.0003C4.34513 36.6227 4 34.5774 4 32.0012C4 29.4249 4.34513 27.3796 4.67973 26.0021C4.9899 24.7252 6.0672 23.8491 7.35689 23.5973C8.78075 23.3193 10.8194 22.9242 13.0699 22.4967C14.6608 22.1946 16.1663 22.9622 16.4608 24.5545C16.7449 26.0913 17 28.4576 17 32.0012C17 35.5447 16.7449 37.9111 16.4608 39.4479C16.1663 41.0402 14.6608 41.8077 13.0699 41.5056C10.8194 41.0782 8.78074 40.683 7.35689 40.405Z" fill="#ACB4C9"/>
<path fill-rule="evenodd" clip-rule="evenodd" d="M13 41.4919V22.5096C13.0233 22.5052 13.0466 22.5008 13.0699 22.4964C14.6608 22.1942 16.1663 22.9618 16.4608 24.5541C16.7449 26.0909 17 28.4572 17 32.0008C17 35.5443 16.7449 37.9107 16.4608 39.4475C16.1663 41.0398 14.6608 41.8073 13.0699 41.5052C13.0466 41.5008 13.0233 41.4964 13 41.4919Z" fill="#576684"/>
<path d="M40.6431 40.405C41.9328 40.1532 43.0101 39.2772 43.3203 38.0003C43.6549 36.6227 44 34.5774 44 32.0012C44 29.4249 43.6549 27.3796 43.3203 26.0021C43.0101 24.7252 41.9328 23.8491 40.6431 23.5973C39.2193 23.3193 37.1806 22.9242 34.9301 22.4967C33.3392 22.1946 31.8337 22.9622 31.5392 24.5545C31.2551 26.0913 31 28.4576 31 32.0012C31 35.5447 31.2551 37.9111 31.5392 39.4479C31.8337 41.0402 33.3392 41.8077 34.9301 41.5056C37.1806 41.0782 39.2193 40.683 40.6431 40.405Z" fill="#ACB4C9"/>
<path fill-rule="evenodd" clip-rule="evenodd" d="M35 41.4919V22.5096C34.9767 22.5052 34.9534 22.5008 34.9301 22.4964C33.3392 22.1942 31.8337 22.9618 31.5392 24.5541C31.2551 26.0909 31 28.4572 31 32.0008C31 35.5443 31.2551 37.9107 31.5392 39.4475C31.8337 41.0398 33.3392 41.8073 34.9301 41.5052C34.9534 41.5008 34.9767 41.4964 35 41.4919Z" fill="#576684"/>
</svg>