<!-- Copyright © Ewsgit 2022. -->
<!-- Licensed under the MIT License - https://ewsgit.github.io/devdash/copyright -->

<svg xmlns="http://www.w3.org/2000/svg" width="48" height="48" fill="none" viewBox="0 0 48 48"><path fill="#ACB4C9" fill-rule="evenodd" d="M17.0146 33.7964C12.3299 33.4901 9.1978 30.0354 9.0591 25.3428C9.02233 24.0989 9 22.6601 9 21C9 15.9851 9.20378 12.9039 9.39366 11.1214C9.53573 9.78758 10.4919 8.78494 11.8209 8.60282C13.8572 8.32374 17.599 8 24 8C30.401 8 34.1428 8.32374 36.1791 8.60282C37.5081 8.78494 38.4643 9.78758 38.6063 11.1214C38.6344 11.3851 38.6628 11.6773 38.6908 12H40C43.866 12 47 15.134 47 19C47 22.866 43.866 26 40 26H38.9013C38.5025 30.3551 35.4486 33.5046 30.9854 33.7964C29.1175 33.9185 26.8161 34 24 34C21.1839 34 18.8825 33.9185 17.0146 33.7964ZM38.9972 22H40C41.6569 22 43 20.6569 43 19C43 17.3431 41.6569 16 40 16H38.9207C38.9693 17.4004 39 19.0547 39 21C39 21.3427 38.999 21.6759 38.9972 22Z" clip-rule="evenodd"/><path fill="#576684" d="M4 35.625C4 38.1237 6.55329 39.7138 9.05055 39.7973C12.0517 39.8977 16.8624 40 24 40C31.1376 40 35.9483 39.8977 38.9495 39.7973C41.4467 39.7138 44 38.1237 44 35.625C44 35.4898 43.9899 35.3587 43.9718 35.2324C43.7794 33.8926 42.3141 33.3306 40.962 33.2685C38.4528 33.1532 33.3576 33 24 33C14.6424 33 9.54719 33.1532 7.03805 33.2685C5.68587 33.3306 4.22065 33.8926 4.02824 35.2324C4.01011 35.3587 4 35.4898 4 35.625Z"/></svg>