<!-- Copyright © Ewsgit 2022. -->
<!-- Licensed under the MIT License - https://ewsgit.github.io/devdash/copyright -->

<svg width="48" height="48" viewBox="0 0 48 48" fill="none" xmlns="http://www.w3.org/2000/svg">
<path d="M20.2299 10.0465C20.0741 9.39619 20.3042 8.72042 20.9279 8.47921C21.5559 8.23633 22.5416 8 24 8C25.4584 8 26.4441 8.23633 27.0721 8.47921C27.6958 8.72042 27.9259 9.39619 27.7701 10.0465C26.7229 14.4156 25 17 25 17H23C23 17 21.2771 14.4156 20.2299 10.0465Z" fill="#576684"/>
<path d="M4 32.6C4 22.2748 11.8204 14.0998 22.1451 14.0081C22.7452 14.0028 23.3633 14 24 14C24.6367 14 25.2548 14.0028 25.8549 14.0081C36.1796 14.0998 44 22.2748 44 32.6C44 33.2235 43.9357 33.7963 43.8406 34.3028C43.5466 35.8679 42.181 36.8662 40.6047 37.0927C37.8651 37.4864 32.6356 38 24 38C15.3644 38 10.1349 37.4864 7.39529 37.0927C5.81898 36.8662 4.45345 35.8679 4.15942 34.3028C4.06427 33.7963 4 33.2235 4 32.6Z" fill="#ACB4C9"/>
<path d="M3 39.625C3 42.1366 5.60037 43.7093 8.11066 43.7911C11.2471 43.8934 16.351 44 24 44C31.649 44 36.7529 43.8934 39.8893 43.7911C42.3996 43.7093 45 42.1366 45 39.625C45 39.458 44.9838 39.2974 44.9555 39.1442C44.7173 37.853 43.296 37.3355 41.9844 37.2763C39.4148 37.1602 34.0474 37 24 37C13.9526 37 8.58522 37.1602 6.01561 37.2763C4.70395 37.3355 3.28267 37.853 3.04445 39.1442C3.01619 39.2974 3 39.458 3 39.625Z" fill="#576684"/>
<path fill-rule="evenodd" clip-rule="evenodd" d="M30.612 19.3398C30.9256 18.573 31.8014 18.2057 32.5682 18.5192C35.7264 19.8108 38.2273 22.2851 39.5253 25.4267C39.8417 26.1924 39.4775 27.0695 38.7118 27.3859C37.9462 27.7022 37.0691 27.338 36.7527 26.5724C35.7643 24.1801 33.8581 22.288 31.4326 21.296C30.6658 20.9824 30.2984 20.1066 30.612 19.3398Z" fill="#576684"/>
</svg>