<!-- Copyright © Ewsgit 2022. -->
<!-- Licensed under the MIT License - https://ewsgit.github.io/devdash/copyright -->

<svg width="49" height="48" viewBox="0 0 49 48" fill="none" xmlns="http://www.w3.org/2000/svg">
<path d="M37.3269 4.95131C33.5635 4.07334 4.84206 6.24547 4.02344 16L45.1388 17.9998C44.8423 8.13734 38.8299 5.4797 37.6871 5.06286C37.5632 5.01766 37.4553 4.98128 37.3269 4.95131Z" fill="#576684"/>
<path d="M4.03686 15.8982C4.2433 14.0645 5.63388 12.7269 7.47134 12.5579C10.3024 12.2975 15.5048 12 24.5 12C34.1742 12 39.4614 12.3441 42.1299 12.6161C43.5984 12.7658 44.709 13.8375 44.8924 15.3022C45.1725 17.5395 45.5 21.5368 45.5 27.9999C45.5 33.4453 45.2675 37.1404 45.0268 39.5071C44.8027 41.7099 43.1415 43.3093 40.9351 43.4941C37.9924 43.7406 32.8999 44 24.5 44C16.1001 44 11.0076 43.7406 8.06493 43.4941C5.85848 43.3093 4.19731 41.7099 3.97322 39.5071C3.73246 37.1404 3.5 33.4453 3.5 27.9999C3.5 22.0751 3.7752 18.2223 4.03686 15.8982Z" fill="#ACB4C9"/>
<path fill-rule="evenodd" clip-rule="evenodd" d="M3.86984 38.3942C3.67001 36.0336 3.5 32.6569 3.5 28C3.5 27.934 3.50003 27.8683 3.5001 27.8028C4.38265 27.2922 5.40732 27 6.50023 27C9.81394 27 12.5002 29.6863 12.5002 33C12.5002 36.3137 9.81394 39 6.50023 39C5.55673 39 4.66409 38.7822 3.86984 38.3942ZM18.5002 21C18.5002 23.2091 20.2911 25 22.5002 25C24.7094 25 26.5002 23.2091 26.5002 21C26.5002 18.7909 24.7094 17 22.5002 17C20.2911 17 18.5002 18.7909 18.5002 21ZM35.5002 37C33.2911 37 31.5002 35.2091 31.5002 33C31.5002 30.7909 33.2911 29 35.5002 29C37.7094 29 39.5002 30.7909 39.5002 33C39.5002 35.2091 37.7094 37 35.5002 37Z" fill="#576684"/>
</svg>