<!-- Copyright © Ewsgit 2022. -->
<!-- Licensed under the MIT License - https://ewsgit.github.io/devdash/copyright -->

<svg width="48" height="48" viewBox="0 0 48 48" fill="none" xmlns="http://www.w3.org/2000/svg">
<path d="M4.65388 8.57316C4.84496 6.92575 5.84441 5.56573 7.46374 5.20762C9.9896 4.64902 14.8855 4 24 4C33.1145 4 38.0104 4.64902 40.5363 5.20762C42.1556 5.56574 43.155 6.92575 43.3461 8.57316C43.6351 11.0644 44 15.1673 44 20C44 29.0284 39.2351 37.4764 31.2074 41.6079C28.5258 42.988 25.9087 44 24 44C22.0913 44 19.4742 42.988 16.7926 41.6079C8.76493 37.4764 4 29.0284 4 20C4 15.1673 4.36493 11.0644 4.65388 8.57316Z" fill="#ACB4C9"/>
<path d="M12.1265 19.9659C12.2749 18.9268 13.1519 18.3151 14.199 18.242C15.8003 18.1302 18.7844 18 24 18C29.2156 18 32.1997 18.1302 33.801 18.242C34.8481 18.3151 35.7251 18.9268 35.8735 19.9659C35.9471 20.4813 36 21.1481 36 22C36 22.8519 35.9471 23.5187 35.8735 24.0341C35.7251 25.0732 34.8481 25.6849 33.801 25.758C32.1997 25.8698 29.2156 26 24 26C18.7844 26 15.8003 25.8698 14.199 25.758C13.1519 25.6849 12.2749 25.0732 12.1265 24.0341C12.0529 23.5187 12 22.8519 12 22C12 21.1481 12.0529 20.4813 12.1265 19.9659Z" fill="#576684"/>
<path d="M26.0341 10.1265C27.0732 10.2749 27.6849 11.1519 27.758 12.199C27.8698 13.8003 28 16.7844 28 22C28 27.2156 27.8698 30.1997 27.758 31.801C27.6849 32.8481 27.0732 33.7251 26.0341 33.8735C25.5187 33.9471 24.8519 34 24 34C23.1481 34 22.4813 33.9471 21.9659 33.8735C20.9268 33.7251 20.3151 32.8481 20.242 31.801C20.1302 30.1997 20 27.2156 20 22C20 16.7844 20.1302 13.8003 20.242 12.199C20.3151 11.1519 20.9268 10.2749 21.9659 10.1265C22.4813 10.0529 23.1481 10 24 10C24.8519 10 25.5187 10.0529 26.0341 10.1265Z" fill="#576684"/>
</svg>