<!-- Copyright © Ewsgit 2022. -->
<!-- Licensed under the MIT License - https://ewsgit.github.io/devdash/copyright -->

<svg width="48" height="48" viewBox="0 0 48 48" fill="none" xmlns="http://www.w3.org/2000/svg">
<path d="M4.65388 8.57316C4.84496 6.92575 5.84441 5.56573 7.46374 5.20762C9.9896 4.64902 14.8855 4 24 4C33.1145 4 38.0104 4.64902 40.5363 5.20762C42.1556 5.56574 43.155 6.92575 43.3461 8.57316C43.6351 11.0644 44 15.1673 44 20C44 29.0284 39.2351 37.4764 31.2074 41.6079C28.5258 42.988 25.9087 44 24 44C22.0913 44 19.4742 42.988 16.7926 41.6079C8.76493 37.4764 4 29.0284 4 20C4 15.1673 4.36493 11.0644 4.65388 8.57316Z" fill="#ACB4C9"/>
<path fill-rule="evenodd" clip-rule="evenodd" d="M23.8839 8.00042C22.7636 8.00857 22.0466 8.83313 22.0466 9.95349C22.0466 10.6894 22.356 11.2976 22.8857 11.6308C23.071 11.7473 23.2093 11.9248 23.1988 12.1434C23.1869 12.3924 22.9925 12.6098 22.7456 12.6438C21.1036 12.8698 19.6012 13.533 18.3595 14.5122C18.1436 14.6824 17.8204 14.6671 17.6169 14.4822C17.4416 14.3228 17.4137 14.0821 17.4621 13.8502C17.5878 13.2487 17.3749 12.6124 16.863 12.1005C16.0708 11.3083 14.9807 11.2322 14.1828 12.0186C14.1557 12.0453 14.1282 12.0726 14.1003 12.1005C14.0724 12.1284 14.0451 12.1559 14.0185 12.1829C13.232 12.9809 13.3081 14.0709 14.1003 14.8631C14.6039 15.3667 15.2278 15.5809 15.8205 15.4682C16.0711 15.4205 16.3301 15.4495 16.5017 15.6382C16.6934 15.8489 16.7179 16.182 16.5533 16.4146C15.7046 17.614 15.1383 19.0275 14.9514 20.5582C14.9095 20.9015 14.6044 21.1773 14.259 21.1934C13.9639 21.2072 13.7342 21.0167 13.5582 20.7795C13.2134 20.3148 12.6388 20.0465 11.9535 20.0465C10.8331 20.0465 10.0086 20.7635 10.0004 21.8838C10.0001 21.9218 10 21.9605 10 22C10 22.0395 10.0001 22.0782 10.0004 22.1162C10.0086 23.2365 10.8331 23.9535 11.9535 23.9535C12.6201 23.9535 13.182 23.6997 13.5295 23.2581C13.7296 23.0039 13.98 22.7936 14.3032 22.8085C14.6618 22.825 14.9871 23.0982 15.0567 23.4503C15.3255 24.8121 15.8977 26.065 16.6999 27.1355C16.9449 27.4625 16.9084 27.9591 16.6352 28.2628C16.3936 28.5314 16.037 28.5475 15.6776 28.511C15.1287 28.4554 14.5638 28.6738 14.1006 29.1369C13.3084 29.9292 13.2323 31.0192 14.0188 31.8171C14.0454 31.8442 14.0727 31.8717 14.1006 31.8996C14.1285 31.9275 14.156 31.9548 14.1831 31.9814C14.981 32.7679 16.071 32.6918 16.8633 31.8996C17.3162 31.4466 17.5351 30.8962 17.4924 30.3588C17.4621 29.9773 17.4776 29.5987 17.7621 29.3427C18.0717 29.064 18.5758 29.0139 18.9216 29.2463C19.9554 29.941 21.1393 30.4296 22.4144 30.6533C22.8489 30.7295 23.1947 31.1433 23.2177 31.5838C23.2385 31.9804 22.9708 32.2661 22.6726 32.5283C22.2739 32.8786 22.0466 33.4157 22.0466 34.0465C22.0466 35.1669 22.7636 35.9914 23.8839 35.9996C23.9219 35.9998 23.9606 36 24.0001 36C24.0396 36 24.0783 35.9998 24.1163 35.9996C25.2366 35.9914 25.9536 35.1669 25.9536 34.0465C25.9536 33.4154 25.7261 32.8782 25.3272 32.5279C25.0288 32.2659 24.7612 31.9801 24.7819 31.5836C24.805 31.1432 25.1506 30.7296 25.585 30.6534C26.8605 30.4298 28.0447 29.9411 29.0787 29.2462C29.4244 29.0138 29.9284 29.0639 30.238 29.3425C30.5224 29.5985 30.5379 29.977 30.5076 30.3585C30.4648 30.896 30.6836 31.4465 31.1367 31.8995C31.9289 32.6917 33.0189 32.7678 33.8169 31.9814C33.8439 31.9547 33.8714 31.9274 33.8993 31.8995C33.9273 31.8716 33.9545 31.8441 33.9812 31.8171C34.7676 31.0191 34.6916 29.9291 33.8993 29.1369C33.4362 28.6737 32.8713 28.4554 32.3225 28.511C31.9631 28.5474 31.6065 28.5313 31.365 28.2627C31.0918 27.959 31.0553 27.4624 31.3003 27.1355C32.1114 26.0529 32.6874 24.784 32.9524 23.4045C33.0182 23.0621 33.3412 22.7951 33.6893 22.7764C34.0118 22.7591 34.2545 22.9719 34.4488 23.2299C34.7944 23.6889 35.3658 23.9535 36.0465 23.9535C37.1669 23.9535 37.9914 23.2365 37.9996 22.1162C37.9998 22.0782 38 22.0395 38 22C38 21.9605 37.9998 21.9218 37.9996 21.8838C37.9914 20.7635 37.1669 20.0465 36.0465 20.0465C35.3474 20.0465 34.7635 20.3257 34.4213 20.8078C34.2503 21.0486 34.0273 21.2418 33.7324 21.2258C33.3964 21.2076 33.0932 20.9376 33.0541 20.6034C32.8729 19.0553 32.3039 17.6258 31.4468 16.4146C31.2823 16.1821 31.3068 15.849 31.4984 15.6383C31.67 15.4497 31.9289 15.4207 32.1794 15.4683C32.7721 15.5809 33.3959 15.3667 33.8994 14.8632C34.6916 14.071 34.7677 12.981 33.9812 12.183C33.9546 12.156 33.9273 12.1285 33.8994 12.1006C33.8715 12.0726 33.844 12.0454 33.8169 12.0187C33.019 11.2323 31.929 11.3084 31.1367 12.1006C30.6247 12.6126 30.4118 13.2491 30.5377 13.8508C30.5862 14.0826 30.5582 14.3232 30.383 14.4825C30.1797 14.6673 29.8566 14.6826 29.6409 14.5124C28.399 13.533 26.8962 12.8696 25.2539 12.6437C25.0071 12.6097 24.8128 12.3924 24.8008 12.1436C24.7904 11.925 24.9287 11.7475 25.1139 11.6311C25.6441 11.2981 25.9536 10.6896 25.9536 9.95349C25.9536 8.83313 25.2366 8.00857 24.1163 8.00042C24.0783 8.00014 24.0396 8 24.0001 8C23.9606 8 23.9219 8.00014 23.8839 8.00042Z" fill="#576684"/>
<circle cx="21.3957" cy="24.2804" r="2.60465" fill="#ACB4C9"/>
<circle cx="24.0004" cy="17.766" r="1.95349" fill="#ACB4C9"/>
<circle cx="28.2334" cy="23.3037" r="1.62791" fill="#ACB4C9"/>
</svg>