<!-- Copyright © Ewsgit 2022. -->
<!-- Licensed under the MIT License - https://ewsgit.github.io/devdash/copyright -->

<svg width="48" height="48" viewBox="0 0 48 48" fill="none" xmlns="http://www.w3.org/2000/svg">
<path fill-rule="evenodd" clip-rule="evenodd" d="M23.8216 3.00064C22.1011 3.01317 21 4.27945 21 6C21 7.13032 21.4752 8.06459 22.2891 8.57612C22.5736 8.75492 22.7859 9.02753 22.7698 9.36317C22.7515 9.74541 22.4531 10.0792 22.074 10.1314C19.5521 10.4784 17.2445 11.497 15.3375 13.001C15.0061 13.2624 14.5098 13.2389 14.1974 12.955C13.9283 12.7103 13.8853 12.3407 13.9598 11.9847C14.153 11.0609 13.8261 10.0835 13.0397 9.2972C11.8231 8.08059 10.1491 7.96377 8.92371 9.1715C8.88219 9.21241 8.83999 9.25431 8.7971 9.2972C8.75421 9.34009 8.71232 9.38229 8.6714 9.42381C7.46368 10.6492 7.58049 12.3232 8.7971 13.5398C9.57038 14.3131 10.5284 14.6421 11.4386 14.4691C11.8234 14.3959 12.2211 14.4405 12.4846 14.7301C12.7789 15.0537 12.8166 15.5653 12.5639 15.9224C11.2554 17.7716 10.3841 19.9521 10.1006 22.3134C10.0391 22.8251 9.6282 23.2343 9.11335 23.2581C9.09664 23.2589 9.07999 23.2596 9.06338 23.2604C8.62368 23.2808 8.23695 22.9997 7.97782 22.6439C7.44985 21.919 6.56136 21.5 5.5 21.5C3.77945 21.5 2.51317 22.6011 2.50064 24.3216C2.50022 24.3799 2.5 24.4393 2.5 24.5C2.5 24.5607 2.50022 24.6201 2.50064 24.6784C2.51317 26.3989 3.77945 27.5 5.5 27.5C6.56136 27.5 7.44985 27.081 7.97782 26.3561C8.23695 26.0003 8.62369 25.7192 9.06339 25.7396C9.13053 25.7427 9.19855 25.7458 9.26745 25.749C9.75529 25.771 10.154 26.1406 10.2448 26.6204C10.6619 28.823 11.5949 30.8432 12.9135 32.5503C13.2255 32.9543 13.2227 33.5274 12.8805 33.9062C12.7929 34.0031 12.708 34.0974 12.6257 34.1891C12.3242 34.5249 11.8375 34.5988 11.3927 34.5226C10.4963 34.3692 9.5575 34.6999 8.79727 35.4602C7.58066 36.6768 7.46385 38.3508 8.67157 39.5762C8.71249 39.6177 8.75438 39.6599 8.79727 39.7028C8.84016 39.7457 8.88236 39.7876 8.92388 39.8285C10.1493 41.0362 11.8233 40.9194 13.0399 39.7028C13.8001 38.9426 14.1309 38.0038 13.9775 37.1074C13.9013 36.6626 13.9752 36.1759 14.311 35.8744C14.4278 35.7696 14.5487 35.6605 14.674 35.5472C15.0383 35.2175 15.5856 35.201 15.9883 35.4825C17.7063 36.6834 19.7062 37.5085 21.8689 37.8388C22.3645 37.9145 22.754 38.3181 22.7787 38.8188C22.7885 39.0189 22.7984 39.2106 22.8083 39.3941C22.8325 39.8448 22.5407 40.2411 22.1723 40.5018C21.4299 41.0271 21 41.9249 21 43C21 44.7206 22.1011 45.9868 23.8216 45.9994C23.8799 45.9998 23.9393 46 24 46C24.0607 46 24.1201 45.9998 24.1784 45.9994C25.8989 45.9868 27 44.7206 27 43C27 41.9249 26.5701 41.0271 25.8277 40.5018C25.4593 40.2411 25.1675 39.8448 25.1917 39.3941C25.2016 39.2106 25.2115 39.0189 25.2213 38.8188C25.246 38.3181 25.6355 37.9145 26.1311 37.8388C28.2938 37.5085 30.2937 36.6834 32.0117 35.4825C32.4144 35.201 32.9617 35.2175 33.326 35.5472C33.4513 35.6605 33.5722 35.7696 33.6889 35.8744C34.0248 36.1759 34.0987 36.6625 34.0225 37.1074C33.869 38.0037 34.1998 38.9426 34.9601 39.7028C36.1767 40.9194 37.8507 41.0362 39.0761 39.8285C39.1176 39.7876 39.1598 39.7457 39.2027 39.7028C39.2456 39.6599 39.2875 39.6177 39.3284 39.5762C40.5361 38.3507 40.4193 36.6768 39.2027 35.4601C38.4425 34.6999 37.5037 34.3691 36.6073 34.5226C36.1624 34.5988 35.6758 34.5249 35.3743 34.189C35.292 34.0974 35.2071 34.0031 35.1195 33.9062C34.7773 33.5274 34.7745 32.9543 35.0865 32.5503C36.4142 30.8314 37.3509 28.7952 37.7637 26.5749C37.8527 26.096 38.2486 25.7257 38.735 25.7002C38.7887 25.6973 38.8417 25.6945 38.8941 25.6917C39.3447 25.6675 39.7411 25.9593 40.0018 26.3277C40.5271 27.0701 41.4249 27.5 42.5 27.5C44.2206 27.5 45.4868 26.3989 45.4994 24.6784C45.4998 24.6201 45.5 24.5607 45.5 24.5C45.5 24.4393 45.4998 24.3799 45.4994 24.3216C45.4868 22.6011 44.2206 21.5 42.5 21.5C41.4249 21.5 40.5271 21.9299 40.0018 22.6723C39.7411 23.0407 39.3967 23.3355 38.9461 23.3111C38.4327 23.2833 37.9645 22.8705 37.9049 22.3598C37.6273 19.9806 36.7532 17.7837 35.4361 15.9224C35.1834 15.5653 35.2211 15.0537 35.5154 14.7302C35.7789 14.4405 36.1766 14.3959 36.5613 14.4691C37.4715 14.6421 38.4296 14.3132 39.2029 13.5399C40.4195 12.3233 40.5363 10.6493 39.3286 9.42383C39.2876 9.38232 39.2458 9.34011 39.2029 9.29722C39.16 9.25433 39.1178 9.21244 39.0763 9.17152C37.8508 7.9638 36.1768 8.08061 34.9602 9.29722C34.1739 10.0835 33.847 11.0609 34.0402 11.9848C34.1146 12.3408 34.0717 12.7104 33.8025 12.955C33.4902 13.2389 32.9939 13.2624 32.6625 13.0011C30.7555 11.4971 28.4479 10.4784 25.926 10.1314C25.5469 10.0792 25.2485 9.74541 25.2302 9.36317C25.2141 9.02754 25.4264 8.75493 25.7109 8.57612C26.5248 8.06459 27 7.13032 27 6C27 4.27945 25.8989 3.01317 24.1784 3.00064C24.1201 3.00022 24.0607 3 24 3C23.9393 3 23.8799 3.00022 23.8216 3.00064Z" fill="#ACB4C9"/>
<circle cx="20" cy="28" r="4" fill="#576684"/>
<circle cx="24" cy="18" r="3" fill="#576684"/>
<circle cx="30.5" cy="26.5" r="2.5" fill="#576684"/>
</svg>