<!-- Copyright © Ewsgit 2022. -->
<!-- Licensed under the MIT License - https://ewsgit.github.io/devdash/copyright -->

<svg xmlns="http://www.w3.org/2000/svg" width="48" height="48" fill="none" viewBox="0 0 48 48"><path fill="#576684" fill-rule="evenodd" d="M18.8541 8H29.1459C30.2822 8 31.321 8.64201 31.8292 9.65836L34.139 14.278C36.904 14.4517 38.883 14.6821 40.2621 14.8961C42.0471 15.173 43.3167 16.5182 43.5238 18.3126C43.7619 20.3752 44 23.7501 44 29C44 34.2499 43.7619 37.6248 43.5238 39.6874C43.3167 41.4818 42.0471 42.827 40.2621 43.1039C37.5759 43.5207 32.614 44 24 44C15.386 44 10.4241 43.5207 7.73794 43.1039C5.95292 42.827 4.68332 41.4818 4.47617 39.6874C4.23808 37.6248 4 34.2499 4 29C4 23.7501 4.23808 20.3752 4.47617 18.3126C4.68332 16.5182 5.95292 15.173 7.73794 14.8961C9.11703 14.6821 11.096 14.4517 13.861 14.278L16.1708 9.65836C16.679 8.64201 17.7178 8 18.8541 8Z" clip-rule="evenodd"/><circle cx="24" cy="29" r="9" fill="#ACB4C9"/></svg>