<!-- Copyright © Ewsgit 2022. -->
<!-- Licensed under the MIT License - https://ewsgit.github.io/devdash/copyright -->

<svg xmlns="http://www.w3.org/2000/svg" width="48" height="48" fill="none" viewBox="0 0 48 48"><path fill="#576684" d="M4.38753 11.1919C4.56821 9.40944 5.79277 8.05252 7.56249 7.77317C9.923 7.40056 14.0718 7 21 7C27.9282 7 32.077 7.40056 34.4375 7.77317C36.2072 8.05251 37.4318 9.40944 37.6125 11.1919C37.8089 13.1303 38 16.2391 38 21C38 25.7609 37.8089 28.8697 37.6125 30.8081C37.4318 32.5906 36.2072 33.9475 34.4375 34.2268C32.077 34.5994 27.9282 35 21 35C14.0718 35 9.92301 34.5994 7.56249 34.2268C5.79278 33.9475 4.56821 32.5906 4.38753 30.8081C4.19105 28.8697 4 25.7609 4 21C4 16.2391 4.19105 13.1303 4.38753 11.1919Z"/><path fill="#ACB4C9" d="M8.43093 15.2898C8.61668 13.5103 9.83361 12.1476 11.5989 11.8565C14.0665 11.4496 18.4918 11 26 11C33.5082 11 37.9335 11.4496 40.4011 11.8565C42.1664 12.1476 43.3833 13.5103 43.5691 15.2898C43.7841 17.3502 44 20.7307 44 26C44 31.2693 43.7841 34.6498 43.5691 36.7102C43.3833 38.4897 42.1664 39.8524 40.4011 40.1435C37.9335 40.5504 33.5082 41 26 41C18.4918 41 14.0665 40.5504 11.5989 40.1435C9.83361 39.8524 8.61668 38.4897 8.43093 36.7102C8.21586 34.6498 8 31.2693 8 26C8 20.7307 8.21586 17.3502 8.43093 15.2898Z"/><path fill="#576684" fill-rule="evenodd" d="M43.7169 34.9757C43.6682 35.6305 43.6166 36.2012 43.5652 36.6958C43.3806 38.4725 42.1703 39.836 40.4085 40.1307C37.9423 40.5432 33.5157 40.9995 26.0005 40.9995C18.4853 40.9995 14.0587 40.5432 11.5925 40.1307C9.8307 39.836 8.62042 38.4725 8.43578 36.6958C8.3743 36.1043 8.31264 35.4038 8.25586 34.5809C12.261 30.7872 15.0414 28.6733 16.7926 27.5164C18.2372 26.562 20.0038 26.7232 21.3446 27.8146C22.8067 29.0048 25.101 31.0027 28.509 34.2797C30.8949 32.1998 32.6796 30.8783 33.9352 30.0488C35.3798 29.0945 37.1464 29.2556 38.4872 30.3471C39.6533 31.2964 41.349 32.7595 43.7169 34.9757Z" clip-rule="evenodd"/><ellipse cx="35.231" cy="19.637" fill="#576684" rx="3.231" ry="3.182"/></svg>