<!-- Copyright © Ewsgit 2022. -->
<!-- Licensed under the MIT License - https://ewsgit.github.io/devdash/copyright -->

<svg width="48" height="48" viewBox="0 0 48 48" fill="none" xmlns="http://www.w3.org/2000/svg">
<path fill-rule="evenodd" clip-rule="evenodd" d="M14.106 3.79977C12.6532 3.90088 11.391 4.82761 10.8674 6.18655C7.81789 14.1018 6.4034 22.1141 5.82668 26.2373C5.60444 27.8262 6.73693 29.2389 8.33593 29.3706C10.7179 29.5669 14.4059 29.7769 18.6797 29.693C18.1804 33.1345 17.6409 37.464 17.1083 42.8433C16.9283 44.6617 19.0586 45.707 20.3483 44.4125C29.004 35.7253 37.0983 25.3652 40.6867 20.6143C41.5876 19.4215 40.8697 17.7978 39.3774 17.7116C37.4253 17.5988 34.5587 17.5107 30.6818 17.5782C31.5106 14.3622 32.3752 10.779 33.1084 7.25206C33.4696 5.51423 32.2165 3.88082 30.444 3.78751C26.6545 3.58802 20.1794 3.37712 14.106 3.79977Z" fill="#ACB4C9"/>
</svg>