<!-- Copyright © Ewsgit 2022. -->
<!-- Licensed under the MIT License - https://ewsgit.github.io/devdash/copyright -->

<svg xmlns="http://www.w3.org/2000/svg" width="48" height="48" fill="none" viewBox="0 0 48 48"><path fill="#ACB4C9" fill-rule="evenodd" d="M29.1459 6H18.8541C17.7178 6 16.679 6.64201 16.1708 7.65836L13.861 12.278C11.3812 12.4338 9.53367 12.6352 8.18407 12.8294C6.14641 13.1227 4.72549 14.7264 4.50653 16.7734C4.25877 19.0897 4 22.5694 4 27C4 31.0655 4.21787 33.8728 4.4452 35.6954C4.66877 37.4879 5.95292 38.827 7.73794 39.1039C10.4241 39.5207 15.386 40 24 40C32.614 40 37.5759 39.5207 40.2621 39.1039C42.0471 38.827 43.3312 37.4879 43.5548 35.6954C43.7821 33.8728 44 31.0655 44 27C44 22.5694 43.7412 19.0897 43.4935 16.7734C43.2745 14.7264 41.8536 13.1227 39.8159 12.8294C38.4663 12.6352 36.6188 12.4338 34.139 12.278L31.8292 7.65836C31.321 6.64201 30.2822 6 29.1459 6ZM24 34C28.4183 34 32 30.4183 32 26C32 21.5817 28.4183 18 24 18C19.5817 18 16 21.5817 16 26C16 30.4183 19.5817 34 24 34Z" clip-rule="evenodd"/><path fill="#576684" d="M43.1568 38.5174C43.6921 39.0628 44.0617 39.7823 43.7797 40.4927C43.5723 41.0149 43.1668 41.6925 42.3845 42.4749C41.6022 43.2572 40.9245 43.6627 40.4023 43.87C39.6919 44.152 38.9725 43.7825 38.427 43.2471C35.5827 40.4555 26.186 31.2261 21.5249 26.565C16.8637 21.9039 7.63427 12.5071 4.84269 9.6628C4.30735 9.11735 3.93779 8.39788 4.21979 7.68754C4.42713 7.16531 4.83262 6.48765 5.61495 5.70532C6.39728 4.92299 7.07493 4.5175 7.59717 4.31017C8.30751 4.02816 9.02698 4.39772 9.57243 4.93306C12.4167 7.72465 21.8135 16.9541 26.4746 21.6152C31.1357 26.2763 40.3652 35.6731 43.1568 38.5174Z"/></svg>