<!-- Copyright © Ewsgit 2022. -->
<!-- Licensed under the MIT License - https://ewsgit.github.io/devdash/copyright -->

<svg xmlns="http://www.w3.org/2000/svg" width="48" height="48" fill="none" viewBox="0 0 48 48"><path fill="#ACB4C9" d="M37.5164 10.5219C37.364 8.84405 36.3231 7.47155 34.6793 7.10232C32.3645 6.58241 28.1711 6 21 6C13.8289 6 9.63549 6.58241 7.32075 7.10232C5.6769 7.47155 4.63604 8.84404 4.48365 10.5219C4.25873 12.9983 4 17.481 4 25C4 32.519 4.25873 37.0017 4.48365 39.4781C4.63604 41.156 5.6769 42.5285 7.32075 42.8977C9.63549 43.4176 13.8289 44 21 44C28.1711 44 32.3645 43.4176 34.6793 42.8977C36.3231 42.5285 37.364 41.156 37.5164 39.4781C37.7413 37.0017 38 32.519 38 25C38 17.481 37.7413 12.9983 37.5164 10.5219Z"/><path fill="#576684" fill-rule="evenodd" d="M37.5844 38.6855C35.2702 36.4329 33.6172 34.9493 32.4797 33.9869C31.1618 32.8718 29.413 32.7149 28.0005 33.7073C26.9382 34.4537 25.4889 35.5858 23.6034 37.288C20.3892 34.083 18.2188 32.1188 16.8239 30.9386C15.5059 29.8235 13.7571 29.6665 12.3446 30.659C10.7106 31.8071 8.16059 33.8679 4.51591 37.5126C4.45812 37.5704 4.40074 37.6279 4.34375 37.6851C4.39036 38.3738 4.43808 38.9684 4.48437 39.4781C4.63677 41.156 5.67762 42.5285 7.32147 42.8977C9.63622 43.4177 13.8296 44.0001 21.0007 44.0001C28.1719 44.0001 32.3652 43.4177 34.68 42.8977C36.3238 42.5285 37.3647 41.156 37.5171 39.4781C37.5393 39.2338 37.5618 38.9699 37.5844 38.6855Z" clip-rule="evenodd"/><circle r="3" fill="#576684" transform="matrix(-1 0 0 1 13 15)"/><path fill="#576684" d="M35.3336 2.19776C37.6 4.37891 42.3521 9.2778 45.3953 14.7091C45.8554 15.5301 45.8554 16.5284 45.3953 17.3494C42.3521 22.7807 37.6 27.6796 35.3336 29.8608C34.6084 30.5587 33.4861 30.5586 32.7609 29.8607C30.4948 27.6795 25.7431 22.7808 22.6995 17.3497C22.2393 16.5285 22.2393 15.53 22.6995 14.7088C25.7431 9.27771 30.4948 4.37898 32.7609 2.19783C33.4861 1.49987 34.6084 1.49984 35.3336 2.19776Z"/><path fill="#576684" fill-rule="evenodd" d="M32.7609 2.19783C33.4861 1.49987 34.6084 1.49984 35.3336 2.19776C37.6 4.37891 42.3521 9.2778 45.3953 14.7091C45.8554 15.5301 45.8554 16.5284 45.3953 17.3494C42.3521 22.7807 37.6 27.6796 35.3336 29.8608C34.6084 30.5587 33.4861 30.5586 32.7609 29.8607C30.4948 27.6795 25.7431 22.7808 22.6995 17.3497C22.2393 16.5285 22.2393 15.53 22.6995 14.7088C25.7431 9.27771 30.4948 4.37898 32.7609 2.19783ZM26.603 16.0293C29.4456 21.2828 34.0473 24.6407 34.0473 24.6407C34.0473 24.6407 38.6508 21.2828 41.4924 16.0293C38.6508 10.7758 34.0473 7.41776 34.0473 7.41776C34.0473 7.41776 29.4456 10.7758 26.603 16.0293Z" clip-rule="evenodd"/><path fill="#ACB4C9" fill-rule="evenodd" d="M24.9443 16.7893C25.0392 16.2768 25.5842 15.983 26.0657 16.1822C28.1333 17.0376 32.9886 18.9987 34.047 18.9987C35.1053 18.9987 39.9599 17.0377 42.0272 16.1823C42.5088 15.983 43.0538 16.2768 43.1487 16.7893C43.2104 17.1222 43.0626 17.4568 42.772 17.6307C41.0474 18.6625 35.198 22.1106 34.0465 22.1106C32.895 22.1106 27.0456 18.6625 25.321 17.6307C25.0304 17.4568 24.8826 17.1222 24.9443 16.7893Z" clip-rule="evenodd"/></svg>