<!-- Copyright © Ewsgit 2022. -->
<!-- Licensed under the MIT License - https://ewsgit.github.io/devdash/copyright -->

<svg width="48" height="48" viewBox="0 0 48 48" fill="none" xmlns="http://www.w3.org/2000/svg">
<path d="M24 3C35.598 3 45 12.402 45 24C45 35.598 35.598 45 24 45C12.402 45 3 35.598 3 24C3 12.402 12.402 3 24 3Z" fill="#ACB4C9"/>
<path d="M24.6301 24.3593C24.8326 24.1623 24.8326 23.8377 24.6301 23.6407C23.6121 22.6504 20.6471 19.7545 17.6751 16.744C17.0034 16.0636 16.7435 15.0963 17.3123 14.3343C17.5451 14.0224 17.8548 13.669 18.2659 13.2897C18.8255 12.7734 19.3582 12.4281 19.8022 12.1985C20.5294 11.8226 21.3806 12.0143 22.0408 12.4909C27.2088 16.2209 30.7332 20.248 32.4377 22.4103C33.1874 23.3614 33.1874 24.6386 32.4377 25.5897C30.7332 27.752 27.2088 31.7791 22.0408 35.5091C21.3806 35.9857 20.5294 36.1774 19.8022 35.8015C19.3582 35.5719 18.8255 35.2266 18.2659 34.7103C17.8548 34.331 17.5451 33.9776 17.3123 33.6657C16.7435 32.9037 17.0034 31.9364 17.6751 31.2561C20.6471 28.2455 23.6121 25.3496 24.6301 24.3593Z" fill="#576684"/>
</svg>