<!-- Copyright © Ewsgit 2022. -->
<!-- Licensed under the MIT License - https://ewsgit.github.io/devdash/copyright -->

<svg width="48" height="48" viewBox="0 0 48 48" fill="none" xmlns="http://www.w3.org/2000/svg">
<path d="M4 13C4 7.83835 7.30326 4.0395 12.4648 4.00193C12.6396 4.00065 12.818 4 13 4C13.182 4 13.3604 4.00065 13.5352 4.00193C18.6967 4.0395 22 7.83835 22 13C22 18.1616 18.6967 21.9605 13.5352 21.9981C13.3604 21.9993 13.182 22 13 22C12.818 22 12.6396 21.9993 12.4648 21.9981C7.30326 21.9605 4 18.1616 4 13Z" fill="#ACB4C9"/>
<path d="M13 44C7.83835 44 4.0395 40.6967 4.00193 35.5352C4.00065 35.3604 4 35.182 4 35C4 34.818 4.00065 34.6396 4.00193 34.4648C4.0395 29.3033 7.83835 26 13 26C18.1616 26 21.9605 29.3033 21.9981 34.4648C21.9993 34.6396 22 34.818 22 35C22 35.182 21.9993 35.3604 21.9981 35.5352C21.9605 40.6967 18.1616 44 13 44Z" fill="#ACB4C9"/>
<path d="M35 4C40.1616 4 43.9605 7.30326 43.9981 12.4648C43.9993 12.6396 44 12.818 44 13C44 13.182 43.9993 13.3604 43.9981 13.5352C43.9605 18.6967 40.1616 22 35 22C29.8384 22 26.0395 18.6967 26.0019 13.5352C26.0007 13.3604 26 13.182 26 13C26 12.818 26.0007 12.6396 26.0019 12.4648C26.0395 7.30326 29.8384 4 35 4Z" fill="#ACB4C9"/>
<path d="M35 26C40.1616 26 43.9605 29.3033 43.9981 34.4648C43.9993 34.6396 44 34.818 44 35C44 35.182 43.9993 35.3604 43.9981 35.5352C43.9605 40.6967 40.1616 44 35 44C29.8384 44 26.0395 40.6967 26.0019 35.5352C26.0007 35.3604 26 35.182 26 35C26 34.818 26.0007 34.6396 26.0019 34.4648C26.0395 29.3033 29.8384 26 35 26Z" fill="#ACB4C9"/>
</svg>