<!-- Copyright © Ewsgit 2022. -->
<!-- Licensed under the MIT License - https://ewsgit.github.io/devdash/copyright -->

<svg width="48" height="48" viewBox="0 0 48 48" fill="none" xmlns="http://www.w3.org/2000/svg">
<path d="M18.2138 4.45332C16.4148 4.66683 15.0925 5.96321 14.8337 7.75619C14.4454 10.4466 14 15.4055 14 24C14 31.7675 14.2021 36.5654 14.4003 39.4029C14.5572 41.6503 16.1591 43.3718 18.4006 43.5976C20.4967 43.8087 23.6078 44 28 44C32.3922 44 35.5033 43.8087 37.5994 43.5976C39.8409 43.3718 41.4428 41.6503 41.5998 39.4029C41.7979 36.5654 42 31.7675 42 24C42 16.2325 41.7979 11.4346 41.5998 8.59707C41.4428 6.34973 39.8409 4.62821 37.5994 4.40244C35.5033 4.19131 32.3922 4 28 4C23.2569 4 20.1536 4.22309 18.2138 4.45332Z" fill="#ACB4C9"/>
<path d="M25.8963 33.3948C24.3871 34.6649 22.5228 33.8333 22.4128 31.8567C22.3519 30.7622 22.2987 29.3818 22.2668 27.652C13.7124 27.5655 7.05121 27.3642 3.93399 27.2559C2.84889 27.2182 2 26.3216 2 25.229V22.9846C2 21.9084 2.82418 21.0199 3.89222 20.9641C6.9914 20.8022 13.6738 20.4982 22.2664 20.3678C22.2982 18.629 22.3516 17.2423 22.4127 16.1437C22.5227 14.1667 24.3876 13.335 25.8971 14.6054C26.7966 15.3624 27.9055 16.3447 29.2406 17.6079C31.4786 19.7254 32.7633 21.3169 33.4894 22.3822C34.1703 23.381 34.1702 24.6181 33.4893 25.6169C32.7631 26.6821 31.4784 28.2735 29.2406 30.3912C27.9051 31.655 26.7959 32.6377 25.8963 33.3948Z" fill="#576684"/>
</svg>