<!-- Copyright © Ewsgit 2022. -->
<!-- Licensed under the MIT License - https://ewsgit.github.io/devdash/copyright -->

<svg xmlns="http://www.w3.org/2000/svg" width="48" height="48" fill="none" viewBox="0 0 48 48"><path fill="#ACB4C9" d="M23.1046 4.00884C23.9547 4.07977 24.954 4.21562 25.9173 4.47171C27.9818 5.02049 29.0572 7.07237 29.1868 9.21349C29.3499 11.91 29.2511 14.6491 29.1167 16.6728C32.3239 16.3851 35.5054 16.1575 38.3692 16.0203C41.3928 15.8755 43.9221 18.1655 43.9837 21.2054C44.0851 26.2098 43.7685 33.8293 41.478 40.0009C40.5787 42.424 38.1957 43.8538 35.6225 43.9379C23.58 44.3314 12 42.727 12 42.727V18.859C13.3444 18.6058 14.9027 18.3526 16.6047 18.1067C18.1271 13.8372 19.5668 8.83713 20.3347 6.06547C20.6845 4.80259 21.8041 3.90032 23.1046 4.00884Z"/><path fill="#576684" d="M4.14275 42.3001C4.16946 43.3563 4.76494 44.3156 5.78529 44.5899C6.59149 44.8066 7.68062 45 9 45C10.3194 45 11.4085 44.8066 12.2147 44.5899C13.2351 44.3156 13.8305 43.3563 13.8573 42.3001C13.9137 40.0694 14 35.862 14 31C14 26.138 13.9137 21.9306 13.8573 19.6999C13.8305 18.6437 13.2351 17.6844 12.2147 17.4101C11.4085 17.1934 10.3194 17 9 17C7.68062 17 6.5915 17.1934 5.78529 17.4101C4.76494 17.6844 4.16946 18.6437 4.14275 19.6999C4.08632 21.9306 4 26.138 4 31C4 35.862 4.08632 40.0694 4.14275 42.3001Z"/></svg>