<!-- Copyright © Ewsgit 2022. -->
<!-- Licensed under the MIT License - https://ewsgit.github.io/devdash/copyright -->

<svg width="48" height="48" viewBox="0 0 48 48" fill="none" xmlns="http://www.w3.org/2000/svg">
<path d="M12.3791 3.01822C14.2183 2.86857 16.004 3.64909 17.2117 5.05289L18.9036 7.01953C19.6634 7.90267 20.767 8.41012 21.9279 8.41012H35.081C38.2031 8.41012 40.8024 10.8195 40.9015 13.9595C40.962 15.8748 41 18.1482 41 20.8373C41 27.8951 40.7381 32.0902 40.4961 34.46C40.3181 36.2026 39.1643 37.562 37.456 37.8994C34.8832 38.4076 30.1385 39 22 39C13.8615 39 9.11681 38.4076 6.54402 37.8994C4.8357 37.562 3.68186 36.2026 3.50391 34.46C3.26192 32.0902 3 27.8951 3 20.8373C3 13.7794 3.26192 9.58428 3.50391 7.2145C3.68186 5.47188 4.83692 4.11223 6.54525 3.77488C7.86435 3.5144 9.75411 3.2318 12.3791 3.01822Z" fill="#ACB4C9"/>
<path d="M34 23C40.0751 23 45 27.9249 45 34C45 40.0751 40.0751 45 34 45C27.9249 45 23 40.0751 23 34C23 27.9249 27.9249 23 34 23Z" fill="#576684"/>
<path d="M32.0037 28.6785C31.9643 28.019 32.2372 27.3498 32.9087 27.1513C33.2044 27.0638 33.5682 27 34 27C34.4318 27 34.7956 27.0638 35.0913 27.1513C35.7628 27.3498 36.0357 28.019 35.9963 28.6785C35.9004 30.2852 35.6998 33.3616 35.4838 34.9816C35.4228 35.4395 35.1626 35.8562 34.6797 35.9441C34.4971 35.9774 34.2727 36 34 36C33.7273 36 33.5029 35.9774 33.3203 35.9441C32.8374 35.8562 32.5772 35.4395 32.5162 34.9816C32.3002 33.3616 32.0996 30.2852 32.0037 28.6785Z" fill="#ACB4C9"/>
<path d="M36 39C36 40.1046 35.1046 41 34 41C32.8954 41 32 40.1046 32 39C32 37.8954 32.8954 37 34 37C35.1046 37 36 37.8954 36 39Z" fill="#ACB4C9"/>
</svg>