<!-- Copyright © Ewsgit 2022. -->
<!-- Licensed under the MIT License - https://ewsgit.github.io/devdash/copyright -->

<svg width="48" height="48" viewBox="0 0 48 48" fill="none" xmlns="http://www.w3.org/2000/svg">
<path d="M4.32017 25.4337C3.89328 24.5266 3.89328 23.4734 4.32017 22.5663C7.81648 15.1364 15.3145 10 24 10C32.6855 10 40.1835 15.1364 43.6798 22.5663C44.1067 23.4734 44.1067 24.5266 43.6798 25.4337C40.1835 32.8636 32.6855 38 24 38C15.3145 38 7.81648 32.8636 4.32017 25.4337Z" fill="#ACB4C9"/>
<path d="M42.2661 37.3968C42.8119 37.9543 43.1864 38.6835 42.9028 39.4104C42.692 39.9505 42.2755 40.6533 41.4644 41.4644C40.6533 42.2755 39.9505 42.692 39.4104 42.9028C38.6835 43.1864 37.9543 42.8119 37.3968 42.2661C34.7016 39.627 26.2294 31.3232 21.4531 26.5469C16.6768 21.7706 8.37295 13.2984 5.73391 10.6032C5.18809 10.0457 4.81365 9.31646 5.09722 8.58965C5.30797 8.04946 5.72447 7.3467 6.53558 6.53558C7.3467 5.72447 8.04946 5.30797 8.58965 5.09722C9.31646 4.81365 10.0457 5.18809 10.6032 5.73392C13.2984 8.37296 21.7706 16.6768 26.5469 21.4531C31.3232 26.2294 39.627 34.7016 42.2661 37.3968Z" fill="#576684"/>
</svg>