<!-- Copyright © Ewsgit 2022. -->
<!-- Licensed under the MIT License - https://ewsgit.github.io/devdash/copyright -->

<svg width="48" height="48" viewBox="0 0 48 48" fill="none" xmlns="http://www.w3.org/2000/svg">
<path fill-rule="evenodd" clip-rule="evenodd" d="M22.1681 20.0004C20.625 16.4684 17.1008 14 13 14C7.47715 14 3 18.4772 3 24C3 29.5228 7.47715 34 13 34C17.1008 34 20.625 31.5316 22.1681 27.9996C22.1891 27.9999 22.2102 28 22.2313 28H31.5C32.0252 28 32.5303 27.999 33.016 27.997C33.0058 28.3 33 28.6335 33 29C33 29.8379 33.0302 30.503 33.0741 31.027C33.1704 32.1787 34.0548 32.9228 35.2097 32.9684C35.6868 32.9873 36.2766 33 37 33C37.7234 33 38.3132 32.9873 38.7903 32.9684C39.9452 32.9228 40.8296 32.1787 40.9259 31.027C40.9698 30.503 41 29.8379 41 29C41 28.5684 40.992 28.1826 40.9782 27.8383C41.3733 27.8212 41.7268 27.8037 42.0424 27.7863C43.5363 27.704 44.8019 26.8587 44.941 25.369C44.9775 24.9774 45 24.5237 45 24C45 23.4763 44.9775 23.0226 44.941 22.631C44.8019 21.1413 43.5363 20.296 42.0424 20.2137C40.1472 20.1094 36.8781 20 31.5 20H22.2313C22.2102 20 22.1891 20.0001 22.1681 20.0004ZM13 20C15.2091 20 17 21.7909 17 24C17 26.2091 15.2091 28 13 28C10.7909 28 9 26.2091 9 24C9 21.7909 10.7909 20 13 20Z" fill="#ACB4C9"/>
</svg>