<!-- Copyright © Ewsgit 2022. -->
<!-- Licensed under the MIT License - https://ewsgit.github.io/devdash/copyright -->

<svg width="48" height="48" viewBox="0 0 48 48" fill="none" xmlns="http://www.w3.org/2000/svg">
<circle cx="24" cy="24" r="21" fill="#ACB4C9"/>
<path d="M18 44.1305V39.4434C18 37.851 17.0262 36.4501 15.6988 35.5705C11.6608 32.8948 9 28.3225 9 23.1317C9 17.7337 11.8774 13.0047 16.1886 10.3817C17.3844 9.65412 18.7799 10.6217 18.7777 12.0215C18.7727 15.2183 18.8172 18.4472 18.9614 20.9565C18.9843 21.3564 19.1298 21.7381 19.4023 22.0316C20.0597 22.7397 21.4827 24.0944 23.3781 24.8888C23.7755 25.0553 24.2236 25.0553 24.621 24.8888C26.468 24.1148 27.8663 22.8087 28.5449 22.0873C28.8509 21.762 28.9996 21.327 28.9996 20.8804V11.873C28.9996 10.494 30.3676 9.53812 31.5595 10.2318C36.0102 12.8219 39 17.6292 39 23.1317C39 28.3225 36.3392 32.8948 32.3012 35.5705C30.9738 36.4501 30 37.851 30 39.4434V44.1305C28.0989 44.6963 26.0849 45.0002 24 45.0002C21.9151 45.0002 19.9011 44.6963 18 44.1305Z" fill="#576684"/>
</svg>