<!-- Copyright © Ewsgit 2022. -->
<!-- Licensed under the MIT License - https://ewsgit.github.io/devdash/copyright -->

<svg width="48" height="48" viewBox="0 0 48 48" fill="none" xmlns="http://www.w3.org/2000/svg">
<path fill-rule="evenodd" clip-rule="evenodd" d="M25.8012 37.8856C26.3858 37.7965 26.7429 37.3127 26.7799 36.7225C26.8687 35.302 27 31.8716 27 24C27 16.1284 26.8687 12.698 26.7799 11.2775C26.7429 10.6873 26.3858 10.2035 25.8012 10.1144C25.3865 10.0512 24.8029 10 24 10C23.1971 10 22.6135 10.0512 22.1988 10.1144C21.6142 10.2035 21.2571 10.6873 21.2201 11.2775C21.1313 12.698 21 16.1284 21 24C21 31.8716 21.1313 35.302 21.2201 36.7225C21.2571 37.3127 21.6142 37.7965 22.1988 37.8856C22.6135 37.9488 23.1971 38 24 38C24.8029 38 25.3865 37.9488 25.8012 37.8856ZM34.6846 32.9373C35.3287 32.8809 35.7672 32.3989 35.8162 31.7543C35.9006 30.6448 36 28.4033 36 24C36 19.5967 35.9006 17.3552 35.8162 16.2457C35.7672 15.6011 35.3287 15.1191 34.6846 15.0627C34.2793 15.0272 33.7304 15 33 15C32.2696 15 31.7207 15.0272 31.3154 15.0627C30.6713 15.1191 30.2328 15.6011 30.1838 16.2457C30.0994 17.3552 30 19.5968 30 24C30 28.4032 30.0994 30.6448 30.1838 31.7543C30.2328 32.3989 30.6713 32.8809 31.3154 32.9373C31.7207 32.9728 32.2696 33 33 33C33.7304 33 34.2793 32.9728 34.6846 32.9373ZM12.1838 31.7543C12.2328 32.3989 12.6713 32.8809 13.3154 32.9373C13.7207 32.9728 14.2696 33 15 33C15.7304 33 16.2793 32.9728 16.6846 32.9373C17.3287 32.8809 17.7672 32.3989 17.8162 31.7543C17.9006 30.6448 18 28.4032 18 24C18 19.5968 17.9006 17.3552 17.8162 16.2457C17.7672 15.6011 17.3287 15.1191 16.6846 15.0627C16.2793 15.0272 15.7304 15 15 15C14.2696 15 13.7207 15.0272 13.3154 15.0627C12.6713 15.1191 12.2328 15.6011 12.1838 16.2457C12.0994 17.3552 12 19.5967 12 24C12 28.4033 12.0994 30.6448 12.1838 31.7543ZM43.7793 27.9683C44.3648 27.9433 44.8132 27.579 44.8782 26.9966C44.9427 26.4182 45 25.4861 45 24C45 22.5139 44.9427 21.5818 44.8782 21.0034C44.8132 20.421 44.3648 20.0567 43.7793 20.0317C43.3661 20.0141 42.7889 20 42 20C41.2111 20 40.6339 20.0141 40.2207 20.0317C39.6352 20.0567 39.1868 20.421 39.1218 21.0034C39.0573 21.5818 39 22.5139 39 24C39 25.4861 39.0573 26.4182 39.1218 26.9966C39.1868 27.579 39.6352 27.9433 40.2207 27.9683C40.6339 27.9859 41.2111 28 42 28C42.7889 28 43.3661 27.9859 43.7793 27.9683ZM3.12184 26.9966C3.18681 27.579 3.63523 27.9433 4.22068 27.9683C4.63392 27.9859 5.21112 28 6 28C6.78888 28 7.36608 27.9859 7.77932 27.9683C8.36478 27.9433 8.81319 27.579 8.87816 26.9966C8.94268 26.4182 9 25.4861 9 24C9 22.5139 8.94268 21.5818 8.87816 21.0034C8.81319 20.421 8.36478 20.0567 7.77932 20.0317C7.36608 20.0141 6.78888 20 6 20C5.21112 20 4.63392 20.0141 4.22068 20.0317C3.63523 20.0567 3.18681 20.421 3.12184 21.0034C3.05732 21.5818 3 22.5139 3 24C3 25.4861 3.05732 26.4182 3.12184 26.9966Z" fill="#ACB4C9"/>
<path d="M4.79093 2.18249C3.40492 2.3155 2.31553 3.40488 2.1825 4.79089C1.79128 8.86709 2.11876 12.6323 2.33305 14.4225C2.41565 15.1126 2.85227 15.7127 3.5306 15.8642C4.1288 15.9977 4.92932 16.0776 5.78735 15.8866C6.46577 15.7355 6.89942 15.1127 6.98399 14.4228C7.24448 12.2977 7.3295 9.8356 7.35725 8.45479C7.3693 7.85501 7.85511 7.3692 8.45489 7.35714C9.83568 7.3294 12.2978 7.24439 14.4228 6.98394C15.1127 6.89939 15.7355 6.46574 15.8866 5.78729C16.0776 4.92928 15.9977 4.12877 15.8642 3.53058C15.7127 2.85223 15.1126 2.41561 14.4225 2.33302C12.6322 2.11875 8.86713 1.7913 4.79093 2.18249Z" fill="#576684"/>
<path d="M43.2091 2.18249C44.5951 2.3155 45.6845 3.40488 45.8175 4.79089C46.2087 8.86709 45.8812 12.6323 45.667 14.4225C45.5844 15.1126 45.1477 15.7127 44.4694 15.8642C43.8712 15.9977 43.0707 16.0776 42.2127 15.8866C41.5342 15.7355 41.1006 15.1127 41.016 14.4228C40.7555 12.2977 40.6705 9.8356 40.6428 8.45479C40.6307 7.85501 40.1449 7.3692 39.5451 7.35714C38.1643 7.3294 35.7022 7.24439 33.5772 6.98394C32.8873 6.89939 32.2645 6.46574 32.1134 5.78729C31.9224 4.92928 32.0023 4.12877 32.1358 3.53058C32.2873 2.85223 32.8874 2.41561 33.5775 2.33302C35.3678 2.11875 39.1329 1.7913 43.2091 2.18249Z" fill="#576684"/>
<path d="M45.8175 43.2091C45.6845 44.5951 44.5951 45.6845 43.2091 45.8175C39.1329 46.2087 35.3678 45.8813 33.5775 45.667C32.8874 45.5844 32.2873 45.1478 32.1358 44.4694C32.0023 43.8712 31.9224 43.0707 32.1134 42.2127C32.2645 41.5343 32.8873 41.1006 33.5772 41.0161C35.7022 40.7556 38.1643 40.6706 39.5451 40.6429C40.1449 40.6308 40.6307 40.145 40.6428 39.5452C40.6705 38.1644 40.7555 35.7023 41.016 33.5772C41.1006 32.8873 41.5342 32.2645 42.2127 32.1134C43.0707 31.9224 43.8712 32.0023 44.4694 32.1358C45.1477 32.2873 45.5844 32.8874 45.667 33.5775C45.8812 35.3677 46.2087 39.1329 45.8175 43.2091Z" fill="#576684"/>
<path d="M4.79093 45.8175C3.40492 45.6845 2.31553 44.5951 2.1825 43.2091C1.79128 39.1329 2.11876 35.3677 2.33305 33.5775C2.41565 32.8874 2.85226 32.2873 3.5306 32.1358C4.12879 32.0023 4.92932 31.9224 5.78735 32.1134C6.46577 32.2645 6.89942 32.8873 6.98398 33.5772C7.24448 35.7023 7.3295 38.1644 7.35725 39.5452C7.3693 40.145 7.85511 40.6308 8.45489 40.6429C9.83568 40.6706 12.2978 40.7556 14.4228 41.0161C15.1127 41.1006 15.7355 41.5343 15.8866 42.2127C16.0776 43.0707 15.9977 43.8712 15.8642 44.4694C15.7127 45.1478 15.1126 45.5844 14.4225 45.667C12.6322 45.8813 8.86713 46.2087 4.79093 45.8175Z" fill="#576684"/>
</svg>