<!-- Copyright © Ewsgit 2022. -->
<!-- Licensed under the MIT License - https://ewsgit.github.io/devdash/copyright -->

<svg width="48" height="48" viewBox="0 0 48 48" fill="none" xmlns="http://www.w3.org/2000/svg">
<path d="M44 24C44 35.0457 35.0457 44 24 44C12.9543 44 4 35.0457 4 24C4 12.9543 12.9543 4 24 4C35.0457 4 44 12.9543 44 24Z" fill="#ACB4C9"/>
<path fill-rule="evenodd" clip-rule="evenodd" d="M23.5951 11C25.1276 11 26.3698 12.2494 26.3698 13.7907V22.9686C26.3698 23.2316 26.4741 23.4839 26.6602 23.6711L33.1873 30.236C34.2709 31.3258 34.2709 33.0928 33.1873 34.1826C32.1037 35.2725 30.3469 35.2725 29.2634 34.1826L21.0818 27.3814C20.337 26.7622 19.9374 25.8254 20.008 24.8635L20.8205 13.7907C20.8205 12.2494 22.0627 11 23.5951 11Z" fill="#576684"/>
</svg>