<!-- Copyright © Ewsgit 2022. -->
<!-- Licensed under the MIT License - https://ewsgit.github.io/devdash/copyright -->

<svg width="48" height="48" viewBox="0 0 48 48" fill="none" xmlns="http://www.w3.org/2000/svg">
<path d="M7.68009 5.02983C5.92293 5.34314 4.71393 6.71799 4.51915 8.499C4.26763 10.7988 4 14.734 4 21.0672C4 27.4004 4.26763 31.3356 4.51915 33.6354C4.71393 35.4164 5.92293 36.7913 7.68009 37.1046C9.24171 37.383 11.5882 37.6877 15 37.8928V41.9883C15 43.672 16.9399 44.608 18.2494 43.5562L25.0031 38.1319C33.0623 38.0911 37.7521 37.5624 40.3199 37.1046C42.0771 36.7913 43.2861 35.4164 43.4809 33.6354C43.7324 31.3356 44 27.4004 44 21.0672C44 14.734 43.7324 10.7988 43.4809 8.49899C43.2861 6.71799 42.0771 5.34313 40.3199 5.02982C37.6474 4.5533 32.6762 4 24 4C15.3238 4 10.3526 4.5533 7.68009 5.02983Z" fill="#ACB4C9"/>
<path d="M20.1271 20.4941C19.8322 20.7733 19.6904 21.1515 19.7017 21.6285H19.7004V23.8451C19.7004 24.716 20.3857 25.4221 21.2311 25.4221H22.6624C23.5078 25.4221 24.1932 24.716 24.1932 23.8451V23.3573L24.4076 23.2543C25.3677 22.7867 26.2191 22.3014 26.9619 21.7982C27.7046 21.295 28.3068 20.7475 28.7685 20.1559C29.2494 19.562 29.5876 18.9042 29.7831 18.1823C29.9958 17.4385 30.0521 16.5923 29.9519 15.6436C29.7474 13.7066 28.99 12.2316 27.6795 11.2185C26.3882 10.2032 24.6106 9.82241 22.3468 10.076C21.5602 10.1642 20.8299 10.326 20.156 10.5615C19.4799 10.7772 18.8985 11.0623 18.4119 11.4169C17.9252 11.7714 17.5513 12.1832 17.2902 12.6524C17.0483 13.1195 16.9577 13.6396 17.0182 14.2128C17.0647 14.654 17.2092 15.0439 17.4355 15.3731C17.9115 16.0653 18.8621 15.8383 19.5485 15.3697C19.7204 15.2523 19.8961 15.1425 20.0755 15.0402C20.641 14.6969 21.3171 14.4811 22.1037 14.393C22.967 14.2963 23.6039 14.4449 24.0143 14.8389C24.4439 15.2307 24.6858 15.6836 24.7401 16.1975C24.8006 16.7707 24.679 17.2743 24.3754 17.7082C24.0697 18.1225 23.6406 18.4705 23.088 18.7524L21.4302 19.5981C20.8968 19.8779 20.4624 20.1765 20.1271 20.4941Z" fill="#576684"/>
<path d="M19.1163 30.1967C19.1163 29.3617 19.3575 28.6857 19.84 28.1688C20.3417 27.6519 21.0268 27.3934 21.8952 27.3934C22.7636 27.3934 23.439 27.6519 23.9215 28.1688C24.4232 28.6857 24.6741 29.3617 24.6741 30.1967C24.6741 31.0317 24.4232 31.7077 23.9215 32.2246C23.439 32.7415 22.7636 33 21.8952 33C21.0268 33 20.3417 32.7415 19.84 32.2246C19.3575 31.7077 19.1163 31.0317 19.1163 30.1967Z" fill="#576684"/>
</svg>