<!-- Copyright © Ewsgit 2022. -->
<!-- Licensed under the MIT License - https://ewsgit.github.io/devdash/copyright -->

<svg width="48" height="48" viewBox="0 0 48 48" fill="none" xmlns="http://www.w3.org/2000/svg">
<path d="M29.7893 39.9114C15.7165 44.0556 7.07015 44.9202 7.07015 44.9202C7.07015 44.9202 5.57386 45.419 4.07741 43.9226C2.58096 42.4262 3.07983 40.9299 3.07983 40.9299C3.07983 40.9299 3.94446 32.2836 8.08859 18.2107C8.67802 16.2091 10.3024 14.69 12.3592 14.3382C15.0918 13.8709 19.405 13.2798 25 13L28.0194 12L36 19.9807L35 23C34.7203 28.595 34.1291 32.9082 33.6618 35.6408C33.31 37.6976 31.7909 39.322 29.7893 39.9114Z" fill="#ACB4C9"/>
<path d="M25 13C25.3637 8.63562 26.781 4.22716 27.5351 2.15177C27.812 1.38957 28.5395 0.90745 29.3433 1.01494C31.6668 1.32565 36.64 2.49893 41.0705 6.92941C45.501 11.3599 46.6743 16.3332 46.9851 18.6567C47.0926 19.4605 46.6104 20.188 45.8482 20.465C43.7728 21.219 39.3644 22.6363 35 23C35 23 34.0397 19.9868 31.0265 16.9736C28.0132 13.9603 25 13 25 13Z" fill="#576684"/>
<path d="M3.36328 42.9705C5.81515 40.2627 11.3174 34.1981 16.0299 29.0908C15.9444 28.7653 15.8988 28.4236 15.8988 28.0713C15.8988 25.8621 17.6897 24.0713 19.8988 24.0713C22.108 24.0713 23.8988 25.8621 23.8988 28.0713C23.8988 30.2804 22.108 32.0713 19.8988 32.0713C19.5465 32.0713 19.2048 32.0257 18.8794 31.9402C13.7659 36.6583 7.69304 42.168 4.98997 44.6156C4.69456 44.4548 4.38604 44.2311 4.07752 43.9226C3.75516 43.6003 3.52539 43.2779 3.36328 42.9705Z" fill="#576684"/>
</svg>