<!-- Copyright © Ewsgit 2022. -->
<!-- Licensed under the MIT License - https://ewsgit.github.io/devdash/copyright -->

<svg xmlns="http://www.w3.org/2000/svg" width="48" height="48" fill="none" viewBox="0 0 48 48"><path fill="#576684" d="M38.4344 3.14445C39.0845 3.25842 39.0533 4.24003 38.482 4.57706C35.4738 6.35197 34.4431 10.283 36.1799 13.3572C37.9167 16.4314 41.7633 17.4847 44.7716 15.7098C45.3428 15.3728 46.1903 15.836 45.9618 16.4683C45.1983 18.5814 43.7353 20.4445 41.6772 21.6588C36.9977 24.4198 31.0141 22.7813 28.3124 17.9992C25.6107 13.217 27.214 7.10215 31.8935 4.34119C33.9516 3.12689 36.2619 2.76359 38.4344 3.14445Z"/><path fill="#ACB4C9" d="M33.8924 22.1726C33.9519 22.1749 34.0111 22.1773 34.07 22.1796C40.3933 22.4352 45 26.6715 45 33C45 39.3285 40.3933 43.5648 34.07 43.8204C31.4114 43.9278 28.0996 44 24 44C19.9004 44 16.5886 43.9278 13.93 43.8204C7.60674 43.5648 3 39.3285 3 33C3 28.0633 5.80331 24.3997 10.038 22.9057C10.4812 16.5902 14.7744 12.0487 21.2827 12.0025C21.517 12.0009 21.7561 12 22 12C22.244 12 22.483 12.0009 22.7173 12.0025C28.9709 12.0469 33.1794 16.2416 33.8924 22.1726Z"/></svg>