<!-- Copyright © Ewsgit 2022. -->
<!-- Licensed under the MIT License - https://ewsgit.github.io/devdash/copyright -->

<svg width="48" height="48" viewBox="0 0 48 48" fill="none" xmlns="http://www.w3.org/2000/svg">
<path d="M3.47789 45.8121C8.65667 42.209 17.5472 35.8393 23 30.9059L17.0941 25C12.1607 30.4528 5.79097 39.3433 2.18792 44.5221C1.57206 45.4073 2.59269 46.4279 3.47789 45.8121Z" fill="#ACB4C9"/>
<path d="M45.3749 20.8858C45.7674 20.4155 45.9997 19.8371 46 19.2245C46.0009 17.2909 45.4161 12.5848 40.4156 7.58438C35.4152 2.58395 30.7091 1.99909 28.7755 2C28.1629 2.00029 27.5845 2.2326 27.1142 2.6251C21.4992 7.31042 19.3584 17.1428 18.9014 19.5893C18.8459 19.8868 18.5485 20.081 18.2526 20.018C16.6365 19.6741 11.7679 18.9399 7.73905 21.4532C7.10137 21.851 6.84019 22.6212 7.09886 23.3269C7.77829 25.1804 9.62771 29.0681 14.2798 33.7202C18.9319 38.3723 22.8196 40.2217 24.6732 40.9011C25.3788 41.1598 26.149 40.8986 26.5468 40.2609C29.0601 36.2321 28.3259 31.3635 27.982 29.7475C27.919 29.4515 28.1132 29.1542 28.4107 29.0986C30.8572 28.6416 40.6897 26.5009 45.3749 20.8858Z" fill="#576684"/>
</svg>