<!-- Copyright © Ewsgit 2022. -->
<!-- Licensed under the MIT License - https://ewsgit.github.io/devdash/copyright -->

<svg width="48" height="48" viewBox="0 0 48 48" fill="none" xmlns="http://www.w3.org/2000/svg">
<path d="M18 8C26.8366 8 34 15.1634 34 24C34 32.8366 26.8366 40 18 40C9.16344 40 2 32.8366 2 24C2 15.1634 9.16344 8 18 8Z" fill="#ACB4C9"/>
<path d="M37.8963 33.3948C36.3871 34.6649 34.5228 33.8333 34.4128 31.8567C34.3519 30.7622 34.2987 29.3818 34.2668 27.652C25.7124 27.5655 19.0512 27.3642 15.934 27.2559C14.8489 27.2182 14 26.3216 14 25.229V22.9846C14 21.9084 14.8242 21.0199 15.8922 20.9641C18.9914 20.8022 25.6738 20.4982 34.2664 20.3678C34.2982 18.629 34.3516 17.2423 34.4127 16.1437C34.5227 14.1667 36.3876 13.335 37.8971 14.6054C38.7966 15.3624 39.9055 16.3447 41.2406 17.6079C43.4786 19.7254 44.7633 21.3169 45.4894 22.3822C46.1703 23.381 46.1702 24.6181 45.4893 25.6169C44.7631 26.6821 43.4784 28.2735 41.2406 30.3912C39.9051 31.655 38.7959 32.6377 37.8963 33.3948Z" fill="#576684"/>
</svg>