<!-- Copyright © Ewsgit 2022. -->
<!-- Licensed under the MIT License - https://ewsgit.github.io/devdash/copyright -->

<svg width="48" height="48" viewBox="0 0 48 48" fill="none" xmlns="http://www.w3.org/2000/svg">
<path d="M40.8738 21.3087C40.7462 20.1399 39.8344 19.3912 38.6614 19.3104C36.6085 19.1689 32.3988 19 24 19C15.6012 19 11.3915 19.1689 9.33856 19.3104C8.16561 19.3912 7.25377 20.1399 7.12623 21.3087C7.05386 21.9718 7 22.8513 7 24C7 25.1487 7.05386 26.0282 7.12623 26.6913C7.25377 27.8601 8.16561 28.6088 9.33856 28.6896C11.3915 28.8311 15.6012 29 24 29C32.3988 29 36.6085 28.8311 38.6614 28.6896C39.8344 28.6088 40.7462 27.8601 40.8738 26.6913C40.9461 26.0282 41 25.1487 41 24C41 22.8513 40.9461 21.9718 40.8738 21.3087Z" fill="#ACB4C9"/>
<path d="M35.8738 35.3087C35.7462 34.1399 34.8344 33.3912 33.6614 33.3104C31.6085 33.1689 27.3988 33 19 33C10.6012 33 6.39146 33.1689 4.33856 33.3104C3.16561 33.3912 2.25377 34.1399 2.12623 35.3087C2.05386 35.9718 2 36.8513 2 38C2 39.1487 2.05386 40.0282 2.12623 40.6913C2.25377 41.8601 3.16561 42.6088 4.33856 42.6896C6.39146 42.8311 10.6012 43 19 43C27.3988 43 31.6085 42.8311 33.6614 42.6896C34.8344 42.6088 35.7462 41.8601 35.8738 40.6913C35.9461 40.0282 36 39.1487 36 38C36 36.8513 35.9461 35.9718 35.8738 35.3087Z" fill="#ACB4C9"/>
<path d="M12.1262 7.30865C12.2538 6.13986 13.1656 5.39122 14.3386 5.31039C16.3915 5.16892 20.6012 5 29 5C37.3988 5 41.6085 5.16892 43.6614 5.31039C44.8344 5.39122 45.7462 6.13986 45.8738 7.30865C45.9461 7.97181 46 8.85125 46 10C46 11.1487 45.9461 12.0282 45.8738 12.6913C45.7462 13.8601 44.8344 14.6088 43.6614 14.6896C41.6085 14.8311 37.3988 15 29 15C20.6012 15 16.3915 14.8311 14.3386 14.6896C13.1656 14.6088 12.2538 13.8601 12.1262 12.6913C12.0539 12.0282 12 11.1487 12 10C12 8.85125 12.0539 7.97181 12.1262 7.30865Z" fill="#ACB4C9"/>
</svg>