<!-- Copyright © Ewsgit 2022. -->
<!-- Licensed under the MIT License - https://ewsgit.github.io/devdash/copyright -->

<svg width="48" height="48" viewBox="0 0 48 48" fill="none" xmlns="http://www.w3.org/2000/svg">
<path d="M4.6257 8.11672C4.79226 6.15517 6.04554 4.54084 7.9817 4.158C10.7431 3.612 15.6913 3 24 3C32.3087 3 37.2569 3.612 40.0183 4.15801C41.9545 4.54085 43.2077 6.15516 43.3743 8.11672C43.65 11.3631 44 17.205 44 25.9386C44 34.0134 43.8439 38.9828 43.6581 42.0378C43.4852 44.8818 41.3091 45.7902 38.8919 44.2714L27.1982 36.9241C25.2438 35.6961 22.7562 35.6961 20.8018 36.9241L9.10809 44.2714C6.69092 45.7902 4.51482 44.8818 4.34186 42.0378C4.15608 38.9828 4 34.0134 4 25.9386C4 17.205 4.35004 11.3631 4.6257 8.11672Z" fill="#ACB4C9"/>
</svg>