<!-- Copyright © Ewsgit 2022. -->
<!-- Licensed under the MIT License - https://ewsgit.github.io/devdash/copyright -->

<svg width="48" height="48" viewBox="0 0 48 48" fill="none" xmlns="http://www.w3.org/2000/svg">
<path d="M26.1416 4.06042C26.1416 4.06042 28.4539 4.95 32.7039 9.225C36.9383 13.4843 37.8263 15.8143 37.8328 15.8313C37.936 17.8609 38 20.2345 38 23C38 31.2512 37.43 36.014 36.9501 38.5616C36.6419 40.1983 35.3722 41.3201 33.7258 41.4988C31.5032 41.74 27.5813 42 21 42C14.4187 42 10.4968 41.74 8.27425 41.4988C6.62776 41.3201 5.35814 40.1983 5.04986 38.5616C4.56998 36.014 4 31.2512 4 23C4 14.7488 4.56998 9.98604 5.04986 7.43837C5.35814 5.8017 6.62775 4.67991 8.27424 4.5012C10.4968 4.25997 14.4187 4 21 4C22.9358 4 24.6416 4.02253 26.1416 4.06042Z" fill="#ACB4C9"/>
<path d="M37.8332 15.8315C35.1136 16.5195 31.9027 16.5652 29.1293 15.713C27.9568 15.3527 27.0426 14.4339 26.6469 13.2667C25.661 10.3591 25.4175 6.80002 26.142 4.06055C26.142 4.06055 28.4543 4.95013 32.7043 9.22513C36.9543 13.5001 37.8332 15.8315 37.8332 15.8315Z" fill="#576684"/>
<path d="M34 23C40.0751 23 45 27.9249 45 34C45 40.0751 40.0751 45 34 45C27.9249 45 23 40.0751 23 34C23 27.9249 27.9249 23 34 23Z" fill="#576684"/>
<path d="M32.0037 28.6785C31.9643 28.019 32.2372 27.3498 32.9087 27.1513C33.2044 27.0638 33.5682 27 34 27C34.4318 27 34.7956 27.0638 35.0913 27.1513C35.7628 27.3498 36.0357 28.019 35.9963 28.6785C35.9004 30.2852 35.6998 33.3616 35.4838 34.9816C35.4228 35.4395 35.1626 35.8562 34.6797 35.9441C34.4971 35.9774 34.2727 36 34 36C33.7273 36 33.5029 35.9774 33.3203 35.9441C32.8374 35.8562 32.5772 35.4395 32.5162 34.9816C32.3002 33.3616 32.0996 30.2852 32.0037 28.6785Z" fill="#ACB4C9"/>
<path d="M36 39C36 40.1046 35.1046 41 34 41C32.8954 41 32 40.1046 32 39C32 37.8954 32.8954 37 34 37C35.1046 37 36 37.8954 36 39Z" fill="#ACB4C9"/>
</svg>