<!-- Copyright © Ewsgit 2022. -->
<!-- Licensed under the MIT License - https://ewsgit.github.io/devdash/copyright -->

<svg width="48" height="48" viewBox="0 0 48 48" fill="none" xmlns="http://www.w3.org/2000/svg">
<path d="M44.5691 37.7102C44.3833 39.4897 43.1664 40.8524 41.4011 41.1435C38.9335 41.5504 34.5082 42 27 42C19.4918 42 15.0665 41.5504 12.5989 41.1435C10.8336 40.8524 9.61668 39.4897 9.43093 37.7102C9.21586 35.6498 9 32.2693 9 27C9 21.7307 9.21586 18.3502 9.43093 16.2898C9.61668 14.5103 10.8336 13.1476 12.5989 12.8565C15.0665 12.4496 19.4918 12 27 12C34.5082 12 38.9335 12.4496 41.4011 12.8565C43.1664 13.1476 44.3833 14.5103 44.5691 16.2898C44.7841 18.3502 45 21.7307 45 27C45 32.2693 44.7841 35.6498 44.5691 37.7102Z" fill="#576684"/>
<path d="M3.43093 31.7102C3.61668 33.4897 4.83361 34.8524 6.5989 35.1435C9.0665 35.5504 13.4918 36 21 36C28.5082 36 32.9335 35.5504 35.4011 35.1435C37.1664 34.8524 38.3833 33.4897 38.5691 31.7102C38.7841 29.6498 39 26.2693 39 21C39 15.7307 38.7841 12.3502 38.5691 10.2898C38.3833 8.51034 37.1664 7.14759 35.4011 6.85649C32.9335 6.44959 28.5082 6 21 6C13.4918 6 9.06651 6.44959 6.59891 6.85649C4.83361 7.14759 3.61668 8.51034 3.43093 10.2898C3.21586 12.3502 3 15.7307 3 21C3 26.2693 3.21586 29.6498 3.43093 31.7102Z" fill="#ACB4C9"/>
</svg>