<!-- Copyright © Ewsgit 2022. -->
<!-- Licensed under the MIT License - https://ewsgit.github.io/devdash/copyright -->

<svg width="48" height="48" viewBox="0 0 48 48" fill="none" xmlns="http://www.w3.org/2000/svg">
<path d="M44 24C44 35.0457 35.0457 44 24 44C12.9543 44 4 35.0457 4 24C4 12.9543 12.9543 4 24 4C35.0457 4 44 12.9543 44 24Z" fill="#576684"/>
<path d="M15.9791 15.0743C15.7956 13.2393 14.4213 12 12.5 12C10.4336 12 9 13.4336 9 15.5C9 16.737 9.08922 17.5279 9.17757 18.0078C9.25592 18.4334 9.56659 18.7441 9.99218 18.8224C10.4721 18.9108 11.263 19 12.5 19C12.7095 19 12.9125 18.9853 13.1081 18.9566C12.3969 20.4899 12 22.1986 12 24C12 28.9196 14.9604 33.1477 19.197 35.0002C16.5587 36.154 14.4154 38.2291 13.1738 40.8189C16.2944 42.8318 20.0111 44 24.0008 44C27.9904 44 31.7071 42.8318 34.8277 40.8189C33.586 38.2289 31.4424 36.1536 28.8038 34.9998C33.0399 33.1472 36 28.9193 36 24C36 22.1986 35.6031 20.4899 34.8919 18.9566C35.0875 18.9853 35.2905 19 35.5 19C36.737 19 37.5279 18.9108 38.0078 18.8224C38.4334 18.7441 38.7441 18.4334 38.8224 18.0078C38.9108 17.5279 39 16.737 39 15.5C39 13.4336 37.5664 12 35.5 12C33.5787 12 32.2044 13.2393 32.0209 15.0743C29.8954 13.163 27.0835 12 24 12C20.9165 12 18.1046 13.163 15.9791 15.0743Z" fill="#ACB4C9"/>
<path fill-rule="evenodd" clip-rule="evenodd" d="M21 27C21.5523 27 22 27.4477 22 28C22 29.1046 22.8954 30 24 30C25.1046 30 26 29.1046 26 28C26 27.4477 26.4477 27 27 27C27.5523 27 28 27.4477 28 28C28 30.2091 26.2091 32 24 32C21.7909 32 20 30.2091 20 28C20 27.4477 20.4477 27 21 27Z" fill="#576684"/>
<path d="M20 21.5C20 22.3284 19.3284 23 18.5 23C17.6716 23 17 22.3284 17 21.5C17 20.6716 17.6716 20 18.5 20C19.3284 20 20 20.6716 20 21.5Z" fill="#576684"/>
<path d="M31 21.5C31 22.3284 30.3284 23 29.5 23C28.6716 23 28 22.3284 28 21.5C28 20.6716 28.6716 20 29.5 20C30.3284 20 31 20.6716 31 21.5Z" fill="#576684"/>
</svg>