<!-- Copyright © Ewsgit 2022. -->
<!-- Licensed under the MIT License - https://ewsgit.github.io/devdash/copyright -->

<svg xmlns="http://www.w3.org/2000/svg" width="48" height="48" fill="none" viewBox="0 0 48 48"><path fill="#ACB4C9" fill-rule="evenodd" d="M19.9138 15.9806C19.7991 18.1272 18.1272 19.7991 15.9805 19.9138C11.4885 20.1538 6.16812 19.8349 3.75439 19.6574C2.957 19.5987 2.27849 19.0621 2.14195 18.2743C2.0058 17.4889 1.91648 16.452 2.11841 15.4895C2.25062 14.8594 2.82199 14.4563 3.46241 14.3898C6.20467 14.1051 10.9542 14.0388 13.0157 14.0234C13.5714 14.0192 14.0192 13.5715 14.0233 13.0158C14.0387 10.9543 14.105 6.20469 14.3898 3.46239C14.4563 2.82198 14.8593 2.25063 15.4895 2.11842C16.4519 1.91648 17.4889 2.0058 18.2743 2.14195C19.0621 2.27849 19.5987 2.957 19.6574 3.75438C19.8349 6.16812 20.1538 11.4886 19.9138 15.9806Z" clip-rule="evenodd"/><path fill="#ACB4C9" fill-rule="evenodd" d="M26.0862 15.9806C26.2009 18.1272 27.8728 19.7991 30.0195 19.9138C34.5115 20.1538 39.8319 19.8349 42.2456 19.6574C43.043 19.5987 43.7215 19.0621 43.8581 18.2743C43.9942 17.4889 44.0835 16.452 43.8816 15.4895C43.7494 14.8594 43.178 14.4563 42.5376 14.3898C39.7953 14.1051 35.0458 14.0388 32.9843 14.0234C32.4286 14.0192 31.9808 13.5715 31.9767 13.0158C31.9613 10.9543 31.895 6.20469 31.6102 3.46239C31.5437 2.82198 31.1407 2.25063 30.5105 2.11842C29.5481 1.91648 28.5111 2.0058 27.7257 2.14195C26.9379 2.27849 26.4013 2.957 26.3426 3.75438C26.1651 6.16812 25.8462 11.4886 26.0862 15.9806Z" clip-rule="evenodd"/><path fill="#ACB4C9" fill-rule="evenodd" d="M26.0862 31.0194C26.2009 28.8728 27.8728 27.2009 30.0195 27.0862C34.5115 26.8462 39.8319 27.1651 42.2456 27.3426C43.043 27.4013 43.7215 27.9379 43.8581 28.7256C43.9942 29.5111 44.0835 30.548 43.8816 31.5105C43.7494 32.1406 43.178 32.5437 42.5376 32.6102C39.7953 32.8949 35.0458 32.9612 32.9843 32.9766C32.4286 32.9808 31.9808 33.4285 31.9767 33.9842C31.9613 36.0457 31.895 40.7953 31.6102 43.5376C31.5437 44.178 31.1407 44.7494 30.5105 44.8816C29.5481 45.0835 28.5111 44.9942 27.7257 44.8581C26.9379 44.7215 26.4013 44.043 26.3426 43.2456C26.1651 40.8319 25.8462 35.5114 26.0862 31.0194Z" clip-rule="evenodd"/><path fill="#ACB4C9" fill-rule="evenodd" d="M19.9138 31.0194C19.7991 28.8728 18.1272 27.2009 15.9805 27.0862C11.4885 26.8462 6.16812 27.1651 3.75439 27.3426C2.957 27.4013 2.27849 27.9379 2.14195 28.7256C2.0058 29.5111 1.91648 30.548 2.11841 31.5105C2.25062 32.1406 2.82199 32.5437 3.46241 32.6102C6.20467 32.8949 10.9542 32.9612 13.0157 32.9766C13.5714 32.9808 14.0192 33.4285 14.0233 33.9842C14.0387 36.0457 14.105 40.7953 14.3898 43.5376C14.4563 44.178 14.8593 44.7494 15.4895 44.8816C16.4519 45.0835 17.4889 44.9942 18.2743 44.8581C19.0621 44.7215 19.5987 44.043 19.6574 43.2456C19.8349 40.8319 20.1538 35.5114 19.9138 31.0194Z" clip-rule="evenodd"/></svg>