<!-- Copyright © Ewsgit 2022. -->
<!-- Licensed under the MIT License - https://ewsgit.github.io/devdash/copyright -->

<svg width="48" height="48" viewBox="0 0 48 48" fill="none" xmlns="http://www.w3.org/2000/svg">
<path fill-rule="evenodd" clip-rule="evenodd" d="M11.5623 14.3541C11.9043 8.53987 16.7191 4 22.5433 4H25.484C31.293 4 36.0952 8.52797 36.4363 14.3269C36.5336 15.9809 35.2716 17.4006 33.6176 17.4979C31.9636 17.5952 30.5439 16.3333 30.4466 14.6793C30.2921 12.0517 28.1161 10 25.484 10H22.5433C19.896 10 17.7074 12.0636 17.552 14.7064L16.9949 24.1762C16.8976 25.8302 15.4779 27.0921 13.8239 26.9948C12.1699 26.8975 10.908 25.4778 11.0053 23.8238L11.5623 14.3541Z" fill="#576684"/>
<path d="M6.35951 23.6908C6.55511 21.9593 7.82748 20.7565 9.55939 20.5647C11.9934 20.2951 16.3947 20 24 20C31.8152 20 36.2026 20.3116 38.5538 20.5869C40.1343 20.772 41.32 21.8431 41.5434 23.4186C41.7781 25.0742 42 27.7605 42 32C42 36.2395 41.7781 38.9258 41.5434 40.5814C41.32 42.1569 40.1343 43.228 38.5538 43.4131C36.2026 43.6884 31.8152 44 24 44C16.1848 44 11.7974 43.6884 9.4462 43.4131C7.8657 43.228 6.68002 42.1569 6.45664 40.5814C6.2219 38.9258 6 36.2395 6 32C6 27.9853 6.17056 25.3635 6.35951 23.6908Z" fill="#ACB4C9"/>
<path d="M19 32C19 30.9898 19.764 30.1472 20.7726 30.0908C21.6305 30.0428 22.7465 30 24 30C25.2535 30 26.3695 30.0428 27.2274 30.0908C28.236 30.1472 29 30.9898 29 32C29 33.0102 28.236 33.8528 27.2274 33.9092C26.3695 33.9572 25.2535 34 24 34C22.7465 34 21.6305 33.9572 20.7726 33.9092C19.764 33.8528 19 33.0102 19 32Z" fill="#576684"/>
</svg>