<!-- Copyright © Ewsgit 2022. -->
<!-- Licensed under the MIT License - https://ewsgit.github.io/devdash/copyright -->

<svg width="48" height="48" viewBox="0 0 48 48" fill="none" xmlns="http://www.w3.org/2000/svg">
<path fill-rule="evenodd" clip-rule="evenodd" d="M25.6956 27.7128C26.4902 29.3142 26.9369 31.119 26.9369 33.0281C26.9369 39.64 21.5785 45 14.9685 45C8.35846 45 3 39.64 3 33.0281C3 26.4161 8.35846 21.0561 14.9685 21.0561C16.877 21.0561 18.6812 21.503 20.2822 22.2978C21.9822 20.4762 24.6163 17.7338 28.612 13.7369C34.0539 8.2935 37.1695 5.37636 38.8017 3.90544C39.7822 3.02177 41.096 2.64418 42.1629 3.42141C42.5394 3.69575 42.9698 4.05863 43.4496 4.53861C43.9295 5.0186 44.2923 5.44908 44.5665 5.82576C45.3435 6.89293 44.966 8.2071 44.0826 9.18794C43.5226 9.80976 42.7528 10.6468 41.7136 11.7457C41.9589 11.9772 42.2216 12.2323 42.5025 12.5132C43.4228 13.4338 44.0652 14.1592 44.5123 14.7152C45.2347 15.6137 45.1306 16.7694 44.3589 17.6259C43.9154 18.1182 43.3131 18.7569 42.5025 19.5678C41.6919 20.3786 41.0533 20.9812 40.5612 21.4247C39.7049 22.1966 38.5496 22.3008 37.6513 21.5782C37.0955 21.131 36.3703 20.4883 35.45 19.5678C35.2026 19.3203 34.9753 19.087 34.7665 18.8673C34.5982 19.036 34.4274 19.2071 34.254 19.3805C30.2582 23.3775 27.5167 26.0124 25.6956 27.7128ZM14.9685 28.0397C17.7226 28.0397 19.9553 30.2731 19.9553 33.0281C19.9553 35.783 17.7226 38.0164 14.9685 38.0164C12.2143 38.0164 9.9816 35.783 9.9816 33.0281C9.9816 30.2731 12.2143 28.0397 14.9685 28.0397Z" fill="#ACB4C9"/>
</svg>