<!-- Copyright © Ewsgit 2022. -->
<!-- Licensed under the MIT License - https://ewsgit.github.io/devdash/copyright -->

<svg width="48" height="48" viewBox="0 0 48 48" fill="none" xmlns="http://www.w3.org/2000/svg">
<circle cx="24" cy="24" r="10" fill="#576684"/>
<path d="M21 9C21 7.27945 22.1011 6.01317 23.8216 6.00064C23.8799 6.00022 23.9393 6 24 6C24.0607 6 24.1201 6.00022 24.1784 6.00064C25.8989 6.01317 27 7.27945 27 9C27 10.7206 25.8989 11.9868 24.1784 11.9994C24.1201 11.9998 24.0607 12 24 12C23.9393 12 23.8799 11.9998 23.8216 11.9994C22.1011 11.9868 21 10.7205 21 9Z" fill="#ACB4C9"/>
<path d="M21 39C21 40.7206 22.1011 41.9868 23.8216 41.9994C23.8799 41.9998 23.9393 42 24 42C24.0607 42 24.1201 41.9998 24.1784 41.9994C25.8989 41.9868 27 40.7206 27 39C27 37.2794 25.8989 36.0132 24.1784 36.0006C24.1201 36.0002 24.0607 36 24 36C23.9393 36 23.8799 36.0002 23.8216 36.0006C22.1011 36.0132 21 37.2795 21 39Z" fill="#ACB4C9"/>
<path d="M32.4853 11.2721C33.7019 10.0555 35.3759 9.93865 36.6013 11.1464C36.6428 11.1873 36.685 11.2292 36.7279 11.2721C36.7708 11.315 36.8127 11.3572 36.8536 11.3987C38.0613 12.6241 37.9445 14.2981 36.7279 15.5147C35.5113 16.7313 33.8373 16.8481 32.6119 15.6404C32.5704 15.5995 32.5282 15.5576 32.4853 15.5147C32.4424 15.4718 32.4005 15.4296 32.3596 15.3881C31.1519 14.1627 31.2687 12.4887 32.4853 11.2721Z" fill="#ACB4C9"/>
<path d="M11.2721 32.4853C10.0555 33.7019 9.93866 35.3759 11.1464 36.6013C11.1873 36.6428 11.2292 36.685 11.2721 36.7279C11.315 36.7708 11.3572 36.8127 11.3987 36.8536C12.6241 38.0613 14.2981 37.9445 15.5147 36.7279C16.7313 35.5113 16.8481 33.8373 15.6404 32.6119C15.5995 32.5704 15.5576 32.5282 15.5147 32.4853C15.4718 32.4424 15.4296 32.4005 15.3881 32.3596C14.1627 31.1519 12.4887 31.2687 11.2721 32.4853Z" fill="#ACB4C9"/>
<path d="M9 27C7.27945 27 6.01317 25.8989 6.00064 24.1784C6.00022 24.1201 6 24.0607 6 24C6 23.9393 6.00022 23.8799 6.00064 23.8216C6.01317 22.1011 7.27945 21 9 21C10.7205 21 11.9868 22.1011 11.9994 23.8216C11.9998 23.8799 12 23.9393 12 24C12 24.0607 11.9998 24.1201 11.9994 24.1784C11.9868 25.8989 10.7205 27 9 27Z" fill="#ACB4C9"/>
<path d="M39 27C40.7206 27 41.9868 25.8989 41.9994 24.1784C41.9998 24.1201 42 24.0607 42 24C42 23.9393 41.9998 23.8799 41.9994 23.8216C41.9868 22.1011 40.7206 21 39 21C37.2794 21 36.0132 22.1011 36.0006 23.8216C36.0002 23.8799 36 23.9393 36 24C36 24.0607 36.0002 24.1201 36.0006 24.1784C36.0132 25.8989 37.2795 27 39 27Z" fill="#ACB4C9"/>
<path d="M11.2721 15.5147C10.0555 14.2981 9.93865 12.6241 11.1464 11.3987C11.1873 11.3572 11.2292 11.315 11.2721 11.2721C11.315 11.2292 11.3572 11.1873 11.3987 11.1464C12.6241 9.93865 14.2981 10.0555 15.5147 11.2721C16.7313 12.4887 16.8481 14.1627 15.6404 15.3881C15.5995 15.4296 15.5576 15.4718 15.5147 15.5147C15.4718 15.5576 15.4296 15.5995 15.3881 15.6404C14.1627 16.8481 12.4887 16.7313 11.2721 15.5147Z" fill="#ACB4C9"/>
<path d="M32.4853 36.7279C33.7019 37.9445 35.3759 38.0613 36.6013 36.8536C36.6428 36.8127 36.685 36.7708 36.7279 36.7279C36.7708 36.685 36.8127 36.6428 36.8536 36.6013C38.0613 35.3759 37.9445 33.7019 36.7279 32.4853C35.5113 31.2687 33.8373 31.1519 32.6119 32.3596C32.5704 32.4005 32.5282 32.4424 32.4853 32.4853C32.4424 32.5282 32.4005 32.5704 32.3596 32.6119C31.1519 33.8373 31.2687 35.5113 32.4853 36.7279Z" fill="#ACB4C9"/>
</svg>