<!-- Copyright © Ewsgit 2022. -->
<!-- Licensed under the MIT License - https://ewsgit.github.io/devdash/copyright -->

<svg width="48" height="48" viewBox="0 0 48 48" fill="none" xmlns="http://www.w3.org/2000/svg">
<path d="M28 8C36.8366 8 44 15.1634 44 24C44 32.8366 36.8366 40 28 40C19.1634 40 12 32.8366 12 24C12 15.1634 19.1634 8 28 8Z" fill="#ACB4C9"/>
<path d="M27.8962 33.3948C26.387 34.6649 24.5227 33.8333 24.4127 31.8567C24.3518 30.7622 24.2986 29.3818 24.2667 27.652C15.7123 27.5654 9.05122 27.3642 5.934 27.2559C4.8489 27.2182 4 26.3216 4 25.229V22.9846C4 21.9084 4.82418 21.0199 5.89224 20.9641C8.99141 20.8022 15.6737 20.4982 24.2663 20.3678C24.2981 18.629 24.3515 17.2423 24.4126 16.1437C24.5226 14.1667 26.3875 13.335 27.897 14.6054C28.7965 15.3624 29.9054 16.3447 31.2405 17.6079C33.4786 19.7254 34.7633 21.3169 35.4894 22.3822C36.1703 23.381 36.1702 24.6181 35.4893 25.6169C34.7631 26.6821 33.4784 28.2735 31.2405 30.3912C29.905 31.655 28.7959 32.6377 27.8962 33.3948Z" fill="#576684"/>
</svg>