<!-- Copyright © Ewsgit 2022. -->
<!-- Licensed under the MIT License - https://ewsgit.github.io/devdash/copyright -->

<svg width="48" height="48" viewBox="0 0 48 48" fill="none" xmlns="http://www.w3.org/2000/svg">
<path d="M2.06859 25.1812C2.19941 26.2054 3.12519 26.7335 4.15709 26.7699C6.67185 26.8585 12.4888 27 24 27C35.5112 27 41.3282 26.8585 43.8429 26.7699C44.8748 26.7335 45.8006 26.2054 45.9314 25.1812C45.9732 24.8541 46 24.4636 46 24C46 23.5364 45.9732 23.1459 45.9314 22.8188C45.8006 21.7946 44.8748 21.2665 43.8429 21.2301C41.3282 21.1415 35.5112 21 24 21C12.4888 21 6.67185 21.1415 4.15709 21.2301C3.12519 21.2665 2.19941 21.7946 2.06859 22.8188C2.02681 23.1459 2 23.5364 2 24C2 24.4636 2.02681 24.8541 2.06859 25.1812Z" fill="#576684"/>
<path d="M9.49468 33.9298C7.77713 33.8669 6.46173 32.8182 6.28211 31.1089C6.12829 29.645 6 27.4038 6 24C6 20.5962 6.12829 18.355 6.28211 16.8911C6.46173 15.1818 7.77713 14.1331 9.49468 14.0702C10.5769 14.0305 12.0446 14 14 14C15.9554 14 17.4231 14.0305 18.5053 14.0702C20.2229 14.1331 21.5383 15.1818 21.7179 16.8911C21.8717 18.355 22 20.5962 22 24C22 27.4038 21.8717 29.645 21.7179 31.1089C21.5383 32.8182 20.2229 33.8669 18.5053 33.9298C17.4231 33.9695 15.9554 34 14 34C12.0446 34 10.5769 33.9695 9.49468 33.9298Z" fill="#ACB4C9"/>
<path d="M29.8499 39.9073C27.9258 39.8082 26.533 38.4899 26.3711 36.5701C26.1812 34.3176 26 30.4725 26 24C26 17.5275 26.1812 13.6824 26.3711 11.4299C26.533 9.51006 27.9258 8.19184 29.8499 8.09271C30.8917 8.03903 32.2507 8 34 8C35.7493 8 37.1083 8.03903 38.1501 8.09271C40.0742 8.19184 41.467 9.51006 41.6289 11.4299C41.8188 13.6824 42 17.5275 42 24C42 30.4725 41.8188 34.3176 41.6289 36.5701C41.467 38.4899 40.0742 39.8082 38.1501 39.9073C37.1083 39.961 35.7493 40 34 40C32.2507 40 30.8917 39.961 29.8499 39.9073Z" fill="#ACB4C9"/>
</svg>