<!-- Copyright © Ewsgit 2022. -->
<!-- Licensed under the MIT License - https://ewsgit.github.io/devdash/copyright -->

<svg xmlns="http://www.w3.org/2000/svg" width="48" height="48" fill="none" viewBox="0 0 48 48"><path fill="#576684" d="M24 10C33.3888 10 41 17.6751 41 27.1429V40.5914C41 42.8568 39.6621 44.807 37.4263 45.1716C34.8585 45.5904 30.6478 46 24 46C17.3522 46 13.1415 45.5904 10.5737 45.1716C8.3379 44.807 7 42.8568 7 40.5914V27.1429C7 17.6751 14.6112 10 24 10Z"/><path fill="#ACB4C9" d="M7 27C7 36.3888 14.6112 44 24 44C33.3888 44 41 36.3888 41 27C41 17.6112 33.3888 10 24 10C14.6112 10 7 17.6112 7 27Z"/><path fill="#576684" d="M41 27C32.993 26.6414 26.2962 21.2418 24.0001 13.8951C21.7039 21.2418 15.0071 26.6414 7 27C7.01022 17.6094 14.6175 10 24 10C33.3825 10 40.9898 17.6094 41 27Z"/><path fill="#576684" d="M19 26.931C19 27.9975 18.1046 28.8621 17 28.8621C15.8954 28.8621 15 27.9975 15 26.931C15 25.8646 15.8954 25 17 25C18.1046 25 19 25.8646 19 26.931Z"/><path fill="#576684" d="M20 32.2414C20.8284 32.2414 21.5 32.8898 21.5 33.6897C21.5 35.0228 22.6193 36.1034 24 36.1034C25.3807 36.1034 26.5 35.0228 26.5 33.6897C26.5 32.8898 27.1716 32.2414 28 32.2414C28.8284 32.2414 29.5 32.8898 29.5 33.6897C29.5 36.6225 27.0376 39 24 39C20.9624 39 18.5 36.6225 18.5 33.6897C18.5 32.8898 19.1716 32.2414 20 32.2414Z"/><path fill="#576684" d="M31 28.8621C29.8954 28.8621 29 27.9975 29 26.931C29 25.8646 29.8954 25 31 25C32.1046 25 33 25.8646 33 26.931C33 27.9975 32.1046 28.8621 31 28.8621Z"/><path fill="#ACB4C9" d="M18.5759 7.72635C19.0019 7.95213 19.5224 7.81533 19.7939 7.41136C20.7295 6.01909 22.229 3.78774 23.144 2.42618C23.5259 1.85794 24.3457 1.85794 24.7275 2.42618C25.6425 3.78773 27.1421 6.01909 28.0777 7.41136C28.3492 7.81533 28.8697 7.95213 29.2957 7.72635C30.7463 6.95757 32.3605 6.03096 33.5748 5.31924C34.3015 4.89327 35.1728 5.5408 34.9702 6.37063C34.5891 7.93138 33.9997 10.1756 33.2325 12.584C33.1446 12.86 32.9407 13.0783 32.6666 13.156C31.7151 13.4257 29.0848 14 23.9358 14C18.8413 14 16.2125 13.4378 15.2358 13.1646C14.9443 13.0831 14.732 12.8435 14.6521 12.546C13.9641 9.98425 13.4183 7.95887 13.0363 6.54414C12.8062 5.69171 13.7158 4.97971 14.4677 5.41926C15.66 6.11627 17.1924 6.9931 18.5759 7.72635Z"/></svg>