<!-- Copyright © Ewsgit 2022. -->
<!-- Licensed under the MIT License - https://ewsgit.github.io/devdash/copyright -->

<svg width="48" height="48" viewBox="0 0 48 48" fill="none" xmlns="http://www.w3.org/2000/svg">
<path d="M44 24C44 35.0457 35.0457 44 24 44C12.9543 44 4 35.0457 4 24C4 12.9543 12.9543 4 24 4C35.0457 4 44 12.9543 44 24Z" fill="#576684"/>
<path d="M28.8038 34.9998C33.0399 33.1472 36 28.9193 36 24C36 17.3726 30.6274 12 24 12C17.3726 12 12 17.3726 12 24C12 28.9196 14.9604 33.1477 19.197 35.0002C16.5587 36.154 14.4154 38.2291 13.1738 40.8189C16.2944 42.8318 20.0111 44 24.0008 44C27.9904 44 31.7071 42.8318 34.8277 40.8189C33.586 38.2289 31.4424 36.1536 28.8038 34.9998Z" fill="#ACB4C9"/>
<path fill-rule="evenodd" clip-rule="evenodd" d="M27.5567 30.8299C28.0152 30.522 28.1373 29.9007 27.8294 29.4422L26.9992 29.9997C27.8294 29.4422 27.8294 29.4422 27.8294 29.4422L27.8287 29.4412L27.8279 29.44L27.8259 29.437L27.8204 29.4289L27.8033 29.4042C27.7893 29.3842 27.77 29.357 27.7457 29.3238C27.6971 29.2573 27.6281 29.166 27.5407 29.058C27.367 28.8434 27.1142 28.5553 26.798 28.2641C26.2014 27.7147 25.2129 26.9997 23.9992 26.9997C22.7856 26.9997 21.7971 27.7147 21.2005 28.2641C20.8843 28.5553 20.6315 28.8434 20.4578 29.058C20.3703 29.166 20.3013 29.2573 20.2528 29.3238C20.2285 29.357 20.2092 29.3842 20.1952 29.4042L20.1781 29.4289L20.1726 29.437L20.1706 29.44L20.1697 29.4412C20.1697 29.4412 20.1691 29.4422 20.9992 29.9997L20.1691 29.4422C19.8612 29.9007 19.9832 30.522 20.4417 30.8299C20.8995 31.1373 21.5195 31.0161 21.8279 30.5594L21.8343 30.5503C21.8407 30.541 21.8519 30.5252 21.8676 30.5038C21.899 30.4608 21.9478 30.3959 22.0122 30.3165C22.1421 30.156 22.3286 29.9441 22.5554 29.7353C23.0445 29.2848 23.556 28.9997 23.9992 28.9997C24.4424 28.9997 24.9539 29.2848 25.4431 29.7353C25.6698 29.9441 25.8563 30.156 25.9863 30.3165C26.0506 30.3959 26.0995 30.4608 26.1309 30.5038C26.1465 30.5252 26.1577 30.541 26.1642 30.5503L26.1703 30.5591L26.1696 30.5581C26.4776 31.0162 27.0984 31.1377 27.5567 30.8299Z" fill="#576684"/>
<path d="M20.1033 22.9899C19.3478 23.7454 18.1229 23.7454 17.3674 22.9899C16.6119 22.2345 16.6119 21.0096 17.3674 20.2541C18.1756 19.4459 20.9114 22.1818 20.1033 22.9899Z" fill="#576684"/>
<path d="M30.3432 20.2965C31.0602 21.065 31.0183 22.2691 30.2498 22.986C29.4813 23.703 28.2772 23.6612 27.5602 22.8927C26.8124 22.091 29.5954 19.4948 30.3432 20.2965Z" fill="#576684"/>
</svg>