<!-- Copyright © Ewsgit 2022. -->
<!-- Licensed under the MIT License - https://ewsgit.github.io/devdash/copyright -->

<svg xmlns="http://www.w3.org/2000/svg" width="48" height="48" fill="none" viewBox="0 0 48 48"><path fill="#ACB4C9" fill-rule="evenodd" d="M4.40406 21.0781C3.56128 22.1299 4.10213 23.4951 5.42206 23.6472C6.34569 23.7537 7.56155 23.8678 9.13953 23.9732C9.14415 24.0163 9.14925 24.0594 9.15485 24.1027C9.68299 28.1816 10.6227 34.4134 12.0222 40.0988C12.4112 41.6788 13.2603 43.2303 14.829 43.4987C16.4314 43.7729 19.2058 44 24.0004 44C28.795 44 31.5695 43.7729 33.1719 43.4987C34.7405 43.2303 35.5896 41.6788 35.9786 40.0988C37.378 34.4134 38.3178 28.1817 38.8459 24.1027C38.8515 24.0594 38.8566 24.0163 38.8612 23.9732C40.4387 23.8678 41.6543 23.7537 42.5778 23.6473C43.898 23.4952 44.4388 22.1296 43.5958 21.0776C42.2018 19.3382 39.7247 16.4972 35.5521 12.3821C30.6427 7.54027 27.2978 5.34431 25.5181 4.38853C24.5533 3.87043 23.4474 3.8705 22.4827 4.38869C20.7032 5.34455 17.3587 7.54053 12.4486 12.3821C8.27484 16.4976 5.7977 19.3387 4.40406 21.0781Z" clip-rule="evenodd"/><path fill="#576684" d="M30 25C30 28.3137 27.3137 31 24 31C20.6863 31 18 28.3137 18 25C18 21.6863 20.6863 19 24 19C27.3137 19 30 21.6863 30 25Z"/></svg>