<!-- Copyright © Ewsgit 2022. -->
<!-- Licensed under the MIT License - https://ewsgit.github.io/devdash/copyright -->

<svg width="48" height="48" viewBox="0 0 48 48" fill="none" xmlns="http://www.w3.org/2000/svg">
<path d="M18 24L20.1564 23L25 27.8067L24 30C25.0293 42.2017 17.1292 45 5.02032 45C3.98094 45 3.2064 44.8713 2.66717 44.4993C1.08899 43.4105 2.71709 41.0883 3.39612 39.3089C5.49204 33.8165 3.21104 24 18 24Z" fill="#ACB4C9"/>
<path d="M45.1939 10.9842L32.1297 27.6268C31.3475 28.6232 30.2721 29.3502 29.028 29.5646C27.7797 29.7796 26.0374 30 24 30C24 30 23.4687 28.66 21.4801 26.66C19.4914 24.66 18 24 18 24C18 21.8627 18.2839 20.0567 18.5483 18.838C18.7889 17.7286 19.4647 16.7865 20.3509 16.0829L37.0668 2.81073C37.609 2.38017 38.2247 2.03132 38.915 2.00415C40.0432 1.95976 41.9477 2.2446 43.8523 4.16002C45.7568 6.07546 46.04 7.99088 45.9959 9.12547C45.9688 9.81975 45.622 10.4389 45.1939 10.9842Z" fill="#576684"/>
</svg>