<!-- Copyright © Ewsgit 2022. -->
<!-- Licensed under the MIT License - https://ewsgit.github.io/devdash/copyright -->

<svg width="48" height="48" viewBox="0 0 48 48" fill="none" xmlns="http://www.w3.org/2000/svg">
<path d="M37.5029 7.49087C39.2287 7.66409 40.5821 8.80641 40.9206 10.5075C41.4217 13.0254 42 17.6351 42 25.5C42 33.3649 41.4216 37.9746 40.9206 40.4925C40.5821 42.1936 39.2287 43.3359 37.5029 43.5091C35.1547 43.7448 30.9968 44 24 44C17.0032 44 12.8453 43.7448 10.4971 43.5091C8.77133 43.3359 7.41789 42.1936 7.07939 40.4925C6.57835 37.9746 6 33.3649 6 25.5C6 17.6351 6.57835 13.0254 7.07939 10.5075C7.4179 8.80642 8.77133 7.66409 10.4971 7.49087C12.8453 7.25519 17.0032 7 24 7C30.9968 7 35.1547 7.25519 37.5029 7.49087Z" fill="#ACB4C9"/>
<path fill-rule="evenodd" clip-rule="evenodd" d="M32.9648 18.4537C33.9836 19.0418 34.3154 20.3882 33.6664 21.3855C30.1298 26.8201 26.9522 30.384 25.152 32.2208C24.2448 33.1464 22.8676 33.2675 21.8471 32.4758C20.2474 31.2349 17.775 29.0325 15.381 25.7585C14.7997 24.9636 14.8987 23.8568 15.5744 23.1446L16.1177 22.5718C16.8788 21.7696 18.1223 21.7213 18.899 22.5076C21.2321 24.8694 23.2485 27.4232 23.2485 27.4232C23.2485 27.4232 26.0826 23.2282 30.1794 18.6577C30.8104 17.9537 31.8321 17.7999 32.6446 18.2689L32.9648 18.4537Z" fill="#576684"/>
<path d="M28.6572 4.04555C30.396 4.08166 31.7091 5.61167 31.5171 7.34025L31.2958 9.3313C31.127 10.8506 29.8428 12 28.3142 12H19.6844C18.1558 12 16.8716 10.8506 16.7028 9.3313L16.4816 7.34025C16.2895 5.61167 17.6026 4.08166 19.3415 4.04555C20.7329 4.01665 22.2805 4 23.9993 4C25.7182 4 27.2657 4.01665 28.6572 4.04555Z" fill="#576684"/>
</svg>