<!-- Copyright © Ewsgit 2022. -->
<!-- Licensed under the MIT License - https://ewsgit.github.io/devdash/copyright -->

<svg width="48" height="48" viewBox="0 0 48 48" fill="none" xmlns="http://www.w3.org/2000/svg">
<circle cx="24" cy="24" r="10" fill="#576684"/>
<path d="M21.0216 6.53086C21.0625 5.14267 21.9609 4.0496 23.3491 4.00909C23.549 4.00326 23.7656 4 24 4C24.2344 4 24.451 4.00326 24.6509 4.00909C26.0391 4.0496 26.9375 5.14266 26.9784 6.53086C26.9914 6.97343 27 7.46759 27 8C27 8.53241 26.9914 9.02657 26.9784 9.46914C26.9375 10.8573 26.0391 11.9504 24.6509 11.9909C24.451 11.9967 24.2344 12 24 12C23.7656 12 23.549 11.9967 23.3491 11.9909C21.9609 11.9504 21.0625 10.8573 21.0216 9.46914C21.0086 9.02657 21 8.53241 21 8C21 7.46759 21.0086 6.97343 21.0216 6.53086Z" fill="#ACB4C9"/>
<path d="M21.0216 41.4691C21.0625 42.8573 21.9609 43.9504 23.3491 43.9909C23.549 43.9967 23.7656 44 24 44C24.2344 44 24.451 43.9967 24.6509 43.9909C26.0391 43.9504 26.9375 42.8573 26.9784 41.4691C26.9914 41.0266 27 40.5324 27 40C27 39.4676 26.9914 38.9734 26.9784 38.5309C26.9375 37.1427 26.0391 36.0496 24.6509 36.0091C24.451 36.0033 24.2344 36 24 36C23.7656 36 23.549 36.0033 23.3491 36.0091C21.9609 36.0496 21.0625 37.1427 21.0216 38.5309C21.0086 38.9734 21 39.4676 21 40C21 40.5324 21.0086 41.0266 21.0216 41.4691Z" fill="#ACB4C9"/>
<path d="M6.53086 26.9784C5.14267 26.9375 4.0496 26.0391 4.00909 24.6509C4.00326 24.451 4 24.2344 4 24C4 23.7656 4.00326 23.549 4.00909 23.3491C4.0496 21.9609 5.14266 21.0625 6.53086 21.0216C6.97343 21.0086 7.46759 21 8 21C8.53241 21 9.02657 21.0086 9.46914 21.0216C10.8573 21.0625 11.9504 21.9609 11.9909 23.3491C11.9967 23.549 12 23.7656 12 24C12 24.2344 11.9967 24.451 11.9909 24.6509C11.9504 26.0391 10.8573 26.9375 9.46914 26.9784C9.02657 26.9914 8.53241 27 8 27C7.46759 27 6.97343 26.9914 6.53086 26.9784Z" fill="#ACB4C9"/>
<path d="M41.4691 26.9784C42.8573 26.9375 43.9504 26.0391 43.9909 24.6509C43.9967 24.451 44 24.2344 44 24C44 23.7656 43.9967 23.549 43.9909 23.3491C43.9504 21.9609 42.8573 21.0625 41.4691 21.0216C41.0266 21.0086 40.5324 21 40 21C39.4676 21 38.9734 21.0086 38.5309 21.0216C37.1427 21.0625 36.0496 21.9609 36.0091 23.3491C36.0033 23.549 36 23.7656 36 24C36 24.2344 36.0033 24.451 36.0091 24.6509C36.0496 26.0391 37.1427 26.9375 38.5309 26.9784C38.9734 26.9914 39.4676 27 40 27C40.5324 27 41.0266 26.9914 41.4691 26.9784Z" fill="#ACB4C9"/>
<path d="M9.54143 13.7535C8.58869 12.743 8.45106 11.3348 9.40403 10.3246C9.54127 10.1791 9.69211 10.0236 9.85786 9.85786C10.0236 9.69211 10.1791 9.54127 10.3246 9.40403C11.3348 8.45106 12.743 8.58869 13.7535 9.54143C14.0756 9.84517 14.4311 10.1885 14.8076 10.565C15.1841 10.9414 15.5274 11.297 15.8312 11.6191C16.7839 12.6296 16.9215 14.0378 15.9686 15.048C15.8313 15.1935 15.6805 15.349 15.5147 15.5147C15.349 15.6805 15.1935 15.8313 15.048 15.9686C14.0378 16.9215 12.6296 16.7839 11.6191 15.8312C11.297 15.5274 10.9414 15.1841 10.565 14.8076C10.1885 14.4311 9.84517 14.0756 9.54143 13.7535Z" fill="#ACB4C9"/>
<path d="M34.2465 38.4586C35.257 39.4113 36.6652 39.5489 37.6754 38.596C37.8209 38.4587 37.9764 38.3079 38.1421 38.1421C38.3079 37.9764 38.4587 37.8209 38.596 37.6754C39.5489 36.6652 39.4113 35.257 38.4586 34.2465C38.1548 33.9244 37.8115 33.5689 37.435 33.1924C37.0586 32.8159 36.703 32.4726 36.3809 32.1688C35.3704 31.2161 33.9622 31.0785 32.952 32.0314C32.8065 32.1687 32.651 32.3195 32.4853 32.4853C32.3195 32.651 32.1687 32.8065 32.0314 32.952C31.0785 33.9622 31.2161 35.3704 32.1688 36.3809C32.4726 36.703 32.8159 37.0586 33.1924 37.435C33.5689 37.8115 33.9244 38.1548 34.2465 38.4586Z" fill="#ACB4C9"/>
<path d="M13.7535 38.4586C12.743 39.4113 11.3348 39.5489 10.3246 38.596C10.1791 38.4587 10.0236 38.3079 9.85786 38.1421C9.69211 37.9764 9.54127 37.8209 9.40403 37.6754C8.45106 36.6652 8.58869 35.257 9.54143 34.2465C9.84517 33.9244 10.1885 33.5689 10.565 33.1924C10.9414 32.8159 11.297 32.4726 11.6191 32.1688C12.6296 31.2161 14.0378 31.0785 15.048 32.0314C15.1935 32.1687 15.349 32.3195 15.5147 32.4853C15.6805 32.651 15.8313 32.8065 15.9686 32.952C16.9215 33.9622 16.7839 35.3704 15.8312 36.3809C15.5274 36.703 15.1841 37.0586 14.8076 37.435C14.4311 37.8115 14.0756 38.1548 13.7535 38.4586Z" fill="#ACB4C9"/>
<path d="M38.4586 13.7535C39.4113 12.743 39.5489 11.3348 38.596 10.3246C38.4587 10.1791 38.3079 10.0236 38.1421 9.85786C37.9764 9.69211 37.8209 9.54127 37.6754 9.40403C36.6652 8.45106 35.257 8.58869 34.2465 9.54143C33.9244 9.84517 33.5689 10.1885 33.1924 10.565C32.8159 10.9414 32.4726 11.297 32.1688 11.6191C31.2161 12.6296 31.0785 14.0378 32.0314 15.048C32.1687 15.1935 32.3195 15.349 32.4853 15.5147C32.651 15.6805 32.8065 15.8313 32.952 15.9686C33.9622 16.9215 35.3704 16.7839 36.3809 15.8312C36.703 15.5274 37.0586 15.1841 37.435 14.8076C37.8115 14.4311 38.1548 14.0756 38.4586 13.7535Z" fill="#ACB4C9"/>
</svg>