<!-- Copyright © Ewsgit 2022. -->
<!-- Licensed under the MIT License - https://ewsgit.github.io/devdash/copyright -->

<svg xmlns="http://www.w3.org/2000/svg" width="48" height="48" fill="none" viewBox="0 0 48 48"><path fill="#576684" d="M38.1422 9.87556C38.4139 9.95652 38.7019 10 39 10C40.6569 10 42 8.65685 42 7C42 5.34315 40.6569 4 39 4C37.3431 4 36 5.34315 36 7C36 7.29858 36.0436 7.58698 36.1248 7.85916C31.0675 11.4505 24.2597 16.4628 20 20.3168L25.6841 26.0009C29.5383 21.741 34.5508 14.9329 38.1422 9.87556Z"/><path fill="#576684" d="M5.12684 42.2418C8.58869 33.2984 13.252 25 13.252 25C13.252 25 25.1132 34.207 30.6805 42.1048C31.4728 43.2287 30.7067 44.6554 29.314 44.7358C27.0918 44.8641 23.4969 45 18.2361 45C12.6324 45 8.91877 44.8458 6.74109 44.7108C5.47339 44.6323 4.67682 43.4043 5.12684 42.2418Z"/><path fill="#ACB4C9" d="M14.9285 31.0715C22.4562 38.5991 34.4379 38.9582 42.3905 32.1487C43.0979 31.5429 43.2013 30.5231 42.6391 29.7806C41.1737 27.8449 37.6515 23.5786 30.0365 15.9635C22.4214 8.34848 18.1551 4.82633 16.2194 3.36087C15.4769 2.79874 14.4571 2.90214 13.8513 3.60953C7.0418 11.5621 7.40087 23.5438 14.9285 31.0715Z"/></svg>