<!-- Copyright © Ewsgit 2022. -->
<!-- Licensed under the MIT License - https://ewsgit.github.io/devdash/copyright -->

<svg width="48" height="48" viewBox="0 0 48 48" fill="none" xmlns="http://www.w3.org/2000/svg">
<path d="M44 24C44 35.0457 35.0457 44 24 44C12.9543 44 4 35.0457 4 24C4 12.9543 12.9543 4 24 4C35.0457 4 44 12.9543 44 24Z" fill="#576684"/>
<path d="M10.7 24.15C10.7 25.1278 11.1925 25.9907 11.9429 26.504C11.8021 26.5014 11.6545 26.5 11.5 26.5C9.43358 26.5 8 27.9336 8 30C8 32.0664 9.43358 33.5 11.5 33.5C12.9903 33.5 14.1515 32.7543 14.6831 31.5633C15.8841 33.0409 17.4295 34.2273 19.197 35.0002C16.5587 36.154 14.4154 38.2291 13.1738 40.8189C16.2944 42.8318 20.0111 44 24.0008 44C27.9904 44 31.7071 42.8318 34.8277 40.8189C33.586 38.2289 31.4425 36.1536 28.8038 34.9998C30.571 34.227 32.1161 33.0408 33.3169 31.5634C33.8485 32.7543 35.0097 33.5 36.5 33.5C38.5664 33.5 40 32.0664 40 30C40 27.9336 38.5664 26.5 36.5 26.5C36.3455 26.5 36.198 26.5014 36.0572 26.504C36.8076 25.9907 37.3001 25.1278 37.3001 24.15C37.3001 23.6421 37.1672 23.1652 36.9344 22.7522C37.7256 22.2458 38.2501 21.3591 38.2501 20.35C38.2501 19.3408 37.7256 18.4542 36.9344 17.9478C37.1672 17.5348 37.3001 17.0579 37.3001 16.55C37.3001 14.976 36.0241 13.7 34.4501 13.7C34.4501 12.126 33.1741 10.85 31.6001 10.85C31.2293 10.85 30.8751 10.9208 30.5502 11.0496C30.2209 9.83965 29.1143 8.95 27.8 8.95C27.2921 8.95 26.8152 9.08287 26.4023 9.31575C25.8958 8.52449 25.0092 8 24 8C22.9909 8 22.1043 8.52449 21.5978 9.31574C21.1849 9.08287 20.708 8.95 20.2001 8.95C18.8858 8.95 17.7792 9.83965 17.4499 11.0496C17.125 10.9208 16.7708 10.85 16.4 10.85C14.826 10.85 13.55 12.126 13.55 13.7C11.976 13.7 10.7 14.976 10.7 16.55C10.7 17.0579 10.8329 17.5348 11.0657 17.9478C10.2745 18.4542 9.75 19.3408 9.75 20.35C9.75 21.3591 10.2745 22.2458 11.0657 22.7522C10.8329 23.1652 10.7 23.6421 10.7 24.15Z" fill="#ACB4C9"/>
<path fill-rule="evenodd" clip-rule="evenodd" d="M21 27C21.5523 27 22 27.4477 22 28C22 29.1046 22.8954 30 24 30C25.1046 30 26 29.1046 26 28C26 27.4477 26.4477 27 27 27C27.5523 27 28 27.4477 28 28C28 30.2091 26.2091 32 24 32C21.7909 32 20 30.2091 20 28C20 27.4477 20.4477 27 21 27Z" fill="#576684"/>
<path d="M20 21.5C20 22.3284 19.3284 23 18.5 23C17.6716 23 17 22.3284 17 21.5C17 20.6716 17.6716 20 18.5 20C19.3284 20 20 20.6716 20 21.5Z" fill="#576684"/>
<path d="M31 21.5C31 22.3284 30.3284 23 29.5 23C28.6716 23 28 22.3284 28 21.5C28 20.6716 28.6716 20 29.5 20C30.3284 20 31 20.6716 31 21.5Z" fill="#576684"/>
</svg>