<!-- Copyright © Ewsgit 2022. -->
<!-- Licensed under the MIT License - https://ewsgit.github.io/devdash/copyright -->

<svg width="48" height="48" viewBox="0 0 48 48" fill="none" xmlns="http://www.w3.org/2000/svg">
<path fill-rule="evenodd" clip-rule="evenodd" d="M11.5623 14.3541C11.9043 8.53987 16.7191 4 22.5433 4H25.4569C31.2811 4 36.0959 8.53987 36.4379 14.3541L36.9949 23.8238C37.0922 25.4778 35.8303 26.8975 34.1763 26.9948C32.5223 27.0921 31.1026 25.8302 31.0053 24.1762L30.4482 14.7064C30.2928 12.0636 28.1042 10 25.4569 10H22.5433C19.896 10 17.7074 12.0636 17.552 14.7064L16.9949 24.1762C16.8976 25.8302 15.4779 27.0921 13.8239 26.9948C12.1699 26.8975 10.908 25.4778 11.0053 23.8238L11.5623 14.3541Z" fill="#576684"/>
<path d="M6.35951 23.6908C6.55511 21.9593 7.82748 20.7565 9.55939 20.5647C11.9934 20.2951 16.3947 20 24 20C31.8152 20 36.2026 20.3116 38.5538 20.5869C40.1343 20.772 41.32 21.8431 41.5434 23.4186C41.7781 25.0742 42 27.7605 42 32C42 36.2395 41.7781 38.9258 41.5434 40.5814C41.32 42.1569 40.1343 43.228 38.5538 43.4131C36.2026 43.6884 31.8152 44 24 44C16.1848 44 11.7974 43.6884 9.4462 43.4131C7.8657 43.228 6.68002 42.1569 6.45664 40.5814C6.2219 38.9258 6 36.2395 6 32C6 27.9853 6.17056 25.3635 6.35951 23.6908Z" fill="#ACB4C9"/>
<path fill-rule="evenodd" clip-rule="evenodd" d="M25.9375 33.5003C27.1675 32.818 28 31.5062 28 30C28 27.7909 26.2091 26 24 26C21.7909 26 20 27.7909 20 30C20 31.5062 20.8325 32.818 22.0625 33.5003L21.5751 37.3991C21.5261 37.7909 21.5946 38.2024 21.9116 38.4378C22.2737 38.7067 22.9169 39 24 39C25.0831 39 25.7263 38.7067 26.0884 38.4378C26.4054 38.2024 26.4739 37.7909 26.4249 37.3991L25.9375 33.5003Z" fill="#576684"/>
</svg>