<!-- Copyright © Ewsgit 2022. -->
<!-- Licensed under the MIT License - https://ewsgit.github.io/devdash/copyright -->

<svg width="48" height="48" viewBox="0 0 48 48" fill="none" xmlns="http://www.w3.org/2000/svg">
<path d="M36 20C31.5817 20 28 16.4183 28 12C28 7.58172 31.5817 4 36 4C40.4183 4 44 7.58172 44 12C44 16.4183 40.4183 20 36 20Z" fill="#576684"/>
<path d="M12 20C7.58172 20 4 16.4183 4 12C4 7.58172 7.58172 4 12 4C16.4183 4 20 7.58172 20 12C20 16.4183 16.4183 20 12 20Z" fill="#576684"/>
<path d="M37.3398 38.5296C40.834 35.0841 43 30.295 43 25C43 14.5066 34.4934 6 24 6C13.5066 6 5 14.5066 5 25C5 30.295 7.16595 35.0841 10.6602 38.5296C9.5148 41.6908 9 43.8916 9 43.8916C9 43.8916 9.08123 44.7617 10.3991 45.5194C11.7169 46.2771 12.5142 45.9121 12.5142 45.9121C12.5142 45.9121 13.9869 44.5391 15.9795 42.2292C18.4162 43.3654 21.134 44 24 44C26.866 44 29.5838 43.3654 32.0205 42.2292C34.0131 44.5391 35.4858 45.9121 35.4858 45.9121C35.4858 45.9121 36.2831 46.2771 37.6009 45.5194C38.9188 44.7617 39 43.8916 39 43.8916C39 43.8916 38.4852 41.6908 37.3398 38.5296Z" fill="#ACB4C9"/>
<path fill-rule="evenodd" clip-rule="evenodd" d="M24.0718 12C25.3867 12 26.4527 13.1453 26.4527 14.5582V22.9157C26.4527 23.1921 26.5549 23.4572 26.7368 23.6527L32.3027 29.633C33.2324 30.632 33.2324 32.2517 32.3027 33.2507C31.3729 34.2498 29.8654 34.2498 28.9356 33.2507L22.0561 27.1415C21.3292 26.4959 20.9385 25.5119 21.0079 24.5013L21.6909 14.5582C21.6909 13.1453 22.7568 12 24.0718 12Z" fill="#576684"/>
</svg>