<!-- Copyright © Ewsgit 2022. -->
<!-- Licensed under the MIT License - https://ewsgit.github.io/devdash/copyright -->

<svg width="48" height="48" viewBox="0 0 48 48" fill="none" xmlns="http://www.w3.org/2000/svg">
<path d="M44 24C44 35.0457 35.0457 44 24 44C12.9543 44 4 35.0457 4 24C4 12.9543 12.9543 4 24 4C35.0457 4 44 12.9543 44 24Z" fill="#576684"/>
<path d="M20.4393 8.93934C21.0251 8.35355 21.9749 8.35355 22.5607 8.93934L24 10.3787L25.4393 8.93934C26.0251 8.35355 26.9749 8.35355 27.5607 8.93934C28.1464 9.52513 28.1464 10.4749 27.5607 11.0607L26.3844 12.2369C31.8696 13.3427 36 18.189 36 24C36 28.9193 33.0399 33.1472 28.8038 34.9998C31.4424 36.1536 33.586 38.2289 34.8277 40.8189C31.7071 42.8318 27.9904 44 24.0008 44C20.0111 44 16.2944 42.8318 13.1738 40.8189C14.4154 38.2291 16.5587 36.154 19.197 35.0002C14.9604 33.1477 12 28.9196 12 24C12 18.189 16.1304 13.3427 21.6156 12.2369L20.4393 11.0607C19.8536 10.4749 19.8536 9.52513 20.4393 8.93934Z" fill="#ACB4C9"/>
<path fill-rule="evenodd" clip-rule="evenodd" d="M21 27C21.5523 27 22 27.4477 22 28C22 29.1046 22.8954 30 24 30C25.1046 30 26 29.1046 26 28C26 27.4477 26.4477 27 27 27C27.5523 27 28 27.4477 28 28C28 30.2091 26.2091 32 24 32C21.7909 32 20 30.2091 20 28C20 27.4477 20.4477 27 21 27Z" fill="#576684"/>
<path d="M20 21.5C20 22.3284 19.3284 23 18.5 23C17.6716 23 17 22.3284 17 21.5C17 20.6716 17.6716 20 18.5 20C19.3284 20 20 20.6716 20 21.5Z" fill="#576684"/>
<path d="M31 21.5C31 22.3284 30.3284 23 29.5 23C28.6716 23 28 22.3284 28 21.5C28 20.6716 28.6716 20 29.5 20C30.3284 20 31 20.6716 31 21.5Z" fill="#576684"/>
</svg>