<!-- Copyright © Ewsgit 2022. -->
<!-- Licensed under the MIT License - https://ewsgit.github.io/devdash/copyright -->

<svg width="48" height="48" viewBox="0 0 48 48" fill="none" xmlns="http://www.w3.org/2000/svg">
<circle cx="22" cy="26" r="19" fill="#ACB4C9"/>
<path d="M42.3703 20C42.8483 20 43.3525 20.1492 43.5733 20.5731C43.7015 20.8191 43.773 21.0986 43.773 21.4103C43.773 21.6577 43.71 21.9052 43.5839 22.1526C43.4704 22.3876 43.3255 22.6103 43.1489 22.8206L39.9716 26.5691H43.0903C43.4533 26.5691 43.8023 26.7626 43.9025 27.1116C43.9652 27.3297 44 27.5562 44 27.7753C44 28.2082 43.8991 28.5237 43.6974 28.7216C43.5083 28.9072 43.2498 29 42.922 29H37.4027C36.9247 29 36.4203 28.851 36.1994 28.4272C36.0726 28.184 36 27.9052 36 27.5897C36 27.3423 36.0567 27.101 36.1702 26.866C36.2963 26.6186 36.4476 26.3897 36.6241 26.1794L39.8771 22.4309H36.9854C36.6223 22.4309 36.271 22.2384 36.1701 21.8897C36.1082 21.6757 36.0757 21.4538 36.0757 21.2247C36.0757 20.7918 36.1702 20.4825 36.3593 20.2969C36.5611 20.099 36.8258 20 37.1537 20H42.3703Z" fill="#576684"/>
<path d="M39.481 3C40.1757 3 40.9041 3.20815 41.2581 3.80597C41.4968 4.209 41.6312 4.67237 41.6312 5.19381C41.6312 5.57869 41.5288 5.96357 41.3239 6.34845C41.1395 6.71409 40.9039 7.06048 40.617 7.38763L35.4539 13.2186H40.614C41.1486 13.2186 41.6636 13.4976 41.8247 14.0073C41.9372 14.3634 42 14.7356 42 15.0948C42 15.7684 41.8361 16.2591 41.5083 16.567C41.2009 16.8557 40.7809 17 40.2482 17H31.1502C30.4555 17 29.7269 16.7921 29.3726 16.1944C29.1366 15.7964 29 15.3344 29 14.8062C29 14.4213 29.0922 14.046 29.2766 13.6804C29.4815 13.2955 29.7273 12.9395 30.0142 12.6124L35.3002 6.78144H30.5089C29.9743 6.78144 29.4562 6.50392 29.2936 5.99473C29.1818 5.64496 29.1229 5.28116 29.1229 4.90515C29.1229 4.23161 29.2766 3.75051 29.5839 3.46185C29.9117 3.15395 30.342 3 30.8747 3H39.481Z" fill="#576684"/>
<path fill-rule="evenodd" clip-rule="evenodd" d="M22.0718 13C23.3867 13 24.4527 14.1453 24.4527 15.5582V23.9157C24.4527 24.1921 24.5549 24.4572 24.7368 24.6527L30.3027 30.633C31.2324 31.632 31.2324 33.2517 30.3027 34.2507C29.3729 35.2498 27.8654 35.2498 26.9356 34.2507L20.0561 28.1415C19.3292 27.4959 18.9385 26.5119 19.0079 25.5013L19.6909 15.5582C19.6909 14.1453 20.7568 13 22.0718 13Z" fill="#576684"/>
</svg>