<!-- Copyright © Ewsgit 2022. -->
<!-- Licensed under the MIT License - https://ewsgit.github.io/devdash/copyright -->

<svg xmlns="http://www.w3.org/2000/svg" width="48" height="48" fill="none" viewBox="0 0 48 48"><path fill="#ACB4C9" d="M6.47884 11.4845C6.64705 9.76633 7.77606 8.41068 9.46811 8.06812C11.9299 7.56972 16.405 7 24 7C31.595 7 36.0701 7.56972 38.5319 8.06812C40.2239 8.41068 41.353 9.76633 41.5212 11.4845C41.7508 13.8304 42 17.9907 42 25C42 32.0093 41.7508 36.1696 41.5212 38.5155C41.353 40.2337 40.2239 41.5893 38.5319 41.9319C36.0701 42.4303 31.595 43 24 43C16.405 43 11.9299 42.4303 9.46811 41.9319C7.77606 41.5893 6.64705 40.2337 6.47884 38.5155C6.24918 36.1696 6 32.0093 6 25C6 17.9907 6.24918 13.8304 6.47884 11.4845Z"/><path fill="#576684" d="M43.9962 12.9104C44.0672 14.048 43.1416 15 41.9845 15H6.01548C4.85836 15 3.93279 14.048 4.00383 12.9104C4.08707 11.5775 4.17828 10.5174 4.26557 9.68481C4.44562 7.96757 5.58865 6.60848 7.30294 6.24901C10.0088 5.68162 15.1096 5 24 5C32.8904 5 37.9912 5.68162 40.6971 6.24901C42.4114 6.60848 43.5544 7.96757 43.7344 9.68481C43.8217 10.5173 43.9129 11.5775 43.9962 12.9104Z"/><path fill="#576684" d="M15 22.1389C15 21.0901 15.8085 20.2225 16.8561 20.1717C18.4725 20.0932 21.0205 20 24 20C26.9795 20 29.5275 20.0932 31.1439 20.1717C32.1915 20.2225 33 21.0901 33 22.1389V22.8611C33 23.9099 32.1915 24.7775 31.1439 24.8283C29.5275 24.9068 26.9795 25 24 25C21.0205 25 18.4725 24.9068 16.8561 24.8283C15.8085 24.7775 15 23.9099 15 22.8611V22.1389Z"/></svg>