<!-- Copyright © Ewsgit 2022. -->
<!-- Licensed under the MIT License - https://ewsgit.github.io/devdash/copyright -->

<svg xmlns="http://www.w3.org/2000/svg" width="48" height="48" fill="none" viewBox="0 0 48 48"><path fill="#576684" fill-rule="evenodd" d="M24 4C32.7681 4 40.149 9.93927 42.3391 18.0142C44.3895 18.1863 46 19.9051 46 22V26C46 28.0501 44.4576 29.7401 42.47 29.9727C41.968 38.08 34.7337 45 26.5 45C25.6716 45 25 44.3284 25 43.5C25 42.6716 25.6716 42 26.5 42C33.067 42 38.9511 36.436 39.4606 30H39H37V24C37 16.8203 31.1797 11 24 11C16.8203 11 11 16.8203 11 24V30H9H6.33102H6C3.79086 30 2 28.2091 2 26V22C2 19.9051 3.61047 18.1863 5.66091 18.0142C7.85099 9.93927 15.2319 4 24 4Z" clip-rule="evenodd"/><path fill="#ACB4C9" d="M40 24C40 32.8366 32.8366 40 24 40C15.1634 40 8 32.8366 8 24C8 15.1634 15.1634 8 24 8C32.8366 8 40 15.1634 40 24Z"/><path fill="#576684" fill-rule="evenodd" d="M20 27.5C20.8284 27.5 21.5 28.1716 21.5 29C21.5 30.3807 22.6193 31.5 24 31.5C25.3807 31.5 26.5 30.3807 26.5 29C26.5 28.1716 27.1716 27.5 28 27.5C28.8284 27.5 29.5 28.1716 29.5 29C29.5 32.0376 27.0376 34.5 24 34.5C20.9624 34.5 18.5 32.0376 18.5 29C18.5 28.1716 19.1716 27.5 20 27.5Z" clip-rule="evenodd"/><path fill="#576684" d="M19 21C19 22.1046 18.1046 23 17 23C15.8954 23 15 22.1046 15 21C15 19.8954 15.8954 19 17 19C18.1046 19 19 19.8954 19 21Z"/><path fill="#576684" d="M33 21C33 22.1046 32.1046 23 31 23C29.8954 23 29 22.1046 29 21C29 19.8954 29.8954 19 31 19C32.1046 19 33 19.8954 33 21Z"/></svg>