<!-- Copyright © Ewsgit 2022. -->
<!-- Licensed under the MIT License - https://ewsgit.github.io/devdash/copyright -->

<svg width="48" height="48" viewBox="0 0 48 48" fill="none" xmlns="http://www.w3.org/2000/svg">
<circle r="21" transform="matrix(-1 0 0 1 24 24)" fill="#ACB4C9"/>
<path d="M30 21C33.3137 21 36 18.3137 36 15C36 11.6863 33.3137 9 30 9C26.6863 9 24 11.6863 24 15C24 15.4096 24.041 15.8096 24.1192 16.1961L18.8219 19.3745C17.784 18.5159 16.4522 18 15 18C11.6863 18 9 20.6863 9 24C9 27.3137 11.6863 30 15 30C16.4002 30 17.6883 29.5204 18.7092 28.7165L24.0657 32.109C24.0224 32.3997 24 32.6972 24 33C24 36.3137 26.6863 39 30 39C33.3137 39 36 36.3137 36 33C36 29.6863 33.3137 27 30 27C28.4408 27 27.0204 27.5948 25.9535 28.5698L20.8503 25.3378C20.9483 24.9076 21 24.4599 21 24C21 23.5904 20.959 23.1905 20.8808 22.804L26.1782 19.6255C27.2161 20.4841 28.5478 21 30 21Z" fill="#576684"/>
</svg>