<!-- Copyright © Ewsgit 2022. -->
<!-- Licensed under the MIT License - https://ewsgit.github.io/devdash/copyright -->

<svg width="48" height="48" viewBox="0 0 48 48" fill="none" xmlns="http://www.w3.org/2000/svg">
<path d="M5.1925 28.0422C5.25064 29.3199 6.14766 30.378 7.4127 30.5665C8.84372 30.7797 10.9413 31 13.5 31C16.0587 31 18.1563 30.7797 19.5873 30.5665C20.8523 30.378 21.7494 29.3199 21.8075 28.0422C21.896 26.0984 22 22.7934 22 18C22 13.2066 21.896 9.90158 21.8075 7.9578C21.7494 6.68012 20.8523 5.62203 19.5873 5.43353C18.1563 5.2203 16.0587 5 13.5 5C10.9413 5 8.84372 5.2203 7.4127 5.43353C6.14766 5.62203 5.25064 6.68012 5.1925 7.9578C5.10404 9.90158 5 13.2066 5 18C5 22.7934 5.10404 26.0984 5.1925 28.0422Z" fill="#ACB4C9"/>
<path d="M19.8666 44.8502C20.7963 44.8035 21.5938 44.2693 21.7573 43.353C21.8886 42.617 22 41.5391 22 40C22 38.4609 21.8886 37.383 21.7573 36.647C21.5938 35.7307 20.7963 35.1965 19.8666 35.1498C18.5165 35.0821 16.303 35 13.5 35C10.697 35 8.48349 35.0821 7.13335 35.1498C6.20371 35.1965 5.40618 35.7307 5.24268 36.647C5.11137 37.383 5 38.4609 5 40C5 41.5391 5.11137 42.617 5.24268 43.353C5.40618 44.2693 6.20371 44.8035 7.13335 44.8502C8.48349 44.9179 10.697 45 13.5 45C16.303 45 18.5165 44.9179 19.8666 44.8502Z" fill="#ACB4C9"/>
<path d="M42.8075 21.9578C42.7494 20.6801 41.8523 19.622 40.5873 19.4335C39.1563 19.2203 37.0587 19 34.5 19C31.9413 19 29.8437 19.2203 28.4127 19.4335C27.1477 19.622 26.2506 20.6801 26.1925 21.9578C26.104 23.9016 26 27.2066 26 32C26 36.7934 26.104 40.0984 26.1925 42.0422C26.2506 43.3199 27.1477 44.378 28.4127 44.5665C29.8437 44.7797 31.9413 45 34.5 45C37.0587 45 39.1563 44.7797 40.5873 44.5665C41.8523 44.378 42.7494 43.3199 42.8075 42.0422C42.896 40.0984 43 36.7934 43 32C43 27.2066 42.896 23.9016 42.8075 21.9578Z" fill="#ACB4C9"/>
<path d="M28.1334 5.14982C27.2037 5.19649 26.4062 5.7307 26.2427 6.64704C26.1114 7.38301 26 8.46089 26 10C26 11.5391 26.1114 12.617 26.2427 13.353C26.4062 14.2693 27.2037 14.8035 28.1334 14.8502C29.4835 14.9179 31.697 15 34.5 15C37.303 15 39.5165 14.9179 40.8666 14.8502C41.7963 14.8035 42.5938 14.2693 42.7573 13.353C42.8886 12.617 43 11.5391 43 10C43 8.46089 42.8886 7.38301 42.7573 6.64703C42.5938 5.73069 41.7963 5.19649 40.8666 5.14982C39.5165 5.08205 37.303 5 34.5 5C31.697 5 29.4835 5.08205 28.1334 5.14982Z" fill="#ACB4C9"/>
</svg>