<!-- Copyright © Ewsgit 2022. -->
<!-- Licensed under the MIT License - https://ewsgit.github.io/devdash/copyright -->

<svg width="48" height="48" viewBox="0 0 48 48" fill="none" xmlns="http://www.w3.org/2000/svg">
<path d="M15.4739 29.6953C15.3088 28.691 14.4356 27.9658 13.432 28.0012C10.5607 28.1027 7.71457 28.2134 5.89606 28.2857C4.80214 28.3292 3.95133 29.2542 4.00216 30.363C4.13201 33.1953 4.45424 38.3662 5.15962 41.3656C5.48313 42.7412 6.67876 43.5154 8.06978 43.6184C10.4058 43.7915 15.0729 44 24 44C32.9271 44 37.5942 43.7915 39.9302 43.6184C41.3212 43.5154 42.5169 42.7412 42.8404 41.3656C43.5458 38.3662 43.868 33.1953 43.9978 30.363C44.0487 29.2542 43.1979 28.3292 42.1039 28.2857C40.2854 28.2134 37.4393 28.1027 34.568 28.0012C33.5644 27.9658 32.6912 28.691 32.5261 29.6953L32.2893 31.1356C32.1284 32.1146 31.2929 32.8322 30.314 32.8322H17.686C16.7071 32.8322 15.8716 32.1146 15.7107 31.1356L15.4739 29.6953Z" fill="#ACB4C9"/>
<path d="M28.3163 16.4458C29.7757 16.4092 30.9578 16.3555 31.9098 16.2956C33.8023 16.1766 34.6224 14.3887 33.47 12.8864C32.6978 11.8799 31.6623 10.6039 30.29 9.03442C28.267 6.72088 26.732 5.36385 25.685 4.57887C24.6556 3.80712 23.3436 3.80702 22.3142 4.57871C21.267 5.36368 19.732 6.72073 17.7093 9.03442C16.3375 10.6035 15.3022 11.8793 14.5301 12.8857C13.3774 14.3883 14.1977 16.1767 16.0906 16.2957C17.0424 16.3555 18.2243 16.4092 19.6833 16.4458C19.6781 17.1127 19.6752 17.8463 19.6752 18.6526C19.6752 21.7881 19.7196 23.8258 19.7672 25.1091C19.8144 26.3827 20.4285 27.5473 21.6811 27.7984C22.268 27.916 23.0275 28 23.9998 28C24.9721 28 25.7316 27.916 26.3185 27.7984C27.5711 27.5473 28.1852 26.3827 28.2324 25.1091C28.28 23.8258 28.3244 21.7881 28.3244 18.6526C28.3244 17.8463 28.3215 17.1127 28.3163 16.4458Z" fill="#576684"/>
</svg>