<!-- Copyright © Ewsgit 2022. -->
<!-- Licensed under the MIT License - https://ewsgit.github.io/devdash/copyright -->

<svg xmlns="http://www.w3.org/2000/svg" width="48" height="48" fill="none" viewBox="0 0 48 48"><circle r="21" fill="#ACB4C9" transform="matrix(-1 0 0 1 24 24)"/><path fill="#576684" d="M21.3924 15.5322C19.9774 14.395 18.2683 15.1722 18.1638 16.992C18.1043 18.0261 18.053 19.341 18.0243 21.0016C17.6991 21.0005 17.3579 21 17 21C14.3264 21 12.5855 21.0306 11.4865 21.0635C10.3819 21.0965 9.32098 21.5724 9.1145 22.6581C9.04537 23.0215 9 23.4642 9 24C9 24.5358 9.04537 24.9785 9.1145 25.3419C9.32098 26.4276 10.3819 26.9035 11.4865 26.9365C12.5855 26.9694 14.3264 27 17 27C17.3579 27 17.6991 26.9995 18.0243 26.9984C18.053 28.6587 18.1043 29.9736 18.1637 31.0077C18.2683 32.8278 19.9778 33.6051 21.3931 32.4677C22.2443 31.7836 23.2982 30.8913 24.5714 29.7385C26.592 27.9089 27.7842 26.5167 28.4782 25.5621C29.174 24.605 29.1739 23.3958 28.4781 22.4387C27.784 21.4842 26.5919 20.0921 24.5714 18.2622C23.2978 17.1089 22.2437 16.2163 21.3924 15.5322Z"/><path fill="#576684" d="M35.209 14.0625C36.2057 14.1762 36.7715 15.0264 36.8304 16.0279C36.9113 17.4042 37 19.8575 37 24C37 28.1425 36.9113 30.5958 36.8304 31.9721C36.7715 32.9736 36.2057 33.8238 35.209 33.9375C34.8763 33.9755 34.4768 34 34 34C33.5232 34 33.1237 33.9755 32.791 33.9375C31.7943 33.8238 31.2285 32.9736 31.1696 31.9721C31.0887 30.5958 31 28.1425 31 24C31 19.8575 31.0887 17.4042 31.1696 16.0279C31.2285 15.0264 31.7943 14.1762 32.791 14.0625C33.1237 14.0245 33.5232 14 34 14C34.4768 14 34.8763 14.0245 35.209 14.0625Z"/></svg>