<!-- Copyright © Ewsgit 2022. -->
<!-- Licensed under the MIT License - https://ewsgit.github.io/devdash/copyright -->

<svg width="48" height="48" viewBox="0 0 48 48" fill="none" xmlns="http://www.w3.org/2000/svg">
<path d="M4.52758 12.5257C4.7157 10.7823 5.89653 9.43803 7.61934 9.11162C10.3011 8.60351 15.3145 8 24 8C32.6855 8 37.6989 8.6035 40.3807 9.11161C42.1035 9.43803 43.2843 10.7823 43.4724 12.5257C43.7263 14.8789 44 19.0315 44 26C44 32.9685 43.7263 37.1211 43.4724 39.4743C43.2843 41.2177 42.1035 42.562 40.3807 42.8884C37.6989 43.3965 32.6855 44 24 44C15.3145 44 10.3011 43.3965 7.61934 42.8884C5.89653 42.562 4.7157 41.2177 4.52758 39.4743C4.27365 37.1211 4 32.9685 4 26C4 19.0315 4.27365 14.8789 4.52758 12.5257Z" fill="#ACB4C9"/>
<path d="M35.8301 4.06251C36.4552 4.11405 36.8848 4.57195 36.9272 5.19777C36.9662 5.77271 37 6.65835 37 8C37 8.21552 36.9991 8.41928 36.9975 8.61187C38.3998 8.77264 39.5123 8.94713 40.3805 9.11162C42.1033 9.43803 43.2841 10.7823 43.4722 12.5257C43.5678 13.411 43.6661 14.5511 43.7516 16H4.24805C4.33354 14.5511 4.43187 13.411 4.52741 12.5257C4.71552 10.7823 5.89635 9.43804 7.61917 9.11162C8.48739 8.94711 9.60001 8.77261 11.0025 8.61183C11.0009 8.41925 11 8.21551 11 8C11 6.65835 11.0338 5.77271 11.0728 5.19777C11.1152 4.57195 11.5448 4.11405 12.1699 4.06251C12.5953 4.02744 13.1876 4 14 4C14.8124 4 15.4047 4.02744 15.8301 4.06251C16.4552 4.11405 16.8848 4.57195 16.9272 5.19777C16.9662 5.77271 17 6.65835 17 8C17 8.05079 17 8.10093 16.9999 8.15042C19.0129 8.05688 21.3333 8 23.9998 8C26.6665 8 28.987 8.05689 31.0001 8.15044L31 8C31 6.65835 31.0338 5.77271 31.0728 5.19777C31.1152 4.57195 31.5448 4.11405 32.1699 4.06251C32.5953 4.02744 33.1876 4 34 4C34.8124 4 35.4047 4.02744 35.8301 4.06251Z" fill="#576684"/>
<path d="M11.0581 24.2988C11.1164 23.1494 11.8628 22.266 13.0068 22.1395C13.7214 22.0606 14.6948 22 16 22C17.3052 22 18.2786 22.0606 18.9932 22.1395C20.1372 22.266 20.8836 23.1494 20.9419 24.2988C20.9754 24.9581 21 25.8382 21 27C21 28.1618 20.9754 29.0419 20.9419 29.7012C20.8836 30.8506 20.1372 31.734 18.9932 31.8605C18.2786 31.9394 17.3052 32 16 32C14.6948 32 13.7214 31.9394 13.0068 31.8605C11.8628 31.734 11.1164 30.8506 11.0581 29.7012C11.0246 29.0419 11 28.1618 11 27C11 25.8382 11.0246 24.9581 11.0581 24.2988Z" fill="#576684"/>
</svg>