<!-- Copyright © Ewsgit 2022. -->
<!-- Licensed under the MIT License - https://ewsgit.github.io/devdash/copyright -->

<svg width="48" height="48" viewBox="0 0 48 48" fill="none" xmlns="http://www.w3.org/2000/svg">
<path d="M24 7C13.1915 7 7.85915 7.45634 5.53666 7.75248C4.6263 7.86856 4 8.64382 4 9.56156L4.00001 12.5192C4 13.4741 4.3383 14.395 4.99703 15.0863C6.86035 17.0416 11.2618 21.3369 17.5783 25.4798C18.099 25.8213 18.4404 26.382 18.4954 27.0023C19.0469 33.2256 19.5447 37.4642 19.8062 39.5352C19.9128 40.3791 20.6312 41 21.4819 41C21.8193 41 22.1492 40.9001 22.43 40.7129L26.8575 37.7613C27.5976 37.2679 28.1385 36.5372 28.3108 35.6646C28.5835 34.2832 29.0082 31.6553 29.4738 27.0036C29.5352 26.3899 29.875 25.8379 30.391 25.4999C36.7239 21.3508 41.1366 17.0447 43.003 15.0863C43.6617 14.395 44 13.4741 44 12.5193V9.56155C44 8.64382 43.3737 7.86856 42.4633 7.75248C40.1409 7.45634 34.8085 7 24 7Z" fill="#ACB4C9"/>
</svg>