<!-- Copyright © Ewsgit 2022. -->
<!-- Licensed under the MIT License - https://ewsgit.github.io/devdash/copyright -->

<svg width="48" height="48" viewBox="0 0 48 48" fill="none" xmlns="http://www.w3.org/2000/svg">
<path d="M24 44C31.3889 44 36.2709 43.7209 39.2339 43.4572C41.5435 43.2517 43.3251 41.5519 43.5697 39.2412C43.7944 37.1186 44 34.0594 44 29.9701C44 23.7537 43.5249 19.9176 43.2297 18.1337C43.0988 17.3431 42.763 16.6085 42.2361 16.0056C38.77 12.0391 30.5618 5.62071 24.9735 4.12816C24.3338 3.95728 23.6662 3.95728 23.0265 4.12816C17.4382 5.62071 9.23003 12.0391 5.76388 16.0056C5.23703 16.6085 4.90118 17.3431 4.77032 18.1337C4.47507 19.9176 4 23.7537 4 29.9701C4 34.0594 4.20557 37.1186 4.43029 39.2412C4.67493 41.5519 6.45647 43.2517 8.76607 43.4572C11.7291 43.7209 16.6111 44 24 44Z" fill="#ACB4C9"/>
<path d="M14 36C14 35.0036 14.7782 34.1839 15.7739 34.1476C17.5466 34.0831 20.5063 34 24 34C27.4937 34 30.4534 34.0831 32.2261 34.1476C33.2218 34.1839 34 35.0036 34 36C34 36.9964 33.2218 37.8161 32.2261 37.8524C30.4534 37.9169 27.4937 38 24 38C20.5063 38 17.5466 37.9169 15.7739 37.8524C14.7782 37.8161 14 36.9964 14 36Z" fill="#576684"/>
</svg>