<!-- Copyright © Ewsgit 2022. -->
<!-- Licensed under the MIT License - https://ewsgit.github.io/devdash/copyright -->

<svg width="48" height="48" viewBox="0 0 48 48" fill="none" xmlns="http://www.w3.org/2000/svg">
<path d="M7 27C7 36.3888 14.6112 44 24 44C33.3888 44 41 36.3888 41 27C41 17.6112 33.3888 10 24 10C14.6112 10 7 17.6112 7 27Z" fill="#ACB4C9"/>
<path d="M19 23.9355C19 25.0044 18.1046 25.871 17 25.871C15.8954 25.871 15 25.0044 15 23.9355C15 22.8665 15.8954 22 17 22C18.1046 22 19 22.8665 19 23.9355Z" fill="#576684"/>
<path d="M20 30.2258C20.8284 30.2258 21.5 30.8757 21.5 31.6774C21.5 33.0136 22.6193 34.0968 24 34.0968C25.3807 34.0968 26.5 33.0136 26.5 31.6774C26.5 30.8757 27.1716 30.2258 28 30.2258C28.8284 30.2258 29.5 30.8757 29.5 31.6774C29.5 34.617 27.0376 37 24 37C20.9624 37 18.5 34.617 18.5 31.6774C18.5 30.8757 19.1716 30.2258 20 30.2258Z" fill="#576684"/>
<path d="M31 25.871C29.8954 25.871 29 25.0044 29 23.9355C29 22.8665 29.8954 22 31 22C32.1046 22 33 22.8665 33 23.9355C33 25.0044 32.1046 25.871 31 25.871Z" fill="#576684"/>
<path d="M18.5759 7.72635C19.0019 7.95213 19.5224 7.81533 19.7939 7.41136C20.7295 6.01909 22.229 3.78774 23.144 2.42618C23.5259 1.85794 24.3457 1.85794 24.7275 2.42618C25.6425 3.78773 27.1421 6.01909 28.0777 7.41136C28.3492 7.81533 28.8697 7.95213 29.2957 7.72635C30.7463 6.95757 32.3605 6.03096 33.5748 5.31924C34.3015 4.89327 35.1728 5.5408 34.9702 6.37063C34.5891 7.93138 33.9997 10.1756 33.2325 12.584C33.1446 12.86 32.9407 13.0783 32.6666 13.156C31.7151 13.4257 29.0848 14 23.9358 14C18.8413 14 16.2125 13.4378 15.2358 13.1646C14.9443 13.0831 14.732 12.8435 14.6521 12.546C13.9641 9.98425 13.4183 7.95887 13.0363 6.54414C12.8062 5.69171 13.7158 4.97971 14.4677 5.41926C15.66 6.11627 17.1924 6.9931 18.5759 7.72635Z" fill="#576684"/>
</svg>