<!-- Copyright © Ewsgit 2022. -->
<!-- Licensed under the MIT License - https://ewsgit.github.io/devdash/copyright -->

<svg width="48" height="48" viewBox="0 0 48 48" fill="none" xmlns="http://www.w3.org/2000/svg">
<circle cx="24" cy="24" r="20" fill="#ACB4C9"/>
<path d="M15.0081 21.1168C14.0573 21.1509 13.2223 21.696 13.0889 22.638C13.0361 23.011 13 23.4625 13 24C13 24.5375 13.0361 24.989 13.0889 25.362C13.2223 26.304 14.0573 26.8491 15.0081 26.8832C16.5004 26.9368 19.2641 27 24 27C28.7359 27 31.4996 26.9368 32.9919 26.8832C33.9427 26.8491 34.7777 26.304 34.9111 25.362C34.9639 24.989 35 24.5375 35 24C35 23.4625 34.9639 23.011 34.9111 22.638C34.7777 21.696 33.9427 21.1509 32.9919 21.1168C31.4996 21.0632 28.7359 21 24 21C19.2641 21 16.5004 21.0632 15.0081 21.1168Z" fill="#576684"/>
</svg>