<!-- Copyright © Ewsgit 2022. -->
<!-- Licensed under the MIT License - https://ewsgit.github.io/devdash/copyright -->

<svg xmlns="http://www.w3.org/2000/svg" width="48" height="48" fill="none" viewBox="0 0 48 48"><path fill="#576684" fill-rule="evenodd" d="M24 45C12.402 45 3 35.598 3 24C3 12.402 12.402 3 24 3C35.598 3 45 12.402 45 24C45 35.598 35.598 45 24 45ZM24 32.4C19.3608 32.4 15.6 28.6392 15.6 24C15.6 19.3608 19.3608 15.6 24 15.6C28.6392 15.6 32.4 19.3608 32.4 24C32.4 28.6392 28.6392 32.4 24 32.4Z" clip-rule="evenodd"/><path fill="#ACB4C9" d="M31.4965 27.7937C32.0744 26.6542 32.4 25.3651 32.4 24C32.4 22.7806 32.1402 21.6219 31.6729 20.5763C35.9011 18.3113 39.7588 15.9956 42.591 14.2248C44.1293 17.1444 45 20.4705 45 24C45 27.5859 44.1012 30.9619 42.5166 33.915C39.6519 32.223 35.7568 30.0011 31.4965 27.7937Z"/><path fill="#ACB4C9" d="M20.3065 16.4535C21.4212 15.9069 22.6748 15.6 24 15.6C25.3459 15.6 26.6179 15.9165 27.7456 16.4792C30.0159 12.2491 32.332 8.39658 34.0946 5.58088C31.0991 3.93571 27.6588 3 24 3C20.447 3 17.1001 3.88237 14.1664 5.43992C15.8386 8.26167 18.0731 12.1624 20.3065 16.4535Z"/><path fill="#ACB4C9" d="M5.61146 34.1501C3.94731 31.1416 3 27.6814 3 24C3 20.3709 3.92059 16.9567 5.54098 13.9784C8.313 15.7204 12.1709 18.0514 16.4321 20.3505C15.8989 21.4541 15.6 22.6922 15.6 24C15.6 25.4514 15.9681 26.8169 16.6161 28.0081C12.3182 30.2482 8.41833 32.4851 5.61146 34.1501Z"/><path fill="#ACB4C9" d="M34.0944 42.4192C31.099 44.0643 27.6588 45 24 45C20.447 45 17.1002 44.1177 14.1665 42.5601C15.8388 39.7383 18.0733 35.8376 20.3066 31.5466C21.4213 32.0931 22.6748 32.4 24 32.4C25.3459 32.4 26.6178 32.0835 27.7454 31.5208C30.0158 35.751 32.3318 39.6035 34.0944 42.4192Z"/></svg>