<!-- Copyright © Ewsgit 2022. -->
<!-- Licensed under the MIT License - https://ewsgit.github.io/devdash/copyright -->

<svg width="48" height="48" viewBox="0 0 48 48" fill="none" xmlns="http://www.w3.org/2000/svg">
<path d="M4 13C4 7.76672 7.88449 4.4244 13.113 4.20106C15.8492 4.08419 19.4124 4 24 4C28.5876 4 32.1508 4.08419 34.887 4.20106C40.1155 4.4244 44 7.76672 44 13C44 18.2333 40.1155 21.5756 34.887 21.7989C32.1508 21.9158 28.5876 22 24 22C19.4124 22 15.8492 21.9158 13.113 21.7989C7.88449 21.5756 4 18.2333 4 13Z" fill="#576684"/>
<circle cx="35" cy="13" r="5" fill="#ACB4C9"/>
<path d="M44 35C44 29.7667 40.1155 26.4244 34.887 26.2011C32.1508 26.0842 28.5876 26 24 26C19.4124 26 15.8492 26.0842 13.113 26.2011C7.88449 26.4244 4 29.7667 4 35C4 40.2333 7.88449 43.5756 13.113 43.7989C15.8492 43.9158 19.4124 44 24 44C28.5876 44 32.1508 43.9158 34.887 43.7989C40.1155 43.5756 44 40.2333 44 35Z" fill="#ACB4C9"/>
<circle r="5" transform="matrix(-1 0 0 1 13 35)" fill="#576684"/>
</svg>