<!-- Copyright © Ewsgit 2022. -->
<!-- Licensed under the MIT License - https://ewsgit.github.io/devdash/copyright -->

<svg width="48" height="48" viewBox="0 0 48 48" fill="none" xmlns="http://www.w3.org/2000/svg">
<path fill-rule="evenodd" clip-rule="evenodd" d="M6.43936 17.6192L16.4912 15.7015L21.3715 6.58498C22.5028 4.47167 25.4972 4.47167 26.6285 6.58498L31.5088 15.7015L41.5606 17.6192C43.8814 18.0619 44.8033 20.9271 43.1858 22.67L36.1495 30.252L37.4648 40.5784C37.7679 42.9581 35.3488 44.7329 33.2111 43.6991L24 39.2447L14.7889 43.6991C12.6512 44.7329 10.2321 42.9581 10.5352 40.5784L11.8505 30.252L4.81419 22.67C3.19669 20.9271 4.11859 18.0619 6.43936 17.6192ZM27.8058 19.3738C28.0917 19.9079 28.5998 20.2831 29.1892 20.3956L37.063 21.8977L31.5509 27.8373C31.1425 28.2774 30.95 28.8796 31.0263 29.4786L32.0538 37.5459L24 33.6511L23.9999 12.2647L27.8058 19.3738Z" fill="#ACB4C9"/>
</svg>