<!-- Copyright © Ewsgit 2022. -->
<!-- Licensed under the MIT License - https://ewsgit.github.io/devdash/copyright -->

<svg xmlns="http://www.w3.org/2000/svg" width="48" height="48" fill="none" viewBox="0 0 48 48"><path fill="#576684" d="M22.8188 2.06859C21.7946 2.19941 21.2665 3.12519 21.2301 4.15709C21.1415 6.67185 21 12.4888 21 24C21 35.5112 21.1415 41.3281 21.2301 43.8429C21.2665 44.8748 21.7946 45.8006 22.8188 45.9314C23.1459 45.9732 23.5364 46 24 46C24.4636 46 24.8541 45.9732 25.1812 45.9314C26.2054 45.8006 26.7335 44.8748 26.7699 43.8429C26.8585 41.3281 27 35.5112 27 24C27 12.4888 26.8585 6.67185 26.7699 4.15709C26.7335 3.12519 26.2054 2.19941 25.1812 2.06859C24.8541 2.02681 24.4636 2 24 2C23.5364 2 23.1459 2.02681 22.8188 2.06859Z"/><path fill="#ACB4C9" d="M14.0702 9.49468C14.1331 7.77713 15.1818 6.46173 16.8911 6.28211C18.355 6.12829 20.5962 6 24 6C27.4038 6 29.645 6.12829 31.1089 6.28211C32.8182 6.46173 33.8669 7.77713 33.9298 9.49468C33.9695 10.5769 34 12.0446 34 14C34 15.9554 33.9695 17.4231 33.9298 18.5053C33.8669 20.2229 32.8182 21.5383 31.1089 21.7179C29.645 21.8717 27.4038 22 24 22C20.5962 22 18.355 21.8717 16.8911 21.7179C15.1818 21.5383 14.1331 20.2229 14.0702 18.5053C14.0305 17.4231 14 15.9554 14 14C14 12.0446 14.0305 10.5769 14.0702 9.49468Z"/><path fill="#ACB4C9" d="M8.09271 29.8499C8.19184 27.9258 9.51006 26.533 11.4299 26.3711C13.6824 26.1812 17.5275 26 24 26C30.4725 26 34.3176 26.1812 36.5701 26.3711C38.4899 26.533 39.8082 27.9259 39.9073 29.8499C39.961 30.8917 40 32.2507 40 34C40 35.7493 39.961 37.1083 39.9073 38.1501C39.8082 40.0742 38.4899 41.467 36.5701 41.6289C34.3176 41.8188 30.4725 42 24 42C17.5275 42 13.6824 41.8188 11.4299 41.6289C9.51006 41.467 8.19184 40.0742 8.09271 38.1501C8.03903 37.1083 8 35.7493 8 34C8 32.2507 8.03903 30.8917 8.09271 29.8499Z"/></svg>