<!-- Copyright © Ewsgit 2022. -->
<!-- Licensed under the MIT License - https://ewsgit.github.io/devdash/copyright -->

<svg width="48" height="48" viewBox="0 0 48 48" fill="none" xmlns="http://www.w3.org/2000/svg">
<path d="M4.05041 7.07176C4.16121 8.15526 5.11103 8.73868 6.19944 8.77889C8.60506 8.86778 13.8837 9 24 9C34.1163 9 39.3949 8.86778 41.8006 8.77889C42.889 8.73868 43.8388 8.15526 43.9496 7.07176C43.9807 6.76795 44 6.41298 44 6C44 5.58702 43.9807 5.23205 43.9496 4.92824C43.8388 3.84475 42.889 3.26132 41.8006 3.22111C39.3949 3.13222 34.1163 3 24 3C13.8837 3 8.60506 3.13222 6.19944 3.22111C5.11103 3.26132 4.16121 3.84475 4.05041 4.92825C4.01934 5.23205 4 5.58702 4 6C4 6.41298 4.01934 6.76795 4.05041 7.07176Z" fill="#576684"/>
<path d="M9.49468 32.9298C7.77713 32.8669 6.46173 31.8182 6.28211 30.1089C6.12829 28.645 6 26.4038 6 23C6 19.5962 6.12829 17.355 6.28211 15.8911C6.46173 14.1818 7.77713 13.1331 9.49468 13.0702C10.5769 13.0305 12.0446 13 14 13C15.9554 13 17.4231 13.0305 18.5053 13.0702C20.2229 13.1331 21.5383 14.1818 21.7179 15.8911C21.8717 17.355 22 19.5962 22 23C22 26.4038 21.8717 28.645 21.7179 30.1089C21.5383 31.8182 20.2229 32.8669 18.5053 32.9298C17.4231 32.9695 15.9554 33 14 33C12.0446 33 10.5769 32.9695 9.49468 32.9298Z" fill="#ACB4C9"/>
<path d="M29.8499 44.9073C27.9258 44.8082 26.533 43.4899 26.3711 41.5701C26.1812 39.3176 26 35.4725 26 29C26 22.5275 26.1812 18.6824 26.3711 16.4299C26.533 14.5101 27.9258 13.1918 29.8499 13.0927C30.8917 13.039 32.2507 13 34 13C35.7493 13 37.1083 13.039 38.1501 13.0927C40.0742 13.1918 41.467 14.5101 41.6289 16.4299C41.8188 18.6824 42 22.5275 42 29C42 35.4725 41.8188 39.3176 41.6289 41.5701C41.467 43.4899 40.0742 44.8082 38.1501 44.9073C37.1083 44.961 35.7493 45 34 45C32.2507 45 30.8917 44.961 29.8499 44.9073Z" fill="#ACB4C9"/>
</svg>