<!-- Copyright © Ewsgit 2022. -->
<!-- Licensed under the MIT License - https://ewsgit.github.io/devdash/copyright -->

<svg width="48" height="48" viewBox="0 0 48 48" fill="none" xmlns="http://www.w3.org/2000/svg">
<path fill-rule="evenodd" clip-rule="evenodd" d="M31 17.166L24.8162 34.3056H13.8629C13.1223 36.6285 12.4528 38.9639 11.8096 41.312C11.6258 41.9828 11.1058 42.524 10.4171 42.6784C9.51021 42.8817 8.59499 43 7.64597 43C5.11292 43 2 42.314 2 39.352C2 39.352 8.28649 18.7142 12.7778 7.75047C13.1071 6.94675 13.6941 6.25948 14.5134 5.9409C16.2907 5.24983 18.3841 5 20.2067 5C22.8698 5 27.0477 5.43348 28.073 8.2832C28.073 8.2832 29.3143 12.0106 31 17.166ZM20.0859 13.688C20.1201 13.5832 20.2192 13.512 20.3312 13.512C20.4454 13.512 20.5459 13.5861 20.5781 13.6938C21.0926 15.4145 21.6266 17.13 22.1605 18.8454C22.9929 21.5196 23.8253 24.1938 24.5839 26.888H15.5123C16.2672 24.4762 17.124 22.0983 17.9807 19.7205C18.7028 17.7164 19.4248 15.7123 20.0859 13.688Z" fill="#ACB4C9"/>
<path d="M37.2896 37.136H27.9299C27.3953 38.8947 26.9099 40.6626 26.4439 42.4396C26.2679 43.1107 25.7677 43.6577 25.0987 43.7991C24.4935 43.927 23.8817 44 23.2501 44C21.3433 44 19 43.4584 19 41.12C19 41.12 23.6391 25.1476 27.0125 16.4304C27.3239 15.6255 27.8866 14.9324 28.6873 14.6394C29.9645 14.1721 31.4238 14 32.7053 14C34.7099 14 37.8549 14.3422 38.6267 16.592C38.6267 16.592 43.1641 30.8812 45.8199 40.0353C46.2858 41.6411 45.8755 43.495 44.2622 43.8347C43.6824 43.9568 43.0864 44 42.5425 44C40.3474 44 38.9808 43.2155 38.4357 41.024L37.2896 37.136ZM32.799 20.72C32.7148 20.72 32.6404 20.7755 32.6149 20.8571C31.5268 24.3521 30.219 27.7705 29.1715 31.28H36.0003C35.0628 27.788 33.9755 24.3385 32.9843 20.8616C32.9604 20.7777 32.8849 20.72 32.799 20.72Z" fill="#576684"/>
</svg>