<!-- Copyright © Ewsgit 2022. -->
<!-- Licensed under the MIT License - https://ewsgit.github.io/devdash/copyright -->

<svg width="48" height="48" viewBox="0 0 48 48" fill="none" xmlns="http://www.w3.org/2000/svg">
<path d="M14.1076 13.1726C14.0481 13.1749 13.9889 13.1773 13.93 13.1796C7.60674 13.4352 3 17.6715 3 24C3 30.3285 7.60674 34.5648 13.93 34.8204C16.5886 34.9278 19.9004 35 24 35C28.0996 35 31.4114 34.9278 34.07 34.8204C40.3933 34.5648 45 30.3285 45 24C45 19.0633 42.1967 15.3997 37.962 13.9057C37.5188 7.59023 33.2256 3.04872 26.7173 3.00252C26.483 3.00085 26.2439 3 26 3C25.756 3 25.517 3.00085 25.2827 3.00252C19.0291 3.04691 14.8206 7.24164 14.1076 13.1726Z" fill="#ACB4C9"/>
<path d="M15.08 44.3691C14.1803 45.9287 12.1878 46.463 10.6295 45.5626C9.07127 44.6622 8.53737 42.668 9.43703 41.1084C10.0227 40.0931 12.6523 38.2983 14.4165 37.1692C15.1306 36.7121 16.0373 37.2361 15.9988 38.0835C15.9039 40.1772 15.6656 43.3538 15.08 44.3691Z" fill="#576684"/>
<path d="M25.08 44.3691C24.1803 45.9287 22.1878 46.463 20.6295 45.5626C19.0713 44.6622 18.5374 42.668 19.437 41.1084C20.0227 40.0931 22.6523 38.2983 24.4165 37.1692C25.1306 36.7121 26.0373 37.2361 25.9988 38.0835C25.9039 40.1772 25.6656 43.3538 25.08 44.3691Z" fill="#576684"/>
<path d="M35.08 44.3691C34.1803 45.9287 32.1878 46.463 30.6295 45.5626C29.0713 44.6622 28.5374 42.668 29.437 41.1084C30.0227 40.0931 32.6523 38.2983 34.4165 37.1692C35.1306 36.7121 36.0373 37.2361 35.9988 38.0835C35.9039 40.1772 35.6656 43.3538 35.08 44.3691Z" fill="#576684"/>
</svg>