<!-- Copyright © Ewsgit 2022. -->
<!-- Licensed under the MIT License - https://ewsgit.github.io/devdash/copyright -->

<svg xmlns="http://www.w3.org/2000/svg" width="48" height="48" fill="none" viewBox="0 0 48 48"><circle cx="24" cy="24" r="20" fill="#ACB4C9" transform="rotate(-90 24 24)"/><path fill="#576684" d="M14.5345 20.0989C13.3907 21.6193 14.175 23.4626 16.0093 23.5825C17.0789 23.6524 18.4454 23.7146 20.1782 23.7526C20.239 28.3482 20.41 32.6929 20.5369 34.8837C20.6184 36.2918 21.4444 36.827 22.774 36.951C23.0989 36.9814 23.4633 37 23.8681 37C24.317 37 24.7162 36.9771 25.0671 36.9407C26.3384 36.809 27.1457 36.3444 27.2638 35C27.4549 32.8238 27.719 28.4306 27.8119 23.7528C29.5492 23.7149 30.9187 23.6526 31.9904 23.5825C33.825 23.4626 34.6094 21.6188 33.4654 20.0981C32.6939 19.0725 31.6605 17.7736 30.2925 16.1772C28.1941 13.7284 26.6205 12.3296 25.5718 11.5432C24.6059 10.8189 23.395 10.819 22.4291 11.5433C21.3805 12.3298 19.8069 13.7285 17.7083 16.1772C16.3397 17.774 15.3061 19.0731 14.5345 20.0989Z"/></svg>