<!-- Copyright © Ewsgit 2022. -->
<!-- Licensed under the MIT License - https://ewsgit.github.io/devdash/copyright -->

<svg width="48" height="48" viewBox="0 0 48 48" fill="none" xmlns="http://www.w3.org/2000/svg">
<path d="M43.071 20.6791C45.9998 17.7503 47.1151 13.4684 44.6243 10.1592C43.7952 9.05759 42.7565 7.83968 41.4584 6.54162C40.1603 5.24353 38.9424 4.20481 37.8408 3.3757C34.5315 0.884938 30.2496 2.00026 27.3209 4.92903L3.28695 28.963C2.73908 29.5109 2.36329 30.2051 2.27288 30.9746C2.05486 32.8303 1.77157 36.961 2.30644 43.8753C2.38144 44.8449 3.15514 45.6186 4.12473 45.6936C11.039 46.2284 15.1697 45.9451 17.0253 45.7271C17.7948 45.6367 18.489 45.2609 19.0369 44.7131L43.071 20.6791Z" fill="#576684"/>
<path d="M19.1156 44.6348C17.8811 42.8085 15.4041 39.4044 12 36.0004C8.59592 32.5963 5.19184 30.1192 3.36558 28.8848L3.28695 28.9634C2.73908 29.5113 2.36329 30.2055 2.27288 30.975C2.14728 32.044 2.00002 33.8681 2 36.5445C2 36.5443 2 36.5448 2 36.5445C2.00001 38.5137 2.07973 40.9451 2.30644 43.8756C2.38144 44.8452 3.15514 45.6189 4.12473 45.6939C11.039 46.2288 15.1697 45.9455 17.0253 45.7275C17.7948 45.6371 18.489 45.2613 19.0369 44.7134L19.1156 44.6348Z" fill="#ACB4C9"/>
<path d="M8.97587 45.9612C8.80044 45.6771 7.67149 43.8943 5.88874 42.1116C4.10597 40.3288 2.32321 39.1998 2.03906 39.0244C2.08293 40.4582 2.16677 42.0722 2.30628 43.8757C2.38129 44.8453 3.15499 45.619 4.12458 45.694C5.92805 45.8335 7.54214 45.9174 8.97587 45.9612Z" fill="#576684"/>
</svg>