<!-- Copyright © Ewsgit 2022. -->
<!-- Licensed under the MIT License - https://ewsgit.github.io/devdash/copyright -->

<svg width="48" height="48" viewBox="0 0 48 48" fill="none" xmlns="http://www.w3.org/2000/svg">
<path d="M30.579 7.21964C30.1951 6.41947 29.9291 5.51376 30.2321 4.6793C30.9032 2.83125 32.4093 2.2222 33.5119 2.03121C34.3487 1.88627 35.1655 2.25731 35.7074 2.914C39.3059 7.27422 42.2021 17.3803 41.9889 27.1364C41.8692 32.6182 40.7304 36.6955 38.4021 40.6357C36.9478 43.0966 34.5414 44.826 31.7424 45.3575C29.1849 45.8431 25.59 46.2238 21.33 45.8479C19.0526 45.6469 16.7949 45.0494 14.8581 43.8292C10.5776 41.1324 7.62544 36.8031 7.02139 30.5727C6.87071 29.0186 7.51594 27.4524 8.96589 26.8904C9.32455 26.7514 9.72965 26.6256 10.1809 26.5296C11.7015 26.206 12.8569 27.6092 13.3227 29.0992C14.4392 32.6702 17.6659 34.9552 20.8381 33.9915C21.5185 33.7239 22.1787 33.3116 22.7593 32.8776C24.1792 31.8162 24.7858 29.9172 24.0222 28.3131C22.3662 24.8344 18.6826 23.5231 14.2955 25.2462C13.385 25.6039 12.3643 25.7637 11.5614 25.2032C11.2588 24.992 10.9314 24.7201 10.6082 24.3729C9.05412 22.7036 9.96271 20.0836 11.9569 18.9834C16.2577 16.6105 21.3354 16.099 25.5551 17.7533C23.8728 14.9244 21.8289 12.3449 19.4277 10.376C18.5057 9.62004 17.7604 8.55216 17.9414 7.37039C18.1975 5.69902 19.0904 4.84523 19.8327 4.41657C20.4951 4.03407 21.2942 4.16745 21.9806 4.50437C26.7504 6.84543 29.9783 9.59394 32.3135 12.6577C31.9199 10.6395 31.3203 8.7649 30.579 7.21964Z" fill="#ACB4C9"/>
</svg>