<!-- Copyright © Ewsgit 2022. -->
<!-- Licensed under the MIT License - https://ewsgit.github.io/devdash/copyright -->

<svg width="48" height="48" viewBox="0 0 48 48" fill="none" xmlns="http://www.w3.org/2000/svg">
<circle r="21" transform="matrix(-1 0 0 1 24 24)" fill="#ACB4C9"/>
<path d="M22.1019 11.6145C22.8998 10.1285 25.1002 10.1285 25.8981 11.6145L28.9028 17.2107L35.273 18.4224C36.9014 18.7321 37.5596 20.638 36.4499 21.8302L31.9328 26.6831L32.7625 33.1776C32.9714 34.8129 31.2115 36.0146 29.6855 35.2788L24 32.5374L18.3145 35.2788C16.7885 36.0146 15.0286 34.8129 15.2375 33.1776L16.0672 26.6831L11.5501 21.8302C10.4404 20.638 11.0986 18.7321 12.727 18.4224L19.0972 17.2107L22.1019 11.6145Z" fill="#576684"/>
</svg>