<!-- Copyright © Ewsgit 2022. -->
<!-- Licensed under the MIT License - https://ewsgit.github.io/devdash/copyright -->

<svg width="48" height="48" viewBox="0 0 48 48" fill="none" xmlns="http://www.w3.org/2000/svg">
<path d="M4.23369 20.8097C4.48578 19.3261 5.7781 18.4892 7.27952 18.3881C9.8429 18.2154 14.8702 18 24 18C33.1298 18 38.1571 18.2154 40.7205 18.3881C42.2219 18.4892 43.5142 19.3261 43.7663 20.8097C43.9007 21.6008 44 22.6441 44 24C44 25.3559 43.9007 26.3992 43.7663 27.1903C43.5142 28.6739 42.2219 29.5108 40.7205 29.6119C38.1571 29.7846 33.1298 30 24 30C14.8702 30 9.84291 29.7846 7.27953 29.6119C5.7781 29.5108 4.48578 28.6739 4.23369 27.1903C4.09926 26.3992 4 25.3559 4 24C4 22.6441 4.09926 21.6008 4.23369 20.8097Z" fill="#ACB4C9"/>
</svg>