<!-- Copyright © Ewsgit 2022. -->
<!-- Licensed under the MIT License - https://ewsgit.github.io/devdash/copyright -->

<svg xmlns="http://www.w3.org/2000/svg" width="48" height="48" fill="none" viewBox="0 0 48 48"><path fill="#576684" d="M44 24C44 35.0457 35.0457 44 24 44C12.9543 44 4 35.0457 4 24C4 12.9543 12.9543 4 24 4C35.0457 4 44 12.9543 44 24Z"/><path fill="#ACB4C9" fill-rule="evenodd" d="M10 24C10 16.268 16.268 10 24 10C31.732 10 38 16.268 38 24V27.6C38 27.6 37.1569 29.0838 34.1977 30.3281C32.9205 32.3821 31.0399 34.0219 28.8038 34.9998C31.4424 36.1536 33.586 38.2289 34.8277 40.8189C31.7071 42.8318 27.9904 44 24.0008 44C20.0111 44 16.2944 42.8318 13.1738 40.8189C14.4154 38.2291 16.5587 36.154 19.197 35.0002C16.9605 34.0223 15.0797 32.3823 13.8023 30.3281C10.8431 29.0838 10 27.6 10 27.6V24Z" clip-rule="evenodd"/><path fill="#576684" fill-rule="evenodd" d="M21 27C21.5523 27 22 27.4477 22 28C22 29.1046 22.8954 30 24 30C25.1046 30 26 29.1046 26 28C26 27.4477 26.4477 27 27 27C27.5523 27 28 27.4477 28 28C28 30.2091 26.2091 32 24 32C21.7909 32 20 30.2091 20 28C20 27.4477 20.4477 27 21 27Z" clip-rule="evenodd"/><path fill="#576684" d="M20 21.5C20 22.3284 19.3284 23 18.5 23C17.6716 23 17 22.3284 17 21.5C17 20.6716 17.6716 20 18.5 20C19.3284 20 20 20.6716 20 21.5Z"/><path fill="#576684" d="M31 21.5C31 22.3284 30.3284 23 29.5 23C28.6716 23 28 22.3284 28 21.5C28 20.6716 28.6716 20 29.5 20C30.3284 20 31 20.6716 31 21.5Z"/></svg>