<!-- Copyright © Ewsgit 2022. -->
<!-- Licensed under the MIT License - https://ewsgit.github.io/devdash/copyright -->

<svg xmlns="http://www.w3.org/2000/svg" width="48" height="48" fill="none" viewBox="0 0 48 48"><path fill="#ACB4C9" d="M27.4441 4.0636C27.4441 4.0636 29.8924 5 34.3924 9.5C38.8759 13.9835 39.8161 16.4361 39.8229 16.454C39.9322 18.5905 40 21.089 40 24C40 32.6855 39.3965 37.6989 38.8884 40.3807C38.562 42.1035 37.2177 43.2843 35.4743 43.4724C33.1211 43.7263 28.9685 44 22 44C15.0315 44 10.8789 43.7263 8.52567 43.4724C6.78233 43.2843 5.43803 42.1035 5.11161 40.3807C4.6035 37.6989 4 32.6855 4 24C4 15.3145 4.6035 10.3011 5.11161 7.61934C5.43803 5.89653 6.78233 4.7157 8.52567 4.52758C10.8789 4.27365 15.0315 4 22 4C24.0497 4 25.8558 4.02371 27.4441 4.0636Z"/><path fill="#576684" d="M39.8229 16.4539C36.9434 17.1782 33.5436 17.2263 30.6071 16.3292C29.3656 15.9499 28.3976 14.9828 27.9786 13.7542C26.9348 10.6935 26.6769 6.94714 27.4441 4.06348C27.4441 4.06348 29.8923 4.99988 34.3923 9.49988C38.8923 13.9999 39.8229 16.4539 39.8229 16.4539Z"/><path fill="#576684" d="M13.1328 4.18708C13.1153 4.96086 13.087 6.47241 13.061 9.02872C12.5814 9.04539 12.1854 9.06719 11.8732 9.08853C11.3723 9.12275 11 9.54191 11 10.044V10.9555C11 11.4576 11.3723 11.8768 11.8732 11.911C12.18 11.9319 12.5676 11.9534 13.0361 11.9699C13.0278 13.1668 13.0203 14.5154 13.0144 16.0304C12.5557 16.0468 12.1753 16.0679 11.8732 16.0885C11.3723 16.1228 11 16.5419 11 17.044V17.9555C11 18.4576 11.3723 18.8768 11.8732 18.911C12.1733 18.9315 12.5507 18.9524 13.0054 18.9688C13.0026 20.2273 13.0007 21.5794 13.0002 23.0309C12.5478 23.0472 12.1721 23.0681 11.8732 23.0885C11.3723 23.1228 11 23.5419 11 24.044V24.9555C11 25.4576 11.3723 25.8768 11.8732 25.911C12.1723 25.9314 12.5481 25.9523 13.0008 25.9687C13.002 27.4259 13.0044 28.7778 13.0079 30.0306C12.5521 30.047 12.1738 30.068 11.8732 30.0885C11.3723 30.1228 11 30.5419 11 31.044V31.9555C11 32.4576 11.3723 32.8768 11.8732 32.911C12.1762 32.9317 12.558 32.9528 13.0186 32.9693C13.0256 34.5011 13.0342 35.8485 13.0435 37.0293C12.5717 37.0459 12.1816 37.0675 11.8732 37.0885C11.3723 37.1227 11 37.5419 11 38.044V38.9555C11 39.4576 11.3723 39.8768 11.8732 39.911C12.1878 39.9325 12.5873 39.9545 13.0719 39.9712C13.0946 41.9305 13.1177 43.1454 13.1328 43.8123C13.9562 43.8525 14.8644 43.8882 15.8648 43.9174C15.8797 43.2785 15.904 42.0448 15.928 39.9876C16.4986 39.9742 16.9238 39.9512 17.2353 39.927C17.6887 39.8918 18 39.516 18 39.0613V37.9382C18 37.4835 17.6887 37.1077 17.2353 37.0725C16.929 37.0487 16.5129 37.0261 15.9566 37.0126C15.9659 35.8402 15.9743 34.5039 15.9813 32.9863C16.5252 32.9728 16.9336 32.9504 17.2353 32.927C17.6887 32.8918 18 32.516 18 32.0613V30.9382C18 30.4835 17.6887 30.1077 17.2353 30.0725C16.9356 30.0492 16.5306 30.0271 15.9921 30.0134C15.9956 28.7704 15.998 27.4299 15.9992 25.9859C16.5342 25.9723 16.9369 25.9502 17.2353 25.927C17.6887 25.8918 18 25.516 18 25.0613V23.9382C18 23.4835 17.6887 23.1077 17.2353 23.0725C16.937 23.0493 16.5345 23.0273 15.9998 23.0136C15.9992 21.5753 15.9974 20.2346 15.9946 18.986C16.5319 18.9724 16.936 18.9502 17.2353 18.927C17.6887 18.8918 18 18.516 18 18.0613V16.9382C18 16.4835 17.6887 16.1077 17.2353 16.0725C16.9343 16.0491 16.5273 16.0269 15.9856 16.0133C15.9797 14.5123 15.9723 13.175 15.964 11.9868C16.5166 11.9732 16.9304 11.9507 17.2353 11.927C17.6887 11.8918 18 11.516 18 11.0613V9.93824C18 9.48354 17.6887 9.10775 17.2353 9.07252C16.9258 9.04846 16.504 9.0256 15.9388 9.01213C15.9117 6.34497 15.882 4.81845 15.8648 4.08203C14.8644 4.11125 13.9562 4.14697 13.1328 4.18708Z"/></svg>