<!-- Copyright © Ewsgit 2022. -->
<!-- Licensed under the MIT License - https://ewsgit.github.io/devdash/copyright -->

<svg xmlns="http://www.w3.org/2000/svg" width="48" height="48" fill="none" viewBox="0 0 48 48"><path fill="#ACB4C9" d="M4.56198 8.68502C4.73932 6.96777 5.86521 5.60848 7.55375 5.24901C10.219 4.68162 15.2432 4 24 4C32.7568 4 37.781 4.68162 40.4463 5.24901C42.1348 5.60848 43.2607 6.96778 43.438 8.68502C43.701 11.2312 44 15.9061 44 24C44 32.0939 43.701 36.7688 43.438 39.315C43.2607 41.0322 42.1348 42.3915 40.4462 42.751C37.781 43.3184 32.7568 44 24 44C15.2432 44 10.219 43.3184 7.55375 42.751C5.86521 42.3915 4.73932 41.0322 4.56198 39.315C4.29904 36.7688 4 32.0939 4 24C4 15.9061 4.29904 11.2312 4.56198 8.68502Z"/><path fill="#576684" fill-rule="evenodd" d="M43.8055 14H4.19336C4.29938 11.6365 4.4346 9.91315 4.56143 8.68502C4.73877 6.96777 5.86466 5.60848 7.5532 5.24901C10.2185 4.68162 15.2426 4 23.9995 4C32.7563 4 37.7804 4.68162 40.4457 5.24901C42.1342 5.60848 43.2601 6.96778 43.4375 8.68502C43.5643 9.91315 43.6995 11.6365 43.8055 14Z" clip-rule="evenodd"/><path fill="#576684" d="M11 22C11 20.8954 11.8954 20 13 20H15C16.1046 20 17 20.8954 17 22V24C17 25.1046 16.1046 26 15 26H13C11.8954 26 11 25.1046 11 24V22Z"/><path fill="#576684" d="M11 32C11 30.8954 11.8954 30 13 30H15C16.1046 30 17 30.8954 17 32V34C17 35.1046 16.1046 36 15 36H13C11.8954 36 11 35.1046 11 34V32Z"/><path fill="#576684" d="M21 22C21 20.8954 21.8954 20 23 20H25C26.1046 20 27 20.8954 27 22V24C27 25.1046 26.1046 26 25 26H23C21.8954 26 21 25.1046 21 24V22Z"/><path fill="#576684" d="M21 32C21 30.8954 21.8954 30 23 30H25C26.1046 30 27 30.8954 27 32V34C27 35.1046 26.1046 36 25 36H23C21.8954 36 21 35.1046 21 34V32Z"/><path fill="#576684" d="M31 22C31 20.8954 31.8954 20 33 20H35C36.1046 20 37 20.8954 37 22V24C37 25.1046 36.1046 26 35 26H33C31.8954 26 31 25.1046 31 24V22Z"/></svg>