<!-- Copyright © Ewsgit 2022. -->
<!-- Licensed under the MIT License - https://ewsgit.github.io/devdash/copyright -->

<svg width="48" height="48" viewBox="0 0 48 48" fill="none" xmlns="http://www.w3.org/2000/svg">
<path d="M19.9292 4.35457C20.024 4.11921 20.1659 3.90639 20.3799 3.77532C20.8614 3.48047 21.9592 3 24 3C26.0408 3 27.1386 3.48047 27.6201 3.77533C27.8341 3.90639 27.9759 4.11921 28.0708 4.35457C28.3981 5.16658 29.202 7.2333 29.677 9.07765C31.1927 9.67675 32.5945 10.5087 33.84 11.5304C35.646 11.0268 37.8073 10.7023 38.6618 10.585C38.9092 10.5511 39.161 10.5698 39.3795 10.6931C39.8708 10.9706 40.8281 11.6991 41.8485 13.5C42.8689 15.3008 43.0094 16.5097 42.9995 17.0821C42.9952 17.3365 42.8852 17.5681 42.7326 17.7694C42.2059 18.4646 40.8503 20.2085 39.5197 21.5501C39.6401 22.3488 39.7026 23.167 39.7026 24C39.7026 24.833 39.6401 25.6511 39.5197 26.4498C40.8503 27.7914 42.2059 29.5353 42.7326 30.2305C42.8852 30.4319 42.9952 30.6634 42.9995 30.9178C43.0094 31.4902 42.8689 32.6991 41.8485 34.5C40.8281 36.3008 39.8708 37.0293 39.3795 37.3068C39.161 37.4301 38.9092 37.4488 38.6618 37.4149C37.8073 37.2976 35.646 36.9732 33.8401 36.4695C32.5946 37.4912 31.1928 38.3232 29.677 38.9224C29.202 40.7667 28.3981 42.8334 28.0708 43.6454C27.9759 43.8808 27.8341 44.0936 27.6201 44.2247C27.1386 44.5195 26.0408 45 24 45C21.9592 45 20.8614 44.5195 20.3799 44.2247C20.1659 44.0936 20.024 43.8808 19.9292 43.6454C19.6019 42.8334 18.798 40.7667 18.323 38.9224C16.8072 38.3232 15.4054 37.4912 14.1599 36.4695C12.354 36.9732 10.1927 37.2976 9.33823 37.4149C9.09076 37.4488 8.83896 37.4301 8.62055 37.3068C8.12918 37.0293 7.17195 36.3008 6.15154 34.5C5.13112 32.6991 4.99062 31.4902 5.00046 30.9178C5.00484 30.6634 5.11481 30.4319 5.26741 30.2305C5.79414 29.5353 7.14973 27.7914 8.48032 26.4498C8.35989 25.6511 8.29741 24.833 8.29741 24C8.29741 23.167 8.35989 22.3488 8.48033 21.5501C7.14974 20.2085 5.79414 18.4646 5.26741 17.7694C5.11481 17.5681 5.00484 17.3365 5.00046 17.0821C4.99062 16.5097 5.13112 15.3008 6.15154 13.5C7.17195 11.6991 8.12918 10.9706 8.62055 10.6931C8.83896 10.5698 9.09076 10.5511 9.33823 10.585C10.1927 10.7023 12.354 11.0268 14.16 11.5304C15.4055 10.5087 16.8072 9.67675 18.323 9.07765C18.798 7.2333 19.6019 5.16658 19.9292 4.35457Z" fill="#ACB4C9"/>
<path d="M32 24C32 28.4183 28.4183 32 24 32C19.5817 32 16 28.4183 16 24C16 19.5817 19.5817 16 24 16C28.4183 16 32 19.5817 32 24Z" fill="#576684"/>
</svg>