<!-- Copyright © Ewsgit 2022. -->
<!-- Licensed under the MIT License - https://ewsgit.github.io/devdash/copyright -->

<svg xmlns="http://www.w3.org/2000/svg" width="48" height="48" fill="none" viewBox="0 0 48 48"><path fill="#576684" d="M4 24C4 35.0457 12.9543 44 24 44C35.0457 44 44 35.0457 44 24C44 12.9543 35.0457 4 24 4C12.9543 4 4 12.9543 4 24Z"/><path fill="#ACB4C9" d="M19.1969 35.0002C14.9602 33.1478 11.9998 28.9196 11.9998 24C11.9998 22.1529 12.4171 20.4034 13.1626 18.8404L11.3257 13.5972C11.0486 12.8062 11.8091 12.0457 12.6001 12.3228L17.3723 13.9946C19.2713 12.7342 21.5498 12 23.9998 12C26.4498 12 28.7283 12.7342 30.6273 13.9946L35.3994 12.3228C36.1904 12.0457 36.9509 12.8062 36.6738 13.5972L34.837 18.8404C35.5825 20.4034 35.9998 22.1529 35.9998 24C35.9998 28.9193 33.0398 33.1472 28.8037 34.9998C31.4424 36.1535 33.586 38.2289 34.8277 40.8189C31.7071 42.8318 27.9904 44 24.0008 44C20.0111 44 16.2944 42.8318 13.1738 40.8189C14.4153 38.2292 16.5586 36.154 19.1969 35.0002Z"/><path fill="#576684" fill-rule="evenodd" d="M21.0002 26.9999C21.5525 26.9999 22.0002 27.4476 22.0002 27.9999C22.0002 29.1045 22.8956 29.9999 24.0002 29.9999C25.1047 29.9999 26.0002 29.1045 26.0002 27.9999C26.0002 27.4476 26.4479 26.9999 27.0002 26.9999C27.5525 26.9999 28.0002 27.4476 28.0002 27.9999C28.0002 30.2091 26.2093 31.9999 24.0002 31.9999C21.791 31.9999 20.0002 30.2091 20.0002 27.9999C20.0002 27.4476 20.4479 26.9999 21.0002 26.9999Z" clip-rule="evenodd"/><path fill="#576684" fill-rule="evenodd" d="M31.5968 23.5264C31.0633 23.6693 30.515 23.3528 30.3721 22.8193C30.0862 21.7524 28.9895 21.1192 27.9226 21.4051C27.3891 21.548 26.8408 21.2314 26.6978 20.698C26.5549 20.1645 26.8715 19.6162 27.4049 19.4732C29.5388 18.9015 31.7321 20.1678 32.3039 22.3017C32.4468 22.8351 32.1303 23.3835 31.5968 23.5264Z" clip-rule="evenodd"/><path fill="#576684" fill-rule="evenodd" d="M16.4035 23.5264C16.937 23.6693 17.4853 23.3528 17.6283 22.8193C17.9142 21.7524 19.0108 21.1192 20.0778 21.4051C20.6112 21.548 21.1596 21.2314 21.3025 20.698C21.4455 20.1645 21.1289 19.6162 20.5954 19.4732C18.4615 18.9015 16.2682 20.1678 15.6964 22.3017C15.5535 22.8351 15.8701 23.3835 16.4035 23.5264Z" clip-rule="evenodd"/></svg>