<!-- Copyright © Ewsgit 2022. -->
<!-- Licensed under the MIT License - https://ewsgit.github.io/devdash/copyright -->

<svg width="48" height="48" viewBox="0 0 48 48" fill="none" xmlns="http://www.w3.org/2000/svg">
<circle cx="24" cy="24" r="21" transform="rotate(-90 24 24)" fill="#ACB4C9"/>
<path d="M15.5322 21.3924C14.395 19.9774 15.1722 18.2683 16.992 18.1638C18.0261 18.1043 19.341 18.053 21.0016 18.0243C21.0005 17.6991 21 17.3579 21 17C21 14.3264 21.0306 12.5855 21.0635 11.4865C21.0965 10.3819 21.5724 9.32098 22.6581 9.1145C23.0215 9.04537 23.4642 9 24 9C24.5358 9 24.9785 9.04537 25.3419 9.1145C26.4276 9.32098 26.9035 10.3819 26.9365 11.4865C26.9694 12.5855 27 14.3264 27 17C27 17.3579 26.9995 17.6991 26.9984 18.0243C28.6587 18.053 29.9736 18.1043 31.0077 18.1637C32.8278 18.2683 33.6051 19.9778 32.4677 21.3931C31.7836 22.2443 30.8913 23.2982 29.7385 24.5714C27.9089 26.592 26.5167 27.7842 25.5621 28.4782C24.605 29.174 23.3958 29.1739 22.4387 28.4781C21.4842 27.784 20.0921 26.5919 18.2622 24.5714C17.1089 23.2978 16.2163 22.2437 15.5322 21.3924Z" fill="#576684"/>
<path d="M14.0625 35.209C14.1762 36.2057 15.0264 36.7715 16.0279 36.8304C17.4042 36.9113 19.8575 37 24 37C28.1425 37 30.5958 36.9113 31.9721 36.8304C32.9736 36.7715 33.8238 36.2057 33.9375 35.209C33.9755 34.8763 34 34.4768 34 34C34 33.5232 33.9755 33.1237 33.9375 32.791C33.8238 31.7943 32.9736 31.2285 31.9721 31.1696C30.5958 31.0887 28.1425 31 24 31C19.8575 31 17.4042 31.0887 16.0279 31.1696C15.0264 31.2285 14.1762 31.7943 14.0625 32.791C14.0245 33.1237 14 33.5232 14 34C14 34.4768 14.0245 34.8763 14.0625 35.209Z" fill="#576684"/>
</svg>