<!-- Copyright © Ewsgit 2022. -->
<!-- Licensed under the MIT License - https://ewsgit.github.io/devdash/copyright -->

<svg width="48" height="48" viewBox="0 0 48 48" fill="none" xmlns="http://www.w3.org/2000/svg">
<path d="M9.05118 11.7492C9.09794 10.8873 9.65783 10.2228 10.5151 10.1219C11.0942 10.0538 11.8998 10 13 10C14.1002 10 14.9058 10.0538 15.4849 10.1219C16.3422 10.2228 16.9021 10.8873 16.9488 11.7492C16.9779 12.2857 17 13.0167 17 14C17 14.9833 16.9779 15.7143 16.9488 16.2508C16.9021 17.1127 16.3422 17.7772 15.4849 17.8781C14.9058 17.9462 14.1002 18 13 18C11.8998 18 11.0942 17.9462 10.5151 17.8781C9.65784 17.7772 9.09794 17.1127 9.05118 16.2508C9.02207 15.7143 9 14.9833 9 14C9 13.0167 9.02207 12.2857 9.05118 11.7492Z" fill="#576684"/>
<path d="M31.0512 7.74922C31.0979 6.8873 31.6578 6.2228 32.5151 6.12193C33.0942 6.0538 33.8998 6 35 6C36.1002 6 36.9058 6.0538 37.4849 6.12193C38.3422 6.2228 38.9021 6.8873 38.9488 7.74922C38.9779 8.28574 39 9.01673 39 10C39 10.9833 38.9779 11.7143 38.9488 12.2508C38.9021 13.1127 38.3422 13.7772 37.4849 13.8781C36.9058 13.9462 36.1002 14 35 14C33.8998 14 33.0942 13.9462 32.5151 13.8781C31.6578 13.7772 31.0979 13.1127 31.0512 12.2508C31.0221 11.7143 31 10.9833 31 10C31 9.01673 31.0221 8.28574 31.0512 7.74922Z" fill="#576684"/>
<path d="M20.0512 3.74922C20.0979 2.8873 20.6578 2.2228 21.5151 2.12193C22.0942 2.0538 22.8998 2 24 2C25.1002 2 25.9058 2.0538 26.4849 2.12193C27.3422 2.2228 27.9021 2.8873 27.9488 3.74922C27.9779 4.28574 28 5.01673 28 6C28 6.98327 27.9779 7.71426 27.9488 8.25078C27.9021 9.1127 27.3422 9.7772 26.4849 9.87807C25.9058 9.9462 25.1002 10 24 10C22.8998 10 22.0942 9.9462 21.5151 9.87807C20.6578 9.7772 20.0979 9.1127 20.0512 8.25078C20.0221 7.71426 20 6.98327 20 6C20 5.01673 20.0221 4.28574 20.0512 3.74922Z" fill="#576684"/>
<path d="M24 16C13.5488 16 8.21769 16.196 5.77695 16.332C4.76225 16.3885 4 17.2266 4 18.2429L4.00001 20.2256C4 21.3389 4.46042 22.3996 5.30215 23.1282C7.39722 24.9418 11.886 28.6555 17.7834 32.5652C18.2937 32.9035 18.6264 33.4545 18.6832 34.0641C19.1585 39.169 19.5752 42.7016 19.8068 44.5352C19.9133 45.3791 20.6318 46 21.4824 46C21.8199 46 22.1498 45.9001 22.4305 45.7129L26.858 42.7613C27.5981 42.2679 28.1391 41.5372 28.3114 40.6646C28.5391 39.5111 28.8727 37.4886 29.2477 34.1444C29.3163 33.5321 29.6613 32.983 30.1813 32.6523C36.4085 28.6927 40.8101 24.9209 42.8025 23.1033C43.584 22.3904 44 21.3782 44 20.3205V18.2429C44 17.2266 43.2377 16.3885 42.223 16.332C39.7823 16.196 34.4512 16 24 16Z" fill="#ACB4C9"/>
</svg>