<!-- Copyright © Ewsgit 2022. -->
<!-- Licensed under the MIT License - https://ewsgit.github.io/devdash/copyright -->

<svg width="48" height="48" viewBox="0 0 48 48" fill="none" xmlns="http://www.w3.org/2000/svg">
<path d="M22.4553 21.4042C23.4681 21.1045 24.5319 21.1045 25.5447 21.4042C27.5418 21.9952 31.3249 23.3285 36 26C39.5625 28.0357 42.0889 29.8124 43.7112 31.0664C45.022 32.0798 45.022 33.9202 43.7112 34.9336C42.0889 36.1876 39.5625 37.9643 36 40C31.3249 42.6715 27.5418 44.0048 25.5447 44.5958C24.5319 44.8955 23.4681 44.8955 22.4553 44.5958C20.4582 44.0048 16.6752 42.6715 12 40C8.43755 37.9643 5.9111 36.1876 4.28885 34.9336C2.978 33.9202 2.978 32.0798 4.28884 31.0664C5.9111 29.8124 8.43755 28.0357 12 26C16.6751 23.3285 20.4582 21.9952 22.4553 21.4042Z" fill="#ACB4C9"/>
<path d="M22.4553 12.4042C23.4681 12.1045 24.5319 12.1045 25.5447 12.4042C27.5418 12.9952 31.3249 14.3285 36 17C39.5625 19.0357 42.0889 20.8124 43.7112 22.0664C45.022 23.0798 45.022 24.9202 43.7112 25.9336C42.0889 27.1876 39.5625 28.9643 36 31C31.3249 33.6715 27.5418 35.0048 25.5447 35.5958C24.5319 35.8955 23.4681 35.8955 22.4553 35.5958C20.4582 35.0048 16.6752 33.6715 12 31C8.43755 28.9643 5.9111 27.1876 4.28885 25.9336C2.978 24.9202 2.978 23.0798 4.28884 22.0664C5.9111 20.8124 8.43755 19.0357 12 17C16.6751 14.3285 20.4582 12.9952 22.4553 12.4042Z" fill="#576684"/>
<path d="M22.4553 3.40418C23.4681 3.10449 24.5319 3.10449 25.5447 3.40418C27.5418 3.99516 31.3249 5.32849 36 8C39.5625 10.0357 42.0889 11.8124 43.7112 13.0664C45.022 14.0798 45.022 15.9202 43.7112 16.9336C42.0889 18.1876 39.5625 19.9643 36 22C31.3249 24.6715 27.5418 26.0048 25.5447 26.5958C24.5319 26.8955 23.4681 26.8955 22.4553 26.5958C20.4582 26.0048 16.6752 24.6715 12 22C8.43755 19.9643 5.9111 18.1876 4.28885 16.9336C2.978 15.9202 2.978 14.0798 4.28884 13.0664C5.9111 11.8124 8.43755 10.0357 12 8C16.6751 5.32849 20.4582 3.99516 22.4553 3.40418Z" fill="#ACB4C9"/>
</svg>