<!-- Copyright © Ewsgit 2022. -->
<!-- Licensed under the MIT License - https://ewsgit.github.io/devdash/copyright -->

<svg width="48" height="48" viewBox="0 0 48 48" fill="none" xmlns="http://www.w3.org/2000/svg">
<circle r="21" transform="matrix(4.37114e-08 1 1 -4.37114e-08 24 24)" fill="#ACB4C9"/>
<path d="M15.5322 26.6076C14.395 28.0226 15.1722 29.7317 16.992 29.8362C18.0261 29.8957 19.341 29.947 21.0016 29.9757C21.0005 30.3009 21 30.6421 21 31C21 33.6736 21.0306 35.4145 21.0635 36.5135C21.0965 37.6181 21.5724 38.679 22.6581 38.8855C23.0215 38.9546 23.4642 39 24 39C24.5358 39 24.9785 38.9546 25.3419 38.8855C26.4276 38.679 26.9035 37.6181 26.9365 36.5135C26.9694 35.4145 27 33.6736 27 31C27 30.6421 26.9995 30.3009 26.9984 29.9757C28.6587 29.947 29.9736 29.8957 31.0077 29.8363C32.8278 29.7317 33.6051 28.0222 32.4677 26.6069C31.7836 25.7557 30.8913 24.7018 29.7385 23.4286C27.9089 21.408 26.5167 20.2158 25.5621 19.5218C24.605 18.826 23.3958 18.8261 22.4387 19.5219C21.4842 20.216 20.0921 21.4081 18.2622 23.4286C17.1089 24.7022 16.2163 25.7563 15.5322 26.6076Z" fill="#576684"/>
<path d="M14.0625 12.791C14.1762 11.7943 15.0264 11.2285 16.0279 11.1696C17.4042 11.0887 19.8575 11 24 11C28.1425 11 30.5958 11.0887 31.9721 11.1696C32.9736 11.2285 33.8238 11.7943 33.9375 12.791C33.9755 13.1237 34 13.5232 34 14C34 14.4768 33.9755 14.8763 33.9375 15.209C33.8238 16.2057 32.9736 16.7715 31.9721 16.8304C30.5958 16.9113 28.1425 17 24 17C19.8575 17 17.4042 16.9113 16.0279 16.8304C15.0264 16.7715 14.1762 16.2057 14.0625 15.209C14.0245 14.8763 14 14.4768 14 14C14 13.5232 14.0245 13.1237 14.0625 12.791Z" fill="#576684"/>
</svg>