<!-- Copyright © Ewsgit 2022. -->
<!-- Licensed under the MIT License - https://ewsgit.github.io/devdash/copyright -->

<svg width="48" height="48" viewBox="0 0 48 48" fill="none" xmlns="http://www.w3.org/2000/svg">
<path d="M44 24C44 35.0457 35.0457 44 24 44C12.9543 44 4 35.0457 4 24C4 12.9543 12.9543 4 24 4C35.0457 4 44 12.9543 44 24Z" fill="#576684"/>
<path d="M11.1 23.3C11.1 24.1369 11.4808 24.8849 12.0786 25.3801C12.5733 29.7005 15.3624 33.3235 19.197 35.0001C16.5587 36.154 14.4154 38.2291 13.1738 40.8189C16.2944 42.8318 20.0111 44 24.0008 44C27.9904 44 31.7071 42.8318 34.8277 40.8189C33.5861 38.2289 31.4425 36.1536 28.8038 34.9999C32.6381 33.323 35.427 29.7001 35.9216 25.3799C36.5193 24.8847 36.8999 24.1368 36.8999 23.3C36.8999 22.7566 36.7394 22.2507 36.4633 21.8272C37.0945 21.3329 37.5002 20.5638 37.5002 19.7C37.5002 18.7439 37.0033 17.904 36.2537 17.4242C36.4743 17.033 36.6002 16.5812 36.6002 16.1C36.6002 14.6088 35.3914 13.4 33.9002 13.4C33.9002 11.9088 32.6914 10.7 31.2002 10.7C30.8489 10.7 30.5133 10.7671 30.2055 10.8891C29.8935 9.74283 28.8452 8.9 27.6001 8.9C27.1189 8.9 26.6671 9.02588 26.2759 9.2465C25.7961 8.49689 24.9561 8 24.0001 8C23.0441 8 22.2041 8.49689 21.7243 9.2465C21.3331 9.02588 20.8813 8.9 20.4001 8.9C19.155 8.9 18.1067 9.74283 17.7947 10.8891C17.4869 10.7671 17.1513 10.7 16.8 10.7C15.3088 10.7 14.1 11.9088 14.1 13.4C12.6088 13.4 11.4 14.6088 11.4 16.1C11.4 16.5812 11.5259 17.033 11.7465 17.4242C10.9969 17.904 10.5 18.7439 10.5 19.7C10.5 20.5638 10.9056 21.3328 11.5368 21.827C11.2605 22.2506 11.1 22.7565 11.1 23.3Z" fill="#ACB4C9"/>
<path fill-rule="evenodd" clip-rule="evenodd" d="M21 27C21.5523 27 22 27.4477 22 28C22 29.1046 22.8954 30 24 30C25.1046 30 26 29.1046 26 28C26 27.4477 26.4477 27 27 27C27.5523 27 28 27.4477 28 28C28 30.2091 26.2091 32 24 32C21.7909 32 20 30.2091 20 28C20 27.4477 20.4477 27 21 27Z" fill="#576684"/>
<path d="M20 21.5C20 22.3284 19.3284 23 18.5 23C17.6716 23 17 22.3284 17 21.5C17 20.6716 17.6716 20 18.5 20C19.3284 20 20 20.6716 20 21.5Z" fill="#576684"/>
<path d="M31 21.5C31 22.3284 30.3284 23 29.5 23C28.6716 23 28 22.3284 28 21.5C28 20.6716 28.6716 20 29.5 20C30.3284 20 31 20.6716 31 21.5Z" fill="#576684"/>
</svg>