<!-- Copyright © Ewsgit 2022. -->
<!-- Licensed under the MIT License - https://ewsgit.github.io/devdash/copyright -->

<svg width="48" height="48" viewBox="0 0 48 48" fill="none" xmlns="http://www.w3.org/2000/svg">
<path d="M6.70595 4.69844C4.90701 4.91195 3.58469 6.20833 3.32588 8.0013C2.93754 10.6917 2.49219 15.6506 2.49219 24.2451C2.49219 32.0126 2.69428 36.8105 2.89244 39.648C3.04938 41.8954 4.65129 43.6169 6.89276 43.8427C8.98885 44.0538 12.1 44.2451 16.4922 44.2451C20.8844 44.2451 23.9955 44.0538 26.0916 43.8427C28.3331 43.6169 29.935 41.8954 30.0919 39.648C30.2901 36.8105 30.4922 32.0126 30.4922 24.2451C30.4922 16.4776 30.2901 11.6797 30.0919 8.84219C29.935 6.59485 28.3331 4.87333 26.0916 4.64755C23.9955 4.43642 20.8844 4.24512 16.4922 4.24512C11.7491 4.24512 8.64577 4.46821 6.70595 4.69844Z" fill="#ACB4C9"/>
<path d="M37.8963 33.3948C36.3871 34.6649 34.5228 33.8333 34.4128 31.8567C34.3519 30.7622 34.2987 29.3818 34.2668 27.652C25.7124 27.5655 19.0512 27.3642 15.934 27.2559C14.8489 27.2182 14 26.3216 14 25.229V22.9846C14 21.9084 14.8242 21.0199 15.8922 20.9641C18.9914 20.8022 25.6738 20.4982 34.2664 20.3678C34.2982 18.629 34.3516 17.2423 34.4127 16.1437C34.5227 14.1667 36.3876 13.335 37.8971 14.6054C38.7966 15.3624 39.9055 16.3447 41.2406 17.6079C43.4786 19.7254 44.7633 21.3169 45.4894 22.3822C46.1703 23.381 46.1702 24.6181 45.4893 25.6169C44.7631 26.6821 43.4784 28.2735 41.2406 30.3912C39.9051 31.655 38.7959 32.6377 37.8963 33.3948Z" fill="#576684"/>
</svg>