<!-- Copyright © Ewsgit 2022. -->
<!-- Licensed under the MIT License - https://ewsgit.github.io/devdash/copyright -->

<svg width="48" height="48" viewBox="0 0 48 48" fill="none" xmlns="http://www.w3.org/2000/svg">
<path d="M4 15C4 8.65649 8.53806 4.42 14.8764 4.16449C17.3325 4.06548 20.3403 4 24 4C27.6597 4 30.6675 4.06548 33.1236 4.16449C39.4619 4.42 44 8.65649 44 15C44 21.3435 39.4619 25.58 33.1236 25.8355C30.6675 25.9345 27.6597 26 24 26C20.3403 26 17.3325 25.9345 14.8764 25.8355C8.53807 25.58 4 21.3435 4 15Z" fill="#576684"/>
<path d="M21.4141 18.3186C21.4851 17.2595 22.1255 16.2786 23.1812 16.0787C23.4337 16.0308 23.695 16 23.949 16C24.2136 16 24.4861 16.0335 24.7484 16.0847C25.7858 16.2876 26.4227 17.2454 26.5157 18.2856C26.6943 20.2847 26.9631 23.5655 26.9631 25.2045C26.9631 25.2045 30.6704 25.2045 34.305 26.2307C36.6226 26.885 38.0564 29.0261 37.9983 31.4055C37.9423 33.6992 37.5866 36.8155 36.385 40.0871C35.8335 41.5885 34.5265 42.6481 32.9177 42.8132C31.9007 42.9176 30.5384 43 28.7715 43C27.2151 43 25.9727 42.9361 25.0036 42.8495C23.1002 42.6795 21.4319 41.6923 20.1674 40.2772C17.664 37.4756 15.6544 34.756 14.5733 33.2245C13.992 32.401 13.7653 30.5587 14.3103 29.7114C15.3957 28.0238 17.1252 28.8439 18.7395 30.0505C20.1451 31.1012 20.9349 31.8669 20.9349 31.8669C20.9349 26.2751 21.2377 20.9476 21.4141 18.3186Z" fill="#ACB4C9"/>
</svg>