<!-- Copyright © Ewsgit 2022. -->
<!-- Licensed under the MIT License - https://ewsgit.github.io/devdash/copyright -->

<svg width="48" height="48" viewBox="0 0 48 48" fill="none" xmlns="http://www.w3.org/2000/svg">
<path d="M44 24C44 35.0457 35.0457 44 24 44C12.9543 44 4 35.0457 4 24C4 12.9543 12.9543 4 24 4C35.0457 4 44 12.9543 44 24Z" fill="#ACB4C9"/>
<path d="M28.723 32.8166C31.8641 31.1304 34 27.8146 34 24C34 18.4772 29.5228 14 24 14C18.4772 14 14 18.4772 14 24C14 27.8147 16.136 31.1305 19.2772 32.8167C15.9095 34.0233 13.1388 36.4836 11.5273 39.6351C14.9472 42.3669 19.283 44 24.0002 44C28.7174 44 33.0532 42.3669 36.473 39.6352C34.8616 36.4836 32.0907 34.0232 28.723 32.8166Z" fill="#576684"/>
</svg>