<!-- Copyright © Ewsgit 2022. -->
<!-- Licensed under the MIT License - https://ewsgit.github.io/devdash/copyright -->

<svg width="48" height="48" viewBox="0 0 48 48" fill="none" xmlns="http://www.w3.org/2000/svg">
<path d="M14.0243 5.01756C15.8637 4.8708 17.6513 5.65223 18.859 7.05954L20.8036 9.32558C21.5634 10.2109 22.667 10.7197 23.8279 10.7197H38.0602C41.1823 10.7197 43.7824 13.1358 43.8869 16.2835C43.956 18.3646 44 20.858 44 23.8335C44 31.4288 43.7133 35.8824 43.4545 38.3553C43.2717 40.1018 42.1185 41.4639 40.4117 41.8101C37.7377 42.3524 32.7192 43 24 43C15.2808 43 10.2623 42.3524 7.58826 41.8101C5.88149 41.4639 4.72831 40.1018 4.54553 38.3553C4.28673 35.8824 4 31.4288 4 23.8335C4 16.2383 4.28673 11.7847 4.54553 9.31175C4.72831 7.56528 5.88325 6.20272 7.59003 5.85667C9.0083 5.56911 11.0857 5.252 14.0243 5.01756Z" fill="#ACB4C9"/>
<path d="M31.9181 42.7906C31.0379 42.8417 30.0943 42.8852 29.0836 42.9191C29.0699 41.8803 29.0557 40.5788 29.0431 38.9705C28.5715 38.9539 28.1815 38.9324 27.8732 38.9113C27.3723 38.8771 27 38.4579 27 37.9558V37.0443C27 36.5422 27.3723 36.1231 27.8732 36.0888C28.1773 36.0681 28.5609 36.0468 29.0239 36.0303C29.0174 34.8089 29.0118 33.4588 29.0077 31.9692C28.552 31.9528 28.1738 31.9318 27.8732 31.9113C27.3723 31.8771 27 31.4579 27 30.9558V30.0443C27 29.5422 27.3723 29.1231 27.8732 29.0888C28.1725 29.0684 28.5487 29.0475 29.0019 29.0311C29.0007 28.07 29 27.0604 29 26.0001L29.0002 24.9689C28.5478 24.9526 28.1722 24.9317 27.8732 24.9113C27.3723 24.8771 27 24.4579 27 23.9558V23.0443C27 22.5422 27.3723 22.1231 27.8732 22.0888C28.1728 22.0684 28.5495 22.0475 29.0033 22.0311C29.0058 20.5599 29.0097 19.2087 29.0146 17.9695C28.5558 17.953 28.1753 17.9319 27.8732 17.9113C27.3723 17.8771 27 17.4579 27 16.9558V16.0443C27 15.5422 27.3723 15.1231 27.8732 15.0888C28.1785 15.068 28.5638 15.0467 29.0292 15.0302C29.0395 13.3324 29.0516 11.9069 29.0642 10.7197H31.9358C31.9483 11.903 31.9604 13.3229 31.9707 15.0132C32.5199 15.0268 32.9316 15.0492 33.2353 15.0728C33.6887 15.1081 34 15.4839 34 15.9386V17.0616C34 17.5163 33.6887 17.8921 33.2353 17.9273C32.9343 17.9507 32.5273 17.973 31.9854 17.9866C31.9903 19.2163 31.9942 20.5561 31.9967 22.0139C32.5329 22.0275 32.9364 22.0496 33.2353 22.0728C33.6887 22.1081 34 22.4839 34 22.9386V24.0616C34 24.5163 33.6887 24.8921 33.2353 24.9273C32.937 24.9505 32.5345 24.9726 31.9998 24.9862L32 26.0001C32 27.054 31.9993 28.058 31.9981 29.0139C32.5336 29.0275 32.9367 29.0496 33.2353 29.0728C33.6887 29.1081 34 29.4839 34 29.9386V31.0616C34 31.5163 33.6887 31.8921 33.2353 31.9273C32.9356 31.9506 32.5307 31.9728 31.9922 31.9864C31.9881 33.4622 31.9827 34.8011 31.9762 36.0134C32.5227 36.0269 32.9326 36.0493 33.2353 36.0728C33.6887 36.1081 34 36.4839 34 36.9386V38.0616C34 38.5163 33.6887 38.8921 33.2353 38.9273C32.929 38.9511 32.513 38.9737 31.9568 38.9873C31.9447 40.5223 31.9313 41.7773 31.9181 42.7906Z" fill="#576684"/>
</svg>