<!-- Copyright © Ewsgit 2022. -->
<!-- Licensed under the MIT License - https://ewsgit.github.io/devdash/copyright -->

<svg width="48" height="48" viewBox="0 0 48 48" fill="none" xmlns="http://www.w3.org/2000/svg">
<path d="M44 24C44 35.0457 35.0457 44 24 44C12.9543 44 4 35.0457 4 24C4 12.9543 12.9543 4 24 4C35.0457 4 44 12.9543 44 24Z" fill="#576684"/>
<path d="M28.8038 34.9998C33.0399 33.1472 36 28.9193 36 24C36 17.3726 30.6274 12 24 12C17.3726 12 12 17.3726 12 24C12 28.9196 14.9604 33.1477 19.197 35.0002C16.5587 36.154 14.4154 38.2291 13.1738 40.8189C16.2944 42.8318 20.0111 44 24.0008 44C27.9904 44 31.7071 42.8318 34.8277 40.8189C33.586 38.2289 31.4424 36.1536 28.8038 34.9998Z" fill="#ACB4C9"/>
</svg>