<!-- Copyright © Ewsgit 2022. -->
<!-- Licensed under the MIT License - https://ewsgit.github.io/devdash/copyright -->

<svg width="48" height="48" viewBox="0 0 48 48" fill="none" xmlns="http://www.w3.org/2000/svg">
<path d="M11.7647 30.7576C11.8192 30.2548 12.2483 30 12.7596 30H21.8822C22.2194 34.3703 22.4982 37.7892 22.4982 37.7892H25.5002C25.5002 37.7892 25.773 34.3703 26.1046 30H35.2404C35.7518 30 36.1809 30.2548 36.2353 30.7576L37.5087 38L41 37.5784L40.2152 30.3359C39.9428 27.822 37.7973 26.0422 35.2404 26.0422H26.4038C26.6172 23.2065 26.8292 20.2318 26.9904 18L20.9864 18C21.1476 20.2318 21.3619 23.2065 21.5783 26.0422H12.7596C10.2027 26.0422 8.05717 27.822 7.78477 30.3359L7 37.5784L10.4906 38L11.7647 30.7576Z" fill="#ACB4C9"/>
<path d="M15.1346 17.4027C15.2393 19.1259 16.3605 20.4605 18.0724 20.6839C19.3939 20.8564 21.3038 21 24 21C26.6962 21 28.6061 20.8564 29.9276 20.6839C31.6395 20.4605 32.7607 19.1259 32.8654 17.4027C32.9403 16.1702 33 14.4266 33 12C33 9.57345 32.9403 7.82978 32.8654 6.59732C32.7607 4.87411 31.6395 3.5395 29.9276 3.31608C28.6061 3.1436 26.6962 3 24 3C21.3038 3 19.3939 3.1436 18.0724 3.31608C16.3605 3.5395 15.2393 4.87411 15.1346 6.59732C15.0597 7.82978 15 9.57345 15 12C15 14.4266 15.0597 16.1702 15.1346 17.4027Z" fill="#576684"/>
<path d="M34.0231 41.7961C34.0716 43.5218 35.1866 44.8263 36.9093 44.9384C37.4866 44.9759 38.1774 45 39 45C39.8226 45 40.5134 44.9759 41.0907 44.9384C42.8134 44.8263 43.9284 43.5218 43.9769 41.7961C43.9912 41.2896 44 40.6953 44 40C44 39.3047 43.9912 38.7104 43.9769 38.2039C43.9284 36.4782 42.8134 35.1737 41.0907 35.0616C40.5134 35.0241 39.8226 35 39 35C38.1774 35 37.4866 35.0241 36.9093 35.0616C35.1866 35.1737 34.0716 36.4782 34.0231 38.2039C34.0088 38.7104 34 39.3047 34 40C34 40.6953 34.0088 41.2896 34.0231 41.7961Z" fill="#576684"/>
<path d="M19.0231 41.7961C19.0716 43.5218 20.1866 44.8263 21.9093 44.9384C22.4866 44.9759 23.1774 45 24 45C24.8226 45 25.5134 44.9759 26.0907 44.9384C27.8134 44.8263 28.9284 43.5218 28.9769 41.7961C28.9912 41.2896 29 40.6953 29 40C29 39.3047 28.9912 38.7104 28.9769 38.2039C28.9284 36.4782 27.8134 35.1737 26.0907 35.0616C25.5134 35.0241 24.8226 35 24 35C23.1774 35 22.4866 35.0241 21.9093 35.0616C20.1866 35.1737 19.0716 36.4782 19.0231 38.2039C19.0088 38.7104 19 39.3047 19 40C19 40.6953 19.0088 41.2896 19.0231 41.7961Z" fill="#576684"/>
<path d="M4.02308 41.7961C4.07164 43.5218 5.18657 44.8263 6.9093 44.9384C7.4866 44.9759 8.17743 45 9 45C9.82257 45 10.5134 44.9759 11.0907 44.9384C12.8134 44.8263 13.9284 43.5218 13.9769 41.7961C13.9912 41.2896 14 40.6953 14 40C14 39.3047 13.9912 38.7104 13.9769 38.2039C13.9284 36.4782 12.8134 35.1737 11.0907 35.0616C10.5134 35.0241 9.82257 35 9 35C8.17743 35 7.48661 35.0241 6.90931 35.0616C5.18657 35.1737 4.07164 36.4782 4.02308 38.2039C4.00883 38.7104 4 39.3047 4 40C4 40.6953 4.00883 41.2896 4.02308 41.7961Z" fill="#576684"/>
</svg>