<!-- Copyright © Ewsgit 2022. -->
<!-- Licensed under the MIT License - https://ewsgit.github.io/devdash/copyright -->

<svg width="48" height="48" viewBox="0 0 48 48" fill="none" xmlns="http://www.w3.org/2000/svg">
<path fill-rule="evenodd" clip-rule="evenodd" d="M37.388 31.3437C39.0454 28.62 40 25.4215 40 22C40 12.0589 31.9411 4 22 4C12.0589 4 4 12.0589 4 22C4 31.9411 12.0589 40 22 40C25.4215 40 28.62 39.0454 31.3437 37.388C31.5081 37.586 31.6719 37.7837 31.8355 37.981C33.5263 40.021 35.1874 42.0249 37.0998 43.9982C38.2598 45.1951 39.9911 45.3681 41.23 44.2531C41.6689 43.8581 42.1824 43.3728 42.7776 42.7776C43.3728 42.1824 43.8581 41.6689 44.2531 41.23C45.3681 39.9911 45.1951 38.2598 43.9982 37.0998C42.0249 35.1874 40.0209 33.5263 37.981 31.8355C37.7837 31.6719 37.586 31.5081 37.388 31.3437Z" fill="#576684"/>
<circle cx="22" cy="22" r="12" fill="#ACB4C9"/>
</svg>