<!-- Copyright © Ewsgit 2022. -->
<!-- Licensed under the MIT License - https://ewsgit.github.io/devdash/copyright -->

<svg xmlns="http://www.w3.org/2000/svg" width="48" height="48" fill="none" viewBox="0 0 48 48"><path fill="#ACB4C9" d="M16.8905 4.70903C13.6989 7.45352 9.46346 11.5726 6.43111 16.3052C5.37263 17.9572 6.36364 20.0222 8.30971 20.296C10.0028 20.5343 11.6549 20.6976 12.6474 20.786C13.1813 20.8336 13.5984 21.2719 13.6111 21.8064L14.0856 41.7003C14.1013 42.3595 14.2722 43.0351 14.8785 43.2977C15.4079 43.527 16.2908 43.7341 17.7533 43.7341C19.2069 43.7341 20.088 43.5295 20.6185 43.3019C21.2318 43.0387 21.4041 42.367 21.4164 41.7011C21.4943 37.4885 21.7722 20.6949 21.5343 6.88446C21.4917 4.41293 18.7673 3.09512 16.8905 4.70903Z"/><path fill="#ACB4C9" d="M31.1095 43.291C34.3011 40.5465 38.5365 36.4274 41.5689 31.6948C42.6274 30.0428 41.6364 27.9778 39.6903 27.704C37.9972 27.4657 36.3451 27.3024 35.3526 27.214C34.8187 27.1665 34.4016 26.7281 34.3889 26.1936L33.9144 6.29965C33.8987 5.64051 33.7278 4.96486 33.1215 4.70231C32.5921 4.47304 31.7091 4.26592 30.2467 4.26592C28.7931 4.26592 27.912 4.47053 27.3815 4.69812C26.7682 4.96125 26.5959 5.63299 26.5836 6.29888C26.5057 10.5115 26.2278 27.3051 26.4657 41.1155C26.5083 43.5871 29.2327 44.9049 31.1095 43.291Z"/></svg>