<!-- Copyright © Ewsgit 2022. -->
<!-- Licensed under the MIT License - https://ewsgit.github.io/devdash/copyright -->

<svg width="48" height="48" viewBox="0 0 48 48" fill="none" xmlns="http://www.w3.org/2000/svg">
<path d="M4.95202 40.8405C9.12413 39.4253 16.9688 37.5873 23.5296 40.7625C23.8262 40.906 24.1738 40.906 24.4704 40.7625C31.0312 37.5873 38.8759 39.4253 43.048 40.8405C44.4426 41.3136 46 40.2942 46 38.8215V16.9594C46 15.7689 45.3007 14.6741 44.1671 14.3103C38.2289 12.4047 29.9092 12.5776 24.4033 14.8291C24.1443 14.935 23.8557 14.935 23.5967 14.8291C18.0908 12.5776 9.77112 12.4047 3.83294 14.3103C2.69931 14.6741 2 15.7689 2 16.9594V38.8215C2 40.2942 3.55737 41.3136 4.95202 40.8405Z" fill="#576684"/>
<path d="M5.46682 37.3821C10.6967 35.4667 18.0561 35.5422 23.1182 37.6083C23.6831 37.8389 24.3169 37.8389 24.8818 37.6083C29.9439 35.5422 37.3033 35.4667 42.5332 37.3821C43.2256 37.6356 44 37.144 44 36.4067V13.2552C44 12.4877 43.5646 11.779 42.8491 11.5012C37.6031 9.46449 30.0466 9.50022 24.8817 11.6084C24.3168 11.8389 23.6832 11.8389 23.1183 11.6084C17.9534 9.50022 10.3969 9.46449 5.15093 11.5012C4.43545 11.779 4 12.4877 4 13.2552V36.4067C4 37.144 4.77443 37.6356 5.46682 37.3821Z" fill="#ACB4C9"/>
<path d="M23 11.5605C23.0396 11.5763 23.079 11.5923 23.1183 11.6083C23.6832 11.8389 24.3168 11.8389 24.8817 11.6083C24.921 11.5923 24.9604 11.5763 25 11.5605V37.5605C24.9605 37.5763 24.9211 37.5922 24.8818 37.6083C24.3169 37.8388 23.6831 37.8388 23.1182 37.6083C23.0789 37.5922 23.0395 37.5763 23 37.5605V11.5605Z" fill="#576684"/>
<path d="M9.31295 21.9989C8.65577 22.1531 8 21.6712 8 20.9961V19.9932C8 19.3376 8.42443 18.7522 9.06058 18.5938C12.2402 17.8021 15.7598 17.8021 18.9394 18.5938C19.5756 18.7522 20 19.3376 20 19.9932V20.9961C20 21.6712 19.3442 22.1531 18.6871 21.9989C15.6587 21.2886 12.3413 21.2886 9.31295 21.9989Z" fill="#576684"/>
<path d="M9.31295 29.9989C8.65577 30.1531 8 29.6712 8 28.9961V27.9932C8 27.3376 8.42443 26.7522 9.06058 26.5938C12.2402 25.8021 15.7598 25.8021 18.9394 26.5938C19.5756 26.7522 20 27.3376 20 27.9932V28.9961C20 29.6712 19.3442 30.1531 18.6871 29.9989C15.6587 29.2886 12.3413 29.2886 9.31295 29.9989Z" fill="#576684"/>
<path d="M34 10C31.9479 10 29.8958 10.2143 28 10.643V21.0657C28 21.4651 28.4451 21.7033 28.7773 21.4818L30.7227 20.1849C30.8906 20.0729 31.1094 20.0729 31.2773 20.1849L33.2226 21.4818C33.5549 21.7033 34 21.4651 34 21.0657V10Z" fill="#576684"/>
</svg>