<!-- Copyright © Ewsgit 2022. -->
<!-- Licensed under the MIT License - https://ewsgit.github.io/devdash/copyright -->

<svg width="48" height="48" viewBox="0 0 48 48" fill="none" xmlns="http://www.w3.org/2000/svg">
<path d="M13.3393 6.7727C12.1672 5.69968 10.3681 5.75327 9.24447 6.87694L6.88084 9.24057C5.75718 10.3642 5.70359 12.1633 6.77661 13.3354C8.81736 15.5647 12.3839 19.4017 16.8816 24C12.384 28.5983 8.81766 32.4351 6.77696 34.6643C5.70394 35.8364 5.75753 37.6355 6.88119 38.7592L9.24483 41.1228C10.3685 42.2465 12.1676 42.3001 13.3397 41.227C15.5689 39.1863 19.4057 35.62 24.004 31.1224C28.6022 35.62 32.439 39.1863 34.6682 41.227C35.8403 42.3001 37.6394 42.2465 38.7631 41.1228L41.1267 38.7592C42.2504 37.6355 42.304 35.8364 41.2309 34.6643C39.1902 32.4351 35.6239 28.5983 31.1263 24C35.624 19.4017 39.1905 15.5647 41.2313 13.3354C42.3043 12.1633 42.2507 10.3642 41.1271 9.24057L38.7634 6.87694C37.6398 5.75327 35.8407 5.69968 34.6686 6.7727C32.4393 8.81345 28.6023 12.38 24.004 16.8776C19.4056 12.38 15.5686 8.81345 13.3393 6.7727Z" fill="#ACB4C9"/>
</svg>