<!-- Copyright © Ewsgit 2022. -->
<!-- Licensed under the MIT License - https://ewsgit.github.io/devdash/copyright -->

<svg width="48" height="48" viewBox="0 0 48 48" fill="none" xmlns="http://www.w3.org/2000/svg">
<path d="M4.95202 40.8405C9.12413 39.4253 16.9688 37.5873 23.5296 40.7625C23.8262 40.906 24.1738 40.906 24.4704 40.7625C31.0312 37.5873 38.8759 39.4253 43.048 40.8405C44.4426 41.3136 46 40.2942 46 38.8215V16.9594C46 15.7689 45.3007 14.6741 44.1671 14.3103C38.2289 12.4047 29.9092 12.5776 24.4033 14.8291C24.1443 14.935 23.8557 14.935 23.5967 14.8291C18.0908 12.5776 9.77112 12.4047 3.83294 14.3103C2.69931 14.6741 2 15.7689 2 16.9594V38.8215C2 40.2942 3.55737 41.3136 4.95202 40.8405Z" fill="#576684"/>
<path d="M41 32.9101C41 33.5075 40.4758 33.97 39.8808 33.9157C32.2778 33.2214 29.1993 34.8815 24.9259 37.4438C24.3478 37.7904 23.638 37.8159 23.0122 37.5655C17.9538 35.5412 10.6603 35.48 5.46682 37.382C4.77443 37.6356 4 37.144 4 36.4066V13.2552C4 12.4877 4.43545 11.7789 5.15093 11.5011C10.3611 9.47833 17.8503 9.49977 23.0122 11.5655C23.638 11.8159 24.3478 11.7903 24.9259 11.4438C29.0822 8.95246 32.1082 7.32426 39.2657 8.02883C40.2605 8.12675 41 8.97929 41 9.97883V32.9101Z" fill="#ACB4C9"/>
<path d="M23 11.5606C23.0041 11.5622 23.0081 11.5638 23.0122 11.5655C23.638 11.8159 24.3478 11.7903 24.9259 11.4438C24.9506 11.429 24.9753 11.4142 25 11.3994V37.3994C24.9753 37.4141 24.9506 37.4289 24.9259 37.4438C24.3478 37.7904 23.638 37.8159 23.0122 37.5655C23.0081 37.5639 23.0041 37.5622 23 37.5606V11.5606Z" fill="#576684"/>
<path d="M9.31295 21.9989C8.65577 22.1531 8 21.6712 8 20.9961V19.9932C8 19.3376 8.42443 18.7522 9.06058 18.5938C12.2402 17.8021 15.7598 17.8021 18.9394 18.5938C19.5756 18.7522 20 19.3376 20 19.9932V20.9961C20 21.6712 19.3442 22.1531 18.6871 21.9989C15.6587 21.2886 12.3413 21.2886 9.31295 21.9989Z" fill="#576684"/>
<path d="M9.31295 29.9989C8.65577 30.1531 8 29.6712 8 28.9961V27.9932C8 27.3376 8.42443 26.7522 9.06058 26.5938C12.2402 25.8021 15.7598 25.8021 18.9394 26.5938C19.5756 26.7522 20 27.3376 20 27.9932V28.9961C20 29.6712 19.3442 30.1531 18.6871 29.9989C15.6587 29.2886 12.3413 29.2886 9.31295 29.9989Z" fill="#576684"/>
</svg>