<!-- Copyright © Ewsgit 2022. -->
<!-- Licensed under the MIT License - https://ewsgit.github.io/devdash/copyright -->

<svg xmlns="http://www.w3.org/2000/svg" width="48" height="48" fill="none" viewBox="0 0 48 48"><path fill="#ACB4C9" d="M4.51787 11.8806C4.69168 10.4201 5.70341 9.31093 7.14911 9.04075C9.61827 8.5793 14.4256 8 23 8C31.5744 8 36.3817 8.5793 38.8509 9.04075C40.2966 9.31093 41.3083 10.4201 41.4821 11.8806C41.7279 13.9456 42 17.6629 42 24C42 30.3371 41.7279 34.0544 41.4821 36.1194C41.3083 37.5799 40.2966 38.6891 38.8509 38.9593C36.3817 39.4207 31.5744 40 23 40C14.4256 40 9.61827 39.4207 7.14911 38.9593C5.70341 38.6891 4.69168 37.5799 4.51787 36.1194C4.27211 34.0544 4 30.3371 4 24C4 17.6629 4.27211 13.9456 4.51787 11.8806Z"/><path fill="#576684" d="M34.8301 4.06251C35.4552 4.11405 35.8848 4.57195 35.9272 5.19777C35.9662 5.77271 36 6.65835 36 8C36 8.21747 35.9991 8.42295 35.9975 8.61707C37.1791 8.75653 38.1176 8.90383 38.8503 9.04075C40.296 9.31093 41.3077 10.4201 41.4815 11.8806C41.5973 12.8533 41.7189 14.1928 41.8152 16H4.18359C4.27986 14.1928 4.40148 12.8533 4.51725 11.8806C4.69106 10.4201 5.70279 9.31093 7.14849 9.04075C7.88139 8.90378 8.82028 8.75643 10.0025 8.61693C10.0009 8.42285 10 8.21741 10 8C10 6.65835 10.0338 5.77271 10.0728 5.19777C10.1152 4.57195 10.5448 4.11405 11.1699 4.06251C11.5953 4.02744 12.1876 4 13 4C13.8124 4 14.4047 4.02744 14.8301 4.06251C15.4552 4.11405 15.8848 4.57195 15.9272 5.19777C15.9662 5.77271 16 6.65835 16 8C16 8.05045 16 8.10025 15.9999 8.14942C17.9919 8.05697 20.3104 8 22.9994 8C25.6889 8 28.0078 8.057 30.0001 8.14947L30 8C30 6.65835 30.0338 5.77271 30.0728 5.19777C30.1152 4.57195 30.5448 4.11405 31.1699 4.06251C31.5953 4.02744 32.1876 4 33 4C33.8124 4 34.4047 4.02744 34.8301 4.06251Z"/><path fill="#576684" d="M10.0449 22.1991C10.0798 21.6247 10.4535 21.1798 11.0241 21.1054C11.4646 21.0479 12.1013 21 13 21C13.8987 21 14.5354 21.0479 14.9759 21.1054C15.5465 21.1798 15.9202 21.6247 15.9551 22.1991C15.9801 22.6099 16 23.1911 16 24C16 24.8089 15.9801 25.3901 15.9551 25.8009C15.9202 26.3753 15.5465 26.8202 14.9759 26.8946C14.5354 26.9521 13.8987 27 13 27C12.1013 27 11.4646 26.9521 11.0241 26.8946C10.4535 26.8202 10.0798 26.3753 10.0449 25.8009C10.0199 25.3901 10 24.8089 10 24C10 23.1911 10.0199 22.6099 10.0449 22.1991Z"/><path fill="#576684" d="M32.8394 22.0297C33.388 21.8735 33.8595 22.3563 33.8856 22.9391C33.9514 24.412 34.2198 26.0796 34.9948 27.1563C35.3438 27.6412 36.0157 27.7603 36.4348 27.3377C36.9363 26.832 37.319 26.0223 37.6073 25.1582C37.8379 24.4671 38.6494 24.149 39.2028 24.6092C42.0482 26.9755 45 30.6133 45 35.5227C45 42.0654 40.0751 45 34 45C27.9249 45 23 42.0654 23 35.5227C23 28.7896 28.552 24.4483 31.7673 22.4987C32.1094 22.2912 32.4698 22.1349 32.8394 22.0297Z"/><path fill="#ACB4C9" d="M34.3857 32.1031C34.1416 31.9656 33.8584 31.9656 33.6143 32.1031C32.6115 32.6676 30 34.4202 30 37.3607C30 39.8731 31.7909 41 34 41C36.2091 41 38 39.8731 38 37.3607C38 34.4202 35.3885 32.6676 34.3857 32.1031Z"/></svg>