<!-- Copyright © Ewsgit 2022. -->
<!-- Licensed under the MIT License - https://ewsgit.github.io/devdash/copyright -->

<svg xmlns="http://www.w3.org/2000/svg" width="48" height="48" fill="none" viewBox="0 0 48 48"><path fill="#ACB4C9" fill-rule="evenodd" d="M3.08622 7.01943C3.20094 4.87277 4.8728 3.20093 7.01947 3.08621C11.5115 2.84617 16.8319 3.16505 19.2456 3.3426C20.043 3.40126 20.7215 3.93786 20.8581 4.72565C20.9942 5.5111 21.0835 6.54801 20.8816 7.51048C20.7494 8.14063 20.178 8.5437 19.5376 8.6102C16.7953 8.89494 12.0458 8.96119 9.98427 8.9766C9.42857 8.98075 8.98085 9.42848 8.97669 9.98418C8.96128 12.0457 8.89503 16.7953 8.61024 19.5376C8.54373 20.178 8.14066 20.7494 7.51053 20.8816C6.54806 21.0835 5.51113 20.9942 4.72567 20.8581C3.93789 20.7215 3.40129 20.043 3.34263 19.2456C3.16507 16.8319 2.84616 11.5114 3.08622 7.01943Z" clip-rule="evenodd"/><path fill="#ACB4C9" fill-rule="evenodd" d="M44.9138 7.01943C44.7991 4.87277 43.1272 3.20093 40.9805 3.08621C36.4885 2.84617 31.1681 3.16505 28.7544 3.3426C27.957 3.40126 27.2785 3.93786 27.1419 4.72565C27.0058 5.5111 26.9165 6.54801 27.1184 7.51048C27.2506 8.14063 27.822 8.5437 28.4624 8.6102C31.2047 8.89494 35.9542 8.96119 38.0157 8.9766C38.5714 8.98075 39.0191 9.42848 39.0233 9.98418C39.0387 12.0457 39.105 16.7953 39.3898 19.5376C39.4563 20.178 39.8593 20.7494 40.4895 20.8816C41.4519 21.0835 42.4889 20.9942 43.2743 20.8581C44.0621 20.7215 44.5987 20.043 44.6574 19.2456C44.8349 16.8319 45.1538 11.5114 44.9138 7.01943Z" clip-rule="evenodd"/><path fill="#ACB4C9" fill-rule="evenodd" d="M44.9138 40.9806C44.7991 43.1272 43.1272 44.7991 40.9805 44.9138C36.4885 45.1538 31.1681 44.8349 28.7544 44.6574C27.957 44.5987 27.2785 44.0621 27.1419 43.2743C27.0058 42.4889 26.9165 41.452 27.1184 40.4895C27.2506 39.8594 27.822 39.4563 28.4624 39.3898C31.2047 39.1051 35.9542 39.0388 38.0157 39.0234C38.5714 39.0192 39.0192 38.5715 39.0233 38.0158C39.0387 35.9543 39.105 31.2047 39.3898 28.4624C39.4563 27.822 39.8593 27.2506 40.4895 27.1184C41.4519 26.9165 42.4889 27.0058 43.2743 27.1419C44.0621 27.2785 44.5987 27.957 44.6574 28.7544C44.8349 31.1681 45.1538 36.4886 44.9138 40.9806Z" clip-rule="evenodd"/><path fill="#ACB4C9" fill-rule="evenodd" d="M3.08622 40.9806C3.20094 43.1272 4.8728 44.7991 7.01947 44.9138C11.5115 45.1538 16.8319 44.8349 19.2456 44.6574C20.043 44.5987 20.7215 44.0621 20.8581 43.2743C20.9942 42.4889 21.0835 41.452 20.8816 40.4895C20.7494 39.8594 20.178 39.4563 19.5376 39.3898C16.7953 39.1051 12.0458 39.0388 9.98427 39.0234C9.42857 39.0192 8.98085 38.5715 8.97669 38.0158C8.96128 35.9543 8.89503 31.2047 8.61023 28.4624C8.54373 27.822 8.14066 27.2506 7.51053 27.1184C6.54806 26.9165 5.51113 27.0058 4.72567 27.1419C3.93789 27.2785 3.40129 27.957 3.34263 28.7544C3.16507 31.1681 2.84616 36.4886 3.08622 40.9806Z" clip-rule="evenodd"/></svg>