<!-- Copyright © Ewsgit 2022. -->
<!-- Licensed under the MIT License - https://ewsgit.github.io/devdash/copyright -->

<svg width="48" height="48" viewBox="0 0 48 48" fill="none" xmlns="http://www.w3.org/2000/svg">
<path d="M3.43093 10.2898C3.61668 8.51034 4.83361 7.14759 6.5989 6.85649C9.0665 6.44959 13.4918 6 21 6C28.5082 6 32.9335 6.44959 35.4011 6.85649C37.1664 7.14759 38.3833 8.51034 38.5691 10.2898C38.7841 12.3502 39 15.7307 39 21C39 26.2693 38.7841 29.6498 38.5691 31.7102C38.3833 33.4897 37.1664 34.8524 35.4011 35.1435C32.9335 35.5504 28.5082 36 21 36C13.4918 36 9.06651 35.5504 6.59891 35.1435C4.83361 34.8524 3.61668 33.4897 3.43093 31.7102C3.21586 29.6498 3 26.2693 3 21C3 15.7307 3.21586 12.3502 3.43093 10.2898Z" fill="#576684"/>
<path d="M44.5691 16.2898C44.3833 14.5103 43.1664 13.1476 41.4011 12.8565C38.9335 12.4496 34.5082 12 27 12C19.4918 12 15.0665 12.4496 12.5989 12.8565C10.8336 13.1476 9.61668 14.5103 9.43093 16.2898C9.21586 18.3502 9 21.7307 9 27C9 32.2693 9.21586 35.6498 9.43093 37.7102C9.61668 39.4897 10.8336 40.8524 12.5989 41.1435C15.0665 41.5504 19.4918 42 27 42C34.5082 42 38.9335 41.5504 41.4011 41.1435C43.1664 40.8524 44.3833 39.4897 44.5691 37.7102C44.7841 35.6498 45 32.2693 45 27C45 21.7307 44.7841 18.3502 44.5691 16.2898Z" fill="#ACB4C9"/>
</svg>