<!-- Copyright © Ewsgit 2022. -->
<!-- Licensed under the MIT License - https://ewsgit.github.io/devdash/copyright -->

<svg width="48" height="48" viewBox="0 0 48 48" fill="none" xmlns="http://www.w3.org/2000/svg">
<path d="M4.19067 22.5401C4.46754 21.6084 5.45455 21.2643 6.42571 21.2253C8.6428 21.1365 13.7215 21 24 21C34.2785 21 39.3572 21.1365 41.5743 21.2253C42.5455 21.2643 43.5325 21.6084 43.8093 22.5401C43.9214 22.9171 44 23.3967 44 24C44 24.6033 43.9214 25.0829 43.8093 25.4599C43.5325 26.3916 42.5455 26.7357 41.5743 26.7747C39.3572 26.8635 34.2785 27 24 27C13.7215 27 8.6428 26.8635 6.42571 26.7747C5.45455 26.7357 4.46754 26.3916 4.19067 25.4599C4.07861 25.0829 4 24.6033 4 24C4 23.3967 4.07861 22.9171 4.19067 22.5401Z" fill="#ACB4C9"/>
<circle cx="17" cy="24" r="7" fill="#576684"/>
<path d="M43.8093 9.54009C43.5325 8.60843 42.5455 8.26427 41.5743 8.22535C39.3572 8.1365 34.2785 8 24 8C13.7215 8 8.6428 8.1365 6.4257 8.22535C5.45455 8.26427 4.46754 8.60843 4.19067 9.54009C4.07861 9.91714 4 10.3967 4 11C4 11.6033 4.07861 12.0829 4.19067 12.4599C4.46754 13.3916 5.45455 13.7357 6.42571 13.7747C8.6428 13.8635 13.7215 14 24 14C34.2785 14 39.3572 13.8635 41.5743 13.7747C42.5455 13.7357 43.5325 13.3916 43.8093 12.4599C43.9214 12.0829 44 11.6033 44 11C44 10.3967 43.9214 9.91714 43.8093 9.54009Z" fill="#ACB4C9"/>
<circle r="7" transform="matrix(-1 0 0 1 31 11)" fill="#576684"/>
<path d="M43.8093 35.5401C43.5325 34.6084 42.5455 34.2643 41.5743 34.2253C39.3572 34.1365 34.2785 34 24 34C13.7215 34 8.6428 34.1365 6.4257 34.2253C5.45455 34.2643 4.46754 34.6084 4.19067 35.5401C4.07861 35.9171 4 36.3967 4 37C4 37.6033 4.07861 38.0829 4.19067 38.4599C4.46754 39.3916 5.45455 39.7357 6.42571 39.7747C8.6428 39.8635 13.7215 40 24 40C34.2785 40 39.3572 39.8635 41.5743 39.7747C42.5455 39.7357 43.5325 39.3916 43.8093 38.4599C43.9214 38.0829 44 37.6033 44 37C44 36.3967 43.9214 35.9171 43.8093 35.5401Z" fill="#ACB4C9"/>
<circle r="7" transform="matrix(-1 0 0 1 31 37)" fill="#576684"/>
</svg>