<!-- Copyright © Ewsgit 2022. -->
<!-- Licensed under the MIT License - https://ewsgit.github.io/devdash/copyright -->

<svg xmlns="http://www.w3.org/2000/svg" width="48" height="48" fill="none" viewBox="0 0 48 48"><path fill="#576684" d="M4.05041 40.9282C4.16121 39.8447 5.11103 39.2613 6.19944 39.2211C8.60506 39.1322 13.8837 39 24 39C34.1163 39 39.3949 39.1322 41.8006 39.2211C42.889 39.2613 43.8388 39.8447 43.9496 40.9282C43.9807 41.232 44 41.587 44 42C44 42.413 43.9807 42.768 43.9496 43.0718C43.8388 44.1553 42.889 44.7387 41.8006 44.7789C39.3949 44.8678 34.1163 45 24 45C13.8837 45 8.60506 44.8678 6.19944 44.7789C5.11103 44.7387 4.16121 44.1553 4.05041 43.0718C4.01934 42.768 4 42.413 4 42C4 41.587 4.01934 41.232 4.05041 40.9282Z"/><path fill="#ACB4C9" d="M9.49468 15.0702C7.77713 15.1331 6.46173 16.1818 6.28211 17.8911C6.12829 19.355 6 21.5962 6 25C6 28.4038 6.12829 30.645 6.28211 32.1089C6.46173 33.8182 7.77713 34.8669 9.49468 34.9298C10.5769 34.9695 12.0446 35 14 35C15.9554 35 17.4231 34.9695 18.5053 34.9298C20.2229 34.8669 21.5383 33.8182 21.7179 32.1089C21.8717 30.645 22 28.4038 22 25C22 21.5962 21.8717 19.355 21.7179 17.8911C21.5383 16.1818 20.2229 15.1331 18.5053 15.0702C17.4231 15.0305 15.9554 15 14 15C12.0446 15 10.5769 15.0305 9.49468 15.0702Z"/><path fill="#ACB4C9" d="M29.8499 3.09271C27.9258 3.19184 26.533 4.51006 26.3711 6.42988C26.1812 8.68244 26 12.5275 26 19C26 25.4725 26.1812 29.3176 26.3711 31.5701C26.533 33.4899 27.9258 34.8082 29.8499 34.9073C30.8917 34.961 32.2507 35 34 35C35.7493 35 37.1083 34.961 38.1501 34.9073C40.0742 34.8082 41.467 33.4899 41.6289 31.5701C41.8188 29.3176 42 25.4725 42 19C42 12.5275 41.8188 8.68244 41.6289 6.42988C41.467 4.51006 40.0742 3.19184 38.1501 3.09271C37.1083 3.03903 35.7493 3 34 3C32.2507 3 30.8917 3.03903 29.8499 3.09271Z"/></svg>