<!-- Copyright © Ewsgit 2022. -->
<!-- Licensed under the MIT License - https://ewsgit.github.io/devdash/copyright -->

<svg width="48" height="48" viewBox="0 0 48 48" fill="none" xmlns="http://www.w3.org/2000/svg">
<path d="M43.3461 8.57316C43.155 6.92575 42.1556 5.56573 40.5363 5.20762C38.0104 4.64902 33.1145 4 24 4C14.8855 4 9.9896 4.64902 7.46374 5.20762C5.84441 5.56573 4.84496 6.92575 4.65388 8.57316C4.36493 11.0644 4 15.1673 4 20C4 29.0284 8.76493 37.4764 16.7926 41.6079C19.4742 42.988 22.0913 44 24 44C25.9087 44 28.5258 42.988 31.2074 41.6079C39.2351 37.4764 44 29.0284 44 20C44 15.1673 43.6351 11.0644 43.3461 8.57316Z" fill="#ACB4C9"/>
<path fill-rule="evenodd" clip-rule="evenodd" d="M11.9934 20.0817C11.438 20.0817 10.988 19.6247 11.0002 19.0642C11.045 17.012 11.1793 15.2225 11.3129 13.8781C11.4785 12.2116 12.4958 10.8621 14.1311 10.5785C15.5498 10.3324 17.7171 10.0936 20.975 10.0004C21.5346 9.98441 21.9978 10.4402 21.9978 11.0053V19.0712C21.9978 19.6293 21.5496 20.0817 20.9967 20.0817H11.9934ZM36.9998 19.0642C37.012 19.6247 36.562 20.0817 36.0066 20.0817H27.0033C26.4504 20.0817 26.0022 19.6293 26.0022 19.0712V11.0053C26.0022 10.4402 26.4654 9.98441 27.025 10.0004C30.2829 10.0936 32.4502 10.3324 33.8689 10.5785C35.5042 10.8621 36.5215 12.2116 36.6871 13.8781C36.8207 15.2225 36.955 17.012 36.9998 19.0642ZM20.8186 35.9632C21.4231 36.1392 21.9978 35.6601 21.9978 35.025V25.1342C21.9978 24.5762 21.5496 24.1237 20.9967 24.1237H12.0538C11.4755 24.1237 11.0137 24.6185 11.1005 25.1956C11.9051 30.5458 16.0529 34.5757 20.8186 35.9632ZM27.1814 35.9632C26.5769 36.1392 26.0022 35.6601 26.0022 35.025V25.1342C26.0022 24.5762 26.4504 24.1237 27.0033 24.1237H35.9462C36.5245 24.1237 36.9863 24.6185 36.8995 25.1956C36.0949 30.5458 31.9471 34.5757 27.1814 35.9632Z" fill="#576684"/>
</svg>