<!-- Copyright © Ewsgit 2022. -->
<!-- Licensed under the MIT License - https://ewsgit.github.io/devdash/copyright -->

<svg width="48" height="48" viewBox="0 0 48 48" fill="none" xmlns="http://www.w3.org/2000/svg">
<path d="M24.9522 43.587C24.3325 45.471 21.6674 45.471 21.0478 43.587L18.4926 35.8175C18.2887 35.1976 17.8024 34.7113 17.1825 34.5074L9.413 31.9522C7.529 31.3325 7.529 28.6674 9.413 28.0478L17.1825 25.4926C17.8024 25.2887 18.2887 24.8024 18.4926 24.1825L21.0478 16.413C21.6675 14.529 24.3326 14.529 24.9522 16.413L27.5074 24.1825C27.7113 24.8024 28.1976 25.2887 28.8175 25.4926L36.587 28.0478C38.471 28.6675 38.471 31.3326 36.587 31.9522L28.8175 34.5074C28.1976 34.7113 27.7113 35.1976 27.5074 35.8175L24.9522 43.587Z" fill="#ACB4C9"/>
<path d="M37.2839 22.0707C36.8764 23.3098 35.1236 23.3098 34.7161 22.0707L33.0022 16.8594C32.8681 16.4517 32.5483 16.1319 32.1406 15.9978L26.9293 14.2839C25.6902 13.8764 25.6902 12.1236 26.9293 11.7161L32.1406 10.0022C32.5483 9.86814 32.8681 9.54834 33.0022 9.14061L34.7161 3.92927C35.1236 2.69024 36.8764 2.69024 37.2839 3.92927L38.9978 9.14061C39.1319 9.54834 39.4517 9.86814 39.8594 10.0022L45.0707 11.7161C46.3098 12.1236 46.3098 13.8764 45.0707 14.2839L39.8594 15.9978C39.4517 16.1319 39.1319 16.4517 38.9978 16.8594L37.2839 22.0707Z" fill="#576684"/>
<path d="M9.978 22.2921C9.66759 23.236 8.33241 23.236 8.022 22.2921L6.86926 18.7871C6.76711 18.4765 6.5235 18.2329 6.21291 18.1307L2.70789 16.978C1.76404 16.6676 1.76404 15.3324 2.70789 15.022L6.21291 13.8693C6.5235 13.7671 6.76711 13.5235 6.86926 13.2129L8.022 9.70789C8.33241 8.76404 9.66759 8.76404 9.978 9.70789L11.1307 13.2129C11.2329 13.5235 11.4765 13.7671 11.7871 13.8693L15.2921 15.022C16.236 15.3324 16.236 16.6676 15.2921 16.978L11.7871 18.1307C11.4765 18.2329 11.2329 18.4765 11.1307 18.7871L9.978 22.2921Z" fill="#576684"/>
</svg>