<!-- Copyright © Ewsgit 2022. -->
<!-- Licensed under the MIT License - https://ewsgit.github.io/devdash/copyright -->

<svg xmlns="http://www.w3.org/2000/svg" width="48" height="48" fill="none" viewBox="0 0 48 48"><path fill="#ACB4C9" d="M24 14L26.9352 13L35 21L34 24C36.0163 42 22.9028 46 5.76507 46C3.44621 46 1.99819 45.5681 1.27793 44.1365C0.374827 42.3415 1.8677 40.3995 2.97039 38.7178C8.08938 30.9111 2.28844 14 24 14Z"/><path fill="#576684" d="M24 14C24.3637 9.63562 25.781 5.22716 26.5351 3.15177C26.812 2.38957 27.5395 1.90745 28.3433 2.01494C30.6668 2.32565 35.64 3.49893 40.0705 7.92941C44.501 12.3599 45.6743 17.3332 45.9851 19.6567C46.0926 20.4605 45.6104 21.188 44.8482 21.465C42.7728 22.219 38.3644 23.6363 34 24C34 24 33.0397 20.9868 30.0265 17.9736C27.0132 14.9603 24 14 24 14Z"/></svg>