<!-- Copyright © Ewsgit 2022. -->
<!-- Licensed under the MIT License - https://ewsgit.github.io/devdash/copyright -->

<svg xmlns="http://www.w3.org/2000/svg" width="48" height="48" fill="none" viewBox="0 0 48 48"><path fill="#ACB4C9" d="M6.11226 45.1937C3.19303 44.9096 1.31402 42.4116 2.23625 39.5964C3.34073 36.2248 5.48893 30.9343 9.66718 23.1093C14.1658 14.6843 17.88 9.1974 20.3994 5.88022C22.3035 3.37326 25.6965 3.37326 27.6006 5.88022C30.12 9.19741 33.8342 14.6843 38.3328 23.1093C42.5111 30.9343 44.6593 36.2248 45.7637 39.5964C46.686 42.4116 44.807 44.9096 41.8877 45.1937C37.9471 45.5773 31.8288 46 24 46C16.1712 46 10.0529 45.5773 6.11226 45.1937Z"/><path fill="#576684" d="M21.7793 14.2959C20.5779 14.6388 20.0421 15.8711 20.1241 17.1178C20.313 19.9924 20.6945 25.2959 21.1058 28.1431C21.2274 28.9854 21.7159 29.7208 22.5522 29.8785C22.9286 29.9495 23.4054 30 24 30C24.5946 30 25.0714 29.9495 25.4478 29.8785C26.2841 29.7208 26.7726 28.9854 26.8942 28.1431C27.3055 25.2959 27.687 19.9924 27.8759 17.1178C27.9579 15.8711 27.4221 14.6388 26.2207 14.2959C25.6284 14.1268 24.8881 14 24 14C23.1119 14 22.3716 14.1268 21.7793 14.2959Z"/><path fill="#576684" d="M24 41C26.2091 41 28 39.2091 28 37C28 34.7909 26.2091 33 24 33C21.7909 33 20 34.7909 20 37C20 39.2091 21.7909 41 24 41Z"/></svg>