<!-- Copyright © Ewsgit 2022. -->
<!-- Licensed under the MIT License - https://ewsgit.github.io/devdash/copyright -->

<svg width="48" height="48" viewBox="0 0 48 48" fill="none" xmlns="http://www.w3.org/2000/svg">
<path d="M3 24C3 35.598 12.402 45 24 45C35.598 45 45 35.598 45 24C45 12.402 35.598 3 24 3C12.402 3 3 12.402 3 24Z" fill="#ACB4C9"/>
<path d="M45 24C45 12.402 35.598 3 24 3C12.402 3 3 12.402 3 24C12.8592 24 21.2037 17.5146 24 8.57714C26.7963 17.5146 35.1408 24 45 24Z" fill="#576684"/>
<path fill-rule="evenodd" clip-rule="evenodd" d="M16 26C17.1046 26 18 25.1046 18 24C18 22.8954 17.1046 22 16 22C14.8954 22 14 22.8954 14 24C14 25.1046 14.8954 26 16 26ZM32 26C33.1046 26 34 25.1046 34 24C34 22.8954 33.1046 22 32 22C30.8954 22 30 22.8954 30 24C30 25.1046 30.8954 26 32 26Z" fill="#576684"/>
<path d="M44.7428 27.2921C43.7801 27.6413 42.3961 28.0932 40.6173 28.5469C39.4844 28.8359 38.1913 29.1256 36.7447 29.3902C36.4113 28.6511 35.6001 28.1662 34.7164 28.2464C32.5071 28.4469 28.7915 28.6969 23.9994 28.6969C19.2072 28.6969 15.4916 28.4469 13.2823 28.2464C12.3986 28.1662 11.5874 28.6511 11.254 29.3901C9.80751 29.1256 8.51444 28.8358 7.38154 28.5469C5.60262 28.0931 4.2186 27.6413 3.25586 27.292C3.44242 28.477 3.72808 29.6291 4.1041 30.7395C4.84475 30.9693 5.69122 31.2118 6.64006 31.4538C8.00162 31.8011 9.57399 32.1474 11.3469 32.4537C11.5302 33.736 11.7654 34.9547 12.0006 36.0191C10.3238 36.1706 8.83747 36.3418 7.55121 36.5133C7.42258 36.5305 7.29594 36.5476 7.17131 36.5648C7.9002 37.5394 8.71178 38.4486 9.59564 39.282C10.5866 39.1672 11.6741 39.0563 12.8546 38.9557C13.2749 39.7446 13.9266 40.3756 14.7914 40.6873C16.4676 41.2916 19.4112 42.0001 23.9994 42.0001C28.5875 42.0001 31.5311 41.2916 33.2073 40.6873C34.0721 40.3756 34.7238 39.7445 35.1441 38.9557C36.3246 39.0562 37.4121 39.1672 38.4031 39.282C39.2869 38.4486 40.0985 37.5394 40.8274 36.5647C40.7028 36.5476 40.5763 36.5304 40.4477 36.5133C39.1614 36.3418 37.675 36.1706 35.9981 36.0191C36.2333 34.9547 36.4685 33.736 36.6518 32.4537C38.4248 32.1474 39.9972 31.8011 41.3588 31.4538C42.3076 31.2118 43.154 30.9693 43.8946 30.7395C44.2706 29.6291 44.5562 28.4771 44.7428 27.2921Z" fill="#576684"/>
</svg>