<!-- Copyright © Ewsgit 2022. -->
<!-- Licensed under the MIT License - https://ewsgit.github.io/devdash/copyright -->

<svg width="48" height="48" viewBox="0 0 48 48" fill="none" xmlns="http://www.w3.org/2000/svg">
<path d="M12.3791 3.01822C14.2183 2.86857 16.004 3.64909 17.2117 5.05289L18.9036 7.01953C19.6634 7.90267 20.767 8.41012 21.9279 8.41012H35.081C38.2031 8.41012 40.8024 10.8195 40.9015 13.9595C40.962 15.8748 41 18.1482 41 20.8373C41 27.8951 40.7381 32.0902 40.4961 34.46C40.3181 36.2026 39.1643 37.562 37.456 37.8994C34.8832 38.4076 30.1385 39 22 39C13.8615 39 9.11681 38.4076 6.54402 37.8994C4.8357 37.562 3.68186 36.2026 3.50391 34.46C3.26192 32.0902 3 27.8951 3 20.8373C3 13.7794 3.26192 9.58428 3.50391 7.2145C3.68186 5.47188 4.83692 4.11223 6.54525 3.77488C7.86435 3.5144 9.75411 3.2318 12.3791 3.01822Z" fill="#ACB4C9"/>
<path d="M24.1955 28.5798C24.3408 26.9277 25.3682 25.6103 27.0104 25.378C28.4481 25.1747 30.6563 25 34 25C37.3437 25 39.5519 25.1747 40.9896 25.378C42.6318 25.6103 43.6592 26.9277 43.8045 28.5798C43.9089 29.7673 44 31.2925 44 33C44 37.5142 41.6175 41.7382 37.6037 43.8039C36.2629 44.494 34.9544 45 34 45C33.0456 45 31.7371 44.494 30.3963 43.8039C26.3825 41.7382 24 37.5142 24 33C24 31.2925 24.0911 29.7673 24.1955 28.5798Z" fill="#576684"/>
<path fill-rule="evenodd" clip-rule="evenodd" d="M39.5835 30.7463C40.0641 31.247 40.1407 32.0232 39.751 32.6003C37.7695 35.5357 35.9828 37.4855 34.9354 38.5237C34.3662 39.0879 33.5134 39.164 32.8762 38.6815C31.9652 37.9918 30.6059 36.8087 29.2845 35.0782C28.9188 34.5995 28.9101 33.9368 29.2326 33.4267L29.6974 32.6915C30.0982 32.0575 30.9548 31.9318 31.4838 32.4589C32.7282 33.6989 33.7632 34.9608 33.7632 34.9608C33.7632 34.9608 35.279 32.8008 37.4987 30.3805C37.9639 29.8733 38.7478 29.8758 39.2242 30.3721L39.5835 30.7463Z" fill="#ACB4C9"/>
</svg>