<!-- Copyright © Ewsgit 2022. -->
<!-- Licensed under the MIT License - https://ewsgit.github.io/devdash/copyright -->

<svg width="48" height="48" viewBox="0 0 48 48" fill="none" xmlns="http://www.w3.org/2000/svg">
<path fill-rule="evenodd" clip-rule="evenodd" d="M11.5623 16.3541C11.9043 10.5399 16.7191 6 22.5433 6H25.4569C31.2811 6 36.0959 10.5399 36.4379 16.3541L36.9949 25.8238C37.0922 27.4778 35.8303 28.8975 34.1763 28.9948C32.5223 29.0921 31.1026 27.8302 31.0053 26.1762L30.4482 16.7064C30.2928 14.0636 28.1042 12 25.4569 12H22.5433C19.896 12 17.7074 14.0636 17.552 16.7064L16.9949 26.1762C16.8976 27.8302 15.4779 29.0921 13.8239 28.9948C12.1699 28.8975 10.908 27.4778 11.0053 25.8238L11.5623 16.3541Z" fill="#576684"/>
<path d="M6.35951 23.6908C6.55511 21.9593 7.82748 20.7565 9.55939 20.5647C11.9934 20.2951 16.3947 20 24 20C31.8152 20 36.2026 20.3116 38.5538 20.5869C40.1343 20.772 41.32 21.8431 41.5434 23.4186C41.7781 25.0742 42 27.7605 42 32C42 36.2395 41.7781 38.9258 41.5434 40.5814C41.32 42.1569 40.1343 43.228 38.5538 43.4131C36.2026 43.6884 31.8152 44 24 44C16.1848 44 11.7974 43.6884 9.4462 43.4131C7.8657 43.228 6.68002 42.1569 6.45664 40.5814C6.2219 38.9258 6 36.2395 6 32C6 27.9853 6.17056 25.3635 6.35951 23.6908Z" fill="#ACB4C9"/>
<path d="M24 27C25.0102 27 25.8528 27.764 25.9092 28.7726C25.9572 29.6305 26 30.7465 26 32C26 33.2535 25.9572 34.3695 25.9092 35.2274C25.8528 36.236 25.0102 37 24 37C22.9898 37 22.1472 36.236 22.0908 35.2274C22.0428 34.3695 22 33.2535 22 32C22 30.7465 22.0428 29.6305 22.0908 28.7726C22.1472 27.764 22.9898 27 24 27Z" fill="#576684"/>
</svg>