<!-- Copyright © Ewsgit 2022. -->
<!-- Licensed under the MIT License - https://ewsgit.github.io/devdash/copyright -->

<svg xmlns="http://www.w3.org/2000/svg" width="48" height="48" fill="none" viewBox="0 0 48 48"><path fill="#576684" fill-rule="evenodd" d="M38.6833 10.658C39.4242 12.14 38.8236 13.942 37.3416 14.683L19.5 23.9997L37.3416 33.3164C38.8236 34.0574 39.4242 35.8594 38.6833 37.3413C37.9423 38.8233 36.1403 39.4239 34.6584 38.683L9.65836 26.683C8.64201 26.1748 8 25.136 8 23.9997C8 22.8634 8.64201 21.8246 9.65836 21.3164L34.6584 9.3164C36.1403 8.57543 37.9423 9.1761 38.6833 10.658Z" clip-rule="evenodd"/><path fill="#ACB4C9" d="M21 24C21 28.9706 16.9706 33 12 33C7.02944 33 3 28.9706 3 24C3 19.0294 7.02944 15 12 15C16.9706 15 21 19.0294 21 24Z"/><path fill="#ACB4C9" d="M45 12C45 16.9706 40.9706 21 36 21C31.0294 21 27 16.9706 27 12C27 7.02944 31.0294 3 36 3C40.9706 3 45 7.02944 45 12Z"/><path fill="#ACB4C9" d="M45 36C45 40.9706 40.9706 45 36 45C31.0294 45 27 40.9706 27 36C27 31.0294 31.0294 27 36 27C40.9706 27 45 31.0294 45 36Z"/></svg>