<!-- Copyright © Ewsgit 2022. -->
<!-- Licensed under the MIT License - https://ewsgit.github.io/devdash/copyright -->

<svg xmlns="http://www.w3.org/2000/svg" width="48" height="48" fill="none" viewBox="0 0 48 48"><path fill="#ACB4C9" d="M25 14.468L38.2193 3.13715C39.3239 2.1904 40.7805 1.63536 42.0873 2.27446C42.7331 2.59025 43.465 3.07104 44.197 3.80299C44.929 4.53495 45.4097 5.26691 45.7255 5.91267C46.3646 7.21955 45.8096 8.67614 44.8628 9.78068L33.532 23L25 14.468Z"/><path fill="#576684" fill-rule="evenodd" d="M22.6359 2.05976C21.9544 1.88937 21.2334 2.08907 20.7366 2.58583L12.5078 10.8146C12.0271 11.2953 11.8192 12.0022 12.1892 12.5726C12.4445 12.9663 12.834 13.4205 13.4195 13.8219C14.0683 14.2668 14.9227 14.0566 15.4789 13.5004L22.7644 6.21497L25.5554 6.91272L5.46073 26.9335C4.79106 27.6007 4.37971 28.4813 4.32403 29.4249C4.21626 31.2514 4.05292 34.8269 4.00005 40.3406C3.99798 40.5559 4.06466 40.7681 4.19509 40.9394C4.56597 41.4267 5.02162 41.9671 5.56203 42.5075C6.06707 43.0125 6.57212 43.4435 7.03375 43.8005C7.20607 43.9338 7.42056 44.002 7.63839 44C13.1639 43.9473 16.7462 43.7837 18.5749 43.6758C19.5186 43.6201 20.3992 43.2088 21.0664 42.5391L43.0047 20.52C44.942 18.5756 45.6981 15.7519 44.2322 13.4314C43.2943 11.9466 41.9124 10.1248 39.8938 8.10619C37.8752 6.08755 36.0533 4.70569 34.5685 3.76778C32.8742 2.69749 30.9116 2.81177 29.2188 3.70549L22.6359 2.05976Z" clip-rule="evenodd"/><path fill="#576684" d="M12 40.0383L5.50005 45.6097C5.13409 45.9234 4.65863 46.1036 4.20668 45.9361C3.84086 45.8005 3.37731 45.5498 2.91377 45.0862C2.45022 44.6227 2.19951 44.1591 2.06392 43.7933C1.89639 43.3414 2.07661 42.8659 2.39029 42.5L7.96168 36L12 40.0383Z"/><path fill="#ACB4C9" d="M18.457 43.6827C16.5943 43.7906 13.0474 43.9485 7.63839 44C7.42056 44.0021 7.20607 43.9338 7.03375 43.8006C6.57212 43.4436 6.06707 43.0126 5.56203 42.5076C5.02162 41.9672 4.56597 41.4267 4.19509 40.9395C4.06467 40.7682 3.99798 40.556 4.00005 40.3407C4.0518 34.9434 4.20942 31.4032 4.31714 29.543C6.24162 30.9049 9.12081 33.1209 12 36.0001C14.8791 38.8792 17.0951 41.7583 18.457 43.6827Z"/></svg>