<!-- Copyright © Ewsgit 2022. -->
<!-- Licensed under the MIT License - https://ewsgit.github.io/devdash/copyright -->

<svg width="48" height="48" viewBox="0 0 48 48" fill="none" xmlns="http://www.w3.org/2000/svg">
<path d="M44 24C44 35.0457 35.0457 44 24 44C12.9543 44 4 35.0457 4 24C4 12.9543 12.9543 4 24 4C35.0457 4 44 12.9543 44 24Z" fill="#576684"/>
<path d="M24 7.5C24.5523 7.5 25 7.94772 25 8.5V12.0411C31.1595 12.5492 36 17.7093 36 24C36 28.9193 33.0399 33.1472 28.8038 34.9998C31.4424 36.1536 33.586 38.2289 34.8277 40.8189C31.7071 42.8318 27.9904 44 24.0008 44C20.0111 44 16.2944 42.8318 13.1738 40.8189C14.4154 38.2291 16.5587 36.154 19.197 35.0002C14.9604 33.1477 12 28.9196 12 24C12 17.7093 16.8405 12.5492 23 12.0411V8.5C23 7.94772 23.4477 7.5 24 7.5Z" fill="#ACB4C9"/>
<path fill-rule="evenodd" clip-rule="evenodd" d="M21 27C21.5523 27 22 27.4477 22 28C22 29.1046 22.8954 30 24 30C25.1046 30 26 29.1046 26 28C26 27.4477 26.4477 27 27 27C27.5523 27 28 27.4477 28 28C28 30.2091 26.2091 32 24 32C21.7909 32 20 30.2091 20 28C20 27.4477 20.4477 27 21 27Z" fill="#576684"/>
<path d="M17 22C17 20.9976 17.7735 20.168 18.7748 20.1214C20.0354 20.0626 21.8768 20 24 20C26.1232 20 27.9646 20.0626 29.2252 20.1214C30.2265 20.168 31 20.9976 31 22C31 23.0024 30.2265 23.832 29.2252 23.8786C27.9646 23.9374 26.1232 24 24 24C21.8768 24 20.0354 23.9374 18.7748 23.8786C17.7735 23.832 17 23.0024 17 22Z" fill="#576684"/>
</svg>