<!-- Copyright © Ewsgit 2022. -->
<!-- Licensed under the MIT License - https://ewsgit.github.io/devdash/copyright -->

<svg width="48" height="48" viewBox="0 0 48 48" fill="none" xmlns="http://www.w3.org/2000/svg">
<circle cx="35" cy="16" r="10" fill="#576684"/>
<path d="M33.8924 22.1726C33.9519 22.1749 34.0111 22.1773 34.07 22.1796C40.3933 22.4352 45 26.6715 45 33C45 39.3285 40.3933 43.5648 34.07 43.8204C31.4114 43.9278 28.0996 44 24 44C19.9004 44 16.5886 43.9278 13.93 43.8204C7.60674 43.5648 3 39.3285 3 33C3 28.0633 5.80331 24.3997 10.038 22.9057C10.4812 16.5902 14.7744 12.0487 21.2827 12.0025C21.517 12.0009 21.7561 12 22 12C22.244 12 22.483 12.0009 22.7173 12.0025C28.9709 12.0469 33.1794 16.2416 33.8924 22.1726Z" fill="#ACB4C9"/>
</svg>