<!-- Copyright © Ewsgit 2022. -->
<!-- Licensed under the MIT License - https://ewsgit.github.io/devdash/copyright -->

<svg width="48" height="48" viewBox="0 0 48 48" fill="none" xmlns="http://www.w3.org/2000/svg">
<circle cx="24" cy="24" r="21" fill="#ACB4C9"/>
<path d="M26.6076 15.5322C28.0226 14.395 29.7317 15.1722 29.8362 16.992C29.8957 18.0261 29.947 19.341 29.9757 21.0016C30.3009 21.0005 30.6421 21 31 21C33.6736 21 35.4145 21.0306 36.5135 21.0635C37.6181 21.0965 38.679 21.5724 38.8855 22.6581C38.9546 23.0215 39 23.4642 39 24C39 24.5358 38.9546 24.9785 38.8855 25.3419C38.679 26.4276 37.6181 26.9035 36.5135 26.9365C35.4145 26.9694 33.6736 27 31 27C30.6421 27 30.3009 26.9995 29.9757 26.9984C29.947 28.6587 29.8957 29.9736 29.8363 31.0077C29.7317 32.8278 28.0222 33.6051 26.6069 32.4677C25.7557 31.7836 24.7018 30.8913 23.4286 29.7385C21.408 27.9089 20.2158 26.5167 19.5218 25.5621C18.826 24.605 18.8261 23.3958 19.5219 22.4387C20.216 21.4842 21.4081 20.0921 23.4286 18.2622C24.7022 17.1089 25.7563 16.2163 26.6076 15.5322Z" fill="#576684"/>
<path d="M12.791 14.0625C11.7943 14.1762 11.2285 15.0264 11.1696 16.0279C11.0887 17.4042 11 19.8575 11 24C11 28.1425 11.0887 30.5958 11.1696 31.9721C11.2285 32.9736 11.7943 33.8238 12.791 33.9375C13.1237 33.9755 13.5232 34 14 34C14.4768 34 14.8763 33.9755 15.209 33.9375C16.2057 33.8238 16.7715 32.9736 16.8304 31.9721C16.9113 30.5958 17 28.1425 17 24C17 19.8575 16.9113 17.4042 16.8304 16.0279C16.7715 15.0264 16.2057 14.1762 15.209 14.0625C14.8763 14.0245 14.4768 14 14 14C13.5232 14 13.1237 14.0245 12.791 14.0625Z" fill="#576684"/>
</svg>