<!-- Copyright © Ewsgit 2022. -->
<!-- Licensed under the MIT License - https://ewsgit.github.io/devdash/copyright -->

<svg xmlns="http://www.w3.org/2000/svg" width="48" height="48" fill="none" viewBox="0 0 48 48"><path fill="#ACB4C9" d="M10 21.8017C10 14.1792 16.268 8 24 8C26.6132 8 29.0593 8.70585 31.1526 9.93471C32.1845 10.5405 32.6155 11.8533 31.7854 12.709C31.6631 12.835 31.5272 12.958 31.3763 13.0736C30.6474 13.632 29.656 13.3639 28.8435 12.9318C27.4021 12.1653 25.7526 11.7302 24 11.7302C18.3577 11.7302 13.7838 16.2394 13.7838 21.8017V26.278C13.7838 31.3334 17.562 35.5188 22.4865 36.2398C23.6216 38.2146 22.4865 40 22.4865 40C15.4663 39.256 10 33.3963 10 26.278V21.8017Z"/><path fill="#ACB4C9" d="M33.5491 13.6235C34.3099 13.1059 35.2662 13.5566 35.7678 14.322C37.1802 16.4771 38 19.045 38 21.8017V26.278C38 33.3963 32.5337 39.256 25.5135 40C25.5135 40 24.3784 38.5876 25.5135 36.2398C30.438 35.5188 34.2162 31.3334 34.2162 26.278V21.8017C34.2162 20.0407 33.7578 18.3853 32.9521 16.9451C32.5325 16.1951 32.247 15.2947 32.6854 14.5552C32.9391 14.1271 33.2457 13.8299 33.5491 13.6235Z"/><path fill="#ACB4C9" d="M24 13.9683C19.6116 13.9683 16.0541 17.4755 16.0541 21.8017C16.0541 22.2714 16.2811 22.722 16.7331 22.8704C17.2708 23.0469 18.1028 23.1687 19.1384 22.8335C19.579 22.6908 19.8378 22.259 19.8378 21.8017C19.8378 19.5356 21.7013 17.6985 24 17.6985C26.2987 17.6985 28.1622 19.5356 28.1622 21.8017V26.278C28.1622 28.5441 26.2987 30.3812 24 30.3812C21.7013 30.3812 19.8378 28.5441 19.8378 26.278C19.8378 25.8325 19.5495 25.4281 19.1075 25.3349C18.1119 25.125 17.3069 25.1965 16.7738 25.3081C16.3202 25.4032 16.0541 25.8208 16.0541 26.278C16.0541 30.6043 19.6116 34.1114 24 34.1114C28.3884 34.1114 31.9459 30.6043 31.9459 26.278V21.8017C31.9459 17.4755 28.3884 13.9683 24 13.9683Z"/><path fill="#ACB4C9" d="M24 19.9366C25.0449 19.9366 25.8919 20.7717 25.8919 21.8017V26.278C25.8919 27.308 25.0449 28.1431 24 28.1431C22.9551 28.1431 22.1081 27.308 22.1081 26.278V21.8017C22.1081 20.7717 22.9551 19.9366 24 19.9366Z"/><path fill="#576684" d="M4.79093 2.18249C3.40492 2.3155 2.31553 3.40488 2.1825 4.79089C1.79128 8.86709 2.11876 12.6323 2.33305 14.4225C2.41565 15.1126 2.85227 15.7127 3.5306 15.8642C4.1288 15.9977 4.92932 16.0776 5.78735 15.8866C6.46577 15.7355 6.89942 15.1127 6.98399 14.4228C7.24448 12.2977 7.3295 9.8356 7.35725 8.45479C7.3693 7.85501 7.85511 7.3692 8.45489 7.35714C9.83568 7.3294 12.2978 7.24439 14.4228 6.98394C15.1127 6.89939 15.7355 6.46574 15.8866 5.78729C16.0776 4.92928 15.9977 4.12877 15.8642 3.53058C15.7127 2.85223 15.1126 2.41561 14.4225 2.33302C12.6322 2.11875 8.86713 1.7913 4.79093 2.18249Z"/><path fill="#576684" d="M43.2091 2.18249C44.5951 2.3155 45.6845 3.40488 45.8175 4.79089C46.2087 8.86709 45.8812 12.6323 45.667 14.4225C45.5844 15.1126 45.1477 15.7127 44.4694 15.8642C43.8712 15.9977 43.0707 16.0776 42.2127 15.8866C41.5342 15.7355 41.1006 15.1127 41.016 14.4228C40.7555 12.2977 40.6705 9.8356 40.6428 8.45479C40.6307 7.85501 40.1449 7.3692 39.5451 7.35714C38.1643 7.3294 35.7022 7.24439 33.5772 6.98394C32.8873 6.89939 32.2645 6.46574 32.1134 5.78729C31.9224 4.92928 32.0023 4.12877 32.1358 3.53058C32.2873 2.85223 32.8874 2.41561 33.5775 2.33302C35.3678 2.11875 39.1329 1.7913 43.2091 2.18249Z"/><path fill="#576684" d="M45.8175 43.2091C45.6845 44.5951 44.5951 45.6845 43.2091 45.8175C39.1329 46.2087 35.3678 45.8813 33.5775 45.667C32.8874 45.5844 32.2873 45.1478 32.1358 44.4694C32.0023 43.8712 31.9224 43.0707 32.1134 42.2127C32.2645 41.5343 32.8873 41.1006 33.5772 41.0161C35.7022 40.7556 38.1643 40.6706 39.5451 40.6429C40.1449 40.6308 40.6307 40.145 40.6428 39.5452C40.6705 38.1644 40.7555 35.7023 41.016 33.5772C41.1006 32.8873 41.5342 32.2645 42.2127 32.1134C43.0707 31.9224 43.8712 32.0023 44.4694 32.1358C45.1477 32.2873 45.5844 32.8874 45.667 33.5775C45.8812 35.3677 46.2087 39.1329 45.8175 43.2091Z"/><path fill="#576684" d="M4.79093 45.8175C3.40492 45.6845 2.31553 44.5951 2.1825 43.2091C1.79128 39.1329 2.11876 35.3677 2.33305 33.5775C2.41565 32.8874 2.85226 32.2873 3.5306 32.1358C4.12879 32.0023 4.92932 31.9224 5.78735 32.1134C6.46577 32.2645 6.89942 32.8873 6.98398 33.5772C7.24448 35.7023 7.3295 38.1644 7.35725 39.5452C7.3693 40.145 7.85511 40.6308 8.45489 40.6429C9.83568 40.6706 12.2978 40.7556 14.4228 41.0161C15.1127 41.1006 15.7355 41.5343 15.8866 42.2127C16.0776 43.0707 15.9977 43.8712 15.8642 44.4694C15.7127 45.1478 15.1126 45.5844 14.4225 45.667C12.6322 45.8813 8.86713 46.2087 4.79093 45.8175Z"/></svg>