<!-- Copyright © Ewsgit 2022. -->
<!-- Licensed under the MIT License - https://ewsgit.github.io/devdash/copyright -->

<svg width="48" height="48" viewBox="0 0 48 48" fill="none" xmlns="http://www.w3.org/2000/svg">
<path d="M6.43383 17.7461C4.93292 16.2919 4 14.2549 4 12C4 7.58172 7.58172 4 12 4C14.4849 4 16.7051 5.13291 18.1725 6.91038C20.0088 6.31926 21.9671 6 24 6C26.0329 6 27.9912 6.31926 29.8275 6.91038C31.2949 5.13291 33.5151 4 36 4C40.4183 4 44 7.58172 44 12C44 14.2549 43.0671 16.2919 41.5662 17.7461C42.4902 19.9812 43 22.4311 43 25C43 30.295 40.834 35.0841 37.3398 38.5296C38.4852 41.6908 39 43.8916 39 43.8916C39 43.8916 38.9188 44.7617 37.6009 45.5194C36.2831 46.2771 35.4858 45.9121 35.4858 45.9121C35.4858 45.9121 34.0131 44.5391 32.0205 42.2292C29.5838 43.3654 26.866 44 24 44C21.134 44 18.4162 43.3654 15.9795 42.2292C13.9869 44.5391 12.5142 45.9121 12.5142 45.9121C12.5142 45.9121 11.7169 46.2771 10.3991 45.5194C9.08123 44.7617 9 43.8916 9 43.8916C9 43.8916 9.5148 41.6908 10.6602 38.5296C7.16595 35.0841 5 30.295 5 25C5 22.4311 5.50983 19.9812 6.43383 17.7461Z" fill="#ACB4C9"/>
<path d="M2.60148 8.65575C2.05414 8.18829 1.63664 7.55966 1.80357 6.85949C1.93722 6.2989 2.26667 5.5433 3.02124 4.64404C3.77581 3.74478 4.46273 3.28913 4.99159 3.06016C5.65214 2.77419 6.34371 3.07618 6.89911 3.53403C10.0441 6.12666 21.2087 15.3362 26.7202 19.9609C32.2317 24.5856 43.2401 33.9814 46.3395 36.6284C46.8868 37.0959 47.3043 37.7245 47.1374 38.4247C47.0037 38.9853 46.6743 39.7409 45.9197 40.6401C45.1652 41.5394 44.4782 41.9951 43.9494 42.224C43.2888 42.51 42.5973 42.208 42.0419 41.7502C38.8968 39.1575 27.7322 29.9479 22.2207 25.3232C16.7092 20.6986 5.70085 11.3028 2.60148 8.65575Z" fill="#576684"/>
</svg>