<!-- Copyright © Ewsgit 2022. -->
<!-- Licensed under the MIT License - https://ewsgit.github.io/devdash/copyright -->

<svg width="48" height="48" viewBox="0 0 48 48" fill="none" xmlns="http://www.w3.org/2000/svg">
<circle r="16" transform="matrix(-1 0 0 1 24 20)" fill="#ACB4C9"/>
<path d="M16.2177 33.0735C15.4123 33.0953 14.5636 33.3159 14.2548 34.0602C14.1089 34.4117 14 34.8813 14 35.5C14 36.1187 14.1089 36.5883 14.2548 36.9398C14.3526 37.1757 14.5047 37.359 14.6925 37.5C14.5047 37.641 14.3526 37.8243 14.2548 38.0602C14.1089 38.4117 14 38.8813 14 39.5C14 40.1187 14.1089 40.5883 14.2548 40.9398C14.5636 41.6841 15.4123 41.9047 16.2177 41.9265C16.6563 41.9383 17.2337 41.951 17.9812 41.9624L18.5848 43.1696C18.8481 43.6962 19.3297 44.0799 19.9107 44.1755C20.7861 44.3196 22.2348 44.5 24 44.5C25.7652 44.5 27.2139 44.3196 28.0893 44.1755C28.6703 44.0799 29.1519 43.6962 29.4152 43.1696L30.0188 41.9624C30.7663 41.951 31.3437 41.9383 31.7823 41.9265C32.5877 41.9047 33.4364 41.6841 33.7452 40.9398C33.8911 40.5883 34 40.1187 34 39.5C34 38.8813 33.8911 38.4117 33.7452 38.0602C33.6474 37.8243 33.4953 37.641 33.3075 37.5C33.4953 37.359 33.6474 37.1757 33.7452 36.9398C33.8911 36.5883 34 36.1187 34 35.5C34 34.8813 33.8911 34.4117 33.7452 34.0602C33.4364 33.3159 32.5877 33.0953 31.7823 33.0735C30.5396 33.0399 28.183 33 24 33C19.817 33 17.4604 33.0399 16.2177 33.0735Z" fill="#576684"/>
<path fill-rule="evenodd" clip-rule="evenodd" d="M24 12C28.4183 12 32 15.5817 32 20C32 21.1046 32.8954 22 34 22C35.1046 22 36 21.1046 36 20C36 13.3726 30.6274 8 24 8C22.8954 8 22 8.89543 22 10C22 11.1046 22.8954 12 24 12Z" fill="#576684"/>
</svg>