<!-- Copyright © Ewsgit 2022. -->
<!-- Licensed under the MIT License - https://ewsgit.github.io/devdash/copyright -->

<svg xmlns="http://www.w3.org/2000/svg" width="48" height="48" fill="none" viewBox="0 0 48 48"><path fill="#ACB4C9" d="M7.49844 25.8976C5.77459 25.8041 4.44559 24.6843 4.24386 22.9698C4.10759 21.8116 4 20.2004 4 18C4 15.7996 4.10759 14.1884 4.24386 13.0302C4.44559 11.3157 5.77459 10.1959 7.49843 10.1024C8.57148 10.0441 10.0335 10 12 10C13.9665 10 15.4285 10.0441 16.5016 10.1024C18.2254 10.1959 19.5544 11.3157 19.7561 13.0302C19.8924 14.1884 20 15.7996 20 18C20 20.2004 19.8924 21.8116 19.7561 22.9698C19.5544 24.6843 18.2254 25.8041 16.5016 25.8976C15.4285 25.9559 13.9665 26 12 26C10.0335 26 8.57149 25.9559 7.49844 25.8976Z"/><path fill="#ACB4C9" d="M25.4984 43.8976C23.7746 43.8041 22.4456 42.6843 22.2439 40.9698C22.1076 39.8116 22 38.2004 22 36C22 33.7996 22.1076 32.1884 22.2439 31.0302C22.4456 29.3157 23.7746 28.1959 25.4984 28.1024C26.5715 28.0441 28.0335 28 30 28C31.9665 28 33.4285 28.0441 34.5016 28.1024C36.2254 28.1959 37.5544 29.3157 37.7561 31.0302C37.8924 32.1884 38 33.7996 38 36C38 38.2004 37.8924 39.8116 37.7561 40.9698C37.5544 42.6843 36.2254 43.8041 34.5016 43.8976C33.4285 43.9559 31.9665 44 30 44C28.0335 44 26.5715 43.9559 25.4984 43.8976Z"/><path fill="#ACB4C9" d="M4.10236 31.4984C4.19589 29.7746 5.31567 28.4456 7.03022 28.2439C8.18843 28.1076 9.79961 28 12 28C14.2004 28 15.8116 28.1076 16.9698 28.2439C18.6843 28.4456 19.8041 29.7746 19.8976 31.4984C19.9559 32.5715 20 34.0335 20 36C20 37.9666 19.9559 39.4285 19.8976 40.5016C19.8041 42.2254 18.6843 43.5544 16.9698 43.7561C15.8116 43.8924 14.2004 44 12 44C9.79961 44 8.18843 43.8924 7.03022 43.7561C5.31567 43.5544 4.19589 42.2254 4.10236 40.5016C4.04413 39.4285 4 37.9665 4 36C4 34.0335 4.04413 32.5715 4.10236 31.4984Z"/><path fill="#ACB4C9" d="M22.2044 7.79227C22.328 6.07032 23.4499 4.73031 25.1566 4.4707C26.775 4.22452 29.2727 4 33 4C36.7273 4 39.225 4.22452 40.8434 4.4707C42.5501 4.73031 43.672 6.07032 43.7956 7.79227C43.9048 9.31472 44 11.6131 44 15C44 18.3869 43.9048 20.6853 43.7956 22.2077C43.672 23.9297 42.5501 25.2697 40.8434 25.5293C39.225 25.7755 36.7273 26 33 26C29.2727 26 26.775 25.7755 25.1566 25.5293C23.4499 25.2697 22.328 23.9297 22.2044 22.2077C22.0952 20.6853 22 18.3869 22 15C22 11.6131 22.0952 9.31472 22.2044 7.79227Z"/></svg>