<!-- Copyright © Ewsgit 2022. -->
<!-- Licensed under the MIT License - https://ewsgit.github.io/devdash/copyright -->

<svg xmlns="http://www.w3.org/2000/svg" width="48" height="48" fill="none" viewBox="0 0 48 48"><path fill="#ACB4C9" d="M24 4C31.803 4 38.3035 10.0657 38.9515 17.9516L39.4723 24.2895C39.6728 26.7306 40.4234 29.0923 41.6661 31.1927L43.3169 33.9829C44.7137 36.3438 43.9406 38.7716 41.252 39.1533C39.1778 39.4478 36.1586 39.7241 31.7786 39.8768C30.9341 43.3896 27.7719 46 24 46C20.2281 46 17.0659 43.3896 16.2214 39.8768C11.8414 39.7241 8.82219 39.4478 6.74804 39.1533C4.0594 38.7716 3.28629 36.3438 4.68307 33.9829L6.33388 31.1927C7.57658 29.0923 8.32715 26.7306 8.52774 24.2895L9.04854 17.9516C9.69655 10.0657 16.197 4 24 4Z"/><path fill="#576684" d="M43.2974 40.5174C43.8327 41.0628 44.2023 41.7823 43.9203 42.4927C43.7129 43.0149 43.3075 43.6925 42.5251 44.4749C41.7428 45.2572 41.0651 45.6627 40.5429 45.87C39.8326 46.152 39.1131 45.7825 38.5676 45.2471C35.7234 42.4555 26.3266 33.2261 21.6655 28.565C17.0044 23.9039 7.7749 14.5071 4.98331 11.6628C4.44797 11.1174 4.07841 10.3979 4.36042 9.68754C4.56775 9.16531 4.97324 8.48765 5.75557 7.70532C6.53791 6.92299 7.21556 6.5175 7.7378 6.31017C8.44813 6.02816 9.16761 6.39772 9.71305 6.93306C12.5573 9.72465 21.9541 18.9541 26.6152 23.6152C31.2763 28.2763 40.5058 37.6731 43.2974 40.5174Z"/></svg>