<!-- Copyright © Ewsgit 2022. -->
<!-- Licensed under the MIT License - https://ewsgit.github.io/devdash/copyright -->

<svg xmlns="http://www.w3.org/2000/svg" width="48" height="48" fill="none" viewBox="0 0 48 48"><path fill="#ACB4C9" d="M26.1416 4.06042C26.1416 4.06042 28.4539 4.95 32.7039 9.225C36.9383 13.4843 37.8263 15.8143 37.8328 15.8313C37.936 17.8609 38 20.2345 38 23C38 31.2512 37.43 36.014 36.9501 38.5616C36.6419 40.1983 35.3722 41.3201 33.7258 41.4988C31.5032 41.74 27.5813 42 21 42C14.4187 42 10.4968 41.74 8.27425 41.4988C6.62776 41.3201 5.35814 40.1983 5.04986 38.5616C4.56998 36.014 4 31.2512 4 23C4 14.7488 4.56998 9.98604 5.04986 7.43837C5.35814 5.8017 6.62775 4.67991 8.27424 4.5012C10.4968 4.25997 14.4187 4 21 4C22.9358 4 24.6416 4.02253 26.1416 4.06042Z"/><path fill="#576684" d="M37.8332 15.8315C35.1136 16.5195 31.9027 16.5652 29.1293 15.713C27.9568 15.3527 27.0426 14.4339 26.6469 13.2667C25.661 10.3591 25.4175 6.80002 26.142 4.06055C26.142 4.06055 28.4543 4.95013 32.7043 9.22513C36.9543 13.5001 37.8332 15.8315 37.8332 15.8315Z"/><path fill="#576684" d="M33.2525 27.0147C33.9871 25.6618 36.0129 25.6618 36.7475 27.0147L38.869 30.9221L43.41 31.7763C44.9092 32.0583 45.5152 33.7934 44.4935 34.8789L41.2601 38.3143L41.8506 42.8856C42.043 44.3744 40.4227 45.4685 39.0177 44.7986L35 42.8829L30.9823 44.7986C29.5773 45.4685 27.957 44.3744 28.1494 42.8856L28.7399 38.3143L25.5065 34.8789C24.4848 33.7934 25.0908 32.0583 26.59 31.7763L31.131 30.9221L33.2525 27.0147Z"/></svg>