<!-- Copyright © Ewsgit 2022. -->
<!-- Licensed under the MIT License - https://ewsgit.github.io/devdash/copyright -->

<svg width="48" height="48" viewBox="0 0 48 48" fill="none" xmlns="http://www.w3.org/2000/svg">
<path d="M15.4739 29.6953C15.3088 28.691 14.4356 27.9658 13.432 28.0012C10.5607 28.1027 7.71457 28.2134 5.89606 28.2857C4.80214 28.3292 3.95133 29.2542 4.00216 30.363C4.13201 33.1953 4.45424 38.3662 5.15962 41.3656C5.48313 42.7412 6.67876 43.5154 8.06978 43.6184C10.4058 43.7915 15.0729 44 24 44C32.9271 44 37.5942 43.7915 39.9302 43.6184C41.3212 43.5154 42.5169 42.7412 42.8404 41.3656C43.5458 38.3662 43.868 33.1953 43.9978 30.363C44.0487 29.2542 43.1979 28.3292 42.1039 28.2857C40.2854 28.2134 37.4393 28.1027 34.568 28.0012C33.5644 27.9658 32.6912 28.691 32.5261 29.6953L32.2893 31.1356C32.1284 32.1146 31.2929 32.8322 30.314 32.8322H17.686C16.7071 32.8322 15.8716 32.1146 15.7107 31.1356L15.4739 29.6953Z" fill="#ACB4C9"/>
<path d="M28.3163 15.5542C29.7757 15.5908 30.9578 15.6445 31.9098 15.7044C33.8023 15.8234 34.6224 17.6113 33.47 19.1136C32.6978 20.1201 31.6623 21.3961 30.29 22.9656C28.267 25.2791 26.732 26.6361 25.685 27.4211C24.6556 28.1929 23.3436 28.193 22.3142 27.4213C21.267 26.6363 19.732 25.2793 17.7093 22.9656C16.3375 21.3965 15.3022 20.1207 14.5301 19.1143C13.3774 17.6117 14.1977 15.8233 16.0906 15.7043C17.0424 15.6445 18.2243 15.5908 19.6833 15.5542C19.6781 14.8873 19.6752 14.1537 19.6752 13.3474C19.6752 10.2119 19.7196 8.17416 19.7672 6.89092C19.8144 5.61726 20.4285 4.45273 21.6811 4.20165C22.268 4.08401 23.0275 4 23.9998 4C24.9721 4 25.7316 4.08401 26.3185 4.20165C27.5711 4.45273 28.1852 5.61726 28.2324 6.89091C28.28 8.17416 28.3244 10.2119 28.3244 13.3474C28.3244 14.1537 28.3215 14.8873 28.3163 15.5542Z" fill="#576684"/>
</svg>