<!-- Copyright © Ewsgit 2022. -->
<!-- Licensed under the MIT License - https://ewsgit.github.io/devdash/copyright -->

<svg width="48" height="48" viewBox="0 0 48 48" fill="none" xmlns="http://www.w3.org/2000/svg">
<path d="M4.56198 39.315C4.73932 41.0322 5.86521 42.3915 7.55375 42.751C10.219 43.3184 15.2432 44 24 44C32.7568 44 37.781 43.3184 40.4463 42.751C42.1348 42.3915 43.2607 41.0322 43.438 39.315C43.701 36.7688 44 32.0939 44 24C44 15.9061 43.701 11.2312 43.438 8.68502C43.2607 6.96777 42.1348 5.60847 40.4462 5.24901C37.781 4.68162 32.7568 4 24 4C15.2432 4 10.219 4.68162 7.55375 5.24901C5.86521 5.60847 4.73932 6.96777 4.56198 8.68502C4.29904 11.2312 4 15.9061 4 24C4 32.0939 4.29904 36.7688 4.56198 39.315Z" fill="#ACB4C9"/>
<path d="M11.3755 39.1082C9.67976 38.7846 8.5545 37.4336 8.39672 35.7144C8.23007 33.8986 8.05924 30.9912 8.01214 26.5H15.9995C16.6833 26.5 17.3197 26.1507 17.6868 25.5738L19.0345 23.456L22.1268 31.7023C22.4205 32.4854 23.1704 33.0031 24.0068 33C24.8432 32.9969 25.5893 32.4738 25.8772 31.6885L29.7288 21.1843L31.6898 25.3516C32.0197 26.0526 32.7247 26.5 33.4995 26.5H39.9868C39.9397 30.9912 39.7689 33.8986 39.6022 35.7144C39.4444 37.4336 38.3192 38.7846 36.6234 39.1082C34.38 39.5363 30.4593 40 23.9995 40C17.5396 40 13.6189 39.5363 11.3755 39.1082Z" fill="#576684"/>
<path d="M39.9951 22.5184C39.9649 17.443 39.7811 14.2352 39.6022 12.2856C39.4444 10.5664 38.3192 9.21541 36.6234 8.89179C34.38 8.46366 30.4593 8 23.9995 8C17.5396 8 13.6189 8.46366 11.3755 8.89179C9.67976 9.21541 8.5545 10.5664 8.39672 12.2856C8.21801 14.2328 8.0345 17.4352 8.00391 22.5H14.9016L17.8121 17.9263C18.2192 17.2866 18.953 16.9321 19.707 17.0108C20.4611 17.0895 21.1059 17.5878 21.3721 18.2978L23.9784 25.2478L27.6217 15.3115C27.8995 14.554 28.6051 14.0376 29.4111 14.002C30.2171 13.9663 30.9656 14.4184 31.3091 15.1484L34.7687 22.5H39.995C39.9951 22.5061 39.9951 22.5123 39.9951 22.5184Z" fill="#576684"/>
</svg>