<!-- Copyright © Ewsgit 2022. -->
<!-- Licensed under the MIT License - https://ewsgit.github.io/devdash/copyright -->

<svg width="48" height="48" viewBox="0 0 48 48" fill="none" xmlns="http://www.w3.org/2000/svg">
<circle r="20" transform="matrix(-4.37114e-08 1 1 4.37114e-08 24 24)" fill="#ACB4C9"/>
<path d="M14.5345 27.9011C13.3907 26.3807 14.175 24.5374 16.0093 24.4175C17.0789 24.3476 18.4454 24.2854 20.1782 24.2474C20.239 19.6518 20.41 15.3071 20.5369 13.1163C20.6184 11.7082 21.4444 11.173 22.774 11.049C23.0989 11.0186 23.4633 11 23.8681 11C24.317 11 24.7162 11.0229 25.0671 11.0593C26.3384 11.191 27.1457 11.6556 27.2638 13C27.4549 15.1762 27.719 19.5694 27.8119 24.2472C29.5492 24.2851 30.9187 24.3474 31.9904 24.4175C33.825 24.5374 34.6094 26.3812 33.4654 27.9019C32.6939 28.9275 31.6605 30.2264 30.2925 31.8228C28.1941 34.2716 26.6205 35.6704 25.5718 36.4568C24.6059 37.1811 23.395 37.181 22.4291 36.4567C21.3805 35.6702 19.8069 34.2715 17.7083 31.8228C16.3397 30.226 15.3061 28.9269 14.5345 27.9011Z" fill="#576684"/>
</svg>