<!-- Copyright © Ewsgit 2022. -->
<!-- Licensed under the MIT License - https://ewsgit.github.io/devdash/copyright -->

<svg width="48" height="48" viewBox="0 0 48 48" fill="none" xmlns="http://www.w3.org/2000/svg">
<path fill-rule="evenodd" clip-rule="evenodd" d="M11.5622 14.3541C11.9042 8.53987 16.719 4 22.5432 4H25.4568C31.281 4 36.0958 8.53987 36.4378 14.3541L36.7941 20.4122C37.4787 20.4699 38.061 20.5292 38.5538 20.5869C40.1343 20.772 41.32 21.8431 41.5434 23.4186C41.7781 25.0742 42 27.7605 42 32C42 36.2395 41.7781 38.9258 41.5434 40.5814C41.32 42.1569 40.1343 43.228 38.5538 43.4131C36.2026 43.6884 31.8152 44 24 44C16.1848 44 11.7974 43.6884 9.4462 43.4131C7.8657 43.228 6.68002 42.1569 6.45664 40.5814C6.2219 38.9258 6 36.2395 6 32C6 27.9853 6.17056 25.3635 6.35951 23.6908C6.55511 21.9593 7.82748 20.7565 9.55939 20.5647C10.0313 20.5124 10.5773 20.4592 11.2061 20.4073L11.5622 14.3541ZM30.4481 14.7064L30.7649 20.0922C28.8612 20.0351 26.6238 20 24 20C21.3822 20 19.1441 20.035 17.2351 20.0918L17.5519 14.7064C17.7073 12.0636 19.8959 10 22.5432 10H25.4568C28.1041 10 30.2927 12.0636 30.4481 14.7064Z" fill="#ACB4C9"/>
<path d="M46.2847 40.5069C46.7946 41.0258 47.1595 41.6954 46.9298 42.3856C46.7458 42.9382 46.3476 43.6699 45.5088 44.5088C44.6699 45.3476 43.9382 45.7458 43.3856 45.9298C42.6954 46.1595 42.0258 45.7946 41.5069 45.2847C38.569 42.3976 28.1403 32.1424 22.9989 27.0011C17.8575 21.8597 7.60243 11.4309 4.71529 8.49305C4.20543 7.97423 3.84049 7.30459 4.07022 6.6144C4.25415 6.06179 4.65237 5.33011 5.49124 4.49124C6.33011 3.65237 7.06179 3.25415 7.6144 3.07022C8.30459 2.84049 8.97423 3.20543 9.49306 3.7153C12.431 6.60244 22.8597 16.8575 28.0011 21.9989C33.1424 27.1403 43.3976 37.569 46.2847 40.5069Z" fill="#576684"/>
</svg>