<!-- Copyright © Ewsgit 2022. -->
<!-- Licensed under the MIT License - https://ewsgit.github.io/devdash/copyright -->

<svg width="48" height="48" viewBox="0 0 48 48" fill="none" xmlns="http://www.w3.org/2000/svg">
<path d="M37.4262 3.56402C39.1977 3.76291 40.5658 4.9656 40.8876 6.71897C41.3959 9.48875 42 14.7306 42 24C42 32.3188 41.7297 37.3937 41.4701 40.3491C41.2722 42.6027 39.6012 44.2739 37.3491 44.4883C34.6822 44.7421 30.3984 45 24 45C17.6016 45 13.3178 44.7421 10.6509 44.4883C8.39879 44.2739 6.72777 42.6027 6.52987 40.3491C6.27032 37.3937 6 32.3187 6 24C6 15.6813 6.27032 10.6063 6.52987 7.65087C6.72778 5.39729 8.39879 3.72606 10.6509 3.51171C13.3178 3.25787 17.6016 3 24 3C30.8391 3 35.0266 3.29461 37.4262 3.56402Z" fill="#ACB4C9"/>
<path d="M14 3.25879V44.7411C12.6785 44.6635 11.5689 44.5756 10.6509 44.4883C8.39878 44.2739 6.72777 42.6027 6.52986 40.3491C6.27032 37.3936 6 32.3187 6 24C6 15.6812 6.27032 10.6063 6.52987 7.65083C6.72777 5.39726 8.39879 3.72603 10.6509 3.51167C11.5689 3.4243 12.6785 3.33644 14 3.25879Z" fill="#576684"/>
<path d="M20 12.5648C20 11.8005 20.5751 11.1695 21.3385 11.1307C22.542 11.0694 24.6461 11 28 11C31.3539 11 33.458 11.0694 34.6615 11.1307C35.4249 11.1695 36 11.8005 36 12.5648V13.4352C36 14.1995 35.4249 14.8305 34.6615 14.8693C33.458 14.9306 31.3539 15 28 15C24.6461 15 22.542 14.9306 21.3385 14.8693C20.5751 14.8305 20 14.1995 20 13.4352V12.5648Z" fill="#576684"/>
<path d="M20 20.5648C20 19.8005 20.5745 19.1625 21.3373 19.1135C22.2139 19.0572 23.4783 19 25 19C26.5217 19 27.7861 19.0572 28.6627 19.1135C29.4255 19.1625 30 19.8005 30 20.5648V21.4352C30 22.1995 29.4255 22.8375 28.6627 22.8865C27.7861 22.9428 26.5217 23 25 23C23.4783 23 22.2139 22.9428 21.3373 22.8865C20.5745 22.8375 20 22.1995 20 21.4352V20.5648Z" fill="#576684"/>
</svg>