<!-- Copyright © Ewsgit 2022. -->
<!-- Licensed under the MIT License - https://ewsgit.github.io/devdash/copyright -->

<svg width="48" height="48" viewBox="0 0 48 48" fill="none" xmlns="http://www.w3.org/2000/svg">
<path d="M4.65388 8.57316C4.84496 6.92575 5.84441 5.56573 7.46374 5.20762C9.9896 4.64902 14.8855 4 24 4C33.1145 4 38.0104 4.64902 40.5363 5.20762C42.1556 5.56573 43.155 6.92575 43.3461 8.57316C43.6351 11.0644 44 15.1673 44 20C44 29.0284 39.2351 37.4764 31.2074 41.6079C28.5258 42.988 25.9087 44 24 44C22.0913 44 19.4742 42.988 16.7926 41.6079C8.76493 37.4764 4 29.0284 4 20C4 15.1673 4.36493 11.0644 4.65388 8.57316Z" fill="#ACB4C9"/>
<path d="M11.3409 13.8874C11.5015 12.2609 12.4866 10.9338 14.095 10.6436C15.9059 10.3169 18.9612 10 24 10C29.0388 10 32.0941 10.3169 33.905 10.6436C35.5134 10.9338 36.4985 12.2609 36.6591 13.8874C36.8267 15.5841 37 18.0121 37 20.8C37 26.1141 34.4203 31.0107 30.0977 34.1019C27.894 35.6779 25.5757 37 24 37C22.4243 37 20.106 35.6779 17.9023 34.1019C13.5797 31.0107 11 26.1141 11 20.8C11 18.0121 11.1733 15.5841 11.3409 13.8874Z" fill="#576684"/>
</svg>