<!-- Copyright © Ewsgit 2022. -->
<!-- Licensed under the MIT License - https://ewsgit.github.io/devdash/copyright -->

<svg xmlns="http://www.w3.org/2000/svg" width="48" height="48" fill="none" viewBox="0 0 48 48"><circle r="21" fill="#ACB4C9" transform="matrix(-1 0 0 1 24 24)"/><path fill="#576684" d="M34.7304 26.9828C35.9069 25.0473 36.2898 22.6493 35.778 20.4197C34.6846 15.3408 28.6298 13.2655 24.8582 16.669C24.5596 16.9368 24.2939 17.2455 24 17.5533C23.7061 17.2455 23.4404 16.9368 23.1418 16.669C19.3702 13.2655 13.3154 15.3408 12.222 20.4197C11.7102 22.6493 12.093 25.0473 13.2697 26.9828C15.2731 30.2837 18.4704 32.8737 21.6249 35.2164C23.0318 36.2612 24.9682 36.2612 26.3751 35.2164C29.5296 32.8737 32.7269 30.2837 34.7304 26.9828Z"/></svg>