<!-- Copyright © Ewsgit 2022. -->
<!-- Licensed under the MIT License - https://ewsgit.github.io/devdash/copyright -->

<svg width="48" height="48" viewBox="0 0 48 48" fill="none" xmlns="http://www.w3.org/2000/svg">
<g clip-path="url(#clip0_2098_15422)">
<path d="M45.6946 31.9119C46.8454 32.9274 47.6118 34.4118 46.9208 35.7822C46.638 36.3431 46.2166 36.9631 45.5898 37.5898C44.9631 38.2166 44.3431 38.638 43.7822 38.9208C42.4118 39.6118 40.9274 38.8454 39.9119 37.6946C37.5142 34.9775 32.4454 29.2733 25.1723 21.2958C24.3583 20.4029 23.9509 19.1412 24.6095 18.1282C24.7899 17.8507 25.0132 17.5643 25.2886 17.2889C25.564 17.0135 25.8503 16.7902 26.1279 16.6098C27.1411 15.9511 28.403 16.3584 29.2961 17.1726C37.2735 24.4456 42.9776 29.5143 45.6946 31.9119Z" fill="#576684"/>
<path d="M6.44604 35.4217C6.96875 34.6608 7.83544 34.2603 8.75645 34.1969C10.0378 34.1087 12.0189 34 14 34C15.9811 34 17.9622 34.1087 19.2435 34.1969C20.1646 34.2603 21.0313 34.6608 21.554 35.4217C22.3573 36.5912 23.4903 38.6814 24 41.6923C24 41.6923 20.6667 42 14 42C7.33333 42 4 41.6923 4 41.6923C4.50966 38.6814 5.64274 36.5912 6.44604 35.4217Z" fill="#ACB4C9"/>
<path d="M2.05498 41.0639C2.13059 40.4941 2.62718 40.1769 3.20148 40.1524C4.58646 40.0932 7.75882 40 14 40C20.2412 40 23.4135 40.0932 24.7985 40.1524C25.3728 40.1769 25.8694 40.4941 25.945 41.0639C25.9776 41.3094 26 41.6173 26 42C26 42.3827 25.9776 42.6906 25.945 42.9361C25.8694 43.5059 25.3728 43.8231 24.7985 43.8476C23.4135 43.9068 20.2412 44 14 44C7.75882 44 4.58646 43.9068 3.20148 43.8476C2.62718 43.8231 2.13059 43.5059 2.05498 42.9361C2.02241 42.6906 2 42.3826 2 42C2 41.6174 2.02241 41.3094 2.05498 41.0639Z" fill="#576684"/>
<path d="M30.9056 4.75141C29.5211 3.58836 27.6884 3.62444 26.2897 4.77039C24.8227 5.97238 22.5658 7.97917 19.2725 11.2725C15.9792 14.5657 13.9724 16.8227 12.7704 18.2897C11.6244 19.6884 11.5884 21.5211 12.7514 22.9056C13.4422 23.7279 14.4047 24.7895 15.7369 26.1217C17.0691 27.4539 18.1307 28.4164 18.953 29.1072C20.3375 30.2703 22.1703 30.2342 23.5689 29.0882C25.0359 27.8862 27.2929 25.8795 30.5862 22.5862C33.8795 19.2929 35.8863 17.0359 37.0882 15.5689C38.2342 14.1702 38.2703 12.3375 37.1072 10.953C36.4164 10.1307 35.4539 9.06913 34.1217 7.73692C32.7895 6.40472 31.7279 5.4422 30.9056 4.75141Z" fill="#ACB4C9"/>
</g>
<defs>
<clipPath id="clip0_2098_15422">
<rect width="48" height="48" fill="white"/>
</clipPath>
</defs>
</svg>