<!-- Copyright © Ewsgit 2022. -->
<!-- Licensed under the MIT License - https://ewsgit.github.io/devdash/copyright -->

<svg width="48" height="48" viewBox="0 0 48 48" fill="none" xmlns="http://www.w3.org/2000/svg">
<path d="M15.8584 6.06042C15.8584 6.06042 13.5461 6.95 9.2961 11.225C5.06166 15.4843 4.17367 17.8142 4.16723 17.8313C4.06403 19.8609 4 22.2345 4 25C4 33.2512 4.56998 38.0139 5.04986 40.5616C5.35815 42.1982 6.62776 43.32 8.27425 43.4987C10.4968 43.74 14.4187 43.9999 21 43.9999C27.5813 43.9999 31.5032 43.74 33.7258 43.4987C35.3722 43.32 36.6419 42.1982 36.9501 40.5616C37.43 38.0139 38 33.2512 38 25C38 16.7487 37.43 11.986 36.9501 9.43837C36.6419 7.8017 35.3722 6.67991 33.7258 6.5012C31.5032 6.25997 27.5813 6 21 6C19.0642 6 17.3584 6.02253 15.8584 6.06042Z" fill="#ACB4C9"/>
<path d="M4.16679 17.8315C6.88637 18.5195 10.0973 18.5652 12.8707 17.713C14.0432 17.3527 14.9574 16.4339 15.3531 15.2667C16.339 12.3591 16.5825 8.80002 15.858 6.06055C15.858 6.06055 13.5457 6.95013 9.2957 11.2251C5.0457 15.5001 4.16679 17.8315 4.16679 17.8315Z" fill="#576684"/>
<path d="M9.66602 35.7843C9.66602 36.5536 10.2484 37.1918 11.0165 37.2337C12.0424 37.2897 13.6529 37.3496 15.8478 37.3496C17.751 37.3496 18.995 37.3046 19.7828 37.2561C20.4938 37.2124 20.9993 36.6271 20.9993 35.9147V34.9845C20.9993 34.2722 20.4938 33.6868 19.7828 33.6431C18.995 33.5946 17.751 33.5496 15.8478 33.5496C13.6529 33.5496 12.0424 33.6095 11.0165 33.6655C10.2484 33.7074 9.66602 34.3457 9.66602 35.1149V35.7843Z" fill="#576684"/>
<path d="M9.66602 28.3372C9.66602 29.0395 10.1588 29.6244 10.8594 29.6736C11.4505 29.715 12.2907 29.75 13.4438 29.75C14.5969 29.75 15.4371 29.715 16.0282 29.6736C16.7288 29.6244 17.2216 29.0395 17.2216 28.3372V27.3628C17.2216 26.6605 16.7288 26.0756 16.0282 26.0264C15.4371 25.985 14.5969 25.95 13.4438 25.95C12.2907 25.95 11.4505 25.985 10.8594 26.0264C10.1588 26.0756 9.66602 26.6605 9.66602 27.3628V28.3372Z" fill="#576684"/>
<path d="M35.3336 2.19776C37.6 4.37891 42.3521 9.2778 45.3953 14.7091C45.8554 15.5301 45.8554 16.5284 45.3953 17.3494C42.3521 22.7807 37.6 27.6796 35.3336 29.8608C34.6084 30.5587 33.4861 30.5586 32.7609 29.8607C30.4948 27.6795 25.7431 22.7808 22.6995 17.3497C22.2393 16.5285 22.2393 15.53 22.6995 14.7088C25.7431 9.27771 30.4948 4.37898 32.7609 2.19783C33.4861 1.49987 34.6084 1.49984 35.3336 2.19776Z" fill="#576684"/>
<path fill-rule="evenodd" clip-rule="evenodd" d="M32.7609 2.19783C33.4861 1.49987 34.6084 1.49984 35.3336 2.19776C37.6 4.37891 42.3521 9.2778 45.3953 14.7091C45.8554 15.5301 45.8554 16.5284 45.3953 17.3494C42.3521 22.7807 37.6 27.6796 35.3336 29.8608C34.6084 30.5587 33.4861 30.5586 32.7609 29.8607C30.4948 27.6795 25.7431 22.7808 22.6995 17.3497C22.2393 16.5285 22.2393 15.53 22.6995 14.7088C25.7431 9.27771 30.4948 4.37898 32.7609 2.19783ZM26.603 16.0293C29.4456 21.2828 34.0473 24.6407 34.0473 24.6407C34.0473 24.6407 38.6508 21.2828 41.4924 16.0293C38.6508 10.7758 34.0473 7.41776 34.0473 7.41776C34.0473 7.41776 29.4456 10.7758 26.603 16.0293Z" fill="#576684"/>
<path fill-rule="evenodd" clip-rule="evenodd" d="M24.9443 16.7893C25.0392 16.2768 25.5842 15.983 26.0657 16.1822C28.1333 17.0376 32.9886 18.9987 34.047 18.9987C35.1053 18.9987 39.9599 17.0377 42.0272 16.1823C42.5088 15.983 43.0538 16.2768 43.1487 16.7893C43.2104 17.1222 43.0626 17.4568 42.772 17.6307C41.0474 18.6625 35.198 22.1106 34.0465 22.1106C32.895 22.1106 27.0456 18.6625 25.321 17.6307C25.0304 17.4568 24.8826 17.1222 24.9443 16.7893Z" fill="#ACB4C9"/>
</svg>