<!-- Copyright © Ewsgit 2022. -->
<!-- Licensed under the MIT License - https://ewsgit.github.io/devdash/copyright -->

<svg width="48" height="48" viewBox="0 0 48 48" fill="none" xmlns="http://www.w3.org/2000/svg">
<path d="M3 24C3 35.598 12.402 45 24 45C35.598 45 45 35.598 45 24C45 12.402 35.598 3 24 3C12.402 3 3 12.402 3 24Z" fill="#ACB4C9"/>
<path d="M32 32C32 33.003 31.229 33.8305 30.2269 33.8725C28.7865 33.933 26.4684 34 23.2727 34C20.6283 34 18.8853 33.9541 17.7707 33.904C16.7492 33.8581 16 33.0225 16 32C16 30.9775 16.7492 30.1419 17.7707 30.096C18.8853 30.0459 20.6283 30 23.2727 30C26.4684 30 28.7865 30.067 30.2269 30.1275C31.229 30.1695 32 30.997 32 32Z" fill="#576684"/>
<circle cx="14.5" cy="19.5" r="2.5" fill="#576684"/>
<path d="M36 19.5C36 20.8807 34.8807 22 33.5 22C32.1193 22 31 20.8807 31 19.5C31 18.1193 32.1193 17 33.5 17C34.8807 17 36 18.1193 36 19.5Z" fill="#576684"/>
</svg>