<!-- Copyright © Ewsgit 2022. -->
<!-- Licensed under the MIT License - https://ewsgit.github.io/devdash/copyright -->

<svg width="48" height="48" viewBox="0 0 48 48" fill="none" xmlns="http://www.w3.org/2000/svg">
<path fill-rule="evenodd" clip-rule="evenodd" d="M7.68009 5.02577C5.92293 5.33785 4.71393 6.70729 4.51915 8.48128C4.26763 10.7721 4 14.6917 4 21C4 27.3083 4.26763 31.2279 4.51915 33.5187C4.71393 35.2927 5.92293 36.6622 7.68009 36.9742C9.24171 37.2516 11.5882 37.555 15 37.7594V41.8388C15 43.5158 16.9399 44.4481 18.2494 43.4005L25.0031 37.9975C33.0623 37.9569 37.7521 37.4303 40.3199 36.9742C42.0771 36.6622 43.2861 35.2927 43.4809 33.5187C43.7324 31.2279 44 27.3083 44 21C44 14.6917 43.7324 10.7721 43.4809 8.48128C43.2861 6.70728 42.0771 5.33785 40.3199 5.02577C37.6474 4.55112 32.6762 4 24 4C15.3238 4 10.3526 4.55112 7.68009 5.02577Z" fill="#ACB4C9"/>
<path d="M33.8362 22.9128C34.9147 21.1501 35.2656 18.9662 34.7965 16.9357C33.7942 12.3104 28.244 10.4204 24.7867 13.52C24.5129 13.7638 24.2694 14.045 24 14.3253C23.7306 14.045 23.4871 13.7638 23.2133 13.52C19.7561 10.4204 14.2058 12.3104 13.2035 16.9357C12.7344 18.9662 13.0853 21.1501 14.1639 22.9128C15.9613 25.8549 18.8071 28.177 21.6384 30.2747C23.038 31.3116 24.962 31.3116 26.3616 30.2747C29.1929 28.177 32.0387 25.8549 33.8362 22.9128Z" fill="#576684"/>
</svg>