<!-- Copyright © Ewsgit 2022. -->
<!-- Licensed under the MIT License - https://ewsgit.github.io/devdash/copyright -->

<svg width="48" height="48" viewBox="0 0 48 48" fill="none" xmlns="http://www.w3.org/2000/svg">
<path fill-rule="evenodd" clip-rule="evenodd" d="M19.5765 3.8915C18.6116 3.94779 17.7817 4.57572 17.4509 5.48389C16.677 7.60883 15.906 9.85088 15.1511 12.1412C11.8835 12.2188 9.33523 12.3117 7.8118 12.3739C6.83573 12.4138 5.98361 13.0245 5.64394 13.9404C5.04074 15.5669 4.69008 16.7485 4.48731 17.5897C4.23232 18.6475 5.01248 19.4653 6.10034 19.4901C8.325 19.5409 10.5665 19.5787 12.7886 19.6061C11.8611 22.6477 10.9852 25.6448 10.1901 28.441C8.18723 28.4697 6.57347 28.4987 5.46575 28.5204C4.43944 28.5405 3.53936 29.1904 3.20544 30.1611C2.71849 31.5766 2.39756 32.654 2.18604 33.4593C1.88144 34.619 2.7176 35.6038 3.91546 35.6555C5.33186 35.7165 6.74468 35.7681 8.14678 35.8112C7.42928 38.4649 6.86142 40.6366 6.4903 42.0751C6.21437 43.1446 6.88027 44.1718 7.98427 44.2072C9.38612 44.2523 11.071 44.1845 12.3005 44.1146C13.3265 44.0563 14.1936 43.3522 14.4888 42.3679L16.406 35.9773C19.2046 36.0056 21.8923 36.0061 24.4029 35.9886L22.6008 41.9955C22.2729 43.0885 22.9397 44.1788 24.0803 44.211C25.5097 44.2514 27.2112 44.1791 28.4222 44.1085C29.3871 44.0522 30.217 43.4243 30.5478 42.5161C31.3217 40.3912 32.0927 38.1491 32.8476 35.8588C36.1152 35.7812 38.6635 35.6883 40.1869 35.6261C41.163 35.5862 42.0151 34.9755 42.3548 34.0596C42.9579 32.4331 43.3086 31.2515 43.5114 30.4103C43.7664 29.3525 42.9862 28.5347 41.8983 28.5099C39.6737 28.4591 37.4322 28.4213 35.2101 28.3939C36.1376 25.3523 37.0135 22.3552 37.8086 19.5589C39.8115 19.5303 41.4252 19.5013 42.5329 19.4796C43.5592 19.4595 44.4593 18.8096 44.7932 17.8389C45.2802 16.4234 45.6011 15.346 45.8127 14.5407C46.1172 13.381 45.2811 12.3962 44.0832 12.3445C42.6668 12.2835 41.254 12.2319 39.8519 12.1888C40.5694 9.53514 41.1373 7.36341 41.5084 5.92494C41.7843 4.85539 41.1184 3.82824 40.0144 3.79275C38.6126 3.74768 36.9277 3.81547 35.6982 3.88535C34.6722 3.94367 33.8051 4.64778 33.5098 5.63209L31.5927 12.0227C28.7941 11.9944 26.1064 11.9939 23.5958 12.0114L25.3979 6.00446C25.7258 4.91154 25.059 3.82124 23.9184 3.78899C22.4889 3.74856 20.7875 3.82085 19.5765 3.8915ZM26.6989 28.3354L29.3056 19.6463C26.8136 19.6619 24.1162 19.6699 21.2998 19.6646L18.6931 28.3537C21.1851 28.3381 23.8825 28.3301 26.6989 28.3354Z" fill="#ACB4C9"/>
</svg>