<!-- Copyright © Ewsgit 2022. -->
<!-- Licensed under the MIT License - https://ewsgit.github.io/devdash/copyright -->

<svg width="48" height="48" viewBox="0 0 48 48" fill="none" xmlns="http://www.w3.org/2000/svg">
<path d="M3 24C3 35.598 12.402 45 24 45C35.598 45 45 35.598 45 24C45 12.402 35.598 3 24 3C12.402 3 3 12.402 3 24Z" fill="#ACB4C9"/>
<path fill-rule="evenodd" clip-rule="evenodd" d="M20.601 33.4945C21.7518 32.1579 22.9648 31.3075 23.9998 31.3075C25.0347 31.3075 26.2477 32.1579 27.3985 33.4945C27.8099 33.9723 28.2737 34.6447 28.615 35.1651C28.9383 35.6579 29.4511 36.0223 30.0399 35.9954C30.4145 35.9783 30.8235 35.9089 31.1029 35.7176C31.2677 35.6047 31.4146 35.4385 31.5396 35.2614C31.9006 34.7496 31.8016 34.0737 31.4552 33.5519C30.9603 32.8066 30.2516 31.7647 29.8735 31.3255C28.6513 29.9059 26.586 28 23.9998 28C21.4135 28 19.3482 29.9059 18.126 31.3255C17.5197 32.0297 16.9616 32.7854 16.4688 33.5789C16.1578 34.0799 16.1017 34.7147 16.4289 35.2053C16.5629 35.4063 16.722 35.5978 16.8967 35.7175C17.1879 35.9171 17.6199 35.9841 18.0071 35.9974C18.5687 36.0166 19.0625 35.6825 19.3769 35.2167C19.7945 34.5981 20.3636 33.7703 20.601 33.4945Z" fill="#576684"/>
<path d="M13.1441 21.4654C14.9198 22.4185 17.1241 22.0563 18.4517 20.7039C18.8481 20.3001 18.8803 19.6963 18.4924 19.2845C18.0473 18.8119 17.2241 18.1328 15.7162 17.3234C14.1142 16.4635 13.0356 16.1523 12.3818 16.0481C11.8679 15.9661 11.3978 16.2602 11.2211 16.7497C10.5858 18.5102 11.3476 20.501 13.1441 21.4654Z" fill="#576684"/>
<path d="M34.8559 21.4654C33.0802 22.4185 30.8759 22.0563 29.5483 20.7039C29.1519 20.3001 29.1197 19.6963 29.5076 19.2845C29.9527 18.8119 30.7759 18.1328 32.2838 17.3234C33.8858 16.4635 34.9644 16.1523 35.6182 16.0481C36.1321 15.9661 36.6022 16.2602 36.7789 16.7497C37.4142 18.5102 36.6524 20.501 34.8559 21.4654Z" fill="#576684"/>
</svg>