<!-- Copyright © Ewsgit 2022. -->
<!-- Licensed under the MIT License - https://ewsgit.github.io/devdash/copyright -->

<svg width="48" height="48" viewBox="0 0 48 48" fill="none" xmlns="http://www.w3.org/2000/svg">
<path fill-rule="evenodd" clip-rule="evenodd" d="M7.68009 5.02577C5.92293 5.33785 4.71393 6.70729 4.51915 8.48128C4.26763 10.7721 4 14.6917 4 21C4 27.3083 4.26763 31.2279 4.51915 33.5187C4.71393 35.2927 5.92293 36.6622 7.68009 36.9742C9.24171 37.2516 11.5882 37.555 15 37.7594V41.8388C15 43.5158 16.9399 44.4481 18.2494 43.4005L25.0031 37.9975C33.0623 37.9569 37.7521 37.4303 40.3199 36.9742C42.0771 36.6622 43.2861 35.2927 43.4809 33.5187C43.7324 31.2279 44 27.3083 44 21C44 14.6917 43.7324 10.7721 43.4809 8.48128C43.2861 6.70728 42.0771 5.33785 40.3199 5.02577C37.6474 4.55112 32.6762 4 24 4C15.3238 4 10.3526 4.55112 7.68009 5.02577Z" fill="#ACB4C9"/>
<path fill-rule="evenodd" clip-rule="evenodd" d="M14.9894 13.2116C13.8226 13.2625 13 14.1781 13 15.346V16.8641C13 17.941 13.717 18.7775 14.7922 18.8361C16.3014 18.9184 19.0466 19 24 19C28.9534 19 31.6986 18.9184 33.2078 18.8361C34.283 18.7775 35 17.941 35 16.8641V14.9827C35 13.9901 34.3744 13.2193 33.384 13.1519C31.916 13.0519 29.1528 12.9619 24 13.0165C19.255 13.0668 16.5363 13.1442 14.9894 13.2116ZM14.7857 24.1273C13.7119 24.197 13 25.0592 13 26.1352V27.8648C13 28.9408 13.7119 29.803 14.7857 29.8727C15.838 29.9411 17.4769 30 20 30C22.5231 30 24.162 29.9411 25.2143 29.8727C26.2881 29.803 27 28.9408 27 27.8648V26.1352C27 25.0592 26.2881 24.197 25.2143 24.1273C24.162 24.0589 22.5231 24 20 24C17.4769 24 15.838 24.0589 14.7857 24.1273Z" fill="#576684"/>
</svg>