<!-- Copyright © Ewsgit 2022. -->
<!-- Licensed under the MIT License - https://ewsgit.github.io/devdash/copyright -->

<svg width="48" height="48" viewBox="0 0 48 48" fill="none" xmlns="http://www.w3.org/2000/svg">
<path fill-rule="evenodd" clip-rule="evenodd" d="M7.68009 5.02577C5.92293 5.33785 4.71393 6.70729 4.51915 8.48128C4.26763 10.7721 4 14.6917 4 21C4 27.3083 4.26763 31.2279 4.51915 33.5187C4.71393 35.2927 5.92293 36.6622 7.68009 36.9742C9.24171 37.2516 11.5882 37.555 15 37.7594V41.8388C15 43.5158 16.9399 44.4481 18.2494 43.4005L25.0031 37.9975C33.0623 37.9569 37.7521 37.4303 40.3199 36.9742C42.0771 36.6622 43.2861 35.2927 43.4809 33.5187C43.7324 31.2279 44 27.3083 44 21C44 14.6917 43.7324 10.7721 43.4809 8.48128C43.2861 6.70728 42.0771 5.33785 40.3199 5.02577C37.6474 4.55112 32.6762 4 24 4C15.3238 4 10.3526 4.55112 7.68009 5.02577Z" fill="#ACB4C9"/>
<path d="M20 16C20 17.1046 19.1046 18 18 18C16.8954 18 16 17.1046 16 16C16 14.8954 16.8954 14 18 14C19.1046 14 20 14.8954 20 16Z" fill="#576684"/>
<path d="M32 16C32 17.1046 31.1046 18 30 18C28.8954 18 28 17.1046 28 16C28 14.8954 28.8954 14 30 14C31.1046 14 32 14.8954 32 16Z" fill="#576684"/>
<path fill-rule="evenodd" clip-rule="evenodd" d="M17.4433 23.6077C18.2125 23.3 19.0854 23.6741 19.3931 24.4433C19.8901 25.6857 21.0934 26.5004 22.4315 26.5004H25.5693C26.9074 26.5004 28.1107 25.6857 28.6077 24.4433C28.9154 23.6741 29.7883 23.3 30.5575 23.6077C31.3267 23.9154 31.7008 24.7883 31.3931 25.5575C30.4406 27.9389 28.1341 29.5004 25.5693 29.5004H22.4315C19.8667 29.5004 17.5602 27.9389 16.6077 25.5575C16.3 24.7883 16.6741 23.9154 17.4433 23.6077Z" fill="#576684"/>
</svg>