<!-- Copyright © Ewsgit 2022. -->
<!-- Licensed under the MIT License - https://ewsgit.github.io/devdash/copyright -->

<svg width="48" height="48" viewBox="0 0 48 48" fill="none" xmlns="http://www.w3.org/2000/svg">
<path d="M4.48883 39.0496C4.72609 40.9154 5.97822 42.4315 7.82124 42.8067C10.5497 43.362 15.5279 44 24 44C32.4721 44 37.4503 43.362 40.1787 42.8067C42.0218 42.4316 43.2739 40.9154 43.5112 39.0496C43.9088 35.9229 43.983 33.2189 43.9968 32.3184C44.0001 32.1049 43.9886 31.893 43.9656 31.6808C42.9607 22.4003 41.5477 13.6004 40.7218 8.78862C40.3245 6.47402 38.5734 4.6943 36.2355 4.47194C33.7088 4.23164 29.7755 4 24 4C18.2246 4 14.2912 4.23164 11.7645 4.47194C9.42666 4.6943 7.6755 6.47401 7.27823 8.78861C6.45234 13.6004 5.03933 22.4003 4.03438 31.6808C4.0114 31.8931 3.99989 32.1048 4.00318 32.3183C4.01702 33.2188 4.09122 35.9229 4.48883 39.0496Z" fill="#ACB4C9"/>
<path d="M24 44C15.5279 44 10.5497 43.362 7.82124 42.8067C5.97822 42.4315 4.72609 40.9154 4.48883 39.0496C3.99997 35.2053 4 32 4 32H15.5585C16.8175 32 17.9352 32.8056 18.3333 34C18.7315 35.1944 19.8492 36 21.1082 36H26.8918C28.1508 36 29.2685 35.1944 29.6667 34C30.0648 32.8056 31.1825 32 32.4415 32H44C44 32 44 35.2053 43.5112 39.0496C43.2739 40.9154 42.0218 42.4316 40.1787 42.8067C37.4503 43.362 32.4721 44 24 44Z" fill="#576684"/>
<path fill-rule="evenodd" clip-rule="evenodd" d="M15.5988 12.1773C14.6931 12.2231 14 12.9731 14 13.8799V15.1201C14 16.0269 14.6931 16.7769 15.5988 16.8227C17.1717 16.9023 19.9323 17 24 17C28.0677 17 30.8283 16.9023 32.4012 16.8227C33.3069 16.7769 34 16.0269 34 15.1201V13.8799C34 12.9731 33.3069 12.2231 32.4012 12.1773C30.8283 12.0977 28.0677 12 24 12C19.9323 12 17.1717 12.0977 15.5988 12.1773ZM13.6553 21.203C12.7262 21.2403 12 22.006 12 22.9358V24.0642C12 24.994 12.7262 25.7597 13.6553 25.797C15.7033 25.8793 19.4791 26 24 26C28.5209 26 32.2967 25.8793 34.3447 25.797C35.2738 25.7597 36 24.994 36 24.0642V22.9358C36 22.006 35.2738 21.2403 34.3447 21.203C32.2967 21.1207 28.5209 21 24 21C19.4791 21 15.7033 21.1207 13.6553 21.203Z" fill="#576684"/>
</svg>