<!-- Copyright © Ewsgit 2022. -->
<!-- Licensed under the MIT License - https://ewsgit.github.io/devdash/copyright -->

<svg xmlns="http://www.w3.org/2000/svg" width="48" height="48" fill="none" viewBox="0 0 48 48"><path fill="#ACB4C9" fill-rule="evenodd" d="M7.68009 5.02577C5.92293 5.33785 4.71393 6.70729 4.51915 8.48128C4.26763 10.7721 4 14.6917 4 21C4 27.3083 4.26763 31.2279 4.51915 33.5187C4.71393 35.2927 5.92293 36.6622 7.68009 36.9742C9.24171 37.2516 11.5882 37.555 15 37.7594V41.8388C15 43.5158 16.9399 44.4481 18.2494 43.4005L25.0031 37.9975C33.0623 37.9569 37.7521 37.4303 40.3199 36.9742C42.0771 36.6622 43.2861 35.2927 43.4809 33.5187C43.7324 31.2279 44 27.3083 44 21C44 14.6917 43.7324 10.7721 43.4809 8.48128C43.2861 6.70728 42.0771 5.33785 40.3199 5.02577C37.6474 4.55112 32.6762 4 24 4C15.3238 4 10.3526 4.55112 7.68009 5.02577Z" clip-rule="evenodd"/><path fill="#576684" d="M12 21C12 19.2795 13.1011 18.0132 14.8216 18.0006C14.8799 18.0002 14.9393 18 15 18C15.0607 18 15.1201 18.0002 15.1784 18.0006C16.8989 18.0132 18 19.2795 18 21C18 22.7206 16.8989 23.9868 15.1784 23.9994C15.1201 23.9998 15.0607 24 15 24C14.9393 24 14.8799 23.9998 14.8216 23.9994C13.1011 23.9868 12 22.7205 12 21Z"/><path fill="#576684" d="M21 21C21 19.2795 22.1011 18.0132 23.8216 18.0006C23.8799 18.0002 23.9393 18 24 18C24.0607 18 24.1201 18.0002 24.1784 18.0006C25.8989 18.0132 27 19.2795 27 21C27 22.7206 25.8989 23.9868 24.1784 23.9994C24.1201 23.9998 24.0607 24 24 24C23.9393 24 23.8799 23.9998 23.8216 23.9994C22.1011 23.9868 21 22.7205 21 21Z"/><path fill="#576684" d="M30 21C30 19.2795 31.1011 18.0132 32.8216 18.0006C32.8799 18.0002 32.9393 18 33 18C33.0607 18 33.1201 18.0002 33.1784 18.0006C34.8989 18.0132 36 19.2795 36 21C36 22.7206 34.8989 23.9868 33.1784 23.9994C33.1201 23.9998 33.0607 24 33 24C32.9393 24 32.8799 23.9998 32.8216 23.9994C31.1011 23.9868 30 22.7205 30 21Z"/></svg>