<!-- Copyright © Ewsgit 2022. -->
<!-- Licensed under the MIT License - https://ewsgit.github.io/devdash/copyright -->

<svg width="49" height="48" viewBox="0 0 49 48" fill="none" xmlns="http://www.w3.org/2000/svg">
<path fill-rule="evenodd" clip-rule="evenodd" d="M34.6284 4.17191C34.8696 4.18629 36.9133 4.41337 40.4999 7.99998C44.1181 11.6182 44.3141 13.5854 44.3248 13.7879C44.3249 13.7924 44.3251 13.797 44.3253 13.8016C44.3254 13.8041 44.3254 13.8053 44.3254 13.8053L44.3255 13.8052C44.4293 16.4095 44.5 19.7451 44.5 24C44.5 33.2895 44.1629 39.2081 43.8802 42.5387C43.7495 44.0781 42.0071 44.756 40.8203 43.7669L37.5 41L34.7658 43.7342C34.0452 44.4548 32.898 44.5184 32.1022 43.8817L28.5 41L25.9142 43.5858C25.1332 44.3668 23.8668 44.3668 23.0858 43.5858L20.5 41L16.8978 43.8817C16.102 44.5184 14.9548 44.4548 14.2342 43.7342L11.5 41L8.1797 43.7669C6.99285 44.756 5.25053 44.0781 5.11984 42.5387C4.83709 39.2081 4.5 33.2895 4.5 24C4.5 15.4507 4.78551 10.6131 5.05141 7.96144C5.23985 6.08233 6.58233 4.73985 8.46144 4.55141C11.1131 4.28551 15.9507 4 24.5 4C28.7189 4 32.0339 4.06953 34.6284 4.17191Z" fill="#ACB4C9"/>
<path d="M29.5 21C29.5 19.8954 30.3954 19 31.5 19H33.5C34.6046 19 35.5 19.8954 35.5 21C35.5 22.1046 34.6046 23 33.5 23H31.5C30.3954 23 29.5 22.1046 29.5 21Z" fill="#576684"/>
<path d="M13.5 21C13.5 19.8954 14.3954 19 15.5 19H23.5C24.6046 19 25.5 19.8954 25.5 21C25.5 22.1046 24.6046 23 23.5 23H15.5C14.3954 23 13.5 22.1046 13.5 21Z" fill="#576684"/>
<path d="M13.5 30C13.5 28.8954 14.3954 28 15.5 28H20.5C21.6046 28 22.5 28.8954 22.5 30C22.5 31.1046 21.6046 32 20.5 32H15.5C14.3954 32 13.5 31.1046 13.5 30Z" fill="#576684"/>
<path d="M29.5 30C29.5 28.8954 30.3954 28 31.5 28H33.5C34.6046 28 35.5 28.8954 35.5 30C35.5 31.1046 34.6046 32 33.5 32H31.5C30.3954 32 29.5 31.1046 29.5 30Z" fill="#576684"/>
<path d="M44.3255 13.8062C43.4504 13.9139 42.2134 14.0009 40.5 14.0009C39.241 14.0009 38.2393 13.9539 37.4493 13.8863C35.7292 13.739 34.6117 12.4239 34.5456 10.6988C34.5183 9.98491 34.5 9.09751 34.5 8.00091C34.5 6.22796 34.5478 5.00184 34.6043 4.17188C34.6043 4.17188 36.6745 4.17545 40.5 8.00091C44.3255 11.8264 44.3255 13.8062 44.3255 13.8062Z" fill="#576684"/>
</svg>