<!-- Copyright © Ewsgit 2022. -->
<!-- Licensed under the MIT License - https://ewsgit.github.io/devdash/copyright -->

<svg width="48" height="48" viewBox="0 0 48 48" fill="none" xmlns="http://www.w3.org/2000/svg">
<path d="M20.1195 36.824C20.1533 37.5936 20.4769 38.3266 21.2002 38.5916C21.7897 38.8076 22.6842 39 24 39C25.3158 39 26.2103 38.8076 26.7998 38.5916C27.5231 38.3266 27.8467 37.5936 27.8805 36.824C27.9347 35.5926 28 33.2302 28 29C28 24.7698 27.9347 22.4074 27.8805 21.176C27.8467 20.4064 27.5231 19.6734 26.7998 19.4084C26.2103 19.1924 25.3158 19 24 19C22.6842 19 21.7897 19.1924 21.2002 19.4084C20.4769 19.6734 20.1533 20.4064 20.1195 21.176C20.0653 22.4074 20 24.7698 20 29C20 33.2302 20.0653 35.5926 20.1195 36.824Z" fill="#576684"/>
<path d="M32.1195 36.824C32.1533 37.5936 32.4769 38.3266 33.2002 38.5916C33.7897 38.8076 34.6842 39 36 39C37.3158 39 38.2103 38.8076 38.7998 38.5916C39.5231 38.3266 39.8467 37.5936 39.8805 36.824C39.9347 35.5926 40 33.2302 40 29C40 24.7698 39.9347 22.4074 39.8805 21.176C39.8467 20.4064 39.5231 19.6734 38.7998 19.4084C38.2103 19.1924 37.3158 19 36 19C34.6842 19 33.7897 19.1924 33.2002 19.4084C32.4769 19.6734 32.1533 20.4064 32.1195 21.176C32.0653 22.4074 32 24.7698 32 29C32 33.2302 32.0653 35.5926 32.1195 36.824Z" fill="#576684"/>
<path d="M8.11949 36.824C8.15333 37.5936 8.47685 38.3266 9.20017 38.5916C9.78972 38.8076 10.6842 39 12 39C13.3158 39 14.2103 38.8076 14.7998 38.5916C15.5231 38.3266 15.8467 37.5936 15.8805 36.824C15.9347 35.5926 16 33.2302 16 29C16 24.7698 15.9347 22.4074 15.8805 21.176C15.8467 20.4064 15.5231 19.6734 14.7998 19.4084C14.2103 19.1924 13.3158 19 12 19C10.6842 19 9.78972 19.1924 9.20017 19.4084C8.47685 19.6734 8.15333 20.4064 8.11949 21.176C8.06535 22.4074 8 24.7698 8 29C8 33.2302 8.06535 35.5926 8.11949 36.824Z" fill="#576684"/>
<path d="M24 21.5C33.4077 21.5 38.9546 21.2962 41.7361 21.1489C43.0234 21.0807 44 20.0154 44 18.7262V16.3886C44 15.4892 43.7102 14.6068 43.0732 13.9718C39.3366 10.247 30.7493 5.44649 24.93 4.1762C24.3151 4.04197 23.6849 4.04197 23.07 4.1762C17.2507 5.44649 8.66341 10.247 4.92679 13.9718C4.28979 14.6068 4 15.4892 4 16.3886V18.7262C4 20.0154 4.97659 21.0807 6.2639 21.1489C9.04542 21.2962 14.5923 21.5 24 21.5Z" fill="#ACB4C9"/>
<path d="M4.3574 37.4573C4.61726 36.7029 5.37255 36.3598 6.1692 36.3146C8.23823 36.1971 13.3034 36 24 36C34.6966 36 39.7618 36.1971 41.8308 36.3146C42.6274 36.3598 43.3827 36.7029 43.6426 37.4573C43.8351 38.0163 44 38.835 44 40C44 41.165 43.8351 41.9837 43.6426 42.5427C43.3827 43.2971 42.6274 43.6402 41.8308 43.6854C39.7618 43.8029 34.6966 44 24 44C13.3034 44 8.23823 43.8029 6.1692 43.6854C5.37255 43.6402 4.61726 43.2971 4.3574 42.5427C4.16486 41.9837 4 41.165 4 40C4 38.835 4.16486 38.0163 4.3574 37.4573Z" fill="#ACB4C9"/>
<circle cx="24" cy="14" r="4" fill="#576684"/>
</svg>