<!-- Copyright © Ewsgit 2022. -->
<!-- Licensed under the MIT License - https://ewsgit.github.io/devdash/copyright -->

<svg xmlns="http://www.w3.org/2000/svg" width="48" height="48" fill="none" viewBox="0 0 48 48"><path fill="#ACB4C9" d="M24.0004 37.4914C13.7597 40.3251 7.79906 38.5124 5.3365 37.3346C4.41714 36.895 3.82422 36.0506 3.65748 35.0453C3.36797 33.2997 3 29.762 3 23.0556C3 18.6198 3.16099 15.5702 3.35378 13.5086C3.5404 11.5129 5.71583 10.6436 7.64262 11.196C10.8149 12.1055 16.15 12.6637 24.0004 10.4914C34.2471 7.65599 40.2083 9.51923 42.668 10.722C43.5852 11.1704 44.1734 12.0211 44.3399 13.0284C44.6298 14.7821 45 18.3302 45 25.0144C45 29.3879 44.8415 32.4188 44.6507 34.4829C44.4641 36.5021 42.2449 37.3862 40.2976 36.8207C37.1184 35.8975 31.8014 35.3328 24.0004 37.4914Z"/><path fill="#576684" d="M30 24C30 27.3137 27.3137 30 24 30C20.6863 30 18 27.3137 18 24C18 20.6863 20.6863 18 24 18C27.3137 18 30 20.6863 30 24Z"/><path fill="#576684" fill-rule="evenodd" d="M44.8684 18.7807C44.2687 18.9242 43.6428 19.0002 42.9992 19.0002C38.5809 19.0002 34.9992 15.4185 34.9992 11.0002C34.9992 10.3194 35.0843 9.6584 35.2443 9.02734C38.8772 9.19045 41.3073 10.0573 42.6672 10.7222C43.5844 11.1707 44.1726 12.0213 44.3391 13.0287C44.521 14.1291 44.7345 15.9359 44.8684 18.7807ZM44.9797 27.574C44.0586 27.204 43.0527 27.0003 41.9992 27.0003C37.5809 27.0003 33.9992 30.582 33.9992 35.0003C33.9992 35.339 34.0202 35.6727 34.0611 36.0003C36.6775 36.004 38.7426 36.3696 40.2968 36.821C42.2441 37.3865 44.4633 36.5024 44.6499 34.4832C44.801 32.8486 44.9318 30.6078 44.9797 27.574ZM12.7529 38.9778C12.9137 38.3453 12.9992 37.6828 12.9992 37.0003C12.9992 32.582 9.41748 29.0003 4.9992 29.0003C4.35395 29.0003 3.72654 29.0767 3.12553 29.2209C3.25841 32.1149 3.47329 33.9398 3.65668 35.0455C3.82343 36.0509 4.41634 36.8952 5.3357 37.3349C6.6963 37.9856 9.12474 38.8302 12.7529 38.9778ZM3.01953 20.4269C3.94044 20.7967 4.94606 21.0002 5.9992 21.0002C10.4175 21.0002 13.9992 17.4185 13.9992 13.0002C13.9992 12.6615 13.9782 12.3278 13.9373 12.0002C11.2872 12.0062 9.20269 11.6437 7.64183 11.1962C5.71504 10.6438 3.5396 11.5131 3.35298 13.5088C3.20091 15.135 3.06863 17.3758 3.01953 20.4269Z" clip-rule="evenodd"/></svg>