<!-- Copyright © Ewsgit 2022. -->
<!-- Licensed under the MIT License - https://ewsgit.github.io/devdash/copyright -->

<svg width="49" height="48" viewBox="0 0 49 48" fill="none" xmlns="http://www.w3.org/2000/svg">
<path fill-rule="evenodd" clip-rule="evenodd" d="M34.6284 4.17191C34.8696 4.18629 36.9133 4.41337 40.4999 7.99998C44.1181 11.6182 44.3141 13.5854 44.3248 13.7879C44.3249 13.7924 44.3251 13.797 44.3253 13.8016C44.3254 13.8041 44.3254 13.8053 44.3254 13.8053L44.3255 13.8052C44.4293 16.4095 44.5 19.7451 44.5 24C44.5 33.2895 44.1629 39.2081 43.8802 42.5387C43.7495 44.0781 42.0071 44.756 40.8203 43.7669L37.5 41L34.7658 43.7342C34.0452 44.4548 32.898 44.5184 32.1022 43.8817L28.5 41L25.9142 43.5858C25.1332 44.3668 23.8668 44.3668 23.0858 43.5858L20.5 41L16.8978 43.8817C16.102 44.5184 14.9548 44.4548 14.2342 43.7342L11.5 41L8.1797 43.7669C6.99285 44.756 5.25053 44.0781 5.11984 42.5387C4.83709 39.2081 4.5 33.2895 4.5 24C4.5 15.4507 4.78551 10.6131 5.05141 7.96144C5.23985 6.08233 6.58233 4.73985 8.46144 4.55141C11.1131 4.28551 15.9507 4 24.5 4C28.7189 4 32.0339 4.06953 34.6284 4.17191Z" fill="#ACB4C9"/>
<path d="M44.3255 13.8062C43.4504 13.9139 42.2134 14.0009 40.5 14.0009C39.241 14.0009 38.2393 13.9539 37.4493 13.8863C35.7292 13.739 34.6117 12.4239 34.5456 10.6988C34.5183 9.98491 34.5 9.09751 34.5 8.00091C34.5 6.22796 34.5478 5.00184 34.6043 4.17188C34.6043 4.17188 36.6745 4.17545 40.5 8.00091C44.3255 11.8264 44.3255 13.8062 44.3255 13.8062Z" fill="#576684"/>
<path fill-rule="evenodd" clip-rule="evenodd" d="M16.9472 25.8827C17.0536 26.3829 17.5827 26.6032 18.0941 26.6032H22.271L22.5162 27.1219V28.0796V28.4113H18.0423C17.7145 28.4113 17.4413 28.5032 17.2228 28.6871C17.0042 28.871 16.895 29.2081 16.895 29.6984C16.895 29.9039 16.9132 30.0923 16.9495 30.2638C17.0557 30.764 17.5827 30.9855 18.0941 30.9855H22.5007V33.1613C22.5007 33.8151 22.6755 34.2849 23.0252 34.571C23.3749 34.857 23.9541 35 24.7627 35C24.9509 35 25.1395 34.9918 25.3278 34.9765C26.1382 34.9109 26.6968 34.1797 26.6968 33.3667V30.9855H31.0896C31.4175 30.9855 31.6906 30.8833 31.9092 30.679C32.1496 30.4747 32.2698 30.1479 32.2698 29.6984C32.2698 29.5515 32.2522 29.401 32.2209 29.2511C32.1079 28.7095 31.5637 28.4113 31.0104 28.4113H26.702V28.0796V27.1219L26.964 26.6032H31.0896C31.4393 26.6032 31.7234 26.5011 31.942 26.2968C32.1824 26.0925 32.3026 25.7758 32.3026 25.3468C32.3026 25.2051 32.286 25.0623 32.2572 24.9204C32.1422 24.353 31.5731 24.029 30.9942 24.029H28.8604C30.0625 22.1903 30.9694 20.75 31.5814 19.7081C32.1933 18.6457 32.4993 17.9409 32.4993 17.5935C32.4993 17.1032 32.3244 16.7151 31.9748 16.429C31.6251 16.143 31.1661 16 30.5979 16C30.3919 16 30.1915 16.0115 29.9968 16.0346C29.1235 16.138 28.4762 16.821 28.0714 17.6018C27.9218 17.8903 27.7805 18.1634 27.6475 18.421C27.3415 19.0134 27.0465 19.5957 26.7624 20.1677C26.4783 20.7194 26.1723 21.2812 25.8445 21.8532C25.5385 22.4048 25.1888 23.028 24.7955 23.7226H24.5988L20.9927 17.7468C20.5993 17.093 20.2278 16.6435 19.8781 16.3984C19.5285 16.1328 19.0367 16 18.4029 16C17.9445 16 17.5205 16.1149 17.1471 16.3175C16.4936 16.6723 16.431 17.5282 16.7808 18.1844C17.1349 18.8489 17.5554 19.5713 18.0423 20.3516C18.8073 21.5774 19.6049 22.8032 20.4354 24.029H18.0423C17.7145 24.029 17.4413 24.1312 17.2228 24.3355C17.0042 24.5398 16.895 24.8769 16.895 25.3468C16.895 25.5403 16.9124 25.719 16.9472 25.8827Z" fill="#576684"/>
</svg>