<!-- Copyright © Ewsgit 2022. -->
<!-- Licensed under the MIT License - https://ewsgit.github.io/devdash/copyright -->

<svg width="48" height="48" viewBox="0 0 48 48" fill="none" xmlns="http://www.w3.org/2000/svg">
<circle cx="24" cy="24" r="20" fill="#ACB4C9"/>
<path fill-rule="evenodd" clip-rule="evenodd" d="M19.8999 14.7019V12.9251C19.8999 12.4804 20.1931 12.0775 20.6349 12.0271C20.791 12.0093 20.947 12 21.0999 12C21.6285 12 22.0071 12.1081 22.2356 12.3242C22.4785 12.5404 22.5999 12.9311 22.5999 13.4964V14.4514C22.9318 14.4388 23.2687 14.4325 23.6107 14.4325C23.8809 14.4325 24.144 14.4379 24.3999 14.4488V12.9251C24.3999 12.4804 24.6931 12.0775 25.1349 12.0271C25.291 12.0093 25.447 12 25.5999 12C26.1285 12 26.5071 12.1081 26.7357 12.3242C26.9785 12.5404 27.0999 12.9311 27.0999 13.4964V14.8309C27.8392 15.0294 28.4813 15.302 29.0263 15.6489C30.3006 16.4405 30.9377 17.6761 30.9377 19.3558C30.9377 20.2246 30.706 20.9776 30.2427 21.6148C29.7986 22.2519 29.1229 22.7635 28.2154 23.1497C29.3352 23.5165 30.1751 24.0668 30.735 24.8004C31.2949 25.5341 31.5749 26.4029 31.5749 27.4069C31.5749 29.2411 30.9088 30.6022 29.5766 31.4903C28.9037 31.9389 28.0782 32.2742 27.0999 32.4962V35.0832C27.0999 35.4889 26.8549 35.8622 26.4567 35.9395C26.2603 35.9776 26.0649 36 25.8999 36C25.3714 36 24.9857 35.8476 24.7428 35.5427C24.5142 35.2379 24.3999 34.6868 24.3999 33.8895V32.8134C24.1989 32.8195 23.9937 32.8225 23.7845 32.8225C23.4184 32.8225 23.0236 32.8129 22.5999 32.7937V35.0832C22.5999 35.4889 22.3549 35.8622 21.9566 35.9395C21.7603 35.9776 21.5649 36 21.3999 36C20.8714 36 20.4856 35.8476 20.2428 35.5427C20.0142 35.2379 19.8999 34.6868 19.8999 33.8895V32.4412C19.5419 32.3702 19.2053 32.2849 18.8901 32.1854C17.9634 31.8765 17.5 31.3069 17.5 30.4767V16.315C17.5 15.9481 17.5965 15.6682 17.7896 15.4751C17.9827 15.282 18.253 15.1276 18.6005 15.0117C18.9952 14.884 19.4284 14.7808 19.8999 14.7019ZM26.9122 25.4376C27.4721 25.8816 27.7521 26.4898 27.7521 27.2621C27.7521 28.1695 27.4142 28.8356 26.7384 29.2604C26.082 29.6658 25.1649 29.8685 23.9872 29.8685C23.4852 29.8685 22.9736 29.8492 22.4523 29.8106C21.9503 29.772 21.5159 29.7044 21.149 29.6079V24.7715H24.5374C25.58 24.7715 26.3716 24.9935 26.9122 25.4376ZM24.0741 22.0202H21.149V17.5313C21.458 17.4734 21.8248 17.4251 22.2495 17.3865C22.6936 17.3479 23.157 17.3286 23.6397 17.3286C25.9951 17.3286 27.1728 18.0912 27.1728 19.6165C27.1728 20.3695 26.9122 20.9583 26.3909 21.3831C25.8889 21.8078 25.1166 22.0202 24.0741 22.0202Z" fill="#576684"/>
</svg>