<!-- Copyright © Ewsgit 2022. -->
<!-- Licensed under the MIT License - https://ewsgit.github.io/devdash/copyright -->

<svg width="49" height="48" viewBox="0 0 49 48" fill="none" xmlns="http://www.w3.org/2000/svg">
<path fill-rule="evenodd" clip-rule="evenodd" d="M34.6284 4.17191C34.8696 4.18629 36.9133 4.41337 40.4999 7.99998C44.1181 11.6182 44.3141 13.5854 44.3248 13.7879C44.3249 13.7924 44.3251 13.797 44.3253 13.8016C44.3254 13.8041 44.3254 13.8053 44.3254 13.8053L44.3255 13.8052C44.4293 16.4095 44.5 19.7451 44.5 24C44.5 33.2895 44.1629 39.2081 43.8802 42.5387C43.7495 44.0781 42.0071 44.756 40.8203 43.7669L37.5 41L34.7658 43.7342C34.0452 44.4548 32.898 44.5184 32.1022 43.8817L28.5 41L25.9142 43.5858C25.1332 44.3668 23.8668 44.3668 23.0858 43.5858L20.5 41L16.8978 43.8817C16.102 44.5184 14.9548 44.4548 14.2342 43.7342L11.5 41L8.1797 43.7669C6.99285 44.756 5.25053 44.0781 5.11984 42.5387C4.83709 39.2081 4.5 33.2895 4.5 24C4.5 15.4507 4.78551 10.6131 5.05141 7.96144C5.23985 6.08233 6.58233 4.73985 8.46144 4.55141C11.1131 4.28551 15.9507 4 24.5 4C28.7189 4 32.0339 4.06953 34.6284 4.17191Z" fill="#ACB4C9"/>
<path d="M44.3255 13.8062C43.4504 13.9139 42.2134 14.0009 40.5 14.0009C39.241 14.0009 38.2393 13.9539 37.4493 13.8863C35.7292 13.739 34.6117 12.4239 34.5456 10.6988C34.5183 9.98491 34.5 9.09751 34.5 8.00091C34.5 6.22796 34.5478 5.00184 34.6043 4.17188C34.6043 4.17188 36.6745 4.17545 40.5 8.00091C44.3255 11.8264 44.3255 13.8062 44.3255 13.8062Z" fill="#576684"/>
<path fill-rule="evenodd" clip-rule="evenodd" d="M16.0838 23.4221C16.2038 23.7965 16.6268 23.9214 17.02 23.9214H25.1194C25.1194 25.1157 24.7409 26.0114 23.9838 26.6086C23.2497 27.2057 22.1599 27.5043 20.7146 27.5043H18.8563C18.3057 27.7938 18.0304 28.201 18.0304 28.7257C18.0304 28.9429 18.0877 29.1871 18.2024 29.4586L24.8441 34.86C25.28 35.2219 25.6815 35.5024 26.0486 35.7014C26.4157 35.9005 26.8171 36 27.253 36C27.9413 36 28.469 35.819 28.836 35.4571C28.958 35.344 29.062 35.2202 29.1481 35.0858C29.5167 34.5101 29.1153 33.8097 28.5536 33.42L22.8826 29.4857C24.8785 29.3952 26.4501 28.8705 27.5972 27.9114C28.7443 26.9343 29.3178 25.6043 29.3178 23.9214H31.6923C32.0594 23.9214 32.3691 23.831 32.6215 23.65C32.8738 23.451 33 23.1433 33 22.7271C33 22.5508 32.9611 22.3728 32.8982 22.1988C32.7527 21.7961 32.3276 21.5871 31.8994 21.5871H29.2478C29.1181 20.7258 28.809 19.9749 28.3206 19.3343H31.6923C32.0594 19.3343 32.3691 19.2438 32.6215 19.0629C32.8738 18.8819 33 18.5652 33 18.1129C33 17.9151 32.958 17.7017 32.8791 17.4983C32.7461 17.1552 32.3748 17 32.0069 17H17.2733C16.9062 17 16.5965 17.0995 16.3441 17.2986C16.1147 17.4795 16 17.7781 16 18.1943C16 18.3742 16.0166 18.5608 16.0657 18.7403C16.1839 19.1719 16.6623 19.3343 17.1098 19.3343H23.0154C23.3876 19.4739 23.7105 19.6549 23.9841 19.8774C24.5182 20.2987 24.8639 20.8686 25.0212 21.5871H17.2733C16.9062 21.5871 16.5965 21.6867 16.3441 21.8857C16.1147 22.0667 16 22.3743 16 22.8086C16 22.9978 16.0181 23.2169 16.0838 23.4221Z" fill="#576684"/>
</svg>