<!-- Copyright © Ewsgit 2022. -->
<!-- Licensed under the MIT License - https://ewsgit.github.io/devdash/copyright -->

<svg width="48" height="48" viewBox="0 0 48 48" fill="none" xmlns="http://www.w3.org/2000/svg">
<path d="M44 24C44 35.0457 35.0457 44 24 44C12.9543 44 4 35.0457 4 24C4 12.9543 12.9543 4 24 4C35.0457 4 44 12.9543 44 24Z" fill="#ACB4C9"/>
<path d="M17.1089 21.16C16.6447 21.16 16.1676 20.9722 16.0656 20.5194C16.0145 20.2929 16 20.0553 16 19.848C16 19.336 16.1067 18.9733 16.32 18.76C16.5547 18.5253 16.8427 18.408 17.184 18.408H30.6515C31.1249 18.408 31.5812 18.6687 31.7118 19.1238C31.7711 19.3306 31.808 19.5423 31.808 19.752C31.808 20.2427 31.6907 20.6053 31.456 20.84C31.2213 21.0533 30.9333 21.16 30.592 21.16H28.384C28.384 23.144 27.8507 24.712 26.784 25.864C25.7173 26.9947 24.256 27.6133 22.4 27.72L27.8044 32.4736C28.2525 32.8678 28.5475 33.4571 28.353 34.0212C28.2569 34.2997 28.1179 34.546 27.936 34.76C27.5947 35.1867 27.104 35.4 26.464 35.4C26.0587 35.4 25.6853 35.2827 25.344 35.048C25.0027 34.8133 24.6293 34.4827 24.224 34.056L18.048 27.688C17.9413 27.368 17.888 27.08 17.888 26.824C17.888 26.2053 18.144 25.7253 18.656 25.384H20.384C21.728 25.384 22.7413 25.032 23.424 24.328C24.128 23.624 24.48 22.568 24.48 21.16H17.1089ZM17.2037 15.752C16.6843 15.752 16.1534 15.5212 16.0528 15.0116C16.0135 14.8124 16 14.6068 16 14.408C16 13.9173 16.1067 13.5653 16.32 13.352C16.5547 13.1173 16.8427 13 17.184 13H30.755C31.173 13 31.582 13.2056 31.7012 13.6062C31.7709 13.8404 31.808 14.085 31.808 14.312C31.808 14.8453 31.6907 15.2187 31.456 15.432C31.2213 15.6453 30.9333 15.752 30.592 15.752H17.2037Z" fill="#576684"/>
<path d="M26.7848 14.8565C27.8514 16.0085 28.3848 17.5765 28.3848 19.5605H24.4808C24.4808 18.1525 24.1288 17.0965 23.4248 16.3925C22.7421 15.6885 21.7288 15.3365 20.3848 15.3365L22.4008 13.0005C24.2568 13.1072 25.7181 13.7259 26.7848 14.8565Z" fill="#576684"/>
</svg>