<!-- Copyright © Ewsgit 2022. -->
<!-- Licensed under the MIT License - https://ewsgit.github.io/devdash/copyright -->

<svg xmlns="http://www.w3.org/2000/svg" width="48" height="48" fill="none" viewBox="0 0 48 48"><path fill="#ACB4C9" d="M4.56198 8.68502C4.73932 6.96777 5.86521 5.60848 7.55375 5.24901C10.219 4.68162 15.2432 4 24 4C32.7568 4 37.781 4.68162 40.4463 5.24901C42.1348 5.60848 43.2607 6.96778 43.438 8.68502C43.701 11.2312 44 15.9061 44 24C44 32.0939 43.701 36.7688 43.438 39.315C43.2607 41.0322 42.1348 42.3915 40.4462 42.751C37.781 43.3184 32.7568 44 24 44C15.2432 44 10.219 43.3184 7.55375 42.751C5.86521 42.3915 4.73932 41.0322 4.56198 39.315C4.29904 36.7688 4 32.0939 4 24C4 15.9061 4.29904 11.2312 4.56198 8.68502Z"/><path fill="#576684" d="M20.1147 34.1098C20.1465 34.6985 20.3966 35.2452 20.9353 35.4847C21.509 35.7397 22.4694 36 24 36C25.5306 36 26.491 35.7397 27.0647 35.4847C27.6034 35.2452 27.8535 34.6985 27.8853 34.1098C27.9385 33.1283 28 31.1052 28 27C28 22.8948 27.9385 20.8717 27.8853 19.8902C27.8535 19.3015 27.6034 18.7548 27.0647 18.5153C26.491 18.2603 25.5306 18 24 18C22.4694 18 21.509 18.2603 20.9353 18.5153C20.3966 18.7548 20.1465 19.3015 20.1147 19.8902C20.0615 20.8717 20 22.8948 20 27C20 31.1052 20.0615 33.1283 20.1147 34.1098Z"/><path fill="#576684" d="M30.1392 33.6983C30.1678 34.545 30.5137 35.3615 31.3164 35.6325C31.9052 35.8313 32.7678 36 34 36C35.2322 36 36.0948 35.8313 36.6836 35.6325C37.4863 35.3615 37.8322 34.545 37.8608 33.6983C37.9172 32.0268 38 28.7622 38 24C38 19.2378 37.9172 15.9732 37.8608 14.3017C37.8322 13.455 37.4863 12.6385 36.6836 12.3675C36.0948 12.1687 35.2322 12 34 12C32.7678 12 31.9052 12.1687 31.3164 12.3675C30.5137 12.6385 30.1678 13.455 30.1392 14.3017C30.0828 15.9732 30 19.2378 30 24C30 28.7622 30.0828 32.0268 30.1392 33.6983Z"/><path fill="#576684" d="M10.0971 34.1112C10.1366 34.6994 10.3966 35.2452 10.9353 35.4847C11.509 35.7397 12.4694 36 14 36C15.5306 36 16.491 35.7397 17.0647 35.4847C17.6034 35.2452 17.8634 34.6994 17.9029 34.1112C17.9511 33.3934 18 32.1385 18 30C18 27.8615 17.9511 26.6066 17.9029 25.8888C17.8634 25.3006 17.6034 24.7548 17.0647 24.5153C16.491 24.2603 15.5306 24 14 24C12.4694 24 11.509 24.2603 10.9353 24.5153C10.3966 24.7548 10.1366 25.3006 10.0971 25.8888C10.0489 26.6066 10 27.8615 10 30C10 32.1385 10.0489 33.3934 10.0971 34.1112Z"/></svg>