<!-- Copyright © Ewsgit 2022. -->
<!-- Licensed under the MIT License - https://ewsgit.github.io/devdash/copyright -->

<svg xmlns="http://www.w3.org/2000/svg" width="48" height="48" fill="none" viewBox="0 0 48 48"><path fill="#ACB4C9" d="M14 5.71429C14 4.76751 14.7675 4 15.7143 4L32.2857 4C33.2325 4 34 4.76751 34 5.71429V6C34 11.5228 29.5228 16 24 16C18.4772 16 14 11.5228 14 6V5.71429Z"/><path fill="#ACB4C9" d="M42 32C42 40.8366 33.9411 44 24 44C14.0589 44 6 40.8366 6 32C6 23.1634 14.0589 12 24 12C33.9411 12 42 23.1634 42 32Z"/><path fill="#576684" d="M23.3197 34.5345C24.4082 34.5345 25.1944 34.3505 25.6782 33.9824C26.1821 33.6144 26.4341 33.1635 26.4341 32.6299C26.4341 32.1514 26.2426 31.765 25.8596 31.4705C25.4766 31.1761 24.9021 30.9184 24.1361 30.6976L22.473 30.2008C21.6465 29.9615 20.9006 29.7039 20.2354 29.4279C19.5702 29.1518 19.0058 28.8206 18.5421 28.4341C18.0785 28.0477 17.7156 27.5876 17.4536 27.054C17.1915 26.5203 17.0605 25.8854 17.0605 25.1493C17.0605 23.8979 17.4838 22.8582 18.3305 22.0301C19.1771 21.202 20.3866 20.6499 21.959 20.3739V19.5888C21.959 18.7724 22.5245 18.0428 23.3402 18.0069C23.4449 18.0023 23.5491 18 23.6523 18C24.3981 18 24.9323 18.1196 25.2549 18.3588C25.5976 18.5981 25.7689 19.0305 25.7689 19.6562V20.2635C27.059 20.3923 28.1073 20.6775 28.9136 21.1192C29.7199 21.5424 30.1231 22.1037 30.1231 22.803C30.1231 23.1145 30.0407 23.4029 29.8982 23.6646C29.5189 24.3606 28.5722 24.3093 27.8212 24.0558C27.6065 23.9833 27.376 23.9154 27.1296 23.8519C26.3636 23.6311 25.527 23.5207 24.6199 23.5207C23.612 23.5207 22.856 23.6771 22.3521 23.99C21.8682 24.2844 21.6263 24.6708 21.6263 25.1493C21.6263 25.5358 21.7876 25.8486 22.1102 26.0878C22.4528 26.3271 22.9669 26.5479 23.6523 26.7503L25.3456 27.2196C27.1598 27.7348 28.5508 28.4157 29.5184 29.2622C30.5061 30.1087 31 31.2497 31 32.6851C31 33.9548 30.5565 35.0314 29.6695 35.9147C28.7826 36.7796 27.4824 37.3593 25.7689 37.6537V38.4112C25.7689 39.2277 25.2033 39.9573 24.3877 39.9931C24.283 39.9977 24.1788 40 24.0756 40C23.3297 40 22.7855 39.8804 22.4428 39.6412C22.1202 39.4019 21.959 38.9695 21.959 38.3438V37.7917C20.4874 37.6445 19.288 37.3225 18.3607 36.8256C17.4536 36.3103 17 35.6662 17 34.8933C17 34.4419 17.1733 34.0499 17.4513 33.7202C17.949 33.1302 18.8352 33.2765 19.5209 33.631C19.8134 33.7822 20.1322 33.9269 20.4773 34.0652C21.3038 34.3781 22.2513 34.5345 23.3197 34.5345Z"/></svg>