<!-- Copyright © Ewsgit 2022. -->
<!-- Licensed under the MIT License - https://ewsgit.github.io/devdash/copyright -->

<svg width="48" height="48" viewBox="0 0 48 48" fill="none" xmlns="http://www.w3.org/2000/svg">
<path d="M44 24C44 35.0457 35.0457 44 24 44C12.9543 44 4 35.0457 4 24C4 12.9543 12.9543 4 24 4C35.0457 4 44 12.9543 44 24Z" fill="#ACB4C9"/>
<path d="M19.7517 26.768C19.7517 26.64 19.741 26.512 19.7197 26.384C19.7197 26.2347 19.7197 26.0747 19.7197 25.904H18.4717C18.0664 25.904 17.7357 25.7867 17.4797 25.552C17.2237 25.296 17.0957 24.8693 17.0957 24.272C17.0957 24.04 17.1265 23.8168 17.1804 23.5998C17.3172 23.0484 17.8706 22.736 18.4387 22.736H19.3997C19.357 22.3733 19.325 22.0213 19.3037 21.68C19.2824 21.3173 19.2717 20.9867 19.2717 20.688C19.2717 19.5147 19.453 18.512 19.8157 17.68C20.1784 16.8267 20.669 16.1333 21.2877 15.6C21.9277 15.0453 22.6637 14.64 23.4957 14.384C24.349 14.128 25.2557 14 26.2157 14C27.6237 14 28.6797 14.2347 29.3837 14.704C30.109 15.152 30.4717 15.728 30.4717 16.432C30.4717 16.6732 30.4288 16.9311 30.3435 17.175C30.1027 17.8639 29.2607 17.8309 28.5698 17.5958C28.4895 17.5684 28.4087 17.5432 28.3277 17.52C27.901 17.3707 27.3784 17.296 26.7597 17.296C25.6077 17.296 24.733 17.584 24.1357 18.16C23.5597 18.736 23.2717 19.664 23.2717 20.944C23.2717 21.2 23.2717 21.4773 23.2717 21.776C23.293 22.0747 23.3144 22.3947 23.3357 22.736H27.5606C28.1288 22.736 28.6765 23.0505 28.8146 23.6016C28.8705 23.8246 28.9037 24.0511 28.9037 24.272C28.9037 24.8693 28.7757 25.296 28.5197 25.552C28.2637 25.7867 27.9224 25.904 27.4957 25.904H23.6557C23.677 26.0747 23.6877 26.2453 23.6877 26.416C23.6877 26.5653 23.6877 26.704 23.6877 26.832C23.6877 28.5173 23.2397 29.8187 22.3437 30.736H29.506C30.1415 30.736 30.757 31.0801 30.8667 31.7062C30.902 31.9078 30.9197 32.1103 30.9197 32.304C30.9197 32.8587 30.7917 33.2747 30.5357 33.552C30.2797 33.808 29.9384 33.936 29.5117 33.936H18.7917C18.301 33.936 17.8744 33.7653 17.5117 33.424C17.2709 33.1681 17.116 32.8297 17.04 32.4709C16.905 31.8344 17.4022 31.3072 17.9407 30.9419C18.4152 30.62 18.7949 30.242 19.0797 29.808C19.5277 29.1253 19.7517 28.112 19.7517 26.768Z" fill="#576684"/>
</svg>