<!-- Copyright © Ewsgit 2022. -->
<!-- Licensed under the MIT License - https://ewsgit.github.io/devdash/copyright -->

<svg width="48" height="48" viewBox="0 0 48 48" fill="none" xmlns="http://www.w3.org/2000/svg">
<path d="M42.7811 45.9686C44.4542 45.9261 45.7214 44.9198 45.8582 43.2518C45.9401 42.2527 46 40.8796 46 39C46 37.1204 45.9401 35.7473 45.8582 34.7482C45.7214 33.0802 44.4542 32.0739 42.7811 32.0314C42.0491 32.0128 41.1339 32 40 32C38.8661 32 37.9509 32.0128 37.2189 32.0314C35.5458 32.0739 34.2786 33.0802 34.1418 34.7482C34.0599 35.7473 34 37.1204 34 39C34 40.8796 34.0599 42.2527 34.1418 43.2518C34.2786 44.9198 35.5458 45.9261 37.2189 45.9686C37.9509 45.9872 38.8661 46 40 46C41.1339 46 42.0491 45.9872 42.7811 45.9686Z" fill="#ACB4C9"/>
<path d="M10.309 45.9585C12.2582 45.8816 13.625 44.5113 13.7514 42.5646C13.8824 40.5461 14 37.2674 14 32C14 26.7326 13.8824 23.4539 13.7514 21.4354C13.625 19.4887 12.2582 18.1184 10.309 18.0415C9.66583 18.0161 8.90212 18 8 18C7.09788 18 6.33417 18.0161 5.69103 18.0415C3.74179 18.1184 2.37497 19.4887 2.2486 21.4354C2.11756 23.4539 2 26.7326 2 32C2 37.2674 2.11756 40.5461 2.2486 42.5646C2.37498 44.5113 3.74179 45.8816 5.69103 45.9585C6.33417 45.9839 7.09789 46 8 46C8.90212 46 9.66583 45.9839 10.309 45.9585Z" fill="#ACB4C9"/>
<path d="M26.4468 45.9663C28.3146 45.9095 29.676 44.6837 29.8102 42.8199C29.9156 41.355 30 39.1872 30 36C30 32.8128 29.9156 30.645 29.8102 29.1801C29.676 27.3163 28.3146 26.0905 26.4468 26.0337C25.7757 26.0133 24.9674 26 24 26C23.0326 26 22.2243 26.0133 21.5532 26.0337C19.6854 26.0905 18.324 27.3163 18.1898 29.1801C18.0844 30.645 18 32.8128 18 36C18 39.1872 18.0844 41.355 18.1898 42.8199C18.324 44.6837 19.6854 45.9095 21.5532 45.9663C22.2243 45.9867 23.0326 46 24 46C24.9674 46 25.7757 45.9867 26.4468 45.9663Z" fill="#ACB4C9"/>
<path d="M7.04831 3.43744C7.89444 2.37977 9.51326 2.2063 10.5685 3.05202C14.1581 5.93589 17.5361 9.10918 20.8313 12.3194C22.5842 10.2543 24.3165 8.14763 26.2327 6.23141C27.1026 5.36154 28.476 5.25378 29.4709 5.97734C32.808 8.40252 35.9864 11.0734 39.078 13.8003C40.0243 12.8786 40.8194 12.1283 41.4835 11.519C42.9415 10.1812 44.8215 10.924 44.9209 12.9003C45.0478 15.4221 45.1225 18.0102 44.6568 20.5012C44.4471 21.623 43.6242 22.4457 42.5025 22.6554C40.011 23.1211 37.4225 23.0467 34.9003 22.9198C32.9244 22.8204 32.1819 20.9409 33.5195 19.4831C34.0701 18.883 34.736 18.1757 35.5394 17.3466C32.5206 14.6945 29.9119 12.6097 28.2893 11.3532C26.4555 13.396 24.6815 15.4934 22.921 17.5996C21.9936 18.7126 20.2571 18.7913 19.2327 17.7669C15.4714 14.0056 11.5922 10.3029 7.44806 6.95883C6.3826 6.10276 6.19003 4.51028 7.04831 3.43744Z" fill="#576684"/>
</svg>