<!-- Copyright © Ewsgit 2022. -->
<!-- Licensed under the MIT License - https://ewsgit.github.io/devdash/copyright -->

<svg width="49" height="48" viewBox="0 0 49 48" fill="none" xmlns="http://www.w3.org/2000/svg">
<path fill-rule="evenodd" clip-rule="evenodd" d="M34.6284 4.17191C34.8696 4.18629 36.9133 4.41337 40.4999 7.99998C44.1181 11.6182 44.3141 13.5854 44.3248 13.7879C44.3249 13.7924 44.3251 13.797 44.3253 13.8016C44.3254 13.8041 44.3254 13.8053 44.3254 13.8053L44.3255 13.8052C44.4293 16.4095 44.5 19.7451 44.5 24C44.5 33.2895 44.1629 39.2081 43.8802 42.5387C43.7495 44.0781 42.0071 44.756 40.8203 43.7669L37.5 41L34.7658 43.7342C34.0452 44.4548 32.898 44.5184 32.1022 43.8817L28.5 41L25.9142 43.5858C25.1332 44.3668 23.8668 44.3668 23.0858 43.5858L20.5 41L16.8978 43.8817C16.102 44.5184 14.9548 44.4548 14.2342 43.7342L11.5 41L8.1797 43.7669C6.99285 44.756 5.25053 44.0781 5.11984 42.5387C4.83709 39.2081 4.5 33.2895 4.5 24C4.5 15.4507 4.78551 10.6131 5.05141 7.96144C5.23985 6.08233 6.58233 4.73985 8.46144 4.55141C11.1131 4.28551 15.9507 4 24.5 4C28.7189 4 32.0339 4.06953 34.6284 4.17191Z" fill="#ACB4C9"/>
<path d="M44.3255 13.8062C43.4504 13.9139 42.2134 14.0009 40.5 14.0009C39.241 14.0009 38.2393 13.9539 37.4493 13.8863C35.7292 13.739 34.6117 12.4239 34.5456 10.6988C34.5183 9.98491 34.5 9.09751 34.5 8.00091C34.5 6.22796 34.5478 5.00184 34.6043 4.17188C34.6043 4.17188 36.6745 4.17545 40.5 8.00091C44.3255 11.8264 44.3255 13.8062 44.3255 13.8062Z" fill="#576684"/>
<path fill-rule="evenodd" clip-rule="evenodd" d="M25.7822 14.528C25.0623 13.824 23.9357 13.824 23.2159 14.5281C21.4115 16.2931 18.0943 19.7948 15.8506 23.6845C15.3805 24.4995 15.3805 25.4999 15.8506 26.3149C18.0943 30.2046 21.4115 33.7063 23.2159 35.4713C23.9357 36.1754 25.0623 36.1754 25.7822 35.4714C27.5868 33.7063 30.9043 30.2045 33.1477 26.3146C33.6176 25.4998 33.6176 24.4996 33.1477 23.6848C30.9043 19.7949 27.5868 16.2931 25.7822 14.528ZM20.4701 27.6622C22.4314 30.1814 24.499 31.6911 24.499 31.6911C24.499 31.6911 26.5691 30.1802 28.5311 27.6593C26.7913 28.3872 24.9982 29.0826 24.4971 29.0826C23.9966 29.0826 22.2077 28.3891 20.4701 27.6622ZM29.8164 24.1927C27.6073 20.5769 24.499 18.3083 24.499 18.3083C24.499 18.3083 21.3912 20.5775 19.1816 24.1941C21.0016 24.9325 23.8028 26.021 24.4975 26.021C25.1926 26.021 27.9966 24.9311 29.8164 24.1927Z" fill="#576684"/>
</svg>