<!-- Copyright © Ewsgit 2022. -->
<!-- Licensed under the MIT License - https://ewsgit.github.io/devdash/copyright -->

<svg xmlns="http://www.w3.org/2000/svg" width="49" height="48" fill="none" viewBox="0 0 49 48"><path fill="#ACB4C9" fill-rule="evenodd" d="M34.6284 4.17191C34.8696 4.18629 36.9133 4.41337 40.4999 7.99998C44.1181 11.6182 44.3141 13.5854 44.3248 13.7879C44.3249 13.7924 44.3251 13.797 44.3253 13.8016C44.3254 13.8041 44.3254 13.8053 44.3254 13.8053L44.3255 13.8052C44.4293 16.4095 44.5 19.7451 44.5 24C44.5 33.2895 44.1629 39.2081 43.8802 42.5387C43.7495 44.0781 42.0071 44.756 40.8203 43.7669L37.5 41L34.7658 43.7342C34.0452 44.4548 32.898 44.5184 32.1022 43.8817L28.5 41L25.9142 43.5858C25.1332 44.3668 23.8668 44.3668 23.0858 43.5858L20.5 41L16.8978 43.8817C16.102 44.5184 14.9548 44.4548 14.2342 43.7342L11.5 41L8.1797 43.7669C6.99285 44.756 5.25053 44.0781 5.11984 42.5387C4.83709 39.2081 4.5 33.2895 4.5 24C4.5 15.4507 4.78551 10.6131 5.05141 7.96144C5.23985 6.08233 6.58233 4.73985 8.46144 4.55141C11.1131 4.28551 15.9507 4 24.5 4C28.7189 4 32.0339 4.06953 34.6284 4.17191Z" clip-rule="evenodd"/><path fill="#576684" d="M44.3255 13.8062C43.4504 13.9139 42.2134 14.0009 40.5 14.0009C39.241 14.0009 38.2393 13.9539 37.4493 13.8863C35.7292 13.739 34.6117 12.4239 34.5456 10.6988C34.5183 9.98491 34.5 9.09751 34.5 8.00091C34.5 6.22796 34.5478 5.00184 34.6043 4.17188C34.6043 4.17188 36.6745 4.17545 40.5 8.00091C44.3255 11.8264 44.3255 13.8062 44.3255 13.8062Z"/><path fill="#576684" d="M19.2804 27.5281C19.2804 27.4125 19.2697 27.297 19.2483 27.1814C19.2483 27.0465 19.2483 26.9021 19.2483 26.748H17.9945C17.5873 26.748 17.2551 26.6421 16.9979 26.4302C16.7407 26.199 16.6122 25.8138 16.6122 25.2745C16.6122 25.076 16.6399 24.8847 16.6889 24.6985C16.8273 24.1719 17.3677 23.8876 17.9121 23.8876H18.9268C18.8839 23.5602 18.8518 23.2424 18.8304 22.9342C18.8089 22.6067 18.7982 22.3082 18.7982 22.0385C18.7982 20.9791 18.9804 20.0738 19.3447 19.3226C19.7091 18.5522 20.202 17.9262 20.8235 17.4446C21.4665 16.9438 22.2059 16.5778 23.0417 16.3467C23.899 16.1156 24.8098 16 25.7743 16C27.1888 16 28.2497 16.2119 28.9569 16.6356C29.6856 17.0401 30.0499 17.5602 30.0499 18.1958C30.0499 18.4295 30.0003 18.6805 29.9018 18.9146C29.6438 19.5274 28.8708 19.4843 28.2387 19.278C28.1252 19.241 28.011 19.2077 27.896 19.1782C27.4674 19.0433 26.9423 18.9759 26.3208 18.9759C25.1635 18.9759 24.2848 19.236 23.6847 19.756C23.106 20.2761 22.8167 21.114 22.8167 22.2697C22.8167 22.5008 22.8167 22.7512 22.8167 23.0209C22.8381 23.2905 22.8595 23.5795 22.881 23.8876H27.1748C27.7192 23.8876 28.2535 24.1743 28.3937 24.7004C28.4447 24.8916 28.4747 25.0854 28.4747 25.2745C28.4747 25.8138 28.3461 26.199 28.0889 26.4302C27.8317 26.6421 27.4888 26.748 27.0602 26.748H23.2025C23.2239 26.9021 23.2346 27.0562 23.2346 27.2103C23.2346 27.3451 23.2346 27.4703 23.2346 27.5859C23.2346 29.1075 22.7845 30.2825 21.8844 31.1108H29.1386C29.7451 31.1108 30.3438 31.4232 30.453 32.0198C30.4843 32.1908 30.5 32.3622 30.5 32.5265C30.5 33.0273 30.3714 33.4029 30.1142 33.6533C29.857 33.8844 29.5141 34 29.0855 34H18.316C17.8231 34 17.3944 33.8459 17.0301 33.5377C16.8173 33.3345 16.6713 33.0737 16.5873 32.7934C16.397 32.159 16.9321 31.6251 17.4949 31.2758C17.9559 30.9897 18.326 30.6554 18.6053 30.2729C19.0554 29.6565 19.2804 28.7416 19.2804 27.5281Z"/></svg>