<!-- Copyright © Ewsgit 2022. -->
<!-- Licensed under the MIT License - https://ewsgit.github.io/devdash/copyright -->

<svg width="48" height="48" viewBox="0 0 48 48" fill="none" xmlns="http://www.w3.org/2000/svg">
<path d="M8.16135 17.3668C7.85074 15.5179 8.86183 13.928 10.6331 13.3134C12.5138 12.6608 15.589 11.6986 20.523 10.3765C25.4569 9.05448 28.6013 8.35016 30.5563 7.97498C32.3975 7.62163 34.0681 8.49295 34.7236 10.2495C35.2282 11.6019 35.8742 13.5761 36.6341 16.4123C37.3941 19.2485 37.8218 21.2812 38.061 22.7048C38.3716 24.5537 37.3605 26.1436 35.5892 26.7582C33.7085 27.4108 30.6333 28.373 25.6993 29.695C20.7654 31.0171 17.6211 31.7214 15.666 32.0966C13.8248 32.45 12.1542 31.5786 11.4987 29.8221C10.9941 28.4697 10.3482 26.4955 9.58819 23.6593C8.82823 20.823 8.4005 18.7904 8.16135 17.3668Z" fill="#576684"/>
<path d="M4.50511 15.9543C4.71553 14.0775 6.08089 12.7344 7.95952 12.5411C10.515 12.2782 15.0883 12 23 12C30.9117 12 35.485 12.2782 38.0405 12.5411C39.9191 12.7344 41.2845 14.0775 41.4949 15.9543C41.7466 18.199 42 21.9592 42 28C42 34.0408 41.7466 37.801 41.4949 40.0457C41.2845 41.9225 39.9191 43.2656 38.0405 43.4589C35.485 43.7218 30.9117 44 23 44C15.0883 44 10.515 43.7218 7.95951 43.4589C6.08089 43.2656 4.71553 41.9225 4.50511 40.0457C4.25342 37.801 4 34.0408 4 28C4 21.9592 4.25342 18.199 4.50511 15.9543Z" fill="#ACB4C9"/>
<path d="M30.0517 25.3516C30.1343 23.465 31.4612 22.156 33.3476 22.0707C34.2715 22.0289 35.4652 22 37 22C38.5348 22 39.7285 22.0289 40.6524 22.0707C42.5388 22.156 43.8657 23.465 43.9483 25.3516C43.9795 26.0666 44 26.9396 44 28C44 29.0604 43.9795 29.9334 43.9483 30.6484C43.8657 32.535 42.5388 33.844 40.6524 33.9293C39.7285 33.9711 38.5348 34 37 34C35.4652 34 34.2715 33.9711 33.3476 33.9293C31.4612 33.844 30.1343 32.535 30.0517 30.6484C30.0205 29.9334 30 29.0604 30 28C30 26.9396 30.0205 26.0666 30.0517 25.3516Z" fill="#576684"/>
<path d="M38 28C38 29.1046 37.1046 30 36 30C34.8954 30 34 29.1046 34 28C34 26.8954 34.8954 26 36 26C37.1046 26 38 26.8954 38 28Z" fill="#ACB4C9"/>
</svg>