<!-- Copyright © Ewsgit 2022. -->
<!-- Licensed under the MIT License - https://ewsgit.github.io/devdash/copyright -->

<svg xmlns="http://www.w3.org/2000/svg" width="48" height="48" fill="none" viewBox="0 0 48 48"><path fill="#ACB4C9" d="M4.56198 39.315C4.73932 41.0322 5.86521 42.3915 7.55375 42.751C10.219 43.3184 15.2432 44 24 44C32.7568 44 37.781 43.3184 40.4463 42.751C42.1348 42.3915 43.2607 41.0322 43.438 39.315C43.701 36.7688 44 32.0939 44 24C44 15.9061 43.701 11.2312 43.438 8.68502C43.2607 6.96777 42.1348 5.60847 40.4462 5.24901C37.781 4.68162 32.7568 4 24 4C15.2432 4 10.219 4.68162 7.55375 5.24901C5.86521 5.60847 4.73932 6.96777 4.56198 8.68502C4.29904 11.2312 4 15.9061 4 24C4 32.0939 4.29904 36.7688 4.56198 39.315Z"/><path fill="#576684" fill-rule="evenodd" d="M4.2315 34.806C6.78095 32.2951 9.51524 29.906 11.6671 28.1031C12.2902 27.5811 12.8623 27.1099 13.3646 26.7011L16.8791 32.3243C17.3329 33.0504 18.1269 33.4938 18.9832 33.4992C19.8395 33.5047 20.639 33.0715 21.102 32.3512C23.2538 29.0039 25.6579 26.1163 27.534 24.0587C28.0008 23.5466 28.4333 23.0879 28.8189 22.6882L32.0785 26.5997C32.5496 27.1651 33.2459 27.4941 33.9817 27.4992C34.7176 27.5043 35.4183 27.185 35.8972 26.6263C38.8138 23.2236 41.7379 20.297 43.9413 18.2148C43.8838 15.5223 43.7886 13.3812 43.6814 11.6934C43.5708 11.7896 43.4485 11.8966 43.3152 12.014C42.6401 12.6088 41.681 13.4721 40.5325 14.5568C38.7266 16.2623 36.4426 18.5245 34.0532 21.1591L30.9196 17.3988C30.4832 16.8751 29.8518 16.5523 29.1717 16.5053C28.4916 16.4582 27.8218 16.6909 27.3174 17.1494L27.3161 17.1506L27.3143 17.1523L27.3092 17.1569C26.9703 17.4672 26.6406 17.7876 26.3135 18.1103C25.7006 18.715 24.8415 19.5906 23.8392 20.6899C22.4535 22.2096 20.7811 24.1714 19.1031 26.4488L16.1191 21.6743C15.7453 21.0763 15.1364 20.6639 14.4423 20.5389C13.7483 20.4139 13.033 20.5883 12.474 21.0183C12.0926 21.3125 11.715 21.6118 11.3385 21.9122C10.6302 22.4772 9.63004 23.2868 8.45603 24.2705C7.14845 25.366 5.6166 26.6845 4.02734 28.1267C4.06586 30.8124 4.14056 33.0132 4.2315 34.806Z" clip-rule="evenodd"/></svg>