<!-- Copyright © Ewsgit 2022. -->
<!-- Licensed under the MIT License - https://ewsgit.github.io/devdash/copyright -->

<svg xmlns="http://www.w3.org/2000/svg" width="49" height="48" fill="none" viewBox="0 0 49 48"><path fill="#576684" fill-rule="evenodd" d="M5.62411 2.72269C4.3481 2.84515 3.34517 3.84806 3.2227 5.12407C2.86253 8.87675 3.16402 12.3431 3.3613 13.9912C3.43735 14.6266 3.83931 15.1791 4.46381 15.3185C5.01453 15.4414 5.75152 15.515 6.54145 15.3391C7.16604 15.2 7.56526 14.6266 7.64312 13.9915C7.88294 12.0351 7.96121 9.7684 7.98675 8.49718C7.99785 7.945 8.44511 7.49774 8.99728 7.48665C10.2685 7.46111 12.5352 7.38285 14.4915 7.14307C15.1267 7.06522 15.7001 6.66599 15.8391 6.04139C16.015 5.25148 15.9415 4.5145 15.8185 3.96379C15.6791 3.33928 15.1266 2.93732 14.4913 2.86127C12.8431 2.66401 9.37681 2.36255 5.62411 2.72269ZM43.3759 2.72269C44.6519 2.84515 45.6548 3.84806 45.7773 5.12407C46.1374 8.87675 45.836 12.3431 45.6387 13.9912C45.5626 14.6266 45.1607 15.1791 44.5362 15.3185C43.9854 15.4414 43.2485 15.515 42.4585 15.3391C41.8339 15.2 41.4347 14.6266 41.3569 13.9915C41.117 12.0351 41.0388 9.7684 41.0132 8.49718C41.0021 7.945 40.5549 7.49774 40.0027 7.48665C38.7315 7.46111 36.4648 7.38285 34.5085 7.14307C33.8733 7.06522 33.2999 6.66599 33.1608 6.04139C32.985 5.25148 33.0585 4.5145 33.1814 3.96379C33.3209 3.33928 33.8734 2.93732 34.5087 2.86127C36.1569 2.66401 39.6232 2.36255 43.3759 2.72269ZM45.7773 42.8759C45.6548 44.1519 44.6519 45.1549 43.3759 45.2773C39.6232 45.6375 36.1569 45.336 34.5087 45.1387C33.8734 45.0627 33.3209 44.6607 33.1814 44.0362C33.0585 43.4855 32.985 42.7485 33.1608 41.9586C33.2999 41.334 33.8733 40.9348 34.5085 40.8569C36.4648 40.6172 38.7315 40.5389 40.0027 40.5134C40.5549 40.5023 41.0021 40.055 41.0132 39.5028C41.0388 38.2316 41.117 35.9649 41.3569 34.0085C41.4347 33.3734 41.8339 32.8 42.4585 32.6609C43.2485 32.485 43.9854 32.5586 44.5362 32.6815C45.1607 32.8209 45.5626 33.3734 45.6387 34.0088C45.836 35.6569 46.1374 39.1232 45.7773 42.8759ZM5.62411 45.2773C4.3481 45.1549 3.34517 44.1519 3.2227 42.8759C2.86253 39.1232 3.16402 35.6569 3.3613 34.0088C3.43735 33.3734 3.83931 32.8209 4.46381 32.6815C5.01453 32.5586 5.75152 32.485 6.54145 32.6609C7.16603 32.8 7.56526 33.3734 7.64312 34.0085C7.88294 35.9649 7.96121 38.2316 7.98675 39.5028C7.99785 40.055 8.44511 40.5023 8.99728 40.5134C10.2685 40.5389 12.5352 40.6172 14.4915 40.8569C15.1267 40.9348 15.7001 41.334 15.8391 41.9586C16.015 42.7485 15.9415 43.4855 15.8185 44.0362C15.6791 44.6607 15.1266 45.0627 14.4913 45.1387C12.8431 45.336 9.37681 45.6375 5.62411 45.2773Z" clip-rule="evenodd"/><path fill="#ACB4C9" fill-rule="evenodd" d="M25.5586 13.3512C25.6323 11.6264 26.7498 10.3072 28.4685 10.1446C29.3569 10.0605 30.5128 10 32 10C33.4872 10 34.6431 10.0605 35.5315 10.1446C37.2502 10.3072 38.3677 11.6264 38.4414 13.3512C38.476 14.1609 38.5 15.1934 38.5 16.5C38.5 17.8066 38.476 18.8391 38.4414 19.6488C38.3677 21.3736 37.2502 22.6928 35.5315 22.8554C34.6431 22.9395 33.4872 23 32 23C30.5128 23 29.3569 22.9395 28.4685 22.8554C26.7498 22.6928 25.6323 21.3736 25.5586 19.6488C25.524 18.8391 25.5 17.8066 25.5 16.5C25.5 15.1934 25.524 14.1609 25.5586 13.3512ZM13.4685 25.1446C11.7498 25.3072 10.6323 26.6264 10.5586 28.3512C10.524 29.1609 10.5 30.1934 10.5 31.5C10.5 32.8066 10.524 33.8391 10.5586 34.6488C10.6323 36.3736 11.7498 37.6928 13.4685 37.8554C14.3569 37.9395 15.5128 38 17 38C18.4872 38 19.6431 37.9395 20.5315 37.8554C22.2502 37.6928 23.3677 36.3736 23.4414 34.6488C23.476 33.8391 23.5 32.8066 23.5 31.5C23.5 30.1934 23.476 29.1609 23.4414 28.3512C23.3677 26.6264 22.2502 25.3072 20.5315 25.1446C19.6431 25.0605 18.4872 25 17 25C15.5128 25 14.3569 25.0605 13.4685 25.1446ZM35.5315 25.1446C37.2502 25.3072 38.3677 26.6264 38.4414 28.3512C38.476 29.1609 38.5 30.1934 38.5 31.5C38.5 32.8066 38.476 33.8391 38.4414 34.6488C38.3677 36.3736 37.2502 37.6928 35.5315 37.8554C34.6431 37.9395 33.4872 38 32 38C30.5128 38 29.3569 37.9395 28.4685 37.8554C26.7498 37.6928 25.6323 36.3736 25.5586 34.6488C25.524 33.8391 25.5 32.8066 25.5 31.5C25.5 30.1934 25.524 29.1609 25.5586 28.3512C25.6323 26.6264 26.7498 25.3072 28.4685 25.1446C29.3569 25.0605 30.5128 25 32 25C33.4872 25 34.6431 25.0605 35.5315 25.1446ZM20.5315 10.1446C22.2502 10.3072 23.3677 11.6264 23.4414 13.3512C23.476 14.1609 23.5 15.1934 23.5 16.5C23.5 17.8066 23.476 18.8391 23.4414 19.6488C23.3677 21.3736 22.2502 22.6928 20.5315 22.8554C19.6431 22.9395 18.4872 23 17 23C15.5128 23 14.3569 22.9395 13.4685 22.8554C11.7498 22.6928 10.6323 21.3736 10.5586 19.6488C10.524 18.8391 10.5 17.8066 10.5 16.5C10.5 15.1934 10.524 14.1609 10.5586 13.3512C10.6323 11.6264 11.7498 10.3072 13.4685 10.1446C14.3569 10.0605 15.5128 10 17 10C18.4872 10 19.6431 10.0605 20.5315 10.1446Z" clip-rule="evenodd"/></svg>