<!-- Copyright © Ewsgit 2022. -->
<!-- Licensed under the MIT License - https://ewsgit.github.io/devdash/copyright -->

<svg width="48" height="48" viewBox="0 0 48 48" fill="none" xmlns="http://www.w3.org/2000/svg">
<path fill-rule="evenodd" clip-rule="evenodd" d="M5.44936 3.46971C3.90137 3.58469 2.62426 4.48499 2.36667 6.01572C2.16646 7.20551 2 8.95883 2 11.5C2 14.0412 2.16646 15.7945 2.36667 16.9843C2.62426 18.515 3.90137 19.4153 5.44936 19.5303C5.86739 19.5613 6.34876 19.5937 6.90002 19.6263C7.03614 19.6344 7.14364 19.5125 7.13191 19.3766C7.05642 18.5022 7 17.2599 7 15.5C7 13.7401 7.05642 12.4978 7.13191 11.6234C7.24786 10.2803 8.23857 9.47678 9.58278 9.37458C11.8018 9.20587 16.1232 9 24 9C31.8768 9 36.1982 9.20587 38.4172 9.37458C39.7614 9.47678 40.7521 10.2803 40.8681 11.6234C40.9436 12.4978 41 13.7401 41 15.5C41 17.2599 40.9436 18.5022 40.8681 19.3766C40.8564 19.5125 40.9639 19.6344 41.1 19.6263C41.6512 19.5937 42.1326 19.5613 42.5506 19.5303C44.0986 19.4153 45.3757 18.515 45.6333 16.9843C45.8335 15.7945 46 14.0412 46 11.5C46 8.95883 45.8335 7.20551 45.6333 6.01572C45.3757 4.48499 44.0986 3.58469 42.5506 3.46971C39.7817 3.26405 34.234 3 24 3C13.766 3 8.21827 3.26405 5.44936 3.46971Z" fill="#576684"/>
<path fill-rule="evenodd" clip-rule="evenodd" d="M37.6512 12.0809C38.1546 12.1296 38.5376 12.5486 38.5437 13.0544C38.614 18.904 38.5907 27.4845 38.2211 38.4927C38.1315 41.1624 36.2549 43.3762 33.5947 43.6189C31.3519 43.8236 28.2002 44 23.9997 44C19.8227 44 16.7022 43.8255 14.4844 43.6223C11.8388 43.3799 9.97959 41.1781 9.89032 38.5228C9.51952 27.4935 9.4963 18.8989 9.56673 13.0437C9.57282 12.5375 9.95657 12.1182 10.4606 12.07C13.6652 11.7637 18.1291 11.5 23.9995 11.5C29.9391 11.5 34.4387 11.77 37.6512 12.0809Z" fill="#ACB4C9"/>
<path fill-rule="evenodd" clip-rule="evenodd" d="M31.0009 15C31.0009 18.866 27.8669 22 24.0009 22C20.1349 22 17.0009 18.866 17.0009 15C17.0009 13.7674 17.3195 12.6091 17.8788 11.6032C19.7196 11.5385 21.7574 11.5 24.0007 11.5C26.2442 11.5 28.2822 11.5385 30.123 11.6032C30.6823 12.6092 31.0009 13.7674 31.0009 15ZM38.4296 31.1019C32.5447 31.8716 28.0009 36.9052 28.0009 43C28.0009 43.3168 28.0132 43.6307 28.0373 43.9414C30.2991 43.8728 32.1392 43.7518 33.5959 43.6189C36.2561 43.3762 38.1327 41.1624 38.2224 38.4927C38.3097 35.8923 38.3776 33.4274 38.4296 31.1019ZM19.9645 43.9412C19.9886 43.6306 20.0009 43.3167 20.0009 43C20.0009 36.9437 15.5143 31.9352 9.68359 31.117C9.73574 33.4471 9.80395 35.917 9.89155 38.5228C9.98082 41.1781 11.84 43.3799 14.4857 43.6223C15.9203 43.7538 17.7327 43.8732 19.9645 43.9412Z" fill="#576684"/>
</svg>