<!-- Copyright © Ewsgit 2022. -->
<!-- Licensed under the MIT License - https://ewsgit.github.io/devdash/copyright -->

<svg xmlns="http://www.w3.org/2000/svg" width="48" height="48" fill="none" viewBox="0 0 48 48"><path fill="#ACB4C9" d="M4.56198 39.315C4.73932 41.0322 5.86521 42.3915 7.55375 42.751C10.219 43.3184 15.2432 44 24 44C32.7568 44 37.781 43.3184 40.4463 42.751C42.1348 42.3915 43.2607 41.0322 43.438 39.315C43.701 36.7688 44 32.0939 44 24C44 15.9061 43.701 11.2312 43.438 8.68502C43.2607 6.96777 42.1348 5.60847 40.4462 5.24901C37.781 4.68162 32.7568 4 24 4C15.2432 4 10.219 4.68162 7.55375 5.24901C5.86521 5.60847 4.73932 6.96777 4.56198 8.68502C4.29904 11.2312 4 15.9061 4 24C4 32.0939 4.29904 36.7688 4.56198 39.315Z"/><path fill="#576684" fill-rule="evenodd" d="M4.22897 34.7394C7.35656 31.5284 10.2322 28.9789 12.4083 27.1744C13.2069 26.5121 13.9103 25.951 14.4963 25.4951L14.4975 25.4967L14.5145 25.5194L14.5316 25.5422L14.5487 25.5649L14.5657 25.5876L14.5827 25.6104L14.5997 25.633L14.6168 25.6557L14.6337 25.6784L14.6507 25.701L14.6677 25.7236L14.6846 25.7462L14.7016 25.7688L14.7185 25.7914L14.7354 25.8139L14.7523 25.8365L14.7692 25.859L14.7861 25.8815L14.8029 25.904L14.8198 25.9264L14.8366 25.9489L14.8534 25.9713L14.8702 25.9937L14.887 26.0161L14.9038 26.0385L14.9206 26.0608L14.9373 26.0831L14.954 26.1054L14.9708 26.1277L14.9875 26.15L15.0041 26.1722L15.0208 26.1945L15.0375 26.2167L15.0541 26.2388L15.0707 26.261L15.0873 26.2831L15.1039 26.3053L15.1205 26.3274L15.137 26.3494L15.1536 26.3715L15.1701 26.3935L15.1866 26.4155L15.2031 26.4375L15.2196 26.4595L15.236 26.4814L15.2524 26.5033L15.2689 26.5252L15.2853 26.5471L15.3017 26.5689L15.318 26.5907L15.3344 26.6125L15.3507 26.6343L15.367 26.6561L15.3833 26.6778L15.3996 26.6995L15.4158 26.7211L15.4321 26.7428L15.4483 26.7644L15.4645 26.786L15.4806 26.8076L15.4968 26.8291L15.5129 26.8506L15.5291 26.8721L15.5452 26.8936L15.5612 26.915L15.5773 26.9365L15.5933 26.9578L15.6094 26.9792L15.6254 27.0005L15.6413 27.0218L15.6573 27.0431L15.6732 27.0644L15.6891 27.0856L15.705 27.1068L15.7209 27.1279L15.7368 27.1491L15.7526 27.1702L15.7684 27.1912L15.7842 27.2123L15.7999 27.2333L15.8157 27.2543L15.8314 27.2753L15.8471 27.2962L15.8628 27.3171L15.8784 27.338L15.8941 27.3588L15.9097 27.3796L15.9252 27.4004L15.9408 27.4211L15.9563 27.4418L15.9719 27.4625L15.9873 27.4832L16.0028 27.5038L16.0183 27.5244L16.0337 27.5449L16.0491 27.5655L16.0644 27.586L16.0798 27.6064L16.0951 27.6268L16.1104 27.6472L16.1257 27.6676L16.1409 27.6879L16.1561 27.7082L16.1713 27.7285L16.1865 27.7487L16.2016 27.7689L16.2168 27.7891L16.2319 27.8092L16.2469 27.8293L16.262 27.8493L16.277 27.8694L16.292 27.8893L16.3069 27.9093L16.3219 27.9292L16.3368 27.9491L16.3517 27.9689L16.3665 27.9887L16.3813 28.0085L16.3961 28.0282L16.4109 28.0479L16.4257 28.0676L16.4404 28.0872L16.4551 28.1068L16.4697 28.1264L16.4844 28.1459L16.499 28.1654L16.5136 28.1848L16.5281 28.2042L16.5426 28.2236L16.5571 28.2429L16.5716 28.2622L16.586 28.2814L16.6004 28.3006L16.6148 28.3198L16.6292 28.3389L16.6435 28.358L16.6578 28.3771L16.672 28.3961L16.6862 28.415L16.7004 28.434L16.7146 28.4529L16.7287 28.4717L16.7429 28.4905L16.7569 28.5093L16.771 28.528L16.785 28.5467L16.799 28.5654L16.8129 28.584L16.8269 28.6025L16.8407 28.621L16.8546 28.6395L16.8684 28.658L16.8822 28.6764L16.896 28.6947L16.9097 28.713L16.9234 28.7313L16.9371 28.7495L16.9507 28.7677L16.9643 28.7858L16.9779 28.8039L16.9914 28.822L17.0049 28.84L17.0184 28.8579L17.0318 28.8758L17.0452 28.8937L17.0586 28.9115L17.072 28.9293L17.0853 28.9471L17.0985 28.9648L17.1118 28.9824L17.125 29L17.1381 29.0176L17.1513 29.0351L17.1644 29.0525L17.1774 29.0699L17.1905 29.0873L17.2034 29.1046L17.2164 29.1219L17.2293 29.1391L17.2422 29.1563L17.2551 29.1735L17.2679 29.1905L17.2807 29.2076L17.2934 29.2246L17.3061 29.2415L17.3188 29.2584L17.3314 29.2753L17.344 29.2921L17.3566 29.3088L17.3691 29.3255L17.3816 29.3422L17.394 29.3588L17.4065 29.3753L17.4188 29.3918L17.4312 29.4083L17.4435 29.4247L17.4557 29.441L17.468 29.4573L17.4802 29.4736L17.4923 29.4898L17.5044 29.5059L17.5165 29.522L17.5285 29.5381L17.5405 29.5541L17.5525 29.57L17.5644 29.5859L17.5763 29.6018L17.5881 29.6175L17.5999 29.6333L17.6117 29.649L17.6234 29.6646L17.6351 29.6802L17.6467 29.6957L17.6583 29.7112L17.6699 29.7266L17.6814 29.742L17.6929 29.7573L17.7044 29.7725L17.7158 29.7877L17.7271 29.8029L17.7384 29.818L17.7497 29.833L17.761 29.848L17.7721 29.8629L17.7833 29.8778L17.7944 29.8926L17.8055 29.9074L17.8165 29.9221L17.8275 29.9367L17.8384 29.9513L17.8494 29.9659L17.8602 29.9803L17.871 29.9948L17.8818 30.0091L17.8925 30.0234L17.9032 30.0377L17.9139 30.0519L17.9245 30.066L17.935 30.0801L17.9456 30.0941L17.956 30.1081L17.9665 30.122L17.9769 30.1358L17.9872 30.1496L17.9975 30.1634L18.0077 30.177L18.018 30.1907L18.0281 30.2042L18.0382 30.2177L18.0483 30.2311L18.0583 30.2445L18.0683 30.2578L18.0783 30.2711L18.0882 30.2843L18.098 30.2974L18.1078 30.3105L18.1176 30.3235L18.1273 30.3364L18.137 30.3493L18.1466 30.3621L18.1561 30.3749L18.1657 30.3876L18.1752 30.4003L18.1846 30.4128L18.194 30.4254L18.2033 30.4378L18.2126 30.4502L18.2219 30.4625L18.2311 30.4748L18.2402 30.487L18.2493 30.4991L18.2584 30.5112L18.2674 30.5232L18.2763 30.5352L18.2852 30.547L18.2941 30.5589L18.3029 30.5706L18.3117 30.5823L18.3204 30.5939L18.3291 30.6055L18.3377 30.617L18.3463 30.6284L18.3548 30.6398L18.3633 30.6511L18.3717 30.6623L18.3801 30.6735L18.3884 30.6846L18.3967 30.6956L18.4049 30.7066L18.4131 30.7175L18.4212 30.7283L18.4293 30.7391L18.4373 30.7497L18.4452 30.7604L18.4532 30.7709L18.461 30.7814L18.4689 30.7919L18.4766 30.8022L18.4843 30.8125L18.492 30.8227L18.4996 30.8329L18.5072 30.843L18.5147 30.853L18.5221 30.8629L18.5295 30.8728L18.5369 30.8826L18.5442 30.8923L18.5515 30.902L18.5586 30.9116L18.5658 30.9211L18.5729 30.9306L18.5799 30.9399L18.5869 30.9492L18.5938 30.9585L18.6007 30.9677L18.6075 30.9767L18.6143 30.9858L18.621 30.9947L18.6277 31.0036L18.6343 31.0124L18.6408 31.0212L18.6473 31.0298L18.6538 31.0384L18.6602 31.0469L18.6665 31.0554L18.6728 31.0637L18.679 31.072L18.6852 31.0803L18.6913 31.0884L18.6973 31.0965L18.7033 31.1045L18.7093 31.1124L18.7152 31.1203L18.721 31.1281L18.7268 31.1358L18.7325 31.1434L18.7382 31.1509L18.7438 31.1584L18.7493 31.1658L18.7548 31.1731L18.7603 31.1804L18.7656 31.1876L18.771 31.1947L18.7762 31.2017L18.7814 31.2086L18.7866 31.2155L18.7917 31.2223L18.7967 31.229L18.8017 31.2356L18.8066 31.2422L18.8115 31.2487L18.8163 31.2551L18.821 31.2614L18.8257 31.2677L18.8303 31.2738L18.8349 31.2799L18.8394 31.2859L18.8439 31.2918L18.8482 31.2977L18.8526 31.3035L18.8568 31.3092L18.861 31.3148L18.8652 31.3203L18.8693 31.3258L18.8733 31.3311L18.8773 31.3364L18.8812 31.3416L18.885 31.3468L18.8888 31.3518L18.8926 31.3568L18.8962 31.3617L18.8998 31.3665L18.9034 31.3712L18.9069 31.3759L18.9103 31.3804L18.9136 31.3849L18.9169 31.3893L18.9202 31.3936L18.9233 31.3978L18.9264 31.402L18.9295 31.406L18.9325 31.41L18.9354 31.4139L18.9383 31.4177L18.9411 31.4215L18.9438 31.4251L18.9465 31.4287L18.9491 31.4321L18.9516 31.4355L18.9541 31.4388L18.9565 31.4421L18.9589 31.4452L18.9612 31.4483L18.9634 31.4512L18.9655 31.4541L18.9676 31.4569L18.9697 31.4596L18.9716 31.4622L18.9735 31.4648L18.9754 31.4672L18.9771 31.4696L18.9789 31.4719L18.9805 31.474L18.9821 31.4761L18.9836 31.4782L18.985 31.4801L18.9864 31.4819L18.9877 31.4837L18.989 31.4853L18.9902 31.4869L18.9913 31.4884L18.9923 31.4898L18.9933 31.4911L18.9942 31.4923L18.9951 31.4935L18.9958 31.4945L18.9966 31.4955L18.9972 31.4963L18.9978 31.4971L18.9983 31.4978L18.9987 31.4984L18.9991 31.4989L18.9994 31.4993L18.9997 31.4996L18.9998 31.4998L18.9999 31.5L21 30L19 31.5C19.4523 32.1031 20.1525 32.4698 20.9058 32.4982C21.6591 32.5266 22.385 32.2136 22.8814 31.6463C26.3279 27.7074 29.0195 25.0181 30.8308 23.3276C31.7364 22.4824 32.4221 21.8867 32.8721 21.5092C33.0082 21.3951 33.1227 21.301 33.2153 21.2259C33.1826 22.2746 33.1642 23.459 33.1825 24.6492C33.2012 25.8669 33.8894 26.9785 35.1072 26.9991C35.1776 27.0003 35.2501 27.0003 35.3248 26.9991C35.5628 26.9953 35.7817 26.9774 35.9812 26.9501C37.0155 26.8085 37.6157 25.854 37.7381 24.8173C38.2057 20.8591 37.9541 17.4685 37.6998 15.4826C37.5522 14.3306 36.6694 13.4477 35.5174 13.3002C33.5315 13.0458 30.1409 12.7942 26.1826 13.2618C25.1459 13.3843 24.1915 13.9845 24.0499 15.0187C24.0226 15.2183 24.0046 15.4372 24.0008 15.6751C23.9996 15.7499 23.9997 15.8224 24.0009 15.8928C24.0215 17.1105 25.133 17.7988 26.3508 17.8175C27.4473 17.8344 28.5388 17.82 29.5239 17.7921C29.013 18.2246 28.3074 18.8434 27.4192 19.6724C25.8697 21.1186 23.7646 23.2044 21.1677 26.0569L21.1644 26.0525L21.1513 26.0351L21.1381 26.0176L21.125 26L21.1118 25.9824L21.0985 25.9648L21.0853 25.9471L21.072 25.9293L21.0586 25.9115L21.0452 25.8937L21.0318 25.8758L21.0184 25.8579L21.0049 25.84L20.9914 25.822L20.9779 25.8039L20.9643 25.7858L20.9507 25.7677L20.9371 25.7495L20.9234 25.7313L20.9097 25.713L20.896 25.6947L20.8822 25.6764L20.8684 25.658L20.8546 25.6395L20.8407 25.621L20.8269 25.6025L20.8129 25.584L20.799 25.5654L20.785 25.5467L20.771 25.528L20.7569 25.5093L20.7429 25.4905L20.7287 25.4717L20.7146 25.4529L20.7004 25.434L20.6862 25.415L20.672 25.3961L20.6578 25.3771L20.6435 25.358L20.6292 25.3389L20.6148 25.3198L20.6004 25.3006L20.586 25.2814L20.5716 25.2622L20.5571 25.2429L20.5426 25.2236L20.5281 25.2042L20.5136 25.1848L20.499 25.1654L20.4844 25.1459L20.4697 25.1264L20.4551 25.1068L20.4404 25.0872L20.4257 25.0676L20.4109 25.0479L20.3961 25.0282L20.3813 25.0085L20.3665 24.9887L20.3517 24.9689L20.3368 24.9491L20.3219 24.9292L20.3069 24.9093L20.292 24.8893L20.277 24.8694L20.262 24.8493L20.2469 24.8293L20.2319 24.8092L20.2168 24.7891L20.2016 24.7689L20.1865 24.7487L20.1713 24.7285L20.1561 24.7082L20.1409 24.6879L20.1257 24.6676L20.1104 24.6472L20.0951 24.6268L20.0798 24.6064L20.0644 24.586L20.0491 24.5655L20.0337 24.5449L20.0183 24.5244L20.0028 24.5038L19.9873 24.4832L19.9719 24.4625L19.9563 24.4418L19.9408 24.4211L19.9252 24.4004L19.9097 24.3796L19.8941 24.3588L19.8784 24.338L19.8628 24.3171L19.8471 24.2962L19.8314 24.2753L19.8157 24.2543L19.7999 24.2333L19.7842 24.2123L19.7684 24.1912L19.7526 24.1702L19.7368 24.1491L19.7209 24.1279L19.705 24.1068L19.6891 24.0856L19.6732 24.0644L19.6573 24.0431L19.6413 24.0218L19.6254 24.0005L19.6094 23.9792L19.5933 23.9578L19.5773 23.9365L19.5612 23.915L19.5452 23.8936L19.5291 23.8721L19.5129 23.8506L19.4968 23.8291L19.4806 23.8076L19.4645 23.786L19.4483 23.7644L19.4321 23.7428L19.4158 23.7211L19.3996 23.6995L19.3833 23.6778L19.367 23.6561L19.3507 23.6343L19.3344 23.6125L19.318 23.5907L19.3017 23.5689L19.2853 23.5471L19.2689 23.5252L19.2524 23.5033L19.236 23.4814L19.2196 23.4595L19.2031 23.4375L19.1866 23.4155L19.1701 23.3935L19.1536 23.3715L19.137 23.3494L19.1205 23.3274L19.1039 23.3053L19.0873 23.2831L19.0707 23.261L19.0541 23.2388L19.0375 23.2167L19.0208 23.1945L19.0041 23.1722L18.9875 23.15L18.9708 23.1277L18.954 23.1054L18.9373 23.0831L18.9206 23.0608L18.9038 23.0385L18.887 23.0161L18.8702 22.9937L18.8534 22.9713L18.8366 22.9489L18.8198 22.9264L18.8029 22.904L18.7861 22.8815L18.7692 22.859L18.7523 22.8365L18.7354 22.8139L18.7185 22.7914L18.7016 22.7688L18.6846 22.7462L18.6677 22.7236L18.6507 22.701L18.6337 22.6784L18.6168 22.6557L18.5997 22.633L18.5827 22.6104L18.5657 22.5876L18.5487 22.5649L18.5316 22.5422L18.5145 22.5194L18.4975 22.4967L18.4804 22.4739L18.4633 22.4511L18.4462 22.4283L18.429 22.4054L18.4119 22.3826L18.3948 22.3597L18.3776 22.3369L18.3605 22.314L18.3433 22.2911L18.3261 22.2682L18.3089 22.2452L18.2917 22.2223L18.2745 22.1993L18.2572 22.1764L18.24 22.1534L18.2228 22.1304L18.2055 22.1074L18.1882 22.0844L18.171 22.0613L18.1537 22.0383L18.1364 22.0153L18.1191 21.9922L18.1018 21.9691L18.0845 21.946L18.0672 21.9229L18.0498 21.8998L18.0325 21.8767L18.0151 21.8536L17.9978 21.8304L17.9804 21.8073L17.963 21.7841L17.9457 21.7609L17.9283 21.7378L17.9109 21.7146L17.8935 21.6914L17.8761 21.6681L17.8587 21.6449L17.8412 21.6217L17.8238 21.5985L17.8064 21.5752L17.7889 21.552L17.7715 21.5287L17.754 21.5054L17.7366 21.4822L17.7191 21.4589L17.7017 21.4356L17.6842 21.4123L17.6667 21.389L17.6492 21.3657L17.6317 21.3424L17.6142 21.319L17.5967 21.2957L17.5792 21.2724L17.5617 21.249L17.5442 21.2257L17.5267 21.2023L17.5092 21.179L17.4917 21.1556L17.4741 21.1322L17.4566 21.1089L17.4391 21.0855L17.4215 21.0621L17.404 21.0387L17.3864 21.0153L17.3689 20.9919L17.3513 20.9685L17.3338 20.9451L17.3162 20.9217L17.2987 20.8983L17.2811 20.8749L17.2636 20.8515L17.246 20.828L17.2284 20.8046L17.2109 20.7812L17.1933 20.7578L17.1757 20.7343L17.1581 20.7109L17.1406 20.6875L17.123 20.6641L17.1054 20.6406L17.0879 20.6172L17.0703 20.5937L17.0527 20.5703L17.0351 20.5469L17.0175 20.5234L17 20.5C16.1937 19.425 14.6818 19.1796 13.5769 19.9445L15 22C13.5769 19.9445 13.5766 19.9447 13.5763 19.945L13.5755 19.9455L13.5734 19.947L13.5675 19.9511L13.5486 19.9643L13.483 20.0104C13.4271 20.0498 13.3471 20.1068 13.2442 20.1809C13.0384 20.3292 12.7413 20.5465 12.3637 20.8307C11.6086 21.3991 10.5307 22.2359 9.21662 23.3256C7.74456 24.5463 5.97322 26.0869 4.02539 27.9253C4.06255 30.6692 4.13731 32.914 4.22897 34.7394ZM31.0519 17.7361L31.052 17.7361L32 19L31.0519 17.7361Z" clip-rule="evenodd"/></svg>