<!-- Copyright © Ewsgit 2022. -->
<!-- Licensed under the MIT License - https://ewsgit.github.io/devdash/copyright -->

<svg xmlns="http://www.w3.org/2000/svg" width="48" height="48" fill="none" viewBox="0 0 48 48"><path fill="#576684" d="M38.8301 43.9375C39.4552 43.8859 39.8848 43.428 39.9272 42.8022C39.9662 42.2273 40 41.3416 40 40C40 38.6584 39.9662 37.7727 39.9272 37.1978C39.8848 36.572 39.4552 36.1141 38.8301 36.0625C38.4047 36.0274 37.8124 36 37 36C36.1876 36 35.5953 36.0274 35.1699 36.0625C34.5448 36.1141 34.1152 36.572 34.0728 37.1978C34.0338 37.7727 34 38.6584 34 40C34 41.3416 34.0338 42.2273 34.0728 42.8022C34.1152 43.428 34.5448 43.8859 35.1699 43.9375C35.5953 43.9726 36.1876 44 37 44C37.8124 44 38.4047 43.9726 38.8301 43.9375Z"/><path fill="#576684" d="M12.8301 43.9375C13.4552 43.8859 13.8848 43.428 13.9272 42.8022C13.9662 42.2273 14 41.3416 14 40C14 38.6584 13.9662 37.7727 13.9272 37.1978C13.8848 36.572 13.4552 36.1141 12.8301 36.0625C12.4047 36.0274 11.8124 36 11 36C10.1876 36 9.59526 36.0274 9.1699 36.0625C8.54477 36.1141 8.11515 36.572 8.07277 37.1978C8.03384 37.7727 8 38.6584 8 40C8 41.3416 8.03384 42.2273 8.07277 42.8022C8.11515 43.428 8.54477 43.8859 9.1699 43.9375C9.59526 43.9726 10.1876 44 11 44C11.8124 44 12.4047 43.9726 12.8301 43.9375Z"/><path fill="#ACB4C9" d="M4.54553 37.3957C4.72831 39.127 5.88149 40.4772 7.58826 40.8204C10.2623 41.358 15.2808 42 24 42C32.7192 42 37.7377 41.358 40.4117 40.8204C42.1185 40.4772 43.2717 39.127 43.4545 37.3957C43.7133 34.9442 44 30.5293 44 23C44 15.4707 43.7133 11.0558 43.4545 8.60432C43.2717 6.87302 42.1185 5.52275 40.4117 5.1796C37.7377 4.64198 32.7192 4 24 4C15.2808 4 10.2623 4.64198 7.58826 5.1796C5.88149 5.52275 4.72831 6.87303 4.54553 8.60432C4.28673 11.0558 4 15.4707 4 23C4 30.5293 4.28673 34.9442 4.54553 37.3957Z"/><path fill="#576684" d="M8.37819 12.2169C8.54083 10.4802 9.70182 9.13303 11.4193 8.82836C13.6696 8.42915 17.5814 8 24 8C30.4186 8 34.3304 8.42915 36.5807 8.82836C38.2982 9.13303 39.4592 10.4802 39.6218 12.2169C39.8114 14.241 40 17.6095 40 23C40 28.3905 39.8114 31.759 39.6218 33.7831C39.4592 35.5198 38.2982 36.867 36.5807 37.1716C34.3304 37.5709 30.4186 38 24 38C17.5814 38 13.6696 37.5709 11.4193 37.1716C9.70182 36.867 8.54083 35.5198 8.37819 33.7831C8.18864 31.759 8 28.3905 8 23C8 17.6095 8.18864 14.241 8.37819 12.2169Z"/><circle cx="24" cy="23" r="8" fill="#ACB4C9"/><circle cx="24" cy="23" r="4" fill="#576684"/><path fill="#576684" d="M41.9647 15.1467C41.9264 14.5184 41.4787 14.0806 40.8503 14.044C40.4247 14.0191 39.8282 14 39 14C38.1718 14 37.5753 14.0191 37.1497 14.044C36.5213 14.0806 36.0736 14.5184 36.0353 15.1467C36.0148 15.484 36 15.9261 36 16.5C36 17.0739 36.0148 17.516 36.0353 17.8533C36.0736 18.4816 36.5213 18.9194 37.1497 18.956C37.5753 18.9809 38.1718 19 39 19C39.8282 19 40.4247 18.9809 40.8503 18.956C41.4787 18.9194 41.9264 18.4816 41.9647 17.8533C41.9852 17.516 42 17.0739 42 16.5C42 15.9261 41.9852 15.484 41.9647 15.1467Z"/><path fill="#576684" d="M41.9647 30.8533C41.9264 31.4816 41.4787 31.9194 40.8503 31.956C40.4247 31.9809 39.8282 32 39 32C38.1718 32 37.5753 31.9809 37.1497 31.956C36.5213 31.9194 36.0736 31.4816 36.0353 30.8533C36.0148 30.516 36 30.0739 36 29.5C36 28.9261 36.0148 28.484 36.0353 28.1467C36.0736 27.5184 36.5213 27.0806 37.1497 27.044C37.5753 27.0191 38.1718 27 39 27C39.8282 27 40.4247 27.0191 40.8503 27.044C41.4787 27.0806 41.9264 27.5184 41.9647 28.1467C41.9852 28.484 42 28.9261 42 29.5C42 30.0739 41.9852 30.516 41.9647 30.8533Z"/></svg>