<!-- Copyright © Ewsgit 2022. -->
<!-- Licensed under the MIT License - https://ewsgit.github.io/devdash/copyright -->

<svg xmlns="http://www.w3.org/2000/svg" width="48" height="48" fill="none" viewBox="0 0 48 48"><path fill="#ACB4C9" d="M14 5.71429C14 4.76751 14.7675 4 15.7143 4H32.2857C33.2325 4 34 4.76751 34 5.71429V6C34 11.5228 29.5228 16 24 16C18.4772 16 14 11.5228 14 6V5.71429Z"/><path fill="#ACB4C9" d="M42 32C42 40.8366 33.9411 44 24 44C14.0589 44 6 40.8366 6 32C6 23.1634 14.0589 12 24 12C33.9411 12 42 23.1634 42 32Z"/><path fill="#576684" fill-rule="evenodd" d="M16.3798 29.8857C16.4871 30.3842 17.0152 30.6032 17.5252 30.6032H21.7266L21.9728 31.1217V32.0794V32.4113H17.4792C17.1499 32.4113 16.8755 32.5032 16.656 32.6871C16.4364 32.871 16.3267 33.2081 16.3267 33.6984C16.3267 33.905 16.3452 34.0945 16.3821 34.2667C16.4892 34.7654 17.0152 34.9855 17.5252 34.9855H21.9574V37.1613C21.9574 37.8151 22.133 38.2849 22.4843 38.571C22.8355 38.857 23.4173 39 24.2295 39C24.4201 39 24.6111 38.9917 24.8017 38.9762C25.6127 38.9103 26.1723 38.179 26.1723 37.3653V34.9855H30.5847C30.9139 34.9855 31.1884 34.8833 31.4079 34.679C31.6493 34.4747 31.7701 34.1479 31.7701 33.6984C31.7701 33.5508 31.7522 33.3994 31.7205 33.2488C31.6067 32.7083 31.0633 32.4113 30.511 32.4113H26.1772V32.0794V31.1217L26.4403 30.6032H30.5847C30.9359 30.6032 31.2213 30.5011 31.4408 30.2968C31.6823 30.0925 31.803 29.7758 31.803 29.3468C31.803 29.2043 31.7862 29.0608 31.757 28.9181C31.6411 28.3519 31.0728 28.029 30.4949 28.029H28.3455C29.5529 26.1903 30.4639 24.75 31.0786 23.7081C31.6933 22.6457 32.0006 21.9409 32.0006 21.5935C32.0006 21.1032 31.825 20.7151 31.4737 20.429C31.1225 20.143 30.6615 20 30.0907 20C29.8817 20 29.6786 20.0118 29.4812 20.0353C28.6081 20.1393 27.9598 20.8205 27.5537 21.6004C27.4032 21.8894 27.261 22.1629 27.1272 22.421C26.8199 23.0134 26.5235 23.5957 26.2381 24.1677C25.9527 24.7194 25.6454 25.2812 25.3161 25.8532C25.0088 26.4048 24.6576 27.028 24.2624 27.7226H24.0648L20.4427 21.7468C20.0476 21.093 19.6744 20.6435 19.3232 20.3984C18.9719 20.1328 18.478 20 17.8414 20C17.3817 20 16.9564 20.1145 16.5819 20.3165C15.925 20.6708 15.8616 21.5301 16.214 22.1881C16.5692 22.8515 16.991 23.5727 17.4792 24.3516C18.2475 25.5774 19.0488 26.8032 19.8829 28.029H17.4792C17.1499 28.029 16.8755 28.1312 16.656 28.3355C16.4364 28.5398 16.3267 28.8769 16.3267 29.3468C16.3267 29.5415 16.3444 29.7211 16.3798 29.8857Z" clip-rule="evenodd"/></svg>