<!-- Copyright © Ewsgit 2022. -->
<!-- Licensed under the MIT License - https://ewsgit.github.io/devdash/copyright -->

<svg xmlns="http://www.w3.org/2000/svg" width="48" height="48" fill="none" viewBox="0 0 48 48"><path fill="#ACB4C9" d="M14 5.71429C14 4.76751 14.7675 4 15.7143 4H32.2857C33.2325 4 34 4.76751 34 5.71429V6C34 11.5228 29.5228 16 24 16C18.4772 16 14 11.5228 14 6V5.71429Z"/><path fill="#ACB4C9" d="M42 32C42 40.8366 33.9411 44 24 44C14.0589 44 6 40.8366 6 32C6 23.1634 14.0589 12 24 12C33.9411 12 42 23.1634 42 32Z"/><path fill="#576684" fill-rule="evenodd" d="M15.5838 27.4221C15.7038 27.7965 16.1268 27.9214 16.52 27.9214H24.6194C24.6194 29.1157 24.2409 30.0114 23.4838 30.6086C22.7497 31.2057 21.6599 31.5043 20.2146 31.5043H18.3563C17.8057 31.7938 17.5304 32.201 17.5304 32.7257C17.5304 32.9429 17.5877 33.1871 17.7024 33.4586L24.3441 38.86C24.78 39.2219 25.1815 39.5024 25.5486 39.7014C25.9157 39.9005 26.3171 40 26.753 40C27.4413 40 27.969 39.819 28.336 39.4571C28.458 39.344 28.562 39.2202 28.6481 39.0858C29.0167 38.5101 28.6153 37.8097 28.0536 37.42L22.3826 33.4857C24.3785 33.3952 25.9501 32.8705 27.0972 31.9114C28.2443 30.9343 28.8178 29.6043 28.8178 27.9214H31.1923C31.5594 27.9214 31.8691 27.831 32.1215 27.65C32.3738 27.451 32.5 27.1433 32.5 26.7271C32.5 26.5508 32.4611 26.3728 32.3982 26.1988C32.2527 25.7961 31.8276 25.5871 31.3994 25.5871H28.7478C28.6181 24.7258 28.309 23.9749 27.8206 23.3343H31.1923C31.5594 23.3343 31.8691 23.2438 32.1215 23.0629C32.3738 22.8819 32.5 22.5652 32.5 22.1129C32.5 21.9151 32.458 21.7017 32.3791 21.4983C32.2461 21.1552 31.8748 21 31.5069 21H16.7733C16.4062 21 16.0965 21.0995 15.8441 21.2986C15.6147 21.4795 15.5 21.7781 15.5 22.1943C15.5 22.3742 15.5166 22.5608 15.5657 22.7403C15.6839 23.1719 16.1623 23.3343 16.6098 23.3343H22.5154C22.8876 23.4739 23.2105 23.6549 23.4841 23.8774C24.0182 24.2987 24.3639 24.8686 24.5212 25.5871H16.7733C16.4062 25.5871 16.0965 25.6867 15.8441 25.8857C15.6147 26.0667 15.5 26.3743 15.5 26.8086C15.5 26.9978 15.5181 27.2169 15.5838 27.4221Z" clip-rule="evenodd"/></svg>