<!-- Copyright © Ewsgit 2022. -->
<!-- Licensed under the MIT License - https://ewsgit.github.io/devdash/copyright -->

<svg width="49" height="48" viewBox="0 0 49 48" fill="none" xmlns="http://www.w3.org/2000/svg">
<path fill-rule="evenodd" clip-rule="evenodd" d="M34.6284 4.17191C34.8696 4.18629 36.9133 4.41337 40.4999 7.99998C44.1181 11.6182 44.3141 13.5854 44.3248 13.7879C44.3249 13.7924 44.3251 13.797 44.3253 13.8016C44.3254 13.8041 44.3254 13.8053 44.3254 13.8053L44.3255 13.8052C44.4293 16.4095 44.5 19.7451 44.5 24C44.5 33.2895 44.1629 39.2081 43.8802 42.5387C43.7495 44.0781 42.0071 44.756 40.8203 43.7669L37.5 41L34.7658 43.7342C34.0452 44.4548 32.898 44.5184 32.1022 43.8817L28.5 41L25.9142 43.5858C25.1332 44.3668 23.8668 44.3668 23.0858 43.5858L20.5 41L16.8978 43.8817C16.102 44.5184 14.9548 44.4548 14.2342 43.7342L11.5 41L8.1797 43.7669C6.99285 44.756 5.25053 44.0781 5.11984 42.5387C4.83709 39.2081 4.5 33.2895 4.5 24C4.5 15.4507 4.78551 10.6131 5.05141 7.96144C5.23985 6.08233 6.58233 4.73985 8.46144 4.55141C11.1131 4.28551 15.9507 4 24.5 4C28.7189 4 32.0339 4.06953 34.6284 4.17191Z" fill="#ACB4C9"/>
<path d="M44.3255 13.8062C43.4504 13.9139 42.2134 14.0009 40.5 14.0009C39.241 14.0009 38.2393 13.9539 37.4493 13.8863C35.7292 13.739 34.6117 12.4239 34.5456 10.6988C34.5183 9.98491 34.5 9.09751 34.5 8.00091C34.5 6.22796 34.5478 5.00184 34.6043 4.17188C34.6043 4.17188 36.6745 4.17545 40.5 8.00091C44.3255 11.8264 44.3255 13.8062 44.3255 13.8062Z" fill="#576684"/>
<path fill-rule="evenodd" clip-rule="evenodd" d="M20.8876 16.4773V14.9272C20.8876 14.4747 21.1913 14.0676 21.6416 14.0225C21.7892 14.0077 21.9366 14 22.0813 14C22.607 14 22.9836 14.0991 23.2109 14.2972C23.4525 14.4953 23.5733 14.8535 23.5733 15.3717V16.2478C23.9032 16.2362 24.2382 16.2305 24.5782 16.2305C24.8473 16.2305 25.1093 16.2355 25.3642 16.2454V14.9272C25.3642 14.4747 25.6678 14.0676 26.1181 14.0225C26.2657 14.0077 26.4131 14 26.5578 14C27.0835 14 27.4601 14.0991 27.6875 14.2972C27.929 14.4953 28.0498 14.8535 28.0498 15.3717V16.5959C28.7847 16.7778 29.4231 17.0277 29.965 17.3455C31.2325 18.0711 31.8663 19.2038 31.8663 20.7435C31.8663 21.5399 31.6358 22.2301 31.1749 22.8142C30.7332 23.3982 30.061 23.8672 29.1584 24.2212C30.2723 24.5575 31.1077 25.0619 31.6646 25.7344C32.2215 26.4069 32.5 27.2033 32.5 28.1236C32.5 29.805 31.8374 31.0527 30.5123 31.8668C29.8433 32.2779 29.0224 32.5851 28.0498 32.7887V35.0834C28.0498 35.4992 27.7922 35.8789 27.3824 35.9493C27.1964 35.9813 27.0126 36 26.8562 36C26.3304 36 25.9468 35.8603 25.7052 35.5808C25.4778 35.3014 25.3642 34.7963 25.3642 34.0654V33.0796C25.1639 33.0852 24.9595 33.088 24.751 33.088C24.3871 33.088 23.9945 33.0792 23.5733 33.0616V35.0834C23.5733 35.4992 23.3157 35.8789 22.9059 35.9493C22.7199 35.9813 22.536 36 22.3797 36C21.8539 36 21.4702 35.8603 21.2287 35.5808C21.0013 35.3014 20.8876 34.7963 20.8876 34.0654V32.7386C20.5314 32.6734 20.1964 32.5952 19.8827 32.5039C18.9609 32.2208 18.5 31.6987 18.5 30.9376V17.956C18.5 17.6198 18.596 17.3632 18.7881 17.1862C18.9801 17.0092 19.249 16.8676 19.5947 16.7614C19.9874 16.6443 20.4184 16.5496 20.8876 16.4773ZM27.8621 26.3184C28.4191 26.7255 28.6975 27.283 28.6975 27.9909C28.6975 28.8227 28.3615 29.4333 27.6893 29.8227C27.0364 30.1943 26.1241 30.3801 24.9527 30.3801C24.4534 30.3801 23.9444 30.3624 23.4259 30.3271C22.9266 30.2917 22.4945 30.2297 22.1296 30.1412V25.7078H25.5C26.537 25.7078 27.3244 25.9114 27.8621 26.3184ZM25.0391 23.1858H22.1296V19.071C22.4369 19.0179 22.8018 18.9737 23.2243 18.9383C23.666 18.9029 24.1269 18.8852 24.607 18.8852C26.9499 18.8852 28.1214 19.5843 28.1214 20.9824C28.1214 21.6727 27.8621 22.2124 27.3436 22.6018C26.8443 22.9912 26.0761 23.1858 25.0391 23.1858Z" fill="#576684"/>
</svg>