<!-- Copyright © Ewsgit 2022. -->
<!-- Licensed under the MIT License - https://ewsgit.github.io/devdash/copyright -->

<svg width="49" height="48" viewBox="0 0 49 48" fill="none" xmlns="http://www.w3.org/2000/svg">
<path d="M5.06198 8.68502C5.23932 6.96777 6.36521 5.60848 8.05375 5.24901C10.719 4.68162 15.7432 4 24.5 4C33.2568 4 38.281 4.68162 40.9463 5.24901C42.6348 5.60848 43.7607 6.96778 43.938 8.68502C44.201 11.2312 44.5 15.9061 44.5 24C44.5 32.0939 44.201 36.7688 43.938 39.315C43.7607 41.0322 42.6348 42.3915 40.9462 42.751C38.281 43.3184 33.2568 44 24.5 44C15.7432 44 10.719 43.3184 8.05375 42.751C6.36521 42.3915 5.23932 41.0322 5.06198 39.315C4.79904 36.7688 4.5 32.0939 4.5 24C4.5 15.9061 4.79904 11.2312 5.06198 8.68502Z" fill="#ACB4C9"/>
<path d="M10.5 14C10.5 11.7909 12.2909 10 14.5 10H34.5C36.7091 10 38.5 11.7909 38.5 14C38.5 16.2091 36.7091 18 34.5 18H14.5C12.2909 18 10.5 16.2091 10.5 14Z" fill="#576684"/>
<path d="M17.5 25C17.5 26.6569 16.1569 28 14.5 28C12.8431 28 11.5 26.6569 11.5 25C11.5 23.3431 12.8431 22 14.5 22C16.1569 22 17.5 23.3431 17.5 25Z" fill="#576684"/>
<path d="M27.5 25C27.5 26.6569 26.1569 28 24.5 28C22.8431 28 21.5 26.6569 21.5 25C21.5 23.3431 22.8431 22 24.5 22C26.1569 22 27.5 23.3431 27.5 25Z" fill="#576684"/>
<path d="M37.5 25C37.5 26.6569 36.1569 28 34.5 28C32.8431 28 31.5 26.6569 31.5 25C31.5 23.3431 32.8431 22 34.5 22C36.1569 22 37.5 23.3431 37.5 25Z" fill="#576684"/>
<path d="M27.5 35C27.5 36.6569 26.1569 38 24.5 38C22.8431 38 21.5 36.6569 21.5 35C21.5 33.3431 22.8431 32 24.5 32C26.1569 32 27.5 33.3431 27.5 35Z" fill="#576684"/>
<path d="M17.5 35C17.5 36.6569 16.1569 38 14.5 38C12.8431 38 11.5 36.6569 11.5 35C11.5 33.3431 12.8431 32 14.5 32C16.1569 32 17.5 33.3431 17.5 35Z" fill="#576684"/>
<path d="M37.5 35C37.5 36.6569 36.1569 38 34.5 38C32.8431 38 31.5 36.6569 31.5 35C31.5 33.3431 32.8431 32 34.5 32C36.1569 32 37.5 33.3431 37.5 35Z" fill="#576684"/>
</svg>