<!-- Copyright © Ewsgit 2022. -->
<!-- Licensed under the MIT License - https://ewsgit.github.io/devdash/copyright -->

<svg width="48" height="48" viewBox="0 0 48 48" fill="none" xmlns="http://www.w3.org/2000/svg">
<path d="M14 5.71429C14 4.76751 14.7675 4 15.7143 4H32.2857C33.2325 4 34 4.76751 34 5.71429V6C34 11.5228 29.5228 16 24 16C18.4772 16 14 11.5228 14 6V5.71429Z" fill="#ACB4C9"/>
<path d="M42 32C42 40.8366 33.9411 44 24 44C14.0589 44 6 40.8366 6 32C6 23.1634 14.0589 12 24 12C33.9411 12 42 23.1634 42 32Z" fill="#ACB4C9"/>
<path fill-rule="evenodd" clip-rule="evenodd" d="M22.4076 34.9311C21.5042 34.3678 20.8164 33.5436 20.3442 32.4585H27.3351C27.6431 32.4585 27.8895 32.3542 28.0743 32.1455C28.2796 31.9369 28.3822 31.6239 28.3822 31.2066C28.3822 31.0722 28.3689 30.9374 28.3449 30.8039C28.2436 30.2413 27.6814 29.9233 27.1097 29.9233H19.7664C19.7352 29.6401 19.7192 29.3514 19.7192 29.0583C19.7192 28.7574 19.7361 28.4611 19.7689 28.1706H27.3351C27.6431 28.1706 27.8895 28.0767 28.0743 27.8889C28.2796 27.6802 28.3822 27.3568 28.3822 26.9186C28.3822 26.7866 28.3683 26.6515 28.3436 26.5165C28.2406 25.9542 27.6814 25.6354 27.1097 25.6354H20.3442C20.8164 24.5086 21.5042 23.6635 22.4076 23.1002C23.311 22.5368 24.3478 22.2551 25.5181 22.2551C26.5036 22.2551 27.3249 22.4011 27.9819 22.6933C28.2265 22.7943 28.4626 22.9011 28.6902 23.0136C29.3727 23.3513 30.2714 23.4335 30.6425 22.7686C30.7905 22.5034 30.8768 22.204 30.8768 21.8795C30.8768 21.483 30.7331 21.1179 30.4457 20.784C30.1787 20.4293 29.7886 20.1268 29.2754 19.8764C28.7826 19.6051 28.1667 19.3965 27.4275 19.2504C26.7089 19.0835 25.9082 19 25.0254 19C22.9517 19 21.1347 19.5634 19.5743 20.6901C18.0139 21.8169 16.936 23.4653 16.3406 25.6354H15.0471C14.7597 25.6354 14.5133 25.7293 14.308 25.9171C14.1027 26.1049 14 26.4387 14 26.9186C14 27.1057 14.0146 27.2779 14.0439 27.4352C14.1384 27.9422 14.6672 28.1706 15.1829 28.1706H16.1074V29.9233H15.0471C14.7597 29.9233 14.5133 30.0172 14.308 30.205C14.1027 30.3928 14 30.7267 14 31.2066C14 31.3772 14.0132 31.5368 14.0396 31.6851C14.1335 32.2133 14.6827 32.4585 15.2192 32.4585H16.3098C16.5767 33.5436 16.9873 34.493 17.5417 35.3067C18.1165 36.1205 18.7941 36.8091 19.5743 37.3725C20.3545 37.915 21.2271 38.3219 22.192 38.5931C23.1775 38.8644 24.2246 39 25.3333 39C26.442 39 27.3557 38.8957 28.0743 38.687C28.8134 38.4784 29.3883 38.2488 29.7989 37.9984C30.5996 37.5394 31 36.9447 31 36.2144C31 35.9204 30.9355 35.6471 30.8208 35.3993C30.4849 34.6737 29.5273 34.7322 28.8056 35.0765C28.5908 35.179 28.3675 35.2766 28.1359 35.3693C27.4789 35.6197 26.6679 35.7449 25.7029 35.7449C24.4094 35.7449 23.311 35.4737 22.4076 34.9311Z" fill="#576684"/>
</svg>