<!-- Copyright © Ewsgit 2022. -->
<!-- Licensed under the MIT License - https://ewsgit.github.io/devdash/copyright -->

<svg width="48" height="48" viewBox="0 0 48 48" fill="none" xmlns="http://www.w3.org/2000/svg">
<path fill-rule="evenodd" clip-rule="evenodd" d="M37.2675 31.5389C38.999 28.7733 40 25.5035 40 22C40 12.0589 31.9411 4 22 4C12.0589 4 4 12.0589 4 22C4 31.9411 12.0589 40 22 40C25.4954 40 28.7581 39.0037 31.5196 37.2796C31.6767 37.4685 31.8333 37.6572 31.9897 37.8455C33.5982 39.7827 35.1783 41.6858 36.9976 43.5597C38.101 44.6962 39.748 44.8606 40.9265 43.8017C41.344 43.4266 41.8325 42.9657 42.3987 42.4005C42.9649 41.8353 43.4267 41.3476 43.8024 40.9308C44.8631 39.7544 44.6985 38.1102 43.5599 37.0087C41.6828 35.1925 39.7764 33.6151 37.8359 32.0094C37.6467 31.8529 37.4573 31.6962 37.2675 31.5389Z" fill="#576684"/>
<circle cx="22" cy="22" r="12" fill="#ACB4C9"/>
<path d="M21.4168 26.5282C22.3499 26.5282 23.0238 26.3777 23.4384 26.0765C23.8704 25.7754 24.0864 25.4065 24.0864 24.9699C24.0864 24.5784 23.9222 24.2622 23.594 24.0213C23.2657 23.7804 22.7732 23.5696 22.1166 23.389L20.6911 22.9824C19.9827 22.7867 19.3434 22.5759 18.7732 22.3501C18.203 22.1242 17.7192 21.8532 17.3218 21.537C16.9244 21.2208 16.6134 20.8444 16.3888 20.4078C16.1641 19.9711 16.0518 19.4517 16.0518 18.8494C16.0518 17.8256 16.4147 16.9749 17.1404 16.2974C17.8661 15.6198 18.9028 15.1681 20.2505 14.9423V13.9637C20.2505 13.4934 20.578 13.0794 21.0459 13.0331C21.2658 13.0114 21.4864 13 21.7019 13C22.3413 13 22.7991 13.0979 23.0756 13.2936C23.3693 13.4893 23.5162 13.8432 23.5162 14.3551V14.8519C24.622 14.9573 25.5205 15.1907 26.2117 15.5521C26.9028 15.8984 27.2484 16.3576 27.2484 16.9297C27.2484 17.3428 27.0629 17.7064 26.7727 18.0075C26.5082 18.2819 26.0849 18.2661 25.7325 18.1211C25.4308 17.9969 25.0808 17.8858 24.6825 17.788C24.0259 17.6073 23.3089 17.5169 22.5313 17.5169C21.6674 17.5169 21.0194 17.6449 20.5875 17.9009C20.1728 18.1418 19.9654 18.458 19.9654 18.8494C19.9654 19.1656 20.1037 19.4216 20.3801 19.6173C20.6739 19.813 21.1145 19.9937 21.7019 20.1593L23.1533 20.5433C24.7084 20.9649 25.9006 21.522 26.73 22.2146C27.5767 22.9072 28 23.8407 28 25.0151C28 26.054 27.6199 26.9348 26.8596 27.6575C26.0994 28.3651 24.9849 28.8394 23.5162 29.0803V30.0363C23.5162 30.5066 23.1888 30.9206 22.7208 30.9669C22.5011 30.9886 22.2806 31 22.0648 31C21.4255 31 20.959 30.9021 20.6652 30.7064C20.3888 30.5107 20.2505 30.1568 20.2505 29.6449V29.1932C18.9892 29.0728 17.9611 28.8093 17.1663 28.4028C16.3888 27.9812 16 27.4542 16 26.8218C16 26.2985 16.2982 25.8727 16.7274 25.5515C17.0247 25.3291 17.4284 25.3841 17.7498 25.5698C18.1039 25.7744 18.5141 25.9659 18.9806 26.1443C19.689 26.4003 20.5011 26.5282 21.4168 26.5282Z" fill="#576684"/>
</svg>