<!-- Copyright © Ewsgit 2022. -->
<!-- Licensed under the MIT License - https://ewsgit.github.io/devdash/copyright -->

<svg width="48" height="48" viewBox="0 0 48 48" fill="none" xmlns="http://www.w3.org/2000/svg">
<circle cx="24" cy="38" r="8" fill="#576684"/>
<path d="M39.1626 17.9516C38.5055 10.0657 31.9132 4 24 4C16.0868 4 9.49452 10.0657 8.83736 17.9516L8.30921 24.2895C8.10579 26.7306 7.34462 29.0923 6.08436 31.1927L4.41024 33.9829C2.99372 36.3438 3.77776 38.7716 6.50437 39.1533C9.67582 39.5973 15.0259 40 24 40C32.9741 40 38.3242 39.5973 41.4956 39.1533C44.2222 38.7716 45.0063 36.3438 43.5898 33.9829L41.9156 31.1927C40.6554 29.0923 39.8942 26.7306 39.6908 24.2895L39.1626 17.9516Z" fill="#ACB4C9"/>
<path fill-rule="evenodd" clip-rule="evenodd" d="M42.2581 7.80597C41.9041 7.20815 41.1757 7 40.481 7H31.8747C31.342 7 30.9117 7.15395 30.5839 7.46185C30.2766 7.75051 30.1229 8.23161 30.1229 8.90515C30.1229 9.28116 30.1818 9.64496 30.2936 9.99473C30.4562 10.5039 30.9743 10.7814 31.5089 10.7814H36.3002L31.0142 16.6124C30.7273 16.9395 30.4815 17.2955 30.2766 17.6804C30.0922 18.046 30 18.4213 30 18.8062C30 19.3344 30.1366 19.7964 30.3726 20.1944C30.7269 20.7921 31.4555 21 32.1502 21H41.2482C41.7809 21 42.2009 20.8557 42.5083 20.567C42.8361 20.2591 43 19.7684 43 19.0948C43 18.7356 42.9372 18.3634 42.8247 18.0073C42.6636 17.4976 42.1486 17.2186 41.614 17.2186H36.4539L41.617 11.3876C41.9039 11.0605 42.1395 10.7141 42.3239 10.3485C42.5288 9.96357 42.6312 9.57869 42.6312 9.19381C42.6312 8.67237 42.4968 8.209 42.2581 7.80597ZM26.4745 20.5553C26.2337 20.1472 25.74 20 25.2662 20H19.2979C18.9291 20 18.6312 20.11 18.4043 20.3299C18.1915 20.5361 18.0851 20.8797 18.0851 21.3608C18.0851 21.6393 18.129 21.9084 18.2119 22.1667C18.3224 22.5106 18.6703 22.701 19.0315 22.701H22.3617L18.7021 26.866C18.5035 27.0997 18.3333 27.354 18.1915 27.6289C18.0638 27.89 18 28.1581 18 28.433C18 28.8194 18.0992 29.1561 18.2699 29.445C18.5108 29.8529 19.0047 30 19.4785 30H25.7872C26.156 30 26.4468 29.8969 26.6596 29.6907C26.8865 29.4708 27 29.1203 27 28.6392C27 28.3732 26.9533 28.0974 26.87 27.8347C26.7608 27.4904 26.4148 27.299 26.0536 27.299H22.4681L26.0426 23.134C26.2411 22.9003 26.4043 22.6529 26.5319 22.3918C26.6738 22.1168 26.7447 21.8419 26.7447 21.567C26.7447 21.1857 26.6471 20.8479 26.4745 20.5553Z" fill="#576684"/>
</svg>