<!-- Copyright © Ewsgit 2022. -->
<!-- Licensed under the MIT License - https://ewsgit.github.io/devdash/copyright -->

<svg width="48" height="48" viewBox="0 0 48 48" fill="none" xmlns="http://www.w3.org/2000/svg">
<path fill-rule="evenodd" clip-rule="evenodd" d="M44.5 16.0335C44.5 10.7683 40.2317 6.5 34.9665 6.5C33.2924 6.5 31.814 7.59186 31.3217 9.19194L29.1127 16.3712C28.6487 17.8791 29.1145 19.5189 30.3018 20.5578L31.441 21.5546C32.036 22.0753 32.2795 22.9025 31.9811 23.6346C30.439 27.4171 27.4171 30.439 23.6346 31.9811C22.9025 32.2795 22.0753 32.036 21.5546 31.441L20.5578 30.3018C19.5189 29.1145 17.8791 28.6487 16.3712 29.1127L9.19194 31.3217C7.59187 31.814 6.5 33.2924 6.5 34.9665C6.5 40.2317 10.7683 44.5 16.0335 44.5H17.9C32.5908 44.5 44.5 32.5908 44.5 17.9V16.0335Z" fill="#ACB4C9"/>
<path fill-rule="evenodd" clip-rule="evenodd" d="M25.3441 14.684C25.2056 13.9392 24.5215 13.5 23.7639 13.5H23.5C17.9772 13.5 13.5 17.9772 13.5 23.5V23.7841C13.5 24.5311 13.9278 25.2085 14.6617 25.348C15.1318 25.4373 15.7446 25.507 16.5 25.5C17.2317 25.4933 17.8295 25.4245 18.2936 25.3401C19.0494 25.2025 19.5 24.5116 19.5 23.7433V23.5C19.5 21.2909 21.2909 19.5 23.5 19.5H23.7639C24.5215 19.5 25.2056 19.0608 25.3441 18.316C25.4309 17.8489 25.5 17.2435 25.5 16.5C25.5 15.7565 25.4309 15.1511 25.3441 14.684Z" fill="#576684"/>
<path fill-rule="evenodd" clip-rule="evenodd" d="M25.3441 4.684C25.2056 3.93922 24.5215 3.5 23.7639 3.5H22.5C12.0066 3.5 3.5 12.0066 3.5 22.5V23.7639C3.5 24.5215 3.93922 25.2056 4.684 25.3441C5.15112 25.4309 5.75645 25.5 6.5 25.5C7.24355 25.5 7.84888 25.4309 8.31599 25.3441C9.06078 25.2056 9.5 24.5215 9.5 23.7639V22.5C9.5 15.3203 15.3203 9.5 22.5 9.5H23.7639C24.5215 9.5 25.2056 9.06078 25.3441 8.316C25.4309 7.84888 25.5 7.24355 25.5 6.5C25.5 5.75645 25.4309 5.15112 25.3441 4.684Z" fill="#576684"/>
</svg>