<!-- Copyright © Ewsgit 2022. -->
<!-- Licensed under the MIT License - https://ewsgit.github.io/devdash/copyright -->

<svg width="48" height="48" viewBox="0 0 48 48" fill="none" xmlns="http://www.w3.org/2000/svg">
<path d="M33.739 3.39533C36.141 3.63635 37.9055 5.34441 38.2166 7.73833C38.6024 10.7061 39 15.7627 39 24C39 32.2373 38.6024 37.2939 38.2166 40.2617C37.9055 42.6556 36.141 44.3637 33.739 44.6047C31.6398 44.8153 28.5125 45 24 45C19.4875 45 16.3602 44.8153 14.261 44.6047C11.859 44.3637 10.0945 42.6556 9.78336 40.2617C9.39757 37.2939 9 32.2373 9 24C9 15.7627 9.39758 10.7061 9.78336 7.73833C10.0945 5.34441 11.859 3.63635 14.261 3.39533C16.3602 3.18469 19.4875 3 24 3C28.5125 3 31.6398 3.18469 33.739 3.39533Z" fill="#576684"/>
<path fill-rule="evenodd" clip-rule="evenodd" d="M38.3655 9C38.316 8.54276 38.2658 8.123 38.2158 7.73833C37.9046 5.34441 36.1402 3.63635 33.7382 3.39533C31.6389 3.18469 28.5117 3 23.9992 3C19.4867 3 16.3594 3.18469 14.2602 3.39533C11.8582 3.63635 10.0937 5.34441 9.78253 7.73833C9.73252 8.123 9.68232 8.54276 9.63281 9H38.3655ZM38.3655 39C38.316 39.4572 38.2658 39.877 38.2158 40.2617C37.9046 42.6556 36.1402 44.3637 33.7382 44.6047C31.6389 44.8153 28.5117 45 23.9992 45C19.4867 45 16.3594 44.8153 14.2602 44.6047C11.8582 44.3636 10.0937 42.6556 9.78253 40.2617C9.73252 39.877 9.68232 39.4572 9.63281 39H38.3655Z" fill="#ACB4C9"/>
</svg>