<!-- Copyright © Ewsgit 2022. -->
<!-- Licensed under the MIT License - https://ewsgit.github.io/devdash/copyright -->

<svg xmlns="http://www.w3.org/2000/svg" width="48" height="48" fill="none" viewBox="0 0 48 48"><path fill="#576684" d="M33.739 3.39533C36.141 3.63635 37.9055 5.34441 38.2166 7.73833C38.6024 10.7061 39 15.7627 39 24C39 32.2373 38.6024 37.2939 38.2166 40.2617C37.9055 42.6556 36.141 44.3637 33.739 44.6047C31.6398 44.8153 28.5125 45 24 45C19.4875 45 16.3602 44.8153 14.261 44.6047C11.859 44.3637 10.0945 42.6556 9.78336 40.2617C9.39757 37.2939 9 32.2373 9 24C9 15.7627 9.39758 10.7061 9.78336 7.73833C10.0945 5.34441 11.859 3.63635 14.261 3.39533C16.3602 3.18469 19.4875 3 24 3C28.5125 3 31.6398 3.18469 33.739 3.39533Z"/><path fill="#ACB4C9" fill-rule="evenodd" d="M38.3655 9C38.316 8.54276 38.2658 8.123 38.2158 7.73833C37.9046 5.34441 36.1402 3.63635 33.7382 3.39533C31.6389 3.18469 28.5117 3 23.9992 3C19.4867 3 16.3594 3.18469 14.2602 3.39533C11.8582 3.63635 10.0937 5.34441 9.78253 7.73833C9.73252 8.123 9.68232 8.54276 9.63281 9H38.3655ZM38.3655 39C38.316 39.4572 38.2658 39.877 38.2158 40.2617C37.9046 42.6556 36.1402 44.3637 33.7382 44.6047C31.6389 44.8153 28.5117 45 23.9992 45C19.4867 45 16.3594 44.8153 14.2602 44.6047C11.8582 44.3636 10.0937 42.6556 9.78253 40.2617C9.73252 39.877 9.68232 39.4572 9.63281 39H38.3655Z" clip-rule="evenodd"/><path fill="#ACB4C9" fill-rule="evenodd" d="M21.7666 26.9253C21.826 26.3614 21.4124 25.8554 20.8469 25.8129C19.8232 25.736 18.9045 25.6758 18.1708 25.6312C17.3901 25.5837 16.9636 24.71 17.43 24.0822C18.8687 22.146 21.6706 18.5884 25.0472 15.3878C25.6796 14.7883 26.6846 15.269 26.6366 16.139C26.5299 18.0713 26.3914 19.7165 26.2474 21.0827C26.1879 21.6466 26.6016 22.1526 27.167 22.1951C28.1907 22.2719 29.1094 22.3322 29.8432 22.3768C30.6239 22.4243 31.0504 23.298 30.5839 23.9258C29.1453 25.862 26.3434 29.4195 22.9668 32.6202C22.3343 33.2196 21.3293 32.739 21.3774 31.869C21.484 29.9367 21.6226 28.2915 21.7666 26.9253Z" clip-rule="evenodd"/></svg>