<!-- Copyright © Ewsgit 2022. -->
<!-- Licensed under the MIT License - https://ewsgit.github.io/devdash/copyright -->

<svg width="48" height="48" viewBox="0 0 48 48" fill="none" xmlns="http://www.w3.org/2000/svg">
<path d="M33.739 3.39533C36.141 3.63635 37.9055 5.34441 38.2166 7.73833C38.6024 10.7061 39 15.7627 39 24C39 32.2373 38.6024 37.2939 38.2166 40.2617C37.9055 42.6556 36.141 44.3637 33.739 44.6047C31.6398 44.8153 28.5125 45 24 45C19.4875 45 16.3602 44.8153 14.261 44.6047C11.859 44.3637 10.0945 42.6556 9.78336 40.2617C9.39757 37.2939 9 32.2373 9 24C9 15.7627 9.39758 10.7061 9.78336 7.73833C10.0945 5.34441 11.859 3.63635 14.261 3.39533C16.3602 3.18469 19.4875 3 24 3C28.5125 3 31.6398 3.18469 33.739 3.39533Z" fill="#ACB4C9"/>
<path d="M14.2424 35.1599C14.3431 36.7297 15.253 38.0489 16.7899 38.3838C18.2584 38.7037 20.5498 39 24 39C27.4502 39 29.7416 38.7037 31.2101 38.3838C32.747 38.0489 33.6569 36.7297 33.7576 35.1599C33.878 33.2819 34 30.1171 34 25C34 19.8829 33.878 16.7181 33.7576 14.8401C33.6569 13.2703 32.747 11.9511 31.2101 11.6162C29.7416 11.2963 27.4502 11 24 11C20.5498 11 18.2584 11.2963 16.7899 11.6162C15.253 11.9511 14.3431 13.2703 14.2424 14.8401C14.122 16.7181 14 19.8829 14 25C14 30.1171 14.122 33.2819 14.2424 35.1599Z" fill="#576684"/>
<path fill-rule="evenodd" clip-rule="evenodd" d="M29.6108 3.11144L29.4358 4.51158C29.3187 5.44856 28.759 6.27342 27.8488 6.52485C26.9747 6.7663 25.6917 7 23.9997 7C22.3077 7 21.0247 6.7663 20.1507 6.52485C19.2405 6.27342 18.6808 5.44856 18.5637 4.51158L18.3887 3.11145C19.9625 3.04312 21.8195 3 23.9998 3C26.1801 3 28.037 3.04312 29.6108 3.11144Z" fill="#576684"/>
</svg>