<!-- Copyright © Ewsgit 2022. -->
<!-- Licensed under the MIT License - https://ewsgit.github.io/devdash/copyright -->

<svg width="48" height="48" viewBox="0 0 48 48" fill="none" xmlns="http://www.w3.org/2000/svg">
<path d="M33.739 3.39533C36.141 3.63635 37.9055 5.34441 38.2166 7.73833C38.6024 10.7061 39 15.7627 39 24C39 32.2373 38.6024 37.2939 38.2166 40.2617C37.9055 42.6556 36.141 44.3637 33.739 44.6047C31.6398 44.8153 28.5125 45 24 45C19.4875 45 16.3602 44.8153 14.261 44.6047C11.859 44.3637 10.0945 42.6556 9.78336 40.2617C9.39757 37.2939 9 32.2373 9 24C9 15.7627 9.39758 10.7061 9.78336 7.73833C10.0945 5.34441 11.859 3.63635 14.261 3.39533C16.3602 3.18469 19.4875 3 24 3C28.5125 3 31.6398 3.18469 33.739 3.39533Z" fill="#576684"/>
<path fill-rule="evenodd" clip-rule="evenodd" d="M38.5549 37C38.4481 38.2946 38.3314 39.372 38.2158 40.2617C37.9046 42.6556 36.1401 44.3636 33.7381 44.6047C31.6389 44.8153 28.5116 45 23.9991 45C19.4866 45 16.3593 44.8153 14.2601 44.6047C11.8581 44.3636 10.0937 42.6556 9.78246 40.2617C9.66681 39.372 9.5501 38.2946 9.44336 37H38.5549Z" fill="#ACB4C9"/>
</svg>