<!-- Copyright © Ewsgit 2022. -->
<!-- Licensed under the MIT License - https://ewsgit.github.io/devdash/copyright -->

<svg width="48" height="48" viewBox="0 0 48 48" fill="none" xmlns="http://www.w3.org/2000/svg">
<path d="M39.3478 3.583C41.1053 3.77571 42.4809 4.94903 42.8191 6.68441C43.357 9.44506 44 14.6919 44 24C44 33.3081 43.357 38.5549 42.8191 41.3156C42.4809 43.051 41.1053 44.2243 39.3478 44.417C36.8458 44.6913 32.389 45 25 45C17.611 45 13.1542 44.6913 10.6522 44.417C8.89467 44.2243 7.51906 43.051 7.18093 41.3156C6.64304 38.5549 6 33.3081 6 24C6 14.6919 6.64304 9.44506 7.18093 6.68441C7.51906 4.94903 8.89467 3.77571 10.6522 3.583C13.1542 3.30865 17.611 3 25 3C32.389 3 36.8458 3.30865 39.3478 3.583Z" fill="#ACB4C9"/>
<path d="M4.02 13.2054C4.06246 11.9476 4.93872 11.0761 6.19639 11.0295C6.67894 11.0116 7.27241 11 8 11C8.72759 11 9.32107 11.0116 9.80361 11.0295C11.0613 11.0761 11.9375 11.9476 11.98 13.2054C11.9924 13.5716 12 14.0001 12 14.5C12 14.9999 11.9924 15.4284 11.98 15.7946C11.9375 17.0524 11.0613 17.9239 9.80361 17.9705C9.32107 17.9884 8.72759 18 8 18C7.27241 18 6.67893 17.9884 6.19639 17.9705C4.93872 17.9239 4.06246 17.0524 4.02 15.7946C4.00763 15.4284 4 14.9999 4 14.5C4 14.0001 4.00763 13.5716 4.02 13.2054Z" fill="#576684"/>
<path d="M4.02 32.2054C4.06246 30.9476 4.93872 30.0761 6.19639 30.0295C6.67894 30.0116 7.27241 30 8 30C8.72759 30 9.32107 30.0116 9.80361 30.0295C11.0613 30.0761 11.9375 30.9476 11.98 32.2054C11.9924 32.5716 12 33.0001 12 33.5C12 33.9999 11.9924 34.4284 11.98 34.7946C11.9375 36.0524 11.0613 36.9239 9.80361 36.9705C9.32107 36.9884 8.72759 37 8 37C7.27241 37 6.67893 36.9884 6.19639 36.9705C4.93872 36.9239 4.06246 36.0524 4.02 34.7946C4.00763 34.4284 4 33.9999 4 33.5C4 33.0001 4.00763 32.5716 4.02 32.2054Z" fill="#576684"/>
<path fill-rule="evenodd" clip-rule="evenodd" d="M28.9197 25.2429C30.7573 24.2174 32 22.2538 32 20C32 16.6863 29.3137 14 26 14C22.6863 14 20 16.6863 20 20C20 22.2538 21.2427 24.2174 23.0803 25.2429C20.1524 26.0421 18 28.7207 18 31.902C18 32.2835 18.1637 32.6434 18.5037 32.8165C19.368 33.2567 21.4947 34 26 34C30.5053 34 32.632 33.2567 33.4963 32.8165C33.8363 32.6434 34 32.2835 34 31.902C34 28.7207 31.8476 26.0421 28.9197 25.2429Z" fill="#576684"/>
</svg>