<!-- Copyright © Ewsgit 2022. -->
<!-- Licensed under the MIT License - https://ewsgit.github.io/devdash/copyright -->

<svg xmlns="http://www.w3.org/2000/svg" width="48" height="48" fill="none" viewBox="0 0 48 48"><path fill="#ACB4C9" fill-rule="evenodd" d="M44 15.5335C44 10.2683 39.7317 6 34.4665 6C32.7924 6 31.314 7.09186 30.8217 8.69194L28.6127 15.8712C28.1487 17.3791 28.6145 19.0189 29.8018 20.0578L30.941 21.0546C31.536 21.5753 31.7795 22.4025 31.4811 23.1346C29.939 26.9171 26.9171 29.939 23.1346 31.4811C22.4025 31.7795 21.5753 31.536 21.0546 30.941L20.0578 29.8018C19.0189 28.6145 17.3791 28.1487 15.8712 28.6127L8.69194 30.8217C7.09187 31.314 6 32.7924 6 34.4665C6 39.7317 10.2683 44 15.5335 44H17.4C32.0908 44 44 32.0908 44 17.4V15.5335Z" clip-rule="evenodd"/><path fill="#576684" fill-rule="evenodd" d="M12.5969 17.422C11.0449 17.3827 9.30226 17.3727 7.61893 17.4357C7.01039 17.4585 6.45197 17.7821 6.30503 18.3731C6.20478 18.7763 6.12501 19.3232 6.13627 20.0281C6.14989 20.881 6.31156 21.5338 6.47577 21.9817C6.65544 22.4718 7.12152 22.7597 7.63806 22.8346C13.2992 23.6564 18.1603 23.2378 20.6953 22.8851C21.8456 22.725 22.728 21.8427 22.888 20.6923C23.2408 18.1573 23.6593 13.2962 22.8376 7.63508C22.7626 7.11853 22.4747 6.65246 21.9847 6.47279C21.5368 6.30858 20.884 6.14691 20.0311 6.13329C19.3262 6.12203 18.7793 6.2018 18.3761 6.30205C17.7851 6.44898 17.4615 7.00741 17.4387 7.61595C17.3757 9.29957 17.3857 11.0425 17.425 12.5947C14.4556 9.83797 10.9361 6.72389 8.21388 4.45113C7.42895 3.7958 6.27823 3.85903 5.55519 4.58206L4.58491 5.55235C3.86194 6.27532 3.79865 7.42593 4.45386 8.21084C6.72632 10.9331 9.84021 14.4526 12.5969 17.422Z" clip-rule="evenodd"/></svg>