<!-- Copyright © Ewsgit 2022. -->
<!-- Licensed under the MIT License - https://ewsgit.github.io/devdash/copyright -->

<svg width="48" height="48" viewBox="0 0 48 48" fill="none" xmlns="http://www.w3.org/2000/svg">
<path fill-rule="evenodd" clip-rule="evenodd" d="M21.6151 11.7271C21.2964 11.1684 20.7524 10.8136 20.1813 11.1031C20.0776 11.1557 19.9647 11.2193 19.8422 11.2963C19.7198 11.3732 19.6127 11.4478 19.519 11.5192C19.003 11.9126 19.0134 12.6027 19.2988 13.1823C19.4486 13.4866 19.6384 13.861 19.8687 14.295C20.0564 14.6487 20.2736 15.0469 20.4888 15.4366C18.3552 16.1679 16.7226 17.6842 15.8838 19.7498C15.6893 19.6951 15.4995 19.6427 15.3219 19.5951C14.8467 19.4678 14.4494 19.3723 14.1436 19.3034C13.6847 19.2001 13.2148 19.3225 13.0275 19.754C12.9586 19.913 12.8878 20.1119 12.8213 20.3599C12.7548 20.6079 12.7167 20.8156 12.697 20.9877C12.6434 21.455 12.9891 21.796 13.4382 21.936C13.7375 22.0293 14.1293 22.1451 14.6045 22.2725C14.8153 22.329 15.0445 22.3882 15.2788 22.4475C15.2694 22.5884 15.263 22.7309 15.2596 22.8748C15.2485 23.3446 15.2408 23.8421 15.237 24.3686C14.8859 24.3622 14.5329 24.3579 14.2181 24.3579C13.7261 24.3579 13.3176 24.3684 13.0044 24.381C12.5344 24.4 12.1122 24.6399 12.043 25.1052C12.0176 25.2765 12.0006 25.487 12.0006 25.7438C12.0006 26.0005 12.0176 26.211 12.043 26.3823C12.1122 26.8476 12.5345 27.0875 13.0045 27.1065C13.3177 27.1191 13.7261 27.1296 14.2181 27.1296C14.5381 27.1296 14.8976 27.1252 15.2545 27.1186C15.2561 27.1952 15.2578 27.2711 15.2596 27.3462C15.2731 27.921 15.3351 28.4727 15.4419 28.9985C15.1514 29.0712 14.8641 29.145 14.6045 29.2145C14.1293 29.3418 13.7375 29.4577 13.4382 29.551C12.9891 29.691 12.6434 30.032 12.697 30.4993C12.7167 30.6714 12.7548 30.8791 12.8213 31.1271C12.8878 31.3751 12.9586 31.574 13.0275 31.733C13.2148 32.1645 13.6847 32.2869 14.1436 32.1836C14.4494 32.1147 14.8467 32.0192 15.3219 31.8919C15.6671 31.7994 16.0585 31.6887 16.4402 31.5783C17.8482 33.889 20.4079 35.2737 23.5498 35.2737C26.6916 35.2737 29.2513 33.889 30.6592 31.5784C31.0409 31.6888 31.4324 31.7995 31.7777 31.892C32.2528 32.0193 32.6501 32.1149 32.9559 32.1837C33.4148 32.287 33.8848 32.1646 34.072 31.7331C34.141 31.5742 34.2118 31.3753 34.2782 31.1272C34.3447 30.8792 34.3828 30.6715 34.4026 30.4994C34.4562 30.0321 34.1104 29.6911 33.6613 29.5511C33.3621 29.4579 32.9702 29.342 32.495 29.2146C32.2355 29.1451 31.9481 29.0714 31.6576 28.9986C31.7644 28.4728 31.8264 27.9211 31.8399 27.3462C31.8417 27.2711 31.8434 27.1953 31.845 27.1187C32.2019 27.1253 32.5614 27.1298 32.8815 27.1298C33.3734 27.1298 33.7818 27.1192 34.095 27.1066C34.5651 27.0876 34.9873 26.8478 35.0565 26.3825C35.082 26.2111 35.0989 26.0007 35.0989 25.7439C35.0989 25.4871 35.082 25.2766 35.0565 25.1053C34.9873 24.64 34.5651 24.4001 34.0951 24.3812C33.7819 24.3685 33.3734 24.358 32.8815 24.358C32.5667 24.358 32.2137 24.3623 31.8625 24.3687C31.8588 23.8422 31.851 23.3447 31.8399 22.8748C31.8365 22.7309 31.8301 22.5885 31.8207 22.4476C32.055 22.3884 32.2842 22.3291 32.495 22.2726C32.9702 22.1453 33.3621 22.0294 33.6613 21.9361C34.1104 21.7961 34.4562 21.4551 34.4026 20.9878C34.3828 20.8157 34.3447 20.608 34.2782 20.36C34.2118 20.112 34.141 19.9131 34.072 19.7542C33.8848 19.3226 33.4148 19.2002 32.9559 19.3035C32.6501 19.3724 32.2528 19.4679 31.7777 19.5953C31.6 19.6428 31.4102 19.6952 31.2158 19.7499C30.377 17.6843 28.7445 16.168 26.6109 15.4367C26.8261 15.047 27.0433 14.6487 27.2311 14.295C27.4613 13.861 27.6511 13.4866 27.8009 13.1823C28.0863 12.6027 28.0968 11.9126 27.5807 11.5192C27.487 11.4478 27.3799 11.3732 27.2575 11.2963C27.135 11.2193 27.0221 11.1557 26.9184 11.1031C26.3473 10.8136 25.8033 11.1684 25.4847 11.7271C25.3174 12.0204 25.1142 12.3865 24.884 12.8205C24.5352 13.4777 24.1152 14.3078 23.7938 14.9501C23.7129 14.9482 23.6315 14.9473 23.5498 14.9473C23.4681 14.9473 23.3868 14.9482 23.3059 14.9501C22.9846 14.3078 22.5645 13.4777 22.2158 12.8205C21.9855 12.3865 21.7823 12.0204 21.6151 11.7271Z" fill="#ACB4C9"/>
<path fill-rule="evenodd" clip-rule="evenodd" d="M3 24C3 35.598 12.402 45 24 45C35.598 45 45 35.598 45 24C45 12.402 35.598 3 24 3C12.402 3 3 12.402 3 24ZM8 24C8 32.8366 15.1634 40 24 40C27.6687 40 31.0489 38.7653 33.7479 36.6887C30.8057 33.7962 25.5349 28.606 22.3223 25.3934C19.2117 22.2827 14.247 17.2424 11.3092 14.2548C9.23389 16.9533 8 20.3326 8 24ZM14.7904 10.9147C17.3946 9.07846 20.5713 8 24 8C32.8366 8 40 15.1634 40 24C40 27.4299 38.9208 30.6077 37.0833 33.2124C34.1778 30.2571 29.0448 25.0448 25.8579 21.8579C22.7718 18.7718 17.7864 13.8608 14.7904 10.9147Z" fill="#576684"/>
</svg>