<!-- Copyright © Ewsgit 2022. -->
<!-- Licensed under the MIT License - https://ewsgit.github.io/devdash/copyright -->

<svg width="48" height="48" viewBox="0 0 48 48" fill="none" xmlns="http://www.w3.org/2000/svg">
<path d="M4.65388 8.57316C4.84496 6.92575 5.84441 5.56573 7.46374 5.20762C9.9896 4.64902 14.8855 4 24 4C33.1145 4 38.0104 4.64902 40.5363 5.20762C42.1556 5.56574 43.155 6.92575 43.3461 8.57316C43.6351 11.0644 44 15.1673 44 20C44 29.0284 39.2351 37.4764 31.2074 41.6079C28.5258 42.988 25.9087 44 24 44C22.0913 44 19.4742 42.988 16.7926 41.6079C8.76493 37.4764 4 29.0284 4 20C4 15.1673 4.36493 11.0644 4.65388 8.57316Z" fill="#ACB4C9"/>
<path fill-rule="evenodd" clip-rule="evenodd" d="M20.927 8.0954C21.5034 7.81886 22.0457 8.17788 22.3656 8.73579C22.5539 9.06444 22.7881 9.48472 23.0562 9.99007C23.4337 10.7014 23.8883 11.5998 24.2362 12.295C24.3237 12.293 24.4116 12.292 24.5 12.292C24.5884 12.292 24.6765 12.293 24.764 12.295C25.1118 11.5999 25.5665 10.7014 25.944 9.99007C26.2121 9.48472 26.4463 9.06444 26.6346 8.73579C26.9544 8.17788 27.4968 7.81886 28.0732 8.0954C28.2048 8.15852 28.3511 8.23872 28.5129 8.34034C28.6746 8.44195 28.8117 8.53978 28.9277 8.63218C29.436 9.03709 29.4214 9.72766 29.1372 10.308C28.9699 10.6498 28.7524 11.0806 28.4843 11.5859C28.2811 11.9688 28.046 12.3999 27.813 12.8216C30.1477 13.6219 31.9281 15.2905 32.8268 17.564C33.0269 17.5078 33.2221 17.454 33.4053 17.4049C33.9506 17.2588 34.401 17.1514 34.7392 17.076C35.1984 16.9737 35.6691 17.0939 35.8641 17.522C35.9464 17.7024 36.032 17.9348 36.1118 18.2326C36.1916 18.5305 36.2336 18.7745 36.2527 18.9719C36.2978 19.4401 35.9502 19.7795 35.5014 19.9205C35.1709 20.0244 34.727 20.1566 34.1818 20.3027C33.9551 20.3634 33.7089 20.4271 33.457 20.4908C33.4644 20.6169 33.4697 20.744 33.4727 20.8722C33.4853 21.4052 33.4939 21.971 33.4977 22.5714C33.8776 22.5644 34.2595 22.5598 34.6 22.5598C35.1645 22.5598 35.6274 22.5726 35.9736 22.5873C36.4436 22.6074 36.8671 22.8453 36.9447 23.3092C36.9775 23.5048 37 23.7514 37 24.0598C37 24.3681 36.9775 24.6147 36.9447 24.8103C36.8671 25.2743 36.4435 25.5122 35.9736 25.5322C35.6274 25.547 35.1645 25.5598 34.6 25.5598C34.2531 25.5598 33.8633 25.5549 33.4764 25.5478C33.4752 25.6028 33.474 25.6575 33.4727 25.7118C33.4574 26.3625 33.3847 26.9859 33.2591 27.5784C33.5791 27.6584 33.896 27.7397 34.1818 27.8163C34.727 27.9624 35.1709 28.0946 35.5014 28.1984C35.9502 28.3394 36.2978 28.6788 36.2527 29.147C36.2336 29.3444 36.1916 29.5885 36.1118 29.8863C36.032 30.1842 35.9464 30.4166 35.8641 30.597C35.6691 31.0251 35.1984 31.1452 34.7392 31.0429C34.401 30.9676 33.9506 30.8602 33.4053 30.7141C33.0186 30.6104 32.5785 30.4858 32.1518 30.3622C30.6191 32.8211 27.8687 34.292 24.5 34.292C21.1312 34.292 18.3808 32.8211 16.8482 30.3621C16.4215 30.4857 15.9814 30.6103 15.5947 30.7139C15.0494 30.86 14.599 30.9675 14.2608 31.0428C13.8016 31.1451 13.3309 31.025 13.1359 30.5969C13.0536 30.4164 12.968 30.184 12.8882 29.8862C12.8084 29.5884 12.7664 29.3443 12.7473 29.1469C12.7022 28.6787 13.0498 28.3393 13.4986 28.1983C13.8291 28.0944 14.273 27.9623 14.8182 27.8162C15.104 27.7396 15.4208 27.6583 15.7409 27.5782C15.6153 26.9858 15.5426 26.3625 15.5273 25.7118C15.526 25.6574 15.5248 25.6027 15.5236 25.5476C15.1367 25.5548 14.7469 25.5596 14.4 25.5596C13.8355 25.5596 13.3726 25.5468 13.0264 25.5321C12.5565 25.512 12.1329 25.2742 12.0553 24.8102C12.0225 24.6146 12 24.368 12 24.0597C12 23.7513 12.0225 23.5047 12.0553 23.3091C12.1329 22.8451 12.5564 22.6073 13.0264 22.5872C13.3726 22.5724 13.8355 22.5596 14.4 22.5596C14.7405 22.5596 15.1224 22.5643 15.5023 22.5712C15.5061 21.9709 15.5147 21.4051 15.5273 20.8722C15.5303 20.744 15.5356 20.6168 15.543 20.4907C15.2911 20.427 15.0449 20.3633 14.8182 20.3026C14.273 20.1565 13.8291 20.0243 13.4986 19.9204C13.0498 19.7794 12.7022 19.44 12.7473 18.9718C12.7664 18.7744 12.8084 18.5303 12.8882 18.2325C12.968 17.9347 13.0536 17.7023 13.1359 17.5218C13.3309 17.0938 13.8016 16.9736 14.2608 17.0759C14.599 17.1512 15.0494 17.2587 15.5947 17.4048C15.7779 17.4539 15.9731 17.5077 16.1733 17.5639C17.072 15.2904 18.8524 13.6218 21.1872 12.8216C20.9542 12.3998 20.7191 11.9688 20.5159 11.5859C20.2478 11.0806 20.0303 10.6498 19.863 10.308C19.5788 9.72766 19.5642 9.03709 20.0725 8.63218C20.1885 8.53978 20.3255 8.44195 20.4873 8.34034C20.6491 8.23872 20.7954 8.15852 20.927 8.0954Z" fill="#576684"/>
<path fill-rule="evenodd" clip-rule="evenodd" d="M23.0005 21.333C23.0005 20.7715 22.538 20.3189 21.9769 20.3427C21.0988 20.38 20.3252 20.4354 19.6473 20.5011C19.3107 20.5336 19.0109 20.7376 18.8888 21.0529C18.6341 21.7109 18.4979 22.4285 18.5062 23.1833C18.5171 24.1615 18.5444 25.1774 18.5975 26.1592C18.7181 28.389 19.9842 30.1176 21.8576 30.8736C22.4336 31.1061 23.0005 30.6294 23.0005 30.0082V21.333ZM26.0005 30.0082C26.0005 30.6294 26.5673 31.1061 27.1434 30.8736C29.0168 30.1175 30.2828 28.3889 30.4034 26.1593C30.4565 25.1775 30.4839 24.1616 30.4947 23.1834C30.5031 22.4286 30.3668 21.711 30.1122 21.053C29.9901 20.7376 29.6903 20.5337 29.3537 20.5011C28.6758 20.4354 27.9022 20.38 27.0241 20.3427C26.463 20.3189 26.0005 20.7715 26.0005 21.333V30.0082Z" fill="#ACB4C9"/>
</svg>