<!-- Copyright © Ewsgit 2022. -->
<!-- Licensed under the MIT License - https://ewsgit.github.io/devdash/copyright -->

<svg xmlns="http://www.w3.org/2000/svg" width="48" height="48" fill="none" viewBox="0 0 48 48"><path fill="#ACB4C9" d="M31 9C31 10.1408 30.7271 11.2178 30.2431 12.1694C33.1652 12.3428 37.2221 12.6243 38.6239 12.8918C40.3197 13.2154 41.445 14.5664 41.6027 16.2856C41.6839 17.1698 41.766 18.3128 41.8344 19.7715C41.8863 20.8789 40.4397 21.5953 39.3782 21.2755C38.7836 21.0963 38.153 21 37.5 21C33.9101 21 31 23.9101 31 27.5C31 31.0899 33.9101 34 37.5 34C38.1655 34 38.8077 33.9 39.4123 33.7141C40.4713 33.3886 41.9204 34.0962 41.878 35.2033C41.8028 37.1637 41.702 38.6327 41.6027 39.7144C41.445 41.4336 40.3197 42.7846 38.6239 43.1082C36.3806 43.5363 30.4598 44 24 44C17.5402 44 11.6194 43.5363 9.37607 43.1082C7.6803 42.7846 6.55504 41.4336 6.39726 39.7144C6.20151 37.5815 6 33.9427 6 28C6 22.0573 6.20151 18.4185 6.39726 16.2856C6.55504 14.5664 7.6803 13.2154 9.37607 12.8918C10.7779 12.6243 14.8348 12.3428 17.7569 12.1694C17.2729 11.2178 17 10.1408 17 9C17 5.13401 20.134 2 24 2C27.866 2 31 5.13401 31 9Z"/></svg>