<!-- Copyright © Ewsgit 2022. -->
<!-- Licensed under the MIT License - https://ewsgit.github.io/devdash/copyright -->

<svg xmlns="http://www.w3.org/2000/svg" width="49" height="48" fill="none" viewBox="0 0 49 48"><path fill="#ACB4C9" fill-rule="evenodd" d="M36.4299 18.5191C41.8425 19.7673 45.5 24.0675 45.5 30C45.5 36.8868 40.5712 41.5739 33.6895 41.8404C31.1901 41.9372 28.1588 42 24.5 42C20.8412 42 17.8099 41.9372 15.3105 41.8404C8.42883 41.5739 3.5 36.8868 3.5 30C3.5 24.0675 7.15749 19.7673 12.5701 18.5191C13.1584 12.4057 17.408 8.04777 23.7827 8.00252C24.017 8.00086 24.2561 8 24.5 8C24.744 8 24.983 8.00086 25.2173 8.00252C31.592 8.04777 35.8416 12.4057 36.4299 18.5191Z" clip-rule="evenodd"/><path fill="#576684" fill-rule="evenodd" d="M19.8061 20.3289C18.1974 21.4592 16.1656 23.141 14.7741 25.1949C14.0946 26.1978 14.7501 27.4399 15.9528 27.5852C17.0619 27.7192 18.0206 27.7861 18.0206 27.7861L18.3519 34.6867C18.3927 35.5381 18.6575 36.441 19.4845 36.6474C19.7286 36.7083 20.0241 36.7477 20.3799 36.7477C20.8121 36.7477 21.1552 36.6896 21.4256 36.6053C22.1429 36.3818 22.3839 35.5973 22.4379 34.8479C22.5938 32.6853 22.8638 27.6482 22.5512 21.7356C22.476 20.3122 20.9724 19.5093 19.8061 20.3289ZM28.5847 36.6664C30.1934 35.5361 32.2252 33.8543 33.6167 31.8004C34.2962 30.7975 33.6407 29.5554 32.4381 29.4102C31.3289 29.2762 30.3702 29.2092 30.3702 29.2092L30.039 22.3086C29.9981 21.4573 29.7333 20.5543 28.9063 20.348C28.6622 20.287 28.3667 20.2477 28.0109 20.2477C27.5787 20.2477 27.2356 20.3057 26.9653 20.39C26.2479 20.6135 26.0069 21.398 25.9529 22.1474C25.797 24.31 25.527 29.3471 25.8396 35.2597C25.9148 36.6832 27.4184 37.486 28.5847 36.6664Z" clip-rule="evenodd"/></svg>