<!-- Copyright © Ewsgit 2022. -->
<!-- Licensed under the MIT License - https://ewsgit.github.io/devdash/copyright -->

<svg width="48" height="48" viewBox="0 0 48 48" fill="none" xmlns="http://www.w3.org/2000/svg">
<path d="M4.56198 8.68502C4.73932 6.96777 5.86521 5.60848 7.55375 5.24901C10.219 4.68162 15.2432 4 24 4C32.7568 4 37.781 4.68162 40.4463 5.24901C42.1348 5.60848 43.2607 6.96778 43.438 8.68502C43.701 11.2312 44 15.9061 44 24C44 32.0939 43.701 36.7688 43.438 39.315C43.2607 41.0322 42.1348 42.3915 40.4462 42.751C37.781 43.3184 32.7568 44 24 44C15.2432 44 10.219 43.3184 7.55375 42.751C5.86521 42.3915 4.73932 41.0322 4.56198 39.315C4.29904 36.7688 4 32.0939 4 24C4 15.9061 4.29904 11.2312 4.56198 8.68502Z" fill="#ACB4C9"/>
<path fill-rule="evenodd" clip-rule="evenodd" d="M13 10C11.3431 10 10 11.3431 10 13C10 14.6569 11.3431 16 13 16C23.4934 16 32 24.5066 32 35C32 36.6569 33.3431 38 35 38C36.6569 38 38 36.6569 38 35C38 21.1929 26.8071 10 13 10ZM10 23C10 21.3431 11.3431 20 13 20C21.2843 20 28 26.7157 28 35C28 36.6569 26.6569 38 25 38C23.3431 38 22 36.6569 22 35C22 30.0294 17.9706 26 13 26C11.3431 26 10 24.6569 10 23ZM18 34C18 36.2091 16.2091 38 14 38C11.7909 38 10 36.2091 10 34C10 31.7909 11.7909 30 14 30C16.2091 30 18 31.7909 18 34Z" fill="#576684"/>
</svg>