<!-- Copyright © Ewsgit 2022. -->
<!-- Licensed under the MIT License - https://ewsgit.github.io/devdash/copyright -->

<svg xmlns="http://www.w3.org/2000/svg" width="48" height="48" fill="none" viewBox="0 0 48 48"><path fill="#ACB4C9" d="M4.45248 8.62382C4.64517 6.38804 6.2854 4.71471 8.51994 4.50814C11.2533 4.25546 15.7977 4 23 4C30.2023 4 34.7467 4.25546 37.4801 4.50814C39.7146 4.71471 41.3548 6.38804 41.5475 8.62382C41.7737 11.2487 42 15.499 42 22C42 28.501 41.7737 32.7513 41.5475 35.3762C41.3548 37.612 39.7146 39.2853 37.4801 39.4919C34.7467 39.7445 30.2023 40 23 40C15.7977 40 11.2533 39.7445 8.51994 39.4919C6.2854 39.2853 4.64517 37.612 4.45248 35.3762C4.22626 32.7513 4 28.501 4 22C4 15.499 4.22626 11.2487 4.45248 8.62382Z"/><path fill="#576684" fill-rule="evenodd" d="M41.7749 12H4.22461C4.29404 10.6581 4.37314 9.5416 4.45224 8.62382C4.64493 6.38804 6.28516 4.71471 8.5197 4.50814C11.253 4.25546 15.7974 4 22.9998 4C30.2021 4 34.7465 4.25546 37.4798 4.50814C39.7144 4.71471 41.3546 6.38804 41.5473 8.62382C41.6264 9.5416 41.7055 10.6581 41.7749 12Z" clip-rule="evenodd"/><path fill="#576684" d="M10 18.597C10 17.8191 10.5933 17.1755 11.3702 17.1364C12.6132 17.0738 14.7019 17 17.6364 17C20.1977 17 21.7925 17.0563 22.745 17.1121C23.4727 17.1549 24 17.7541 24 18.483V19.517C24 20.2459 23.4727 20.8451 22.745 20.8879C21.7925 20.9437 20.1977 21 17.6364 21C14.7019 21 12.6132 20.9262 11.3702 20.8636C10.5933 20.8245 10 20.1809 10 19.403V18.597Z"/><path fill="#576684" d="M10 26.4255C10 25.7224 10.4925 25.1365 11.1937 25.0854C11.8226 25.0396 12.7329 25 14 25C15.2671 25 16.1774 25.0396 16.8063 25.0854C17.5075 25.1365 18 25.7224 18 26.4255V27.5745C18 28.2776 17.5075 28.8635 16.8063 28.9146C16.1774 28.9604 15.2671 29 14 29C12.7329 29 11.8226 28.9604 11.1937 28.9146C10.4925 28.8635 10 28.2776 10 27.5745V26.4255Z"/><path fill="#576684" d="M27.033 44.7664C24.1151 44.5626 22.3155 42.1054 23.38 39.3809C24.0464 37.6753 25.0346 35.454 26.5 32.6168C28.0297 29.6552 29.386 27.3647 30.5101 25.6313C32.2719 22.9146 35.7281 22.9146 37.4899 25.6313C38.614 27.3647 39.9703 29.6552 41.5 32.6168C42.9654 35.454 43.9536 37.6753 44.62 39.3809C45.6845 42.1054 43.8849 44.5626 40.967 44.7664C39.0975 44.8969 36.7505 45 34 45C31.2495 45 28.9025 44.8969 27.033 44.7664Z"/><path fill="#ACB4C9" fill-rule="evenodd" d="M32.9294 30.103C32.2685 30.2478 31.9538 30.9055 32.0055 31.5801C32.1013 32.8315 32.2741 34.8746 32.4614 36.0719C32.5307 36.5152 32.8067 36.8877 33.2504 36.9543C33.4308 36.9814 33.6541 37 33.9271 37C34.2 37 34.4233 36.9814 34.6037 36.9543C35.0474 36.8877 35.3234 36.5152 35.3927 36.0719C35.58 34.8746 35.7528 32.8315 35.8486 31.5801C35.9003 30.9055 35.5856 30.2478 34.9247 30.103C34.649 30.0426 34.3165 30 33.9271 30C33.5377 30 33.2051 30.0426 32.9294 30.103ZM33.9024 41.5504C34.7723 41.5504 35.4774 40.8452 35.4774 39.9754C35.4774 39.1055 34.7723 38.4004 33.9024 38.4004C33.0326 38.4004 32.3274 39.1055 32.3274 39.9754C32.3274 40.8452 33.0326 41.5504 33.9024 41.5504Z" clip-rule="evenodd"/></svg>