<!-- Copyright © Ewsgit 2022. -->
<!-- Licensed under the MIT License - https://ewsgit.github.io/devdash/copyright -->

<svg width="48" height="48" viewBox="0 0 48 48" fill="none" xmlns="http://www.w3.org/2000/svg">
<path d="M26.1416 3.06042C26.1416 3.06042 28.4539 3.95 32.7039 8.225C36.9383 12.4843 37.8263 14.8143 37.8328 14.8313C37.936 16.8609 38 19.2345 38 22C38 30.2512 37.43 35.014 36.9501 37.5616C36.6419 39.1983 35.3722 40.3201 33.7258 40.4988C31.5032 40.74 27.5813 41 21 41C14.4187 41 10.4968 40.74 8.27425 40.4988C6.62776 40.3201 5.35814 39.1983 5.04986 37.5616C4.56998 35.014 4 30.2512 4 22C4 13.7488 4.56998 8.98604 5.04986 6.43837C5.35814 4.8017 6.62775 3.67991 8.27424 3.5012C10.4968 3.25997 14.4187 3 21 3C22.9358 3 24.6416 3.02253 26.1416 3.06042Z" fill="#ACB4C9"/>
<path d="M37.8332 14.8315C35.1136 15.5195 31.9027 15.5652 29.1293 14.713C27.9568 14.3527 27.0426 13.4339 26.6469 12.2667C25.661 9.35909 25.4175 5.80002 26.142 3.06055C26.142 3.06055 28.4543 3.95013 32.7043 8.22513C36.9543 12.5001 37.8332 14.8315 37.8332 14.8315Z" fill="#576684"/>
<path fill-rule="evenodd" clip-rule="evenodd" d="M30.7305 19.0974C31.3056 18.8175 31.8484 19.1752 32.1679 19.7333C32.3508 20.0528 32.5769 20.4589 32.8351 20.9455C33.2049 21.6426 33.6505 22.5231 33.9913 23.2043C34.0771 23.2023 34.1634 23.2013 34.25 23.2013C34.3367 23.2013 34.4229 23.2023 34.5088 23.2043C34.8496 22.5231 35.2952 21.6426 35.665 20.9455C35.9232 20.4589 36.1493 20.0528 36.3322 19.7333C36.6517 19.1752 37.1945 18.8175 37.7696 19.0974C37.8939 19.1579 38.0314 19.2338 38.1826 19.3288C38.3338 19.4238 38.463 19.5154 38.5732 19.6022C39.0836 20.0042 39.0703 20.6946 38.7858 21.2747C38.623 21.6069 38.4127 22.0229 38.1546 22.5094C37.9555 22.8846 37.7251 23.3071 37.4967 23.7204C40.0818 24.6064 41.9733 26.5787 42.7089 29.2649C42.8005 29.2397 42.8903 29.2154 42.9772 29.1921C43.5039 29.0509 43.9404 28.9466 44.2702 28.8729C44.7293 28.7704 45.1997 28.8909 45.3928 29.3199C45.4716 29.4949 45.5533 29.7185 45.6295 30.0032C45.7058 30.2879 45.7469 30.5225 45.7662 30.7134C45.8134 31.1814 45.4663 31.521 45.0175 31.6617C44.695 31.7629 44.2649 31.8907 43.7381 32.0319C43.5243 32.0892 43.2926 32.1492 43.0554 32.2093C43.0649 32.7654 43.07 33.3555 43.07 33.9813C43.07 34.0734 43.0699 34.1646 43.0697 34.2551C43.4413 34.2484 43.8148 34.2438 44.148 34.2438C44.6933 34.2438 45.1419 34.256 45.4796 34.2702C45.9495 34.29 46.3727 34.5282 46.4482 34.9925C46.479 35.1819 46.5 35.4191 46.5 35.7138C46.5 36.0085 46.479 36.2457 46.4482 36.4351C46.3727 36.8994 45.9495 37.1376 45.4795 37.1574C45.1419 37.1716 44.6933 37.1838 44.148 37.1838C43.7916 37.1838 43.389 37.1786 42.9919 37.171C42.922 37.8506 42.7854 38.4954 42.5881 39.1009C42.9833 39.1986 43.3849 39.3005 43.7381 39.3952C44.2649 39.5363 44.695 39.6642 45.0175 39.7653C45.4663 39.9061 45.8134 40.2457 45.7662 40.7137C45.7469 40.9046 45.7058 41.1392 45.6295 41.4239C45.5533 41.7085 45.4716 41.9322 45.3928 42.1072C45.1997 42.5361 44.7293 42.6567 44.2702 42.5541C43.9404 42.4805 43.5039 42.3762 42.9772 42.235C42.4184 42.0853 41.7456 41.8908 41.1693 41.7206C39.6034 43.6395 37.1625 44.7613 34.25 44.7613C31.3374 44.7613 28.8965 43.6394 27.3306 41.7205C26.7543 41.8907 26.0816 42.0852 25.5228 42.2349C24.9961 42.376 24.5596 42.4804 24.2298 42.554C23.7707 42.6566 23.3003 42.536 23.1072 42.107C23.0284 41.9321 22.9467 41.7084 22.8705 41.4237C22.7942 41.139 22.7531 40.9045 22.7338 40.7136C22.6866 40.2456 23.0337 39.906 23.4825 39.7652C23.805 39.6641 24.2351 39.5362 24.7619 39.3951C25.1151 39.3004 25.5166 39.1985 25.9119 39.1008C25.7145 38.4953 25.578 37.8505 25.508 37.1709C25.111 37.1785 24.7084 37.1837 24.352 37.1837C23.8067 37.1837 23.3581 37.1715 23.0205 37.1573C22.5505 37.1375 22.1273 36.8993 22.0518 36.435C22.021 36.2456 22 36.0084 22 35.7137C22 35.419 22.021 35.1817 22.0518 34.9924C22.1273 34.5281 22.5505 34.2899 23.0204 34.2701C23.3581 34.2559 23.8067 34.2437 24.352 34.2437C24.6852 34.2437 25.0587 34.2482 25.4303 34.255C25.4301 34.1646 25.43 34.0733 25.43 33.9813C25.43 33.3554 25.4351 32.7653 25.4446 32.2092C25.2074 32.149 24.9757 32.0891 24.7619 32.0318C24.2351 31.8906 23.805 31.7627 23.4825 31.6616C23.0337 31.5209 22.6866 31.1813 22.7338 30.7133C22.7531 30.5224 22.7942 30.2878 22.8705 30.0031C22.9467 29.7184 23.0284 29.4947 23.1072 29.3198C23.3003 28.8908 23.7707 28.7703 24.2298 28.8728C24.5596 28.9465 24.9961 29.0508 25.5228 29.1919C25.6097 29.2152 25.6995 29.2396 25.7912 29.2648C26.5268 26.5786 28.4183 24.6064 31.0033 23.7204C30.775 23.3071 30.5446 22.8846 30.3455 22.5094C30.0874 22.0229 29.8771 21.6069 29.7143 21.2747C29.4298 20.6946 29.4165 20.0042 29.9269 19.6022C30.0371 19.5154 30.1663 19.4238 30.3175 19.3288C30.4687 19.2338 30.6062 19.1579 30.7305 19.0974Z" fill="#576684"/>
<path fill-rule="evenodd" clip-rule="evenodd" d="M32.7797 32.0819C32.7797 31.5203 32.3172 31.0677 31.7561 31.0917C30.9086 31.1281 30.1608 31.1816 29.5044 31.245C29.1678 31.2775 28.8678 31.4814 28.7464 31.797C28.4993 32.4391 28.3672 33.1389 28.3754 33.8746C28.386 34.8333 28.4128 35.8288 28.4648 36.7911C28.5825 38.9674 29.8138 40.6566 31.6376 41.4022C32.2126 41.6373 32.7797 41.1604 32.7797 40.5392V32.0819ZM35.7197 40.5392C35.7197 41.1604 36.2869 41.6373 36.8619 41.4022C38.6856 40.6566 39.9169 38.9674 40.0346 36.7911C40.0866 35.8289 40.1135 34.8334 40.1241 33.8747C40.1323 33.1389 40.0002 32.4391 39.7531 31.797C39.6316 31.4814 39.3317 31.2775 38.9951 31.245C38.3386 31.1816 37.5908 31.1281 36.7434 31.0917C36.1823 31.0677 35.7197 31.5203 35.7197 32.0819V40.5392Z" fill="#ACB4C9"/>
</svg>