<!-- Copyright © Ewsgit 2022. -->
<!-- Licensed under the MIT License - https://ewsgit.github.io/devdash/copyright -->

<svg width="48" height="48" viewBox="0 0 48 48" fill="none" xmlns="http://www.w3.org/2000/svg">
<path d="M4.45248 8.62382C4.64517 6.38804 6.2854 4.71471 8.51994 4.50814C11.2533 4.25546 15.7977 4 23 4C30.2023 4 34.7467 4.25546 37.4801 4.50814C39.7146 4.71471 41.3548 6.38804 41.5475 8.62382C41.7737 11.2487 42 15.499 42 22C42 28.501 41.7737 32.7513 41.5475 35.3762C41.3548 37.612 39.7146 39.2853 37.4801 39.4919C34.7467 39.7445 30.2023 40 23 40C15.7977 40 11.2533 39.7445 8.51994 39.4919C6.2854 39.2853 4.64517 37.612 4.45248 35.3762C4.22626 32.7513 4 28.501 4 22C4 15.499 4.22626 11.2487 4.45248 8.62382Z" fill="#ACB4C9"/>
<path fill-rule="evenodd" clip-rule="evenodd" d="M41.7749 12H4.22461C4.29404 10.6581 4.37314 9.5416 4.45224 8.62382C4.64493 6.38804 6.28516 4.71471 8.5197 4.50814C11.253 4.25546 15.7974 4 22.9998 4C30.2021 4 34.7465 4.25546 37.4798 4.50814C39.7144 4.71471 41.3546 6.38804 41.5473 8.62382C41.6264 9.5416 41.7055 10.6581 41.7749 12Z" fill="#576684"/>
<path d="M10 18.597C10 17.8191 10.5933 17.1755 11.3702 17.1364C12.6132 17.0738 14.7019 17 17.6364 17C20.1977 17 21.7925 17.0563 22.745 17.1121C23.4727 17.1549 24 17.7541 24 18.483V19.517C24 20.2459 23.4727 20.8451 22.745 20.8879C21.7925 20.9437 20.1977 21 17.6364 21C14.7019 21 12.6132 20.9262 11.3702 20.8636C10.5933 20.8245 10 20.1809 10 19.403V18.597Z" fill="#576684"/>
<path d="M10 26.4255C10 25.7224 10.4925 25.1365 11.1937 25.0854C11.8226 25.0396 12.7329 25 14 25C15.2671 25 16.1774 25.0396 16.8063 25.0854C17.5075 25.1365 18 25.7224 18 26.4255V27.5745C18 28.2776 17.5075 28.8635 16.8063 28.9146C16.1774 28.9604 15.2671 29 14 29C12.7329 29 11.8226 28.9604 11.1937 28.9146C10.4925 28.8635 10 28.2776 10 27.5745V26.4255Z" fill="#576684"/>
<path fill-rule="evenodd" clip-rule="evenodd" d="M30.427 18.8033C31.0034 18.5268 31.5457 18.8858 31.8655 19.4437C32.0539 19.7724 32.288 20.1927 32.5562 20.698C32.9337 21.4095 33.3885 22.3082 33.7363 23.0034C33.8238 23.0014 33.9117 23.0004 34 23.0004C34.0883 23.0004 34.1762 23.0014 34.2637 23.0034C34.6115 22.3082 35.0663 21.4095 35.4438 20.698C35.712 20.1927 35.9461 19.7724 36.1345 19.4437C36.4543 18.8858 36.9966 18.5268 37.573 18.8033C37.7046 18.8665 37.851 18.9467 38.0128 19.0483C38.1745 19.1499 38.3115 19.2477 38.4275 19.3401C38.9359 19.745 38.9213 20.4356 38.6371 21.0159C38.4697 21.3578 38.2523 21.7885 37.9841 22.2939C37.7809 22.6768 37.5457 23.108 37.3127 23.5299C39.6477 24.3301 41.4282 25.9989 42.3269 28.2727C42.527 28.2166 42.7222 28.1628 42.9053 28.1137C43.4506 27.9676 43.901 27.8602 44.2392 27.7848C44.6984 27.6825 45.1691 27.8027 45.3641 28.2307C45.4464 28.4112 45.532 28.6436 45.6118 28.9414C45.6916 29.2392 45.7336 29.4833 45.7527 29.6807C45.7978 30.1489 45.4502 30.4883 45.0014 30.6293C44.6709 30.7332 44.227 30.8654 43.6818 31.0115C43.4551 31.0722 43.2089 31.1359 42.957 31.1996C42.9645 31.3255 42.9697 31.4525 42.9727 31.5806C42.9853 32.1137 42.9939 32.6796 42.9977 33.2801C43.3776 33.2732 43.7595 33.2685 44.1 33.2685C44.6645 33.2685 45.1274 33.2814 45.4736 33.2961C45.9436 33.3162 46.3671 33.554 46.4447 34.018C46.4775 34.2136 46.5 34.4602 46.5 34.7686C46.5 35.0769 46.4775 35.3235 46.4447 35.5191C46.3671 35.9831 45.9435 36.2209 45.4736 36.241C45.1274 36.2557 44.6645 36.2685 44.1 36.2685C43.7531 36.2685 43.3633 36.2637 42.9764 36.2566C42.9752 36.3114 42.974 36.366 42.9727 36.4202C42.9574 37.071 42.8847 37.6945 42.759 38.2871C43.0791 38.3672 43.396 38.4485 43.6818 38.5251C44.227 38.6712 44.6709 38.8034 45.0014 38.9072C45.4502 39.0482 45.7978 39.3876 45.7527 39.8558C45.7336 40.0532 45.6916 40.2973 45.6118 40.5951C45.532 40.893 45.4464 41.1253 45.3641 41.3058C45.1691 41.7339 44.6984 41.854 44.2392 41.7517C43.901 41.6764 43.4506 41.5689 42.9053 41.4228C42.5186 41.3192 42.0783 41.1946 41.6515 41.0709C40.1189 43.5296 37.3686 45.0004 34 45.0004C30.6314 45.0004 27.8811 43.5296 26.3485 41.0709C25.9217 41.1946 25.4814 41.3192 25.0947 41.4228C24.5494 41.5689 24.099 41.6764 23.7608 41.7517C23.3016 41.854 22.8309 41.7339 22.6359 41.3058C22.5536 41.1253 22.468 40.893 22.3882 40.5951C22.3084 40.2973 22.2664 40.0532 22.2473 39.8558C22.2022 39.3876 22.5498 39.0482 22.9986 38.9072C23.3291 38.8034 23.773 38.6712 24.3182 38.5251C24.604 38.4485 24.9209 38.3672 25.241 38.2871C25.1153 37.6945 25.0426 37.071 25.0273 36.4202C25.026 36.366 25.0248 36.3114 25.0236 36.2566C24.6367 36.2637 24.2469 36.2685 23.9 36.2685C23.3355 36.2685 22.8726 36.2557 22.5264 36.241C22.0565 36.2209 21.6329 35.9831 21.5552 35.5191C21.5225 35.3235 21.5 35.0769 21.5 34.7686C21.5 34.4602 21.5225 34.2136 21.5553 34.018C21.6329 33.554 22.0564 33.3162 22.5264 33.2961C22.8726 33.2814 23.3355 33.2685 23.9 33.2685C24.2405 33.2685 24.6224 33.2732 25.0023 33.2801C25.0061 32.6796 25.0147 32.1137 25.0273 31.5806C25.0303 31.4525 25.0355 31.3255 25.043 31.1996C24.7911 31.1359 24.5449 31.0722 24.3182 31.0115C23.773 30.8654 23.3291 30.7332 22.9986 30.6293C22.5498 30.4883 22.2022 30.1489 22.2473 29.6807C22.2664 29.4833 22.3084 29.2392 22.3882 28.9414C22.468 28.6436 22.5536 28.4112 22.6359 28.2307C22.8309 27.8027 23.3016 27.6825 23.7608 27.7848C24.099 27.8602 24.5494 27.9676 25.0947 28.1137C25.2778 28.1628 25.473 28.2166 25.6731 28.2727C26.5718 25.9989 28.3523 24.3301 30.6873 23.5299C30.4543 23.108 30.2191 22.6768 30.0159 22.2939C29.7477 21.7885 29.5303 21.3578 29.3629 21.0159C29.0787 20.4356 29.0641 19.745 29.5725 19.3401C29.6885 19.2477 29.8255 19.1499 29.9872 19.0483C30.149 18.9467 30.2954 18.8665 30.427 18.8033Z" fill="#576684"/>
<path fill-rule="evenodd" clip-rule="evenodd" d="M32.5005 32.042C32.5005 31.4804 32.038 31.0279 31.4769 31.0517C30.5988 31.089 29.8253 31.1444 29.1474 31.21C28.8108 31.2426 28.5109 31.4465 28.3888 31.7619C28.1341 32.4199 27.9979 33.1375 28.0062 33.8923C28.0171 34.8705 28.0444 35.8864 28.0975 36.8683C28.2181 39.098 29.4842 40.8266 31.3576 41.5827C31.9336 41.8151 32.5005 41.3384 32.5005 40.7172V32.042ZM35.5005 40.7172C35.5005 41.3384 36.0673 41.8151 36.6434 41.5826C38.5168 40.8265 39.7828 39.098 39.9034 36.8683C39.9565 35.8865 39.9839 34.8706 39.9947 33.8924C40.0031 33.1377 39.8669 32.4201 39.6122 31.7621C39.4902 31.4467 39.1903 31.2428 38.8537 31.2102C38.1758 31.1445 37.4023 31.0891 36.5241 31.0518C35.963 31.0279 35.5005 31.4805 35.5005 32.0421V40.7172Z" fill="#ACB4C9"/>
</svg>