<!-- Copyright © Ewsgit 2022. -->
<!-- Licensed under the MIT License - https://ewsgit.github.io/devdash/copyright -->

<svg width="49" height="48" viewBox="0 0 49 48" fill="none" xmlns="http://www.w3.org/2000/svg">
<path fill-rule="evenodd" clip-rule="evenodd" d="M36.4152 14.3743C41.7698 15.3047 45.5 19.3053 45.5 25C45.5 31.3285 40.8933 35.5648 34.57 35.8204C31.9114 35.9278 28.5996 36 24.5 36C20.4004 36 17.0886 35.9278 14.43 35.8204C8.10674 35.5648 3.5 31.3285 3.5 25C3.5 19.3053 7.23022 15.3047 12.5848 14.3743C13.2257 8.33698 17.4584 4.04741 23.7827 4.00252C24.017 4.00086 24.2561 4 24.5 4C24.744 4 24.983 4.00086 25.2173 4.00252C31.5416 4.04741 35.7743 8.33698 36.4152 14.3743Z" fill="#ACB4C9"/>
</svg>