<!-- Copyright © Ewsgit 2022. -->
<!-- Licensed under the MIT License - https://ewsgit.github.io/devdash/copyright -->

<svg width="48" height="48" viewBox="0 0 48 48" fill="none" xmlns="http://www.w3.org/2000/svg">
<path fill-rule="evenodd" clip-rule="evenodd" d="M17.4144 3.66292C18.1703 3.35981 18.8772 3.84017 19.3077 4.53145C19.6106 5.01783 20.0039 5.6664 20.4641 6.46344C20.7676 6.98909 21.1043 7.58648 21.4334 8.17722C22.2611 8.05967 23.1179 7.99935 24 7.99935C24.8821 7.99935 25.7389 8.05967 26.5666 8.17722C26.8957 7.58648 27.2324 6.98909 27.5359 6.46344C27.9961 5.6664 28.3894 5.01783 28.6923 4.53145C29.1228 3.84017 29.8297 3.35981 30.5856 3.66292C30.7868 3.74363 31.0141 3.85276 31.268 3.99935C31.5218 4.14592 31.7299 4.28811 31.9004 4.42204C32.5409 4.9251 32.4783 5.77752 32.0949 6.49605C31.8252 7.00156 31.4601 7.66644 31 8.46344C30.8529 8.71825 30.6951 8.98826 30.532 9.26497C34.5032 10.9503 37.372 14.2324 38.4712 18.5867C39.1487 18.3937 39.8411 18.2001 40.4527 18.0363C41.3417 17.7981 42.0784 17.6176 42.6365 17.4878C43.4298 17.3035 44.2693 17.4636 44.5894 18.2125C44.6747 18.4118 44.7582 18.6497 44.834 18.9329C44.9099 19.216 44.9565 19.4637 44.9824 19.679C45.0796 20.4876 44.4326 21.0461 43.6534 21.283C43.1052 21.4497 42.3769 21.6618 41.488 21.9C40.7166 22.1066 39.8104 22.3367 38.9658 22.5467C38.9879 23.6179 39 24.7671 39 25.9994C39 26.0078 39 26.0162 39 26.0246C39.7962 26.011 40.6296 26.001 41.3516 26.001C42.2719 26.001 43.0302 26.0173 43.6029 26.0365C44.4168 26.0637 45.1863 26.4357 45.3017 27.2418C45.3325 27.4565 45.3516 27.7078 45.3516 28.001C45.3516 28.2941 45.3325 28.5455 45.3017 28.7601C45.1863 29.5663 44.4168 29.9383 43.6028 29.9655C43.0302 29.9846 42.2719 30.001 41.3516 30.001C40.6152 30.001 39.763 29.9905 38.9525 29.9765C38.9091 31.1548 38.7517 32.2776 38.4898 33.3374C39.4591 33.5764 40.5692 33.8558 41.488 34.102C42.3769 34.3402 43.1052 34.5522 43.6534 34.7189C44.4326 34.9559 45.0796 35.5144 44.9824 36.323C44.9565 36.5383 44.9099 36.786 44.834 37.0691C44.7582 37.3523 44.6747 37.5901 44.5894 37.7895C44.2693 38.5383 43.4298 38.6985 42.6365 38.5141C42.0784 38.3844 41.3417 38.2039 40.4527 37.9657C39.3906 37.6811 38.0849 37.3071 37.0367 37.0018C34.5435 41.3715 29.8224 43.9994 24 43.9994C18.2166 43.9994 13.5198 41.4066 11.0137 37.0894C10.024 37.3764 8.8614 37.7078 7.89886 37.9657C7.00989 38.2039 6.27315 38.3844 5.71504 38.5141C4.9218 38.6985 4.08228 38.5383 3.76213 37.7895C3.67689 37.5901 3.59339 37.3523 3.51751 37.0691C3.44164 36.786 3.39504 36.5383 3.36917 36.323C3.272 35.5144 3.919 34.9559 4.6982 34.7189C5.2464 34.5522 5.97465 34.3402 6.86358 34.102C7.67927 33.8834 8.64576 33.6387 9.53064 33.4192C9.25694 32.3372 9.09256 31.1889 9.04775 29.9823C8.34618 29.9933 7.63059 30.001 7 30.001C6.07971 30.001 5.3214 29.9846 4.74873 29.9655C3.93475 29.9383 3.16524 29.5663 3.04982 28.7601C3.0191 28.5455 3 28.2941 3 28.001C3 27.7078 3.0191 27.4565 3.04983 27.2418C3.16526 26.4357 3.93472 26.0637 4.74865 26.0365C5.32132 26.0173 6.07966 26.001 7 26.001C7.61629 26.001 8.31377 26.0083 9 26.0189C9 26.0124 9 26.0059 9 25.9994C9 24.7336 9.01278 23.5554 9.03597 22.4595C8.29563 22.2742 7.52938 22.0784 6.86358 21.9C5.97465 21.6618 5.2464 21.4497 4.6982 21.283C3.919 21.0461 3.272 20.4876 3.36917 19.679C3.39504 19.4637 3.44164 19.216 3.51751 18.9329C3.59339 18.6497 3.67689 18.4118 3.76213 18.2125C4.08228 17.4636 4.9218 17.3035 5.71504 17.4878C6.27315 17.6176 7.00988 17.7981 7.89886 18.0363C8.41208 18.1738 8.98218 18.3322 9.55262 18.4936C10.669 14.1856 13.5251 10.9383 17.468 9.26497C17.3049 8.98826 17.1471 8.71825 17 8.46344C16.5399 7.66644 16.1748 7.00156 15.9051 6.49605C15.5217 5.77752 15.4591 4.9251 16.0996 4.42204C16.2701 4.28811 16.4782 4.14592 16.732 3.99935C16.9859 3.85276 17.2132 3.74363 17.4144 3.66292Z" fill="#576684"/>
<path fill-rule="evenodd" clip-rule="evenodd" d="M22 22.0372C22 20.9228 21.0887 20.0217 19.9748 20.0515C18.188 20.0994 16.5969 20.178 15.1832 20.2768C14.231 20.3434 13.4714 21.0898 13.3818 22.0401C13.1691 24.2965 12.9816 26.9449 12.9409 29.5487C12.8662 34.3237 15.6521 37.8713 19.7503 39.3036C20.9035 39.7066 22 38.757 22 37.5354V22.0372ZM26 37.5353C26 38.7568 27.0965 39.7065 28.2497 39.3035C32.3478 37.8711 35.1334 34.3235 35.0587 29.5487C35.018 26.9449 34.8305 24.2965 34.6178 22.0401C34.5282 21.0897 33.7687 20.3433 32.8164 20.2768C31.4029 20.178 29.8118 20.0994 28.0252 20.0515C26.9113 20.0217 26 20.9228 26 22.0372V37.5353Z" fill="#ACB4C9"/>
</svg>