<!-- Copyright © Ewsgit 2022. -->
<!-- Licensed under the MIT License - https://ewsgit.github.io/devdash/copyright -->

<svg width="49" height="48" viewBox="0 0 49 48" fill="none" xmlns="http://www.w3.org/2000/svg">
<path fill-rule="evenodd" clip-rule="evenodd" d="M36.4152 15.3743C41.7698 16.3047 45.5 20.3053 45.5 26C45.5 32.3285 40.8933 36.5648 34.57 36.8204C31.9114 36.9278 28.5996 37 24.5 37C20.4004 37 17.0886 36.9278 14.43 36.8204C8.10674 36.5648 3.5 32.3285 3.5 26C3.5 20.3053 7.23022 16.3047 12.5848 15.3743C13.2257 9.33698 17.4584 5.04741 23.7827 5.00252C24.017 5.00086 24.2561 5 24.5 5C24.744 5 24.983 5.00086 25.2173 5.00252C31.5416 5.04741 35.7743 9.33698 36.4152 15.3743Z" fill="#ACB4C9"/>
<path fill-rule="evenodd" clip-rule="evenodd" d="M28.2672 31.4889L27.6411 23.4484C27.5491 22.2669 26.9787 21.2103 25.802 21.0697C25.4439 21.0269 25.0143 21 24.5001 21C23.9859 21 23.5563 21.0269 23.1982 21.0697C22.0214 21.2103 21.451 22.2669 21.3589 23.4485L20.7327 31.4894C19.0665 31.5209 17.7299 31.5718 16.6645 31.63C14.7033 31.737 13.8871 33.6017 15.1678 35.0909C15.9186 35.964 16.8878 37.0354 18.1278 38.3208C20.2815 40.5531 21.8903 41.8175 22.9544 42.522C23.9215 43.1624 25.1053 43.1625 26.0725 42.5222C27.1367 41.8177 28.7455 40.5532 30.899 38.3208C32.1384 37.0358 33.1073 35.9647 33.858 35.0917C35.1389 33.6023 34.3226 31.737 32.361 31.6299C31.2902 31.5715 29.9454 31.5203 28.2672 31.4889Z" fill="#576684"/>
</svg>