<!-- Copyright © Ewsgit 2022. -->
<!-- Licensed under the MIT License - https://ewsgit.github.io/devdash/copyright -->

<svg width="48" height="48" viewBox="0 0 48 48" fill="none" xmlns="http://www.w3.org/2000/svg">
<path d="M4.91238 23.4559C5.60065 23.0736 6.65577 22.536 8 21.9983C8 21.9983 9.65279 17.0399 11.6145 12.7674C12.4252 11.0016 14.1444 9.87091 16.0809 9.71163C20.9946 9.30745 30.9584 8.70315 39.8349 9.49974C42.345 9.72501 44.3112 11.6458 44.5616 14.1535C44.7895 16.435 45 19.5982 45 23.4983C45 27.8385 44.7393 31.527 44.4841 34.0976C44.2481 36.4747 42.4829 38.2882 40.1026 38.4896C37.1145 38.7425 32.0919 38.9983 24 38.9983C15.3 38.9983 10.148 38.7026 7.2578 38.4328C5.21528 38.2421 3.60246 36.8126 3.30668 34.7826C3.13547 33.6076 3 32.1545 3 30.4983C3 27.805 3.35821 26.0072 3.64585 24.9978C3.83661 24.3283 4.3038 23.7939 4.91238 23.4559Z" fill="#ACB4C9"/>
<circle cx="15" cy="38" r="6" fill="#576684"/>
<circle cx="34" cy="38" r="6" fill="#576684"/>
<path d="M14.5645 13.9894C14.895 13.3312 15.5262 12.8976 16.2534 12.7809C18.6435 12.3974 20.6773 12.5773 21.8691 12.767C22.5749 12.8793 23.1168 13.4251 23.2287 14.131C23.6025 16.4887 23.416 18.9911 23.226 20.5247C23.117 21.4037 22.3948 22.0578 21.5108 22.1121C18.4 22.3033 15.5946 22.2049 13.9687 22.1084C13.1514 22.0599 12.55 21.3422 12.661 20.531C13.0986 17.3304 13.9816 15.1499 14.5645 13.9894Z" fill="#576684"/>
</svg>