<!-- Copyright © Ewsgit 2022. -->
<!-- Licensed under the MIT License - https://ewsgit.github.io/devdash/copyright -->

<svg width="48" height="48" viewBox="0 0 48 48" fill="none" xmlns="http://www.w3.org/2000/svg">
<path d="M3 25C3 23.6599 3.28053 22.3153 3.98699 21.1765C4.66752 20.0795 5.77564 18.5349 7.5 16.7081C8.97534 15.145 10.1403 14.107 10.9944 13.4292C12.0954 12.5553 13.471 12.2025 14.8756 12.1465C17.1311 12.0568 19.8161 12 23 12C31.5854 12 36.5429 12.4127 39.2352 12.773C41.0309 13.0133 42.352 14.3133 42.5715 16.1116C42.7927 17.9236 43 20.7544 43 25C43 29.2456 42.7927 32.0764 42.5715 33.8884C42.352 35.6867 41.0309 36.9867 39.2352 37.227C36.5429 37.5873 31.5853 38 23 38C14.4147 38 9.45714 37.5873 6.76479 37.227C4.96912 36.9867 3.64799 35.6867 3.42848 33.8884C3.20731 32.0764 3 29.2456 3 25Z" fill="#ACB4C9"/>
<path d="M20 37.5C20 40.5376 17.5376 43 14.5 43C11.4624 43 9 40.5376 9 37.5C9 34.4624 11.4624 32 14.5 32C17.5376 32 20 34.4624 20 37.5Z" fill="#576684"/>
<path d="M38 37.5C38 40.5376 35.5376 43 32.5 43C29.4624 43 27 40.5376 27 37.5C27 34.4624 29.4624 32 32.5 32C35.5376 32 38 34.4624 38 37.5Z" fill="#576684"/>
<path d="M19.3057 8.49053C19.4414 7.02858 20.4102 5.88723 21.8574 5.63954C23.6838 5.32696 26.8299 5 32 5C37.1701 5 40.3162 5.32696 42.1426 5.63954C43.5898 5.88723 44.5586 7.02858 44.6943 8.49053C44.8477 10.1441 45 12.8342 45 17C45 21.1658 44.8478 23.8559 44.6943 25.5095C44.5586 26.9714 43.5898 28.1128 42.1426 28.3605C40.3162 28.673 37.1701 29 32 29C26.8299 29 23.6838 28.673 21.8574 28.3605C20.4102 28.1128 19.4414 26.9714 19.3057 25.5095C19.1523 23.8559 19 21.1658 19 17C19 12.8342 19.1523 10.1441 19.3057 8.49053Z" fill="#576684"/>
<path d="M8.14583 22.4505C8.10068 22.1141 8.13299 21.7459 8.28129 21.4406C8.56081 20.8651 9.1911 19.807 10.4993 18.4989C11.7231 17.275 12.7148 16.6578 13.3002 16.363C13.6714 16.1761 14.1618 16.1525 14.5679 16.2411C15.4284 16.4288 15.9041 17.1578 15.9511 18.0373C15.9786 18.5519 15.9992 19.2373 15.9992 20.1361C15.9992 20.8005 15.988 21.3484 15.971 21.7967C15.9271 22.955 15.1789 23.8388 14.0235 23.931C13.5179 23.9713 12.8815 23.9989 12.0857 23.9989C10.9264 23.9989 10.1051 23.9405 9.53428 23.8691C8.77303 23.7739 8.24787 23.2109 8.14583 22.4505Z" fill="#576684"/>
</svg>