<!-- Copyright © Ewsgit 2022. -->
<!-- Licensed under the MIT License - https://ewsgit.github.io/devdash/copyright -->

<svg xmlns="http://www.w3.org/2000/svg" width="48" height="48" fill="none" viewBox="0 0 48 48"><path fill="#ACB4C9" d="M43.8347 17.0024L38.8682 8.48839C38.3306 7.56673 37.3439 7 36.2769 7H11.7231C10.6561 7 9.66941 7.56673 9.13177 8.48839L4.16529 17.0024C3.4786 18.1795 3.67165 19.6716 4.6353 20.6353L22.5858 38.5858C23.3668 39.3668 24.6332 39.3668 25.4142 38.5858L43.3647 20.6353C44.3284 19.6716 44.5214 18.1795 43.8347 17.0024Z"/><path fill="#576684" fill-rule="evenodd" d="M22.4199 38.4206L22.5852 38.5858C22.8139 38.8145 23.0843 38.9763 23.3719 39.071L22.4199 38.4206ZM24.1461 39.1662C24.608 39.1324 25.0604 38.939 25.4136 38.5858L43.3641 20.6353C44.3277 19.6716 44.5208 18.1795 43.8341 17.0024L38.8676 8.48839C38.33 7.56673 37.3433 7 36.2763 7H28.9994L32.6339 17.9036C32.8691 18.6093 32.8338 19.3771 32.5348 20.0582L24.1461 39.1662Z" clip-rule="evenodd"/><path fill="#576684" fill-rule="evenodd" d="M25.5801 38.4206L25.4148 38.5858C25.1861 38.8145 24.9157 38.9763 24.6281 39.071L25.5801 38.4206ZM23.8539 39.1662C23.392 39.1324 22.9396 38.939 22.5864 38.5858L4.63593 20.6353C3.67228 19.6716 3.47923 18.1795 4.16592 17.0024L9.13241 8.48839C9.67004 7.56673 10.6567 7 11.7237 7H19.0006L15.3661 17.9036C15.1309 18.6093 15.1662 19.3771 15.4652 20.0582L23.8539 39.1662Z" clip-rule="evenodd"/></svg>