<!-- Copyright © Ewsgit 2022. -->
<!-- Licensed under the MIT License - https://ewsgit.github.io/devdash/copyright -->

<svg width="48" height="48" viewBox="0 0 48 48" fill="none" xmlns="http://www.w3.org/2000/svg">
<path d="M33.739 3.39533C36.141 3.63635 37.9055 5.34441 38.2166 7.73833C38.6024 10.7061 39 15.7627 39 24C39 32.2373 38.6024 37.2939 38.2166 40.2617C37.9055 42.6556 36.141 44.3637 33.739 44.6047C31.6398 44.8153 28.5125 45 24 45C19.4875 45 16.3602 44.8153 14.261 44.6047C11.859 44.3637 10.0945 42.6556 9.78336 40.2617C9.39757 37.2939 9 32.2373 9 24C9 15.7627 9.39758 10.7061 9.78336 7.73833C10.0945 5.34441 11.859 3.63635 14.261 3.39533C16.3602 3.18469 19.4875 3 24 3C28.5125 3 31.6398 3.18469 33.739 3.39533Z" fill="#ACB4C9"/>
<path d="M14.1687 29.305C14.2834 31.0276 15.405 32.3655 17.1142 32.608C18.5886 32.8173 20.794 33 24 33C27.206 33 29.4114 32.8173 30.8858 32.608C32.595 32.3655 33.7167 31.0276 33.8313 29.305C33.9232 27.9232 34 25.9008 34 23C34 20.0992 33.9232 18.0767 33.8313 16.695C33.7166 14.9724 32.595 13.6345 30.8858 13.392C29.4114 13.1827 27.206 13 24 13C20.794 13 18.5886 13.1827 17.1142 13.392C15.405 13.6345 14.2834 14.9724 14.1687 16.695C14.0768 18.0767 14 20.0992 14 23C14 25.9008 14.0768 27.9233 14.1687 29.305Z" fill="#576684"/>
<path fill-rule="evenodd" clip-rule="evenodd" d="M29.86 3.12256L29.4693 6.24807C29.3442 7.24893 28.4934 8 27.4847 8H20.5159C19.5072 8 18.6564 7.24893 18.5313 6.24807L18.1406 3.12256C19.7665 3.04782 21.7041 3 24.0003 3C26.2965 3 28.2341 3.04782 29.86 3.12256Z" fill="#576684"/>
<path d="M19 39.5C19 38.6716 19.6716 38 20.5 38H27.5C28.3284 38 29 38.6716 29 39.5C29 40.3284 28.3284 41 27.5 41H20.5C19.6716 41 19 40.3284 19 39.5Z" fill="#576684"/>
</svg>