<!-- Copyright © Ewsgit 2022. -->
<!-- Licensed under the MIT License - https://ewsgit.github.io/devdash/copyright -->

<svg width="48" height="48" viewBox="0 0 48 48" fill="none" xmlns="http://www.w3.org/2000/svg">
<path d="M14 5.71429C14 4.76751 14.7675 4 15.7143 4H32.2857C33.2325 4 34 4.76751 34 5.71429V6C34 11.5228 29.5228 16 24 16C18.4772 16 14 11.5228 14 6V5.71429Z" fill="#ACB4C9"/>
<path d="M42 32C42 40.8366 33.9411 44 24 44C14.0589 44 6 40.8366 6 32C6 23.1634 14.0589 12 24 12C33.9411 12 42 23.1634 42 32Z" fill="#ACB4C9"/>
<path fill-rule="evenodd" clip-rule="evenodd" d="M28.4505 20.0434C27.9758 19.8961 27.4828 20.1372 27.2198 20.559L18.7931 34.0748C18.5941 34.39 18.4198 34.6803 18.2705 34.9458C18.1378 35.2112 18.0714 35.4767 18.0714 35.7422C18.0714 36.1238 18.2788 36.439 18.6936 36.6878C18.9417 36.8214 19.2226 36.9248 19.5365 36.998C19.9907 37.104 20.4413 36.8628 20.6884 36.4672L29.146 22.9256C29.3616 22.5772 29.5358 22.2702 29.6686 22.0048C29.8013 21.7393 29.8677 21.4822 29.8677 21.2333C29.8677 20.8517 29.6354 20.5531 29.1708 20.3374C28.9454 20.2205 28.7053 20.1225 28.4505 20.0434ZM22.0135 23.9582C22.0135 25.2025 21.6402 26.1731 20.8936 26.8699C20.147 27.5668 19.1847 27.9152 18.0067 27.9152C16.8122 27.9152 15.8416 27.5668 15.095 26.8699C14.365 26.1731 14 25.2025 14 23.9582C14 22.7305 14.365 21.7682 15.095 21.0714C15.8416 20.3746 16.8122 20.0261 18.0067 20.0261C19.1847 20.0261 20.147 20.3746 20.8936 21.0714C21.6402 21.7682 22.0135 22.7305 22.0135 23.9582ZM17.0114 23.9585C17.0114 24.4562 17.1027 24.8295 17.2852 25.0784C17.4843 25.3106 17.7248 25.4268 18.0069 25.4268C18.2889 25.4268 18.5212 25.3106 18.7037 25.0784C18.9028 24.8295 19.0023 24.4562 19.0023 23.9585C19.0023 23.4773 18.9028 23.1206 18.7037 22.8883C18.5212 22.6561 18.2889 22.5399 18.0069 22.5399C17.7248 22.5399 17.4843 22.6561 17.2852 22.8883C17.1027 23.1206 17.0114 23.4773 17.0114 23.9585ZM33.9999 33.1788C33.9999 34.4232 33.6266 35.3937 32.88 36.0906C32.1334 36.7874 31.1711 37.1358 29.9932 37.1358C28.7986 37.1358 27.828 36.7874 27.0814 36.0906C26.3514 35.3937 25.9864 34.4232 25.9864 33.1788C25.9864 31.9511 26.3514 30.9888 27.0814 30.292C27.828 29.5952 28.7986 29.2468 29.9932 29.2468C31.1711 29.2468 32.1334 29.5952 32.88 30.292C33.6266 30.9888 33.9999 31.9511 33.9999 33.1788ZM28.9977 33.1787C28.9977 33.6764 29.0889 34.0497 29.2714 34.2986C29.4705 34.5309 29.7111 34.647 29.9932 34.647C30.2752 34.647 30.5075 34.5309 30.69 34.2986C30.8891 34.0497 30.9886 33.6764 30.9886 33.1787C30.9886 32.6976 30.8891 32.3409 30.69 32.1086C30.5075 31.8763 30.2752 31.7602 29.9932 31.7602C29.7111 31.7602 29.4705 31.8763 29.2714 32.1086C29.0889 32.3409 28.9977 32.6976 28.9977 33.1787Z" fill="#576684"/>
</svg>