<!-- Copyright © Ewsgit 2022. -->
<!-- Licensed under the MIT License - https://ewsgit.github.io/devdash/copyright -->

<svg width="48" height="48" viewBox="0 0 48 48" fill="none" xmlns="http://www.w3.org/2000/svg">
<path fill-rule="evenodd" clip-rule="evenodd" d="M11.9994 7C11.9994 7 11.9994 7 11.9994 7L11.9994 7C11.9994 7 6.63412 10.1298 1.8227 14.2753C1.30517 14.7212 1.07787 15.4082 1.32719 16.0442C1.76838 17.1697 2.77324 19.1665 5.00073 21.8465C5.57584 22.5384 6.55386 22.7217 7.3487 22.3001C8.44173 21.7203 10.078 20.8252 11.7983 19.787C11.5498 26.1091 11.0501 31.1578 10.1852 39.2634C10.0793 40.2558 10.7226 41.1613 11.7104 41.3046C13.7381 41.5988 17.6651 42 23.9994 42C30.3338 42 34.2608 41.5988 36.2885 41.3046C37.2763 41.1613 37.9196 40.2558 37.8137 39.2634C36.9488 31.1578 36.4491 26.1091 36.2006 19.7871C37.9209 20.8252 39.5572 21.7203 40.6502 22.3001C41.445 22.7217 42.423 22.5384 42.9981 21.8465C45.2256 19.1665 46.2305 17.1697 46.6717 16.0442C46.921 15.4082 46.6937 14.7212 46.1762 14.2753C41.3648 10.1298 35.9994 7 35.9994 7C35.9994 7 31.9994 6 23.9994 6C16.0034 6 12.0034 6.99901 11.9994 7Z" fill="#ACB4C9"/>
<path fill-rule="evenodd" clip-rule="evenodd" d="M19.002 6.14094C20.4449 6.05576 22.111 6 24 6C25.8891 6 27.5551 6.05576 28.9981 6.14094C28.9234 8.83719 26.7143 11 24 11C21.2857 11 19.0766 8.83719 19.002 6.14094Z" fill="#576684"/>
</svg>