<!-- Copyright © Ewsgit 2022. -->
<!-- Licensed under the MIT License - https://ewsgit.github.io/devdash/copyright -->

<svg width="49" height="48" viewBox="0 0 49 48" fill="none" xmlns="http://www.w3.org/2000/svg">
<path fill-rule="evenodd" clip-rule="evenodd" d="M3.93385 21.2501C3.13419 22.1488 3.49703 23.3715 4.67319 23.6238C5.59417 23.8213 6.86014 24.0417 8.56556 24.2473C8.52502 25.6041 8.50029 27.1784 8.50029 29C8.50029 33.8567 8.67607 36.9548 8.85877 38.8632C9.02639 40.614 10.2213 41.9477 11.9568 42.233C14.213 42.6038 18.117 43 24.5003 43C30.8836 43 34.7876 42.6038 37.0437 42.233C38.7793 41.9477 39.9742 40.614 40.1418 38.8632C40.3245 36.9548 40.5003 33.8567 40.5003 29C40.5003 27.1784 40.4756 25.6043 40.435 24.2475C42.1407 24.0419 43.4069 23.8215 44.3281 23.6239C45.5045 23.3717 45.8673 22.1485 45.0674 21.2498C43.6639 19.6728 41.0541 16.9844 36.501 13.0001C31.2283 8.38613 27.6928 6.37893 25.8953 5.54666C25.0015 5.13283 24.0005 5.13289 23.1068 5.5468C21.3095 6.37915 17.7744 8.38638 12.501 13.0001C7.9467 16.9847 5.33704 19.6733 3.93385 21.2501Z" fill="#ACB4C9"/>
<path fill-rule="evenodd" clip-rule="evenodd" d="M23.3623 17.0762C22.0289 17.0762 20.8556 17.9562 20.4823 19.2362L19.9843 20.9436C18.3773 20.9749 17.1512 21.0211 16.2291 21.069C14.6969 21.1486 13.5193 22.225 13.3922 23.754C13.2839 25.0576 13.1914 26.963 13.1914 29.6696C13.1914 32.6116 13.3007 34.6815 13.4208 36.068C13.5478 37.5344 14.6295 38.6138 16.0963 38.7352C17.732 38.8705 20.3761 39.0002 24.5013 39.0002C28.6266 39.0002 31.2707 38.8705 32.9063 38.7352C34.3732 38.6138 35.4549 37.5344 35.5819 36.068C35.702 34.6815 35.8113 32.6116 35.8113 29.6696C35.8113 26.963 35.7188 25.0576 35.6105 23.754C35.4834 22.225 34.3058 21.1486 32.7736 21.069C31.8515 21.0211 30.6253 20.9749 29.0182 20.9436L28.5202 19.2362C28.1469 17.9562 26.9736 17.0762 25.6402 17.0762H23.3623ZM26.9263 20.9142L26.6002 19.7962C26.4758 19.3695 26.0847 19.0762 25.6402 19.0762H23.3623C22.9178 19.0762 22.5267 19.3695 22.4023 19.7962L22.0762 20.9142C22.8212 20.9074 23.6281 20.9036 24.5013 20.9036C25.3745 20.9036 26.1814 20.9074 26.9263 20.9142Z" fill="#576684"/>
<path fill-rule="evenodd" clip-rule="evenodd" d="M35.7681 26.6523C35.7297 26.6683 35.6905 26.6845 35.6507 26.701C34.7537 27.0722 33.5177 27.5665 32.1601 28.0602C30.8004 28.5547 29.3304 29.0441 27.9629 29.4088C26.5776 29.7782 25.3675 30 24.5018 30C23.6361 30 22.426 29.7782 21.0407 29.4088C19.6732 29.0441 18.2033 28.5547 16.8436 28.0602C15.4859 27.5665 14.2499 27.0722 13.3529 26.701C13.3132 26.6846 13.2741 26.6684 13.2358 26.6524C13.2157 27.2959 13.2014 28.009 13.1953 28.7977C14.029 29.1359 15.0541 29.5376 16.1601 29.9398C17.5504 30.4454 19.0804 30.9559 20.5254 31.3413C21.1962 31.5201 21.8643 31.6764 22.5018 31.7918V33C22.5018 33.5523 22.9495 34 23.5018 34H25.5018C26.0541 34 26.5018 33.5523 26.5018 33V31.7918C27.1393 31.6764 27.8074 31.5201 28.4782 31.3413C29.9232 30.9559 31.4533 30.4454 32.8436 29.9398C33.9497 29.5376 34.9748 29.1358 35.8085 28.7977C35.8024 28.0089 35.7882 27.2958 35.7681 26.6523Z" fill="#ACB4C9"/>
</svg>