<!-- Copyright © Ewsgit 2022. -->
<!-- Licensed under the MIT License - https://ewsgit.github.io/devdash/copyright -->

<svg width="48" height="48" viewBox="0 0 48 48" fill="none" xmlns="http://www.w3.org/2000/svg">
<path fill-rule="evenodd" clip-rule="evenodd" d="M21.7082 5.3078C22.803 5.00358 23.7409 5.9451 23.8097 7.0793C23.9528 9.43825 24.4418 12.0367 25.734 13.7766C26.4059 14.6813 27.6986 14.8974 28.5033 14.1084C29.3225 13.3052 29.9636 12.0864 30.4602 10.7701C30.9529 9.46373 32.5252 8.84506 33.6258 9.70412C38.7474 13.7016 44 19.8002 44 27.9998C44 39.0455 35.0457 43.9998 24 43.9998C12.9543 43.9998 4 39.0455 4 27.9998C4 16.7773 13.8394 9.49055 19.7154 6.13958C20.3539 5.77547 21.023 5.49821 21.7082 5.3078Z" fill="#ACB4C9"/>
<path fill-rule="evenodd" clip-rule="evenodd" d="M28.7915 20.0221C28.3156 19.8787 27.823 20.1189 27.56 20.5407L18.6781 34.7867C18.4688 35.1181 18.2856 35.4234 18.1286 35.7025C17.9891 35.9816 17.9193 36.2607 17.9193 36.5398C17.9193 36.941 18.1374 37.2724 18.5734 37.5341C18.8442 37.6799 19.1523 37.7915 19.4977 37.8689C19.9528 37.9709 20.403 37.7307 20.6501 37.3352L29.5629 23.0646C29.7897 22.6983 29.9728 22.3756 30.1124 22.0965C30.2519 21.8174 30.3217 21.547 30.3217 21.2854C30.3217 20.8842 30.0775 20.5702 29.5891 20.3434C29.3402 20.2144 29.0744 20.1073 28.7915 20.0221ZM22.0639 24.1505C22.0639 25.4587 21.6714 26.4792 20.8865 27.2118C20.1015 27.9444 19.0898 28.3108 17.8513 28.3108C16.5954 28.3108 15.5749 27.9444 14.7899 27.2118C14.0224 26.4792 13.6387 25.4587 13.6387 24.1505C13.6387 22.8596 14.0224 21.8479 14.7899 21.1153C15.5749 20.3826 16.5954 20.0163 17.8513 20.0163C19.0898 20.0163 20.1015 20.3826 20.8865 21.1153C21.6714 21.8479 22.0639 22.8596 22.0639 24.1505ZM16.8047 24.1504C16.8047 24.6738 16.9006 25.0662 17.0925 25.3279C17.3018 25.5721 17.5547 25.6942 17.8513 25.6942C18.1478 25.6942 18.392 25.5721 18.5839 25.3279C18.7932 25.0662 18.8979 24.6738 18.8979 24.1504C18.8979 23.6446 18.7932 23.2695 18.5839 23.0253C18.392 22.7811 18.1478 22.659 17.8513 22.659C17.5547 22.659 17.3018 22.7811 17.0925 23.0253C16.9006 23.2695 16.8047 23.6446 16.8047 24.1504ZM34.6666 33.8447C34.6666 35.153 34.2742 36.1735 33.4892 36.9061C32.7042 37.6387 31.6925 38.005 30.454 38.005C29.1981 38.005 28.1776 37.6387 27.3927 36.9061C26.6251 36.1735 26.2414 35.153 26.2414 33.8447C26.2414 32.5539 26.6251 31.5422 27.3927 30.8095C28.1776 30.0769 29.1981 29.7106 30.454 29.7106C31.6925 29.7106 32.7042 30.0769 33.4892 30.8095C34.2742 31.5422 34.6666 32.5539 34.6666 33.8447ZM29.4071 33.8447C29.4071 34.368 29.5031 34.7605 29.695 35.0222C29.9043 35.2664 30.1572 35.3885 30.4538 35.3885C30.7503 35.3885 30.9945 35.2664 31.1864 35.0222C31.3957 34.7605 31.5004 34.368 31.5004 33.8447C31.5004 33.3389 31.3957 32.9638 31.1864 32.7196C30.9945 32.4754 30.7503 32.3533 30.4538 32.3533C30.1572 32.3533 29.9043 32.4754 29.695 32.7196C29.5031 32.9638 29.4071 33.3389 29.4071 33.8447Z" fill="#576684"/>
</svg>