<!-- Copyright © Ewsgit 2022. -->
<!-- Licensed under the MIT License - https://ewsgit.github.io/devdash/copyright -->

<svg width="48" height="48" viewBox="0 0 48 48" fill="none" xmlns="http://www.w3.org/2000/svg">
<path d="M6.40162 20.1524C6.59076 18.3899 7.83217 17.0828 9.58409 16.8127C12.0694 16.4295 16.5228 16 24 16C31.4772 16 35.9306 16.4295 38.4159 16.8127C40.1678 17.0828 41.4092 18.3899 41.5984 20.1524C41.8033 22.0621 42 25.1565 42 30C42 34.8435 41.8033 37.9379 41.5984 39.8476C41.4092 41.6101 40.1678 42.9172 38.4159 43.1873C35.9306 43.5705 31.4772 44 24 44C16.5228 44 12.0694 43.5705 9.58409 43.1873C7.83217 42.9172 6.59076 41.6101 6.40162 39.8476C6.19668 37.9379 6 34.8435 6 30C6 25.1565 6.19668 22.0621 6.40162 20.1524Z" fill="#ACB4C9"/>
<path fill-rule="evenodd" clip-rule="evenodd" d="M6.88957 7.86455C7.56493 6.06018 9.11689 4.75522 11.0324 4.54857C13.4896 4.28348 17.6109 4 24 4C30.3891 4 34.5104 4.28348 36.9676 4.54857C38.8831 4.75522 40.4351 6.06018 41.1104 7.86455C44 15.5847 44 18 44 18C44 20.7614 41.7614 23 39 23C36.2386 23 34 20.7614 34 18C34 20.7614 31.7614 23 29 23C26.2386 23 24 20.7614 24 18C24 20.7614 21.7614 23 19 23C16.2386 23 14 20.7614 14 18C14 20.7614 11.7614 23 9 23C6.23858 23 4 20.7614 4 18C4 18 4 15.5847 6.88957 7.86455Z" fill="#576684"/>
<path fill-rule="evenodd" clip-rule="evenodd" d="M30.9366 43.8558C28.982 43.9446 26.6861 44 24 44C21.3139 44 19.018 43.9446 17.0634 43.8558C17.026 42.6084 17 41.0164 17 39C17 38.1943 17.0041 37.4563 17.0115 36.781C17.0591 32.4232 19.6419 29 24 29C28.3581 29 30.9409 32.4232 30.9885 36.781C30.9959 37.4563 31 38.1943 31 39C31 41.0164 30.974 42.6084 30.9366 43.8558Z" fill="#576684"/>
</svg>