<!-- Copyright © Ewsgit 2022. -->
<!-- Licensed under the MIT License - https://ewsgit.github.io/devdash/copyright -->

<svg width="49" height="48" viewBox="0 0 49 48" fill="none" xmlns="http://www.w3.org/2000/svg">
<path fill-rule="evenodd" clip-rule="evenodd" d="M24.0309 0.814191L23.2454 3.9561C12.9819 4.66792 4.62667 12.5688 2.86622 22.8215C2.77529 23.3511 3.27606 23.784 3.80434 23.6858C4.74645 23.5106 5.82498 23.4111 6.97101 23.4111C8.40638 23.4111 9.73587 23.5671 10.8241 23.8325C11.2139 23.9276 11.6217 23.9276 12.0116 23.8325C13.0998 23.5671 14.4293 23.4111 15.8647 23.4111C17.3001 23.4111 18.6295 23.5671 19.7177 23.8325C20.1076 23.9276 20.5154 23.9276 20.9053 23.8325C21.4652 23.696 22.089 23.5884 22.7583 23.5161V37.9038C22.7583 39.0084 21.8629 39.9038 20.7583 39.9038C19.6537 39.9038 18.7583 39.0084 18.7583 37.9038V36.7322C18.7583 36.2018 18.5274 35.6924 18.0158 35.5524C17.7114 35.469 17.3001 35.4038 16.7583 35.4038C16.2166 35.4038 15.8052 35.469 15.5008 35.5524C14.9892 35.6924 14.7583 36.2018 14.7583 36.7322V37.9038C14.7583 41.2175 17.4446 43.9038 20.7583 43.9038C24.072 43.9038 26.7583 41.2175 26.7583 37.9038V23.5161C27.4276 23.5884 28.0514 23.696 28.6114 23.8325C29.0012 23.9276 29.409 23.9276 29.7989 23.8325C30.8871 23.5671 32.2165 23.4111 33.6519 23.4111C35.0873 23.4111 36.4168 23.5671 37.505 23.8325C37.8948 23.9276 38.3026 23.9276 38.6925 23.8325C39.7807 23.5671 41.1102 23.4111 42.5455 23.4111C43.6915 23.4111 44.77 23.5106 45.7121 23.6857C46.2404 23.784 46.7412 23.3511 46.6502 22.8215C44.8898 12.569 36.5349 4.66819 26.2716 3.95613L25.4861 0.814193C25.2967 0.0567287 24.2202 0.0567266 24.0309 0.814191Z" fill="#ACB4C9"/>
<circle cx="24.8555" cy="23.2461" r="10" fill="#576684"/>
<path d="M24.4226 26.601C25.1138 26.601 25.6129 26.4895 25.9201 26.2664C26.2401 26.0433 26.4001 25.7701 26.4001 25.4467C26.4001 25.1567 26.2785 24.9225 26.0353 24.744C25.7921 24.5656 25.4274 24.4094 24.941 24.2756L23.8851 23.9745C23.3603 23.8295 22.8868 23.6733 22.4644 23.5061C22.042 23.3388 21.6837 23.138 21.3893 22.9038C21.0949 22.6696 20.8645 22.3908 20.6981 22.0673C20.5317 21.7439 20.4486 21.3591 20.4486 20.913C20.4486 20.1546 20.7173 19.5245 21.2549 19.0226C21.7924 18.5207 22.5604 18.1861 23.5587 18.0188V17.5028C23.5587 17.0325 23.8866 16.6155 24.3561 16.5883C24.4494 16.5829 24.5422 16.5801 24.6338 16.5801C25.1074 16.5801 25.4466 16.6526 25.6513 16.7976C25.8689 16.9425 25.9777 17.2046 25.9777 17.5838V17.9519C26.7968 18.03 27.4624 18.2028 27.9744 18.4705C28.4863 18.727 28.7423 19.0672 28.7423 19.491C28.7423 19.7432 28.6489 19.9706 28.4957 20.1676C28.2617 20.4684 27.8268 20.4464 27.469 20.315C27.2818 20.2463 27.0727 20.1835 26.8416 20.1267C26.3553 19.9929 25.8241 19.926 25.2482 19.926C24.6082 19.926 24.1283 20.0208 23.8083 20.2104C23.5011 20.3888 23.3475 20.623 23.3475 20.913C23.3475 21.1472 23.4499 21.3368 23.6547 21.4818C23.8723 21.6268 24.1987 21.7606 24.6338 21.8833L25.7089 22.1677C26.8608 22.48 27.744 22.8926 28.3583 23.4057C28.9855 23.9187 29.299 24.6102 29.299 25.4801C29.299 26.2497 29.0175 26.9021 28.4543 27.4375C27.8912 27.9616 27.0656 28.313 25.9777 28.4914V28.9907C25.9777 29.461 25.6498 29.878 25.1803 29.9052C25.0871 29.9106 24.9943 29.9134 24.9026 29.9134C24.429 29.9134 24.0835 29.8409 23.8659 29.6959C23.6611 29.5509 23.5587 29.2888 23.5587 28.9096V28.5751C22.6244 28.4858 21.8628 28.2907 21.2741 27.9895C20.6981 27.6772 20.4102 27.2869 20.4102 26.8185C20.4102 26.4823 20.5763 26.2005 20.8277 25.9764C21.1049 25.7294 21.5159 25.7917 21.843 25.9671C22.0726 26.0903 22.3309 26.2068 22.618 26.3166C23.1427 26.5062 23.7443 26.601 24.4226 26.601Z" fill="#ACB4C9"/>
</svg>