<!-- Copyright © Ewsgit 2022. -->
<!-- Licensed under the MIT License - https://ewsgit.github.io/devdash/copyright -->

<svg width="48" height="48" viewBox="0 0 48 48" fill="none" xmlns="http://www.w3.org/2000/svg">
<path d="M5.08266 8.48836C5.25443 6.88472 6.27793 5.6071 7.85124 5.25234C10.3705 4.68429 15.2261 4 24 4C32.774 4 37.6295 4.68429 40.1488 5.25234C41.7221 5.6071 42.7456 6.88473 42.9173 8.48836C43.185 10.9875 43.5 15.6931 43.5 24C43.5 32.3069 43.185 37.0125 42.9173 39.5116C42.7456 41.1153 41.7221 42.3929 40.1488 42.7477C37.6295 43.3157 32.7739 44 24 44C15.2261 44 10.3705 43.3157 7.85124 42.7477C6.27793 42.3929 5.25443 41.1153 5.08266 39.5116C4.81499 37.0125 4.5 32.3069 4.5 24C4.5 15.6931 4.81499 10.9875 5.08266 8.48836Z" fill="#ACB4C9"/>
<path fill-rule="evenodd" clip-rule="evenodd" d="M44.7792 14.66C44.933 14.2777 44.9688 13.8608 44.9499 13.4491C44.8335 10.9228 44.6865 9.10011 44.5509 7.81784C44.3697 6.10453 43.2471 4.74563 41.5648 4.37373C38.7848 3.75913 33.4365 3 23.9772 3C14.518 3 9.16967 3.75913 6.38966 4.37373C4.70741 4.74563 3.58476 6.10453 3.40357 7.81785C3.26797 9.10003 3.12103 10.9226 3.00463 13.4486C2.98568 13.86 3.02151 14.2768 3.17511 14.6589C3.96273 16.6184 5.86417 18 8.0847 18C10.6111 18 12.7245 16.2115 13.2543 13.8183C13.2676 13.758 13.3206 13.7143 13.3823 13.7143C13.444 13.7143 13.497 13.758 13.5104 13.8183C14.0402 16.2115 16.1535 18 18.68 18C21.2065 18 23.3199 16.2115 23.8496 13.8182C23.8629 13.758 23.9159 13.7143 23.9775 13.7143C24.0391 13.7143 24.0921 13.758 24.1054 13.8182C24.6351 16.2115 26.7485 18 29.275 18C31.8015 18 33.9149 16.2115 34.4446 13.8182C34.458 13.758 34.5109 13.7143 34.5725 13.7143C34.6342 13.7143 34.6871 13.758 34.7004 13.8182C35.2302 16.2115 37.3436 18 39.8701 18C42.0902 18 43.9913 16.619 44.7792 14.66Z" fill="#576684"/>
<path d="M21.8518 35.9801C21.7923 36.7954 21.2988 37.4655 20.499 37.6348C19.6287 37.819 18.2109 38 16 38C13.7891 38 12.3713 37.819 11.501 37.6348C10.7012 37.4655 10.2077 36.7954 10.1482 35.9801C10.075 34.9788 10 33.2754 10 30.5C10 27.7246 10.075 26.0212 10.1482 25.0199C10.2077 24.2046 10.7012 23.5345 11.501 23.3652C12.3713 23.181 13.7891 23 16 23C18.2109 23 19.6287 23.181 20.499 23.3652C21.2988 23.5345 21.7923 24.2046 21.8518 25.0199C21.925 26.0212 22 27.7246 22 30.5C22 33.2754 21.925 34.9788 21.8518 35.9801Z" fill="#576684"/>
<path fill-rule="evenodd" clip-rule="evenodd" d="M29.338 24.1204C28.575 24.1651 28 24.8005 28 25.5648V26.4352C28 27.1995 28.575 27.8349 29.338 27.8796C30.3349 27.9381 31.8889 28 34 28C35.8359 28 37.0398 27.9532 37.8051 27.9025C38.5067 27.8561 39 27.2776 39 26.5745V25.4255C39 24.7224 38.5067 24.1439 37.8051 24.0975C37.0398 24.0468 35.8359 24 34 24C31.8889 24 30.3349 24.0619 29.338 24.1204ZM29.1937 32.0854C28.4925 32.1365 28 32.7224 28 33.4255V34.5745C28 35.2776 28.4925 35.8635 29.1937 35.9146C29.8226 35.9604 30.7329 36 32 36C33.2671 36 34.1774 35.9604 34.8063 35.9146C35.5075 35.8635 36 35.2776 36 34.5745V33.4255C36 32.7224 35.5075 32.1365 34.8063 32.0854C34.1774 32.0396 33.2671 32 32 32C30.7329 32 29.8226 32.0396 29.1937 32.0854Z" fill="#576684"/>
</svg>