<!-- Copyright © Ewsgit 2022. -->
<!-- Licensed under the MIT License - https://ewsgit.github.io/devdash/copyright -->

<svg xmlns="http://www.w3.org/2000/svg" width="48" height="48" fill="none" viewBox="0 0 48 48"><path fill="#576684" d="M40.356 10.2667C40.2405 7.59431 38.5118 5.35916 35.8799 4.88186C33.3562 4.42419 29.5265 4 24.0001 4C18.4736 4 14.6439 4.42419 12.1203 4.88186C9.48836 5.35917 7.75968 7.59429 7.64409 10.2666C7.0324 24.4088 12.0001 36 12.0001 36H36.0001C36.0001 36 40.9677 24.4088 40.356 10.2667Z"/><path fill="#576684" fill-rule="evenodd" d="M14 41H10C10 41 10 41.7463 10.3224 43.239C10.4193 43.6875 10.8219 44 11.2808 44H12.7192C13.1781 44 13.5807 43.6875 13.6776 43.239C14 41.7463 14 41 14 41ZM38 41H34C34 41 34 41.7463 34.3224 43.239C34.4193 43.6875 34.8219 44 35.2808 44H36.7192C37.1781 44 37.5807 43.6875 37.6776 43.239C38 41.7463 38 41 38 41Z" clip-rule="evenodd"/><path fill="#ACB4C9" fill-rule="evenodd" d="M18 18C19.1046 18 20 17.1046 20 16C20 14.8954 19.1046 14 18 14C16.8954 14 16 14.8954 16 16C16 17.1046 16.8954 18 18 18ZM30 18C31.1046 18 32 17.1046 32 16C32 14.8954 31.1046 14 30 14C28.8954 14 28 14.8954 28 16C28 17.1046 28.8954 18 30 18Z" clip-rule="evenodd"/><path fill="#ACB4C9" fill-rule="evenodd" d="M4.10102 25.3444C3.9352 22.6016 5.46351 20.0235 8.21074 20.0782C8.54027 20.0848 8.8885 20.1045 9.25531 20.1404C11.5455 20.3641 13.1377 22.3851 13.3677 24.6746C13.571 26.6971 13.713 28.6454 13.8106 30.459C16.0613 30.2425 19.5709 30 24.0002 30C28.3876 30 31.8727 30.238 34.1256 30.4529C34.2233 28.641 34.3652 26.6948 34.5682 24.6746C34.7983 22.3851 36.3905 20.3641 38.6806 20.1404C39.0474 20.1045 39.3957 20.0848 39.7252 20.0782C42.4724 20.0235 44.0007 22.6016 43.8349 25.3444C43.6517 28.3749 43.2746 32.8819 42.4982 38.595C42.232 40.5541 40.5478 42 38.5706 42H38.508H35.9098C35.906 42 35.9022 42 35.8984 42H12.0375C12.0337 42 12.0299 42 12.0262 42H9.42793H9.36531C7.38816 42 5.70398 40.5541 5.43774 38.595C4.66138 32.8819 4.28423 28.3749 4.10102 25.3444Z" clip-rule="evenodd"/></svg>