<!-- Copyright © Ewsgit 2022. -->
<!-- Licensed under the MIT License - https://ewsgit.github.io/devdash/copyright -->

<svg width="49" height="48" viewBox="0 0 49 48" fill="none" xmlns="http://www.w3.org/2000/svg">
<path d="M44.5 24C44.5 35.0457 35.5457 44 24.5 44C13.4543 44 4.5 35.0457 4.5 24C4.5 12.9543 13.4543 4 24.5 4C35.5457 4 44.5 12.9543 44.5 24Z" fill="#ACB4C9"/>
<path d="M26.5 24C26.5 25.1046 25.6046 26 24.5 26C23.3954 26 22.5 25.1046 22.5 24C22.5 22.8954 23.3954 22 24.5 22C25.6046 22 26.5 22.8954 26.5 24Z" fill="#576684"/>
<path fill-rule="evenodd" clip-rule="evenodd" d="M26.5 14V12.1659C31.525 13.009 35.491 16.975 36.3341 22H34.5C33.3954 22 32.5 22.8954 32.5 24C32.5 25.1046 33.3954 26 34.5 26H36.3341C35.491 31.025 31.525 34.991 26.5 35.8341V34C26.5 32.8954 25.6046 32 24.5 32C23.3954 32 22.5 32.8954 22.5 34V35.8341C17.475 34.991 13.509 31.025 12.6659 26H14.5C15.6046 26 16.5 25.1046 16.5 24C16.5 22.8954 15.6046 22 14.5 22H12.6659C13.509 16.975 17.475 13.009 22.5 12.1659V14C22.5 15.1046 23.3954 16 24.5 16C25.6046 16 26.5 15.1046 26.5 14ZM24.5 8C33.3366 8 40.5 15.1634 40.5 24C40.5 32.8366 33.3366 40 24.5 40C15.6634 40 8.5 32.8366 8.5 24C8.5 15.1634 15.6634 8 24.5 8Z" fill="#576684"/>
</svg>