<!-- Copyright © Ewsgit 2022. -->
<!-- Licensed under the MIT License - https://ewsgit.github.io/devdash/copyright -->

<svg xmlns="http://www.w3.org/2000/svg" width="48" height="48" fill="none" viewBox="0 0 48 48"><path fill="#576684" d="M45.635 36.5492C45.3693 38.2169 44.0041 39.2717 42.3222 39.4243C39.4813 39.6822 33.96 40 24 40C14.04 40 8.51866 39.6822 5.67775 39.4243C3.99593 39.2716 2.63072 38.2169 2.36498 36.5492C2.16552 35.2974 2 33.5042 2 31C2 28.4958 2.16552 26.7026 2.36498 25.4508C2.63072 23.7831 3.99593 22.7283 5.67775 22.5757C8.51866 22.3178 14.04 22 24 22C33.96 22 39.4813 22.3178 42.3222 22.5757C44.0041 22.7284 45.3693 23.7831 45.635 25.4508C45.8345 26.7026 46 28.4958 46 31C46 33.5042 45.8345 35.2974 45.635 36.5492Z"/><path fill="#ACB4C9" d="M6.50355 39.4086C6.66405 41.0997 7.74349 42.4601 9.40182 42.8282C11.8492 43.3716 16.3363 44 24 44C31.6637 44 36.1508 43.3716 38.5982 42.8282C40.2565 42.4601 41.336 41.0997 41.4965 39.4086C41.7326 36.9209 42 32.3667 42 24.5C42 20.0046 41.9127 16.5909 41.7938 14.0264C41.5839 9.50134 38.7127 5.97322 34.2099 5.47935C31.6962 5.20366 28.3629 5 24 5C19.6371 5 16.3038 5.20366 13.7901 5.47935C9.28726 5.97322 6.41607 9.50134 6.20625 14.0264C6.08733 16.5909 6 20.0046 6 24.5C6 32.3667 6.26744 36.9209 6.50355 39.4086Z"/><path fill="#576684" fill-rule="evenodd" d="M37.6796 43.0164C37.8419 41.6326 38 39.4093 38 36C38 33.2106 37.8941 31.2152 37.7668 29.8239C37.6018 28.0209 36.3228 26.7004 34.5254 26.4826C32.511 26.2385 29.2097 26 24 26C18.7903 26 15.489 26.2385 13.4746 26.4826C11.6772 26.7004 10.3982 28.0209 10.2332 29.8239C10.1059 31.2152 10 33.2106 10 36C10 39.4093 10.1581 41.6326 10.3204 43.0164C12.9139 43.5067 17.2103 44 24 44C30.7897 44 35.0861 43.5067 37.6796 43.0164Z" clip-rule="evenodd"/><path fill="#576684" fill-rule="evenodd" d="M35.8505 15.3721C35.7063 17.1786 34.4099 18.4747 32.6069 18.6585C32.1421 18.7058 31.6086 18.7521 30.9987 18.7945C30.9934 19.6764 30.972 20.3316 30.9463 20.8115C30.9088 21.5098 30.3375 22 29.6382 22H29.3618C28.6625 22 28.0912 21.5098 28.0537 20.8115C28.0295 20.3586 28.009 19.7496 28.0023 18.9413C26.8428 18.978 25.5156 19 24 19C22.4844 19 21.1572 18.978 19.9977 18.9413C19.991 19.7496 19.9705 20.3586 19.9463 20.8115C19.9088 21.5098 19.3375 22 18.6382 22H18.3618C17.6625 22 17.0912 21.5098 17.0537 20.8115C17.028 20.3316 17.0066 19.6764 17.0013 18.7945C16.3914 18.7521 15.8579 18.7058 15.3931 18.6585C13.5901 18.4747 12.2937 17.1786 12.1495 15.3721C12.0642 14.3036 12 12.8763 12 11C12 8.49937 12.1139 6.79633 12.2401 5.6772C12.3754 4.47662 13.2467 3.6069 14.4447 3.45084C16.0985 3.23542 19.0403 3 24 3C28.9597 3 31.9015 3.23542 33.5553 3.45084C34.7533 3.6069 35.6246 4.47662 35.7599 5.6772C35.8861 6.79634 36 8.49937 36 11C36 12.8763 35.9358 14.3036 35.8505 15.3721Z" clip-rule="evenodd"/><path fill="#ACB4C9" d="M15.1596 31.3663C15.2923 31.151 15.5578 31.0929 15.8107 31.0841C16.6204 31.0559 18.8722 31 24 31C29.1278 31 31.3796 31.0559 32.1893 31.0841C32.4422 31.0929 32.7077 31.151 32.8404 31.3663C32.9265 31.506 33 31.7102 33 32C33 32.2898 32.9265 32.494 32.8404 32.6337C32.7077 32.849 32.4422 32.9071 32.1893 32.9159C31.3796 32.9441 29.1278 33 24 33C18.8722 33 16.6204 32.9441 15.8107 32.9159C15.5578 32.9071 15.2923 32.849 15.1596 32.6337C15.0735 32.494 15 32.2898 15 32C15 31.7102 15.0735 31.506 15.1596 31.3663Z"/></svg>