<!-- Copyright © Ewsgit 2022. -->
<!-- Licensed under the MIT License - https://ewsgit.github.io/devdash/copyright -->

<svg width="49" height="48" viewBox="0 0 49 48" fill="none" xmlns="http://www.w3.org/2000/svg">
<path d="M17.0559 4.0636C17.0559 4.0636 14.6076 5 10.1076 9.5C5.62411 13.9835 4.68389 16.4361 4.67706 16.454C4.56779 18.5905 4.5 21.089 4.5 24C4.5 32.6855 5.10351 37.6989 5.61162 40.3807C5.93804 42.1035 7.28233 43.2843 9.02567 43.4724C11.3789 43.7263 15.5315 44 22.5 44C29.4685 44 33.6211 43.7263 35.9743 43.4724C37.7177 43.2843 39.062 42.1035 39.3884 40.3807C39.8965 37.6989 40.5 32.6855 40.5 24C40.5 15.3145 39.8965 10.3011 39.3884 7.61934C39.062 5.89653 37.7177 4.7157 35.9743 4.52758C33.6211 4.27365 29.4685 4 22.5 4C20.4503 4 18.6442 4.02371 17.0559 4.0636Z" fill="#ACB4C9"/>
<path d="M4.67706 16.4549C7.55661 17.1791 10.9564 17.2272 13.8929 16.3302C15.1344 15.9509 16.1024 14.9838 16.5214 13.7552C17.5652 10.6945 17.8231 6.94811 17.0559 4.06445C17.0559 4.06445 14.6077 5.00085 10.1077 9.50085C5.60767 14.0009 4.67706 16.4549 4.67706 16.4549Z" fill="#576684"/>
<path d="M26.6346 25.4027C26.7393 27.1259 27.8605 28.4605 29.5724 28.6839C30.8939 28.8564 32.8038 29 35.5 29C38.1962 29 40.1061 28.8564 41.4276 28.6839C43.1395 28.4605 44.2607 27.1259 44.3654 25.4027C44.4403 24.1702 44.5 22.4266 44.5 20C44.5 17.5734 44.4403 15.8298 44.3654 14.5973C44.2607 12.8741 43.1395 11.5395 41.4276 11.3161C40.1061 11.1436 38.1962 11 35.5 11C32.8038 11 30.8939 11.1436 29.5724 11.3161C27.8605 11.5395 26.7393 12.8741 26.6346 14.5973C26.5597 15.8298 26.5 17.5734 26.5 20C26.5 22.4266 26.5597 24.1702 26.6346 25.4027Z" fill="#576684"/>
<path fill-rule="evenodd" clip-rule="evenodd" d="M37.4153 22.107C38.5932 21.4747 39.3942 20.2313 39.3942 18.8008C39.3942 16.7297 37.7152 15.0508 35.6442 15.0508C33.5731 15.0508 31.8942 16.7297 31.8942 18.8008C31.8942 20.2313 32.6951 21.4747 33.8731 22.107C32.7517 22.5088 31.8068 23.2813 31.186 24.2768C30.7489 24.9779 31.0457 25.9168 31.8519 26.0978C31.9974 26.1304 32.1482 26.1541 32.3039 26.1683C33.1537 26.2458 34.2484 26.3008 35.6441 26.3008C37.0398 26.3008 38.1345 26.2458 38.9843 26.1683C39.1401 26.1541 39.2909 26.1304 39.4365 26.0977C40.2426 25.9167 40.5395 24.9779 40.1023 24.2768C39.4815 23.2813 38.5366 22.5088 37.4153 22.107Z" fill="#ACB4C9"/>
<path d="M10.5 35.4228C10.5 36.1924 11.0815 36.8309 11.8499 36.8736C12.9316 36.9338 14.6635 37 17.0455 37C19.1181 37 20.4524 36.9499 21.2821 36.8972C21.9937 36.8521 22.5 36.2655 22.5 35.5525V34.4475C22.5 33.7345 21.9937 33.1479 21.2821 33.1028C20.4524 33.0501 19.1181 33 17.0455 33C14.6635 33 12.9316 33.0662 11.8499 33.1264C11.0815 33.1691 10.5 33.8076 10.5 34.5772V35.4228Z" fill="#576684"/>
<path d="M10.5 27.5745C10.5 28.2776 10.9925 28.8635 11.6937 28.9146C12.3226 28.9604 13.2329 29 14.5 29C15.7671 29 16.6774 28.9604 17.3063 28.9146C18.0075 28.8635 18.5 28.2776 18.5 27.5745V26.4255C18.5 25.7224 18.0075 25.1365 17.3063 25.0854C16.6774 25.0396 15.7671 25 14.5 25C13.2329 25 12.3226 25.0396 11.6937 25.0854C10.9925 25.1365 10.5 25.7224 10.5 26.4255V27.5745Z" fill="#576684"/>
</svg>