<!-- Copyright © Ewsgit 2022. -->
<!-- Licensed under the MIT License - https://ewsgit.github.io/devdash/copyright -->

<svg xmlns="http://www.w3.org/2000/svg" width="49" height="48" fill="none" viewBox="0 0 49 48"><path fill="#ACB4C9" d="M5.06198 8.68502C5.23932 6.96777 6.36521 5.60848 8.05375 5.24901C10.719 4.68162 15.7432 4 24.5 4C33.2568 4 38.281 4.68162 40.9463 5.24901C42.6348 5.60848 43.7607 6.96778 43.938 8.68502C44.201 11.2312 44.5 15.9061 44.5 24C44.5 32.0939 44.201 36.7688 43.938 39.315C43.7607 41.0322 42.6348 42.3915 40.9462 42.751C38.281 43.3184 33.2568 44 24.5 44C15.7432 44 10.719 43.3184 8.05375 42.751C6.36521 42.3915 5.23932 41.0322 5.06198 39.315C4.79904 36.7688 4.5 32.0939 4.5 24C4.5 15.9061 4.79904 11.2312 5.06198 8.68502Z"/><path fill="#576684" fill-rule="evenodd" d="M44.3061 14C44.2001 11.6365 44.0648 9.91315 43.938 8.68502C43.7607 6.96778 42.6348 5.60848 40.9463 5.24901C38.281 4.68162 33.2568 4 24.5 4C15.7432 4 10.719 4.68162 8.05375 5.24901C6.36521 5.60848 5.23932 6.96777 5.06198 8.68502C4.93515 9.91315 4.79992 11.6365 4.69391 14H16.5238C16.512 16.2244 16.5035 18.8745 16.5009 22.0145C9.08358 22.0437 5.66438 22.1092 4.50548 22.1371C4.50188 22.7369 4.5 23.3577 4.5 24C4.5 24.292 4.50039 24.5796 4.50115 24.8628C5.65581 24.8906 9.07414 24.9563 16.5003 24.9855C16.5015 28.1012 16.5086 30.7585 16.5189 33.0144C9.38983 33.0424 5.94902 33.1039 4.65755 33.1335C4.69733 34.1494 4.7426 35.0582 4.79088 35.8695C6.17862 35.9001 9.62809 35.9586 16.5359 35.9856C16.5663 40.3733 16.6086 42.733 16.6323 43.7845C17.4831 43.8355 18.3928 43.8792 19.365 43.9137C19.3879 42.9341 19.4326 40.5663 19.4643 35.9946C20.9999 35.9981 22.675 36 24.5001 36C36.8865 36 42.3659 35.9101 44.2091 35.8695C44.2574 35.0582 44.3027 34.1494 44.3424 33.1335C42.6395 33.0945 37.2008 33 24.5001 33C22.6818 33 21.0123 33.0019 19.4813 33.0054C19.4917 30.7536 19.4987 28.1023 19.4999 24.9947C21.0258 24.9981 22.6891 25 24.5001 25C37.6196 25 42.9903 24.8991 44.4988 24.8628C44.4996 24.5796 44.5 24.292 44.5 24C44.5 23.3577 44.4981 22.7369 44.4945 22.1371C42.98 22.1007 37.6071 22 24.5001 22C22.6889 22 21.0254 22.0019 19.4993 22.0053C19.4967 18.8693 19.4882 16.2223 19.4764 14H44.3061Z" clip-rule="evenodd"/></svg>