<!-- Copyright © Ewsgit 2022. -->
<!-- Licensed under the MIT License - https://ewsgit.github.io/devdash/copyright -->

<svg width="49" height="48" viewBox="0 0 49 48" fill="none" xmlns="http://www.w3.org/2000/svg">
<path fill-rule="evenodd" clip-rule="evenodd" d="M17.2834 7.6C17.9056 5.46667 19.8612 4 22.0834 4H26.9167C29.139 4 31.0945 5.46667 31.7167 7.6L33.4201 13.44L29.5801 14.56L27.8767 8.72C27.7523 8.29333 27.3612 8 26.9167 8H22.0834C21.639 8 21.2479 8.29333 21.1234 8.72L19.4201 14.56L15.5801 13.44L17.2834 7.6Z" fill="#576684"/>
<path d="M5.00915 15.4386C5.20711 13.6583 6.43135 12.2962 8.19672 11.9927C10.8732 11.5327 15.8418 11 24.5 11C33.1582 11 38.1268 11.5327 40.8033 11.9927C42.5687 12.2962 43.7929 13.6583 43.9908 15.4386C44.2394 17.674 44.5 21.4583 44.5 27.5C44.5 33.5417 44.2394 37.326 43.9908 39.5614C43.7929 41.3417 42.5687 42.7038 40.8033 43.0073C38.1268 43.4673 33.1582 44 24.5 44C15.8418 44 10.8732 43.4673 8.19672 43.0073C6.43134 42.7038 5.20711 41.3417 5.00915 39.5614C4.76059 37.326 4.5 33.5417 4.5 27.5C4.5 21.4583 4.76059 17.674 5.00915 15.4386Z" fill="#ACB4C9"/>
<path fill-rule="evenodd" clip-rule="evenodd" d="M44.4268 22.3109C44.4804 24.0877 43.3206 25.6684 41.614 26.1661C36.5487 27.6436 27.9322 30 24.4997 30C21.0672 30 12.4507 27.6436 7.38544 26.1661C5.67889 25.6684 4.51903 24.0877 4.57262 22.3109C4.66745 19.1671 4.84091 16.9492 5.00888 15.4386C5.20683 13.6583 6.43107 12.2962 8.19644 11.9927C10.873 11.5327 15.8415 11 24.4997 11C33.1579 11 38.1265 11.5327 40.803 11.9927C42.5684 12.2962 43.7926 13.6583 43.9906 15.4386C44.1585 16.9492 44.332 19.1671 44.4268 22.3109Z" fill="#576684"/>
</svg>