<!-- Copyright © Ewsgit 2022. -->
<!-- Licensed under the MIT License - https://ewsgit.github.io/devdash/copyright -->

<svg width="49" height="48" viewBox="0 0 49 48" fill="none" xmlns="http://www.w3.org/2000/svg">
<path d="M24 8.99931C14.2685 7.11577 8.28168 9.56828 5.17345 11.6546C3.48473 12.7881 3.6166 15.0542 5.09503 16.4509L10.6552 21.7039L24 8.99931Z" fill="#576684"/>
<path d="M40.6144 24.5C41.8221 34.4236 38.9775 40.4532 36.7743 43.5073C35.6305 45.0929 33.4643 45.0107 32.0498 43.6609L25.9553 37.8448L40.6144 24.5Z" fill="#576684"/>
<path d="M19.0898 35.2718C19.0898 31.8099 16.6881 29.4082 13.2262 29.4082C9.76428 29.4082 7.36257 31.8099 7.36257 35.2718C7.36257 37.7812 7.58174 39.1948 7.75208 39.9145C7.85176 40.3356 8.16246 40.6463 8.58356 40.746C9.30327 40.9163 10.7168 41.1355 13.2262 41.1355C16.6881 41.1355 19.0898 38.7338 19.0898 35.2718Z" fill="#576684"/>
<path d="M28.5952 39.9909C27.616 40.7747 26.3752 40.9308 25.3083 40.2713C23.6904 39.2713 20.8023 37.0985 16.1019 32.3981C11.4015 27.6977 9.22871 24.8096 8.22865 23.1917C7.56915 22.1248 7.72533 20.884 8.50911 19.9047C9.63914 18.4928 11.8516 15.9666 16.1019 11.7163C23.8178 4.00037 37.9313 4.00032 41.2155 7.28446C44.4997 10.5686 44.4996 24.6821 36.7837 32.3981C32.5334 36.6484 30.0071 38.8609 28.5952 39.9909Z" fill="#ACB4C9"/>
<path d="M26.5 15C22.634 15 19.5 18.134 19.5 22C19.5 25.866 22.634 29 26.5 29C30.366 29 33.5 25.866 33.5 22C33.5 18.134 30.366 15 26.5 15Z" fill="#576684"/>
</svg>