<!-- Copyright © Ewsgit 2022. -->
<!-- Licensed under the MIT License - https://ewsgit.github.io/devdash/copyright -->

<svg xmlns="http://www.w3.org/2000/svg" width="48" height="48" fill="none" viewBox="0 0 48 48"><path fill="#ACB4C9" d="M6 39C6 42.3137 14.0589 45 24 45C33.9411 45 42 42.3137 42 39C42 35.6863 33.9411 33 24 33C14.0589 33 6 35.6863 6 39Z"/><path fill="#576684" fill-rule="evenodd" d="M31 10C31 12.0383 30.1288 13.8731 28.7385 15.1524C32.9782 15.8127 36 19.2531 36 23.7111C36 26.2097 35.744 27.8165 35.5747 28.6059C35.4926 28.9888 35.2616 29.3132 34.9073 29.4801C34.3152 29.759 33.1573 30.1836 31.1301 30.5132C30.6789 33.3241 30.0523 36.5668 29.2502 39.2124C29.0963 39.72 28.7334 40.1342 28.2323 40.3083C27.3867 40.6021 25.8923 41 24 41C22.1077 41 20.6133 40.6021 19.7677 40.3083C19.2666 40.1342 18.9037 39.72 18.7498 39.2124C17.9477 36.5668 17.3211 33.3241 16.8699 30.5132C14.8427 30.1836 13.6848 29.759 13.0927 29.4801C12.7384 29.3132 12.5074 28.9888 12.4253 28.6059C12.256 27.8165 12 26.2097 12 23.7111C12 19.2531 15.0218 15.8127 19.2615 15.1524C17.8712 13.8731 17 12.0383 17 10C17 6.13401 20.134 3 24 3C27.866 3 31 6.13401 31 10Z" clip-rule="evenodd"/></svg>