<!-- Copyright © Ewsgit 2022. -->
<!-- Licensed under the MIT License - https://ewsgit.github.io/devdash/copyright -->

<svg width="48" height="48" viewBox="0 0 48 48" fill="none" xmlns="http://www.w3.org/2000/svg">
<path d="M11.2721 9.62755C18.3015 2.59811 29.6985 2.59811 36.7279 9.62755C43.7574 16.657 43.7574 28.054 36.7279 35.0834C32.7877 39.0236 29.3807 41.8434 27.0859 43.6003C25.2433 45.0108 22.7567 45.0108 20.9141 43.6003C18.6193 41.8434 15.2123 39.0236 11.2721 35.0834C4.24264 28.054 4.24264 16.657 11.2721 9.62755Z" fill="#ACB4C9"/>
<path d="M42.6082 36.8779C43.1602 37.4407 43.5265 38.1852 43.2151 38.9095C42.9962 39.4188 42.5871 40.0731 41.8298 40.8303C41.0725 41.5876 40.4183 41.9967 39.909 42.2157C39.1847 42.5271 38.4402 42.1607 37.8773 41.6087C35.0759 38.8611 26.1289 30.0791 21.6773 25.6275C17.2257 21.176 8.44371 12.2289 5.69613 9.42749C5.1441 8.86463 4.77776 8.12014 5.08915 7.39586C5.30811 6.88657 5.7172 6.23228 6.47448 5.475C7.23175 4.71773 7.88604 4.30864 8.39533 4.08968C9.11961 3.77829 9.8641 4.14463 10.427 4.69666C13.2284 7.44424 22.1754 16.2262 26.627 20.6778C31.0786 25.1294 39.8606 34.0764 42.6082 36.8779Z" fill="#576684"/>
</svg>