<!-- Copyright © Ewsgit 2022. -->
<!-- Licensed under the MIT License - https://ewsgit.github.io/devdash/copyright -->

<svg width="48" height="48" viewBox="0 0 48 48" fill="none" xmlns="http://www.w3.org/2000/svg">
<path d="M7.12124 32.3497C7.63512 31.1698 8.75447 30.415 10.0388 30.3327C12.3066 30.1873 16.6545 30 24 30C31.3455 30 35.6934 30.1873 37.9612 30.3327C39.2455 30.415 40.3649 31.1698 40.8788 32.3497C41.6408 34.0993 42.736 36.9808 43.4849 40.5186C43.83 42.149 42.6492 43.625 40.9847 43.7057C38.1439 43.8436 32.9489 44 24 44C15.0511 44 9.85611 43.8436 7.01526 43.7057C5.35075 43.625 4.16995 42.149 4.51509 40.5186C5.26402 36.9808 6.35922 34.0993 7.12124 32.3497Z" fill="#ACB4C9"/>
<path d="M13.1353 8.50056C19.1361 2.49981 28.8652 2.49981 34.8659 8.50056C40.8667 14.5013 40.8667 24.2304 34.8659 30.2312C31.5729 33.5242 28.7162 35.791 26.7594 37.1937C25.0898 38.3907 22.9115 38.3907 21.2418 37.1937C19.2851 35.791 16.4283 33.5242 13.1353 30.2312C7.13458 24.2304 7.13458 14.5013 13.1353 8.50056Z" fill="#576684"/>
<circle cx="24.0009" cy="19.3661" r="5.12195" fill="#ACB4C9"/>
</svg>