<!-- Copyright © Ewsgit 2022. -->
<!-- Licensed under the MIT License - https://ewsgit.github.io/devdash/copyright -->

<svg width="48" height="48" viewBox="0 0 48 48" fill="none" xmlns="http://www.w3.org/2000/svg">
<path d="M33.3821 7.04541C33.7883 7.15119 33.9118 7.60403 33.9259 8.02355C33.9555 8.90375 34 10.764 34 14C34 17.236 33.9555 19.0963 33.9259 19.9764C33.9118 20.396 33.7883 20.8488 33.3821 20.9546C33.2755 20.9824 33.1491 21 33 21C32.8509 21 32.7245 20.9824 32.6179 20.9546C32.2117 20.8488 32.0882 20.396 32.0741 19.9764C32.0445 19.0963 32 17.236 32 14C32 10.764 32.0445 8.90375 32.0741 8.02355C32.0882 7.60403 32.2117 7.15119 32.6179 7.04541C32.7245 7.01764 32.8509 7 33 7C33.1491 7 33.2755 7.01764 33.3821 7.04541Z" fill="#ACB4C9"/>
<path d="M26.1681 16.0761C26.2387 15.2276 26.7809 14.551 27.617 14.3903C28.6185 14.1978 30.3037 14 33 14C35.6963 14 37.3815 14.1978 38.383 14.3903C39.2191 14.551 39.7613 15.2276 39.8319 16.0761C39.9157 17.0845 40 18.7758 40 21.5C40 24.2242 39.9157 25.9155 39.8319 26.9239C39.7613 27.7724 39.2191 28.449 38.383 28.6097C37.3815 28.8022 35.6963 29 33 29C30.3037 29 28.6185 28.8022 27.617 28.6097C26.7809 28.449 26.2387 27.7724 26.1681 26.9239C26.0843 25.9155 26 24.2242 26 21.5C26 18.7758 26.0843 17.0845 26.1681 16.0761Z" fill="#ACB4C9"/>
<path d="M31.0152 20.1007C31.0372 19.5257 31.4097 19.0873 31.9831 19.0382C32.2464 19.0157 32.5803 19 33 19C33.4197 19 33.7536 19.0157 34.0169 19.0382C34.5903 19.0873 34.9628 19.5257 34.9848 20.1007C34.9939 20.3387 35 20.6345 35 21C35 21.3655 34.9939 21.6613 34.9848 21.8993C34.9628 22.4743 34.5903 22.9127 34.0169 22.9618C33.7536 22.9843 33.4197 23 33 23C32.5803 23 32.2464 22.9843 31.9831 22.9618C31.4097 22.9127 31.0372 22.4743 31.0152 21.8993C31.0061 21.6613 31 21.3655 31 21C31 20.6345 31.0061 20.3387 31.0152 20.1007Z" fill="#576684"/>
<path d="M9.11526 19.8785C9.19599 18.9953 9.82754 18.3572 10.7077 18.2488C11.7191 18.1242 13.3835 18 16 18C18.6165 18 20.2809 18.1242 21.2923 18.2488C22.1725 18.3572 22.804 18.9953 22.8847 19.8785C22.9478 20.5685 23 21.5712 23 23C23 24.4288 22.9478 25.4315 22.8847 26.1215C22.804 27.0047 22.1725 27.6428 21.2923 27.7512C20.2809 27.8758 18.6165 28 16 28C13.3835 28 11.7191 27.8758 10.7077 27.7512C9.82754 27.6428 9.19599 27.0047 9.11526 26.1215C9.05219 25.4315 9 24.4288 9 23C9 21.5712 9.05219 20.5685 9.11526 19.8785Z" fill="#ACB4C9"/>
<path d="M4.25428 24.9935C4.09047 23.8952 4.90051 22.9235 6.00975 22.8717C10.5114 22.6616 15.8366 22.8539 18.0059 22.9511C18.6348 22.9792 19.2055 23.3078 19.5547 23.8316L20.4695 25.2037C20.805 25.707 21.3499 26.0326 21.9528 26.081C29.8376 26.7143 38.0411 26.3727 41.836 26.1472C43.004 26.0777 43.9811 27.0023 43.8745 28.1675C43.6262 30.8816 42.8869 35.8501 40.6851 41.3733C40.2689 42.4173 39.3857 43.1748 38.2736 43.3374C36.289 43.6276 32.318 43.9995 25 43.9995C17.4211 43.9995 13.4322 43.6006 11.5217 43.3067C10.5326 43.1545 9.72232 42.5178 9.27324 41.6234C6.096 35.296 4.75168 28.3284 4.25428 24.9935Z" fill="#576684"/>
<path fill-rule="evenodd" clip-rule="evenodd" d="M6.86049 35.8078C6.31467 34.2071 5.86716 32.6484 5.50195 31.2012C5.90125 31.106 6.34119 31.0823 6.76391 31.1022C9.25162 31.2192 14.8389 31.3942 26.0001 31.3942C35.0673 31.3942 40.4558 31.2787 43.4924 31.1726C43.2708 32.5485 42.9525 34.1401 42.4953 35.8733C39.3258 35.9372 34.1483 35.9994 26.0001 35.9994C14.9811 35.9994 9.39486 35.8857 6.86049 35.8078Z" fill="#ACB4C9"/>
</svg>