<!-- Copyright © Ewsgit 2022. -->
<!-- Licensed under the MIT License - https://ewsgit.github.io/devdash/copyright -->

<svg xmlns="http://www.w3.org/2000/svg" width="48" height="48" fill="none" viewBox="0 0 48 48"><path fill="#ACB4C9" fill-rule="evenodd" d="M20 13C22.7614 13 25 10.7614 25 8C25 5.23858 22.7614 3 20 3C17.2386 3 15 5.23858 15 8C15 10.7614 17.2386 13 20 13ZM34.1752 43.6017C35.2921 43.7162 36.2704 43.5546 36.958 43.3701C37.594 43.1995 37.9263 42.5609 37.8068 41.9134C37.382 39.6109 36.2748 34.0345 34.6561 28.948C34.2648 27.7184 33.2646 26.7894 32.0201 26.4487C30.7378 26.0976 28.9495 25.618 27.0099 25.1281C26.6911 25.0476 26.4322 24.8182 26.3221 24.5084C25.9562 23.4783 25.092 20.9433 24.3543 17.9968C24.1199 17.0604 23.4729 16.2718 22.5337 16.0486C21.355 15.7686 19.5492 15.506 17.427 15.7576C16.5697 15.8592 15.9436 16.5758 15.8774 17.4366C15.7493 19.1017 15.5657 22.0289 15.5562 25.2233C16.1804 25.0772 16.8312 25 17.5 25C22.1558 25 25.9374 28.7433 25.9992 33.3844L28.3418 33.4745C28.7413 33.4899 29.0929 33.742 29.2385 34.1144C31.0342 38.7065 32.5395 41.7002 33.1754 42.9022C33.3783 43.2856 33.7437 43.5575 34.1752 43.6017Z" clip-rule="evenodd"/><path fill="#576684" fill-rule="evenodd" d="M29 33.5C29 27.1487 23.8513 22 17.5 22C11.1487 22 6 27.1487 6 33.5C6 39.8513 11.1487 45 17.5 45C23.8513 45 29 39.8513 29 33.5ZM24 33.5C24 29.9101 21.0899 27 17.5 27C13.9101 27 11 29.9101 11 33.5C11 37.0898 13.9101 40 17.5 40C21.0899 40 24 37.0898 24 33.5Z" clip-rule="evenodd"/></svg>