<!-- Copyright © Ewsgit 2022. -->
<!-- Licensed under the MIT License - https://ewsgit.github.io/devdash/copyright -->

<svg xmlns="http://www.w3.org/2000/svg" width="48" height="48" fill="none" viewBox="0 0 48 48"><path fill="#ACB4C9" d="M38.1664 4.39627C39.9412 4.56583 41.1267 5.8661 41.3173 7.63878C41.623 10.4829 42 15.6773 42 24C42 33.8233 41.4748 39.7079 41.1615 42.3448C41.0471 43.3075 40.2301 44 39.2606 44C37.3433 44 33.4519 44 26 44C18.5481 44 14.6567 44 12.7394 44C11.7699 44 10.9529 43.3075 10.8385 42.3448C10.5252 39.7079 10 33.8233 10 24C10 15.6773 10.377 10.4829 10.6827 7.63878C10.8733 5.8661 12.0588 4.56583 13.8336 4.39627C15.9548 4.19362 19.6444 4 26 4C32.3556 4 36.0452 4.19362 38.1664 4.39627Z"/><path fill="#576684" fill-rule="evenodd" d="M36 11.5534C36 10.7939 35.4325 10.1629 34.6743 10.1181C33.6962 10.0603 32.1582 10 30 10C27.8418 10 26.3038 10.0603 25.3257 10.1181C24.5675 10.1629 24 10.7939 24 11.5534V12.4466C24 13.2061 24.5675 13.8371 25.3257 13.8819C26.3038 13.9397 27.8418 14 30 14C32.1582 14 33.6962 13.9397 34.6743 13.8819C35.4325 13.8371 36 13.2061 36 12.4466V11.5534ZM36 27.5534C36 26.7939 35.4325 26.1629 34.6743 26.1181C33.6962 26.0603 32.1582 26 30 26C27.8418 26 26.3038 26.0603 25.3257 26.1181C24.5675 26.1629 24 26.7939 24 27.5534V28.4466C24 29.2061 24.5675 29.8371 25.3257 29.8819C26.3038 29.9397 27.8418 30 30 30C32.1582 30 33.6962 29.9397 34.6743 29.8819C35.4325 29.8371 36 29.2061 36 28.4466V27.5534ZM34.6737 18.1108C35.4316 18.1598 36 18.7939 36 19.5534V20.4466C36 21.2061 35.4316 21.8402 34.6737 21.8892C33.8167 21.9447 32.5685 22 31 22C29.4315 22 28.1833 21.9447 27.3263 21.8892C26.5684 21.8402 26 21.2061 26 20.4466V19.5534C26 18.7939 26.5684 18.1598 27.3263 18.1108C28.1833 18.0553 29.4315 18 31 18C32.5685 18 33.8167 18.0553 34.6737 18.1108Z" clip-rule="evenodd"/><path fill="#576684" fill-rule="evenodd" d="M25.9894 44H16.0106C16.0039 43.3998 16 42.7352 16 42C16 38.8411 16.0712 36.9842 16.1357 35.9498C16.182 35.2068 16.5869 34.5633 17.307 34.3746C18.0365 34.1834 19.2044 34 21 34C22.7956 34 23.9635 34.1834 24.693 34.3746C25.4131 34.5633 25.818 35.2068 25.8643 35.9498C25.9288 36.9842 26 38.8411 26 42C26 42.7352 25.9961 43.3998 25.9894 44Z" clip-rule="evenodd"/><path fill="#576684" d="M6.63604 12.636C10.1508 9.12132 15.8492 9.12132 19.364 12.636C22.8787 16.1508 22.8787 21.8492 19.364 25.364C17.005 27.7229 15.0283 29.1828 13.9307 29.9173C13.3616 30.2982 12.6384 30.2982 12.0693 29.9173C10.9717 29.1828 8.995 27.7229 6.63604 25.364C3.12132 21.8492 3.12132 16.1508 6.63604 12.636Z"/><circle cx="13" cy="19" r="3" fill="#ACB4C9"/></svg>