<!-- Copyright © Ewsgit 2022. -->
<!-- Licensed under the MIT License - https://ewsgit.github.io/devdash/copyright -->

<svg xmlns="http://www.w3.org/2000/svg" width="48" height="48" fill="none" viewBox="0 0 48 48"><path fill="#576684" d="M40.7348 6.69642C27.2404 10.4075 22.0008 2.84531 9 5.6311V28.7622C22.2491 25.9232 27.4377 33.8313 41.5173 29.6024C42.7787 29.2235 43.2531 27.7025 42.5465 26.591C41.1844 24.4486 39.3122 21.1857 39 19C41.2041 15.1429 42.4973 11.4773 43.2142 8.96338C43.6343 7.49056 42.2116 6.29031 40.7348 6.69642Z"/><path fill="#ACB4C9" d="M9.7911 3.20675C10.3586 3.33379 10.6748 3.84505 10.704 4.42586C10.8022 6.37554 11 11.7592 11 23.5C11 35.2408 10.8022 40.6245 10.704 42.5741C10.6748 43.155 10.3586 43.6662 9.7911 43.7932C9.30121 43.9029 8.56637 44 7.5 44C6.43363 44 5.69879 43.9029 5.2089 43.7932C4.6414 43.6662 4.32524 43.155 4.29598 42.5741C4.19777 40.6245 4 35.2408 4 23.5C4 11.7592 4.19777 6.37554 4.29598 4.42585C4.32524 3.84504 4.6414 3.33379 5.2089 3.20675C5.69879 3.09709 6.43363 3 7.5 3C8.56637 3 9.30121 3.09709 9.7911 3.20675Z"/></svg>