<!-- Copyright © Ewsgit 2022. -->
<!-- Licensed under the MIT License - https://ewsgit.github.io/devdash/copyright -->

<svg xmlns="http://www.w3.org/2000/svg" width="48" height="48" fill="none" viewBox="0 0 48 48"><path fill="#ACB4C9" d="M11.2721 9.27208C18.3015 2.24264 29.6985 2.24264 36.7279 9.27208C43.7574 16.3015 43.7574 27.6985 36.7279 34.7279C32.7877 38.6681 29.3807 41.488 27.0859 43.2448C25.2433 44.6554 22.7567 44.6554 20.9141 43.2448C18.6193 41.488 15.2123 38.6681 11.2721 34.7279C4.24264 27.6985 4.24264 16.3015 11.2721 9.27208Z"/><path fill="#576684" d="M32 22C32 26.4183 28.4183 30 24 30C19.5817 30 16 26.4183 16 22C16 17.5817 19.5817 14 24 14C28.4183 14 32 17.5817 32 22Z"/></svg>