<!-- Copyright © Ewsgit 2022. -->
<!-- Licensed under the MIT License - https://ewsgit.github.io/devdash/copyright -->

<svg width="48" height="48" viewBox="0 0 48 48" fill="none" xmlns="http://www.w3.org/2000/svg">
<path d="M40.1208 6.58783C26.339 10.5518 21.124 2.8189 8 5.6311V28.7622C21.6111 25.8456 26.7153 34.2715 41.6918 29.228C42.5243 28.9477 43.1583 28.28 43.3178 27.4162C43.6107 25.8307 44 22.6897 44 17.1967C44 13.1781 43.7916 10.4184 43.5651 8.60556C43.358 6.9482 41.726 6.12614 40.1208 6.58783Z" fill="#576684"/>
<path d="M9.25866 3.18767C9.64827 3.32947 9.8096 3.73131 9.82249 4.14572C9.87476 5.82561 10 11.1403 10 23.5C10 35.8597 9.87476 41.1744 9.82249 42.8543C9.8096 43.2687 9.64827 43.6705 9.25866 43.8123C8.97952 43.9139 8.57373 44 8 44C7.42627 44 7.02048 43.9139 6.74134 43.8123C6.35173 43.6705 6.1904 43.2687 6.17751 42.8543C6.12524 41.1744 6 35.8597 6 23.5C6 11.1403 6.12524 5.82561 6.17751 4.14572C6.1904 3.73131 6.35173 3.32947 6.74134 3.18767C7.02048 3.08607 7.42627 3 8 3C8.57373 3 8.97952 3.08607 9.25866 3.18767Z" fill="#ACB4C9"/>
</svg>