<!-- Copyright © Ewsgit 2022. -->
<!-- Licensed under the MIT License - https://ewsgit.github.io/devdash/copyright -->

<svg xmlns="http://www.w3.org/2000/svg" width="48" height="48" fill="none" viewBox="0 0 48 48"><path fill="#ACB4C9" d="M5.5653 20.0035C2.91786 18.9364 2.57892 15.9717 5.19882 14.8386C13.9925 11.0355 30.9182 6.20896 40.0153 5.19296C41.6619 5.00906 42.9909 6.3381 42.807 7.98472C41.7897 17.0934 36.9522 34.0506 33.1469 42.8348C32.0161 45.4451 29.0574 45.1137 27.979 42.4812L21.3827 26.3792L5.5653 20.0035Z"/><path fill="#576684" fill-rule="evenodd" d="M21.4512 26.548L27.9782 42.4812C29.0566 45.1136 32.0153 45.445 33.1461 42.8347C36.9514 34.0506 41.789 17.0934 42.8063 7.98467C42.8982 7.16136 42.6119 6.41744 42.0968 5.90234L21.4512 26.548Z" clip-rule="evenodd"/></svg>