<!-- Copyright © Ewsgit 2022. -->
<!-- Licensed under the MIT License - https://ewsgit.github.io/devdash/copyright -->

<svg width="48" height="48" viewBox="0 0 48 48" fill="none" xmlns="http://www.w3.org/2000/svg">
<path d="M29.9643 4.43299C31.8895 4.63798 33.2311 6.07553 33.4215 8.00227C33.6947 10.7676 34 15.7119 34 24C34 34.3055 33.528 39.8909 33.2325 42.3775C33.1201 43.3242 32.3139 44 31.3605 44C29.5386 44 25.8951 44 19 44C12.1049 44 8.46141 44 6.63947 44C5.68611 44 4.87995 43.3242 4.76747 42.3775C4.47202 39.8909 4 34.3055 4 24C4 15.7119 4.3053 10.7676 4.57852 8.00227C4.76888 6.07552 6.11049 4.63798 8.03574 4.43299C10.1288 4.21013 13.5479 4 19 4C24.4521 4 27.8712 4.21013 29.9643 4.43299Z" fill="#576684"/>
<path fill-rule="evenodd" clip-rule="evenodd" d="M10 11.6383C10 10.8434 10.6183 10.1883 11.4125 10.1552C12.9823 10.0898 15.7315 10 19 10C22.2685 10 25.0177 10.0898 26.5875 10.1552C27.3817 10.1883 28 10.8434 28 11.6383V12.3617C28 13.1566 27.3817 13.8117 26.5875 13.8448C25.0177 13.9102 22.2685 14 19 14C15.7315 14 12.9823 13.9102 11.4125 13.8448C10.6183 13.8117 10 13.1566 10 12.3617V11.6383ZM10 27.4852C10 26.7553 10.5261 26.1351 11.2534 26.074C11.7385 26.0332 12.3372 26 13 26C13.6628 26 14.2615 26.0332 14.7466 26.074C15.4739 26.1351 16 26.7553 16 27.4852V28.5148C16 29.2447 15.4739 29.8649 14.7466 29.926C14.2615 29.9668 13.6628 30 13 30C12.3372 30 11.7385 29.9668 11.2534 29.926C10.5261 29.8649 10 29.2447 10 28.5148V27.4852ZM11.3472 18.1162C10.5802 18.1651 10 18.8062 10 19.5747V20.4253C10 21.1938 10.5802 21.8349 11.3472 21.8838C12.2447 21.941 13.5275 22 15 22C16.4725 22 17.7553 21.941 18.6528 21.8838C19.4198 21.8349 20 21.1938 20 20.4253V19.5747C20 18.8062 19.4198 18.1651 18.6528 18.1162C17.7553 18.059 16.4725 18 15 18C13.5275 18 12.2447 18.059 11.3472 18.1162Z" fill="#ACB4C9"/>
<path d="M31 44H41.7135C42.6669 44 43.4755 43.3264 43.5914 42.3801C43.7763 40.869 44 38.3319 44 34.9C44 31.2996 43.7538 28.9302 43.5644 27.6404C43.4483 26.8492 43.1128 26.1144 42.5697 25.5274C40.2536 23.0247 35.4381 19.3122 31.9689 18.2355C31.3365 18.0393 30.6635 18.0393 30.0311 18.2355C26.5619 19.3122 21.7464 23.0247 19.4303 25.5274C18.8872 26.1144 18.5517 26.8492 18.4356 27.6404C18.2462 28.9302 18 31.2996 18 34.9C18 38.3319 18.2237 40.869 18.4086 42.3801C18.5245 43.3264 19.3331 44 20.2865 44H31Z" fill="#ACB4C9"/>
<path fill-rule="evenodd" clip-rule="evenodd" d="M35.9763 44H31H26.0237C26.0091 43.2501 26 42.3679 26 41.3333C26 38.1541 26.0858 36.4135 26.1544 35.53C26.1942 35.0166 26.484 34.5761 26.9781 34.4308C27.665 34.2288 28.9053 34 31 34C33.0947 34 34.335 34.2288 35.0219 34.4308C35.516 34.5761 35.8058 35.0166 35.8456 35.53C35.9142 36.4135 36 38.1541 36 41.3333C36 42.3679 35.9909 43.2501 35.9763 44Z" fill="#576684"/>
</svg>