<!-- Copyright © Ewsgit 2022. -->
<!-- Licensed under the MIT License - https://ewsgit.github.io/devdash/copyright -->

<svg xmlns="http://www.w3.org/2000/svg" width="24" height="37" fill="none" viewBox="0 0 24 37"><path fill="#ACB4C9" d="M8.20654 0.807915C7.77934 0.0828465 6.7022 0.177524 6.40804 0.965996L4.47927 6.13594L2.21296 5.25067C1.50477 4.97403 0.759124 5.55763 0.857523 6.31154L1.49494 11.1953C0.542334 12.9155 0 14.8945 0 17.0001C0 21.9197 2.96033 26.1478 7.19679 28.0002C4.55858 29.1541 2.41533 31.2292 1.17383 33.8189C4.29437 35.8318 8.01115 37 12.0008 37C15.9904 37 19.7071 35.8318 22.8277 33.8189C21.5861 31.229 19.4425 29.1537 16.804 27.9999C21.04 26.1473 24 21.9194 24 17.0001C24 14.8945 23.4577 12.9155 22.5051 11.1953L23.1425 6.31154C23.2409 5.55763 22.4952 4.97403 21.787 5.25067L19.7676 6.0395L17.8748 0.965997C17.5807 0.177524 16.5035 0.082848 16.0763 0.807916L13.5481 5.09908C13.0413 5.03381 12.5246 5.00015 12 5.00015C11.5664 5.00015 11.1382 5.02314 10.7165 5.06799L8.20654 0.807915Z"/></svg>