<!-- Copyright © Ewsgit 2022. -->
<!-- Licensed under the MIT License - https://ewsgit.github.io/devdash/copyright -->

<svg xmlns="http://www.w3.org/2000/svg" width="16" height="12" fill="none" viewBox="0 0 16 12"><path fill="#576684" fill-rule="evenodd" d="M5 7C5.55228 7 6 7.44772 6 8C6 9.10457 6.89543 10 8 10C9.10457 10 10 9.10457 10 8C10 7.44772 10.4477 7 11 7C11.5523 7 12 7.44772 12 8C12 10.2091 10.2091 12 8 12C5.79086 12 4 10.2091 4 8C4 7.44772 4.44772 7 5 7Z" clip-rule="evenodd"/><path fill="#576684" d="M2.03953 0.280295C2.23276 -0.0934311 2.76724 -0.0934317 2.96047 0.280294L3.48427 1.29335C3.53358 1.38872 3.61128 1.46642 3.70665 1.51573L4.71971 2.03953C5.09343 2.23276 5.09343 2.76724 4.71971 2.96047L3.70665 3.48427C3.61128 3.53358 3.53358 3.61128 3.48427 3.70665L2.96047 4.71971C2.76724 5.09343 2.23276 5.09343 2.03953 4.71971L1.51573 3.70665C1.46642 3.61128 1.38872 3.53358 1.29335 3.48427L0.280295 2.96047C-0.0934312 2.76724 -0.0934317 2.23276 0.280294 2.03953L1.29335 1.51573C1.38872 1.46642 1.46642 1.38872 1.51573 1.29335L2.03953 0.280295Z"/><path fill="#576684" d="M13.0395 0.280295C13.2328 -0.0934311 13.7672 -0.0934317 13.9605 0.280294L14.4843 1.29335C14.5336 1.38872 14.6113 1.46642 14.7067 1.51573L15.7197 2.03953C16.0934 2.23276 16.0934 2.76724 15.7197 2.96047L14.7067 3.48427C14.6113 3.53358 14.5336 3.61128 14.4843 3.70665L13.9605 4.71971C13.7672 5.09343 13.2328 5.09343 13.0395 4.71971L12.5157 3.70665C12.4664 3.61128 12.3887 3.53358 12.2933 3.48427L11.2803 2.96047C10.9066 2.76724 10.9066 2.23276 11.2803 2.03953L12.2933 1.51573C12.3887 1.46642 12.4664 1.38872 12.5157 1.29335L13.0395 0.280295Z"/></svg>