<!-- Copyright © Ewsgit 2022. -->
<!-- Licensed under the MIT License - https://ewsgit.github.io/devdash/copyright -->

<svg xmlns="http://www.w3.org/2000/svg" width="8" height="16" fill="none" viewBox="0 0 8 16"><path fill="#576684" fill-rule="evenodd" d="M1 11C1.55228 11 2 11.4477 2 12C2 13.1046 2.89543 14 4 14C5.10457 14 6 13.1046 6 12C6 11.4477 6.44772 11 7 11C7.55228 11 8 11.4477 8 12C8 14.2091 6.20914 16 4 16C1.79086 16 0 14.2091 0 12C0 11.4477 0.447715 11 1 11Z" clip-rule="evenodd"/><path fill="#576684" fill-rule="evenodd" d="M4 8C6.20914 8 8 6.20914 8 4C8 1.79086 6.20914 0 4 0C1.79086 0 0 1.79086 0 4C0 6.20914 1.79086 8 4 8ZM5 4C5.55228 4 6 3.55228 6 3C6 2.44772 5.55228 2 5 2C4.44772 2 4 2.44772 4 3C4 3.55228 4.44772 4 5 4Z" clip-rule="evenodd"/></svg>