<svg width="256" height="256" viewBox="0 0 256 256" fill="none" xmlns="http://www.w3.org/2000/svg">
<g clip-path="url(#clip0_322_61)">
<rect width="256" height="256" fill="#363636"/>
<path d="M0 0H64V59C64 61.7614 61.7614 64 59 64H0V0Z" fill="#DB6B5C"/>
<rect y="64" width="32" height="32" fill="#DB6B5C"/>
<rect y="96" width="32" height="32" fill="#DB6B5C"/>
<path d="M0 128H43C45.7614 128 48 130.239 48 133V155C48 157.761 45.7614 160 43 160H0V128Z" fill="#DB6B5C"/>
<rect y="160" width="32" height="32" fill="#DB6B5C"/>
<path d="M0 192H59C61.7614 192 64 194.239 64 197V256H0V192Z" fill="#DB6B5C"/>
<path d="M32 64H59C61.7614 64 64 66.2386 64 69V123C64 125.761 61.7614 128 59 128H32V64Z" fill="#8C4646"/>
<path d="M32 160H43C45.7614 160 48 162.239 48 165V187C48 189.761 45.7614 192 43 192H32V160Z" fill="#8C4646"/>
<rect x="64" width="32" height="32" fill="#DB6B5C"/>
<path d="M64 32H96V44C96 46.7614 93.7614 49 91 49H69C66.2386 49 64 46.7614 64 44V32Z" fill="#8C4646"/>
<path d="M64 197C64 194.239 66.2386 192 69 192H123C125.761 192 128 194.239 128 197V224H64V197Z" fill="#8C4646"/>
<rect x="64" y="224" width="32" height="32" fill="#DB6B5C"/>
<path d="M96 0H128V43C128 45.7614 125.761 48 123 48H101C98.2386 48 96 45.7614 96 43V0Z" fill="#DB6B5C"/>
<rect x="96" y="224" width="32" height="32" fill="#DB6B5C"/>
<rect x="128" width="32" height="32" fill="#DB6B5C"/>
<path d="M128 213C128 210.239 130.239 208 133 208H155C157.761 208 160 210.239 160 213V256H128V213Z" fill="#DB6B5C"/>
<rect x="160" width="32" height="32" fill="#DB6B5C"/>
<path d="M128 32H192V59C192 61.7614 189.761 64 187 64H133C130.239 64 128 61.7614 128 59V32Z" fill="#8C4646"/>
<path d="M160 213C160 210.239 162.239 208 165 208H187C189.761 208 192 210.239 192 213V224H160V213Z" fill="#8C4646"/>
<rect x="160" y="224" width="32" height="32" fill="#DB6B5C"/>
<path d="M208 69C208 66.2386 210.239 64 213 64H224V96H213C210.239 96 208 93.7614 208 91V69Z" fill="#8C4646"/>
<path d="M192 133C192 130.239 194.239 128 197 128H224V192H197C194.239 192 192 189.761 192 187V133Z" fill="#8C4646"/>
<path d="M192 0H256V64H197C194.239 64 192 61.7614 192 59V0Z" fill="#DB6B5C"/>
<rect x="224" y="64" width="32" height="32" fill="#DB6B5C"/>
<path d="M208 101C208 98.2386 210.239 96 213 96H256V128H213C210.239 128 208 125.761 208 123V101Z" fill="#DB6B5C"/>
<rect x="224" y="128" width="32" height="32" fill="#DB6B5C"/>
<rect x="224" y="160" width="32" height="32" fill="#DB6B5C"/>
<path d="M192 197C192 194.239 194.239 192 197 192H256V256H192V197Z" fill="#DB6B5C"/>
<g filter="url(#filter0_i_322_61)">
<path d="M105.571 153.655L123.603 144.728L130.386 151.511L102.876 163.112L97.8375 158.074L105.571 153.655ZM115.36 136.485L106.5 154.627L102.036 162.273L96.9978 157.234L108.599 129.724L115.36 136.485ZM119.029 103.737L142.96 149.677L137.656 154.981L113.725 109.041L119.029 103.737ZM154.273 106.721L136.286 115.604L129.525 108.842L156.925 97.3514L161.985 102.412L154.273 106.721ZM144.551 123.868L153.323 105.77L157.765 98.191L162.803 103.229L151.312 130.63L144.551 123.868Z" fill="#F0D794"/>
</g>
<path d="M48 109H75C77.7614 109 80 111.239 80 114V168C80 170.761 77.7614 173 75 173H48V109Z" fill="url(#paint0_linear_322_61)"/>
<path d="M208 144H181C178.239 144 176 141.761 176 139V85C176 82.2386 178.239 80 181 80H208V144Z" fill="url(#paint1_linear_322_61)"/>
<path d="M144 49V76C144 78.7614 141.761 81 139 81L85 81C82.2386 81 80 78.7614 80 76L80 49L144 49Z" fill="url(#paint2_linear_322_61)"/>
<path d="M112 216V189C112 186.239 114.239 184 117 184H171C173.761 184 176 186.239 176 189V216H112Z" fill="url(#paint3_linear_322_61)"/>
</g>
<defs>
<filter id="filter0_i_322_61" x="81.2647" y="81.5962" width="94.8407" height="98.8406" filterUnits="userSpaceOnUse" color-interpolation-filters="sRGB">
<feFlood flood-opacity="0" result="BackgroundImageFix"/>
<feBlend mode="normal" in="SourceGraphic" in2="BackgroundImageFix" result="shape"/>
<feColorMatrix in="SourceAlpha" type="matrix" values="0 0 0 0 0 0 0 0 0 0 0 0 0 0 0 0 0 0 127 0" result="hardAlpha"/>
<feOffset dy="4"/>
<feGaussianBlur stdDeviation="2"/>
<feComposite in2="hardAlpha" operator="arithmetic" k2="-1" k3="1"/>
<feColorMatrix type="matrix" values="0 0 0 0 0 0 0 0 0 0 0 0 0 0 0 0 0 0 0.25 0"/>
<feBlend mode="normal" in2="shape" result="effect1_innerShadow_322_61"/>
</filter>
<linearGradient id="paint0_linear_322_61" x1="80" y1="141" x2="48" y2="141" gradientUnits="userSpaceOnUse">
<stop stop-color="#8C4646"/>
<stop offset="1" stop-color="#8C4646" stop-opacity="0"/>
</linearGradient>
<linearGradient id="paint1_linear_322_61" x1="176" y1="112" x2="208" y2="112" gradientUnits="userSpaceOnUse">
<stop stop-color="#8C4646"/>
<stop offset="1" stop-color="#8C4646" stop-opacity="0"/>
</linearGradient>
<linearGradient id="paint2_linear_322_61" x1="112" y1="81" x2="112" y2="49" gradientUnits="userSpaceOnUse">
<stop stop-color="#8C4646"/>
<stop offset="1" stop-color="#8C4646" stop-opacity="0"/>
</linearGradient>
<linearGradient id="paint3_linear_322_61" x1="144" y1="184" x2="144" y2="216" gradientUnits="userSpaceOnUse">
<stop stop-color="#8C4646"/>
<stop offset="1" stop-color="#8C4646" stop-opacity="0"/>
</linearGradient>
<clipPath id="clip0_322_61">
<rect width="256" height="256" fill="white"/>
</clipPath>
</defs>
</svg>
