<!-- Copyright © Ewsgit 2022. -->
<!-- Licensed under the MIT License - https://ewsgit.github.io/devdash/copyright -->

<svg width="256" height="256" viewBox="0 0 256 256" fill="none" xmlns="http://www.w3.org/2000/svg">
<rect x="16" y="16" width="225" height="225" rx="25" fill="#C4C4C4"/>
<g filter="url(#filter0_i_137_38)">
<rect x="28" y="28" width="200" height="200" rx="25" fill="#606060"/>
</g>
<g filter="url(#filter1_d_137_38)">
<path d="M129.104 181.44C122.192 181.44 116.24 180.288 111.248 177.984C106.352 175.68 102.56 172.368 99.8721 168.048C97.1841 163.728 95.7921 158.592 95.6961 152.64H108.656C108.656 157.92 110.432 162.096 113.984 165.168C117.632 168.24 122.672 169.776 129.104 169.776C135.152 169.776 139.856 168.288 143.216 165.312C146.672 162.336 148.4 158.208 148.4 152.928C148.4 148.704 147.248 145.008 144.944 141.84C142.736 138.672 139.52 136.464 135.296 135.216L121.04 130.752C113.84 128.544 108.272 124.848 104.336 119.664C100.496 114.48 98.5761 108.384 98.5761 101.376C98.5761 95.712 99.8241 90.816 102.32 86.688C104.912 82.464 108.512 79.2 113.12 76.896C117.728 74.496 123.152 73.296 129.392 73.296C138.608 73.296 146 75.888 151.568 81.072C157.136 86.16 159.968 92.976 160.064 101.52H147.104C147.104 96.336 145.52 92.304 142.352 89.424C139.28 86.448 134.912 84.96 129.248 84.96C123.68 84.96 119.312 86.304 116.144 88.992C113.072 91.68 111.536 95.424 111.536 100.224C111.536 104.544 112.688 108.288 114.992 111.456C117.296 114.624 120.608 116.88 124.928 118.224L139.328 122.832C146.336 125.04 151.76 128.784 155.6 134.064C159.44 139.344 161.36 145.536 161.36 152.64C161.36 158.4 160.016 163.44 157.328 167.76C154.64 172.08 150.848 175.44 145.952 177.84C141.152 180.24 135.536 181.44 129.104 181.44Z" fill="#1E1E1E" fill-opacity="0.8" shape-rendering="crispEdges"/>
<path d="M111.248 177.984L110.184 180.246L110.192 180.25L110.2 180.254L111.248 177.984ZM99.8721 168.048L97.7495 169.369L97.7495 169.369L99.8721 168.048ZM95.6961 152.64V150.14H93.1555L93.1965 152.68L95.6961 152.64ZM108.656 152.64H111.156V150.14H108.656V152.64ZM113.984 165.168L112.349 167.059L112.361 167.07L112.374 167.08L113.984 165.168ZM143.216 165.312L141.585 163.418L141.572 163.429L141.559 163.441L143.216 165.312ZM144.944 141.84L142.893 143.269L142.908 143.29L142.922 143.31L144.944 141.84ZM135.296 135.216L134.549 137.602L134.568 137.608L134.588 137.614L135.296 135.216ZM121.04 130.752L121.787 128.366L121.78 128.364L121.773 128.362L121.04 130.752ZM104.336 119.664L102.327 121.152L102.336 121.164L102.345 121.176L104.336 119.664ZM102.32 86.688L100.189 85.3805L100.185 85.3874L100.181 85.3945L102.32 86.688ZM113.12 76.896L114.238 79.1321L114.257 79.1228L114.275 79.1133L113.12 76.896ZM151.568 81.072L149.865 82.9017L149.873 82.9097L149.882 82.9175L151.568 81.072ZM160.064 101.52V104.02H162.592L162.564 101.492L160.064 101.52ZM147.104 101.52H144.604V104.02H147.104V101.52ZM142.352 89.424L140.613 91.2196L140.641 91.2472L140.67 91.2738L142.352 89.424ZM116.144 88.992L114.527 87.0857L114.512 87.098L114.498 87.1106L116.144 88.992ZM114.992 111.456L117.014 109.986L117.014 109.986L114.992 111.456ZM124.928 118.224L125.69 115.843L125.68 115.84L125.671 115.837L124.928 118.224ZM139.328 122.832L138.566 125.213L138.577 125.216L139.328 122.832ZM155.6 134.064L157.622 132.594L157.622 132.594L155.6 134.064ZM157.328 167.76L155.205 166.439L155.205 166.439L157.328 167.76ZM145.952 177.84L144.852 175.595L144.843 175.6L144.834 175.604L145.952 177.84ZM129.104 178.94C122.464 178.94 116.886 177.833 112.296 175.714L110.2 180.254C115.594 182.743 121.921 183.94 129.104 183.94V178.94ZM112.313 175.722C107.824 173.61 104.412 170.612 101.995 166.727L97.7495 169.369C100.709 174.124 104.881 177.75 110.184 180.246L112.313 175.722ZM101.995 166.727C99.5843 162.853 98.2858 158.177 98.1958 152.6L93.1965 152.68C93.2985 159.007 94.784 164.603 97.7495 169.369L101.995 166.727ZM95.6961 155.14H108.656V150.14H95.6961V155.14ZM106.156 152.64C106.156 158.545 108.176 163.45 112.349 167.059L115.62 163.277C112.689 160.742 111.156 157.295 111.156 152.64H106.156ZM112.374 167.08C116.608 170.646 122.289 172.276 129.104 172.276V167.276C123.055 167.276 118.656 165.834 115.594 163.256L112.374 167.08ZM129.104 172.276C135.548 172.276 140.918 170.687 144.874 167.183L141.559 163.441C138.794 165.889 134.756 167.276 129.104 167.276V172.276ZM144.847 167.206C148.945 163.678 150.9 158.808 150.9 152.928H145.9C145.9 157.608 144.4 160.994 141.585 163.418L144.847 167.206ZM150.9 152.928C150.9 148.219 149.606 143.999 146.966 140.37L142.922 143.31C144.891 146.017 145.9 149.189 145.9 152.928H150.9ZM146.995 140.411C144.417 136.712 140.692 134.204 136.004 132.818L134.588 137.614C138.348 138.724 141.055 140.632 142.893 143.269L146.995 140.411ZM136.043 132.83L121.787 128.366L120.293 133.138L134.549 137.602L136.043 132.83ZM121.773 128.362C114.993 126.283 109.898 122.856 106.327 118.152L102.345 121.176C106.646 126.84 112.687 130.805 120.307 133.142L121.773 128.362ZM106.345 118.176C102.852 113.46 101.076 107.897 101.076 101.376H96.0761C96.0761 108.871 98.1404 115.5 102.327 121.152L106.345 118.176ZM101.076 101.376C101.076 96.0876 102.238 91.6559 104.459 87.9815L100.181 85.3945C97.4105 89.9761 96.0761 95.3363 96.0761 101.376H101.076ZM104.451 87.9955C106.789 84.1858 110.03 81.2359 114.238 79.1321L112.002 74.6599C106.994 77.1641 103.036 80.7422 100.189 85.3805L104.451 87.9955ZM114.275 79.1133C118.461 76.9328 123.474 75.796 129.392 75.796V70.796C122.83 70.796 116.995 72.0592 111.965 74.6787L114.275 79.1133ZM129.392 75.796C138.117 75.796 144.853 78.2359 149.865 82.9017L153.272 79.2423C147.147 73.5401 139.099 70.796 129.392 70.796V75.796ZM149.882 82.9175C154.868 87.4743 157.475 93.5951 157.564 101.548L162.564 101.492C162.461 92.3569 159.404 84.8457 153.255 79.2265L149.882 82.9175ZM160.064 99.02H147.104V104.02H160.064V99.02ZM149.604 101.52C149.604 95.7926 147.831 91.0264 144.034 87.5741L140.67 91.2738C143.209 93.5816 144.604 96.8794 144.604 101.52H149.604ZM144.092 87.6284C140.418 84.0693 135.344 82.46 129.248 82.46V87.46C134.48 87.46 138.143 88.8267 140.613 91.2196L144.092 87.6284ZM129.248 82.46C123.291 82.46 118.28 83.9009 114.527 87.0857L117.762 90.8983C120.344 88.7071 124.07 87.46 129.248 87.46V82.46ZM114.498 87.1106C110.786 90.3581 109.036 94.8427 109.036 100.224H114.036C114.036 96.0053 115.358 93.0019 117.79 90.8734L114.498 87.1106ZM109.036 100.224C109.036 105.015 110.324 109.287 112.97 112.926L117.014 109.986C115.053 107.289 114.036 104.073 114.036 100.224H109.036ZM112.97 112.926C115.638 116.595 119.434 119.133 124.185 120.611L125.671 115.837C121.782 114.627 118.954 112.653 117.014 109.986L112.97 112.926ZM124.166 120.605L138.566 125.213L140.09 120.451L125.69 115.843L124.166 120.605ZM138.577 125.216C145.141 127.285 150.092 130.741 153.578 135.534L157.622 132.594C153.428 126.827 147.531 122.795 140.079 120.448L138.577 125.216ZM153.578 135.534C157.08 140.349 158.86 146.015 158.86 152.64H163.86C163.86 145.057 161.8 138.339 157.622 132.594L153.578 135.534ZM158.86 152.64C158.86 157.996 157.615 162.566 155.205 166.439L159.451 169.081C162.417 164.314 163.86 158.804 163.86 152.64H158.86ZM155.205 166.439C152.783 170.333 149.359 173.386 144.852 175.595L147.053 180.085C152.338 177.494 156.497 173.827 159.451 169.081L155.205 166.439ZM144.834 175.604C140.444 177.799 135.224 178.94 129.104 178.94V183.94C135.848 183.94 141.861 182.681 147.07 180.076L144.834 175.604Z" fill="#808080"/>
</g>
<defs>
<filter id="filter0_i_137_38" x="28" y="28" width="200" height="204" filterUnits="userSpaceOnUse" color-interpolation-filters="sRGB">
<feFlood flood-opacity="0" result="BackgroundImageFix"/>
<feBlend mode="normal" in="SourceGraphic" in2="BackgroundImageFix" result="shape"/>
<feColorMatrix in="SourceAlpha" type="matrix" values="0 0 0 0 0 0 0 0 0 0 0 0 0 0 0 0 0 0 127 0" result="hardAlpha"/>
<feOffset dy="4"/>
<feGaussianBlur stdDeviation="2"/>
<feComposite in2="hardAlpha" operator="arithmetic" k2="-1" k3="1"/>
<feColorMatrix type="matrix" values="0 0 0 0 0 0 0 0 0 0 0 0 0 0 0 0 0 0 0.25 0"/>
<feBlend mode="normal" in2="shape" result="effect1_innerShadow_137_38"/>
</filter>
<filter id="filter1_d_137_38" x="91.6961" y="73.2959" width="73.664" height="116.144" filterUnits="userSpaceOnUse" color-interpolation-filters="sRGB">
<feFlood flood-opacity="0" result="BackgroundImageFix"/>
<feColorMatrix in="SourceAlpha" type="matrix" values="0 0 0 0 0 0 0 0 0 0 0 0 0 0 0 0 0 0 127 0" result="hardAlpha"/>
<feOffset dy="4"/>
<feGaussianBlur stdDeviation="2"/>
<feComposite in2="hardAlpha" operator="out"/>
<feColorMatrix type="matrix" values="0 0 0 0 0 0 0 0 0 0 0 0 0 0 0 0 0 0 0.25 0"/>
<feBlend mode="normal" in2="BackgroundImageFix" result="effect1_dropShadow_137_38"/>
<feBlend mode="normal" in="SourceGraphic" in2="effect1_dropShadow_137_38" result="shape"/>
</filter>
</defs>
</svg>