<svg width="256" height="256" viewBox="0 0 256 256" fill="none" xmlns="http://www.w3.org/2000/svg">
<g clip-path="url(#clip0_213_41)">
<circle cx="128" cy="128" r="128" fill="#689581"/>
<g filter="url(#filter0_d_213_41)">
<circle cx="128" cy="129" r="113" fill="#C4C4C4"/>
</g>
<g filter="url(#filter1_i_213_41)">
<circle cx="128" cy="129" r="100" fill="#606060"/>
</g>
<g filter="url(#filter2_i_213_41)">
<path d="M70.9336 103.212V92.8712C70.9336 90.0157 73.8395 88.0799 76.4746 89.1799L123.408 108.773C124.897 109.395 125.867 110.851 125.867 112.465V123.645C125.867 125.271 124.883 126.735 123.377 127.349L76.4439 146.486C73.813 147.559 70.9336 145.624 70.9336 142.783V132.88C70.9336 131.192 71.9927 129.686 73.5808 129.115L94.359 121.648C97.9148 120.37 97.8797 115.329 94.3065 114.101L73.6333 106.995C72.0181 106.439 70.9336 104.92 70.9336 103.212Z" fill="#2B2B2B"/>
</g>
<path d="M70.9336 103.212V92.8712C70.9336 90.0157 73.8395 88.0799 76.4746 89.1799L123.408 108.773C124.897 109.395 125.867 110.851 125.867 112.465V123.645C125.867 125.271 124.883 126.735 123.377 127.349L76.4439 146.486C73.813 147.559 70.9336 145.624 70.9336 142.783V132.88C70.9336 131.192 71.9927 129.686 73.5808 129.115L94.359 121.648C97.9148 120.37 97.8797 115.329 94.3065 114.101L73.6333 106.995C72.0181 106.439 70.9336 104.92 70.9336 103.212Z" stroke="#7F7F7F" stroke-width="3"/>
<g filter="url(#filter3_i_213_41)">
<path d="M178.133 172.2H137.6C133.181 172.2 129.6 168.618 129.6 164.2C129.6 159.782 133.181 156.2 137.6 156.2H178.133C182.551 156.2 186.133 159.782 186.133 164.2C186.133 168.618 182.551 172.2 178.133 172.2Z" fill="#2B2B2B"/>
</g>
<path d="M178.133 172.2H137.6C133.181 172.2 129.6 168.618 129.6 164.2C129.6 159.782 133.181 156.2 137.6 156.2H178.133C182.551 156.2 186.133 159.782 186.133 164.2C186.133 168.618 182.551 172.2 178.133 172.2Z" stroke="#7F7F7F" stroke-width="3"/>
</g>
<defs>
<filter id="filter0_d_213_41" x="11" y="16" width="234" height="234" filterUnits="userSpaceOnUse" color-interpolation-filters="sRGB">
<feFlood flood-opacity="0" result="BackgroundImageFix"/>
<feColorMatrix in="SourceAlpha" type="matrix" values="0 0 0 0 0 0 0 0 0 0 0 0 0 0 0 0 0 0 127 0" result="hardAlpha"/>
<feOffset dy="4"/>
<feGaussianBlur stdDeviation="2"/>
<feComposite in2="hardAlpha" operator="out"/>
<feColorMatrix type="matrix" values="0 0 0 0 0 0 0 0 0 0 0 0 0 0 0 0 0 0 0.25 0"/>
<feBlend mode="normal" in2="BackgroundImageFix" result="effect1_dropShadow_213_41"/>
<feBlend mode="normal" in="SourceGraphic" in2="effect1_dropShadow_213_41" result="shape"/>
</filter>
<filter id="filter1_i_213_41" x="28" y="29" width="200" height="204" filterUnits="userSpaceOnUse" color-interpolation-filters="sRGB">
<feFlood flood-opacity="0" result="BackgroundImageFix"/>
<feBlend mode="normal" in="SourceGraphic" in2="BackgroundImageFix" result="shape"/>
<feColorMatrix in="SourceAlpha" type="matrix" values="0 0 0 0 0 0 0 0 0 0 0 0 0 0 0 0 0 0 127 0" result="hardAlpha"/>
<feOffset dy="4"/>
<feGaussianBlur stdDeviation="2"/>
<feComposite in2="hardAlpha" operator="arithmetic" k2="-1" k3="1"/>
<feColorMatrix type="matrix" values="0 0 0 0 0 0 0 0 0 0 0 0 0 0 0 0 0 0 0.25 0"/>
<feBlend mode="normal" in2="shape" result="effect1_innerShadow_213_41"/>
</filter>
<filter id="filter2_i_213_41" x="69.4336" y="87.3652" width="57.9336" height="64.9229" filterUnits="userSpaceOnUse" color-interpolation-filters="sRGB">
<feFlood flood-opacity="0" result="BackgroundImageFix"/>
<feBlend mode="normal" in="SourceGraphic" in2="BackgroundImageFix" result="shape"/>
<feColorMatrix in="SourceAlpha" type="matrix" values="0 0 0 0 0 0 0 0 0 0 0 0 0 0 0 0 0 0 127 0" result="hardAlpha"/>
<feOffset dy="4"/>
<feGaussianBlur stdDeviation="2"/>
<feComposite in2="hardAlpha" operator="arithmetic" k2="-1" k3="1"/>
<feColorMatrix type="matrix" values="0 0 0 0 0 0 0 0 0 0 0 0 0 0 0 0 0 0 0.25 0"/>
<feBlend mode="normal" in2="shape" result="effect1_innerShadow_213_41"/>
</filter>
<filter id="filter3_i_213_41" x="128.1" y="154.7" width="59.5332" height="23" filterUnits="userSpaceOnUse" color-interpolation-filters="sRGB">
<feFlood flood-opacity="0" result="BackgroundImageFix"/>
<feBlend mode="normal" in="SourceGraphic" in2="BackgroundImageFix" result="shape"/>
<feColorMatrix in="SourceAlpha" type="matrix" values="0 0 0 0 0 0 0 0 0 0 0 0 0 0 0 0 0 0 127 0" result="hardAlpha"/>
<feOffset dy="4"/>
<feGaussianBlur stdDeviation="2"/>
<feComposite in2="hardAlpha" operator="arithmetic" k2="-1" k3="1"/>
<feColorMatrix type="matrix" values="0 0 0 0 0 0 0 0 0 0 0 0 0 0 0 0 0 0 0.25 0"/>
<feBlend mode="normal" in2="shape" result="effect1_innerShadow_213_41"/>
</filter>
<clipPath id="clip0_213_41">
<rect width="256" height="256" fill="white"/>
</clipPath>
</defs>
</svg>
