<!-- Copyright © Ewsgit 2022. -->
<!-- Licensed under the MIT License - https://ewsgit.github.io/devdash/copyright -->

<svg xmlns="http://www.w3.org/2000/svg" width="256" height="256" fill="none" viewBox="0 0 256 256"><g clip-path="url(#clip0_3_2)"><circle cx="128" cy="128" r="100" fill="#DB6B5C"/><g filter="url(#filter0_i_3_2)"><circle cx="128.5" cy="128.5" r="87.5" fill="#8C4646"/></g><g filter="url(#filter1_i_3_2)"><path fill="#F0D794" d="M64.25 132.027L99.9922 144.098V162.086L48.1367 140.992V127.633L64.25 132.027ZM99.9922 122.242L64.1914 134.547L48.1367 138.766V125.406L99.9922 104.312V122.242ZM148.273 83.6875L119.094 176.324H105.031L134.211 83.6875H148.273ZM191.047 134.371L155.422 122.301V104.371L206.984 125.465V138.883L191.047 134.371ZM155.422 144.215L191.047 131.852L206.984 127.691V141.051L155.422 162.145V144.215Z"/></g></g><defs><filter id="filter0_i_3_2" width="175" height="179" x="41" y="41" color-interpolation-filters="sRGB" filterUnits="userSpaceOnUse"><feFlood flood-opacity="0" result="BackgroundImageFix"/><feBlend in="SourceGraphic" in2="BackgroundImageFix" mode="normal" result="shape"/><feColorMatrix in="SourceAlpha" result="hardAlpha" type="matrix" values="0 0 0 0 0 0 0 0 0 0 0 0 0 0 0 0 0 0 127 0"/><feOffset dy="4"/><feGaussianBlur stdDeviation="2"/><feComposite in2="hardAlpha" k2="-1" k3="1" operator="arithmetic"/><feColorMatrix type="matrix" values="0 0 0 0 0 0 0 0 0 0 0 0 0 0 0 0 0 0 0.25 0"/><feBlend in2="shape" mode="normal" result="effect1_innerShadow_3_2"/></filter><filter id="filter1_i_3_2" width="158.848" height="96.637" x="48.137" y="83.688" color-interpolation-filters="sRGB" filterUnits="userSpaceOnUse"><feFlood flood-opacity="0" result="BackgroundImageFix"/><feBlend in="SourceGraphic" in2="BackgroundImageFix" mode="normal" result="shape"/><feColorMatrix in="SourceAlpha" result="hardAlpha" type="matrix" values="0 0 0 0 0 0 0 0 0 0 0 0 0 0 0 0 0 0 127 0"/><feOffset dy="4"/><feGaussianBlur stdDeviation="2"/><feComposite in2="hardAlpha" k2="-1" k3="1" operator="arithmetic"/><feColorMatrix type="matrix" values="0 0 0 0 0 0 0 0 0 0 0 0 0 0 0 0 0 0 0.25 0"/><feBlend in2="shape" mode="normal" result="effect1_innerShadow_3_2"/></filter><clipPath id="clip0_3_2"><rect width="256" height="256" fill="#fff"/></clipPath></defs></svg>