<!-- Copyright © Ewsgit 2022. -->
<!-- Licensed under the MIT License - https://ewsgit.github.io/devdash/copyright -->

<svg width="256" height="256" viewBox="0 0 256 256" fill="none" xmlns="http://www.w3.org/2000/svg">
<rect width="256" height="256" rx="25" fill="#F3DF49"/>
<path d="M128.721 240.296C146.577 240.296 158.817 230.792 158.817 209.912V141.08H138.657V209.624C138.657 219.704 134.481 222.296 127.857 222.296C120.945 222.296 118.065 217.544 114.897 211.928L98.4814 221.864C103.233 231.944 112.593 240.296 128.721 240.296ZM206.495 240.296C225.647 240.296 239.903 230.36 239.903 212.216C239.903 195.368 230.255 187.88 213.119 180.536L208.079 178.376C199.439 174.632 195.695 172.184 195.695 166.136C195.695 161.24 199.439 157.496 205.343 157.496C211.103 157.496 214.847 159.944 218.303 166.136L233.999 156.056C227.375 144.392 218.159 139.928 205.343 139.928C187.343 139.928 175.823 151.448 175.823 166.568C175.823 182.984 185.471 190.76 200.015 196.952L205.055 199.112C214.271 203.144 219.743 205.592 219.743 212.504C219.743 218.264 214.415 222.44 206.063 222.44C196.127 222.44 190.511 217.256 186.191 210.2L169.775 219.704C175.679 231.368 187.775 240.296 206.495 240.296Z" fill="#2E2E2C"/>
</svg>