<!-- Copyright © Ewsgit 2022. -->
<!-- Licensed under the MIT License - https://ewsgit.github.io/devdash/copyright -->

<svg width="256" height="256" viewBox="0 0 256 256" fill="none" xmlns="http://www.w3.org/2000/svg">
    <rect x="4" y="4" width="248" height="248" rx="21" fill="#0B1120"/>
    <path fill-rule="evenodd" clip-rule="evenodd"
          d="M128 65C100.8 65 83.8 78.6364 77 105.909C87.2 92.2727 99.1 87.1591 112.7 90.5682C120.46 92.5114 126.005 98.1591 132.144 104.405C142.144 114.583 153.719 126.364 179 126.364C206.2 126.364 223.2 112.727 230 85.4545C219.8 99.0909 207.9 104.205 194.3 100.795C186.54 98.8523 180.995 93.2045 174.856 86.9583C164.856 76.7803 153.281 65 128 65ZM77 126.364C49.8 126.364 32.8 140 26 167.273C36.2 153.636 48.1 148.523 61.7 151.932C69.4596 153.879 75.0053 159.523 81.1442 165.769C91.144 175.947 102.719 187.727 128 187.727C155.2 187.727 172.2 174.091 179 146.818C168.8 160.455 156.9 165.568 143.3 162.159C135.54 160.216 129.995 154.568 123.856 148.322C113.856 138.144 102.281 126.364 77 126.364Z"
          fill="#14B4C6"/>
    <rect x="4" y="4" width="248" height="248" rx="21" stroke="#14B4C6" stroke-width="8"/>
</svg>