<!-- Copyright © Ewsgit 2022. -->
<!-- Licensed under the MIT License - https://ewsgit.github.io/devdash/copyright -->

<svg width="256" height="256" viewBox="0 0 256 256" fill="none" xmlns="http://www.w3.org/2000/svg">
<rect width="256" height="256" rx="25" fill="#3178C6"/>
<path d="M248 128.077C248 112.15 228.09 97.0568 197.564 87.6967C204.608 56.5291 201.477 31.7322 187.682 23.7933C184.502 21.9311 180.784 21.049 176.724 21.049V31.9773C178.974 31.9773 180.784 32.4183 182.301 33.2514C188.954 37.0739 191.84 51.6285 189.59 70.3487C189.052 74.9552 188.171 79.8068 187.095 84.7563C177.507 82.4041 167.038 80.5909 156.031 79.4147C149.427 70.3487 142.578 62.1157 135.68 54.9119C151.628 40.0632 166.598 31.9283 176.773 31.9283V21C163.32 21 145.709 30.6051 127.902 47.267C110.095 30.7031 92.4843 21.196 79.0314 21.196V32.1243C89.1578 32.1243 104.176 40.2102 120.124 54.9609C113.275 62.1647 106.426 70.3487 99.9201 79.4147C88.8643 80.5909 78.3954 82.4041 68.8072 84.8053C67.682 79.9048 66.8504 75.1512 66.2633 70.5937C63.9641 51.8736 66.8015 37.3189 73.4056 33.4474C74.8732 32.5653 76.7811 32.1733 79.0314 32.1733V21.245C74.9221 21.245 71.2042 22.1271 67.9755 23.9893C54.2291 31.9283 51.1472 56.6761 58.2405 87.7457C27.8125 97.1548 8 112.2 8 128.077C8 144.004 27.9103 159.098 58.4362 168.458C51.3918 199.626 54.5226 224.422 68.318 232.361C71.4978 234.224 75.2157 235.106 79.3249 235.106C92.7778 235.106 110.389 225.501 128.196 208.839C146.002 225.403 163.614 234.91 177.066 234.91C181.176 234.91 184.894 234.028 188.122 232.165C201.869 224.226 204.951 199.479 197.857 168.409C228.188 159.049 248 143.955 248 128.077ZM184.307 95.3906C182.497 101.712 180.246 108.23 177.702 114.748C175.697 110.827 173.593 106.907 171.294 102.986C169.044 99.066 166.647 95.2435 164.25 91.5191C171.196 92.5482 177.898 93.8224 184.307 95.3906ZM161.901 147.582C158.086 154.197 154.172 160.47 150.112 166.302C142.823 166.939 135.436 167.282 128 167.282C120.613 167.282 113.226 166.939 105.986 166.351C101.926 160.519 97.9633 154.295 94.1476 147.729C90.4297 141.309 87.0542 134.791 83.9723 128.224C87.0053 121.658 90.4297 115.091 94.0987 108.671C97.9144 102.055 101.828 95.7826 105.888 89.9509C113.177 89.3139 120.564 88.9708 128 88.9708C135.387 88.9708 142.774 89.3139 150.014 89.9019C154.074 95.7336 158.037 101.957 161.852 108.524C165.57 114.944 168.946 121.462 172.028 128.028C168.946 134.595 165.57 141.162 161.901 147.582ZM177.702 141.211C180.344 147.778 182.594 154.344 184.453 160.715C178.045 162.283 171.294 163.606 164.298 164.636C166.695 160.862 169.093 156.991 171.343 153.021C173.593 149.101 175.697 145.131 177.702 141.211ZM128.098 193.5C123.548 188.795 118.999 183.552 114.498 177.818C118.901 178.014 123.402 178.161 127.951 178.161C132.55 178.161 137.099 178.063 141.551 177.818C137.148 183.552 132.598 188.795 128.098 193.5ZM91.7016 164.636C84.755 163.606 78.053 162.332 71.6445 160.764C73.4545 154.442 75.7048 147.925 78.2487 141.407C80.2544 145.327 82.3579 149.248 84.6572 153.168C86.9564 157.089 89.3045 160.911 91.7016 164.636ZM127.853 62.6548C132.403 67.3593 136.952 72.6029 141.453 78.3366C137.05 78.1406 132.55 77.9936 128 77.9936C123.402 77.9936 118.852 78.0916 114.4 78.3366C118.803 72.6029 123.353 67.3593 127.853 62.6548ZM91.6527 91.5191C89.2556 95.2925 86.8585 99.164 84.6082 103.133C82.3579 107.054 80.2544 110.974 78.2487 114.895C75.607 108.328 73.3567 101.761 71.4978 95.3906C77.9062 93.8714 84.6572 92.5482 91.6527 91.5191ZM47.3804 152.874C30.0628 145.474 18.8602 135.771 18.8602 128.077C18.8602 120.383 30.0628 110.631 47.3804 103.28C51.5875 101.467 56.1859 99.8501 60.9311 98.3309C63.7195 107.936 67.3885 117.933 71.938 128.175C67.4374 138.369 63.8174 148.317 61.0779 157.873C56.2348 156.354 51.6364 154.687 47.3804 152.874ZM73.6992 222.903C67.0461 219.081 64.1598 204.526 66.4101 185.806C66.9482 181.199 67.8288 176.348 68.905 171.398C78.4933 173.751 88.9621 175.564 99.969 176.74C106.573 185.806 113.422 194.039 120.32 201.243C104.372 216.091 89.4024 224.226 79.2271 224.226C77.0257 224.177 75.1667 223.736 73.6992 222.903ZM189.737 185.561C192.036 204.281 189.199 218.836 182.594 222.707C181.127 223.589 179.219 223.981 176.969 223.981C166.842 223.981 151.824 215.895 135.876 201.145C142.725 193.941 149.574 185.757 156.08 176.691C167.136 175.515 177.605 173.702 187.193 171.3C188.318 176.25 189.199 181.003 189.737 185.561ZM208.571 152.874C204.364 154.687 199.765 156.305 195.02 157.824C192.232 148.219 188.563 138.221 184.013 127.979C188.514 117.786 192.134 107.838 194.873 98.2819C199.716 99.8011 204.315 101.467 208.62 103.28C225.937 110.68 237.14 120.383 237.14 128.077C237.091 135.771 225.888 145.523 208.571 152.874Z" fill="white"/>
<path d="M127.951 150.473C140.298 150.473 150.307 140.446 150.307 128.077C150.307 115.709 140.298 105.682 127.951 105.682C115.604 105.682 105.595 115.709 105.595 128.077C105.595 140.446 115.604 150.473 127.951 150.473Z" fill="white"/>
</svg>