<!-- Copyright © Ewsgit 2022. -->
<!-- Licensed under the MIT License - https://ewsgit.github.io/devdash/copyright -->

<svg width="256" height="256" viewBox="0 0 256 256" fill="none" xmlns="http://www.w3.org/2000/svg">
<rect x="4" y="4" width="248" height="248" rx="21" fill="white"/>
<path fill-rule="evenodd" clip-rule="evenodd" d="M105.134 23.4803C48.724 35.4179 10.8765 90.8542 20.4927 147.454C26.4652 182.593 48.4044 212.677 79.063 227.763C98.016 237.088 100.568 236.243 100.568 220.63V208.901L92.6298 209.991C80.6009 211.642 69.0724 205.918 63.8999 195.727C61.6863 191.367 57.0617 185.133 53.6225 181.871C44.6547 173.368 49.1861 168.657 60.1046 175.134C65.5912 178.391 75.7352 191.658 73.6348 192.832C72.8769 193.256 73.2257 193.375 74.4074 193.095C75.5909 192.817 78.926 193.485 81.8209 194.579C91.1413 198.102 99.4552 195.184 102.48 187.33C103.93 183.566 105.393 179.869 105.733 179.115C106.072 178.36 104.374 177.744 101.957 177.744C88.3395 177.744 70.4988 166.408 63.5456 153.336C57.3996 141.785 57.5969 112.188 63.8889 102.053C67.4505 96.3183 68.2231 92.8658 67.8706 84.2417C67.0596 64.3293 72.4805 61.3431 90.9367 71.5306C99.1319 76.0548 101.457 76.5741 107.375 75.1989C116.248 73.1362 139.681 73.1362 148.554 75.1989C154.471 76.5741 156.796 76.0548 164.992 71.5306C183.448 61.3431 188.869 64.3293 188.058 84.2417C187.705 92.8658 188.478 96.3183 192.039 102.053C198.331 112.188 198.529 141.785 192.383 153.336C185.464 166.342 167.591 177.744 154.122 177.744C149.24 177.744 149.045 178.349 152.164 183.808C153.487 186.121 154.831 197.411 155.361 210.64C156.455 237.982 156.318 237.874 176.856 227.767C196.397 218.152 215.84 198.655 225.489 178.998C265.762 96.9565 194.299 4.61391 105.134 23.4803ZM56.7329 176.829C56.7329 177.332 57.1439 177.744 57.6462 177.744C58.1484 177.744 58.5594 177.332 58.5594 176.829C58.5594 176.327 58.1484 175.915 57.6462 175.915C57.1439 175.915 56.7329 176.327 56.7329 176.829ZM62.2123 181.401C62.2123 182.742 62.7602 183.29 63.4305 182.621C64.099 181.95 64.099 180.852 63.4305 180.181C62.7602 179.512 62.2123 180.061 62.2123 181.401ZM65.8652 186.887C65.8652 187.893 66.7364 188.716 67.7994 188.716C68.8623 188.716 69.2258 187.893 68.6048 186.887C67.9838 185.881 67.1144 185.058 66.6706 185.058C66.2268 185.058 65.8652 185.881 65.8652 186.887ZM78.6502 197.859C78.6502 198.865 79.5214 199.688 80.5844 199.688C81.6474 199.688 82.0109 198.865 81.3899 197.859C80.7689 196.853 79.8995 196.03 79.4557 196.03C79.0119 196.03 78.6502 196.853 78.6502 197.859ZM87.7824 199.796C87.7824 200.86 88.6043 201.224 89.6089 200.602C90.6134 199.98 91.4353 199.11 91.4353 198.666C91.4353 198.221 90.6134 197.859 89.6089 197.859C88.6043 197.859 87.7824 198.731 87.7824 199.796ZM95.6964 199.079C96.3667 199.748 97.4626 199.748 98.1329 199.079C98.8014 198.408 98.2534 197.859 96.9146 197.859C95.5759 197.859 95.0279 198.408 95.6964 199.079Z" fill="black"/>
<rect width="44" height="256" fill="black"/>
<rect width="44" height="256" fill="black"/>
<rect width="44" height="256" fill="black"/>
<rect width="44" height="256" fill="black"/>
<rect x="212" width="44" height="256" fill="black"/>
<rect x="212" width="44" height="256" fill="black"/>
<rect x="212" width="44" height="256" fill="black"/>
<rect x="212" width="44" height="256" fill="black"/>
<rect x="44" width="182" height="62" fill="black"/>
<rect x="44" width="182" height="62" fill="black"/>
<rect x="44" width="182" height="62" fill="black"/>
<rect x="44" width="182" height="62" fill="black"/>
<rect y="199" width="60" height="57" fill="black"/>
<rect y="199" width="60" height="57" fill="black"/>
<rect y="199" width="60" height="57" fill="black"/>
<rect y="199" width="60" height="57" fill="black"/>
<rect y="232" width="256" height="24" fill="black"/>
<rect y="232" width="256" height="24" fill="black"/>
<rect y="232" width="256" height="24" fill="black"/>
<rect y="232" width="256" height="24" fill="black"/>
<rect y="215" width="95" height="41" fill="black"/>
<rect y="215" width="95" height="41" fill="black"/>
<rect y="215" width="95" height="41" fill="black"/>
<rect y="215" width="95" height="41" fill="black"/>
<rect x="161" y="199" width="95" height="41" fill="black"/>
<rect x="161" y="199" width="95" height="41" fill="black"/>
<rect x="161" y="199" width="95" height="41" fill="black"/>
<rect x="161" y="199" width="95" height="41" fill="black"/>
<rect x="4" y="4" width="248" height="248" rx="21" stroke="white" stroke-width="8"/>
</svg>