<!-- Copyright © Ewsgit 2022. -->
<!-- Licensed under the MIT License - https://ewsgit.github.io/devdash/copyright -->

<svg width="256" height="256" viewBox="0 0 256 256" fill="none" xmlns="http://www.w3.org/2000/svg">
<rect width="256" height="256" rx="25" fill="#3178C6"/>
<path d="M122.614 239H142.774V158.792H170.71V141.08H94.6783V158.792H122.614V239ZM213.034 240.296C232.186 240.296 246.442 230.36 246.442 212.216C246.442 195.368 236.794 187.88 219.658 180.536L214.618 178.376C205.978 174.632 202.234 172.184 202.234 166.136C202.234 161.24 205.978 157.496 211.882 157.496C217.642 157.496 221.386 159.944 224.842 166.136L240.538 156.056C233.914 144.392 224.698 139.928 211.882 139.928C193.882 139.928 182.362 151.448 182.362 166.568C182.362 182.984 192.01 190.76 206.554 196.952L211.594 199.112C220.81 203.144 226.282 205.592 226.282 212.504C226.282 218.264 220.954 222.44 212.602 222.44C202.666 222.44 197.05 217.256 192.73 210.2L176.314 219.704C182.218 231.368 194.314 240.296 213.034 240.296Z" fill="white"/>
</svg>