<svg width="256" height="256" viewBox="0 0 256 256" fill="none" xmlns="http://www.w3.org/2000/svg">
<g clip-path="url(#clip0_1004_38)">
<path d="M68.1809 119.785C68.4859 120.055 68.8682 120.217 69.2695 120.148C70.2763 119.974 72.4639 119.234 75.5132 116.185C78.5625 113.136 79.3025 110.948 79.4758 109.941C79.5449 109.54 79.3832 109.158 79.1134 108.853C78.0382 107.638 74.8659 104.119 69.8038 99.0573C64.309 93.5625 56.3494 86.0107 54.3177 84.0882C53.9994 83.787 53.5926 83.6056 53.1616 83.6847C52.1339 83.8734 49.9676 84.6377 46.9667 87.6386C43.9657 90.6396 43.2015 92.8059 43.0128 93.8335C42.9336 94.2645 43.115 94.6713 43.4162 94.9896C45.3387 97.0214 52.8904 104.981 58.3852 110.476C63.4474 115.538 66.9659 118.71 68.1809 119.785Z" fill="#ADC6CC"/>
<path d="M91.0177 96.9481C91.3226 97.2179 91.705 97.3795 92.1062 97.3105C93.113 97.1371 95.3007 96.3972 98.35 93.3479C101.399 90.2986 102.139 88.111 102.313 87.1042C102.382 86.7028 102.22 86.3205 101.95 86.0155C100.875 84.8005 97.7027 81.2821 92.6406 76.22C87.1458 70.7252 79.1862 63.1735 77.1545 61.2509C76.8362 60.9497 76.4294 60.7683 75.9984 60.8474C74.9707 61.0361 72.8044 61.8004 69.8035 64.8013C66.8025 67.8023 66.0383 69.9686 65.8496 70.9963C65.7704 71.4272 65.9518 71.8341 66.253 72.1523C68.1755 74.1841 75.7272 82.1438 81.222 87.6386C86.2842 92.7008 89.8027 95.873 91.0177 96.9481Z" fill="#ADC6CC"/>
<path d="M113.855 74.1109C114.16 74.3807 114.543 74.5424 114.944 74.4733C115.951 74.3 118.138 73.5601 121.188 70.5107C124.237 67.4614 124.977 65.2738 125.15 64.267C125.219 63.8657 125.058 63.4834 124.788 63.1784C123.713 61.9634 120.541 58.445 115.478 53.3829C109.984 47.888 102.024 40.3363 99.9922 38.4137C99.674 38.1125 99.2671 37.9311 98.8361 38.0103C97.8085 38.199 95.6421 38.9632 92.6412 41.9642C89.6403 44.9651 88.876 47.1315 88.6873 48.1591C88.6082 48.5901 88.7896 48.9969 89.0908 49.3152C91.0133 51.3469 98.5649 59.3066 104.06 64.8015C109.122 69.8636 112.64 73.0358 113.855 74.1109Z" fill="#ADC6CC"/>
<path d="M159.53 211.134C159.835 211.404 160.217 211.566 160.619 211.497C161.625 211.323 163.813 210.583 166.862 207.534C169.912 204.485 170.652 202.297 170.825 201.29C170.894 200.889 170.732 200.507 170.462 200.202C169.387 198.987 166.215 195.468 161.153 190.406C155.658 184.911 147.699 177.36 145.667 175.437C145.349 175.136 144.942 174.955 144.511 175.034C143.483 175.222 141.317 175.987 138.316 178.988C135.315 181.989 134.551 184.155 134.362 185.183C134.283 185.614 134.464 186.02 134.765 186.339C136.688 188.37 144.239 196.33 149.734 201.825C154.796 206.887 158.315 210.059 159.53 211.134Z" fill="#ADC6CC"/>
<path d="M182.367 188.297C182.672 188.567 183.054 188.729 183.455 188.659C184.462 188.486 186.65 187.746 189.699 184.697C192.748 181.648 193.488 179.46 193.662 178.453C193.731 178.052 193.569 177.67 193.299 177.365C192.224 176.15 189.052 172.631 183.99 167.569C178.495 162.074 170.535 154.522 168.504 152.6C168.185 152.299 167.778 152.117 167.347 152.196C166.32 152.385 164.154 153.149 161.153 156.15C158.152 159.151 157.387 161.318 157.199 162.345C157.12 162.776 157.301 163.183 157.602 163.501C159.525 165.533 167.076 173.493 172.571 178.988C177.633 184.05 181.152 187.222 182.367 188.297Z" fill="#ADC6CC"/>
<path d="M205.205 165.46C205.51 165.73 205.892 165.891 206.293 165.822C207.3 165.649 209.488 164.909 212.537 161.86C215.586 158.81 216.326 156.623 216.499 155.616C216.569 155.215 216.407 154.832 216.137 154.527C215.062 153.312 211.89 149.794 206.828 144.732C201.333 139.237 193.373 131.685 191.341 129.763C191.023 129.462 190.616 129.28 190.185 129.359C189.158 129.548 186.991 130.312 183.99 133.313C180.989 136.314 180.225 138.48 180.036 139.508C179.957 139.939 180.139 140.346 180.44 140.664C182.362 142.696 189.914 150.656 195.409 156.15C200.471 161.213 203.99 164.385 205.205 165.46Z" fill="#ADC6CC"/>
<path d="M135.555 68.5889C135.285 68.8938 135.123 69.2761 135.192 69.6774C135.366 70.6842 136.106 72.8718 139.155 75.9212C142.204 78.9705 144.392 79.7104 145.399 79.8837C145.8 79.9528 146.182 79.7912 146.487 79.5213C147.702 78.4462 151.221 75.2739 156.283 70.2118C161.778 64.717 169.329 56.7574 171.252 54.7256C171.553 54.4074 171.735 54.0005 171.655 53.5695C171.467 52.5419 170.702 50.3756 167.701 47.3746C164.701 44.3737 162.534 43.6094 161.507 43.4207C161.076 43.3416 160.669 43.523 160.35 43.8242C158.319 45.7467 150.359 53.2983 144.864 58.7932C139.802 63.8553 136.63 67.3739 135.555 68.5889Z" fill="#ADC6CC"/>
<path d="M158.392 91.4261C158.122 91.7311 157.96 92.1134 158.029 92.5147C158.202 93.5215 158.942 95.7091 161.992 98.7584C165.041 101.808 167.229 102.548 168.235 102.721C168.637 102.79 169.019 102.628 169.324 102.359C170.539 101.283 174.057 98.1112 179.12 93.0491C184.614 87.5542 192.166 79.5947 194.089 77.5629C194.39 77.2446 194.571 76.8378 194.492 76.4068C194.303 75.3792 193.539 73.2128 190.538 70.2119C187.537 67.211 185.371 66.4467 184.343 66.258C183.912 66.1789 183.506 66.3603 183.187 66.6614C181.156 68.584 173.196 76.1356 167.701 81.6305C162.639 86.6926 159.467 90.2111 158.392 91.4261Z" fill="#ADC6CC"/>
<path d="M181.229 114.263C180.959 114.568 180.798 114.951 180.867 115.352C181.04 116.359 181.78 118.546 184.829 121.596C187.879 124.645 190.066 125.385 191.073 125.558C191.474 125.627 191.857 125.466 192.162 125.196C193.377 124.121 196.895 120.948 201.957 115.886C207.452 110.392 215.004 102.432 216.926 100.4C217.228 100.082 217.409 99.6751 217.33 99.2441C217.141 98.2165 216.377 96.0501 213.376 93.0492C210.375 90.0482 208.209 89.284 207.181 89.0953C206.75 89.0161 206.343 89.1975 206.025 89.4987C203.993 91.4213 196.033 98.9729 190.539 104.468C185.476 109.53 182.304 113.048 181.229 114.263Z" fill="#ADC6CC"/>
<path d="M44.2057 159.938C43.9359 160.243 43.7743 160.625 43.8434 161.026C44.0167 162.033 44.7566 164.221 47.8059 167.27C50.8552 170.319 53.0428 171.059 54.0497 171.233C54.451 171.302 54.8333 171.14 55.1383 170.87C56.3533 169.795 59.8717 166.623 64.9338 161.561C70.4286 156.066 77.9804 148.106 79.9029 146.075C80.2041 145.756 80.3855 145.35 80.3064 144.919C80.1177 143.891 79.3534 141.725 76.3525 138.724C73.3515 135.723 71.1852 134.958 70.1576 134.77C69.7266 134.691 69.3198 134.872 69.0015 135.173C66.9697 137.096 59.01 144.647 53.5152 150.142C48.453 155.204 45.2808 158.723 44.2057 159.938Z" fill="#ADC6CC"/>
<path d="M67.0425 182.775C66.7727 183.08 66.6111 183.462 66.6801 183.864C66.8535 184.87 67.5934 187.058 70.6427 190.107C73.692 193.157 75.8796 193.897 76.8864 194.07C77.2878 194.139 77.6701 193.977 77.9751 193.708C79.1901 192.632 82.7085 189.46 87.7706 184.398C93.2654 178.903 100.817 170.944 102.74 168.912C103.041 168.594 103.222 168.187 103.143 167.756C102.954 166.728 102.19 164.562 99.1893 161.561C96.1883 158.56 94.022 157.796 92.9944 157.607C92.5634 157.528 92.1565 157.709 91.8383 158.01C89.8065 159.933 81.8468 167.485 76.352 172.979C71.2898 178.042 68.1176 181.56 67.0425 182.775Z" fill="#ADC6CC"/>
<path d="M89.8802 205.612C89.6104 205.917 89.4487 206.3 89.5178 206.701C89.6911 207.708 90.431 209.895 93.4804 212.945C96.5297 215.994 98.7173 216.734 99.7241 216.907C100.125 216.976 100.508 216.815 100.813 216.545C102.028 215.47 105.546 212.297 110.608 207.235C116.103 201.741 123.655 193.781 125.577 191.749C125.879 191.431 126.06 191.024 125.981 190.593C125.792 189.565 125.028 187.399 122.027 184.398C119.026 181.397 116.86 180.633 115.832 180.444C115.401 180.365 114.994 180.547 114.676 180.848C112.644 182.77 104.684 190.322 99.1896 195.817C94.1275 200.879 90.9553 204.397 89.8802 205.612Z" fill="#ADC6CC"/>
<g filter="url(#filter0_d_1004_38)">
<path d="M39.1813 132.796C38.1687 131.398 37.9907 129.631 38.7856 128.099C41.6468 122.582 51.0597 107.441 79.0207 79.4801C106.982 51.5191 122.123 42.1063 127.639 39.245C129.172 38.4501 130.938 38.6281 132.337 39.6407C137.046 43.0517 149.77 53.1712 176.079 79.4801C202.388 105.789 212.507 118.513 215.918 123.223C216.931 124.621 217.109 126.387 216.314 127.92C213.453 133.436 204.04 148.577 176.079 176.538C148.118 204.499 132.977 213.912 127.46 216.774C125.928 217.568 124.161 217.39 122.763 216.378C118.053 212.967 105.33 202.847 79.0207 176.538C52.7118 150.23 42.5923 137.506 39.1813 132.796Z" fill="#464642"/>
</g>
<g filter="url(#filter1_i_1004_38)">
<path d="M76.6376 132.125C75.5943 130.749 75.4236 128.987 76.2755 127.486C78.4754 123.608 84.3987 114.879 99.409 99.8685C114.419 84.8582 123.149 78.9349 127.026 76.735C128.528 75.8831 130.29 76.0538 131.665 77.0972C134.997 79.6246 142.46 85.8263 156.502 99.8685C170.544 113.911 176.746 121.374 179.273 124.705C180.317 126.081 180.487 127.843 179.636 129.344C177.436 133.222 171.512 141.951 156.502 156.962C141.492 171.972 132.762 177.895 128.885 180.095C127.383 180.947 125.621 180.776 124.246 179.733C120.914 177.206 113.451 171.004 99.409 156.962C85.3667 142.919 79.165 135.456 76.6376 132.125Z" fill="#ADC6CC"/>
</g>
</g>
<defs>
<filter id="filter0_d_1004_38" x="34.2886" y="34.748" width="186.522" height="186.522" filterUnits="userSpaceOnUse" color-interpolation-filters="sRGB">
<feFlood flood-opacity="0" result="BackgroundImageFix"/>
<feColorMatrix in="SourceAlpha" type="matrix" values="0 0 0 0 0 0 0 0 0 0 0 0 0 0 0 0 0 0 127 0" result="hardAlpha"/>
<feOffset/>
<feGaussianBlur stdDeviation="2"/>
<feComposite in2="hardAlpha" operator="out"/>
<feColorMatrix type="matrix" values="0 0 0 0 0 0 0 0 0 0 0 0 0 0 0 0 0 0 0.25 0"/>
<feBlend mode="normal" in2="BackgroundImageFix" result="effect1_dropShadow_1004_38"/>
<feBlend mode="normal" in="SourceGraphic" in2="effect1_dropShadow_1004_38" result="shape"/>
</filter>
<filter id="filter1_i_1004_38" x="75.7318" y="76.1914" width="104.447" height="108.447" filterUnits="userSpaceOnUse" color-interpolation-filters="sRGB">
<feFlood flood-opacity="0" result="BackgroundImageFix"/>
<feBlend mode="normal" in="SourceGraphic" in2="BackgroundImageFix" result="shape"/>
<feColorMatrix in="SourceAlpha" type="matrix" values="0 0 0 0 0 0 0 0 0 0 0 0 0 0 0 0 0 0 127 0" result="hardAlpha"/>
<feOffset dy="4"/>
<feGaussianBlur stdDeviation="2"/>
<feComposite in2="hardAlpha" operator="arithmetic" k2="-1" k3="1"/>
<feColorMatrix type="matrix" values="0 0 0 0 0 0 0 0 0 0 0 0 0 0 0 0 0 0 0.25 0"/>
<feBlend mode="normal" in2="shape" result="effect1_innerShadow_1004_38"/>
</filter>
<clipPath id="clip0_1004_38">
<rect width="256" height="256" fill="white"/>
</clipPath>
</defs>
</svg>
