<svg width="1920" height="1080" viewBox="0 0 1920 1080" fill="none" xmlns="http://www.w3.org/2000/svg">
<g clip-path="url(#clip0_502_8285)">
<rect width="1920" height="1080" fill="#222222"/>
<g filter="url(#filter0_d_502_8285)">
<path fill-rule="evenodd" clip-rule="evenodd" d="M1579.98 -106.333C1589.51 -79.5049 1581.19 -49.5857 1559.19 -31.5198L1125.79 324.352C1089.74 353.958 1044.47 370.027 997.814 369.781L443.249 366.851C408.103 366.665 373.528 375.744 343.008 393.174L-66.2962 626.925C-122.971 659.291 -195.125 632.51 -216.959 571.004V571.004C-236.312 516.486 -207.804 456.601 -153.285 437.248L351.127 258.193L954.255 44.0965L1493.72 -147.4C1528.88 -159.881 1567.5 -141.495 1579.98 -106.333V-106.333Z" fill="#8C4646"/>
<path fill-rule="evenodd" clip-rule="evenodd" d="M1579.98 -106.333C1589.51 -79.5049 1581.19 -49.5857 1559.19 -31.5198L1125.79 324.352C1089.74 353.958 1044.47 370.027 997.814 369.781L443.249 366.851C408.103 366.665 373.528 375.744 343.008 393.174L-66.2962 626.925C-122.971 659.291 -195.125 632.51 -216.959 571.004V571.004C-236.312 516.486 -207.804 456.601 -153.285 437.248L351.127 258.193L954.255 44.0965L1493.72 -147.4C1528.88 -159.881 1567.5 -141.495 1579.98 -106.333V-106.333Z" stroke="#F0D794" stroke-width="10"/>
</g>
<rect x="-151" y="10.9983" width="1244.35" height="412.392" transform="rotate(-19.433 -151 10.9983)" fill="#8C4646"/>
<g filter="url(#filter1_d_502_8285)">
<path fill-rule="evenodd" clip-rule="evenodd" d="M197.424 1242.15C169.655 1176.69 205.708 1101.73 274.18 1082.56L687.404 966.852L1186.69 827.049C1215.05 819.109 1241.3 805.005 1263.57 785.745L1624.93 473.296C1656.63 445.888 1696.13 429.128 1737.87 425.384L2212.87 382.773C2239.89 380.349 2265.38 395.634 2275.98 420.606V420.606C2289.45 452.376 2274.62 489.056 2242.86 502.533L1786.15 696.273L1271.93 914.416L757.699 1132.56L352.022 1304.65C292.071 1330.08 222.856 1302.1 197.424 1242.15V1242.15Z" fill="#DB6B5C"/>
<path fill-rule="evenodd" clip-rule="evenodd" d="M197.424 1242.15C169.655 1176.69 205.708 1101.73 274.18 1082.56L687.404 966.852L1186.69 827.049C1215.05 819.109 1241.3 805.005 1263.57 785.745L1624.93 473.296C1656.63 445.888 1696.13 429.128 1737.87 425.384L2212.87 382.773C2239.89 380.349 2265.38 395.634 2275.98 420.606V420.606C2289.45 452.376 2274.62 489.056 2242.86 502.533L1786.15 696.273L1271.93 914.416L757.699 1132.56L352.022 1304.65C292.071 1330.08 222.856 1302.1 197.424 1242.15V1242.15Z" stroke="#F0D794" stroke-width="10"/>
</g>
<rect x="699.3" y="1085.26" width="1386.46" height="518.756" transform="rotate(-23.0337 699.3 1085.26)" fill="#DB6B5C"/>
<g clip-path="url(#clip1_502_8285)">
<g filter="url(#filter2_d_502_8285)">
<circle cx="688" cy="540" r="100" fill="#DB6B5C"/>
</g>
<circle cx="687.5" cy="539.5" r="87.5" fill="#8C4646"/>
<path d="M624.25 544.027L659.992 556.098V574.086L608.137 552.992V539.633L624.25 544.027ZM659.992 534.242L624.191 546.547L608.137 550.766V537.406L659.992 516.312V534.242ZM708.273 495.688L679.094 588.324H665.031L694.211 495.688H708.273ZM751.047 546.371L715.422 534.301V516.371L766.984 537.465V550.883L751.047 546.371ZM715.422 556.215L751.047 543.852L766.984 539.691V553.051L715.422 574.145V556.215Z" fill="#F0D794"/>
</g>
<g filter="url(#filter3_d_502_8285)">
<path d="M884.738 581H865.812L865.93 565.18H884.738C888.645 565.18 891.945 564.242 894.641 562.367C897.375 560.492 899.445 557.699 900.852 553.988C902.297 550.238 903.02 545.629 903.02 540.16V536.469C903.02 532.367 902.609 528.773 901.789 525.688C901.008 522.562 899.836 519.965 898.273 517.895C896.711 515.785 894.758 514.203 892.414 513.148C890.109 512.094 887.453 511.566 884.445 511.566H865.461V495.688H884.445C890.227 495.688 895.52 496.684 900.324 498.676C905.168 500.629 909.348 503.441 912.863 507.113C916.418 510.746 919.152 515.062 921.066 520.062C923.02 525.023 923.996 530.531 923.996 536.586V540.16C923.996 546.176 923.02 551.684 921.066 556.684C919.152 561.684 916.438 566 912.922 569.633C909.406 573.266 905.246 576.078 900.441 578.07C895.676 580.023 890.441 581 884.738 581ZM877.59 495.688V581H857.023V495.688H877.59ZM964.484 582.172C959.328 582.172 954.719 581.371 950.656 579.77C946.594 578.129 943.156 575.883 940.344 573.031C937.57 570.18 935.441 566.898 933.957 563.188C932.512 559.477 931.789 555.551 931.789 551.41V549.184C931.789 544.535 932.434 540.238 933.723 536.293C935.012 532.309 936.926 528.832 939.465 525.863C942.004 522.895 945.188 520.59 949.016 518.949C952.844 517.27 957.297 516.43 962.375 516.43C966.867 516.43 970.891 517.152 974.445 518.598C978 520.043 981.008 522.113 983.469 524.809C985.969 527.504 987.863 530.766 989.152 534.594C990.48 538.422 991.145 542.719 991.145 547.484V555.512H939.348V543.148H971.867V541.625C971.906 539.516 971.535 537.719 970.754 536.234C970.012 534.75 968.918 533.617 967.473 532.836C966.027 532.055 964.27 531.664 962.199 531.664C960.051 531.664 958.273 532.133 956.867 533.07C955.5 534.008 954.426 535.297 953.645 536.938C952.902 538.539 952.375 540.395 952.062 542.504C951.75 544.613 951.594 546.84 951.594 549.184V551.41C951.594 553.754 951.906 555.883 952.531 557.797C953.195 559.711 954.133 561.352 955.344 562.719C956.594 564.047 958.078 565.082 959.797 565.824C961.555 566.566 963.547 566.938 965.773 566.938C968.469 566.938 971.125 566.43 973.742 565.414C976.359 564.398 978.605 562.719 980.48 560.375L989.445 571.039C988.156 572.875 986.32 574.652 983.938 576.371C981.594 578.09 978.781 579.496 975.5 580.59C972.219 581.645 968.547 582.172 964.484 582.172ZM1021.2 567.465L1033.68 517.602H1054.48L1033.74 581H1021.44L1021.2 567.465ZM1013.82 517.602L1026.12 567.465L1026.01 581H1013.64L992.961 517.602H1013.82ZM1089 581H1070.07L1070.19 565.18H1089C1092.9 565.18 1096.2 564.242 1098.9 562.367C1101.63 560.492 1103.7 557.699 1105.11 553.988C1106.55 550.238 1107.28 545.629 1107.28 540.16V536.469C1107.28 532.367 1106.87 528.773 1106.05 525.688C1105.27 522.562 1104.09 519.965 1102.53 517.895C1100.97 515.785 1099.02 514.203 1096.67 513.148C1094.37 512.094 1091.71 511.566 1088.7 511.566H1069.72V495.688H1088.7C1094.48 495.688 1099.78 496.684 1104.58 498.676C1109.43 500.629 1113.61 503.441 1117.12 507.113C1120.68 510.746 1123.41 515.062 1125.32 520.062C1127.28 525.023 1128.25 530.531 1128.25 536.586V540.16C1128.25 546.176 1127.28 551.684 1125.32 556.684C1123.41 561.684 1120.7 566 1117.18 569.633C1113.66 573.266 1109.5 576.078 1104.7 578.07C1099.93 580.023 1094.7 581 1089 581ZM1081.85 495.688V581H1061.28V495.688H1081.85ZM1170.97 565.062V538.93C1170.97 537.133 1170.71 535.59 1170.21 534.301C1169.7 533.012 1168.9 532.016 1167.8 531.312C1166.71 530.57 1165.25 530.199 1163.41 530.199C1161.93 530.199 1160.66 530.453 1159.6 530.961C1158.55 531.469 1157.75 532.23 1157.2 533.246C1156.65 534.262 1156.38 535.551 1156.38 537.113H1136.63C1136.63 534.184 1137.28 531.469 1138.57 528.969C1139.89 526.43 1141.77 524.223 1144.19 522.348C1146.65 520.473 1149.58 519.027 1152.98 518.012C1156.42 516.957 1160.25 516.43 1164.46 516.43C1169.5 516.43 1174 517.27 1177.94 518.949C1181.93 520.629 1185.07 523.148 1187.38 526.508C1189.68 529.828 1190.83 534.008 1190.83 539.047V565.004C1190.83 569.145 1191.07 572.289 1191.54 574.438C1192 576.547 1192.67 578.402 1193.53 580.004V581H1173.72C1172.79 579.047 1172.08 576.664 1171.61 573.852C1171.18 571 1170.97 568.07 1170.97 565.062ZM1173.37 542.27L1173.49 552.816H1164.76C1162.92 552.816 1161.36 553.07 1160.07 553.578C1158.82 554.086 1157.8 554.789 1157.02 555.688C1156.28 556.547 1155.73 557.523 1155.38 558.617C1155.07 559.711 1154.91 560.863 1154.91 562.074C1154.91 563.246 1155.19 564.301 1155.73 565.238C1156.32 566.137 1157.1 566.84 1158.08 567.348C1159.05 567.855 1160.15 568.109 1161.36 568.109C1163.55 568.109 1165.4 567.699 1166.93 566.879C1168.49 566.02 1169.68 564.984 1170.5 563.773C1171.32 562.562 1171.73 561.43 1171.73 560.375L1176.07 568.461C1175.29 570.023 1174.39 571.605 1173.37 573.207C1172.39 574.809 1171.16 576.293 1169.68 577.66C1168.23 578.988 1166.46 580.082 1164.35 580.941C1162.24 581.762 1159.68 582.172 1156.67 582.172C1152.77 582.172 1149.17 581.371 1145.89 579.77C1142.65 578.168 1140.05 575.941 1138.1 573.09C1136.14 570.199 1135.17 566.879 1135.17 563.129C1135.17 559.848 1135.75 556.918 1136.93 554.34C1138.14 551.762 1139.95 549.574 1142.38 547.777C1144.8 545.98 1147.88 544.613 1151.63 543.676C1155.38 542.738 1159.8 542.27 1164.88 542.27H1173.37ZM1235.01 563.188C1235.01 562.094 1234.64 561.156 1233.9 560.375C1233.2 559.555 1231.95 558.812 1230.15 558.148C1228.35 557.445 1225.83 556.742 1222.59 556.039C1219.5 555.375 1216.59 554.496 1213.86 553.402C1211.16 552.309 1208.8 550.98 1206.77 549.418C1204.74 547.855 1203.14 546 1201.96 543.852C1200.83 541.703 1200.27 539.242 1200.27 536.469C1200.27 533.773 1200.83 531.234 1201.96 528.852C1203.14 526.43 1204.84 524.301 1207.06 522.465C1209.33 520.59 1212.08 519.125 1215.32 518.07C1218.57 516.977 1222.26 516.43 1226.4 516.43C1232.1 516.43 1237.02 517.309 1241.16 519.066C1245.3 520.785 1248.49 523.207 1250.71 526.332C1252.98 529.418 1254.11 532.992 1254.11 537.055H1234.37C1234.37 535.453 1234.09 534.086 1233.55 532.953C1233.04 531.82 1232.2 530.961 1231.03 530.375C1229.86 529.75 1228.29 529.438 1226.34 529.438C1224.97 529.438 1223.72 529.691 1222.59 530.199C1221.5 530.707 1220.62 531.41 1219.95 532.309C1219.29 533.207 1218.96 534.262 1218.96 535.473C1218.96 536.332 1219.15 537.113 1219.54 537.816C1219.97 538.48 1220.62 539.105 1221.48 539.691C1222.34 540.238 1223.43 540.746 1224.76 541.215C1226.09 541.645 1227.69 542.035 1229.56 542.387C1233.82 543.168 1237.8 544.281 1241.52 545.727C1245.23 547.172 1248.23 549.223 1250.54 551.879C1252.88 554.535 1254.05 558.109 1254.05 562.602C1254.05 565.414 1253.41 568.012 1252.12 570.395C1250.83 572.738 1248.98 574.809 1246.55 576.605C1244.13 578.363 1241.22 579.73 1237.82 580.707C1234.43 581.684 1230.6 582.172 1226.34 582.172C1220.29 582.172 1215.17 581.098 1210.99 578.949C1206.81 576.762 1203.64 574.027 1201.5 570.746C1199.39 567.426 1198.33 564.066 1198.33 560.668H1216.73C1216.81 562.621 1217.28 564.223 1218.14 565.473C1219.04 566.723 1220.23 567.641 1221.71 568.227C1223.2 568.812 1224.91 569.105 1226.87 569.105C1228.66 569.105 1230.15 568.852 1231.32 568.344C1232.53 567.836 1233.45 567.152 1234.07 566.293C1234.7 565.395 1235.01 564.359 1235.01 563.188ZM1282.65 491V581H1262.9V491H1282.65ZM1280.3 547.133L1275.68 547.25C1275.68 542.797 1276.22 538.695 1277.32 534.945C1278.41 531.195 1279.97 527.934 1282 525.16C1284.04 522.387 1286.48 520.238 1289.33 518.715C1292.18 517.191 1295.34 516.43 1298.82 516.43C1301.95 516.43 1304.8 516.879 1307.38 517.777C1309.99 518.676 1312.24 520.121 1314.11 522.113C1316.03 524.105 1317.49 526.703 1318.51 529.906C1319.56 533.109 1320.09 537.016 1320.09 541.625V581H1300.23V541.508C1300.23 538.93 1299.86 536.938 1299.11 535.531C1298.41 534.086 1297.39 533.09 1296.07 532.543C1294.74 531.957 1293.12 531.664 1291.2 531.664C1288.9 531.664 1287.02 532.055 1285.58 532.836C1284.13 533.617 1283.02 534.711 1282.24 536.117C1281.5 537.484 1280.99 539.105 1280.71 540.98C1280.44 542.855 1280.3 544.906 1280.3 547.133Z" fill="white"/>
</g>
</g>
<defs>
<filter id="filter0_d_502_8285" x="-260.023" y="-180.312" width="1880.9" height="866.07" filterUnits="userSpaceOnUse" color-interpolation-filters="sRGB">
<feFlood flood-opacity="0" result="BackgroundImageFix"/>
<feColorMatrix in="SourceAlpha" type="matrix" values="0 0 0 0 0 0 0 0 0 0 0 0 0 0 0 0 0 0 127 0" result="hardAlpha"/>
<feOffset dy="8"/>
<feGaussianBlur stdDeviation="16"/>
<feComposite in2="hardAlpha" operator="out"/>
<feColorMatrix type="matrix" values="0 0 0 0 0 0 0 0 0 0 0 0 0 0 0 0 0 0 0.25 0"/>
<feBlend mode="normal" in2="BackgroundImageFix" result="effect1_dropShadow_502_8285"/>
<feBlend mode="normal" in="SourceGraphic" in2="effect1_dropShadow_502_8285" result="shape"/>
</filter>
<filter id="filter1_d_502_8285" x="151.008" y="337.521" width="2166.95" height="1005.53" filterUnits="userSpaceOnUse" color-interpolation-filters="sRGB">
<feFlood flood-opacity="0" result="BackgroundImageFix"/>
<feColorMatrix in="SourceAlpha" type="matrix" values="0 0 0 0 0 0 0 0 0 0 0 0 0 0 0 0 0 0 127 0" result="hardAlpha"/>
<feOffset dy="-8"/>
<feGaussianBlur stdDeviation="16"/>
<feComposite in2="hardAlpha" operator="out"/>
<feColorMatrix type="matrix" values="0 0 0 0 0 0 0 0 0 0 0 0 0 0 0 0 0 0 0.25 0"/>
<feBlend mode="normal" in2="BackgroundImageFix" result="effect1_dropShadow_502_8285"/>
<feBlend mode="normal" in="SourceGraphic" in2="effect1_dropShadow_502_8285" result="shape"/>
</filter>
<filter id="filter2_d_502_8285" x="572" y="432" width="232" height="232" filterUnits="userSpaceOnUse" color-interpolation-filters="sRGB">
<feFlood flood-opacity="0" result="BackgroundImageFix"/>
<feColorMatrix in="SourceAlpha" type="matrix" values="0 0 0 0 0 0 0 0 0 0 0 0 0 0 0 0 0 0 127 0" result="hardAlpha"/>
<feOffset dy="8"/>
<feGaussianBlur stdDeviation="8"/>
<feComposite in2="hardAlpha" operator="out"/>
<feColorMatrix type="matrix" values="0 0 0 0 0 0 0 0 0 0 0 0 0 0 0 0 0 0 0.5 0"/>
<feBlend mode="normal" in2="BackgroundImageFix" result="effect1_dropShadow_502_8285"/>
<feBlend mode="normal" in="SourceGraphic" in2="effect1_dropShadow_502_8285" result="shape"/>
</filter>
<filter id="filter3_d_502_8285" x="841.023" y="483" width="495.066" height="123.172" filterUnits="userSpaceOnUse" color-interpolation-filters="sRGB">
<feFlood flood-opacity="0" result="BackgroundImageFix"/>
<feColorMatrix in="SourceAlpha" type="matrix" values="0 0 0 0 0 0 0 0 0 0 0 0 0 0 0 0 0 0 127 0" result="hardAlpha"/>
<feOffset dy="8"/>
<feGaussianBlur stdDeviation="8"/>
<feComposite in2="hardAlpha" operator="out"/>
<feColorMatrix type="matrix" values="0 0 0 0 0 0 0 0 0 0 0 0 0 0 0 0 0 0 0.5 0"/>
<feBlend mode="normal" in2="BackgroundImageFix" result="effect1_dropShadow_502_8285"/>
<feBlend mode="normal" in="SourceGraphic" in2="effect1_dropShadow_502_8285" result="shape"/>
</filter>
<clipPath id="clip0_502_8285">
<rect width="1920" height="1080" fill="white"/>
</clipPath>
<clipPath id="clip1_502_8285">
<rect width="256" height="256" fill="white" transform="translate(560 412)"/>
</clipPath>
</defs>
</svg>
