<!-- Copyright © Ewsgit 2022. -->
<!-- Licensed under the MIT License - https://ewsgit.github.io/devdash/copyright -->

<svg width="48" height="48" viewBox="0 0 48 48" fill="none" xmlns="http://www.w3.org/2000/svg">
<path d="M35 32L35 18L40.7477 18.5675C42.1451 18.7054 43.3581 19.5808 43.6309 20.9583C43.8304 21.9653 44 23.3196 44 25.0138C44 26.7029 43.8314 28.0542 43.6327 29.0603C43.3597 30.4427 42.1407 31.3197 40.738 31.4533L35 32Z" fill="#ACB4C9"/>
<path d="M4.40889 15.2054C4.6006 13.4139 5.84951 12.067 7.63048 11.7945C10.1042 11.4161 14.5237 11 22 11C29.4763 11 33.8958 11.4161 36.3695 11.7945C38.1505 12.067 39.3994 13.4139 39.5911 15.2054C39.7986 17.1446 40 20.2501 40 25C40 29.7499 39.7986 32.8554 39.5911 34.7946C39.3994 36.5861 38.1505 37.933 36.3695 38.2055C33.8958 38.5839 29.4763 39 22 39C14.5237 39 10.1042 38.5839 7.63048 38.2055C5.84951 37.933 4.6006 36.5861 4.40889 34.7946C4.20136 32.8554 4 29.7499 4 25C4 20.2501 4.20136 17.1446 4.40889 15.2054Z" fill="#ACB4C9"/>
<path d="M4.70261 9.6623C4.16727 9.11685 3.79771 8.39737 4.07972 7.68704C4.28705 7.1648 4.69254 6.48715 5.47487 5.70481C6.25721 4.92248 6.93486 4.51699 7.4571 4.30966C8.16743 4.02765 8.88691 4.39721 9.43236 4.93255C12.2766 7.72414 21.6734 16.9536 26.3345 21.6147C30.9956 26.2758 40.2251 35.6726 43.0167 38.5169C43.552 39.0623 43.9216 39.7818 43.6396 40.4921C43.4322 41.0144 43.0268 41.692 42.2444 42.4744C41.4621 43.2567 40.7844 43.6622 40.2622 43.8695C39.5519 44.1515 38.8324 43.782 38.2869 43.2466C35.4427 40.455 26.0459 31.2256 21.3848 26.5645C16.7237 21.9033 7.4942 12.5066 4.70261 9.6623Z" fill="#576684"/>
</svg>