<!-- Copyright © Ewsgit 2022. -->
<!-- Licensed under the MIT License - https://ewsgit.github.io/devdash/copyright -->

<svg width="48" height="48" viewBox="0 0 48 48" fill="none" xmlns="http://www.w3.org/2000/svg">
<path d="M45.635 30.5492C45.3693 32.2169 44.0041 33.2717 42.3222 33.4243C39.4813 33.6822 33.96 34 24 34C14.04 34 8.51866 33.6822 5.67775 33.4243C3.99593 33.2716 2.63072 32.2169 2.36498 30.5492C2.16552 29.2974 2 27.5042 2 25C2 22.4958 2.16552 20.7026 2.36498 19.4508C2.63072 17.7831 3.99593 16.7283 5.67775 16.5757C8.51866 16.3178 14.04 16 24 16C33.96 16 39.4813 16.3178 42.3222 16.5757C44.0041 16.7284 45.3693 17.7831 45.635 19.4508C45.8345 20.7026 46 22.4958 46 25C46 27.5042 45.8345 29.2974 45.635 30.5492Z" fill="#ACB4C9"/>
<path fill-rule="evenodd" clip-rule="evenodd" d="M37.4005 37.3886C39.7964 37.1016 41.4954 35.3392 41.7085 32.9355C41.8685 31.1313 42 28.5642 42 25C42 21.4358 41.8685 18.8687 41.7085 17.0645C41.4954 14.6608 39.7964 12.8984 37.4005 12.6114C34.7992 12.2998 30.5854 12 24 12C17.4146 12 13.2008 12.2998 10.5995 12.6114C8.20359 12.8984 6.50459 14.6608 6.29147 17.0645C6.13149 18.8687 6 21.4358 6 25C6 28.5642 6.13149 31.1313 6.29147 32.9355C6.50459 35.3392 8.20358 37.1016 10.5995 37.3886C12.1563 37.5751 14.2905 37.7574 17.165 37.8736C18.5368 37.9291 19.8317 37.2525 20.5932 36.1102L20.8906 35.6641C21.5837 34.6245 22.7505 34 24 34C25.2495 34 26.4163 34.6245 27.1094 35.6641L27.4068 36.1102C28.1683 37.2525 29.4632 37.9291 30.835 37.8736C33.7095 37.7574 35.8437 37.5751 37.4005 37.3886Z" fill="#576684"/>
<path fill-rule="evenodd" clip-rule="evenodd" d="M13.0268 33.7073C12.8138 34.0876 13.0191 34.5661 13.4529 34.6087C14.1893 34.6811 15.0552 34.7502 16.0685 34.8097C16.7116 34.8474 17.3393 34.7048 17.8931 34.4155C18.0375 34.34 18.1521 34.2197 18.2349 34.0793C19.4303 32.0522 20.8918 29.5495 22.6664 26.4758C25.1783 22.125 27.0131 18.8896 28.3385 16.5188C28.7018 15.8689 28.2499 15.0681 27.5056 15.0487C26.5548 15.024 25.5184 15.0076 24.3898 15.002C24.0362 15.0002 23.7087 15.1861 23.5286 15.4904C22.235 17.675 20.5888 20.4871 18.515 24.079C16.1173 28.232 14.3365 31.3687 13.0268 33.7073ZM17.7314 15.5645C17.9022 15.2726 18.1792 15.0895 18.5172 15.078C19.2849 15.0519 19.8084 15.8756 19.4282 16.5431C18.4094 18.3318 17.0875 20.6385 15.3857 23.5862C13.4088 27.0102 11.9247 29.5577 10.8264 31.4296C10.4625 32.0499 9.59227 32.0721 9.3791 31.3853C9.31155 31.1676 9.25818 30.9417 9.21986 30.7084C9.18613 30.503 9.23255 30.2945 9.33542 30.1136C10.388 28.2628 11.794 25.8072 13.6536 22.5862C15.3552 19.639 16.6917 17.3411 17.7314 15.5645Z" fill="#ACB4C9"/>
</svg>