<!-- Copyright © Ewsgit 2022. -->
<!-- Licensed under the MIT License - https://ewsgit.github.io/devdash/copyright -->

<svg width="48" height="48" viewBox="0 0 48 48" fill="none" xmlns="http://www.w3.org/2000/svg">
<path fill-rule="evenodd" clip-rule="evenodd" d="M4.38661 13.8342C4.57314 11.9557 5.92088 10.6076 7.79994 10.4262C10.0261 10.2113 13.7931 10 20 10C26.2069 10 29.9739 10.2113 32.2001 10.4262C34.0791 10.6076 35.4269 11.9557 35.6134 13.8342C35.724 14.9483 35.8314 16.4369 35.9049 18.3961C36.9486 17.9662 38.4715 17.3753 40.1181 16.8575C41.9902 16.2687 43.7368 17.4088 43.8675 19.3669C43.9445 20.52 44 22.0334 44 24C44 25.9666 43.9445 27.48 43.8675 28.6331C43.7368 30.5912 41.9902 31.7313 40.1181 31.1425C38.4715 30.6247 36.9486 30.0338 35.9049 29.6039C35.8314 31.5631 35.724 33.0517 35.6134 34.1658C35.4269 36.0443 34.0791 37.3924 32.2001 37.5738C29.9739 37.7887 26.2069 38 20 38C13.7931 38 10.0261 37.7887 7.79994 37.5738C5.92088 37.3924 4.57314 36.0443 4.38661 34.1658C4.18817 32.1672 4 28.9634 4 24C4 19.0366 4.18817 15.8328 4.38661 13.8342Z" fill="#ACB4C9"/>
<path d="M2.70261 9.57245C2.16727 9.02701 1.79771 8.30753 2.07972 7.59719C2.28705 7.07496 2.69254 6.3973 3.47487 5.61497C4.25721 4.83264 4.93486 4.42715 5.4571 4.21982C6.16743 3.93781 6.88691 4.30737 7.43236 4.84271C10.2766 7.63429 19.6734 16.8638 24.3345 21.5249C28.9956 26.186 38.2251 35.5828 41.0167 38.427C41.552 38.9725 41.9216 39.692 41.6396 40.4023C41.4322 40.9245 41.0268 41.6022 40.2444 42.3845C39.4621 43.1669 38.7844 43.5723 38.2622 43.7797C37.5519 44.0617 36.8324 43.6921 36.2869 43.1568C33.4427 40.3652 24.0459 31.1357 19.3848 26.4746C14.7237 21.8135 5.4942 12.4167 2.70261 9.57245Z" fill="#576684"/>
</svg>