<!-- Copyright © Ewsgit 2022. -->
<!-- Licensed under the MIT License - https://ewsgit.github.io/devdash/copyright -->

<svg width="48" height="48" viewBox="0 0 48 48" fill="none" xmlns="http://www.w3.org/2000/svg">
<path d="M41.5691 19.2898C41.3833 17.5103 40.1664 16.1476 38.4011 15.8565C35.9335 15.4496 31.5082 15 24 15C16.4918 15 12.0665 15.4496 9.59891 15.8565C7.83361 16.1476 6.61668 17.5103 6.43093 19.2898C6.21586 21.3502 6 24.7307 6 30C6 35.2693 6.21586 38.6498 6.43093 40.7102C6.61668 42.4897 7.83361 43.8524 9.5989 44.1435C12.0665 44.5504 16.4918 45 24 45C31.5082 45 35.9335 44.5504 38.4011 44.1435C40.1664 43.8524 41.3833 42.4897 41.5691 40.7102C41.7841 38.6498 42 35.2693 42 30C42 24.7307 41.7841 21.3502 41.5691 19.2898Z" fill="#ACB4C9"/>
<path fill-rule="evenodd" clip-rule="evenodd" d="M19 25C19 26.1046 18.1046 27 17 27C15.8954 27 15 26.1046 15 25C15 23.8954 15.8954 23 17 23C18.1046 23 19 23.8954 19 25ZM20 32.5C20.8284 32.5 21.5 33.1716 21.5 34C21.5 35.3807 22.6193 36.5 24 36.5C25.3807 36.5 26.5 35.3807 26.5 34C26.5 33.1716 27.1716 32.5 28 32.5C28.8284 32.5 29.5 33.1716 29.5 34C29.5 37.0376 27.0376 39.5 24 39.5C20.9624 39.5 18.5 37.0376 18.5 34C18.5 33.1716 19.1716 32.5 20 32.5ZM31 27C32.1046 27 33 26.1046 33 25C33 23.8954 32.1046 23 31 23C29.8954 23 29 23.8954 29 25C29 26.1046 29.8954 27 31 27Z" fill="#576684"/>
<path d="M28 6C28 8.20914 26.2091 10 24 10C21.7909 10 20 8.20914 20 6C20 3.79086 21.7909 2 24 2C26.2091 2 28 3.79086 28 6Z" fill="#ACB4C9"/>
<path d="M24.0498 26.9999C25.1849 26.9948 25.8611 26.092 25.9003 24.9576C25.9502 23.5124 26 20.9542 26 16.5C26 12.0458 25.9502 9.4876 25.9003 8.0424C25.8611 6.90796 25.1849 6.00523 24.0498 6.00011C24.0333 6.00004 24.0167 6 24 6C23.9833 6 23.9667 6.00004 23.9502 6.00011C22.8151 6.00523 22.1389 6.90796 22.0997 8.0424C22.0498 9.4876 22 12.0458 22 16.5C22 20.9542 22.0498 23.5124 22.0997 24.9576C22.1389 26.092 22.8151 26.9948 23.9502 26.9999C23.9667 27 23.9833 27 24 27C24.0167 27 24.0333 27 24.0498 26.9999Z" fill="#ACB4C9"/>
</svg>