<!-- Copyright © Ewsgit 2022. -->
<!-- Licensed under the MIT License - https://ewsgit.github.io/devdash/copyright -->

<svg width="48" height="48" viewBox="0 0 48 48" fill="none" xmlns="http://www.w3.org/2000/svg">
<path d="M36.7184 8.31007C36.8689 10.3628 37 13.4552 37 18L11 18C11 12.687 11.3225 9.35882 11.6463 7.3563C11.9272 5.61888 13.2942 4.45749 15.0476 4.30545C16.8567 4.14858 19.704 4 24 4C27.8837 4 30.6888 4.12143 32.6284 4.26064C34.8788 4.42215 36.5534 6.05996 36.7184 8.31007Z" fill="#ACB4C9"/>
<path fill-rule="evenodd" clip-rule="evenodd" d="M7.70626 33.3993C5.94847 33.2165 4.58433 32.0382 4.34787 30.2868C4.15945 28.8913 4 26.8642 4 24C4 21.4013 4.13125 19.4305 4.29631 17.9795C4.54035 15.8342 6.27374 14.4048 8.43009 14.2943C11.2449 14.1502 16.078 14 24 14C31.922 14 36.7551 14.1501 39.5699 14.2943C41.7263 14.4048 43.4597 15.8342 43.7037 17.9795C43.8687 19.4305 44 21.4013 44 24C44 26.5987 43.8687 28.5695 43.7037 30.0205C43.4597 32.1658 41.7263 33.5952 39.5699 33.7057C39.2542 33.7218 38.9132 33.7381 38.5452 33.7542C37.6783 33.7921 36.967 33.0815 36.9818 32.2139C36.9935 31.527 37 30.7899 37 30C37 29.3506 36.4599 28.8338 35.8108 28.853C32.9791 28.9368 29.1396 29 24 29C18.9489 29 15.1535 28.8901 12.3364 28.7432C11.6129 28.7055 11 29.2754 11 30C11 30.7215 11.0054 31.3946 11.0153 32.0223C11.0292 32.9062 10.2909 33.6238 9.40962 33.554C8.76001 33.5024 8.19504 33.4502 7.70626 33.3993Z" fill="#576684"/>
<path fill-rule="evenodd" clip-rule="evenodd" d="M31.0053 31.9329C31.0082 31.3894 31.4463 30.9493 31.9898 30.9403C32.69 30.9286 33.3494 30.9156 33.9699 30.9015C34.5289 30.8888 34.9914 31.3351 34.9945 31.8942C34.998 32.5424 35 33.2434 35 34.0007C35 39.3491 34.9014 41.8816 34.8427 42.9161C34.8201 43.3145 34.6486 43.6921 34.2713 43.822C33.9919 43.9183 33.5825 44.0007 33 44.0007C32.4175 44.0007 32.0081 43.9183 31.7287 43.822C31.3514 43.6921 31.1799 43.3145 31.1573 42.9161C31.0986 41.8816 31 39.3491 31 34.0007C31 33.2584 31.0019 32.5703 31.0053 31.9329ZM25.005 31.9897C25.0079 31.4414 25.4534 30.9991 26.0018 30.9973C26.6893 30.995 27.3509 30.9915 27.9874 30.9869C28.54 30.9829 28.992 31.4268 28.9949 31.9795C28.9982 32.6038 29 33.2764 29 34.0007C29 39.3491 28.9014 41.8816 28.8427 42.9161C28.8201 43.3145 28.6486 43.6921 28.2713 43.822C27.9919 43.9183 27.5825 44.0007 27 44.0007C26.4175 44.0007 26.0081 43.9183 25.7287 43.822C25.3514 43.6921 25.1799 43.3145 25.1573 42.9161C25.0986 41.8816 25 39.3491 25 34.0007C25 33.2804 25.0018 32.6111 25.005 31.9897ZM19.0051 31.9693C19.0081 31.4138 19.4646 30.9689 20.0201 30.976C20.6547 30.9842 21.3142 30.9905 21.9995 30.9946C22.5474 30.998 22.9921 31.4399 22.995 31.9878C22.9982 32.6097 23 33.2796 23 34.0007C23 39.3491 22.9014 41.8816 22.8427 42.9161C22.8201 43.3145 22.6486 43.6921 22.2713 43.822C21.9919 43.9183 21.5825 44.0007 21 44.0007C20.4175 44.0007 20.0081 43.9183 19.7287 43.822C19.3514 43.6921 19.1799 43.3145 19.1573 42.9161C19.0986 41.8816 19 39.3491 19 34.0007C19 33.2725 19.0018 32.5965 19.0051 31.9693ZM13.006 31.8164C13.0092 31.2491 13.4847 30.8 14.0515 30.8231C14.669 30.8482 15.3249 30.8715 16.0213 30.8923C16.5601 30.9084 16.9914 31.3465 16.9944 31.8856C16.998 32.5362 17 33.24 17 34.0007C17 39.3491 16.9014 41.8816 16.8427 42.9161C16.8201 43.3145 16.6486 43.6921 16.2713 43.822C15.9919 43.9183 15.5825 44.0007 15 44.0007C14.4175 44.0007 14.0081 43.9183 13.7287 43.822C13.3514 43.6921 13.1799 43.3145 13.1573 42.9161C13.0986 41.8816 13 39.3491 13 34.0007C13 33.2129 13.0021 32.4862 13.006 31.8164Z" fill="#ACB4C9"/>
<path d="M36.0033 19.5527C36.0169 18.6897 36.5718 18.0449 37.4343 18.0106C37.6028 18.0039 37.7907 18 38 18C38.2093 18 38.3972 18.0039 38.5657 18.0106C39.4282 18.0449 39.9831 18.6897 39.9967 19.5527C39.9988 19.6887 40 19.8375 40 20C40 20.1625 39.9988 20.3113 39.9967 20.4473C39.9831 21.3103 39.4282 21.9551 38.5657 21.9894C38.3972 21.9961 38.2093 22 38 22C37.7907 22 37.6028 21.9961 37.4343 21.9894C36.5718 21.9551 36.0169 21.3103 36.0033 20.4473C36.0012 20.3113 36 20.1625 36 20C36 19.8375 36.0012 19.6887 36.0033 19.5527Z" fill="#ACB4C9"/>
</svg>