<!-- Copyright © Ewsgit 2022. -->
<!-- Licensed under the MIT License - https://ewsgit.github.io/devdash/copyright -->

<svg width="48" height="48" viewBox="0 0 48 48" fill="none" xmlns="http://www.w3.org/2000/svg">
<path d="M35 30L35 16L40.7477 16.5675C42.1451 16.7054 43.3581 17.5808 43.6309 18.9583C43.8304 19.9653 44 21.3196 44 23.0138C44 24.7029 43.8314 26.0542 43.6327 27.0603C43.3597 28.4427 42.1407 29.3197 40.738 29.4533L35 30Z" fill="#ACB4C9"/>
<path d="M4.40889 13.2054C4.6006 11.4139 5.84951 10.067 7.63048 9.79455C10.1042 9.41606 14.5237 9 22 9C29.4763 9 33.8958 9.41606 36.3695 9.79455C38.1505 10.067 39.3994 11.4139 39.5911 13.2054C39.7986 15.1446 40 18.2501 40 23C40 27.7499 39.7986 30.8554 39.5911 32.7946C39.3994 34.5861 38.1505 35.933 36.3695 36.2055C33.8958 36.5839 29.4763 37 22 37C14.5237 37 10.1042 36.5839 7.63048 36.2055C5.84951 35.933 4.6006 34.5861 4.40889 32.7946C4.20136 30.8554 4 27.7499 4 23C4 18.2501 4.20136 15.1446 4.40889 13.2054Z" fill="#ACB4C9"/>
<path fill-rule="evenodd" clip-rule="evenodd" d="M25.0987 21.6281L24.1337 16.8035C23.9133 15.7013 22.6036 15.2242 21.7258 15.9264L11.3781 24.2046C10.5932 24.8325 11.1213 26.096 12.1196 25.9786L19.2024 25.1453L20.1673 29.9699C20.3877 31.0722 21.6974 31.5493 22.5752 30.8471L32.9229 22.5689C33.7079 21.9409 33.1797 20.6774 32.1814 20.7948L25.0987 21.6281Z" fill="#576684"/>
</svg>