<!-- Copyright © Ewsgit 2022. -->
<!-- Licensed under the MIT License - https://ewsgit.github.io/devdash/copyright -->

<svg width="48" height="48" viewBox="0 0 48 48" fill="none" xmlns="http://www.w3.org/2000/svg">
<path d="M24 4C32.0288 4 37.6378 9.49863 37.901 17.5231C37.963 19.4124 38 21.5615 38 24C38 26.4385 37.963 28.5876 37.901 30.4769C37.6378 38.5014 32.0288 44 24 44C15.9712 44 10.3622 38.5014 10.099 30.4769C10.037 28.5876 10 26.4385 10 24C10 21.5615 10.037 19.4124 10.099 17.5231C10.3622 9.49863 15.9712 4 24 4Z" fill="#ACB4C9"/>
<path d="M24 10C25.1574 10 25.9148 10.8424 25.9632 11.9988C25.985 12.5203 26 13.1779 26 14C26 14.8221 25.985 15.4797 25.9632 16.0012C25.9148 17.1576 25.1574 18 24 18C22.8426 18 22.0852 17.1576 22.0368 16.0012C22.015 15.4797 22 14.8221 22 14C22 13.1779 22.015 12.5203 22.0368 11.9988C22.0852 10.8424 22.8426 10 24 10Z" fill="#576684"/>
</svg>