<!-- Copyright © Ewsgit 2022. -->
<!-- Licensed under the MIT License - https://ewsgit.github.io/devdash/copyright -->

<svg xmlns="http://www.w3.org/2000/svg" width="48" height="48" fill="none" viewBox="0 0 48 48"><path fill="#ACB4C9" d="M29.8975 3.35689C31.7559 3.61744 33.0774 5.06675 33.5496 6.88296L37.6074 22.4902C37.8649 23.4803 37.8649 24.5197 37.6074 25.5098L33.5496 41.117C33.0774 42.9333 31.7559 44.3826 29.8975 44.6431C28.5125 44.8373 26.5817 45 24 45C21.4183 45 19.4875 44.8373 18.1025 44.6431C16.2441 44.3826 14.9226 42.9333 14.4504 41.117L10.3925 25.5098C10.1351 24.5197 10.1351 23.4803 10.3925 22.4902L14.4504 6.88297C14.9226 5.06675 16.2441 3.61744 18.1025 3.35689C19.4875 3.16273 21.4183 3 24 3C26.5817 3 28.5125 3.16273 29.8975 3.35689Z"/><circle cx="24" cy="24" r="16" fill="#576684"/></svg>