<!-- Copyright © Ewsgit 2022. -->
<!-- Licensed under the MIT License - https://ewsgit.github.io/devdash/copyright -->

<svg width="48" height="48" viewBox="0 0 48 48" fill="none" xmlns="http://www.w3.org/2000/svg">
<path d="M29.8975 3.35689C31.7559 3.61744 33.0774 5.06675 33.5496 6.88296L37.6074 22.4902C37.8649 23.4803 37.8649 24.5197 37.6074 25.5098L33.5496 41.117C33.0774 42.9333 31.7559 44.3826 29.8975 44.6431C28.5125 44.8373 26.5817 45 24 45C21.4183 45 19.4875 44.8373 18.1025 44.6431C16.2441 44.3826 14.9226 42.9333 14.4504 41.117L10.3925 25.5098C10.1351 24.5197 10.1351 23.4803 10.3925 22.4902L14.4504 6.88297C14.9226 5.06675 16.2441 3.61744 18.1025 3.35689C19.4875 3.16273 21.4183 3 24 3C26.5817 3 28.5125 3.16273 29.8975 3.35689Z" fill="#ACB4C9"/>
<circle cx="24" cy="24" r="16" fill="#576684"/>
<path fill-rule="evenodd" clip-rule="evenodd" d="M18 22C19.6569 22 21 20.6569 21 19C21 17.3431 19.6569 16 18 16C16.3431 16 15 17.3431 15 19C15 20.6569 16.3431 22 18 22ZM25.3611 17.1185C24.5886 17.1687 24 17.8143 24 18.5884V19.4186C24 20.19 24.5845 20.8341 25.3541 20.8854C26.2033 20.9421 27.3517 21 28.5 21C29.6483 21 30.7967 20.9421 31.6459 20.8854C32.4155 20.8341 33 20.19 33 19.4186V18.5751C33 17.8066 32.4196 17.164 31.6529 17.1114C30.803 17.0531 29.6515 16.9947 28.5 17.0004C27.3548 17.006 26.2096 17.0635 25.3611 17.1185Z" fill="#ACB4C9"/>
<path fill-rule="evenodd" clip-rule="evenodd" d="M18 32C19.6569 32 21 30.6569 21 29C21 27.3431 19.6569 26 18 26C16.3431 26 15 27.3431 15 29C15 30.6569 16.3431 32 18 32ZM25.3611 27.1185C24.5886 27.1687 24 27.8143 24 28.5884V29.4186C24 30.19 24.5845 30.8341 25.3541 30.8854C26.2033 30.9421 27.3517 31 28.5 31C29.6483 31 30.7967 30.9421 31.6459 30.8854C32.4155 30.8341 33 30.19 33 29.4186V28.5751C33 27.8066 32.4196 27.164 31.6529 27.1114C30.803 27.0531 29.6515 26.9947 28.5 27.0004C27.3548 27.006 26.2096 27.0635 25.3611 27.1185Z" fill="#ACB4C9"/>
</svg>