<!-- Copyright © Ewsgit 2022. -->
<!-- Licensed under the MIT License - https://ewsgit.github.io/devdash/copyright -->

<svg width="48" height="48" viewBox="0 0 48 48" fill="none" xmlns="http://www.w3.org/2000/svg">
<path d="M18.0207 29.4018C18.2952 30.0604 18.1915 30.818 17.6309 31.2594C17.2486 31.5604 16.737 31.8928 16.1023 32.1532C15.4675 32.4135 14.8699 32.5362 14.3863 32.5903C13.6773 32.6698 13.0714 32.2032 12.8044 31.5415C11.6538 28.6907 8.43386 20.602 5.96493 13.3447C5.62711 12.3517 6.12627 11.2711 7.0967 10.873C7.18173 10.8382 7.26147 10.8055 7.33331 10.776C7.40514 10.7465 7.48488 10.7138 7.56992 10.6789C8.54036 10.2809 9.65454 10.6996 10.1114 11.6438C13.45 18.5444 16.8378 26.5642 18.0207 29.4018Z" fill="#ACB4C9"/>
<path d="M29.9793 29.4018C29.7048 30.0604 29.8085 30.818 30.3691 31.2594C30.7514 31.5604 31.263 31.8928 31.8977 32.1532C32.5325 32.4135 33.1301 32.5362 33.6137 32.5903C34.3227 32.6698 34.9286 32.2032 35.1956 31.5415C36.3462 28.6907 39.5661 20.602 42.0351 13.3447C42.3729 12.3517 41.8737 11.2711 40.9033 10.873C40.8183 10.8382 40.7385 10.8055 40.6667 10.776C40.5949 10.7465 40.5151 10.7138 40.4301 10.6789C39.4596 10.2809 38.3455 10.6996 37.8886 11.6438C34.55 18.5444 31.1622 26.5642 29.9793 29.4018Z" fill="#ACB4C9"/>
<path d="M25.8418 18.7148C26.8364 19.7094 26.8364 21.3219 25.8418 22.3164C24.8473 23.311 23.2348 23.311 22.2402 22.3164C21.2457 21.3219 21.2457 19.7094 22.2402 18.7148C23.2348 17.7203 24.8473 17.7203 25.8418 18.7148Z" fill="#576684"/>
<path fill-rule="evenodd" clip-rule="evenodd" d="M13.9982 8.16042L13.8834 8.27524C13.2468 8.91186 12.9516 9.83023 13.4949 10.5481C13.6309 10.7277 13.7965 10.9204 13.9982 11.1222C14.2 11.3239 14.3927 11.4895 14.5723 11.6255C15.2902 12.1688 16.2085 11.8736 16.8452 11.237L17.3201 10.762C21.2316 6.8505 27.2133 7.21066 31.1248 11.1222L31.3668 11.3642C31.9294 11.9268 32.7202 12.2048 33.3669 11.7412C33.5819 11.587 33.8231 11.3856 34.0865 11.1222C34.3499 10.8588 34.5514 10.6175 34.7056 10.4025C35.1691 9.75584 34.8912 8.96507 34.3286 8.40246L34.0865 8.16042C28.5393 2.61319 19.5455 2.61319 13.9982 8.16042ZM17.9467 12.8558C17.472 13.3304 17.2407 14.0053 17.6026 14.5706C17.7643 14.8231 17.9905 15.1142 18.3068 15.4305C18.6231 15.7468 18.9142 15.973 19.1667 16.1346C19.732 16.4966 20.4069 16.2653 20.8815 15.7906C22.6273 14.0449 25.4578 14.0449 27.2036 15.7906C27.6819 16.269 28.3525 16.5121 28.9191 16.1425C29.1674 15.9805 29.4565 15.7523 29.7782 15.4305C30.1 15.1087 30.3283 14.8196 30.4902 14.5714C30.8598 14.0048 30.6168 13.3342 30.1384 12.8558C26.7717 9.48915 21.3133 9.48915 17.9467 12.8558Z" fill="#576684"/>
<path fill-rule="evenodd" clip-rule="evenodd" d="M40.4392 44.5072C42.1109 44.3645 43.4644 43.3237 43.7099 41.664C43.872 40.568 44 39.0527 44 37C44 35.1803 43.8994 33.7454 43.7637 32.6373C43.5148 30.6067 41.8155 29.3304 39.7715 29.2439C36.9881 29.126 32.1144 29 24 29C15.8856 29 11.0119 29.126 8.22851 29.2439C6.18451 29.3304 4.48517 30.6067 4.23634 32.6373C4.10057 33.7453 4 35.1803 4 37C4 38.8197 4.10057 40.2546 4.23634 41.3627C4.48517 43.3933 6.18451 44.6696 8.22851 44.7561C8.74714 44.7781 9.33834 44.8003 10.0095 44.822C10.0142 45.0996 10.0202 45.3384 10.027 45.543C10.0506 46.2633 10.4452 46.8773 11.1614 46.9575C11.3928 46.9834 11.6699 47 12 47C12.3301 47 12.6072 46.9834 12.8386 46.9575C13.5548 46.8773 13.9494 46.2633 13.973 45.543C13.979 45.3629 13.9843 45.1563 13.9887 44.92C16.5895 44.9674 19.8763 45 24 45C28.1231 45 31.4095 44.9414 34.0101 44.856C34.0147 45.1192 34.0205 45.3468 34.027 45.543C34.0506 46.2633 34.4452 46.8773 35.1614 46.9575C35.3928 46.9834 35.6699 47 36 47C36.3301 47 36.6072 46.9834 36.8386 46.9575C37.5548 46.8773 37.9494 46.2633 37.973 45.543C37.9809 45.3042 37.9878 45.0189 37.9927 44.6795C38.9703 44.6227 39.7782 44.5636 40.4392 44.5072Z" fill="#576684"/>
<path fill-rule="evenodd" clip-rule="evenodd" d="M9.00335 36.5527C9.01693 35.6897 9.57178 35.0449 10.4343 35.0106C10.6028 35.0039 10.7907 35 11 35C11.2093 35 11.3972 35.0039 11.5657 35.0106C12.4282 35.0449 12.9831 35.6897 12.9967 36.5527C12.9988 36.6887 13 36.8375 13 37C13 37.1625 12.9988 37.3113 12.9967 37.4473C12.9831 38.3103 12.4282 38.9551 11.5657 38.9894C11.3972 38.9961 11.2093 39 11 39C10.7907 39 10.6028 38.9961 10.4343 38.9894C9.57178 38.9551 9.01693 38.3103 9.00335 37.4473C9.00121 37.3113 9 37.1625 9 37C9 36.8375 9.00121 36.6887 9.00335 36.5527ZM25.0496 36.2044C25.1439 35.5178 25.7642 35.1605 26.4563 35.1217C27.4567 35.0656 29.2211 35 32 35C34.7789 35 36.5433 35.0656 37.5437 35.1217C38.2358 35.1605 38.8561 35.5178 38.9504 36.2044C38.9806 36.4241 39 36.6871 39 37C39 37.3129 38.9806 37.5759 38.9504 37.7956C38.8561 38.4822 38.2358 38.8395 37.5437 38.8783C36.5433 38.9344 34.7789 39 32 39C29.2211 39 27.4567 38.9344 26.4563 38.8783C25.7642 38.8395 25.1439 38.4822 25.0496 37.7956C25.0194 37.5759 25 37.3129 25 37C25 36.6871 25.0194 36.4241 25.0496 36.2044ZM17.4343 35.0106C16.5718 35.0449 16.0169 35.6897 16.0033 36.5527C16.0012 36.6887 16 36.8375 16 37C16 37.1625 16.0012 37.3113 16.0033 37.4473C16.0169 38.3103 16.5718 38.9551 17.4343 38.9894C17.6028 38.9961 17.7907 39 18 39C18.2093 39 18.3972 38.9961 18.5657 38.9894C19.4282 38.9551 19.9831 38.3103 19.9967 37.4473C19.9988 37.3113 20 37.1625 20 37C20 36.8375 19.9988 36.6887 19.9967 36.5527C19.9831 35.6897 19.4282 35.0449 18.5657 35.0106C18.3972 35.0039 18.2093 35 18 35C17.7907 35 17.6028 35.0039 17.4343 35.0106Z" fill="#ACB4C9"/>
</svg>