<!-- Copyright © Ewsgit 2022. -->
<!-- Licensed under the MIT License - https://ewsgit.github.io/devdash/copyright -->

<svg width="48" height="48" viewBox="0 0 48 48" fill="none" xmlns="http://www.w3.org/2000/svg">
<path d="M46.379 35.9576C46.1593 37.5389 45.0579 38.7139 43.4831 38.9755C40.7221 39.4342 35.0722 40 24 40C14.0826 40 8.51551 39.7478 5.47804 39.5121C3.37001 39.3485 1.78836 37.8487 1.54677 35.7482C1.27324 33.37 0.999997 29.5943 0.999997 24C0.999998 18.4058 1.27324 14.63 1.54677 12.2518C1.78836 10.1512 3.37001 8.6515 5.47805 8.48791C8.51553 8.25219 14.0826 8 24 8C33.9174 8 39.4845 8.25219 42.522 8.48791C44.63 8.6515 46.2116 10.1512 46.4532 12.2518C46.7268 14.63 47 18.4057 47 24C47 30.1014 46.675 33.8286 46.379 35.9576Z" fill="#ACB4C9"/>
<path d="M7.52282 14.6511C7.55584 13.7885 8.1146 13.131 8.97464 13.0573C9.36963 13.0235 9.87052 13 10.5 13C11.1295 13 11.6304 13.0235 12.0254 13.0573C12.8854 13.131 13.4442 13.7885 13.4772 14.6511C13.4909 15.008 13.5 15.4517 13.5 16C13.5 16.5483 13.4909 16.992 13.4772 17.3489C13.4442 18.2115 12.8854 18.869 12.0254 18.9427C11.6304 18.9765 11.1295 19 10.5 19C9.87052 19 9.36963 18.9765 8.97464 18.9427C8.1146 18.869 7.55584 18.2115 7.52282 17.3489C7.50915 16.992 7.5 16.5483 7.5 16C7.5 15.4517 7.50915 15.008 7.52282 14.6511Z" fill="#576684"/>
<path d="M7.52282 23.6511C7.55584 22.7885 8.1146 22.131 8.97464 22.0573C9.36963 22.0235 9.87052 22 10.5 22C11.1295 22 11.6304 22.0235 12.0254 22.0573C12.8854 22.131 13.4442 22.7885 13.4772 23.6511C13.4909 24.008 13.5 24.4517 13.5 25C13.5 25.5483 13.4909 25.992 13.4772 26.3489C13.4442 27.2115 12.8854 27.869 12.0254 27.9427C11.6304 27.9765 11.1295 28 10.5 28C9.87052 28 9.36963 27.9765 8.97464 27.9427C8.1146 27.869 7.55584 27.2115 7.52282 26.3489C7.50915 25.992 7.5 25.5483 7.5 25C7.5 24.4517 7.50915 24.008 7.52282 23.6511Z" fill="#576684"/>
<path d="M16.5228 14.6511C16.5558 13.7885 17.1146 13.131 17.9746 13.0573C18.3696 13.0235 18.8705 13 19.5 13C20.1295 13 20.6304 13.0235 21.0254 13.0573C21.8854 13.131 22.4442 13.7885 22.4772 14.6511C22.4909 15.008 22.5 15.4517 22.5 16C22.5 16.5483 22.4909 16.992 22.4772 17.3489C22.4442 18.2115 21.8854 18.869 21.0254 18.9427C20.6304 18.9765 20.1295 19 19.5 19C18.8705 19 18.3696 18.9765 17.9746 18.9427C17.1146 18.869 16.5558 18.2115 16.5228 17.3489C16.5091 16.992 16.5 16.5483 16.5 16C16.5 15.4517 16.5091 15.008 16.5228 14.6511Z" fill="#576684"/>
<path d="M16.5228 23.6511C16.5558 22.7885 17.1146 22.131 17.9746 22.0573C18.3696 22.0235 18.8705 22 19.5 22C20.1295 22 20.6304 22.0235 21.0254 22.0573C21.8854 22.131 22.4442 22.7885 22.4772 23.6511C22.4909 24.008 22.5 24.4517 22.5 25C22.5 25.5483 22.4909 25.992 22.4772 26.3489C22.4442 27.2115 21.8854 27.869 21.0254 27.9427C20.6304 27.9765 20.1295 28 19.5 28C18.8705 28 18.3696 27.9765 17.9746 27.9427C17.1146 27.869 16.5558 27.2115 16.5228 26.3489C16.5091 25.992 16.5 25.5483 16.5 25C16.5 24.4517 16.5091 24.008 16.5228 23.6511Z" fill="#576684"/>
<path d="M25.5228 14.6511C25.5558 13.7885 26.1146 13.131 26.9746 13.0573C27.3696 13.0235 27.8705 13 28.5 13C29.1295 13 29.6304 13.0235 30.0254 13.0573C30.8854 13.131 31.4442 13.7885 31.4772 14.6511C31.4909 15.008 31.5 15.4517 31.5 16C31.5 16.5483 31.4909 16.992 31.4772 17.3489C31.4442 18.2115 30.8854 18.869 30.0254 18.9427C29.6304 18.9765 29.1295 19 28.5 19C27.8705 19 27.3696 18.9765 26.9746 18.9427C26.1146 18.869 25.5558 18.2115 25.5228 17.3489C25.5091 16.992 25.5 16.5483 25.5 16C25.5 15.4517 25.5091 15.008 25.5228 14.6511Z" fill="#576684"/>
<path d="M34.5228 14.6511C34.5558 13.7885 35.1146 13.131 35.9746 13.0573C36.3696 13.0235 36.8705 13 37.5 13C38.1295 13 38.6304 13.0235 39.0254 13.0573C39.8854 13.131 40.4442 13.7885 40.4772 14.6511C40.4909 15.008 40.5 15.4517 40.5 16C40.5 16.5483 40.4909 16.992 40.4772 17.3489C40.4442 18.2115 39.8854 18.869 39.0254 18.9427C38.6304 18.9765 38.1295 19 37.5 19C36.8705 19 36.3696 18.9765 35.9746 18.9427C35.1146 18.869 34.5558 18.2115 34.5228 17.3489C34.5091 16.992 34.5 16.5483 34.5 16C34.5 15.4517 34.5091 15.008 34.5228 14.6511Z" fill="#576684"/>
<path d="M25.5228 23.6511C25.5558 22.7885 26.1146 22.131 26.9746 22.0573C27.3696 22.0235 27.8705 22 28.5 22C29.1295 22 29.6304 22.0235 30.0254 22.0573C30.8854 22.131 31.4442 22.7885 31.4772 23.6511C31.4909 24.008 31.5 24.4517 31.5 25C31.5 25.5483 31.4909 25.992 31.4772 26.3489C31.4442 27.2115 30.8854 27.869 30.0254 27.9427C29.6304 27.9765 29.1295 28 28.5 28C27.8705 28 27.3696 27.9765 26.9746 27.9427C26.1146 27.869 25.5558 27.2115 25.5228 26.3489C25.5091 25.992 25.5 25.5483 25.5 25C25.5 24.4517 25.5091 24.008 25.5228 23.6511Z" fill="#576684"/>
<path d="M34.5228 23.6511C34.5558 22.7885 35.1146 22.131 35.9746 22.0573C36.3696 22.0235 36.8705 22 37.5 22C38.1295 22 38.6304 22.0235 39.0254 22.0573C39.8854 22.131 40.4442 22.7885 40.4772 23.6511C40.4909 24.008 40.5 24.4517 40.5 25C40.5 25.5483 40.4909 25.992 40.4772 26.3489C40.4442 27.2115 39.8854 27.869 39.0254 27.9427C38.6304 27.9765 38.1295 28 37.5 28C36.8705 28 36.3696 27.9765 35.9746 27.9427C35.1146 27.869 34.5558 27.2115 34.5228 26.3489C34.5091 25.992 34.5 25.5483 34.5 25C34.5 24.4517 34.5091 24.008 34.5228 23.6511Z" fill="#576684"/>
<path d="M15.1127 32.2187C15.2479 31.5504 15.8694 31.2117 16.55 31.1706C17.7625 31.0974 20.1069 31 24 31C27.8931 31 30.2375 31.0974 31.45 31.1706C32.1306 31.2117 32.7521 31.5504 32.8873 32.2187C32.9527 32.5422 33 32.962 33 33.5C33 34.038 32.9527 34.4578 32.8873 34.7813C32.7521 35.4496 32.1306 35.7883 31.45 35.8294C30.2375 35.9026 27.8931 36 24 36C20.1069 36 17.7625 35.9026 16.55 35.8294C15.8694 35.7883 15.2479 35.4496 15.1127 34.7813C15.0473 34.4578 15 34.038 15 33.5C15 32.962 15.0473 32.5422 15.1127 32.2187Z" fill="#576684"/>
</svg>