<!-- Copyright © Ewsgit 2022. -->
<!-- Licensed under the MIT License - https://ewsgit.github.io/devdash/copyright -->

<svg xmlns="http://www.w3.org/2000/svg" width="48" height="48" fill="none" viewBox="0 0 48 48"><path fill="#ACB4C9" d="M13 32H20C20 32 17.4571 36.6619 14.7125 40.9133C14.2628 41.61 13.5368 42.0825 12.7106 42.1533C11.9516 42.2184 10.9612 42.2608 10.0326 42.1705C9.46474 42.1154 9.13637 41.5427 9.31273 41.0001C10.8226 36.3547 13 32 13 32Z"/><path fill="#ACB4C9" d="M35 32H28C28 32 30.5429 36.6619 33.2875 40.9133C33.7372 41.61 34.4632 42.0825 35.2894 42.1533C36.0484 42.2184 37.0388 42.2608 37.9674 42.1705C38.5353 42.1154 38.8636 41.5427 38.6873 41.0001C37.1774 36.3547 35 32 35 32Z"/><path fill="#576684" d="M44 21C44 26.4115 43.8536 30.6517 43.7192 33.4035C43.6277 35.2769 41.8132 36.6219 39.9543 36.3714C36.9061 35.9606 31.7582 35.5 24 35.5C16.2418 35.5 11.0939 35.9606 8.0457 36.3714C6.18682 36.6219 4.37228 35.2769 4.28079 33.4035C4.14642 30.6517 4 26.4115 4 21C4 15.5885 4.14642 11.3483 4.28079 8.59654C4.37228 6.72309 6.18682 5.37815 8.0457 5.62863C11.0939 6.03937 16.2418 6.5 24 6.5C31.7582 6.5 36.9061 6.03937 39.9543 5.62863C41.8132 5.37815 43.6277 6.72309 43.7192 8.59654C43.8536 11.3483 44 15.5885 44 21Z"/></svg>