<!-- Copyright © Ewsgit 2022. -->
<!-- Licensed under the MIT License - https://ewsgit.github.io/devdash/copyright -->

<svg width="48" height="48" viewBox="0 0 48 48" fill="none" xmlns="http://www.w3.org/2000/svg">
<path d="M29.8975 3.35689C31.7559 3.61744 33.0774 5.06675 33.5496 6.88296L37.6074 22.4902C37.8649 23.4803 37.8649 24.5197 37.6074 25.5098L33.5496 41.117C33.0774 42.9333 31.7559 44.3826 29.8975 44.6431C28.5125 44.8373 26.5817 45 24 45C21.4183 45 19.4875 44.8373 18.1025 44.6431C16.2441 44.3826 14.9226 42.9333 14.4504 41.117L10.3925 25.5098C10.1351 24.5197 10.1351 23.4803 10.3925 22.4902L14.4504 6.88297C14.9226 5.06675 16.2441 3.61744 18.1025 3.35689C19.4875 3.16273 21.4183 3 24 3C26.5817 3 28.5125 3.16273 29.8975 3.35689Z" fill="#ACB4C9"/>
<circle cx="24" cy="24" r="16" fill="#576684"/>
<path fill-rule="evenodd" clip-rule="evenodd" d="M21.9159 27.207C21.9748 26.643 21.5612 26.137 20.9957 26.0948C20.1299 26.0302 19.3474 25.9784 18.7048 25.9389C17.9241 25.8909 17.496 25.0187 17.9637 24.3917C19.3053 22.5934 21.8266 19.4083 24.859 16.514C25.4894 15.9124 26.4933 16.3939 26.444 17.2639C26.348 18.958 26.2258 20.4107 26.0986 21.6286C26.0397 22.1925 26.4533 22.6985 27.0187 22.7408C27.8845 22.8054 28.6671 22.8571 29.3097 22.8967C30.0903 22.9447 30.5184 23.8169 30.0507 24.4438C28.7092 26.2421 26.1878 29.4273 23.1554 32.3215C22.525 32.9231 21.5211 32.4416 21.5704 31.5716C21.6665 29.8776 21.7887 28.4249 21.9159 27.207Z" fill="#ACB4C9"/>
</svg>