<!-- Copyright © Ewsgit 2022. -->
<!-- Licensed under the MIT License - https://ewsgit.github.io/devdash/copyright -->

<svg width="48" height="48" viewBox="0 0 48 48" fill="none" xmlns="http://www.w3.org/2000/svg">
<path d="M37.8426 3.61261C39.3688 3.79773 40.5605 4.78424 40.8637 6.2914C41.3768 8.84091 42 13.9967 42 24C42 32.7929 41.7325 37.8404 41.4742 40.6647C41.2831 42.7532 39.7432 44.2505 37.6563 44.4584C35.0158 44.7215 30.6499 45 24 45C17.3501 45 12.9842 44.7215 10.3438 44.4584C8.25678 44.2505 6.71685 42.7532 6.52583 40.6647C6.26753 37.8404 6.00001 32.7929 6 24C6 15.2071 6.26752 10.1596 6.52583 7.33534C6.71685 5.24676 8.25678 3.74954 10.3437 3.54161C12.9842 3.27854 17.3501 3 24 3C31.2532 3 35.524 3.33137 37.8426 3.61261Z" fill="#576684"/>
<path fill-rule="evenodd" clip-rule="evenodd" d="M41.4095 10C41.2351 8.38426 41.043 7.17965 40.8642 6.2914C40.5609 4.78424 39.3693 3.79773 37.8431 3.61261C35.5245 3.33137 31.2537 3 24.0005 3C17.3506 3 12.9847 3.27854 10.3442 3.54162C8.25727 3.74954 6.71734 5.24676 6.52632 7.33534C6.45949 8.06598 6.39205 8.94542 6.32878 10H41.4095ZM41.7764 36C41.6868 37.993 41.5799 39.5135 41.4747 40.6647C41.2836 42.7532 39.7437 44.2505 37.6567 44.4584C35.0163 44.7215 30.6504 45 24.0005 45C17.3506 45 12.9847 44.7215 10.3442 44.4584C8.25727 44.2505 6.71734 42.7532 6.52632 40.6647C6.42103 39.5135 6.31422 37.993 6.22461 36H41.7764Z" fill="#ACB4C9"/>
<path d="M22.008 39.8266C22.0266 39.1075 22.4903 38.5653 23.2083 38.5219C23.43 38.5084 23.6919 38.5 24 38.5C24.3081 38.5 24.57 38.5084 24.7917 38.5219C25.5097 38.5653 25.9734 39.1075 25.992 39.8266C25.997 40.0192 26 40.2422 26 40.5C26 40.7578 25.997 40.9808 25.992 41.1734C25.9734 41.8925 25.5097 42.4347 24.7917 42.4781C24.57 42.4916 24.3081 42.5 24 42.5C23.6919 42.5 23.43 42.4916 23.2083 42.4781C22.4903 42.4347 22.0266 41.8925 22.008 41.1734C22.003 40.9808 22 40.7578 22 40.5C22 40.2422 22.003 40.0192 22.008 39.8266Z" fill="#576684"/>
</svg>