<!-- Copyright © Ewsgit 2022. -->
<!-- Licensed under the MIT License - https://ewsgit.github.io/devdash/copyright -->

<svg width="48" height="48" viewBox="0 0 48 48" fill="none" xmlns="http://www.w3.org/2000/svg">
<path fill-rule="evenodd" clip-rule="evenodd" d="M36 3C37.1046 3 38 3.89543 38 5C38 8.31371 35.3137 11 32 11H28C26.8954 11 26 11.8954 26 13V15.5C26 16.6046 25.1046 17.5 24 17.5C22.8954 17.5 22 16.6046 22 15.5V13C22 9.68629 24.6863 7 28 7H32C33.1046 7 34 6.10457 34 5C34 3.89543 34.8954 3 36 3Z" fill="#576684"/>
<path d="M46.379 40.9576C46.1593 42.5389 45.0579 43.7139 43.4831 43.9755C40.7221 44.4342 35.0722 45 24 45C14.0826 45 8.51551 44.7478 5.47804 44.5121C3.37001 44.3485 1.78836 42.8487 1.54677 40.7482C1.27324 38.37 0.999997 34.5943 0.999997 29C0.999998 23.4058 1.27324 19.63 1.54677 17.2518C1.78836 15.1512 3.37001 13.6515 5.47805 13.4879C8.51553 13.2522 14.0826 13 24 13C33.9174 13 39.4845 13.2522 42.522 13.4879C44.63 13.6515 46.2116 15.1512 46.4532 17.2518C46.7268 19.63 47 23.4057 47 29C47 35.1014 46.675 38.8286 46.379 40.9576Z" fill="#ACB4C9"/>
<path d="M7.52282 19.6511C7.55584 18.7885 8.1146 18.131 8.97464 18.0573C9.36963 18.0235 9.87052 18 10.5 18C11.1295 18 11.6304 18.0235 12.0254 18.0573C12.8854 18.131 13.4442 18.7885 13.4772 19.6511C13.4909 20.008 13.5 20.4517 13.5 21C13.5 21.5483 13.4909 21.992 13.4772 22.3489C13.4442 23.2115 12.8854 23.869 12.0254 23.9427C11.6304 23.9765 11.1295 24 10.5 24C9.87052 24 9.36963 23.9765 8.97464 23.9427C8.1146 23.869 7.55584 23.2115 7.52282 22.3489C7.50915 21.992 7.5 21.5483 7.5 21C7.5 20.4517 7.50915 20.008 7.52282 19.6511Z" fill="#576684"/>
<path d="M7.52282 28.6511C7.55584 27.7885 8.1146 27.131 8.97464 27.0573C9.36963 27.0235 9.87052 27 10.5 27C11.1295 27 11.6304 27.0235 12.0254 27.0573C12.8854 27.131 13.4442 27.7885 13.4772 28.6511C13.4909 29.008 13.5 29.4517 13.5 30C13.5 30.5483 13.4909 30.992 13.4772 31.3489C13.4442 32.2115 12.8854 32.869 12.0254 32.9427C11.6304 32.9765 11.1295 33 10.5 33C9.87052 33 9.36963 32.9765 8.97464 32.9427C8.1146 32.869 7.55584 32.2115 7.52282 31.3489C7.50915 30.992 7.5 30.5483 7.5 30C7.5 29.4517 7.50915 29.008 7.52282 28.6511Z" fill="#576684"/>
<path d="M16.5228 19.6511C16.5558 18.7885 17.1146 18.131 17.9746 18.0573C18.3696 18.0235 18.8705 18 19.5 18C20.1295 18 20.6304 18.0235 21.0254 18.0573C21.8854 18.131 22.4442 18.7885 22.4772 19.6511C22.4909 20.008 22.5 20.4517 22.5 21C22.5 21.5483 22.4909 21.992 22.4772 22.3489C22.4442 23.2115 21.8854 23.869 21.0254 23.9427C20.6304 23.9765 20.1295 24 19.5 24C18.8705 24 18.3696 23.9765 17.9746 23.9427C17.1146 23.869 16.5558 23.2115 16.5228 22.3489C16.5091 21.992 16.5 21.5483 16.5 21C16.5 20.4517 16.5091 20.008 16.5228 19.6511Z" fill="#576684"/>
<path d="M16.5228 28.6511C16.5558 27.7885 17.1146 27.131 17.9746 27.0573C18.3696 27.0235 18.8705 27 19.5 27C20.1295 27 20.6304 27.0235 21.0254 27.0573C21.8854 27.131 22.4442 27.7885 22.4772 28.6511C22.4909 29.008 22.5 29.4517 22.5 30C22.5 30.5483 22.4909 30.992 22.4772 31.3489C22.4442 32.2115 21.8854 32.869 21.0254 32.9427C20.6304 32.9765 20.1295 33 19.5 33C18.8705 33 18.3696 32.9765 17.9746 32.9427C17.1146 32.869 16.5558 32.2115 16.5228 31.3489C16.5091 30.992 16.5 30.5483 16.5 30C16.5 29.4517 16.5091 29.008 16.5228 28.6511Z" fill="#576684"/>
<path d="M25.5228 19.6511C25.5558 18.7885 26.1146 18.131 26.9746 18.0573C27.3696 18.0235 27.8705 18 28.5 18C29.1295 18 29.6304 18.0235 30.0254 18.0573C30.8854 18.131 31.4442 18.7885 31.4772 19.6511C31.4909 20.008 31.5 20.4517 31.5 21C31.5 21.5483 31.4909 21.992 31.4772 22.3489C31.4442 23.2115 30.8854 23.869 30.0254 23.9427C29.6304 23.9765 29.1295 24 28.5 24C27.8705 24 27.3696 23.9765 26.9746 23.9427C26.1146 23.869 25.5558 23.2115 25.5228 22.3489C25.5091 21.992 25.5 21.5483 25.5 21C25.5 20.4517 25.5091 20.008 25.5228 19.6511Z" fill="#576684"/>
<path d="M34.5228 19.6511C34.5558 18.7885 35.1146 18.131 35.9746 18.0573C36.3696 18.0235 36.8705 18 37.5 18C38.1295 18 38.6304 18.0235 39.0254 18.0573C39.8854 18.131 40.4442 18.7885 40.4772 19.6511C40.4909 20.008 40.5 20.4517 40.5 21C40.5 21.5483 40.4909 21.992 40.4772 22.3489C40.4442 23.2115 39.8854 23.869 39.0254 23.9427C38.6304 23.9765 38.1295 24 37.5 24C36.8705 24 36.3696 23.9765 35.9746 23.9427C35.1146 23.869 34.5558 23.2115 34.5228 22.3489C34.5091 21.992 34.5 21.5483 34.5 21C34.5 20.4517 34.5091 20.008 34.5228 19.6511Z" fill="#576684"/>
<path d="M25.5228 28.6511C25.5558 27.7885 26.1146 27.131 26.9746 27.0573C27.3696 27.0235 27.8705 27 28.5 27C29.1295 27 29.6304 27.0235 30.0254 27.0573C30.8854 27.131 31.4442 27.7885 31.4772 28.6511C31.4909 29.008 31.5 29.4517 31.5 30C31.5 30.5483 31.4909 30.992 31.4772 31.3489C31.4442 32.2115 30.8854 32.869 30.0254 32.9427C29.6304 32.9765 29.1295 33 28.5 33C27.8705 33 27.3696 32.9765 26.9746 32.9427C26.1146 32.869 25.5558 32.2115 25.5228 31.3489C25.5091 30.992 25.5 30.5483 25.5 30C25.5 29.4517 25.5091 29.008 25.5228 28.6511Z" fill="#576684"/>
<path d="M34.5228 28.6511C34.5558 27.7885 35.1146 27.131 35.9746 27.0573C36.3696 27.0235 36.8705 27 37.5 27C38.1295 27 38.6304 27.0235 39.0254 27.0573C39.8854 27.131 40.4442 27.7885 40.4772 28.6511C40.4909 29.008 40.5 29.4517 40.5 30C40.5 30.5483 40.4909 30.992 40.4772 31.3489C40.4442 32.2115 39.8854 32.869 39.0254 32.9427C38.6304 32.9765 38.1295 33 37.5 33C36.8705 33 36.3696 32.9765 35.9746 32.9427C35.1146 32.869 34.5558 32.2115 34.5228 31.3489C34.5091 30.992 34.5 30.5483 34.5 30C34.5 29.4517 34.5091 29.008 34.5228 28.6511Z" fill="#576684"/>
<path d="M15.1127 37.2187C15.2479 36.5504 15.8694 36.2117 16.55 36.1706C17.7625 36.0974 20.1069 36 24 36C27.8931 36 30.2375 36.0974 31.45 36.1706C32.1306 36.2117 32.7521 36.5504 32.8873 37.2187C32.9527 37.5422 33 37.962 33 38.5C33 39.038 32.9527 39.4578 32.8873 39.7813C32.7521 40.4496 32.1306 40.7883 31.45 40.8294C30.2375 40.9026 27.8931 41 24 41C20.1069 41 17.7625 40.9026 16.55 40.8294C15.8694 40.7883 15.2479 40.4496 15.1127 39.7813C15.0473 39.4578 15 39.038 15 38.5C15 37.962 15.0473 37.5422 15.1127 37.2187Z" fill="#576684"/>
</svg>