<!-- Copyright © Ewsgit 2022. -->
<!-- Licensed under the MIT License - https://ewsgit.github.io/devdash/copyright -->

<svg xmlns="http://www.w3.org/2000/svg" width="48" height="48" fill="none" viewBox="0 0 48 48"><path fill="#576684" fill-rule="evenodd" d="M7.68009 5.02577C5.92293 5.33785 4.71393 6.70729 4.51915 8.48128C4.26763 10.7721 4 14.6917 4 21C4 27.3083 4.26763 31.2279 4.51915 33.5187C4.71393 35.2927 5.92293 36.6622 7.68009 36.9742C9.24171 37.2516 11.5882 37.555 15 37.7594V41.8388C15 43.5158 16.9399 44.4481 18.2494 43.4005L25.0031 37.9975C33.0623 37.9569 37.7521 37.4303 40.3199 36.9742C42.0771 36.6622 43.2861 35.2927 43.4809 33.5187C43.7324 31.2279 44 27.3083 44 21C44 14.6917 43.7324 10.7721 43.4809 8.48128C43.2861 6.70728 42.0771 5.33785 40.3199 5.02577C37.6474 4.55112 32.6762 4 24 4C15.3238 4 10.3526 4.55112 7.68009 5.02577Z" clip-rule="evenodd"/><path fill="#ACB4C9" fill-rule="evenodd" d="M26.6582 8.91134C26.8638 8.36316 27.3879 8 27.9733 8C28.9539 8 29.6327 8.97946 29.2884 9.89764L27.7299 14.0536C29.8673 14.1194 31.4547 14.2379 32.6143 14.3637C34.4147 14.5591 35.6928 15.8729 35.8369 17.6781C35.9289 18.8312 36 20.4012 36 22.5C36 24.5988 35.9289 26.1688 35.8369 27.3218C35.6928 29.1271 34.4147 30.4409 32.6143 30.6363C30.8613 30.8265 28.1304 31 24 31C19.8696 31 17.1387 30.8265 15.3857 30.6363C13.5853 30.4409 12.3072 29.1271 12.1631 27.3219C12.0711 26.1688 12 24.5988 12 22.5C12 20.4012 12.0711 18.8312 12.1631 17.6781C12.3072 15.8729 13.5853 14.5591 15.3857 14.3637C16.5453 14.2379 18.1327 14.1194 20.2701 14.0536L18.7116 9.89764C18.3673 8.97946 19.0461 8 20.0267 8C20.6121 8 21.1362 8.36316 21.3418 8.91134L23.2507 14.0019C23.4952 14.0007 23.7449 14 24 14C24.2551 14 24.5048 14.0007 24.7493 14.0019L26.6582 8.91134Z" clip-rule="evenodd"/><path fill="#576684" fill-rule="evenodd" d="M21.0002 19.5C21.0002 20.3284 20.3286 21 19.5002 21C18.6718 21 18.0002 20.3284 18.0002 19.5C18.0002 18.6716 18.6718 18 19.5002 18C20.3286 18 21.0002 18.6716 21.0002 19.5ZM30.0002 19.5C30.0002 20.3284 29.3286 21 28.5002 21C27.6718 21 27.0002 20.3284 27.0002 19.5C27.0002 18.6716 27.6718 18 28.5002 18C29.3286 18 30.0002 18.6716 30.0002 19.5ZM19.8946 24.5528C19.6477 24.0588 19.047 23.8586 18.553 24.1056C18.059 24.3526 17.8588 24.9532 18.1058 25.4472L18.553 26.3416C19.0612 27.358 20.1 28 21.2363 28H26.7642C27.9005 28 28.9393 27.358 29.4474 26.3416L29.8946 25.4472C30.1416 24.9532 29.9414 24.3526 29.4474 24.1056C28.9535 23.8586 28.3528 24.0588 28.1058 24.5528L27.6586 25.4472C27.4892 25.786 27.1429 26 26.7642 26H21.2363C20.8575 26 20.5113 25.786 20.3419 25.4472L19.8946 24.5528Z" clip-rule="evenodd"/></svg>