<!-- Copyright © Ewsgit 2022. -->
<!-- Licensed under the MIT License - https://ewsgit.github.io/devdash/copyright -->

<svg width="48" height="48" viewBox="0 0 48 48" fill="none" xmlns="http://www.w3.org/2000/svg">
<path d="M44 24C44 29.4115 43.8536 33.6517 43.7192 36.4035C43.6277 38.2769 41.8132 39.6219 39.9543 39.3714C36.9061 38.9606 31.7582 38.5 24 38.5C16.2418 38.5 11.0939 38.9606 8.0457 39.3714C6.18682 39.6219 4.37228 38.2769 4.28079 36.4035C4.14642 33.6517 4 29.4115 4 24C4 18.5885 4.14642 14.3483 4.28079 11.5965C4.37228 9.72309 6.18682 8.37815 8.0457 8.62863C11.0939 9.03937 16.2418 9.5 24 9.5C31.7582 9.5 36.9061 9.03937 39.9543 8.62863C41.8132 8.37815 43.6277 9.72309 43.7192 11.5965C43.8536 14.3483 44 18.5885 44 24Z" fill="#576684"/>
<path d="M18.3165 19.7403C18.5756 18.0717 20.0676 17.1256 21.6689 17.6616C22.8215 18.0474 24.3907 18.6582 26.4706 19.625C28.0757 20.3711 29.3767 21.0466 30.4167 21.6312C32.4424 22.77 32.4424 25.23 30.4167 26.3688C29.3767 26.9534 28.0757 27.6289 26.4706 28.375C24.3907 29.3418 22.8215 29.9526 21.6689 30.3384C20.0676 30.8744 18.5756 29.9283 18.3165 28.2597C18.1424 27.1389 18 25.7019 18 24C18 22.2981 18.1424 20.8611 18.3165 19.7403Z" fill="#576684"/>
</svg>