<!-- Copyright © Ewsgit 2022. -->
<!-- Licensed under the MIT License - https://ewsgit.github.io/devdash/copyright -->

<svg width="48" height="48" viewBox="0 0 48 48" fill="none" xmlns="http://www.w3.org/2000/svg">
<path d="M14.0602 11.876C14.0791 12.2828 14.2486 12.6731 14.6329 12.8076C14.9277 12.9107 15.3661 13 16 13C16.634 13 17.0723 12.9107 17.3671 12.8076C17.7515 12.6731 17.9209 12.2828 17.9398 11.876C17.967 11.2906 18 10.3092 18 9C18 7.39962 17.9506 5.25177 17.923 4.17503C17.9117 3.73697 17.7359 3.31259 17.3194 3.1763C17.0257 3.08017 16.6006 3 16 3C15.3994 3 14.9744 3.08017 14.6806 3.1763C14.2642 3.3126 14.0883 3.73697 14.0771 4.17501C14.0494 5.25175 14 7.39961 14 9C14 10.3092 14.0331 11.2906 14.0602 11.876Z" fill="#ACB4C9"/>
<path d="M22.0602 11.876C22.0791 12.2828 22.2486 12.6731 22.6329 12.8076C22.9277 12.9107 23.3661 13 24 13C24.634 13 25.0723 12.9107 25.3671 12.8076C25.7515 12.6731 25.9209 12.2828 25.9398 11.876C25.967 11.2906 26 10.3092 26 9C26 7.39962 25.9506 5.25177 25.923 4.17503C25.9117 3.73697 25.7359 3.31259 25.3194 3.1763C25.0257 3.08017 24.6006 3 24 3C23.3994 3 22.9744 3.08017 22.6806 3.1763C22.2642 3.3126 22.0883 3.73697 22.0771 4.17501C22.0494 5.25175 22 7.39961 22 9C22 10.3092 22.0331 11.2906 22.0602 11.876Z" fill="#ACB4C9"/>
<path d="M30.0602 11.876C30.0791 12.2828 30.2486 12.6731 30.6329 12.8076C30.9277 12.9107 31.3661 13 32 13C32.634 13 33.0723 12.9107 33.3671 12.8076C33.7515 12.6731 33.9209 12.2828 33.9398 11.876C33.967 11.2906 34 10.3092 34 9C34 7.39962 33.9506 5.25177 33.923 4.17503C33.9117 3.73697 33.7359 3.31259 33.3194 3.1763C33.0257 3.08017 32.6006 3 32 3C31.3994 3 30.9744 3.08017 30.6806 3.1763C30.2642 3.3126 30.0883 3.73697 30.0771 4.17501C30.0494 5.25175 30 7.39961 30 9C30 10.3092 30.0331 11.2906 30.0602 11.876Z" fill="#ACB4C9"/>
<path d="M14.0602 43.876C14.0791 44.2828 14.2486 44.6731 14.6329 44.8076C14.9277 44.9107 15.3661 45 16 45C16.634 45 17.0723 44.9107 17.3671 44.8076C17.7515 44.6731 17.9209 44.2828 17.9398 43.876C17.967 43.2906 18 42.3092 18 41C18 39.3996 17.9506 37.2518 17.923 36.175C17.9117 35.737 17.7359 35.3126 17.3194 35.1763C17.0257 35.0802 16.6006 35 16 35C15.3994 35 14.9744 35.0802 14.6806 35.1763C14.2642 35.3126 14.0883 35.737 14.0771 36.175C14.0494 37.2517 14 39.3996 14 41C14 42.3092 14.0331 43.2906 14.0602 43.876Z" fill="#ACB4C9"/>
<path d="M22.0602 43.876C22.0791 44.2828 22.2486 44.6731 22.6329 44.8076C22.9277 44.9107 23.3661 45 24 45C24.634 45 25.0723 44.9107 25.3671 44.8076C25.7515 44.6731 25.9209 44.2828 25.9398 43.876C25.967 43.2906 26 42.3092 26 41C26 39.3996 25.9506 37.2518 25.923 36.175C25.9117 35.737 25.7359 35.3126 25.3194 35.1763C25.0257 35.0802 24.6006 35 24 35C23.3994 35 22.9744 35.0802 22.6806 35.1763C22.2642 35.3126 22.0883 35.737 22.0771 36.175C22.0494 37.2517 22 39.3996 22 41C22 42.3092 22.0331 43.2906 22.0602 43.876Z" fill="#ACB4C9"/>
<path d="M30.0602 43.876C30.0791 44.2828 30.2486 44.6731 30.6329 44.8076C30.9277 44.9107 31.3661 45 32 45C32.634 45 33.0723 44.9107 33.3671 44.8076C33.7515 44.6731 33.9209 44.2828 33.9398 43.876C33.967 43.2906 34 42.3092 34 41C34 39.3996 33.9506 37.2518 33.923 36.175C33.9117 35.737 33.7359 35.3126 33.3194 35.1763C33.0257 35.0802 32.6006 35 32 35C31.3994 35 30.9744 35.0802 30.6806 35.1763C30.2642 35.3126 30.0883 35.737 30.0771 36.175C30.0494 37.2517 30 39.3996 30 41C30 42.3092 30.0331 43.2906 30.0602 43.876Z" fill="#ACB4C9"/>
<path d="M36.124 14.0602C35.7172 14.0791 35.3269 14.2486 35.1924 14.6329C35.0893 14.9277 35 15.3661 35 16C35 16.634 35.0893 17.0723 35.1924 17.3671C35.3269 17.7515 35.7172 17.9209 36.124 17.9398C36.7094 17.967 37.6908 18 39 18C40.6004 18 42.7482 17.9506 43.825 17.923C44.263 17.9117 44.6874 17.7359 44.8237 17.3194C44.9198 17.0257 45 16.6006 45 16C45 15.3994 44.9198 14.9744 44.8237 14.6806C44.6874 14.2642 44.263 14.0883 43.825 14.0771C42.7483 14.0494 40.6004 14 39 14C37.6908 14 36.7094 14.0331 36.124 14.0602Z" fill="#ACB4C9"/>
<path d="M36.124 22.0602C35.7172 22.0791 35.3269 22.2486 35.1924 22.6329C35.0893 22.9277 35 23.3661 35 24C35 24.634 35.0893 25.0723 35.1924 25.3671C35.3269 25.7515 35.7172 25.9209 36.124 25.9398C36.7094 25.967 37.6908 26 39 26C40.6004 26 42.7482 25.9506 43.825 25.923C44.263 25.9117 44.6874 25.7359 44.8237 25.3194C44.9198 25.0257 45 24.6006 45 24C45 23.3994 44.9198 22.9744 44.8237 22.6806C44.6874 22.2642 44.263 22.0883 43.825 22.0771C42.7483 22.0494 40.6004 22 39 22C37.6908 22 36.7094 22.0331 36.124 22.0602Z" fill="#ACB4C9"/>
<path d="M36.124 30.0602C35.7172 30.0791 35.3269 30.2486 35.1924 30.6329C35.0893 30.9277 35 31.3661 35 32C35 32.634 35.0893 33.0723 35.1924 33.3671C35.3269 33.7515 35.7172 33.9209 36.124 33.9398C36.7094 33.967 37.6908 34 39 34C40.6004 34 42.7482 33.9506 43.825 33.923C44.263 33.9117 44.6874 33.7359 44.8237 33.3194C44.9198 33.0257 45 32.6006 45 32C45 31.3994 44.9198 30.9744 44.8237 30.6806C44.6874 30.2642 44.263 30.0883 43.825 30.0771C42.7483 30.0494 40.6004 30 39 30C37.6908 30 36.7094 30.0331 36.124 30.0602Z" fill="#ACB4C9"/>
<path d="M4.12395 14.0602C3.7172 14.0791 3.3269 14.2486 3.19245 14.6329C3.08932 14.9277 3 15.3661 3 16C3 16.634 3.08931 17.0723 3.19243 17.3671C3.32689 17.7515 3.71721 17.9209 4.12399 17.9398C4.70943 17.967 5.69082 18 7 18C8.60038 18 10.7482 17.9506 11.825 17.923C12.263 17.9117 12.6874 17.7359 12.8237 17.3194C12.9198 17.0257 13 16.6006 13 16C13 15.3994 12.9198 14.9744 12.8237 14.6806C12.6874 14.2642 12.263 14.0883 11.825 14.0771C10.7483 14.0494 8.60039 14 7 14C5.69079 14 4.70939 14.0331 4.12395 14.0602Z" fill="#ACB4C9"/>
<path d="M4.12395 22.0602C3.7172 22.0791 3.3269 22.2486 3.19245 22.6329C3.08932 22.9277 3 23.3661 3 24C3 24.634 3.08931 25.0723 3.19243 25.3671C3.32689 25.7515 3.71721 25.9209 4.12399 25.9398C4.70943 25.967 5.69082 26 7 26C8.60038 26 10.7482 25.9506 11.825 25.923C12.263 25.9117 12.6874 25.7359 12.8237 25.3194C12.9198 25.0257 13 24.6006 13 24C13 23.3994 12.9198 22.9744 12.8237 22.6806C12.6874 22.2642 12.263 22.0883 11.825 22.0771C10.7483 22.0494 8.60039 22 7 22C5.69079 22 4.70939 22.0331 4.12395 22.0602Z" fill="#ACB4C9"/>
<path d="M4.12395 30.0602C3.7172 30.0791 3.3269 30.2486 3.19245 30.6329C3.08932 30.9277 3 31.3661 3 32C3 32.634 3.08931 33.0723 3.19243 33.3671C3.32689 33.7515 3.71721 33.9209 4.12399 33.9398C4.70943 33.967 5.69082 34 7 34C8.60038 34 10.7482 33.9506 11.825 33.923C12.263 33.9117 12.6874 33.7359 12.8237 33.3194C12.9198 33.0257 13 32.6006 13 32C13 31.3994 12.9198 30.9744 12.8237 30.6806C12.6874 30.2642 12.263 30.0883 11.825 30.0771C10.7483 30.0494 8.60039 30 7 30C5.69079 30 4.70939 30.0331 4.12395 30.0602Z" fill="#ACB4C9"/>
<path d="M7.43764 11.3868C7.60075 9.66811 8.72562 8.31361 10.4195 7.98002C12.7733 7.51643 16.9726 7 24 7C31.0274 7 35.2267 7.51643 37.5805 7.98002C39.2744 8.31361 40.3992 9.66811 40.5624 11.3868C40.7751 13.6282 41 17.5283 41 24C41 30.4717 40.7751 34.3718 40.5624 36.6132C40.3992 38.3319 39.2744 39.6864 37.5805 40.02C35.2267 40.4836 31.0274 41 24 41C16.9726 41 12.7734 40.4836 10.4195 40.02C8.72563 39.6864 7.60075 38.3319 7.43764 36.6132C7.22492 34.3718 7 30.4717 7 24C7 17.5283 7.22492 13.6282 7.43764 11.3868Z" fill="#576684"/>
<circle cx="24" cy="20" r="6" fill="#576684"/>
<path d="M14.1915 20.7555C14.3332 19.0191 15.689 17.6783 17.4197 17.4789C19.4062 17.25 22.0278 17 24 17C25.9722 17 28.5938 17.25 30.5803 17.4789C32.311 17.6783 33.6668 19.0191 33.8085 20.7555C33.912 22.0247 34 23.648 34 25.5C34 27.7061 33.8751 29.5877 33.7479 30.9328C33.617 32.3156 32.6737 33.4162 31.2979 33.6061C29.8367 33.8078 27.5205 34 24 34C20.4795 34 18.1633 33.8078 16.7021 33.6061C15.3263 33.4162 14.383 32.3156 14.2521 30.9328C14.1248 29.5877 14 27.7061 14 25.5C14 23.648 14.088 22.0247 14.1915 20.7555Z" fill="#ACB4C9"/>
<path fill-rule="evenodd" clip-rule="evenodd" d="M22.0002 22.5C22.0002 23.3284 21.3286 24 20.5002 24C19.6718 24 19.0002 23.3284 19.0002 22.5C19.0002 21.6716 19.6718 21 20.5002 21C21.3286 21 22.0002 21.6716 22.0002 22.5ZM29.0002 22.5C29.0002 23.3284 28.3286 24 27.5002 24C26.6718 24 26.0002 23.3284 26.0002 22.5C26.0002 21.6716 26.6718 21 27.5002 21C28.3286 21 29.0002 21.6716 29.0002 22.5ZM20.8946 27.5528C20.6477 27.0588 20.047 26.8586 19.553 27.1056C19.059 27.3526 18.8588 27.9532 19.1058 28.4472C19.8881 30.0117 21.4871 31 23.2363 31H24.7642C26.5133 31 28.1124 30.0117 28.8946 28.4472C29.1416 27.9532 28.9414 27.3526 28.4474 27.1056C27.9535 26.8586 27.3528 27.0588 27.1058 27.5528C26.6623 28.4397 25.7558 29 24.7642 29H23.2363C22.2446 29 21.3381 28.4397 20.8946 27.5528Z" fill="#576684"/>
<path d="M26 13C26 14.1046 25.1046 15 24 15C22.8954 15 22 14.1046 22 13C22 11.8954 22.8954 11 24 11C25.1046 11 26 11.8954 26 13Z" fill="#ACB4C9"/>
<path d="M23.0322 19.1724C23.0408 19.4546 23.1152 19.7508 23.3694 19.8736C23.5148 19.9438 23.7189 20 24 20C24.2811 20 24.4852 19.9438 24.6306 19.8736C24.8848 19.7508 24.9592 19.4546 24.9678 19.1724C24.9817 18.7147 25 17.9027 25 16.8C25 15.4772 24.9736 13.6869 24.9602 12.8572C24.9553 12.5558 24.8789 12.2373 24.6038 12.1139C24.4604 12.0496 24.2642 12 24 12C23.7358 12 23.5396 12.0496 23.3962 12.1139C23.1212 12.2373 23.0448 12.5558 23.0399 12.8572C23.0264 13.6869 23 15.4772 23 16.8C23 17.9027 23.0183 18.7147 23.0322 19.1724Z" fill="#ACB4C9"/>
</svg>