<!-- Copyright © Ewsgit 2022. -->
<!-- Licensed under the MIT License - https://ewsgit.github.io/devdash/copyright -->

<svg width="48" height="48" viewBox="0 0 48 48" fill="none" xmlns="http://www.w3.org/2000/svg">
<path d="M29.8975 3.35689C31.7559 3.61744 33.0774 5.06675 33.5496 6.88296L37.6074 22.4902C37.8649 23.4803 37.8649 24.5197 37.6074 25.5098L33.5496 41.117C33.0774 42.9333 31.7559 44.3826 29.8975 44.6431C28.5125 44.8373 26.5817 45 24 45C21.4183 45 19.4875 44.8373 18.1025 44.6431C16.2441 44.3826 14.9226 42.9333 14.4504 41.117L10.3925 25.5098C10.1351 24.5197 10.1351 23.4803 10.3925 22.4902L14.4504 6.88297C14.9226 5.06675 16.2441 3.61744 18.1025 3.35689C19.4875 3.16273 21.4183 3 24 3C26.5817 3 28.5125 3.16273 29.8975 3.35689Z" fill="#ACB4C9"/>
<circle cx="24" cy="24" r="16" fill="#576684"/>
<path d="M31.1536 25.6389C31.938 24.405 32.1932 22.8764 31.852 21.455C31.1231 18.2173 27.0865 16.8943 24.5722 19.064C24.373 19.2347 24.1959 19.4315 24 19.6277C23.8041 19.4315 23.627 19.2347 23.4278 19.064C20.9135 16.8943 16.8769 18.2173 16.148 21.455C15.8068 22.8764 16.062 24.405 16.8464 25.6389C18.0308 27.5049 19.841 29.0145 21.7023 30.3739C23.0659 31.3698 24.9341 31.3698 26.2977 30.3739C28.159 29.0145 29.9692 27.5049 31.1536 25.6389Z" fill="#ACB4C9"/>
</svg>