<!-- Copyright © Ewsgit 2022. -->
<!-- Licensed under the MIT License - https://ewsgit.github.io/devdash/copyright -->

<svg width="48" height="48" viewBox="0 0 48 48" fill="none" xmlns="http://www.w3.org/2000/svg">
<path d="M17.1835 4.11285C19.0693 4.26161 20.3313 5.79186 20.4588 7.67924C20.6876 11.0667 21 16.9771 21 24C21 31.0229 20.6877 36.9332 20.4588 40.3207C20.3313 42.2081 19.0692 43.7384 17.1834 43.8872C16.337 43.9539 15.2868 44 14 44C12.7132 44 11.6629 43.9539 10.8166 43.8872C8.93075 43.7384 7.66865 42.2081 7.54116 40.3207C7.31234 36.9332 7 31.0229 7 24C7 16.9771 7.31235 11.0667 7.54117 7.67924C7.66866 5.79186 8.93069 4.26161 10.8165 4.11285C11.6628 4.04609 12.7131 4 14 4C15.2869 4 16.3372 4.04609 17.1835 4.11285Z" fill="#ACB4C9"/>
<path d="M37.1835 4.11285C39.0693 4.26161 40.3313 5.79186 40.4588 7.67924C40.6876 11.0667 41 16.9771 41 24C41 31.0229 40.6877 36.9332 40.4588 40.3207C40.3313 42.2081 39.0692 43.7384 37.1834 43.8872C36.337 43.9539 35.2868 44 34 44C32.7132 44 31.6629 43.9539 30.8166 43.8872C28.9308 43.7384 27.6687 42.2081 27.5412 40.3207C27.3123 36.9332 27 31.0229 27 24C27 16.9771 27.3124 11.0667 27.5412 7.67924C27.6687 5.79186 28.9307 4.26161 30.8165 4.11285C31.6628 4.04609 32.7131 4 34 4C35.2869 4 36.3372 4.04609 37.1835 4.11285Z" fill="#ACB4C9"/>
</svg>