<!-- Copyright © Ewsgit 2022. -->
<!-- Licensed under the MIT License - https://ewsgit.github.io/devdash/copyright -->

<svg width="48" height="48" viewBox="0 0 48 48" fill="none" xmlns="http://www.w3.org/2000/svg">
<circle cx="24" cy="24" r="22" fill="#ACB4C9"/>
<path d="M16.9594 9.44657C16.4144 8.70619 15.3899 8.73236 14.6144 9.22609C9.73615 12.3319 6.5 17.7875 6.5 23.999C6.5 33.664 14.335 41.499 24 41.499C33.665 41.499 41.5 33.664 41.5 23.999C41.5 17.7875 38.2638 12.3319 33.3856 9.22609C32.6101 8.73236 31.5856 8.70619 31.0406 9.44657C30.8365 9.72378 30.6428 10.0708 30.5 10.499C30.3512 10.9455 30.2637 11.3599 30.2142 11.7219C30.0923 12.6129 30.6579 13.3796 31.3832 13.9114C34.4857 16.1859 36.5 19.8572 36.5 23.999C36.5 30.9025 30.9036 36.499 24 36.499C17.0964 36.499 11.5 30.9025 11.5 23.999C11.5 19.8572 13.5143 16.1859 16.6168 13.9114C17.3421 13.3796 17.9077 12.6129 17.7858 11.7219C17.7363 11.3599 17.6488 10.9455 17.5 10.499C17.3572 10.0708 17.1635 9.72378 16.9594 9.44657Z" fill="#576684"/>
<path d="M26.8832 8.0081C26.8491 7.05728 26.304 6.22235 25.362 6.08893C24.989 6.03611 24.5375 6 24 6C23.4625 6 23.011 6.03611 22.638 6.08893C21.696 6.22235 21.1509 7.05728 21.1168 8.0081C21.0632 9.5004 21 12.2641 21 17C21 21.7359 21.0632 24.4996 21.1168 25.9919C21.1509 26.9427 21.696 27.7777 22.638 27.9111C23.011 27.9639 23.4625 28 24 28C24.5375 28 24.989 27.9639 25.362 27.9111C26.304 27.7777 26.8491 26.9427 26.8832 25.9919C26.9368 24.4996 27 21.7359 27 17C27 12.2641 26.9368 9.5004 26.8832 8.0081Z" fill="#576684"/>
</svg>