<!-- Copyright © Ewsgit 2022. -->
<!-- Licensed under the MIT License - https://ewsgit.github.io/devdash/copyright -->

<svg xmlns="http://www.w3.org/2000/svg" width="49" height="48" fill="none" viewBox="0 0 49 48"><path fill="#576684" d="M4.88753 11.1919C5.06821 9.40944 6.29277 8.05252 8.06249 7.77317C10.423 7.40056 14.5718 7 21.5 7C28.4282 7 32.577 7.40056 34.9375 7.77317C36.7072 8.05251 37.9318 9.40944 38.1125 11.1919C38.3089 13.1303 38.5 16.2391 38.5 21C38.5 25.7609 38.3089 28.8697 38.1125 30.8081C37.9318 32.5906 36.7072 33.9475 34.9375 34.2268C32.577 34.5994 28.4282 35 21.5 35C14.5718 35 10.423 34.5994 8.06249 34.2268C6.29278 33.9475 5.06821 32.5906 4.88753 30.8081C4.69105 28.8697 4.5 25.7609 4.5 21C4.5 16.2391 4.69105 13.1303 4.88753 11.1919Z"/><path fill="#ACB4C9" d="M44.0691 15.2898C43.8833 13.5103 42.6664 12.1476 40.9011 11.8565C38.4335 11.4496 34.0082 11 26.5 11C18.9918 11 14.5665 11.4496 12.0989 11.8565C10.3336 12.1476 9.11668 13.5103 8.93093 15.2898C8.71586 17.3502 8.5 20.7307 8.5 26C8.5 31.2693 8.71586 34.6498 8.93093 36.7102C9.11668 38.4897 10.3336 39.8524 12.0989 40.1435C14.5665 40.5504 18.9918 41 26.5 41C34.0082 41 38.4335 40.5504 40.9011 40.1435C42.6664 39.8524 43.8833 38.4897 44.0691 36.7102C44.2841 34.6498 44.5 31.2693 44.5 26C44.5 20.7307 44.2841 17.3502 44.0691 15.2898Z"/><path fill="#576684" d="M21.7605 22.4998C21.9352 21.3841 22.8707 20.7451 23.8782 21.0967C24.7041 21.3849 25.8684 21.865 27.456 22.665C28.7673 23.3259 29.7899 23.9139 30.5715 24.4053C31.8095 25.1835 31.8095 26.8165 30.5715 27.5947C29.7899 28.0861 28.7673 28.6741 27.456 29.335C25.8684 30.135 24.7041 30.6151 23.8782 30.9033C22.8707 31.2549 21.9352 30.6159 21.7605 29.5002C21.6215 28.6135 21.5 27.4293 21.5 26C21.5 24.5707 21.6215 23.3865 21.7605 22.4998Z"/><path fill="#576684" d="M15.4848 33.1007C15.4628 32.5257 15.0903 32.0873 14.5169 32.0382C14.2536 32.0157 13.9197 32 13.5 32C13.0803 32 12.7464 32.0157 12.4831 32.0382C11.9097 32.0873 11.5372 32.5257 11.5152 33.1007C11.5061 33.3387 11.5 33.6345 11.5 34C11.5 34.3655 11.5061 34.6613 11.5152 34.8993C11.5372 35.4743 11.9097 35.9127 12.4831 35.9618C12.7464 35.9843 13.0803 36 13.5 36C13.9197 36 14.2536 35.9843 14.5169 35.9618C15.0903 35.9127 15.4628 35.4743 15.4848 34.8993C15.4939 34.6613 15.5 34.3655 15.5 34C15.5 33.6345 15.4939 33.3387 15.4848 33.1007Z"/><path fill="#576684" d="M15.4848 25.1007C15.4628 24.5257 15.0903 24.0873 14.5169 24.0382C14.2536 24.0157 13.9197 24 13.5 24C13.0803 24 12.7464 24.0157 12.4831 24.0382C11.9097 24.0873 11.5372 24.5257 11.5152 25.1007C11.5061 25.3387 11.5 25.6345 11.5 26C11.5 26.3655 11.5061 26.6613 11.5152 26.8993C11.5372 27.4743 11.9097 27.9127 12.4831 27.9618C12.7464 27.9843 13.0803 28 13.5 28C13.9197 28 14.2536 27.9843 14.5169 27.9618C15.0903 27.9127 15.4628 27.4743 15.4848 26.8993C15.4939 26.6613 15.5 26.3655 15.5 26C15.5 25.6345 15.4939 25.3387 15.4848 25.1007Z"/><path fill="#576684" d="M15.4848 17.1007C15.4628 16.5257 15.0903 16.0873 14.5169 16.0382C14.2536 16.0157 13.9197 16 13.5 16C13.0803 16 12.7464 16.0157 12.4831 16.0382C11.9097 16.0873 11.5372 16.5257 11.5152 17.1007C11.5061 17.3387 11.5 17.6345 11.5 18C11.5 18.3655 11.5061 18.6613 11.5152 18.8993C11.5372 19.4743 11.9097 19.9127 12.4831 19.9618C12.7464 19.9843 13.0803 20 13.5 20C13.9197 20 14.2536 19.9843 14.5169 19.9618C15.0903 19.9127 15.4628 19.4743 15.4848 18.8993C15.4939 18.6613 15.5 18.3655 15.5 18C15.5 17.6345 15.4939 17.3387 15.4848 17.1007Z"/><path fill="#576684" d="M37.5152 33.1007C37.5372 32.5257 37.9097 32.0873 38.4831 32.0382C38.7464 32.0157 39.0803 32 39.5 32C39.9197 32 40.2536 32.0157 40.5169 32.0382C41.0903 32.0873 41.4628 32.5257 41.4848 33.1007C41.4939 33.3387 41.5 33.6345 41.5 34C41.5 34.3655 41.4939 34.6613 41.4848 34.8993C41.4628 35.4743 41.0903 35.9127 40.5169 35.9618C40.2536 35.9843 39.9197 36 39.5 36C39.0803 36 38.7464 35.9843 38.4831 35.9618C37.9097 35.9127 37.5372 35.4743 37.5152 34.8993C37.5061 34.6613 37.5 34.3655 37.5 34C37.5 33.6345 37.5061 33.3387 37.5152 33.1007Z"/><path fill="#576684" d="M37.5152 25.1007C37.5372 24.5257 37.9097 24.0873 38.4831 24.0382C38.7464 24.0157 39.0803 24 39.5 24C39.9197 24 40.2536 24.0157 40.5169 24.0382C41.0903 24.0873 41.4628 24.5257 41.4848 25.1007C41.4939 25.3387 41.5 25.6345 41.5 26C41.5 26.3655 41.4939 26.6613 41.4848 26.8993C41.4628 27.4743 41.0903 27.9127 40.5169 27.9618C40.2536 27.9843 39.9197 28 39.5 28C39.0803 28 38.7464 27.9843 38.4831 27.9618C37.9097 27.9127 37.5372 27.4743 37.5152 26.8993C37.5061 26.6613 37.5 26.3655 37.5 26C37.5 25.6345 37.5061 25.3387 37.5152 25.1007Z"/><path fill="#576684" d="M37.5152 17.1007C37.5372 16.5257 37.9097 16.0873 38.4831 16.0382C38.7464 16.0157 39.0803 16 39.5 16C39.9197 16 40.2536 16.0157 40.5169 16.0382C41.0903 16.0873 41.4628 16.5257 41.4848 17.1007C41.4939 17.3387 41.5 17.6345 41.5 18C41.5 18.3655 41.4939 18.6613 41.4848 18.8993C41.4628 19.4743 41.0903 19.9127 40.5169 19.9618C40.2536 19.9843 39.9197 20 39.5 20C39.0803 20 38.7464 19.9843 38.4831 19.9618C37.9097 19.9127 37.5372 19.4743 37.5152 18.8993C37.5061 18.6613 37.5 18.3655 37.5 18C37.5 17.6345 37.5061 17.3387 37.5152 17.1007Z"/></svg>