<!-- Copyright © Ewsgit 2022. -->
<!-- Licensed under the MIT License - https://ewsgit.github.io/devdash/copyright -->

<svg width="48" height="48" viewBox="0 0 48 48" fill="none" xmlns="http://www.w3.org/2000/svg">
<path d="M7.60445 20.4037C6.42403 20.1541 5.35439 19.5065 4.90478 18.3869C4.45319 17.2624 4 15.5088 4 13C4 11.8315 4.09831 10.8268 4.24898 9.97323C4.73941 7.1949 7.21342 5.52331 9.98358 4.98866C12.2215 4.55672 15.2216 4.12761 18.6451 4.02371C19.6643 3.99278 20.6497 4.3477 21.0234 5.29642C21.4974 6.49989 22 8.77266 22 13C22 17.2273 21.4974 19.5001 21.0234 20.7036C20.6497 21.6523 19.6653 22.0095 18.6467 21.9622C14.5798 21.7733 10.0502 20.9209 7.60445 20.4037Z" fill="#ACB4C9"/>
<path fill-rule="evenodd" clip-rule="evenodd" d="M15.5136 21.7074C15.3162 20.3409 15.0762 17.7105 15.0762 12.9996C15.0762 8.19296 15.3261 5.55229 15.5256 4.21003C16.5154 4.12194 17.5586 4.05628 18.6443 4.02333C19.6635 3.9924 20.6489 4.34732 21.0226 5.29604C21.4966 6.49951 21.9992 8.77228 21.9992 12.9996C21.9992 17.227 21.4966 19.4997 21.0226 20.7032C20.6489 21.6519 19.6645 22.0091 18.6459 21.9618C17.6177 21.914 16.5599 21.8239 15.5136 21.7074Z" fill="#576684"/>
<path d="M4 13H12V40C12 41.1046 11.1046 42 10 42H7.79008C6.77099 42 5.916 41.2364 5.8109 40.2227C5.31231 35.4139 3.99997 21.9104 4 13Z" fill="#ACB4C9"/>
<path d="M40.3955 20.4037C41.576 20.1541 42.6456 19.5065 43.0952 18.3869C43.5468 17.2624 44 15.5088 44 13C44 11.8315 43.9017 10.8268 43.751 9.97323C43.2606 7.1949 40.7866 5.52331 38.0164 4.98866C35.7785 4.55672 32.7784 4.12761 29.3549 4.02371C28.3357 3.99278 27.3503 4.3477 26.9766 5.29642C26.5026 6.49989 26 8.77266 26 13C26 17.2273 26.5026 19.5001 26.9766 20.7036C27.3503 21.6523 28.3347 22.0095 29.3533 21.9622C33.4202 21.7733 37.9498 20.9209 40.3955 20.4037Z" fill="#ACB4C9"/>
<path fill-rule="evenodd" clip-rule="evenodd" d="M32.4864 21.7074C32.6838 20.3409 32.9238 17.7105 32.9238 12.9996C32.9238 8.19296 32.6739 5.55229 32.4744 4.21003C31.4846 4.12194 30.4414 4.05628 29.3557 4.02333C28.3365 3.9924 27.3511 4.34732 26.9774 5.29604C26.5034 6.49951 26.0008 8.77228 26.0008 12.9996C26.0008 17.227 26.5034 19.4997 26.9774 20.7032C27.3511 21.6519 28.3355 22.0091 29.3541 21.9618C30.3823 21.914 31.4401 21.8239 32.4864 21.7074Z" fill="#576684"/>
<path d="M44 13H36V40C36 41.1046 36.8954 42 38 42H40.2099C41.229 42 42.084 41.2364 42.1891 40.2227C42.6877 35.4139 44 21.9104 44 13Z" fill="#ACB4C9"/>
</svg>