<!-- Copyright © Ewsgit 2022. -->
<!-- Licensed under the MIT License - https://ewsgit.github.io/devdash/copyright -->

<svg width="49" height="48" viewBox="0 0 49 48" fill="none" xmlns="http://www.w3.org/2000/svg">
<path d="M4.5 35.625C4.5 38.1237 7.05329 39.7138 9.55055 39.7973C12.5517 39.8977 17.3624 40 24.5 40C31.6376 40 36.4483 39.8977 39.4495 39.7973C41.9467 39.7138 44.5 38.1237 44.5 35.625C44.5 35.4898 44.4899 35.3587 44.4718 35.2324C44.2794 33.8926 42.8141 33.3306 41.462 33.2685C38.9528 33.1532 33.8576 33 24.5 33C15.1424 33 10.0472 33.1532 7.53805 33.2685C6.18587 33.3306 4.72065 33.8926 4.52824 35.2324C4.51011 35.3587 4.5 35.4898 4.5 35.625Z" fill="#576684"/>
<path fill-rule="evenodd" clip-rule="evenodd" d="M41.2743 25.1959C42.7636 25.2465 44.2861 25.8543 44.4618 27.3342C44.486 27.538 44.4998 27.7596 44.4998 28C44.4998 28.2404 44.486 28.462 44.4618 28.6658C44.4306 28.9281 44.3572 29.1629 44.2492 29.3721C45.194 30.3782 45.579 31.8115 44.8858 33.1008C44.7689 33.3181 44.6309 33.5289 44.468 33.7275C43.942 34.369 43.0329 34.4226 42.2178 34.2681C40.8749 34.0137 38.7684 33.7971 37.4548 34.5648C34.1808 36.4784 30.7873 36.4784 27.5133 34.5648C25.4645 33.3673 23.5351 33.3673 21.4862 34.5648C18.2122 36.4784 14.8187 36.4784 11.5447 34.5648C10.2311 33.7971 8.12454 34.0137 6.78168 34.2682C5.96665 34.4226 5.05757 34.369 4.53157 33.7276C4.36861 33.5289 4.23046 33.318 4.11356 33.1006C3.43058 31.8302 3.79442 30.4201 4.70901 29.4167C4.6503 29.2826 4.60621 29.1373 4.57886 28.98C4.52965 28.6971 4.49975 28.3721 4.49975 28C4.49975 27.6279 4.52965 27.3029 4.57886 27.02C4.80091 25.7432 6.12587 25.2532 7.42095 25.2065C9.86113 25.1185 14.9238 25 24.4998 25C33.6942 25 38.7278 25.1092 41.2743 25.1959Z" fill="#ACB4C9"/>
<path d="M4.5 20.5C4.5 13.6509 9.97013 8.3744 16.8148 8.12848C19.0044 8.04982 21.554 8 24.5 8C27.446 8 29.9956 8.04982 32.1852 8.12848C39.0299 8.3744 44.5 13.6509 44.5 20.5C44.5 21.7712 44.3906 22.9132 44.2459 23.8674C43.955 25.7856 42.4269 27.1347 40.4987 27.3491C37.7335 27.6565 32.789 28 24.5 28C16.211 28 11.2665 27.6565 8.50132 27.3491C6.57314 27.1347 5.04498 25.7856 4.75414 23.8674C4.60945 22.9132 4.5 21.7712 4.5 20.5Z" fill="#576684"/>
<circle cx="38" cy="17.5" r="2.5" fill="#ACB4C9"/>
<circle cx="28.5" cy="14" r="2" fill="#ACB4C9"/>
<circle cx="31" cy="20.5" r="1.5" fill="#ACB4C9"/>
</svg>