<!-- Copyright © Ewsgit 2022. -->
<!-- Licensed under the MIT License - https://ewsgit.github.io/devdash/copyright -->

<svg width="49" height="48" viewBox="0 0 49 48" fill="none" xmlns="http://www.w3.org/2000/svg">
<path d="M3.5 24C3.5 35.598 12.902 45 24.5 45C36.098 45 45.5 35.598 45.5 24C45.5 12.402 36.098 3 24.5 3C12.902 3 3.5 12.402 3.5 24Z" fill="#ACB4C9"/>
<path d="M12.5 18C12.5 15.1324 14.3351 13.0219 17.2027 13.0011C17.2998 13.0004 17.3989 13 17.5 13C17.6011 13 17.7002 13.0004 17.7973 13.0011C20.6649 13.0219 22.5 15.1324 22.5 18C22.5 20.8676 20.6649 22.9781 17.7973 22.9989C17.7002 22.9996 17.6011 23 17.5 23C17.3989 23 17.2998 22.9996 17.2027 22.9989C14.3351 22.9781 12.5 20.8676 12.5 18Z" fill="#576684"/>
<path d="M18.5 34C18.5 31.7059 19.9681 30.0176 22.2621 30.0009C22.3398 30.0003 22.4191 30 22.5 30C22.5809 30 22.6602 30.0003 22.7379 30.0009C25.0319 30.0176 26.5 31.7059 26.5 34C26.5 36.2941 25.0319 37.9824 22.7379 37.9991C22.6602 37.9997 22.5809 38 22.5 38C22.4191 38 22.3398 37.9997 22.2621 37.9991C19.9681 37.9824 18.5 36.2941 18.5 34Z" fill="#576684"/>
<path d="M32.5 23C32.5 21.2795 33.6011 20.0132 35.3216 20.0006C35.3799 20.0002 35.4393 20 35.5 20C35.5607 20 35.6201 20.0002 35.6784 20.0006C37.3989 20.0132 38.5 21.2795 38.5 23C38.5 24.7206 37.3989 25.9868 35.6784 25.9994C35.6201 25.9998 35.5607 26 35.5 26C35.4393 26 35.3799 25.9998 35.3216 25.9994C33.6011 25.9868 32.5 24.7205 32.5 23Z" fill="#576684"/>
</svg>