<!-- Copyright © Ewsgit 2022. -->
<!-- Licensed under the MIT License - https://ewsgit.github.io/devdash/copyright -->

<svg width="48" height="48" viewBox="0 0 48 48" fill="none" xmlns="http://www.w3.org/2000/svg">
<path d="M7.1753 5.89276C7.07533 4.8327 7.82601 3.88748 8.88458 3.77284C11.6091 3.47777 17.0879 3 24 3C30.9121 3 36.3909 3.47777 39.1154 3.77284C40.174 3.88748 40.9247 4.8327 40.8247 5.89275C39.4305 20.6762 37.6287 33.6216 36.6699 40.0783C36.2837 42.6787 34.2231 44.6615 31.5982 44.8069C29.6875 44.9127 27.1548 45 24 45C20.8452 45 18.3125 44.9127 16.4018 44.8069C13.7769 44.6615 11.7163 42.6787 11.3301 40.0783C10.3713 33.6216 8.56954 20.6762 7.1753 5.89276Z" fill="#ACB4C9"/>
<path fill-rule="evenodd" clip-rule="evenodd" d="M35.1656 16.4819C35.7197 16.5292 36.1239 17.0236 36.0658 17.5766C35.1336 26.4521 34.147 33.7892 33.6019 37.6354C33.3558 39.3717 31.9915 40.7041 30.2415 40.8171C28.7384 40.9142 26.6581 41 24.0005 41C21.343 41 19.2627 40.9142 17.7596 40.8171C16.0095 40.7041 14.6452 39.3717 14.3992 37.6354C13.8541 33.7892 12.8675 26.4521 11.9352 17.5767C11.8772 17.0236 12.2813 16.5292 12.8354 16.4819C15.6937 16.2381 19.6091 16 24.0007 16C28.3921 16 32.3074 16.2381 35.1656 16.4819Z" fill="#576684"/>
</svg>