<!-- Copyright © Ewsgit 2022. -->
<!-- Licensed under the MIT License - https://ewsgit.github.io/devdash/copyright -->

<svg width="48" height="48" viewBox="0 0 48 48" fill="none" xmlns="http://www.w3.org/2000/svg">
<path fill-rule="evenodd" clip-rule="evenodd" d="M14.2484 3.15533C14.7841 3.28649 15.0271 3.81297 15.0165 4.36443L14.8167 14.7185C14.8086 15.1351 15.093 15.5153 15.5346 15.5965C15.7235 15.6312 15.9213 15.6571 16.0911 15.6571C16.2381 15.6571 16.3852 15.6377 16.5203 15.6099C16.9012 15.5316 17.1211 15.1906 17.1211 14.8294L16.8842 4.40094C16.8711 3.82821 17.1084 3.2476 17.6633 3.10501C18.2275 2.96002 18.9141 2.96517 19.4696 3.12047C19.9995 3.26859 20.2906 3.77678 20.4211 4.31122C20.9062 6.29755 22.0607 11.6989 21.9975 17.8954C21.9708 20.5124 20.223 22.8578 17.4747 23.4738C17.2021 23.5349 16.9206 23.5931 16.6316 23.6469C16.0985 23.7463 15.7193 24.2343 15.7815 24.773L17.5136 39.7849C17.7942 42.2162 16.2878 44.6013 13.8625 44.9299C13.5381 44.9738 13.2428 45 13 45C12.7572 45 12.4619 44.9738 12.1375 44.9299C9.71222 44.6013 8.20582 42.2162 8.48636 39.7849L10.2185 24.773C10.2807 24.2342 9.90155 23.7462 9.3684 23.6469C9.07949 23.593 8.79814 23.5349 8.52561 23.4738C5.77718 22.8578 4.02915 20.5123 4.00249 17.8951C3.93937 11.6992 5.09362 6.2984 5.5788 4.3117C5.70939 3.77696 6.00075 3.26852 6.53091 3.12041C7.08641 2.96521 7.77286 2.96007 8.33704 3.10498C8.89212 3.24756 9.12956 3.82837 9.11653 4.40133L8.87937 14.8293C8.87937 15.1905 9.09942 15.5315 9.48045 15.6099C9.61558 15.6376 9.76268 15.6571 9.90975 15.6571C10.0795 15.6571 10.2772 15.6312 10.466 15.5965C10.9076 15.5153 11.1919 15.1352 11.1839 14.7186L10.9841 4.36442C10.9735 3.81297 11.2165 3.28649 11.7523 3.15533C12.0573 3.08065 12.4655 3.02354 13.0003 3.02354C13.5352 3.02354 13.9433 3.08064 14.2484 3.15533Z" fill="#ACB4C9"/>
<path fill-rule="evenodd" clip-rule="evenodd" d="M26.599 16.1966C26.7761 12.4009 27.6019 9.36912 28.4637 7.17347C29.5561 4.39009 32.4129 3 35.403 3C38.0951 3 40.6588 4.24832 41.7243 6.72061C42.6595 8.89063 43.6318 11.9788 43.9683 15.9028C44.2832 19.5745 42.1857 23.0228 38.8121 24.0834C38.3066 24.2424 37.9423 24.7175 38.003 25.244L39.6808 39.7849C39.9614 42.2162 38.455 44.6013 36.0296 44.9299C35.7053 44.9738 35.41 45 35.1672 45C34.9243 45 34.6291 44.9738 34.3047 44.9299C31.8794 44.6013 30.373 42.2162 30.6535 39.7849L32.3449 25.1267C32.4038 24.6156 32.0616 24.1503 31.5764 23.979C28.4318 22.8689 26.437 19.6704 26.599 16.1966Z" fill="#ACB4C9"/>
</svg>