<!-- Copyright © Ewsgit 2022. -->
<!-- Licensed under the MIT License - https://ewsgit.github.io/devdash/copyright -->

<svg width="49" height="48" viewBox="0 0 49 48" fill="none" xmlns="http://www.w3.org/2000/svg">
<path fill-rule="evenodd" clip-rule="evenodd" d="M24.5018 14.9741C23.7921 14.8269 23.5 14.0339 23.5 13.3091C23.5 8.16782 26.6678 4 31.8091 4C32.5396 4 33.2372 4.32645 33.3877 5.04131C33.4536 5.35449 33.5 5.74953 33.5 6.24091C33.5 6.7323 33.4536 7.12734 33.3877 7.44052C33.2372 8.15538 32.5396 8.48183 31.8091 8.48183C29.1431 8.48183 25.9818 10.6431 25.9818 13.3091C25.9818 14.0339 25.6898 14.8269 24.9801 14.9741C24.9009 14.9906 24.8207 15 24.7409 15C24.6611 15 24.5809 14.9906 24.5018 14.9741Z" fill="#576684"/>
<path fill-rule="evenodd" clip-rule="evenodd" d="M24.5 42.3881C22.4061 43.4115 20.0506 44 17.5 44C10.8726 44 4.5 36 4.5 26.1176C4.5 16.2353 10.8726 12 17.5 12C19.6061 12 22.0905 12.5333 24.5 13.5447C26.9095 12.5333 29.3939 12 31.5 12C38.1274 12 44.5 16.2353 44.5 26.1176C44.5 36 38.1274 44 31.5 44C28.9494 44 26.5939 43.4115 24.5 42.3881Z" fill="#ACB4C9"/>
<path d="M17.5 3.88889C17.5 3.39797 17.898 3 18.3889 3C22.3162 3 25.5 6.18375 25.5 10.1111C25.5 10.602 25.102 11 24.6111 11C20.6838 11 17.5 7.81625 17.5 3.88889Z" fill="#576684"/>
</svg>