<!-- Copyright © Ewsgit 2022. -->
<!-- Licensed under the MIT License - https://ewsgit.github.io/devdash/copyright -->

<svg xmlns="http://www.w3.org/2000/svg" width="49" height="48" fill="none" viewBox="0 0 49 48"><path fill="#ACB4C9" d="M28.5 5C28.5 9.1091 31.7236 12.477 35.6179 12.9427C36.6983 13.0719 37.6768 13.8167 38.1818 14.7805C39.1844 16.6943 41.1897 18 43.5 18C43.7306 18 43.9581 17.987 44.1819 17.9617C45.5123 17.8112 47.0559 18.3802 47.2548 19.7043C47.4163 20.7794 47.5 21.8799 47.5 23C47.5 35.1503 37.6503 45 25.5 45C13.3497 45 3.5 35.1503 3.5 23C3.5 10.8497 13.3497 1 25.5 1C25.9001 1 26.2977 1.01068 26.6926 1.03178C28.0371 1.1036 28.754 2.58025 28.573 3.91439C28.5249 4.26939 28.5 4.63179 28.5 5Z"/><path fill="#576684" d="M16.5 34C16.5 36.2091 18.2909 38 20.5 38C22.7091 38 24.5 36.2091 24.5 34C24.5 31.7909 22.7091 30 20.5 30C18.2909 30 16.5 31.7909 16.5 34Z"/><path fill="#576684" d="M31.5 27C31.5 28.6569 32.8431 30 34.5 30C36.1569 30 37.5 28.6569 37.5 27C37.5 25.3431 36.1569 24 34.5 24C32.8431 24 31.5 25.3431 31.5 27Z"/><path fill="#576684" d="M13.5 17C13.5 19.7614 15.7386 22 18.5 22C21.2614 22 23.5 19.7614 23.5 17C23.5 14.2386 21.2614 12 18.5 12C15.7386 12 13.5 14.2386 13.5 17Z"/></svg>