<!-- Copyright © Ewsgit 2022. -->
<!-- Licensed under the MIT License - https://ewsgit.github.io/devdash/copyright -->

<svg xmlns="http://www.w3.org/2000/svg" width="48" height="48" fill="none" viewBox="0 0 48 48"><path fill="#ACB4C9" d="M42.7781 25.7343C44.8372 22.3851 45.5071 18.2358 44.6115 14.3778C42.698 5.58976 32.1021 1.99874 25.5019 7.88798C24.9792 8.35128 24.5144 8.88541 24 9.41799C23.4857 8.88542 23.0208 8.35128 22.4981 7.88798C15.8979 1.99874 5.30199 5.58976 3.3885 14.3778C2.49291 18.2358 3.16279 22.3851 5.2219 25.7343C8.8597 31.6606 14.747 36.2627 20.466 40.4366C22.5684 41.9709 25.4316 41.9709 27.534 40.4366C33.2531 36.2627 39.1403 31.6606 42.7781 25.7343Z"/><path fill="#576684" fill-rule="evenodd" d="M22.2443 32.8726C21.5716 32.7625 21.1548 32.1813 21.1232 31.5004C21.0837 30.6476 21.0372 29.2232 21.0142 26.9858C18.7767 26.9628 17.3524 26.9163 16.4996 26.8768C15.8187 26.8452 15.2375 26.4284 15.1274 25.7557C15.0565 25.3217 15 24.743 15 24C15 23.257 15.0565 22.6783 15.1274 22.2443C15.2375 21.5716 15.8187 21.1548 16.4996 21.1232C17.3524 21.0837 18.7768 21.0372 21.0142 21.0142C21.0372 18.7768 21.0837 17.3524 21.1232 16.4996C21.1548 15.8187 21.5716 15.2375 22.2443 15.1274C22.6783 15.0565 23.257 15 24 15C24.743 15 25.3217 15.0565 25.7557 15.1274C26.4284 15.2375 26.8452 15.8187 26.8768 16.4996C26.9163 17.3524 26.9628 18.7768 26.9858 21.0142C29.2232 21.0372 30.6476 21.0837 31.5004 21.1232C32.1813 21.1548 32.7625 21.5716 32.8726 22.2443C32.9435 22.6783 33 23.257 33 24C33 24.743 32.9435 25.3217 32.8726 25.7557C32.7625 26.4284 32.1813 26.8452 31.5004 26.8768C30.6476 26.9163 29.2233 26.9628 26.9858 26.9858C26.9628 29.2232 26.9163 30.6476 26.8768 31.5004C26.8452 32.1813 26.4284 32.7625 25.7557 32.8726C25.3217 32.9435 24.743 33 24 33C23.257 33 22.6783 32.9435 22.2443 32.8726Z" clip-rule="evenodd"/></svg>