<!-- Copyright © Ewsgit 2022. -->
<!-- Licensed under the MIT License - https://ewsgit.github.io/devdash/copyright -->

<svg width="48" height="48" viewBox="0 0 48 48" fill="none" xmlns="http://www.w3.org/2000/svg">
<path fill-rule="evenodd" clip-rule="evenodd" d="M19.0224 12.8569C18.7351 11.774 19.2167 10.7932 20.2974 10.498C20.334 10.488 20.3714 10.4779 20.4096 10.4678C20.4478 10.4577 20.4852 10.4479 20.522 10.4384C21.607 10.159 22.5114 10.7721 22.7987 11.855C22.9875 12.5666 22.8443 13.234 22.4173 13.6919C22.2681 13.8519 22.18 14.0589 22.2461 14.2675C22.3215 14.5049 22.565 14.6652 22.8123 14.6347C24.4575 14.4319 26.0801 14.6877 27.5316 15.3159C27.7838 15.4251 28.0922 15.3274 28.2413 15.0966C28.3698 14.8977 28.3352 14.658 28.2288 14.4464C27.9529 13.8971 27.9954 13.2273 28.3591 12.6011C28.9216 11.6322 29.9557 11.2792 30.9286 11.8347C30.9616 11.8535 30.9952 11.8728 31.0293 11.8926C31.0635 11.9125 31.0969 11.932 31.1296 11.9513C32.0943 12.5209 32.3003 13.594 31.7378 14.5629C31.3802 15.1787 30.8322 15.5457 30.2305 15.5888C29.9762 15.607 29.7333 15.7015 29.6158 15.9278C29.4846 16.1806 29.5463 16.5089 29.765 16.6914C30.904 17.6423 31.8206 18.8781 32.3927 20.328C32.5162 20.6409 32.8785 20.8241 33.2079 20.7556C33.4971 20.6954 33.6631 20.4516 33.7666 20.1749C33.9737 19.6212 34.4665 19.2016 35.1422 19.0223C36.2251 18.735 37.206 19.2166 37.5012 20.2973C37.5112 20.334 37.5212 20.3713 37.5314 20.4095C37.5415 20.4477 37.5513 20.4852 37.5607 20.5219C37.8402 21.6069 37.227 22.5113 36.1442 22.7986C35.4863 22.9732 34.866 22.864 34.4143 22.509C34.1604 22.3094 33.8712 22.166 33.5639 22.2654C33.2323 22.3728 32.9885 22.7137 33.0127 23.0615C33.1103 24.4627 32.879 25.8368 32.3727 27.0911C32.2198 27.47 32.3824 27.9407 32.7244 28.1642C33.0267 28.3619 33.3755 28.286 33.7136 28.1586C34.2298 27.9642 34.8317 28.0304 35.3981 28.3593C36.367 28.9218 36.72 29.9559 36.1645 30.9289C36.1457 30.9618 36.1264 30.9954 36.1066 31.0295C36.0867 31.0637 36.0672 31.0971 36.0479 31.1298C35.4783 32.0946 34.4052 32.3006 33.4363 31.738C32.8822 31.4163 32.5295 30.9403 32.433 30.4098C32.3645 30.0333 32.2525 29.6714 31.9119 29.4969C31.5412 29.3069 31.0413 29.3878 30.7667 29.701C29.9455 30.6379 28.9262 31.414 27.7508 31.9572C27.3505 32.1422 27.1224 32.6306 27.2131 33.0622C27.2947 33.4508 27.6268 33.6584 27.9824 33.8352C28.4578 34.0715 28.8154 34.5324 28.9772 35.1424C29.2646 36.2253 28.783 37.2061 27.7022 37.5013L27.6366 37.519L27.59 37.5315C27.5519 37.5416 27.5144 37.5514 27.4777 37.5609C26.3927 37.8403 25.4882 37.2272 25.2009 36.1443C25.0392 35.5346 25.1211 34.9572 25.4166 34.5164C25.6377 34.1865 25.8231 33.8416 25.7013 33.4636C25.566 33.0437 25.1257 32.7324 24.6862 32.7702C23.3963 32.8811 22.1267 32.7124 20.9492 32.306C20.5554 32.17 20.081 32.3477 19.8532 32.6965C19.644 33.0169 19.7261 33.3868 19.8532 33.7477C20.0323 34.2563 19.9619 34.8444 19.6402 35.3984C19.0776 36.3673 18.0436 36.7203 17.0706 36.1648C17.0376 36.146 17.0041 36.1267 16.9699 36.1068C16.9358 36.087 16.9024 36.0674 16.8697 36.0481C15.9049 35.4785 15.6989 34.4055 16.2615 33.4366C16.5904 32.8701 17.0804 32.5142 17.6252 32.4272C17.9819 32.3703 18.3225 32.2633 18.4871 31.9418C18.6733 31.5781 18.5812 31.0888 18.2606 30.8356C17.2107 30.0065 16.3363 28.9423 15.7272 27.695C15.5697 27.3725 15.1852 27.1919 14.8344 27.2679C14.5182 27.3363 14.3301 27.6038 14.2019 27.9008C13.9793 28.4168 13.5012 28.8062 12.8569 28.9771C11.774 29.2644 10.7932 28.7829 10.498 27.7021C10.488 27.6655 10.4779 27.6281 10.4678 27.5899C10.4577 27.5518 10.4479 27.5143 10.4384 27.4775C10.159 26.3926 10.7721 25.4881 11.855 25.2008C12.5174 25.0251 13.1416 25.137 13.5941 25.4978C13.825 25.6819 14.0959 25.8071 14.3775 25.7182C14.7072 25.614 14.9314 25.2692 14.8838 24.9267C14.6719 23.3991 14.8568 21.8876 15.3696 20.5105C15.469 20.2436 15.3599 19.9279 15.1206 19.7734C14.9064 19.6351 14.6486 19.6735 14.4187 19.7838C13.8747 20.0449 13.2166 19.9979 12.6007 19.6403C11.6318 19.0777 11.2788 18.0436 11.8343 17.0707C11.8531 17.0377 11.8724 17.0041 11.8922 16.97C11.9121 16.9358 11.9316 16.9024 11.9509 16.8697C12.5205 15.905 13.5936 15.699 14.5625 16.2615C15.1886 16.625 15.5575 17.1854 15.5903 17.799C15.603 18.0355 15.6918 18.261 15.9021 18.3701C16.1461 18.4967 16.4625 18.4286 16.6276 18.2086C17.5766 16.9438 18.8587 15.9175 20.3878 15.278C20.6178 15.1818 20.7499 14.9218 20.6976 14.6781C20.6517 14.4642 20.4725 14.328 20.2636 14.2629C19.6661 14.0768 19.2111 13.5682 19.0224 12.8569Z" fill="#ACB4C9"/>
<path fill-rule="evenodd" clip-rule="evenodd" d="M3 24C3 35.598 12.402 45 24 45C35.598 45 45 35.598 45 24C45 12.402 35.598 3 24 3C12.402 3 3 12.402 3 24ZM8 24C8 32.8366 15.1634 40 24 40C27.6687 40 31.0489 38.7653 33.7479 36.6887C30.8057 33.7962 25.5349 28.606 22.3223 25.3934C19.2117 22.2827 14.247 17.2424 11.3092 14.2548C9.23389 16.9533 8 20.3326 8 24ZM14.7904 10.9147C17.3946 9.07846 20.5713 8 24 8C32.8366 8 40 15.1634 40 24C40 27.4299 38.9208 30.6077 37.0833 33.2124C34.1778 30.2571 29.0448 25.0448 25.8579 21.8579C22.7718 18.7718 17.7864 13.8608 14.7904 10.9147Z" fill="#576684"/>
</svg>