<!-- Copyright © Ewsgit 2022. -->
<!-- Licensed under the MIT License - https://ewsgit.github.io/devdash/copyright -->

<svg width="48" height="48" viewBox="0 0 48 48" fill="none" xmlns="http://www.w3.org/2000/svg">
<path d="M42.7781 26.7343C44.8372 23.3851 45.5071 19.2358 44.6115 15.3778C42.698 6.58976 32.1021 2.99874 25.5019 8.88798C24.9792 9.35128 24.5144 9.88541 24 10.418C23.4857 9.88542 23.0208 9.35128 22.4981 8.88798C15.8979 2.99874 5.30199 6.58976 3.3885 15.3778C2.49291 19.2358 3.16279 23.3851 5.2219 26.7343C8.8597 32.6606 14.747 37.2627 20.466 41.4366C22.5684 42.9709 25.4316 42.9709 27.534 41.4366C33.2531 37.2627 39.1403 32.6606 42.7781 26.7343Z" fill="#ACB4C9"/>
<path fill-rule="evenodd" clip-rule="evenodd" d="M5.08074 26.5H13.9999C14.6837 26.5 15.3201 26.1506 15.6872 25.5738L17.3612 22.9432L22.2413 31.9526C22.6059 32.6256 23.3226 33.0316 24.0874 32.9981C24.8521 32.9646 25.5306 32.4976 25.835 31.7952L30.575 20.8567L32.6902 25.3516C33.0201 26.0526 33.7252 26.5 34.4999 26.5H42.919C43.6533 25.2535 44.1988 23.902 44.5466 22.5H35.7691L32.3095 15.1484C31.9749 14.4373 31.2548 13.9881 30.4689 14.0002C29.6831 14.0124 28.9773 14.4837 28.6648 15.2048L23.7998 26.4315L19.2585 18.0474C18.9209 17.4242 18.2786 17.0261 17.5702 17.0012C16.8618 16.9763 16.1931 17.3282 15.8126 17.9263L12.902 22.5H3.45312C3.80095 23.902 4.34642 25.2535 5.08074 26.5Z" fill="#576684"/>
</svg>