<!-- Copyright © Ewsgit 2022. -->
<!-- Licensed under the MIT License - https://ewsgit.github.io/devdash/copyright -->

<svg width="48" height="48" viewBox="0 0 48 48" fill="none" xmlns="http://www.w3.org/2000/svg">
<path fill-rule="evenodd" clip-rule="evenodd" d="M26.9876 4.72401C30.9839 6.71432 34.0695 9.03109 36.2464 10.9652C37.5447 12.1187 38.523 13.1389 39.182 13.8778C39.5116 14.2473 39.7618 14.5469 39.9324 14.7581C40.0178 14.8637 40.0833 14.9473 40.129 15.0065C40.1518 15.0361 40.1697 15.0596 40.1827 15.0767L40.1984 15.0977L40.2034 15.1045L40.2053 15.1069L40.206 15.1079C40.2063 15.1084 40.2066 15.1088 39.0001 16L37.7936 16.8912L37.7882 16.8842C37.7817 16.8754 37.7703 16.8604 37.754 16.8394C37.7216 16.7974 37.6699 16.7314 37.599 16.6437C37.4572 16.4681 37.2386 16.2058 36.9432 15.8747C36.3522 15.2121 35.4555 14.2756 34.2538 13.2079C32.2508 11.4283 29.4095 9.29232 25.7317 7.45013C25.2425 7.79647 24.6451 8 24.0001 8C23.3551 8 22.7577 7.79647 22.2685 7.45013C18.5907 9.29232 15.7493 11.4283 13.7464 13.2079C12.5447 14.2756 11.648 15.2121 11.057 15.8747C10.7616 16.2058 10.543 16.4681 10.4012 16.6437C10.3303 16.7314 10.2786 16.7974 10.2462 16.8394C10.2299 16.8604 10.2185 16.8754 10.2119 16.8842L10.2066 16.8912L10.2061 16.8919C9.71379 17.5577 8.77502 17.6986 8.1089 17.2065C7.44254 16.7143 7.30135 15.7752 7.79355 15.1088L9.0001 16C7.79355 15.1088 7.79385 15.1084 7.79418 15.1079L7.79492 15.1069L7.79676 15.1045L7.80183 15.0976L7.81754 15.0767C7.83049 15.0596 7.84838 15.0361 7.87123 15.0065C7.91692 14.9473 7.98244 14.8637 8.06778 14.7581C8.23844 14.5469 8.48856 14.2473 8.81818 13.8777C9.47719 13.1389 10.4555 12.1187 11.7538 10.9652C13.9307 9.03109 17.0163 6.71431 21.0126 4.72401C21.1519 3.19652 22.4363 2 24.0001 2C25.5639 2 26.8483 3.19652 26.9876 4.72401ZM37.7941 16.8919C37.7938 16.8916 37.7936 16.8912 39.0001 16L40.2066 15.1088C40.6988 15.7752 40.5577 16.7144 39.8913 17.2065C39.2252 17.6986 38.2864 17.5577 37.7941 16.8919ZM37.7941 16.8919L37.7936 16.8912C37.7937 16.8914 37.7939 16.8917 37.7941 16.8919Z" fill="#576684"/>
<path d="M3.52256 18.4052C3.73406 16.6132 4.9936 15.2676 6.77501 14.9797C9.55921 14.5298 14.7927 14 24 14C33.2073 14 38.4408 14.5298 41.225 14.9797C43.0064 15.2676 44.2659 16.6132 44.4774 18.4052C44.7347 20.5852 45 24.2315 45 30C45 35.7685 44.7347 39.4148 44.4774 41.5948C44.2659 43.3868 43.0064 44.7324 41.225 45.0203C38.4408 45.4702 33.2073 46 24 46C14.7927 46 9.55921 45.4702 6.77501 45.0203C4.9936 44.7324 3.73406 43.3868 3.52256 41.5948C3.26527 39.4148 3 35.7685 3 30C3 24.2315 3.26527 20.5852 3.52256 18.4052Z" fill="#ACB4C9"/>
<path fill-rule="evenodd" clip-rule="evenodd" d="M44.6942 38.5181C44.6128 39.6924 44.5233 40.6519 44.4364 41.4256C44.2375 43.1971 43.0349 44.5653 41.2815 44.887C38.5117 45.3953 33.2699 45.9994 24.0005 45.9994C14.731 45.9994 9.48921 45.3953 6.71943 44.887C4.96606 44.5653 3.76337 43.1971 3.56448 41.4256C3.4663 40.5512 3.36478 39.4393 3.27539 38.0482C8.27595 33.2367 11.6429 30.7012 13.6549 29.3955C15.1031 28.4557 16.8604 28.6208 18.2001 29.7096C19.8791 31.0744 22.652 33.4964 26.9266 37.67C29.9724 34.974 32.1784 33.3537 33.6549 32.3955C35.1031 31.4557 36.8604 31.6208 38.2 32.7096C39.5667 33.8205 41.6581 35.6318 44.6942 38.5181Z" fill="#576684"/>
<circle cx="33" cy="24" r="3" fill="#576684"/>
</svg>