<!-- Copyright © Ewsgit 2022. -->
<!-- Licensed under the MIT License - https://ewsgit.github.io/devdash/copyright -->

<svg width="48" height="48" viewBox="0 0 48 48" fill="none" xmlns="http://www.w3.org/2000/svg">
<path fill-rule="evenodd" clip-rule="evenodd" d="M18.5033 29.1799C18.5662 28.6323 18.1761 28.1363 17.6293 28.0661C13.0338 27.4756 9.42884 26.8099 7.08394 26.3222C5.64551 26.023 5.09887 24.3402 6.07319 23.2406C9.76861 19.0698 17.9256 10.1796 26.5966 2.79397C27.9045 1.68001 29.8584 2.69046 29.7503 4.40501C29.3797 10.2824 28.9279 15.0764 28.4985 18.819C28.4356 19.3667 28.8257 19.8626 29.3725 19.9328C33.968 20.5234 37.573 21.189 39.9179 21.6767C41.3563 21.9759 41.9029 23.6587 40.9286 24.7584C37.2332 28.9292 29.0762 37.8194 20.4052 45.2049C19.0974 46.3189 17.1434 45.3085 17.2515 43.5939C17.6221 37.7165 18.0739 32.9225 18.5033 29.1799Z" fill="#ACB4C9"/>
</svg>