<!-- Copyright © Ewsgit 2022. -->
<!-- Licensed under the MIT License - https://ewsgit.github.io/devdash/copyright -->

<svg width="48" height="48" viewBox="0 0 48 48" fill="none" xmlns="http://www.w3.org/2000/svg">
<circle r="21" transform="matrix(-1 0 0 1 24 24)" fill="#ACB4C9"/>
<path fill-rule="evenodd" clip-rule="evenodd" d="M20.2323 27.6968C20.2938 27.149 19.904 26.6529 19.3575 26.5807C17.1886 26.2945 15.3772 25.985 13.9947 25.7194C12.5519 25.4423 12.0071 23.7654 12.9895 22.6729C15.4176 19.9729 19.6909 15.4079 24.3214 11.3237C25.6098 10.1873 27.5541 11.1809 27.4338 12.8947C27.2285 15.8201 26.9947 18.2855 26.7684 20.3022C26.7069 20.85 27.0967 21.3461 27.6432 21.4182C29.8121 21.7045 31.6235 22.014 33.006 22.2795C34.4488 22.5567 34.9937 24.2336 34.0112 25.326C31.5831 28.0261 27.3099 32.591 22.6793 36.6753C21.3909 37.8116 19.4466 36.818 19.5669 35.1043C19.7722 32.1789 20.006 29.7134 20.2323 27.6968Z" fill="#576684"/>
</svg>