<!-- Copyright © Ewsgit 2022. -->
<!-- Licensed under the MIT License - https://ewsgit.github.io/devdash/copyright -->

<svg xmlns="http://www.w3.org/2000/svg" width="48" height="48" fill="none" viewBox="0 0 48 48"><path fill="#ACB4C9" d="M29.6119 7.27953C29.5108 5.7781 28.6739 4.48578 27.1903 4.23369C26.3992 4.09926 25.3559 4 24 4C22.6441 4 21.6008 4.09926 20.8097 4.23369C19.3261 4.48578 18.4892 5.7781 18.3881 7.27953C18.2574 9.21847 18.1024 12.5671 18.0346 18.0346C12.5671 18.1024 9.21847 18.2574 7.27952 18.3881C5.7781 18.4892 4.48578 19.3261 4.23369 20.8097C4.09926 21.6008 4 22.6441 4 24C4 25.3559 4.09926 26.3992 4.23369 27.1903C4.48578 28.6739 5.7781 29.5108 7.27953 29.6119C9.21847 29.7426 12.5671 29.8976 18.0346 29.9654C18.1024 35.4329 18.2574 38.7815 18.3881 40.7205C18.4892 42.2219 19.3261 43.5142 20.8097 43.7663C21.6008 43.9007 22.6441 44 24 44C25.3559 44 26.3992 43.9007 27.1903 43.7663C28.6739 43.5142 29.5108 42.2219 29.6119 40.7205C29.7425 38.7815 29.8976 35.4329 29.9654 29.9654C35.4329 29.8976 38.7815 29.7426 40.7205 29.6119C42.2219 29.5108 43.5142 28.6739 43.7663 27.1903C43.9007 26.3992 44 25.3559 44 24C44 22.6441 43.9007 21.6008 43.7663 20.8097C43.5142 19.3261 42.2219 18.4892 40.7205 18.3881C38.7815 18.2574 35.4329 18.1024 29.9654 18.0346C29.8976 12.5671 29.7426 9.21847 29.6119 7.27953Z"/></svg>