<!-- Copyright © Ewsgit 2022. -->
<!-- Licensed under the MIT License - https://ewsgit.github.io/devdash/copyright -->

<svg width="48" height="48" viewBox="0 0 48 48" fill="none" xmlns="http://www.w3.org/2000/svg">
<path d="M36 19.6943C31.5817 19.6943 28 16.1126 28 11.6943C28 7.27606 31.5817 3.69434 36 3.69434C40.4183 3.69434 44 7.27606 44 11.6943C44 16.1126 40.4183 19.6943 36 19.6943Z" fill="#576684"/>
<path d="M12 19.6943C7.58172 19.6943 4 16.1126 4 11.6943C4 7.27606 7.58172 3.69434 12 3.69434C16.4183 3.69434 20 7.27606 20 11.6943C20 16.1126 16.4183 19.6943 12 19.6943Z" fill="#576684"/>
<path d="M37.3398 38.5296C40.834 35.0841 43 30.295 43 25C43 14.5066 34.4934 6 24 6C13.5066 6 5 14.5066 5 25C5 30.295 7.16595 35.0841 10.6602 38.5296C9.5148 41.6908 9 43.8916 9 43.8916C9 43.8916 9.08123 44.7617 10.3991 45.5194C11.7169 46.2771 12.5142 45.9121 12.5142 45.9121C12.5142 45.9121 13.9869 44.5391 15.9795 42.2292C18.4162 43.3654 21.134 44 24 44C26.866 44 29.5838 43.3654 32.0205 42.2292C34.0131 44.5391 35.4858 45.9121 35.4858 45.9121C35.4858 45.9121 36.2831 46.2771 37.6009 45.5194C38.9188 44.7617 39 43.8916 39 43.8916C39 43.8916 38.4852 41.6908 37.3398 38.5296Z" fill="#ACB4C9"/>
<path d="M35.4587 14.8208C35.1511 14.2033 34.4069 14 33.7121 14H26.6548C26.2073 14 25.8459 14.1282 25.5705 14.3845C25.3123 14.6249 25.1833 15.0254 25.1833 15.5862C25.1833 15.8525 25.2191 16.1114 25.2875 16.3621C25.4272 16.8735 25.9511 17.1484 26.4856 17.1484H30.3722L25.9319 22.0033C25.691 22.2757 25.4844 22.5721 25.3123 22.8925C25.1574 23.197 25.08 23.5094 25.08 23.8299C25.08 24.205 25.1635 24.5399 25.311 24.836C25.6187 25.4534 26.3634 25.6564 27.0581 25.6564H34.5285C34.976 25.6564 35.3288 25.5363 35.587 25.2959C35.8623 25.0396 36 24.631 36 24.0702C36 23.815 35.9616 23.552 35.8916 23.2961C35.7517 22.7848 35.2322 22.508 34.6976 22.508H30.5013L34.8383 17.6532C35.0792 17.3808 35.2772 17.0924 35.4321 16.7879C35.6042 16.4675 35.6902 16.147 35.6902 15.8266C35.6902 15.4556 35.6078 15.12 35.4587 14.8208Z" fill="#576684"/>
<path d="M21.565 24.5615C21.3393 24.189 20.8736 24.0704 20.4351 24.0704H15.1537C14.8258 24.0704 14.5611 24.1576 14.3593 24.332C14.1702 24.4955 14.0757 24.768 14.0757 25.1495C14.0757 25.3443 14.106 25.5333 14.1638 25.7158C14.267 26.0418 14.6065 26.2122 14.9512 26.2122H17.8771L14.6241 29.5149C14.4476 29.7002 14.2963 29.9018 14.1702 30.1198C14.0567 30.3269 14 30.5394 14 30.7574C14 31.0415 14.0758 31.2916 14.2077 31.5092C14.4336 31.8817 14.8994 32 15.3379 32H20.922C21.2498 32 21.5083 31.9183 21.6974 31.7548C21.8991 31.5804 22 31.3024 22 30.9209C22 30.7346 21.9676 30.542 21.9089 30.356C21.8061 30.0299 21.4691 29.8582 21.1244 29.8582H17.9716L21.1489 26.5556C21.3255 26.3703 21.4704 26.1741 21.5839 25.967C21.71 25.749 21.773 25.531 21.773 25.313C21.773 25.0325 21.6984 24.7816 21.565 24.5615Z" fill="#576684"/>
</svg>