<!-- Copyright © Ewsgit 2022. -->
<!-- Licensed under the MIT License - https://ewsgit.github.io/devdash/copyright -->

<svg width="48" height="48" viewBox="0 0 48 48" fill="none" xmlns="http://www.w3.org/2000/svg">
<path d="M42.9471 28.2098C43.2532 28.0743 43.5102 27.8523 43.6125 27.5336C43.7829 27.0024 44 25.9441 44 24C44 22.0559 43.7829 20.9976 43.6125 20.4664C43.5102 20.1477 43.2532 19.9257 42.9471 19.7902C41.6614 19.2215 37.931 17.6494 34.5882 17C34.5882 17 34 17.6 34 24C34 30.4 34.5882 31 34.5882 31C37.931 30.3506 41.6614 28.7785 42.9471 28.2098Z" fill="#576684"/>
<path d="M20.8646 41.7745C20.4786 43.3719 18.899 44.3289 17.3637 43.8957L13.0933 42.6907C11.365 42.2031 10.5 40.2015 11.3012 38.5437L15.4301 30L23 32.937L20.8646 41.7745Z" fill="#576684"/>
<path d="M7.21179 32.4803C5.87036 32.2945 4.7169 31.4482 4.46314 30.0823C4.22227 28.7857 4 26.8242 4 24C4 21.1758 4.22227 19.2143 4.46314 17.9177C4.7169 16.5518 5.87036 15.7055 7.21179 15.5197C12.2008 14.8285 24.8067 12.5886 33.7242 6.7432C35.9527 5.28235 38.7249 5.99869 39.1194 8.68415C39.5832 11.8413 40 16.7074 40 24C40 31.2926 39.5832 36.1587 39.1194 39.3158C38.7249 42.0013 35.9527 42.7176 33.7241 41.2568C24.8067 35.4114 12.2008 33.1715 7.21179 32.4803Z" fill="#ACB4C9"/>
<path d="M4.46314 30.0826C4.7169 31.4485 5.87036 32.2948 7.21179 32.4806C7.97601 32.5865 8.91896 32.7287 10 32.9147V15.0859C8.91896 15.2719 7.97601 15.4141 7.21179 15.52C5.87036 15.7058 4.7169 16.5521 4.46314 17.918C4.22227 19.2146 4 21.1761 4 24.0003C4 26.8245 4.22227 28.7861 4.46314 30.0826Z" fill="#576684"/>
</svg>