<!-- Copyright © Ewsgit 2022. -->
<!-- Licensed under the MIT License - https://ewsgit.github.io/devdash/copyright -->

<svg width="48" height="48" viewBox="0 0 48 48" fill="none" xmlns="http://www.w3.org/2000/svg">
<path d="M41.8839 25.8693C43.8449 22.6599 44.483 18.6837 43.63 14.9867C41.8077 6.56516 31.7163 3.12393 25.4304 8.76751C24.9326 9.21148 24.4899 9.72333 24 10.2337C23.5102 9.72334 23.0674 9.21148 22.5696 8.76751C16.2837 3.12393 6.19237 6.56516 4.37 14.9867C3.51705 18.6837 4.15503 22.6599 6.11609 25.8693C9.54764 31.4943 15.0809 35.8744 20.4785 39.8438C22.5747 41.3854 25.4253 41.3854 27.5215 39.8438C32.9191 35.8744 38.4523 31.4943 41.8839 25.8693Z" fill="#ACB4C9"/>
<path d="M42.8362 30.8828C43.9147 29.1249 44.2656 26.9471 43.7965 24.9221C42.7942 20.3095 37.244 18.4247 33.7867 21.5158C33.5129 21.759 33.2694 22.0393 33 22.3189C32.7306 22.0393 32.4871 21.759 32.2133 21.5158C28.7561 18.4247 23.2058 20.3095 22.2035 24.9221C21.7344 26.9471 22.0853 29.1249 23.1639 30.8828C24.9613 33.8169 27.8071 36.1325 30.6384 38.2244C32.038 39.2585 33.962 39.2585 35.3616 38.2244C38.1929 36.1325 41.0387 33.8168 42.8362 30.8828Z" fill="#576684"/>
</svg>