<!-- Copyright © Ewsgit 2022. -->
<!-- Licensed under the MIT License - https://ewsgit.github.io/devdash/copyright -->

<svg xmlns="http://www.w3.org/2000/svg" width="48" height="48" fill="none" viewBox="0 0 48 48"><path fill="#ACB4C9" d="M23.1046 44.9912C23.9547 44.9202 24.954 44.7844 25.9173 44.5283C27.9818 43.9795 29.0572 41.9276 29.1868 39.7865C29.3499 37.09 29.2511 34.3509 29.1167 32.3272C32.3239 32.6149 35.5054 32.8425 38.3692 32.9797C41.3928 33.1245 43.9221 30.8345 43.9837 27.7946C44.0851 22.7902 43.7685 15.1707 41.478 8.99908C40.5787 6.57602 38.1957 5.14621 35.6225 5.06213C23.58 4.66862 12 6.27296 12 6.27296V30.141C13.3444 30.3942 14.9027 30.6474 16.6047 30.8933C18.1271 35.1628 19.5668 40.1629 20.3347 42.9345C20.6845 44.1974 21.8041 45.0997 23.1046 44.9912Z"/><path fill="#576684" d="M4.14275 6.69989C4.16946 5.64365 4.76494 4.6844 5.78529 4.41013C6.59149 4.19342 7.68062 4 9 4C10.3194 4 11.4085 4.19342 12.2147 4.41013C13.2351 4.6844 13.8305 5.64365 13.8573 6.69989C13.9137 8.93057 14 13.138 14 18C14 22.862 13.9137 27.0694 13.8573 29.3001C13.8305 30.3563 13.2351 31.3156 12.2147 31.5899C11.4085 31.8066 10.3194 32 9 32C7.68062 32 6.5915 31.8066 5.78529 31.5899C4.76494 31.3156 4.16946 30.3563 4.14275 29.3001C4.08632 27.0694 4 22.862 4 18C4 13.138 4.08632 8.93057 4.14275 6.69989Z"/></svg>