<!-- Copyright © Ewsgit 2022. -->
<!-- Licensed under the MIT License - https://ewsgit.github.io/devdash/copyright -->

<svg width="48" height="48" viewBox="0 0 48 48" fill="none" xmlns="http://www.w3.org/2000/svg">
<path d="M3 24C3 12.402 12.402 3 24 3C35.598 3 45 12.402 45 24C45 35.598 35.598 45 24 45C12.402 45 3 35.598 3 24Z" fill="#ACB4C9"/>
<path d="M24.3593 23.3699C24.1623 23.1674 23.8377 23.1674 23.6407 23.3699C22.6504 24.3879 19.7545 27.3529 16.744 30.3249C16.0636 30.9966 15.0963 31.2565 14.3343 30.6877C14.0224 30.4549 13.669 30.1452 13.2897 29.7341C12.7734 29.1745 12.4281 28.6418 12.1985 28.1978C11.8226 27.4706 12.0143 26.6194 12.4909 25.9592C16.2209 20.7912 20.248 17.2668 22.4103 15.5623C23.3614 14.8126 24.6386 14.8126 25.5897 15.5623C27.752 17.2668 31.7791 20.7912 35.5091 25.9592C35.9857 26.6194 36.1774 27.4706 35.8015 28.1978C35.5719 28.6418 35.2266 29.1745 34.7103 29.7341C34.331 30.1452 33.9776 30.4549 33.6657 30.6877C32.9037 31.2565 31.9364 30.9966 31.2561 30.3249C28.2455 27.3529 25.3496 24.3879 24.3593 23.3699Z" fill="#576684"/>
</svg>