<!-- Copyright © Ewsgit 2022. -->
<!-- Licensed under the MIT License - https://ewsgit.github.io/devdash/copyright -->

<svg width="48" height="48" viewBox="0 0 48 48" fill="none" xmlns="http://www.w3.org/2000/svg">
<path d="M39.5075 18.133C40.9426 18.1642 42.0165 18.1964 42.7931 18.2241C43.8867 18.2631 44.8403 18.8483 44.9505 19.9371C44.981 20.2389 45 20.591 45 21C45 21.409 44.981 21.7611 44.9505 22.0629C44.8403 23.1517 43.8867 23.7369 42.7931 23.7759C40.2996 23.8648 34.7412 24 24 24C13.2588 24 7.70036 23.8648 5.20689 23.7759C4.11329 23.7369 3.15967 23.1517 3.04951 22.0629C3.01897 21.7611 3 21.409 3 21C3 20.591 3.01897 20.2389 3.04951 19.9371C3.15967 18.8483 4.11329 18.2631 5.20689 18.2241C5.98348 18.1964 7.05736 18.1642 8.49252 18.133C8.88037 15.5257 9.52078 11.9122 10.4947 8.29036C11.079 6.11749 12.9552 4.57914 15.1967 4.3838C17.4129 4.19068 20.4899 4 24 4C27.5101 4 30.5871 4.19068 32.8033 4.3838C35.0448 4.57914 36.921 6.11749 37.5053 8.29035C38.4792 11.9122 39.1196 15.5257 39.5075 18.133Z" fill="#576684"/>
<path d="M39.5072 18.133C36.3343 18.0641 31.3956 18 23.9997 18C16.6038 18 11.6651 18.0641 8.49219 18.133C8.66414 16.9771 8.88575 15.6233 9.16405 14.1588C12.348 14.0742 17.1066 14 23.9997 14C30.8927 14 35.6514 14.0742 38.8353 14.1588C39.1136 15.6233 39.3352 16.9771 39.5072 18.133Z" fill="#ACB4C9"/>
<path d="M22 34C22 38.4183 18.4183 42 14 42C9.58172 42 6 38.4183 6 34C6 29.5817 9.58172 26 14 26C17.1649 26 19.9005 27.8378 21.1979 30.5045C22.07 30.1783 23.0142 30 24 30C24.9858 30 25.93 30.1783 26.8021 30.5045C28.0995 27.8378 30.8351 26 34 26C38.4183 26 42 29.5817 42 34C42 38.4183 38.4183 42 34 42C29.5817 42 26 38.4183 26 34C26 33.9893 26 33.9785 26.0001 33.9678C25.3976 33.6684 24.7184 33.5 24 33.5C23.2816 33.5 22.6024 33.6684 21.9999 33.9678C22 33.9785 22 33.9893 22 34Z" fill="#576684"/>
<circle cx="14" cy="34" r="5" fill="#ACB4C9"/>
<circle cx="34" cy="34" r="5" transform="rotate(90 34 34)" fill="#ACB4C9"/>
</svg>