<!-- Copyright © Ewsgit 2022. -->
<!-- Licensed under the MIT License - https://ewsgit.github.io/devdash/copyright -->

<svg xmlns="http://www.w3.org/2000/svg" width="48" height="48" fill="none" viewBox="0 0 48 48"><path fill="#ACB4C9" d="M4.65388 8.57316C4.84496 6.92575 5.84441 5.56573 7.46374 5.20762C9.9896 4.64902 14.8855 4 24 4C33.1145 4 38.0104 4.64902 40.5363 5.20762C42.1556 5.56573 43.155 6.92575 43.3461 8.57316C43.6351 11.0644 44 15.1673 44 20C44 29.0284 39.2351 37.4764 31.2074 41.6079C28.5258 42.988 25.9087 44 24 44C22.0913 44 19.4742 42.988 16.7926 41.6079C8.76493 37.4764 4 29.0284 4 20C4 15.1673 4.36493 11.0644 4.65388 8.57316Z"/><path fill="#576684" fill-rule="evenodd" d="M18.2421 15.5076C18.379 12.4271 20.9164 10 24 10C27.0836 10 29.621 12.4271 29.7579 15.5076L29.8772 18.1936L30.0152 18.2053C31.6205 18.344 32.7535 19.4602 32.8753 21.0668C32.9469 22.0114 33 23.2888 33 25C33 26.7112 32.9469 27.9886 32.8753 28.9332C32.7535 30.5398 31.6205 31.656 30.0152 31.7947C28.7192 31.9067 26.7994 32 24 32C21.2006 32 19.2808 31.9067 17.9848 31.7947C16.3795 31.656 15.2465 30.5398 15.1247 28.9332C15.0531 27.9886 15 26.7112 15 25C15 23.4369 15.038 22.2358 15.0913 21.3196C15.1926 19.5805 16.3935 18.3458 18.1228 18.1918L18.2421 15.5076ZM25.7618 15.6852L25.8654 18.0151C25.2918 18.0054 24.6712 18 24 18C23.3295 18 22.7089 18.0054 22.1346 18.015L22.2382 15.6853C22.2801 14.7426 23.0565 14 24 14C24.9435 14 25.7199 14.7426 25.7618 15.6852ZM26 24C26 24.8178 25.5091 25.521 24.806 25.831L24.9468 27.083C24.9816 27.3923 24.931 27.7305 24.6515 27.8676C24.5002 27.9419 24.2893 28 24 28C23.7107 28 23.4998 27.9419 23.3485 27.8676C23.069 27.7305 23.0184 27.3923 23.0532 27.083L23.194 25.831C22.4909 25.521 22 24.8178 22 24C22 22.8954 22.8954 22 24 22C25.1046 22 26 22.8954 26 24Z" clip-rule="evenodd"/></svg>