<!-- Copyright © Ewsgit 2022. -->
<!-- Licensed under the MIT License - https://ewsgit.github.io/devdash/copyright -->

<svg xmlns="http://www.w3.org/2000/svg" width="48" height="48" fill="none" viewBox="0 0 48 48"><path fill="#ACB4C9" d="M21.2401 5.62562C22.428 3.45813 25.572 3.45813 26.7599 5.62562L31.8842 14.9759L42.4387 16.9427C44.8755 17.3968 45.8435 20.3354 44.1451 22.1231L36.757 29.8995L38.138 40.4907C38.4563 42.9314 35.9163 44.7517 33.6717 43.6914L24 39.1227L14.3283 43.6914C12.0837 44.7517 9.54371 42.9314 9.86198 40.4907L11.243 29.8995L3.85489 22.1231C2.15653 20.3354 3.12452 17.3968 5.56133 16.9427L16.1158 14.9759L21.2401 5.62562Z"/><path fill="#576684" d="M22.2555 18.0077C22.9888 16.6641 25.0112 16.6641 25.7445 18.0077L27.5404 21.2981L31.4128 22.0227C32.9093 22.3027 33.5143 24.0258 32.4944 25.1037L29.7284 28.027L30.2314 31.9003C30.4234 33.3788 28.806 34.4652 27.4035 33.8L24 32.1857L20.5965 33.8C19.194 34.4653 17.5766 33.3788 17.7686 31.9003L18.2716 28.027L15.5056 25.1037C14.4857 24.0258 15.0907 22.3027 16.5872 22.0227L20.4596 21.2981L22.2555 18.0077Z"/></svg>