<!-- Copyright © Ewsgit 2022. -->
<!-- Licensed under the MIT License - https://ewsgit.github.io/devdash/copyright -->

<svg width="48" height="48" viewBox="0 0 48 48" fill="none" xmlns="http://www.w3.org/2000/svg">
<path d="M44 24C44 35.0457 35.0457 44 24 44C12.9543 44 4 35.0457 4 24C4 12.9543 12.9543 4 24 4C35.0457 4 44 12.9543 44 24Z" fill="#576684"/>
<path d="M12.1132 12.4716C12.0589 11.7666 12.7336 11.2295 13.4085 11.4404L16 12.2502L17.5458 10.8977C17.8251 10.6532 18.2169 10.5836 18.5633 10.7169L21.25 11.7502L23.4631 10.3419C23.7907 10.1334 24.2093 10.1334 24.5369 10.3419L26.75 11.7502L29.4367 10.7169C29.7831 10.5836 30.1749 10.6532 30.4542 10.8977L32 12.2502L34.5915 11.4404C35.2664 11.2295 35.9411 11.7666 35.8868 12.4716L35.3094 19.9783C35.7566 21.2356 36 22.5895 36 24.0002C36 28.9194 33.0401 33.1473 28.8041 35C31.4426 36.1537 33.5861 38.229 34.8277 40.8189C31.7071 42.8318 27.9904 44 24.0008 44C20.0111 44 16.2944 42.8318 13.1738 40.8189C14.4153 38.2292 16.5585 36.1541 19.1967 35.0003C14.9603 33.1478 12 28.9197 12 24.0002C12 22.5895 12.2434 21.2356 12.6906 19.9783L12.1132 12.4716Z" fill="#ACB4C9"/>
<path fill-rule="evenodd" clip-rule="evenodd" d="M21 27C21.5523 27 22 27.4477 22 28C22 29.1046 22.8954 30 24 30C25.1046 30 26 29.1046 26 28C26 27.4477 26.4477 27 27 27C27.5523 27 28 27.4477 28 28C28 30.2091 26.2091 32 24 32C21.7909 32 20 30.2091 20 28C20 27.4477 20.4477 27 21 27Z" fill="#576684"/>
<path d="M20 21.5C20 22.3284 19.3284 23 18.5 23C17.6716 23 17 22.3284 17 21.5C17 20.6716 17.6716 20 18.5 20C19.3284 20 20 20.6716 20 21.5Z" fill="#576684"/>
<path d="M31 21.5C31 22.3284 30.3284 23 29.5 23C28.6716 23 28 22.3284 28 21.5C28 20.6716 28.6716 20 29.5 20C30.3284 20 31 20.6716 31 21.5Z" fill="#576684"/>
</svg>