<!-- Copyright © Ewsgit 2022. -->
<!-- Licensed under the MIT License - https://ewsgit.github.io/devdash/copyright -->

<svg width="48" height="48" viewBox="0 0 48 48" fill="none" xmlns="http://www.w3.org/2000/svg">
<path d="M4.52758 12.5257C4.7157 10.7823 5.89653 9.43803 7.61934 9.11162C10.3011 8.60351 15.3145 8 24 8C32.6855 8 37.6989 8.6035 40.3807 9.11161C42.1035 9.43803 43.2843 10.7823 43.4724 12.5257C43.7263 14.8789 44 19.0315 44 26C44 32.9685 43.7263 37.1211 43.4724 39.4743C43.2843 41.2177 42.1035 42.562 40.3807 42.8884C37.6989 43.3965 32.6855 44 24 44C15.3145 44 10.3011 43.3965 7.61934 42.8884C5.89653 42.562 4.7157 41.2177 4.52758 39.4743C4.27365 37.1211 4 32.9685 4 26C4 19.0315 4.27365 14.8789 4.52758 12.5257Z" fill="#ACB4C9"/>
<path d="M35.8301 4.06251C36.4552 4.11405 36.8848 4.57195 36.9272 5.19777C36.9662 5.77271 37 6.65835 37 8C37 8.21552 36.9991 8.41928 36.9975 8.61187C38.3998 8.77264 39.5123 8.94713 40.3805 9.11162C42.1033 9.43803 43.2841 10.7823 43.4722 12.5257C43.5678 13.411 43.6661 14.5511 43.7516 16H4.24805C4.33354 14.5511 4.43187 13.411 4.52741 12.5257C4.71552 10.7823 5.89635 9.43804 7.61917 9.11162C8.48739 8.94711 9.60001 8.77261 11.0025 8.61183C11.0009 8.41925 11 8.21551 11 8C11 6.65835 11.0338 5.77271 11.0728 5.19777C11.1152 4.57195 11.5448 4.11405 12.1699 4.06251C12.5953 4.02744 13.1876 4 14 4C14.8124 4 15.4047 4.02744 15.8301 4.06251C16.4552 4.11405 16.8848 4.57195 16.9272 5.19777C16.9662 5.77271 17 6.65835 17 8C17 8.05079 17 8.10093 16.9999 8.15042C19.0129 8.05688 21.3333 8 23.9998 8C26.6665 8 28.987 8.05689 31.0001 8.15044L31 8C31 6.65835 31.0338 5.77271 31.0728 5.19777C31.1152 4.57195 31.5448 4.11405 32.1699 4.06251C32.5953 4.02744 33.1876 4 34 4C34.8124 4 35.4047 4.02744 35.8301 4.06251Z" fill="#576684"/>
<path fill-rule="evenodd" clip-rule="evenodd" d="M11.0449 23.1991C11.0798 22.6247 11.4535 22.1798 12.0241 22.1054C12.4646 22.0479 13.1013 22 14 22C14.8987 22 15.5354 22.0479 15.9759 22.1054C16.5465 22.1798 16.9202 22.6247 16.9551 23.1991C16.9801 23.6099 17 24.1911 17 25C17 25.8089 16.9801 26.3901 16.9551 26.8009C16.9202 27.3753 16.5465 27.8202 15.9759 27.8946C15.5354 27.9521 14.8987 28 14 28C13.1013 28 12.4646 27.9521 12.0241 27.8946C11.4535 27.8202 11.0798 27.3753 11.0449 26.8009C11.0199 26.3901 11 25.8089 11 25C11 24.1911 11.0199 23.6099 11.0449 23.1991ZM11.0449 33.1991C11.0798 32.6247 11.4535 32.1798 12.0241 32.1054C12.4646 32.0479 13.1013 32 14 32C14.8987 32 15.5354 32.0479 15.9759 32.1054C16.5465 32.1798 16.9202 32.6247 16.9551 33.1991C16.9801 33.6099 17 34.1911 17 35C17 35.8089 16.9801 36.3901 16.9551 36.8009C16.9202 37.3753 16.5465 37.8202 15.9759 37.8946C15.5354 37.9521 14.8987 38 14 38C13.1013 38 12.4646 37.9521 12.0241 37.8946C11.4535 37.8202 11.0798 37.3753 11.0449 36.8009C11.0199 36.3901 11 35.8089 11 35C11 34.1911 11.0199 33.6099 11.0449 33.1991ZM22.0241 22.1054C21.4535 22.1798 21.0798 22.6247 21.0449 23.1991C21.0199 23.6099 21 24.1911 21 25C21 25.8089 21.0199 26.3901 21.0449 26.8009C21.0798 27.3753 21.4535 27.8202 22.0241 27.8946C22.4646 27.9521 23.1013 28 24 28C24.8987 28 25.5354 27.9521 25.9759 27.8946C26.5465 27.8202 26.9202 27.3753 26.9551 26.8009C26.9801 26.3901 27 25.8089 27 25C27 24.1911 26.9801 23.6099 26.9551 23.1991C26.9202 22.6247 26.5465 22.1798 25.9759 22.1054C25.5354 22.0479 24.8987 22 24 22C23.1013 22 22.4646 22.0479 22.0241 22.1054ZM21.0449 33.1991C21.0798 32.6247 21.4535 32.1798 22.0241 32.1054C22.4646 32.0479 23.1013 32 24 32C24.8987 32 25.5354 32.0479 25.9759 32.1054C26.5465 32.1798 26.9202 32.6247 26.9551 33.1991C26.9801 33.6099 27 34.1911 27 35C27 35.8089 26.9801 36.3901 26.9551 36.8009C26.9202 37.3753 26.5465 37.8202 25.9759 37.8946C25.5354 37.9521 24.8987 38 24 38C23.1013 38 22.4646 37.9521 22.0241 37.8946C21.4535 37.8202 21.0798 37.3753 21.0449 36.8009C21.0199 36.3901 21 35.8089 21 35C21 34.1911 21.0199 33.6099 21.0449 33.1991ZM32.0241 22.1054C31.4535 22.1798 31.0798 22.6247 31.0449 23.1991C31.0199 23.6099 31 24.1911 31 25C31 25.8089 31.0199 26.3901 31.0449 26.8009C31.0798 27.3753 31.4535 27.8202 32.0241 27.8946C32.4646 27.9521 33.1013 28 34 28C34.8987 28 35.5354 27.9521 35.9759 27.8946C36.5465 27.8202 36.9202 27.3753 36.9551 26.8009C36.9801 26.3901 37 25.8089 37 25C37 24.1911 36.9801 23.6099 36.9551 23.1991C36.9202 22.6247 36.5465 22.1798 35.9759 22.1054C35.5354 22.0479 34.8987 22 34 22C33.1013 22 32.4646 22.0479 32.0241 22.1054Z" fill="#576684"/>
</svg>