<!-- Copyright © Ewsgit 2022. -->
<!-- Licensed under the MIT License - https://ewsgit.github.io/devdash/copyright -->

<svg width="48" height="48" viewBox="0 0 48 48" fill="none" xmlns="http://www.w3.org/2000/svg">
<path d="M24 44C27.634 44 30.0906 43.7378 31.2632 43.5755C31.7888 43.5028 32.283 43.2981 32.7061 42.9779C33.65 42.2635 35.5725 40.7118 38.1421 38.1421C40.7118 35.5724 42.2635 33.65 42.9779 32.7061C43.2981 32.283 43.5028 31.7888 43.5755 31.2632C43.7378 30.0907 44 27.6341 44 24C44 20.3659 43.7378 17.9093 43.5755 16.7368C43.5028 16.2112 43.2981 15.717 42.9779 15.2939C42.2635 14.35 40.7118 12.4275 38.1421 9.85786C35.5725 7.2882 33.65 5.73651 32.7061 5.02212C32.283 4.7019 31.7888 4.49721 31.2632 4.42446C30.0906 4.26217 27.634 4 24 4C20.3659 4 17.9094 4.26217 16.7368 4.42446C16.2112 4.49721 15.717 4.7019 15.2939 5.02211C14.35 5.73649 12.4276 7.28817 9.85787 9.85785C7.28817 12.4276 5.73649 14.35 5.02212 15.2939C4.70191 15.717 4.49722 16.2112 4.42447 16.7367C4.26218 17.9093 4 20.3659 4 24C4 27.6341 4.26217 30.0907 4.42447 31.2632C4.49722 31.7888 4.70191 32.283 5.02212 32.7061C5.73649 33.65 7.28816 35.5724 9.85783 38.1421C12.4275 40.7118 14.35 42.2635 15.2939 42.9779C15.717 43.2981 16.2112 43.5028 16.7368 43.5755C17.9093 43.7378 20.3659 44 24 44Z" fill="#ACB4C9"/>
<path d="M21.7793 10.2959C20.5779 10.6388 20.0421 11.8711 20.1241 13.1178C20.313 15.9924 20.6945 21.2959 21.1058 24.1431C21.2274 24.9854 21.7159 25.7208 22.5522 25.8785C22.9286 25.9495 23.4054 26 24 26C24.5946 26 25.0714 25.9495 25.4478 25.8785C26.2841 25.7208 26.7726 24.9854 26.8942 24.1431C27.3055 21.2959 27.687 15.9924 27.8759 13.1178C27.9579 11.8711 27.4221 10.6388 26.2207 10.2959C25.6284 10.1268 24.8881 10 24 10C23.1119 10 22.3716 10.1268 21.7793 10.2959Z" fill="#576684"/>
<path d="M24 37C26.2091 37 28 35.2091 28 33C28 30.7909 26.2091 29 24 29C21.7909 29 20 30.7909 20 33C20 35.2091 21.7909 37 24 37Z" fill="#576684"/>
</svg>