<!-- Copyright © Ewsgit 2022. -->
<!-- Licensed under the MIT License - https://ewsgit.github.io/devdash/copyright -->

<svg width="48" height="48" viewBox="0 0 48 48" fill="none" xmlns="http://www.w3.org/2000/svg">
<path d="M12.3791 3.01822C14.2183 2.86857 16.004 3.64909 17.2117 5.05289L18.9036 7.01953C19.6634 7.90267 20.767 8.41012 21.9279 8.41012H35.081C38.2031 8.41012 40.8024 10.8195 40.9015 13.9595C40.962 15.8748 41 18.1482 41 20.8373C41 27.8951 40.7381 32.0902 40.4961 34.46C40.3181 36.2026 39.1643 37.562 37.456 37.8994C34.8832 38.4076 30.1385 39 22 39C13.8615 39 9.11681 38.4076 6.54402 37.8994C4.8357 37.562 3.68186 36.2026 3.50391 34.46C3.26192 32.0902 3 27.8951 3 20.8373C3 13.7794 3.26192 9.58428 3.50391 7.2145C3.68186 5.47188 4.83692 4.11223 6.54525 3.77488C7.86435 3.5144 9.75411 3.2318 12.3791 3.01822Z" fill="#ACB4C9"/>
<path fill-rule="evenodd" clip-rule="evenodd" d="M35 21C31.4134 21 28.4569 23.8124 28.2778 27.3945L28.1853 29.2438C26.4476 29.4076 25.2401 30.6569 25.1255 32.4012C25.0539 33.4904 25 34.981 25 37C25 39.1788 25.0733 40.7422 25.1666 41.8499C25.3019 43.4565 26.4318 44.5842 28.0366 44.7395C29.4754 44.8786 31.6814 45 35 45C38.3186 45 40.5246 44.8786 41.9634 44.7395C43.5682 44.5842 44.6981 43.4565 44.8334 41.8499C44.9267 40.7422 45 39.1788 45 37C45 34.8212 44.9267 33.2578 44.8334 32.1501C44.6981 30.5435 43.5682 29.4158 41.9634 29.2605C41.9147 29.2558 41.8652 29.2511 41.8148 29.2465L41.7222 27.3945C41.5431 23.8124 38.5866 21 35 21ZM37.7991 29.0325L37.7272 27.5943C37.6546 26.141 36.4551 25 35 25C33.5449 25 32.3454 26.141 32.2728 27.5943L32.2009 29.0324C33.0335 29.0118 33.9632 29 35 29C36.0385 29 36.968 29.0119 37.7991 29.0325Z" fill="#576684"/>
<path d="M35.806 37.831C36.5091 37.521 37 36.8178 37 36C37 34.8954 36.1046 34 35 34C33.8954 34 33 34.8954 33 36C33 36.8178 33.4909 37.521 34.194 37.831L34.0532 39.083C34.0184 39.3923 34.069 39.7305 34.3485 39.8676C34.4998 39.9419 34.7107 40 35 40C35.2893 40 35.5002 39.9419 35.6515 39.8676C35.931 39.7305 35.9816 39.3923 35.9468 39.083L35.806 37.831Z" fill="#ACB4C9"/>
</svg>