<!-- Copyright © Ewsgit 2022. -->
<!-- Licensed under the MIT License - https://ewsgit.github.io/devdash/copyright -->

<svg xmlns="http://www.w3.org/2000/svg" width="48" height="48" fill="none" viewBox="0 0 48 48"><path fill="#ACB4C9" d="M41.8839 26.8693C43.8449 23.6599 44.483 19.6837 43.63 15.9867C41.8077 7.56516 31.7163 4.12393 25.4304 9.76751C24.9326 10.2115 24.4899 10.7233 24 11.2337C23.5102 10.7233 23.0674 10.2115 22.5696 9.76751C16.2837 4.12393 6.19237 7.56516 4.37 15.9867C3.51705 19.6837 4.15503 23.6599 6.11609 26.8693C9.54764 32.4943 15.0809 36.8744 20.4785 40.8438C22.5747 42.3854 25.4253 42.3854 27.5215 40.8438C32.9191 36.8744 38.4523 32.4943 41.8839 26.8693Z"/><path fill="#576684" fill-rule="evenodd" d="M31.6029 12.2924C31.9938 10.9682 33.3841 10.2116 34.7084 10.6024C37.2804 11.3616 39.484 13.3821 40.3856 16.2505C40.7996 17.5677 40.0675 18.9711 38.7503 19.3851C37.4332 19.7992 36.0297 19.067 35.6157 17.7498C35.2242 16.5043 34.3021 15.6958 33.2929 15.3979C31.9687 15.007 31.2121 13.6167 31.6029 12.2924Z" clip-rule="evenodd"/></svg>