<!-- Copyright © Ewsgit 2022. -->
<!-- Licensed under the MIT License - https://ewsgit.github.io/devdash/copyright -->

<svg width="48" height="48" viewBox="0 0 48 48" fill="none" xmlns="http://www.w3.org/2000/svg">
<path d="M12.3791 3.01822C14.2183 2.86857 16.004 3.64909 17.2117 5.05289L18.9036 7.01953C19.6634 7.90267 20.767 8.41012 21.9279 8.41012H35.081C38.2031 8.41012 40.8024 10.8195 40.9015 13.9595C40.962 15.8748 41 18.1482 41 20.8373C41 27.8951 40.7381 32.0902 40.4961 34.46C40.3181 36.2026 39.1643 37.562 37.456 37.8994C34.8832 38.4076 30.1385 39 22 39C13.8615 39 9.11681 38.4076 6.54402 37.8994C4.8357 37.562 3.68186 36.2026 3.50391 34.46C3.26192 32.0902 3 27.8951 3 20.8373C3 13.7794 3.26192 9.58428 3.50391 7.2145C3.68186 5.47188 4.83692 4.11223 6.54525 3.77488C7.86435 3.5144 9.75411 3.2318 12.3791 3.01822Z" fill="#ACB4C9"/>
<path d="M43.8362 36.8828C44.9147 35.1249 45.2656 32.9471 44.7965 30.9221C43.7942 26.3095 38.244 24.4247 34.7867 27.5158C34.5129 27.759 34.2694 28.0393 34 28.3189C33.7306 28.0393 33.4871 27.759 33.2133 27.5158C29.7561 24.4247 24.2058 26.3095 23.2035 30.9221C22.7344 32.9471 23.0853 35.1249 24.1639 36.8828C25.9613 39.8169 28.8071 42.1325 31.6384 44.2244C33.038 45.2585 34.962 45.2585 36.3616 44.2244C39.1929 42.1325 42.0387 39.8168 43.8362 36.8828Z" fill="#576684"/>
</svg>