<!-- Copyright © Ewsgit 2022. -->
<!-- Licensed under the MIT License - https://ewsgit.github.io/devdash/copyright -->

<svg width="48" height="48" viewBox="0 0 48 48" fill="none" xmlns="http://www.w3.org/2000/svg">
<path d="M33.8924 18.1726C33.9519 18.1749 34.0111 18.1773 34.07 18.1796C40.3933 18.4352 45 22.6715 45 29C45 35.3285 40.3933 39.5648 34.07 39.8204C31.4114 39.9278 28.0996 40 24 40C19.9004 40 16.5886 39.9278 13.93 39.8204C7.60674 39.5648 3 35.3285 3 29C3 24.0633 5.80331 20.3997 10.038 18.9057C10.4812 12.5902 14.7744 8.04872 21.2827 8.00252C21.517 8.00085 21.7561 8 22 8C22.244 8 22.483 8.00085 22.7173 8.00252C28.9709 8.04691 33.1794 12.2416 33.8924 18.1726Z" fill="#ACB4C9"/>
<path d="M33.6815 32.0951C33.792 32.0993 33.9006 32.1036 34.0073 32.108C37.4618 32.2499 40 34.5426 40 37.9999C40 41.4573 37.4618 43.7499 34.0073 43.8919C32.4467 43.956 30.4745 43.9999 28 43.9999C25.5255 43.9999 23.5533 43.956 21.9927 43.8919C18.5382 43.7499 16 41.4573 16 37.9999C16 35.2472 17.6091 33.2328 20.0085 32.4544C20.1748 28.7302 22.6518 26.0284 26.4468 26.0014C26.5807 26.0005 26.7173 26 26.8567 26C26.9961 26 27.1327 26.0005 27.2666 26.0014C30.9385 26.0275 33.3765 28.5576 33.6815 32.0951Z" fill="#576684"/>
</svg>