<!-- Copyright © Ewsgit 2022. -->
<!-- Licensed under the MIT License - https://ewsgit.github.io/devdash/copyright -->

<svg xmlns="http://www.w3.org/2000/svg" width="48" height="48" fill="none" viewBox="0 0 48 48"><path fill="#ACB4C9" d="M5 21.0652C5 10.5358 13.5066 2 24 2C27.8101 2 31.3583 3.12535 34.3325 5.06288C35.3234 5.70843 35.7331 6.98023 35.0369 7.93862C34.6838 8.42463 34.203 8.92715 33.5602 9.32065C32.7864 9.7943 31.8303 9.54631 31.0503 9.08316C28.9845 7.85668 26.5742 7.15275 24 7.15275C16.3426 7.15275 10.1351 13.3815 10.1351 21.0652V27.2485C10.1351 33.7233 14.5432 39.1651 20.5123 40.717C21.4062 40.9494 22.2694 41.4692 22.488 42.3705C22.6731 43.1333 22.6568 43.8402 22.5594 44.4338C22.3727 45.5711 21.217 46.1458 20.0938 45.9103C11.4743 44.1029 5 36.4344 5 27.2485V21.0652Z"/><path fill="#ACB4C9" d="M37.4324 9.48955C38.2469 9.08726 39.1522 9.52469 39.6668 10.2757C41.7694 13.3438 43 17.0603 43 21.0652V27.2485C43 36.5116 36.4164 44.2318 27.6882 45.9547C26.6786 46.154 25.6313 45.6906 25.4468 44.6736C25.3427 44.0996 25.3226 43.3751 25.5194 42.519C25.7441 41.5418 26.6532 40.9434 27.6172 40.6827C33.5205 39.0862 37.8649 33.6764 37.8649 27.2485V21.0652C37.8649 18.4502 37.1459 16.0036 35.8954 13.9138C35.4551 13.1781 35.203 12.2904 35.5549 11.5081C36.0523 10.4021 36.7869 9.80835 37.4324 9.48955Z"/><path fill="#ACB4C9" d="M24 10.037C17.9249 10.037 13 14.9347 13 20.9763C13 21.6317 13.3126 22.2595 13.9318 22.4659C14.6774 22.7143 15.8355 22.8877 17.2784 22.4142C17.8822 22.2161 18.2381 21.6143 18.2381 20.9763C18.2381 17.8116 20.8178 15.2462 24 15.2462C27.1822 15.2462 29.7619 17.8116 29.7619 20.9763V27.2273C29.7619 30.3919 27.1822 32.9573 24 32.9573C20.8178 32.9573 18.2381 30.3919 18.2381 27.2273C18.2381 26.6055 17.8421 26.0417 17.2367 25.9123C15.8483 25.6155 14.7268 25.7174 13.9872 25.8748C13.3659 26.0071 13 26.5892 13 27.2273C13 33.2688 17.9249 38.1665 24 38.1665C30.0751 38.1665 35 33.2688 35 27.2273V20.9763C35 14.9347 30.0751 10.037 24 10.037Z"/><path fill="#ACB4C9" d="M24 18.074C25.6569 18.074 27 19.3007 27 20.8139V27.3896C27 28.9028 25.6569 30.1295 24 30.1295C22.3431 30.1295 21 28.9028 21 27.3896V20.8139C21 19.3007 22.3431 18.074 24 18.074Z"/></svg>