<!-- Copyright © Ewsgit 2022. -->
<!-- Licensed under the MIT License - https://ewsgit.github.io/devdash/copyright -->

<svg width="48" height="48" viewBox="0 0 48 48" fill="none" xmlns="http://www.w3.org/2000/svg">
<path d="M14.9195 17.4492C15.4067 17.7437 16.0407 17.5836 16.3247 17.0964C17.8282 14.5168 20.4543 10.0112 22.2044 7.00863C22.9882 5.66379 24.9654 5.66379 25.7492 7.00862C27.4993 10.0112 30.1254 14.5168 31.629 17.0964C31.9129 17.5836 32.547 17.7437 33.0342 17.4492C35.6136 15.8901 38.5517 13.9524 40.7937 12.4405C42.2251 11.4752 44.1628 12.5627 43.9891 14.2574C43.4114 19.891 42.2338 29.8589 40.5617 36.5698C40.3263 37.5148 39.7695 38.3263 38.8271 38.6307C37.0115 39.2173 32.9143 40 23.9768 40C15.2568 40 11.1443 39.2549 9.2631 38.6739C8.22736 38.354 7.63954 37.4545 7.41446 36.413C5.77608 28.8319 4.60944 19.6181 4.01309 14.3111C3.82182 12.6091 5.76779 11.502 7.20703 12.4722C9.44302 13.9795 12.3581 15.901 14.9195 17.4492Z" fill="#ACB4C9"/>
<path d="M30 27C30 28.5 25.5 35 24 35C22.5 35 18 28.5 18 27C18 25.5 22.5 19 24 19C25.5 19 30 25.5 30 27Z" fill="#576684"/>
</svg>