<!-- Copyright © Ewsgit 2022. -->
<!-- Licensed under the MIT License - https://ewsgit.github.io/devdash/copyright -->

<svg width="48" height="48" viewBox="0 0 48 48" fill="none" xmlns="http://www.w3.org/2000/svg">
<path fill-rule="evenodd" clip-rule="evenodd" d="M24 9C20.134 9 17 12.134 17 16V32C17 35.866 20.134 39 24 39C27.866 39 31 35.866 31 32V22C31 20.8954 30.1046 20 29 20C27.8954 20 27 20.8954 27 22V32.3431C27 33.404 26.5665 34.4677 25.5518 34.7774C25.1277 34.9068 24.6104 35 24 35C23.3896 35 22.8723 34.9068 22.4482 34.7774C21.4335 34.4677 21 33.404 21 32.3431V22C21 17.5817 24.5817 14 29 14C33.4183 14 37 17.5817 37 22V32C37 39.1797 31.1797 45 24 45C16.8203 45 11 39.1797 11 32V16C11 8.8203 16.8203 3 24 3C26.9237 3 29.6298 3.96874 31.803 5.60152L31.9105 5.67056C32.8996 6.3057 33.5995 7.39061 33.1688 8.48433C33.0068 8.89572 32.7634 9.3464 32.3995 9.80202C31.9337 10.385 31.4701 10.7645 31.0692 11.0113C30.3508 11.4537 29.4835 11.2234 28.7737 10.7675L28.199 10.3985C27.0292 9.51962 25.5796 9 24 9Z" fill="#ACB4C9"/>
</svg>