<!-- Copyright © Ewsgit 2022. -->
<!-- Licensed under the MIT License - https://ewsgit.github.io/devdash/copyright -->

<svg width="48" height="48" viewBox="0 0 48 48" fill="none" xmlns="http://www.w3.org/2000/svg">
<path d="M3.42809 21.114C2.62824 22.0182 2.99116 23.2486 4.16761 23.5025C5.08877 23.7012 6.35496 23.923 8.06066 24.1299C8.0201 25.4952 7.99536 27.0793 7.99536 28.9124C7.99536 33.7995 8.17119 36.917 8.35394 38.8373C8.5216 40.5991 9.71677 41.9412 11.4528 42.2282C13.7095 42.6014 17.6144 43 23.9993 43C30.3841 43 34.2891 42.6014 36.5458 42.2282C38.2818 41.9412 39.477 40.5991 39.6446 38.8373C39.8274 36.917 40.0032 33.7995 40.0032 28.9124C40.0032 27.0795 39.9785 25.4954 39.9379 24.1301C41.6442 23.9232 42.9107 23.7014 43.8322 23.5026C45.0089 23.2488 45.3718 22.018 44.5717 21.1136C43.1678 19.5268 40.5575 16.8216 36.0032 12.8123C30.7292 8.1695 27.1929 6.14975 25.3949 5.31228C24.5009 4.89585 23.4997 4.89591 22.6057 5.31242C20.808 6.14997 17.2721 8.16976 11.9974 12.8123C7.44193 16.8219 4.83163 19.5272 3.42809 21.114Z" fill="#ACB4C9"/>
<path d="M22.9639 42.9964C22.9856 42.101 23 40.9958 23 39.639C23 37.2179 22.9541 35.5978 22.9027 34.5418C22.847 33.3991 22.2367 32.4469 21.2036 32.2509C20.4735 32.1123 19.4381 32 18 32C16.5619 32 15.5265 32.1123 14.7964 32.2509C13.7633 32.4469 13.153 33.3991 13.0973 34.5418C13.0459 35.5978 13 37.2179 13 39.639C13 40.7335 13.0094 41.6644 13.0244 42.4534C15.2206 42.7256 18.4199 42.9647 22.9639 42.9964Z" fill="#576684"/>
<path d="M26.1467 22.2093C25.5625 22.2936 25.1537 22.7312 25.0985 23.3188C25.0465 23.8714 25 24.7229 25 26C25 27.2771 25.0465 28.1286 25.0985 28.6812C25.1537 29.2688 25.5625 29.7064 26.1467 29.7907C26.861 29.8937 28.0666 30 30 30C31.9334 30 33.139 29.8937 33.8533 29.7907C34.4375 29.7064 34.8463 29.2688 34.9015 28.6812C34.9535 28.1286 35 27.2771 35 26C35 24.7229 34.9535 23.8714 34.9015 23.3188C34.8463 22.7312 34.4375 22.2936 33.8533 22.2093C33.139 22.1063 31.9334 22 30 22C28.0666 22 26.861 22.1063 26.1467 22.2093Z" fill="#576684"/>
</svg>