<!-- Copyright © Ewsgit 2022. -->
<!-- Licensed under the MIT License - https://ewsgit.github.io/devdash/copyright -->

<svg width="48" height="48" viewBox="0 0 48 48" fill="none" xmlns="http://www.w3.org/2000/svg">
<path d="M16.2847 6.28026C16.384 4.82695 17.2829 3.51757 18.7181 3.20142C19.2514 3.08393 19.8262 3 20.3797 3C20.9463 3 21.5351 3.08795 22.079 3.2098C23.4929 3.52657 24.3875 4.81058 24.5138 6.24128C24.802 9.50579 25.2846 15.3629 25.2846 17.9773C25.2846 17.9773 32.618 17.9773 39.041 20.0654C41.5655 20.8861 43.1092 23.2742 42.994 25.904C42.8273 29.708 42.0622 35.647 39.3037 41.8169C38.6502 43.2785 37.3368 44.3219 35.7393 44.5465C34.1115 44.7752 31.6431 45 28.2276 45C24.8705 45 22.3764 44.7828 20.6945 44.5582C18.9188 44.321 17.3117 43.4718 16.0283 42.233C10.9236 37.3058 7.28366 32.0064 5.73381 29.5801C5.17144 28.6997 4.83602 27.6633 5.08153 26.6502C5.28919 25.7933 5.65723 25.1066 6.08402 24.5606C7.41836 22.8538 9.92936 23.1947 11.6801 24.48C14.429 26.4981 15.4747 28.0942 15.4747 28.0942C15.4747 19.2974 16.0036 10.3921 16.2847 6.28026Z" fill="#ACB4C9"/>
</svg>