<!-- Copyright © Ewsgit 2022. -->
<!-- Licensed under the MIT License - https://ewsgit.github.io/devdash/copyright -->

<svg width="48" height="48" viewBox="0 0 48 48" fill="none" xmlns="http://www.w3.org/2000/svg">
<path d="M24 3C35.598 3 45 12.3807 45 23.9524V41.1928C45 43.4674 43.6561 45.438 41.4182 45.8449C38.3546 46.402 32.9755 47 24 47C15.0245 47 9.64537 46.402 6.58176 45.8449C4.34386 45.438 3 43.4674 3 41.1928V23.9524C3 12.3807 12.402 3 24 3Z" fill="#576684"/>
<path d="M3 24C3 35.598 12.402 45 24 45C35.598 45 45 35.598 45 24C45 12.402 35.598 3 24 3C12.402 3 3 12.402 3 24Z" fill="#ACB4C9"/>
<path d="M45 24C45 12.402 35.598 3 24 3C12.402 3 3 12.402 3 24C12.8592 24 21.2037 17.5146 24 8.57714C26.7963 17.5146 35.1408 24 45 24Z" fill="#576684"/>
<path d="M18 24C18 25.1046 17.1046 26 16 26C14.8954 26 14 25.1046 14 24C14 22.8954 14.8954 22 16 22C17.1046 22 18 22.8954 18 24Z" fill="#576684"/>
<path d="M19 30.5C19.8284 30.5 20.5 31.1716 20.5 32C20.5 33.933 22.067 35.5 24 35.5C25.933 35.5 27.5 33.933 27.5 32C27.5 31.1716 28.1716 30.5 29 30.5C29.8284 30.5 30.5 31.1716 30.5 32C30.5 35.5899 27.5899 38.5 24 38.5C20.4101 38.5 17.5 35.5899 17.5 32C17.5 31.1716 18.1716 30.5 19 30.5Z" fill="#576684"/>
<path d="M32 26C33.1046 26 34 25.1046 34 24C34 22.8954 33.1046 22 32 22C30.8954 22 30 22.8954 30 24C30 25.1046 30.8954 26 32 26Z" fill="#576684"/>
</svg>