<!-- Copyright © Ewsgit 2022. -->
<!-- Licensed under the MIT License - https://ewsgit.github.io/devdash/copyright -->

<svg xmlns="http://www.w3.org/2000/svg" width="48" height="48" fill="none" viewBox="0 0 48 48"><path fill="#ACB4C9" d="M14.0243 5.01756C15.8637 4.8708 17.6513 5.65223 18.859 7.05954L20.8036 9.32558C21.5634 10.2109 22.667 10.7197 23.8279 10.7197H38.0602C41.1823 10.7197 43.7824 13.1358 43.8869 16.2835C43.956 18.3646 44 20.858 44 23.8335C44 31.4288 43.7133 35.8824 43.4545 38.3553C43.2717 40.1018 42.1185 41.4639 40.4117 41.8101C37.7377 42.3524 32.7192 43 24 43C15.2808 43 10.2623 42.3524 7.58826 41.8101C5.88149 41.4639 4.72831 40.1018 4.54553 38.3553C4.28673 35.8824 4 31.4288 4 23.8335C4 16.2383 4.28673 11.7847 4.54553 9.31175C4.72831 7.56528 5.88325 6.20272 7.59003 5.85667C9.0083 5.56911 11.0857 5.252 14.0243 5.01756Z"/></svg>