<!-- Copyright © Ewsgit 2022. -->
<!-- Licensed under the MIT License - https://ewsgit.github.io/devdash/copyright -->

<svg width="48" height="48" viewBox="0 0 48 48" fill="none" xmlns="http://www.w3.org/2000/svg">
<path d="M21.3715 6.08498C22.5028 3.97167 25.4972 3.97167 26.6285 6.08498L31.5088 15.2015L41.5606 17.1192C43.8814 17.5619 44.8033 20.4271 43.1858 22.17L36.1495 29.752L37.4648 40.0784C37.7679 42.4581 35.3488 44.2329 33.2111 43.1991L24 38.7447L14.7889 43.1991C12.6512 44.2329 10.2321 42.4581 10.5352 40.0784L11.8505 29.752L4.81419 22.17C3.19669 20.427 4.11859 17.5619 6.43936 17.1192L16.4912 15.2015L21.3715 6.08498Z" fill="#ACB4C9"/>
<path d="M33.2555 21.0669C33.9888 19.6444 36.0112 19.6444 36.7445 21.0669L38.5404 24.5509L42.4128 25.3181C43.9093 25.6146 44.5143 27.4391 43.4944 28.5803L40.7284 31.6756L41.2314 35.7768C41.4234 37.3422 39.806 38.4926 38.4035 37.7882L35 36.0789L31.5965 37.7882C30.194 38.4926 28.5766 37.3422 28.7686 35.7768L29.2716 31.6756L26.5056 28.5803C25.4857 27.4391 26.0907 25.6146 27.5872 25.3181L31.4596 24.5509L33.2555 21.0669Z" fill="#576684"/>
</svg>