<!-- Copyright © Ewsgit 2022. -->
<!-- Licensed under the MIT License - https://ewsgit.github.io/devdash/copyright -->

<svg width="48" height="48" viewBox="0 0 48 48" fill="none" xmlns="http://www.w3.org/2000/svg">
<path d="M18.2885 4.13464C18.4361 3.76738 18.8091 3.59883 19.2044 3.57947C19.9117 3.54483 21.3408 3.5 24 3.5C26.6592 3.5 28.0883 3.54483 28.7956 3.57947C29.1909 3.59884 29.5639 3.76738 29.7115 4.13464C29.8576 4.49804 30 5.08656 30 6C30 6.91344 29.8576 7.50196 29.7115 7.86536C29.5639 8.23262 29.1909 8.40116 28.7956 8.42053C28.3523 8.44224 27.6255 8.46795 26.49 8.48412C26.4962 9.06085 26.5 9.72868 26.5 10.5C26.5 13.1592 26.4552 14.5883 26.4205 15.2956C26.4012 15.6909 26.2326 16.0639 25.8654 16.2115C25.502 16.3576 24.9134 16.5 24 16.5C23.0866 16.5 22.498 16.3576 22.1346 16.2115C21.7674 16.0639 21.5988 15.6909 21.5795 15.2956C21.5448 14.5883 21.5 13.1592 21.5 10.5C21.5 9.72868 21.5038 9.06085 21.51 8.48412C20.3745 8.46795 19.6477 8.44224 19.2044 8.42053C18.8091 8.40116 18.4361 8.23261 18.2885 7.86536C18.1424 7.50196 18 6.91344 18 6C18 5.08656 18.1424 4.49804 18.2885 4.13464Z" fill="#576684"/>
<path d="M41.0793 15.5601C41.4142 15.1751 41.522 14.6643 41.2671 14.2223C40.9709 13.7087 40.402 12.9166 39.3142 11.8288C38.2263 10.741 37.4342 10.172 36.9207 9.87587C36.4786 9.62096 35.9678 9.72873 35.5829 10.0637C35.0079 10.564 33.9715 11.5146 32.2431 13.243C30.5146 14.9715 29.564 16.0078 29.0637 16.5828C28.7288 16.9678 28.621 17.4786 28.8759 17.9206C29.1721 18.4342 29.741 19.2263 30.8289 20.3141C31.9167 21.4019 32.7088 21.9708 33.2224 22.267C33.6644 22.5219 34.1752 22.4142 34.5601 22.0792C35.1352 21.5789 36.1715 20.6283 37.8999 18.8999C39.6284 17.1714 40.579 16.1351 41.0793 15.5601Z" fill="#576684"/>
<circle cx="24" cy="27" r="17" fill="#ACB4C9"/>
<path d="M27.9976 14.9215C28.0618 13.9718 26.823 13.6366 26.4084 14.4915C25.1409 17.1053 23.4738 20.6098 22.2421 23.44C21.2397 23.9231 20.445 24.8296 20.135 25.9981C19.5727 28.1174 20.818 30.2958 22.9164 30.8636C25.0148 31.4315 27.1717 30.1738 27.734 28.0545C28.044 26.8861 27.8046 25.6997 27.1756 24.7751C27.5101 21.7022 27.8012 17.8252 27.9976 14.9215Z" fill="#576684"/>
</svg>