<!-- Copyright © Ewsgit 2022. -->
<!-- Licensed under the MIT License - https://ewsgit.github.io/devdash/copyright -->

<svg width="48" height="48" viewBox="0 0 48 48" fill="none" xmlns="http://www.w3.org/2000/svg">
<path d="M4.47884 12.4845C4.64705 10.7663 5.77606 9.41068 7.46811 9.06812C9.92988 8.56972 14.405 8 22 8C29.595 8 34.0701 8.56972 36.5319 9.06812C38.2239 9.41068 39.353 10.7663 39.5212 12.4845C39.7508 14.8304 40 18.9907 40 26C40 33.0093 39.7508 37.1696 39.5212 39.5155C39.353 41.2337 38.2239 42.5893 36.5319 42.9319C34.0701 43.4303 29.595 44 22 44C14.405 44 9.92988 43.4303 7.46811 42.9319C5.77606 42.5893 4.64705 41.2337 4.47884 39.5155C4.24918 37.1696 4 33.0093 4 26C4 18.9907 4.24918 14.8304 4.47884 12.4845Z" fill="#576684"/>
<path d="M9.47884 7.4845C9.64705 5.76633 10.7761 4.41068 12.4681 4.06812C14.9299 3.56972 19.405 3 27 3C34.595 3 39.0701 3.56972 41.5319 4.06812C43.2239 4.41068 44.353 5.76633 44.5212 7.4845C44.7508 9.83036 45 13.9907 45 21C45 28.0093 44.7508 32.1696 44.5212 34.5155C44.353 36.2337 43.2239 37.5893 41.5319 37.9319C39.0701 38.4303 34.595 39 27 39C19.405 39 14.9299 38.4303 12.4681 37.9319C10.7761 37.5893 9.64705 36.2337 9.47884 34.5155C9.24918 32.1696 9 28.0093 9 21C9 13.9907 9.24918 9.83036 9.47884 7.4845Z" fill="#ACB4C9"/>
<path d="M17.1588 17.384C17.29 15.435 19.1778 14.6926 20.6333 15.9967C21.4771 16.7527 22.5314 17.7299 23.8355 18.9882C26.6441 16.4092 29.7916 13.6995 32.5316 11.4444C33.3121 10.8021 34.4511 10.864 35.1657 11.5787L36.4221 12.8351C37.1358 13.5488 37.1976 14.6849 36.5565 15.4643C34.3021 18.2047 31.5932 21.3531 29.0146 24.1626C30.2769 25.4687 31.257 26.5242 32.0149 27.3687C33.3204 28.8234 32.5771 30.71 30.626 30.8411C29.4646 30.9192 28.0022 30.9805 26.1887 30.9977C22.9996 31.028 20.9294 30.7541 19.6723 30.4817C18.5703 30.2429 17.7577 29.431 17.5188 28.3298C17.2463 27.0739 16.9722 25.0055 17.0023 21.8189C17.0193 20.0063 17.0807 18.5446 17.1588 17.384Z" fill="#576684"/>
</svg>