<!-- Copyright © Ewsgit 2022. -->
<!-- Licensed under the MIT License - https://ewsgit.github.io/devdash/copyright -->

<svg xmlns="http://www.w3.org/2000/svg" width="48" height="48" fill="none" viewBox="0 0 48 48"><circle r="21" fill="#ACB4C9" transform="matrix(-1 0 0 1 24 24)"/><path fill="#576684" d="M11 24C11 22.2795 12.1011 21.0132 13.8216 21.0006C13.8799 21.0002 13.9393 21 14 21C14.0607 21 14.1201 21.0002 14.1784 21.0006C15.8989 21.0132 17 22.2795 17 24C17 25.7206 15.8989 26.9868 14.1784 26.9994C14.1201 26.9998 14.0607 27 14 27C13.9393 27 13.8799 26.9998 13.8216 26.9994C12.1011 26.9868 11 25.7205 11 24Z"/><path fill="#576684" d="M21 24C21 22.2795 22.1011 21.0132 23.8216 21.0006C23.8799 21.0002 23.9393 21 24 21C24.0607 21 24.1201 21.0002 24.1784 21.0006C25.8989 21.0132 27 22.2795 27 24C27 25.7206 25.8989 26.9868 24.1784 26.9994C24.1201 26.9998 24.0607 27 24 27C23.9393 27 23.8799 26.9998 23.8216 26.9994C22.1011 26.9868 21 25.7205 21 24Z"/><path fill="#576684" d="M31 24C31 22.2795 32.1011 21.0132 33.8216 21.0006C33.8799 21.0002 33.9393 21 34 21C34.0607 21 34.1201 21.0002 34.1784 21.0006C35.8989 21.0132 37 22.2795 37 24C37 25.7206 35.8989 26.9868 34.1784 26.9994C34.1201 26.9998 34.0607 27 34 27C33.9393 27 33.8799 26.9998 33.8216 26.9994C32.1011 26.9868 31 25.7205 31 24Z"/></svg>