<!-- Copyright © Ewsgit 2022. -->
<!-- Licensed under the MIT License - https://ewsgit.github.io/devdash/copyright -->

<svg width="48" height="48" viewBox="0 0 48 48" fill="none" xmlns="http://www.w3.org/2000/svg">
<path d="M26.1416 4.06042C26.1416 4.06042 28.4539 4.95 32.7039 9.225C36.9383 13.4843 37.8263 15.8143 37.8328 15.8313C37.936 17.8609 38 20.2345 38 23C38 31.2512 37.43 36.014 36.9501 38.5616C36.6419 40.1983 35.3722 41.3201 33.7258 41.4988C31.5032 41.74 27.5813 42 21 42C14.4187 42 10.4968 41.74 8.27425 41.4988C6.62776 41.3201 5.35814 40.1983 5.04986 38.5616C4.56998 36.014 4 31.2512 4 23C4 14.7488 4.56998 9.98604 5.04986 7.43837C5.35814 5.8017 6.62775 4.67991 8.27424 4.5012C10.4968 4.25997 14.4187 4 21 4C22.9358 4 24.6416 4.02253 26.1416 4.06042Z" fill="#ACB4C9"/>
<path d="M37.8332 15.8315C35.1136 16.5195 31.9027 16.5652 29.1293 15.713C27.9568 15.3527 27.0426 14.4339 26.6469 13.2667C25.661 10.3591 25.4175 6.80002 26.142 4.06055C26.142 4.06055 28.4543 4.95013 32.7043 9.22513C36.9543 13.5001 37.8332 15.8315 37.8332 15.8315Z" fill="#576684"/>
<path d="M24.1955 28.5798C24.3408 26.9277 25.3682 25.6103 27.0104 25.378C28.4481 25.1747 30.6563 25 34 25C37.3437 25 39.5519 25.1747 40.9896 25.378C42.6318 25.6103 43.6592 26.9277 43.8045 28.5798C43.9089 29.7673 44 31.2925 44 33C44 37.5142 41.6175 41.7382 37.6037 43.8039C36.2629 44.494 34.9544 45 34 45C33.0456 45 31.7371 44.494 30.3963 43.8039C26.3825 41.7382 24 37.5142 24 33C24 31.2925 24.0911 29.7673 24.1955 28.5798Z" fill="#576684"/>
<path fill-rule="evenodd" clip-rule="evenodd" d="M39.5835 30.7463C40.0641 31.247 40.1407 32.0232 39.751 32.6003C37.7695 35.5357 35.9828 37.4855 34.9354 38.5237C34.3662 39.0879 33.5134 39.164 32.8762 38.6815C31.9652 37.9918 30.6059 36.8087 29.2845 35.0782C28.9188 34.5995 28.9101 33.9368 29.2326 33.4267L29.6974 32.6915C30.0982 32.0575 30.9548 31.9318 31.4838 32.4589C32.7282 33.6989 33.7632 34.9608 33.7632 34.9608C33.7632 34.9608 35.279 32.8008 37.4987 30.3805C37.9639 29.8733 38.7478 29.8758 39.2242 30.3721L39.5835 30.7463Z" fill="#ACB4C9"/>
</svg>