<!-- Copyright © Ewsgit 2022. -->
<!-- Licensed under the MIT License - https://ewsgit.github.io/devdash/copyright -->

<svg xmlns="http://www.w3.org/2000/svg" width="48" height="48" fill="none" viewBox="0 0 48 48"><path fill="#ACB4C9" d="M4.65388 8.57316C4.84496 6.92575 5.84441 5.56573 7.46374 5.20762C9.9896 4.64902 14.8855 4 24 4C33.1145 4 38.0104 4.64902 40.5363 5.20762C42.1556 5.56574 43.155 6.92575 43.3461 8.57316C43.6351 11.0644 44 15.1673 44 20C44 29.0284 39.2351 37.4764 31.2074 41.6079C28.5258 42.988 25.9087 44 24 44C22.0913 44 19.4742 42.988 16.7926 41.6079C8.76493 37.4764 4 29.0284 4 20C4 15.1673 4.36493 11.0644 4.65388 8.57316Z"/><path fill="#576684" d="M23.2225 29.5408C24.4665 29.5408 25.365 29.3233 25.9179 28.8883C26.4939 28.4534 26.7819 27.9205 26.7819 27.2898C26.7819 26.7244 26.563 26.2677 26.1253 25.9197C25.6875 25.5717 25.031 25.2673 24.1555 25.0063L22.2549 24.4191C21.3103 24.1363 20.4579 23.8319 19.6976 23.5056C18.9374 23.1794 18.2923 22.788 17.7624 22.3312C17.2325 21.8745 16.8179 21.3308 16.5184 20.7001C16.2189 20.0694 16.0691 19.3191 16.0691 18.4492C16.0691 16.9703 16.5529 15.7415 17.5205 14.7629C18.4881 13.7842 19.8704 13.1317 21.6674 12.8055V11.6134C21.6674 10.8018 22.2257 10.0779 23.0353 10.0205C23.2258 10.007 23.4156 10 23.6026 10C24.455 10 25.0655 10.1414 25.4341 10.4241C25.8258 10.7068 26.0216 11.2179 26.0216 11.9573V12.675C27.496 12.8273 28.694 13.1644 29.6155 13.6863C30.5371 14.1865 30.9978 14.8499 30.9978 15.6763C30.9978 16.1034 30.8711 16.4938 30.6572 16.8408C30.2294 17.5346 29.274 17.4894 28.5091 17.2078C28.2242 17.1029 27.9134 17.0056 27.5767 16.9159C26.7012 16.655 25.7451 16.5245 24.7084 16.5245C23.5565 16.5245 22.6926 16.7093 22.1166 17.079C21.5637 17.427 21.2873 17.8837 21.2873 18.4492C21.2873 18.9059 21.4716 19.2756 21.8402 19.5583C22.2318 19.8411 22.8193 20.102 23.6026 20.3413L25.5378 20.8959C27.6112 21.5048 29.2009 22.3095 30.3067 23.3099C31.4356 24.3103 32 25.6587 32 27.3551C32 28.8557 31.4932 30.128 30.4795 31.1719C29.4658 32.1941 27.9798 32.8791 26.0216 33.2271V34.3866C26.0216 35.1982 25.4633 35.9222 24.6537 35.9796C24.4633 35.9931 24.2735 36 24.0864 36C23.234 36 22.6119 35.8586 22.2203 35.5759C21.8517 35.2932 21.6674 34.7821 21.6674 34.0427V33.3902C19.9856 33.2162 18.6148 32.8356 17.5551 32.2484C16.5184 31.6395 16 30.8783 16 29.9649C16 29.3762 16.2411 28.8729 16.6182 28.4599C17.1532 27.8738 18.0532 28.0155 18.7473 28.4002C19.1174 28.6053 19.5263 28.8006 19.9741 28.9862C20.9186 29.3559 22.0014 29.5408 23.2225 29.5408Z"/></svg>