<!-- Copyright © Ewsgit 2022. -->
<!-- Licensed under the MIT License - https://ewsgit.github.io/devdash/copyright -->

<svg width="48" height="48" viewBox="0 0 48 48" fill="none" xmlns="http://www.w3.org/2000/svg">
<path d="M37.388 31.3437C39.0454 28.62 40 25.4215 40 22C40 12.0589 31.9411 4 22 4C12.0589 4 4 12.0589 4 22C4 31.9411 12.0589 40 22 40C25.4215 40 28.62 39.0454 31.3437 37.388C31.5081 37.586 31.6719 37.7837 31.8355 37.981C33.5263 40.021 35.1874 42.0249 37.0998 43.9982C38.2598 45.1951 39.9911 45.3681 41.23 44.2531C41.6689 43.8581 42.1824 43.3728 42.7776 42.7776C43.3728 42.1824 43.8581 41.6689 44.2531 41.23C45.3681 39.9911 45.1951 38.2598 43.9982 37.0998C42.0249 35.1874 40.0209 33.5263 37.981 31.8355C37.7837 31.6719 37.586 31.5081 37.388 31.3437Z" fill="#576684"/>
<path d="M34 22C34 28.6274 28.6274 34 22 34C15.3726 34 10 28.6274 10 22C10 15.3726 15.3726 10 22 10C28.6274 10 34 15.3726 34 22Z" fill="#ACB4C9"/>
<path d="M15 22C15 20.9976 15.7735 20.168 16.7748 20.1214C18.0354 20.0626 19.8768 20 22 20C24.1232 20 25.9646 20.0626 27.2252 20.1214C28.2265 20.168 29 20.9976 29 22C29 23.0024 28.2265 23.832 27.2252 23.8786C25.9646 23.9374 24.1232 24 22 24C19.8768 24 18.0354 23.9374 16.7748 23.8786C15.7735 23.832 15 23.0024 15 22Z" fill="#576684"/>
</svg>