<!-- Copyright © Ewsgit 2022. -->
<!-- Licensed under the MIT License - https://ewsgit.github.io/devdash/copyright -->

<svg width="48" height="48" viewBox="0 0 48 48" fill="none" xmlns="http://www.w3.org/2000/svg">
<path d="M44.186 8.46378C43.9949 6.81637 42.9954 5.45636 41.3761 5.09824C38.8502 4.53964 33.9543 3.89062 24.8398 3.89062C15.7253 3.89062 10.8294 4.53964 8.30358 5.09824C6.68425 5.45636 5.68481 6.81637 5.49372 8.46378C5.20477 10.955 4.83984 15.0579 4.83984 19.8906C4.83984 28.919 9.60478 37.3671 17.6324 41.4985C20.314 42.8786 22.9311 43.8906 24.8398 43.8906C26.7486 43.8906 29.3657 42.8786 32.0473 41.4985C40.0749 37.3671 44.8398 28.919 44.8398 19.8906C44.8398 15.0579 44.4749 10.955 44.186 8.46378Z" fill="#ACB4C9"/>
<path d="M44.2869 37.5419C44.8006 38.0649 45.1652 38.7439 44.9238 39.4361C44.7344 39.9788 44.3356 40.6935 43.5146 41.5146C42.6935 42.3356 41.9788 42.7344 41.4361 42.9238C40.7439 43.1652 40.0649 42.8006 39.5419 42.2869C36.6394 39.4354 26.5149 29.4822 21.5163 24.4837C16.5178 19.4851 6.56464 9.3606 3.71312 6.45807C3.19938 5.93515 2.83478 5.25607 3.07624 4.56392C3.26556 4.02124 3.6644 3.30647 4.48544 2.48544C5.30647 1.6644 6.02124 1.26556 6.56392 1.07624C7.25607 0.834783 7.93514 1.19938 8.45807 1.71312C11.3606 4.56463 21.4851 14.5178 26.4837 19.5163C31.4822 24.5149 41.4354 34.6394 44.2869 37.5419Z" fill="#576684"/>
</svg>