<!-- Copyright © Ewsgit 2022. -->
<!-- Licensed under the MIT License - https://ewsgit.github.io/devdash/copyright -->

<svg width="48" height="48" viewBox="0 0 48 48" fill="none" xmlns="http://www.w3.org/2000/svg">
<path d="M25.4457 43.9536C24.9868 45.3488 23.0132 45.3488 22.5543 43.9536L19.8948 35.8669C18.6868 32.194 15.806 29.3132 12.1331 28.1052L4.04638 25.4457C2.65121 24.9868 2.65121 23.0132 4.04638 22.5543L12.1331 19.8948C15.806 18.6868 18.6868 15.806 19.8948 12.1331L22.5543 4.04638C23.0132 2.65121 24.9868 2.65121 25.4457 4.04638L28.1052 12.1331C29.3132 15.806 32.194 18.6868 35.8669 19.8948L43.9536 22.5543C45.3488 23.0132 45.3488 24.9868 43.9536 25.4457L35.8669 28.1052C32.194 29.3132 29.3132 32.194 28.1052 35.8669L25.4457 43.9536Z" fill="#ACB4C9"/>
</svg>