<!-- Copyright © Ewsgit 2022. -->
<!-- Licensed under the MIT License - https://ewsgit.github.io/devdash/copyright -->

<svg xmlns="http://www.w3.org/2000/svg" width="48" height="48" fill="none" viewBox="0 0 48 48"><path fill="#576684" d="M7.07176 4.05041C8.15526 4.16121 8.73868 5.11103 8.77889 6.19944C8.86778 8.60506 9 13.8837 9 24C9 34.1163 8.86778 39.3949 8.77889 41.8006C8.73868 42.889 8.15525 43.8388 7.07176 43.9496C6.76795 43.9807 6.41298 44 6 44C5.58702 44 5.23205 43.9807 4.92824 43.9496C3.84474 43.8388 3.26132 42.889 3.22111 41.8006C3.13222 39.3949 3 34.1163 3 24C3 13.8837 3.13222 8.60506 3.22111 6.19944C3.26132 5.11103 3.84475 4.16121 4.92825 4.05041C5.23205 4.01934 5.58702 4 6 4C6.41298 4 6.76795 4.01934 7.07176 4.05041Z"/><path fill="#ACB4C9" d="M32.9298 9.49468C32.8669 7.77713 31.8182 6.46173 30.1089 6.28211C28.645 6.12829 26.4038 6 23 6C19.5962 6 17.355 6.12829 15.8911 6.28211C14.1818 6.46173 13.1331 7.77713 13.0702 9.49468C13.0305 10.5769 13 12.0446 13 14C13 15.9554 13.0305 17.4231 13.0702 18.5053C13.1331 20.2229 14.1818 21.5383 15.8911 21.7179C17.355 21.8717 19.5962 22 23 22C26.4038 22 28.645 21.8717 30.1089 21.7179C31.8182 21.5383 32.8669 20.2229 32.9298 18.5053C32.9695 17.4231 33 15.9554 33 14C33 12.0446 32.9695 10.5769 32.9298 9.49468Z"/><path fill="#ACB4C9" d="M44.9073 29.8499C44.8082 27.9258 43.4899 26.533 41.5701 26.3711C39.3176 26.1812 35.4725 26 29 26C22.5275 26 18.6824 26.1812 16.4299 26.3711C14.5101 26.533 13.1918 27.9258 13.0927 29.8499C13.039 30.8917 13 32.2507 13 34C13 35.7493 13.039 37.1083 13.0927 38.1501C13.1918 40.0742 14.5101 41.467 16.4299 41.6289C18.6824 41.8188 22.5275 42 29 42C35.4725 42 39.3176 41.8188 41.5701 41.6289C43.4899 41.467 44.8082 40.0742 44.9073 38.1501C44.961 37.1083 45 35.7493 45 34C45 32.2507 44.961 30.8917 44.9073 29.8499Z"/></svg>