<!-- Copyright © Ewsgit 2022. -->
<!-- Licensed under the MIT License - https://ewsgit.github.io/devdash/copyright -->

<svg width="48" height="48" viewBox="0 0 48 48" fill="none" xmlns="http://www.w3.org/2000/svg">
<path d="M19.4161 42.0238C10.8899 44.4291 5.71344 44.9468 5.71344 44.9468C5.71344 44.9468 4.71591 45.2793 3.71827 44.2817C2.72064 43.2842 3.05322 42.2866 3.05322 42.2866C3.05322 42.2866 3.57087 37.1101 5.97623 28.5839C6.59802 26.3799 8.47913 24.7785 10.7573 24.5454C12.6079 24.356 15.0776 24.1461 18 24L19.6796 23L25 28.3204L24 30C23.8539 32.9224 23.644 35.3921 23.4546 37.2427C23.2215 39.5209 21.6201 41.402 19.4161 42.0238Z" fill="#ACB4C9"/>
<path d="M3.39844 43.9014L11.879 34.815C11.7214 34.4741 11.6334 34.0943 11.6334 33.694C11.6334 32.2175 12.8304 31.0205 14.3069 31.0205C15.7835 31.0205 16.9804 32.2175 16.9804 33.694C16.9804 35.1706 15.7835 36.3676 14.3069 36.3676C13.9064 36.3676 13.5265 36.2795 13.1855 36.1217L4.09921 44.6022C3.97393 44.5148 3.84657 44.4091 3.71921 44.2817C3.59172 44.1543 3.48595 44.0268 3.39844 43.9014Z" fill="#576684"/>
<path d="M45.1943 10.9842L32.13 27.6268C31.3479 28.6232 30.2725 29.3502 29.0283 29.5646C27.7801 29.7796 26.0378 30 24.0004 30C24.0004 30 23.4691 28.66 21.4804 26.66C19.4918 24.66 18 24 18 24C18 21.8627 18.2843 20.0567 18.5486 18.838C18.7893 17.7286 19.4651 16.7865 20.3512 16.0829L37.0671 2.81073C37.6094 2.38017 38.225 2.03132 38.9154 2.00415C40.0436 1.95976 41.9481 2.2446 43.8526 4.16002C45.7572 6.07546 46.0404 7.99088 45.9962 9.12547C45.9692 9.81975 45.6224 10.4389 45.1943 10.9842Z" fill="#576684"/>
</svg>