<!-- Copyright © Ewsgit 2022. -->
<!-- Licensed under the MIT License - https://ewsgit.github.io/devdash/copyright -->

<svg width="48" height="48" viewBox="0 0 48 48" fill="none" xmlns="http://www.w3.org/2000/svg">
<circle cx="24" cy="24" r="22" fill="#ACB4C9"/>
<path d="M36.7511 33.441C33.6249 37.7534 28.65 40.0965 23.5833 39.997C15.4294 39.8368 8.51465 33.1648 8.02727 24.9366C7.50044 16.0425 14.6765 8.19524 23.5833 8.00367C28.0499 7.9076 32.6848 9.70156 35.7999 12.9162C35.8152 12.932 35.8302 12.9479 35.845 12.9639C36.5755 12.511 37.2007 12.1646 37.7247 11.9002C38.8464 11.3342 39.9628 12.0829 39.9914 13.3447C40.0265 14.8935 39.9666 17.2197 39.5797 20.2853C39.4217 21.5374 38.2451 22.3893 37.0143 22.1427C34.0008 21.5388 31.7884 20.8577 30.3392 20.3328C29.1584 19.9052 28.8066 18.6028 29.6963 17.7126C30.1214 17.2873 30.6609 16.7882 31.3411 16.2195C31.3199 16.1955 31.299 16.1712 31.2783 16.1466C29.3533 13.8481 27.0641 12.4729 23.5833 12.5764C17.1552 12.7676 12.0538 18.5255 12.5837 24.9366C13.0574 30.6685 17.8926 35.2655 23.5833 35.4242C27.078 35.5217 30.5217 33.9904 32.7852 31.1347C33.4682 30.273 34.4025 29.6 35.402 30.0517C35.5864 30.135 35.7858 30.2369 35.9999 30.3612C36.214 30.4855 36.4015 30.6083 36.5654 30.7272C37.4541 31.3719 37.3966 32.5505 36.7511 33.441Z" fill="#576684"/>
</svg>