<!-- Copyright © Ewsgit 2022. -->
<!-- Licensed under the MIT License - https://ewsgit.github.io/devdash/copyright -->

<svg xmlns="http://www.w3.org/2000/svg" width="48" height="48" fill="none" viewBox="0 0 48 48"><path fill="#ACB4C9" d="M36.5551 7.84323C37.6482 8.74817 36.555 10.5 35.1337 10.5C27.6476 10.5 21.579 16.5441 21.579 24C21.579 31.4558 27.6476 37.5 35.1337 37.5C36.555 37.5 37.6482 39.2518 36.5552 40.1567C32.902 43.1812 28.2068 45 23.0851 45C11.4401 45 2 35.598 2 24C2 12.402 11.4401 3 23.0851 3C28.2068 3 32.902 4.81878 36.5551 7.84323Z"/><path fill="#576684" d="M42.4726 28C42.9559 28 43.4736 28.1527 43.6675 28.5954C43.7539 28.7926 43.8014 29.0122 43.8014 29.2536C43.8014 29.4735 43.7463 29.6935 43.6359 29.9134C43.5366 30.1223 43.4098 30.3203 43.2553 30.5072L40.4752 33.8392H43.126C43.4914 33.8392 43.8441 34.0356 43.933 34.3901C43.9763 34.5625 44 34.7395 44 34.9113C44 35.2962 43.9117 35.5766 43.7352 35.7526C43.5697 35.9175 43.3436 36 43.0567 36H38.3288C37.8455 36 37.3276 35.8475 37.1336 35.4048C37.0481 35.2096 37 34.9904 37 34.7464C37 34.5265 37.0496 34.312 37.1489 34.1031C37.2593 33.8832 37.3916 33.6797 37.5461 33.4928L40.3924 30.1608H37.9402C37.5748 30.1608 37.2191 29.9656 37.1305 29.611C37.0883 29.4422 37.0662 29.2678 37.0662 29.0887C37.0662 28.7038 37.1489 28.4289 37.3144 28.2639C37.4909 28.088 37.7226 28 38.0095 28H42.4726Z"/><path fill="#576684" d="M36.6924 14C37.3938 14 38.1435 14.2104 38.4523 14.84C38.604 15.1493 38.6879 15.4965 38.6879 15.8804C38.6879 16.2103 38.6013 16.5402 38.4279 16.8701C38.2719 17.1835 38.0725 17.4804 37.8298 17.7608L33.461 22.7588H37.6888C38.2264 22.7588 38.7476 23.0413 38.8881 23.5601C38.9603 23.8267 39 24.101 39 24.367C39 24.9443 38.8613 25.3649 38.5839 25.6289C38.3239 25.8763 37.9685 26 37.5177 26H29.9955C29.2942 26 28.5441 25.79 28.2352 25.1604C28.085 24.8544 28 24.5079 28 24.1196C28 23.7897 28.078 23.468 28.234 23.1546C28.4074 22.8247 28.6154 22.5196 28.8582 22.2392L33.331 17.2412H29.4152C28.8776 17.2412 28.3522 16.9605 28.2117 16.4416C28.141 16.1805 28.104 15.9106 28.104 15.633C28.104 15.0557 28.234 14.6433 28.4941 14.3959C28.7715 14.132 29.1355 14 29.5863 14H36.6924Z"/></svg>