<!-- Copyright © Ewsgit 2022. -->
<!-- Licensed under the MIT License - https://ewsgit.github.io/devdash/copyright -->

<svg xmlns="http://www.w3.org/2000/svg" width="48" height="48" fill="none" viewBox="0 0 48 48"><path fill="#ACB4C9" d="M12.3791 3.01822C14.2183 2.86857 16.004 3.64909 17.2117 5.05289L18.9036 7.01953C19.6634 7.90267 20.767 8.41012 21.9279 8.41012H35.081C38.2031 8.41012 40.8024 10.8195 40.9015 13.9595C40.962 15.8748 41 18.1482 41 20.8373C41 27.8951 40.7381 32.0902 40.4961 34.46C40.3181 36.2026 39.1643 37.562 37.456 37.8994C34.8832 38.4076 30.1385 39 22 39C13.8615 39 9.11681 38.4076 6.54402 37.8994C4.8357 37.562 3.68186 36.2026 3.50391 34.46C3.26192 32.0902 3 27.8951 3 20.8373C3 13.7794 3.26192 9.58428 3.50391 7.2145C3.68186 5.47188 4.83692 4.11223 6.54525 3.77488C7.86435 3.5144 9.75411 3.2318 12.3791 3.01822Z"/><path fill="#576684" d="M33.2525 27.0147C33.9871 25.6618 36.0129 25.6618 36.7475 27.0147L38.869 30.9221L43.41 31.7763C44.9092 32.0583 45.5152 33.7934 44.4935 34.8789L41.2601 38.3143L41.8506 42.8856C42.043 44.3744 40.4227 45.4685 39.0177 44.7986L35 42.8829L30.9823 44.7986C29.5773 45.4685 27.957 44.3744 28.1494 42.8856L28.7399 38.3143L25.5065 34.8789C24.4848 33.7934 25.0908 32.0583 26.59 31.7763L31.131 30.9221L33.2525 27.0147Z"/></svg>