<!-- Copyright © Ewsgit 2022. -->
<!-- Licensed under the MIT License - https://ewsgit.github.io/devdash/copyright -->

<svg width="48" height="48" viewBox="0 0 48 48" fill="none" xmlns="http://www.w3.org/2000/svg">
<path d="M3.42809 21.114C2.62824 22.0183 2.99116 23.2487 4.16761 23.5025C5.08883 23.7013 6.3551 23.9231 8.06094 24.13C8.02039 25.4953 7.99565 27.0794 7.99565 28.9124C7.99565 33.7995 8.17148 36.917 8.35423 38.8373C8.52188 40.5991 9.71706 41.9412 11.453 42.2282C13.7098 42.6014 17.6147 43 23.9996 43C30.3844 43 34.2894 42.6014 36.5461 42.2282C38.2821 41.9412 39.4773 40.5991 39.6449 38.8373C39.8277 36.917 40.0035 33.7995 40.0035 28.9124C40.0035 27.0794 39.9788 25.4954 39.9382 24.1301C41.6443 23.9233 42.9108 23.7014 43.8322 23.5027C45.0089 23.2488 45.3718 22.018 44.5717 21.1137C43.1678 19.5269 40.5575 16.8216 36.0032 12.8124C30.7292 8.16951 27.1929 6.14975 25.3949 5.31228C24.5009 4.89585 23.4997 4.89591 22.6057 5.31242C20.808 6.14997 17.2721 8.16977 11.9974 12.8124C7.44193 16.8219 4.83163 19.5273 3.42809 21.114Z" fill="#ACB4C9"/>
<path d="M28.0147 28.8361C30.1097 27.5059 31.5 25.1653 31.5 22.5C31.5 18.3579 28.1421 15 24 15C19.8579 15 16.5 18.3579 16.5 22.5C16.5 25.1654 17.8904 27.506 19.9854 28.8362C17.0864 30.1013 14.8667 32.6952 14.0463 35.8761C13.8693 36.5623 14.2124 37.2924 14.8602 37.402C16.6625 37.7069 19.5519 38 23.9997 38C28.4476 38 31.3369 37.7069 33.1393 37.402C33.7875 37.2923 34.1308 36.5617 33.9536 35.8749C33.133 32.6945 30.9134 30.1011 28.0147 28.8361Z" fill="#576684"/>
</svg>