<!-- Copyright © Ewsgit 2022. -->
<!-- Licensed under the MIT License - https://ewsgit.github.io/devdash/copyright -->

<svg width="48" height="48" viewBox="0 0 48 48" fill="none" xmlns="http://www.w3.org/2000/svg">
<path d="M4.56198 39.315C4.73932 41.0322 5.86521 42.3915 7.55375 42.751C10.219 43.3184 15.2432 44 24 44C32.7568 44 37.781 43.3184 40.4463 42.751C42.1348 42.3915 43.2607 41.0322 43.438 39.315C43.701 36.7688 44 32.0939 44 24C44 15.9061 43.701 11.2312 43.438 8.68502C43.2607 6.96777 42.1348 5.60847 40.4462 5.24901C37.781 4.68162 32.7568 4 24 4C15.2432 4 10.219 4.68162 7.55375 5.24901C5.86521 5.60847 4.73932 6.96777 4.56198 8.68502C4.29904 11.2312 4 15.9061 4 24C4 32.0939 4.29904 36.7688 4.56198 39.315Z" fill="#ACB4C9"/>
<path d="M27.8763 27.7117C30.5259 26.3165 32.3325 23.5359 32.3325 20.3333C32.3325 15.731 28.6015 12 23.9991 12C19.3968 12 15.6658 15.731 15.6658 20.3333C15.6658 23.536 17.4725 26.3168 20.1223 27.7119C16.5738 29.0639 13.8643 32.2184 13.025 36.1058C12.9089 36.6438 13.2049 37.1961 13.7468 37.2942C15.6916 37.6461 18.9123 38 24.0012 38C29.09 38 32.3107 37.6461 34.2555 37.2942C34.7954 37.1965 35.0907 36.6463 34.9751 36.1102C34.1369 32.2206 31.4265 29.0641 27.8763 27.7117Z" fill="#576684"/>
</svg>