<!-- Copyright © Ewsgit 2022. -->
<!-- Licensed under the MIT License - https://ewsgit.github.io/devdash/copyright -->

<svg xmlns="http://www.w3.org/2000/svg" width="48" height="48" fill="none" viewBox="0 0 48 48"><path fill="#576684" fill-rule="evenodd" d="M23.0718 12C24.3867 12 25.4527 13.1453 25.4527 14.5582V22.9157C25.4527 23.1921 25.5549 23.4572 25.7368 23.6527L31.3027 29.633C32.2324 30.632 32.2324 32.2517 31.3027 33.2507C30.3729 34.2498 28.8654 34.2498 27.9356 33.2507L21.0561 27.1415C20.3292 26.4959 19.9385 25.5119 20.0079 24.5013L20.6909 14.5582C20.6909 13.1453 21.7568 12 23.0718 12Z" clip-rule="evenodd"/><path fill="#ACB4C9" d="M6.19183 35.7344C5.90461 35.2692 5.84572 34.6921 6.18573 34.2656C6.51277 33.8553 7.0774 33.3131 8.03927 32.7467C9.00115 32.1802 9.74375 31.9525 10.2556 31.8688C10.7878 31.7817 11.2385 32.1272 11.5327 32.5878C15.969 39.5339 25.0108 41.8013 32.1335 37.6067C39.5007 33.268 42.0249 23.6589 37.7715 16.1442C33.518 8.6294 24.0975 6.05465 16.7302 10.3933C15.5959 11.0613 14.5766 11.8537 13.6791 12.7441C14.8275 13.5411 15.7251 14.2421 16.42 14.8346C17.7254 15.9476 17.4022 17.7737 15.8573 18.5008C13.9612 19.3932 11.0524 20.5909 7.0528 21.7786C5.41922 22.2637 3.7307 21.2375 3.37126 19.5412C2.49121 15.388 2.13911 12.2087 2.00584 10.083C1.89727 8.35103 3.31777 7.1918 4.8988 7.83294C5.79884 8.19792 6.91618 8.71171 8.26577 9.43446C9.7709 7.69656 11.573 6.17355 13.6496 4.95062C23.9638 -1.1235 37.1524 2.48115 43.1073 13.0018C49.0622 23.5225 45.5283 36.9753 35.2141 43.0494C25.1444 48.9796 12.3348 45.6842 6.19183 35.7344Z"/></svg>