<!-- Copyright © Ewsgit 2022. -->
<!-- Licensed under the MIT License - https://ewsgit.github.io/devdash/copyright -->

<svg width="48" height="48" viewBox="0 0 48 48" fill="none" xmlns="http://www.w3.org/2000/svg">
<path d="M14.1076 13.1726C14.0481 13.1749 13.9889 13.1773 13.93 13.1796C7.60674 13.4352 3 17.6715 3 24C3 30.3285 7.60674 34.5648 13.93 34.8204C16.5886 34.9278 19.9004 35 24 35C28.0996 35 31.4114 34.9278 34.07 34.8204C40.3933 34.5648 45 30.3285 45 24C45 19.0633 42.1967 15.3997 37.962 13.9057C37.5188 7.59023 33.2256 3.04872 26.7173 3.00252C26.483 3.00085 26.2439 3 26 3C25.756 3 25.517 3.00085 25.2827 3.00252C19.0291 3.04691 14.8206 7.24164 14.1076 13.1726Z" fill="#ACB4C9"/>
<path d="M21.8901 29.0772C20.9862 29.1308 20.1979 29.734 19.8834 30.6248C18.8578 33.5297 18.3031 36.4098 18.0235 38.2477C17.8552 39.3545 18.6087 40.3401 19.6746 40.4125C20.5405 40.4712 21.6515 40.519 22.8997 40.5079C22.7123 41.6411 22.5064 43.0541 22.296 44.7931C22.0704 46.6578 24.0954 47.7391 25.3629 46.4111C27.7937 43.8643 30.0058 41.2278 31.5436 39.3184C32.5332 38.0896 31.822 36.351 30.289 36.3299C29.6656 36.3214 28.9526 36.3217 28.1458 36.3362C28.5584 34.7324 29.0241 32.8059 29.4123 30.9001C29.5977 29.9905 28.9715 29.1342 28.0862 29.0891C26.5606 29.0112 24.1893 28.9408 21.8901 29.0772Z" fill="#576684"/>
</svg>