<!-- Copyright © Ewsgit 2022. -->
<!-- Licensed under the MIT License - https://ewsgit.github.io/devdash/copyright -->

<svg xmlns="http://www.w3.org/2000/svg" width="48" height="48" fill="none" viewBox="0 0 48 48"><path fill="#ACB4C9" fill-rule="evenodd" d="M17.0476 45C9.28934 45 3 38.7107 3 30.9524C3 23.1941 9.28934 16.9047 17.0476 16.9047C18.3424 16.9047 19.5963 17.0799 20.7869 17.4078C21.1502 17.5079 21.5427 17.4162 21.8092 17.1497L34.585 4.37395C34.7177 4.24116 34.8591 4.11847 35.0255 4.03161C35.714 3.67243 37.9819 2.7794 43.1572 3.05042C44.1246 3.10108 44.8989 3.87541 44.9496 4.84284C45.2206 10.0181 44.3276 12.286 43.9684 12.9744C43.8815 13.1409 43.7589 13.2822 43.6261 13.415L42.4371 14.604C42.2489 14.7922 41.9937 14.8979 41.7276 14.8979H39.1225C38.5683 14.8979 38.1191 15.3471 38.1191 15.9013V17.9081C38.1191 18.4623 37.6699 18.9115 37.1157 18.9115H35.1089C34.5547 18.9115 34.1055 19.3608 34.1055 19.9149V22.52C34.1055 22.7861 33.9998 23.0413 33.8116 23.2295L30.8503 26.1909C30.5838 26.4573 30.4921 26.8498 30.5922 27.2131C30.9201 28.4037 31.0953 29.6576 31.0953 30.9524C31.0953 38.7106 24.8059 45 17.0476 45ZM9.73866 35.3521C9.73866 37.0146 11.0864 38.3624 12.7489 38.3624C14.4114 38.3624 15.7591 37.0146 15.7591 35.3521C15.7591 33.6896 14.4114 32.3419 12.7489 32.3419C11.0864 32.3419 9.73866 33.6896 9.73866 35.3521Z" clip-rule="evenodd"/></svg>