<!-- Copyright © Ewsgit 2022. -->
<!-- Licensed under the MIT License - https://ewsgit.github.io/devdash/copyright -->

<svg width="48" height="48" viewBox="0 0 48 48" fill="none" xmlns="http://www.w3.org/2000/svg">
<path d="M21.105 8.65487C21.7044 9.03568 21.8639 9.81782 21.5562 10.4578C21.1305 11.3435 20.6769 12.348 20.2194 13.4593C20.0823 13.7923 20.1388 14.1728 20.3734 14.4461C21.0193 15.1984 22.4635 16.803 24.3968 18.4861C24.7468 18.7908 24.8552 19.2935 24.6656 19.7171C24.1659 20.8334 23.2033 23.1574 22.4601 26.0072C22.2501 26.8124 22.921 27.215 23.4566 26.5781C24.5265 25.3059 26.2253 22.9357 28.681 18.5706C28.8744 18.2268 28.8472 17.7981 28.5935 17.4961C28.0292 16.8245 26.8991 15.5698 25.3393 14.2764C25.1466 14.1166 25.0952 13.8422 25.2274 13.6297C25.8216 12.6747 27.5074 10.0425 29.4242 7.74148C29.6142 7.51342 29.8701 7.34803 30.1591 7.28039C35.8724 5.94328 42.2214 9.47721 43.63 15.9866C44.483 19.6837 43.8449 23.6599 41.8839 26.8693C38.4523 32.4943 32.9191 36.8744 27.5215 40.8438C25.4253 42.3854 22.5747 42.3854 20.4785 40.8438C15.0809 36.8744 9.54764 32.4943 6.11609 26.8693C4.15503 23.6599 3.51705 19.6837 4.37 15.9866C6.05648 8.19313 14.8247 4.66483 21.105 8.65487Z" fill="#ACB4C9"/>
</svg>