<!-- Copyright © Ewsgit 2022. -->
<!-- Licensed under the MIT License - https://ewsgit.github.io/devdash/copyright -->

<svg width="48" height="48" viewBox="0 0 48 48" fill="none" xmlns="http://www.w3.org/2000/svg">
<path d="M3 24C3 35.598 12.402 45 24 45C35.598 45 45 35.598 45 24C45 12.402 35.598 3 24 3C12.402 3 3 12.402 3 24Z" fill="#ACB4C9"/>
<path d="M24.3593 24.6301C24.1623 24.8326 23.8377 24.8326 23.6407 24.6301C22.6504 23.6121 19.7545 20.6471 16.744 17.6751C16.0636 17.0034 15.0963 16.7435 14.3343 17.3123C14.0224 17.5451 13.669 17.8548 13.2897 18.2659C12.7734 18.8255 12.4281 19.3582 12.1985 19.8022C11.8226 20.5294 12.0143 21.3806 12.4909 22.0408C16.2209 27.2088 20.248 30.7332 22.4103 32.4377C23.3614 33.1874 24.6386 33.1874 25.5897 32.4377C27.752 30.7332 31.7791 27.2088 35.5091 22.0408C35.9857 21.3806 36.1774 20.5294 35.8015 19.8022C35.5719 19.3582 35.2266 18.8255 34.7103 18.2659C34.331 17.8548 33.9776 17.5451 33.6657 17.3123C32.9037 16.7435 31.9364 17.0034 31.2561 17.6751C28.2455 20.6471 25.3496 23.6121 24.3593 24.6301Z" fill="#576684"/>
</svg>