<!-- Copyright © Ewsgit 2022. -->
<!-- Licensed under the MIT License - https://ewsgit.github.io/devdash/copyright -->

<svg width="48" height="48" viewBox="0 0 48 48" fill="none" xmlns="http://www.w3.org/2000/svg">
<path d="M21.3733 5.54904C22.5193 3.48365 25.4807 3.48365 26.6267 5.54904L31.2213 13.8295L40.5335 15.5435C42.8926 15.9777 43.8197 18.8725 42.1543 20.6039L35.6843 27.3302L36.9059 36.583C37.2174 38.9425 34.8092 40.7172 32.6579 39.7135L24 35.674L15.3421 39.7135C13.1908 40.7172 10.7826 38.9425 11.0941 36.583L12.3157 27.3302L5.84574 20.6039C4.18026 18.8725 5.10742 15.9777 7.46654 15.5435L16.7787 13.8295L21.3733 5.54904Z" fill="#ACB4C9"/>
<path d="M14.8601 6.75534C14.3756 5.24795 13.0491 4.50049 11.7205 5.36837C11.4578 5.53998 11.1688 5.73855 10.8514 5.96829C10.5341 6.19802 10.2552 6.41053 10.0102 6.60642C8.77119 7.59708 9.07479 9.08498 10.364 10.0099L12.5714 11.5934C13.2128 12.0536 14.0008 12.3987 14.7069 12.0447C14.8349 11.9806 14.9686 11.9008 15.1054 11.8018C15.2422 11.7027 15.3597 11.6007 15.4605 11.4992C16.0166 10.9396 15.9307 10.0862 15.6896 9.33624L14.8601 6.75534Z" fill="#576684"/>
<path d="M26.7786 42.0157C27.2759 43.519 26.6437 44.9005 25.0569 44.9764C24.7431 44.9914 24.3921 45 23.9998 45C23.6075 45 23.2565 44.9914 22.9428 44.9764C21.3559 44.9005 20.7237 43.519 21.2211 42.0157L22.0726 39.442C22.3201 38.6941 22.754 37.9534 23.534 37.8263C23.6755 37.8032 23.8307 37.7894 23.9998 37.7894C24.1689 37.7894 24.3242 37.8032 24.4656 37.8263C25.2457 37.9534 25.6796 38.6941 25.927 39.442L26.7786 42.0157Z" fill="#576684"/>
<path d="M36.467 5.36837C35.1385 4.50049 33.812 5.24795 33.3275 6.75534L32.4979 9.33624C32.2569 10.0862 32.1709 10.9396 32.727 11.4992C32.8279 11.6007 32.9453 11.7027 33.0821 11.8018C33.2189 11.9008 33.3527 11.9806 33.4807 12.0447C34.1868 12.3987 34.9748 12.0536 35.6162 11.5934L37.8236 10.0099C39.1128 9.08498 39.4164 7.59708 38.1774 6.60642C37.9324 6.41053 37.6535 6.19802 37.3361 5.96829C37.0188 5.73855 36.7297 5.53998 36.467 5.36837Z" fill="#576684"/>
<path d="M42.618 26.5504C44.2066 26.5436 45.33 27.5696 44.9121 29.0966C44.8295 29.3986 44.7292 29.7338 44.608 30.1055C44.4868 30.4772 44.3701 30.8071 44.2588 31.0998C43.696 32.58 42.1819 32.7521 40.9006 31.8163L38.7069 30.2141C38.0694 29.7485 37.4964 29.1085 37.6161 28.3301C37.6378 28.1889 37.6727 28.0376 37.7249 27.8773C37.7772 27.7171 37.8383 27.5743 37.904 27.4474C38.2664 26.7475 39.1075 26.5652 39.8979 26.5619L42.618 26.5504Z" fill="#576684"/>
<path d="M3.08788 29.0966C2.66996 27.5696 3.79338 26.5436 5.38203 26.5504L8.10206 26.5619C8.89246 26.5652 9.73362 26.7475 10.096 27.4474C10.1617 27.5743 10.2228 27.7171 10.2751 27.8773C10.3273 28.0376 10.3622 28.1889 10.3839 28.3301C10.5036 29.1085 9.93061 29.7485 9.29314 30.2141L7.09939 31.8163C5.81812 32.7521 4.30397 32.58 3.74118 31.0998C3.62989 30.8071 3.51321 30.4772 3.39198 30.1055C3.27075 29.7338 3.17052 29.3986 3.08788 29.0966Z" fill="#576684"/>
</svg>