<!-- Copyright © Ewsgit 2022. -->
<!-- Licensed under the MIT License - https://ewsgit.github.io/devdash/copyright -->

<svg width="48" height="48" viewBox="0 0 48 48" fill="none" xmlns="http://www.w3.org/2000/svg">
<circle r="20" transform="matrix(-1 0 0 1 24 24)" fill="#ACB4C9"/>
<path d="M20.0989 14.5345C21.6193 13.3907 23.4626 14.175 23.5825 16.0093C23.6524 17.0789 23.7146 18.4454 23.7526 20.1782C28.3482 20.239 32.6929 20.41 34.8837 20.5369C36.2918 20.6184 36.827 21.4444 36.951 22.774C36.9814 23.0989 37 23.4633 37 23.8681C37 24.317 36.9771 24.7162 36.9407 25.0671C36.809 26.3384 36.3444 27.1457 35 27.2638C32.8238 27.4549 28.4306 27.719 23.7528 27.8119C23.7149 29.5492 23.6526 30.9187 23.5825 31.9904C23.4626 33.825 21.6188 34.6094 20.0981 33.4654C19.0725 32.6939 17.7736 31.6605 16.1772 30.2925C13.7284 28.1941 12.3296 26.6205 11.5432 25.5718C10.8189 24.6059 10.819 23.395 11.5433 22.4291C12.3298 21.3805 13.7285 19.8069 16.1772 17.7083C17.774 16.3397 19.0731 15.3061 20.0989 14.5345Z" fill="#576684"/>
</svg>