<!-- Copyright © Ewsgit 2022. -->
<!-- Licensed under the MIT License - https://ewsgit.github.io/devdash/copyright -->

<svg xmlns="http://www.w3.org/2000/svg" width="48" height="48" fill="none" viewBox="0 0 48 48"><path fill="#ACB4C9" d="M3 24C3 35.598 12.402 45 24 45C35.598 45 45 35.598 45 24C45 12.402 35.598 3 24 3C12.402 3 3 12.402 3 24Z"/><path fill="#576684" d="M17 19.5C17 20.8807 15.8807 22 14.5 22C13.1193 22 12 20.8807 12 19.5C12 18.1193 13.1193 17 14.5 17C15.8807 17 17 18.1193 17 19.5Z"/><path fill="#576684" d="M19 28.5C19.8284 28.5 20.5 29.1716 20.5 30C20.5 31.933 22.067 33.5 24 33.5C25.933 33.5 27.5 31.933 27.5 30C27.5 29.1716 28.1716 28.5 29 28.5C29.8284 28.5 30.5 29.1716 30.5 30C30.5 33.5899 27.5899 36.5 24 36.5C20.4101 36.5 17.5 33.5899 17.5 30C17.5 29.1716 18.1716 28.5 19 28.5Z"/><path fill="#576684" d="M33.5 22C34.8807 22 36 20.8807 36 19.5C36 18.1193 34.8807 17 33.5 17C32.1193 17 31 18.1193 31 19.5C31 20.8807 32.1193 22 33.5 22Z"/></svg>