<!-- Copyright © Ewsgit 2022. -->
<!-- Licensed under the MIT License - https://ewsgit.github.io/devdash/copyright -->

<svg xmlns="http://www.w3.org/2000/svg" width="48" height="48" fill="none" viewBox="0 0 48 48"><path fill="#ACB4C9" d="M24 3C35.598 3 45 12.402 45 24C45 35.598 35.598 45 24 45C12.402 45 3 35.598 3 24C3 12.402 12.402 3 24 3Z"/><path fill="#576684" d="M36.6739 18.8954C35.1088 16.5677 32.4912 13.2469 29.2123 11.244C28.1708 10.6078 26.9228 11.2812 26.7559 12.5062C26.5228 14.2178 26.4062 15.8798 26.4062 15.8798L14.3217 16.3442C13.4579 16.3774 12.544 16.6208 12.2397 17.4448C12.1013 17.8198 12 18.3168 12 18.9685C12 19.6903 12.1242 20.2223 12.2856 20.609C12.5925 21.3444 13.407 21.5738 14.1902 21.6235C17.3228 21.8222 26.2295 22.2807 35.2299 21.7592C36.6781 21.6753 37.4935 20.1143 36.6739 18.8954Z"/><path fill="#576684" d="M11.3261 29.1046C12.8912 31.4323 15.5088 34.7531 18.7877 36.756C19.8292 37.3922 21.0772 36.7188 21.2441 35.4938C21.4772 33.7822 21.5938 32.1202 21.5938 32.1202L33.6783 31.6558C34.5421 31.6226 35.4561 31.3792 35.7603 30.5552C35.8987 30.1802 36 29.6832 36 29.0315C36 28.3097 35.8758 27.7777 35.7144 27.3911C35.4075 26.6556 34.593 26.4262 33.8098 26.3765C30.6772 26.1778 21.7705 25.7193 12.7701 26.2408C11.3219 26.3247 10.5065 27.8857 11.3261 29.1046Z"/></svg>