<!-- Copyright © Ewsgit 2022. -->
<!-- Licensed under the MIT License - https://ewsgit.github.io/devdash/copyright -->

<svg width="48" height="48" viewBox="0 0 48 48" fill="none" xmlns="http://www.w3.org/2000/svg">
<path d="M4.56198 39.315C4.73932 41.0322 5.86521 42.3915 7.55375 42.751C10.219 43.3184 15.2432 44 24 44C32.7568 44 37.781 43.3184 40.4463 42.751C42.1348 42.3915 43.2607 41.0322 43.438 39.315C43.701 36.7688 44 32.0939 44 24C44 15.9061 43.701 11.2312 43.438 8.68502C43.2607 6.96777 42.1348 5.60847 40.4462 5.24901C37.781 4.68162 32.7568 4 24 4C15.2432 4 10.219 4.68162 7.55375 5.24901C5.86521 5.60847 4.73932 6.96777 4.56198 8.68502C4.29904 11.2312 4 15.9061 4 24C4 32.0939 4.29904 36.7688 4.56198 39.315Z" fill="#ACB4C9"/>
<path d="M4.01456 27H13C13.8204 27 14.5885 26.5975 15.0555 25.923L17.1522 22.8945L21.7639 32.118C22.1985 32.9871 23.0972 33.5257 24.0684 33.4991C25.0397 33.4725 25.9076 32.8855 26.2939 31.994L30.5939 22.0709L32.238 25.5645C32.6503 26.4407 33.5316 27 34.5 27H43.9854C43.9949 26.0564 44 25.0574 44 24C44 23.3087 43.9978 22.6423 43.9937 22H36.0865L32.762 14.9355C32.3437 14.0466 31.4436 13.4851 30.4613 13.5003C29.4791 13.5155 28.5967 14.1046 28.2061 15.006L23.8381 25.086L19.7361 16.882C19.341 16.0919 18.5583 15.5689 17.6772 15.5063C16.7961 15.4437 15.9473 15.8507 15.4445 16.577L11.6901 22H4.00634C4.00218 22.6423 4 23.3087 4 24C4 25.0574 4.0051 26.0564 4.01456 27Z" fill="#576684"/>
</svg>