<!-- Copyright © Ewsgit 2022. -->
<!-- Licensed under the MIT License - https://ewsgit.github.io/devdash/copyright -->

<svg width="48" height="48" viewBox="0 0 48 48" fill="none" xmlns="http://www.w3.org/2000/svg">
<path d="M28.2953 24.7503C30.5227 23.33 32 20.8375 32 18C32 13.5817 28.4183 10 24 10C19.5817 10 16 13.5817 16 18C16 20.8375 17.4773 23.33 19.7047 24.7503C15.9922 26.0971 13.1264 29.1393 12.0983 32.9111C11.6148 34.685 12.9757 36.2849 14.8449 36.5097C16.8968 36.7564 19.9485 37 24 37C28.0515 37 31.1032 36.7564 33.1551 36.5097C35.0243 36.2849 36.3852 34.685 35.9017 32.9111C34.8736 29.1393 32.0078 26.0971 28.2953 24.7503Z" fill="#ACB4C9"/>
<path d="M4.79093 2.18249C3.40492 2.3155 2.31553 3.40488 2.1825 4.79089C1.79128 8.86709 2.11876 12.6323 2.33305 14.4225C2.41565 15.1126 2.85227 15.7127 3.5306 15.8642C4.1288 15.9977 4.92932 16.0776 5.78735 15.8866C6.46577 15.7355 6.89942 15.1127 6.98399 14.4228C7.24448 12.2977 7.3295 9.8356 7.35725 8.45479C7.3693 7.85501 7.85511 7.3692 8.45489 7.35714C9.83568 7.3294 12.2978 7.24439 14.4228 6.98394C15.1127 6.89939 15.7355 6.46574 15.8866 5.78729C16.0776 4.92928 15.9977 4.12877 15.8642 3.53058C15.7127 2.85223 15.1126 2.41561 14.4225 2.33302C12.6322 2.11875 8.86713 1.7913 4.79093 2.18249Z" fill="#576684"/>
<path d="M43.2091 2.18249C44.5951 2.3155 45.6845 3.40488 45.8175 4.79089C46.2087 8.86709 45.8812 12.6323 45.667 14.4225C45.5844 15.1126 45.1477 15.7127 44.4694 15.8642C43.8712 15.9977 43.0707 16.0776 42.2127 15.8866C41.5342 15.7355 41.1006 15.1127 41.016 14.4228C40.7555 12.2977 40.6705 9.8356 40.6428 8.45479C40.6307 7.85501 40.1449 7.3692 39.5451 7.35714C38.1643 7.3294 35.7022 7.24439 33.5772 6.98394C32.8873 6.89939 32.2645 6.46574 32.1134 5.78729C31.9224 4.92928 32.0023 4.12877 32.1358 3.53058C32.2873 2.85223 32.8874 2.41561 33.5775 2.33302C35.3678 2.11875 39.1329 1.7913 43.2091 2.18249Z" fill="#576684"/>
<path d="M45.8175 43.2091C45.6845 44.5951 44.5951 45.6845 43.2091 45.8175C39.1329 46.2087 35.3678 45.8813 33.5775 45.667C32.8874 45.5844 32.2873 45.1478 32.1358 44.4694C32.0023 43.8712 31.9224 43.0707 32.1134 42.2127C32.2645 41.5343 32.8873 41.1006 33.5772 41.0161C35.7022 40.7556 38.1643 40.6706 39.5451 40.6429C40.1449 40.6308 40.6307 40.145 40.6428 39.5452C40.6705 38.1644 40.7555 35.7023 41.016 33.5772C41.1006 32.8873 41.5342 32.2645 42.2127 32.1134C43.0707 31.9224 43.8712 32.0023 44.4694 32.1358C45.1477 32.2873 45.5844 32.8874 45.667 33.5775C45.8812 35.3677 46.2087 39.1329 45.8175 43.2091Z" fill="#576684"/>
<path d="M4.79093 45.8175C3.40492 45.6845 2.31553 44.5951 2.1825 43.2091C1.79128 39.1329 2.11876 35.3677 2.33305 33.5775C2.41565 32.8874 2.85226 32.2873 3.5306 32.1358C4.12879 32.0023 4.92932 31.9224 5.78735 32.1134C6.46577 32.2645 6.89942 32.8873 6.98398 33.5772C7.24448 35.7023 7.3295 38.1644 7.35725 39.5452C7.3693 40.145 7.85511 40.6308 8.45489 40.6429C9.83568 40.6706 12.2978 40.7556 14.4228 41.0161C15.1127 41.1006 15.7355 41.5343 15.8866 42.2127C16.0776 43.0707 15.9977 43.8712 15.8642 44.4694C15.7127 45.1478 15.1126 45.5844 14.4225 45.667C12.6322 45.8813 8.86713 46.2087 4.79093 45.8175Z" fill="#576684"/>
</svg>