<!-- Copyright © Ewsgit 2022. -->
<!-- Licensed under the MIT License - https://ewsgit.github.io/devdash/copyright -->

<svg width="48" height="48" viewBox="0 0 48 48" fill="none" xmlns="http://www.w3.org/2000/svg">
<path d="M4 24C4 35.0457 12.9543 44 24 44C35.0457 44 44 35.0457 44 24C44 12.9543 35.0457 4 24 4C12.9543 4 4 12.9543 4 24Z" fill="#ACB4C9"/>
<path d="M29.1046 36.6739C31.4323 35.1088 34.7531 32.4912 36.756 29.2123C37.3922 28.1708 36.7188 26.9228 35.4938 26.7559C33.7822 26.5228 32.1202 26.4062 32.1202 26.4062L31.6558 14.3217C31.6226 13.4579 31.3792 12.544 30.5552 12.2397C30.1802 12.1013 29.6832 12 29.0315 12C28.3097 12 27.7777 12.1242 27.391 12.2856C26.6556 12.5925 26.4262 13.407 26.3765 14.1902C26.1778 17.3228 25.7193 26.2295 26.2408 35.2299C26.3247 36.6781 27.8857 37.4935 29.1046 36.6739Z" fill="#576684"/>
<path d="M18.8954 11.3261C16.5677 12.8912 13.2469 15.5088 11.244 18.7877C10.6078 19.8292 11.2812 21.0772 12.5062 21.2441C14.2178 21.4772 15.8798 21.5938 15.8798 21.5938L16.3442 33.6783C16.3774 34.5421 16.6208 35.456 17.4448 35.7603C17.8198 35.8987 18.3168 36 18.9685 36C19.6903 36 20.2223 35.8758 20.6089 35.7144C21.3444 35.4075 21.5738 34.593 21.6235 33.8098C21.8222 30.6772 22.2807 21.7705 21.7592 12.7701C21.6753 11.3219 20.1143 10.5065 18.8954 11.3261Z" fill="#576684"/>
</svg>