<!-- Copyright © Ewsgit 2022. -->
<!-- Licensed under the MIT License - https://ewsgit.github.io/devdash/copyright -->

<svg xmlns="http://www.w3.org/2000/svg" width="48" height="48" fill="none" viewBox="0 0 48 48"><path fill="#ACB4C9" d="M4.65388 8.57316C4.84496 6.92575 5.84441 5.56573 7.46374 5.20762C9.9896 4.64902 14.8855 4 24 4C33.1145 4 38.0104 4.64902 40.5363 5.20762C42.1556 5.56573 43.155 6.92575 43.3461 8.57316C43.6351 11.0644 44 15.1673 44 20C44 29.0284 39.2351 37.4764 31.2074 41.6079C28.5258 42.988 25.9087 44 24 44C22.0913 44 19.4742 42.988 16.7926 41.6079C8.76493 37.4764 4 29.0284 4 20C4 15.1673 4.36493 11.0644 4.65388 8.57316Z"/><path fill="#576684" fill-rule="evenodd" d="M35.068 14.8017C35.1276 14.8464 35.1911 14.8857 35.2542 14.9253C36.0066 15.3982 36.2339 16.3732 35.7317 17.1051C31.4071 23.4067 27.3712 27.5614 25.3892 29.4454C24.655 30.1432 23.5227 30.1901 22.7405 29.542C21.093 28.1767 18.1858 25.518 15.2999 21.6633C14.84 21.0489 14.9189 20.208 15.4687 19.6659L16.7417 18.4104C17.3609 17.7997 18.3725 17.7628 19.0115 18.3545C21.699 20.843 24.1087 23.6982 24.1087 23.6982C24.1087 23.6982 27.3909 19.0482 31.9921 14.2933C32.4826 13.7864 33.2568 13.6554 33.8998 13.9498C33.9676 13.9809 34.0299 14.0222 34.0895 14.0669L35.068 14.8017Z" clip-rule="evenodd"/></svg>