<!-- Copyright © Ewsgit 2022. -->
<!-- Licensed under the MIT License - https://ewsgit.github.io/devdash/copyright -->

<svg xmlns="http://www.w3.org/2000/svg" width="48" height="48" fill="none" viewBox="0 0 48 48"><path fill="#576684" d="M44 24C44 35.0457 35.0457 44 24 44C12.9543 44 4 35.0457 4 24C4 12.9543 12.9543 4 24 4C35.0457 4 44 12.9543 44 24Z"/><path fill="#ACB4C9" d="M28.8038 34.9998C33.0399 33.1472 36 28.9193 36 24C36 21.9802 35.501 20.0769 34.6195 18.4067C35.4988 16.8339 36 15.0209 36 13.0909C36 12.4884 35.5116 12 34.9091 12H24C17.3726 12 12 17.3726 12 24C12 28.9196 14.9604 33.1477 19.197 35.0002C16.5587 36.154 14.4154 38.2291 13.1738 40.8189C16.2944 42.8318 20.0111 44 24.0008 44C27.9904 44 31.7071 42.8318 34.8277 40.8189C33.586 38.2289 31.4424 36.1536 28.8038 34.9998Z"/><path fill="#576684" fill-rule="evenodd" d="M21 27C21.5523 27 22 27.4477 22 28C22 29.1046 22.8954 30 24 30C25.1046 30 26 29.1046 26 28C26 27.4477 26.4477 27 27 27C27.5523 27 28 27.4477 28 28C28 30.2091 26.2091 32 24 32C21.7909 32 20 30.2091 20 28C20 27.4477 20.4477 27 21 27Z" clip-rule="evenodd"/><path fill="#576684" d="M20 21.5C20 22.3284 19.3284 23 18.5 23C17.6716 23 17 22.3284 17 21.5C17 20.6716 17.6716 20 18.5 20C19.3284 20 20 20.6716 20 21.5Z"/><path fill="#576684" d="M31 21.5C31 22.3284 30.3284 23 29.5 23C28.6716 23 28 22.3284 28 21.5C28 20.6716 28.6716 20 29.5 20C30.3284 20 31 20.6716 31 21.5Z"/></svg>