<!-- Copyright © Ewsgit 2022. -->
<!-- Licensed under the MIT License - https://ewsgit.github.io/devdash/copyright -->

<svg width="48" height="48" viewBox="0 0 48 48" fill="none" xmlns="http://www.w3.org/2000/svg">
<path fill-rule="evenodd" clip-rule="evenodd" d="M41 30C41.8284 30 42.5 30.6716 42.5 31.5C42.5 39.5081 36.0081 46 28 46C27.1716 46 26.5 45.3284 26.5 44.5C26.5 43.6716 27.1716 43 28 43C34.3513 43 39.5 37.8513 39.5 31.5C39.5 30.6716 40.1716 30 41 30Z" fill="#576684"/>
<path fill-rule="evenodd" clip-rule="evenodd" d="M22.9634 10C17.5505 10 12.9422 13.9378 12.098 19.2844L10.9637 26.4679C10.7053 28.1045 9.16913 29.2217 7.53255 28.9633C5.89597 28.7049 4.77874 27.1687 5.03715 25.5321L6.17138 18.3486C7.47605 10.0857 14.5981 4 22.9634 4H25.0375C33.4028 4 40.5248 10.0858 41.8295 18.3486L42.9637 25.5321C43.2221 27.1687 42.1049 28.7049 40.4683 28.9633C38.8317 29.2217 37.2956 28.1045 37.0371 26.4679L35.9029 19.2844C35.0587 13.9378 30.4503 10 25.0375 10H22.9634Z" fill="#576684"/>
<path d="M6.95504 35.3253C5.89564 35.1181 4.97451 34.4752 4.66894 33.4399C4.33775 32.3177 4 30.5486 4 28C4 25.4514 4.33775 23.6823 4.66894 22.5601C4.97451 21.5248 5.89564 20.8819 6.95504 20.6747C8.54798 20.3631 11.1249 19.8627 13.9429 19.3302C15.0605 19.119 16.1112 19.5263 16.3831 20.6306C16.6967 21.9046 17 24.1356 17 28C17 31.8644 16.6967 34.0954 16.3831 35.3694C16.1112 36.4737 15.0605 36.881 13.9429 36.6698C11.1249 36.1373 8.54797 35.6369 6.95504 35.3253Z" fill="#ACB4C9"/>
<path d="M12.2812 36.3542C12.1467 34.906 12 32.3331 12 27.9999C12 23.6667 12.1467 21.0938 12.2812 19.6456C12.8214 19.5425 13.3773 19.4369 13.9429 19.3301C15.0605 19.1189 16.1112 19.5262 16.3831 20.6305C16.6967 21.9045 17 24.1355 17 27.9999C17 31.8642 16.6967 34.0953 16.3831 35.3692C16.1112 36.4735 15.0605 36.8809 13.9429 36.6697C13.3773 36.5628 12.8214 36.4572 12.2812 36.3542Z" fill="#576684"/>
<path d="M41.045 20.6747C42.1044 20.8819 43.0255 21.5248 43.3311 22.5601C43.6622 23.6823 44 25.4514 44 28C44 30.5486 43.6622 32.3177 43.3311 33.4399C43.0255 34.4752 42.1044 35.1181 41.045 35.3253C39.452 35.6369 36.8751 36.1373 34.0571 36.6698C32.9395 36.881 31.8888 36.4737 31.6169 35.3694C31.3033 34.0954 31 31.8644 31 28C31 24.1356 31.3033 21.9046 31.6169 20.6306C31.8888 19.5263 32.9395 19.119 34.0571 19.3302C36.8751 19.8627 39.452 20.3631 41.045 20.6747Z" fill="#ACB4C9"/>
<path d="M35.7188 19.6456C35.8533 21.0938 36 23.6667 36 27.9999C36 32.3331 35.8533 34.906 35.7188 36.3542C35.1786 36.4572 34.6227 36.5628 34.0571 36.6697C32.9395 36.8809 31.8888 36.4735 31.6169 35.3692C31.3033 34.0953 31 31.8642 31 27.9999C31 24.1355 31.3033 21.9045 31.617 20.6305C31.8888 19.5262 32.9395 19.1189 34.0571 19.3301C34.6227 19.4369 35.1786 19.5425 35.7188 19.6456Z" fill="#576684"/>
</svg>