<!-- Copyright © Ewsgit 2022. -->
<!-- Licensed under the MIT License - https://ewsgit.github.io/devdash/copyright -->

<svg width="48" height="48" viewBox="0 0 48 48" fill="none" xmlns="http://www.w3.org/2000/svg">
<circle cx="24" cy="39" r="8" fill="#576684"/>
<path d="M38.9515 18.9516C38.3035 11.0657 31.803 5 24 5C16.197 5 9.69655 11.0657 9.04854 18.9516L8.52774 25.2895C8.32715 27.7306 7.57658 30.0923 6.33388 32.1927L4.68307 34.9829C3.28629 37.3438 4.0594 39.7716 6.74805 40.1533C9.87532 40.5973 15.1509 41 24 41C32.8491 41 38.1247 40.5973 41.252 40.1533C43.9406 39.7716 44.7137 37.3438 43.3169 34.9829L41.6661 32.1927C40.4234 30.0923 39.6728 27.7306 39.4723 25.2895L38.9515 18.9516Z" fill="#ACB4C9"/>
<path fill-rule="evenodd" clip-rule="evenodd" d="M5.32685 18.9809C6.06299 18.9134 6.51797 18.2316 6.62087 17.4995C7.36393 12.2137 10.0993 7.66854 14.218 4.8329C14.7288 4.48126 15.1272 3.92234 14.9622 3.32458C14.7446 2.53598 14.197 1.87036 13.7005 1.39985C13.1569 0.884708 12.338 0.883093 11.7233 1.31106C6.83522 4.7148 2.95246 10.6523 2.0192 16.9279C1.90233 17.7137 2.32217 18.4796 3.08264 18.7097C3.70879 18.8991 4.51114 19.0556 5.32685 18.9809Z" fill="#576684"/>
<path fill-rule="evenodd" clip-rule="evenodd" d="M42.6732 18.9809C41.937 18.9134 41.482 18.2316 41.3791 17.4995C40.6361 12.2137 37.9007 7.66854 33.782 4.8329C33.2712 4.48126 32.8728 3.92234 33.0378 3.32458C33.2554 2.53598 33.803 1.87036 34.2995 1.39985C34.8431 0.884708 35.662 0.883093 36.2767 1.31106C41.1648 4.7148 45.0475 10.6523 45.9808 16.9279C46.0977 17.7137 45.6778 18.4796 44.9174 18.7097C44.2912 18.8991 43.4889 19.0556 42.6732 18.9809Z" fill="#576684"/>
</svg>