<!-- Copyright © Ewsgit 2022. -->
<!-- Licensed under the MIT License - https://ewsgit.github.io/devdash/copyright -->

<svg xmlns="http://www.w3.org/2000/svg" width="48" height="48" fill="none" viewBox="0 0 48 48"><path fill="#ACB4C9" d="M4.19222 33.0465C4.45391 31.8786 5.58469 31.3414 6.78013 31.2822C9.16381 31.1642 14.2355 31 24 31C33.7645 31 38.8362 31.1642 41.2199 31.2822C42.4153 31.3414 43.5461 31.8786 43.8078 33.0465C43.9207 33.5503 44 34.1918 44 35C44 35.8082 43.9207 36.4497 43.8078 36.9535C43.5461 38.1214 42.4153 38.6586 41.2199 38.7178C38.8362 38.8358 33.7645 39 24 39C14.2355 39 9.16381 38.8358 6.78013 38.7178C5.58469 38.6586 4.45391 38.1214 4.19222 36.9535C4.07934 36.4497 4 35.8082 4 35C4 34.1918 4.07934 33.5503 4.19222 33.0465Z"/><circle cx="18" cy="35" r="9" fill="#576684"/><circle cx="18" cy="35" r="3" fill="#ACB4C9"/><path fill="#ACB4C9" d="M43.8078 11.0465C43.5461 9.87857 42.4153 9.34142 41.2199 9.28224C38.8362 9.16425 33.7645 9 24 9C14.2355 9 9.16381 9.16425 6.78012 9.28224C5.58469 9.34142 4.45391 9.87857 4.19222 11.0465C4.07934 11.5503 4 12.1918 4 13C4 13.8082 4.07934 14.4497 4.19222 14.9535C4.45391 16.1214 5.58469 16.6586 6.78013 16.7178C9.16381 16.8358 14.2355 17 24 17C33.7645 17 38.8362 16.8358 41.2199 16.7178C42.4153 16.6586 43.5461 16.1214 43.8078 14.9535C43.9207 14.4497 44 13.8082 44 13C44 12.1918 43.9207 11.5503 43.8078 11.0465Z"/><circle r="9" fill="#576684" transform="matrix(-1 0 0 1 30 13)"/><circle r="3" fill="#ACB4C9" transform="matrix(-1 0 0 1 30 13)"/></svg>