<!-- Copyright © Ewsgit 2022. -->
<!-- Licensed under the MIT License - https://ewsgit.github.io/devdash/copyright -->

<svg xmlns="http://www.w3.org/2000/svg" width="48" height="48" fill="none" viewBox="0 0 48 48"><path fill="#ACB4C9" fill-rule="evenodd" d="M36.0651 12H33.8469V8H36.0651C38.6275 8 40.8289 9.99654 40.9342 12.6746C40.9925 14.1562 41.0309 16.0836 40.9667 18.0752C40.8769 20.8595 38.825 23.022 36.2765 23.5334C33.5332 24.0838 29.0151 25.0163 23.4965 26.2527C22.6026 26.4529 21.9617 27.2574 21.9617 28.1929V40H18V28.1929C18 25.3932 19.9205 22.9565 22.6383 22.3477C28.1911 21.1036 32.7385 20.165 35.5043 19.6101C36.4062 19.4291 36.9824 18.7108 37.007 17.9451C37.0672 16.08 37.0315 14.2545 36.9756 12.8333C36.9583 12.3932 36.5933 12 36.0651 12Z" clip-rule="evenodd"/><path fill="#576684" d="M35.8658 5.75088C35.7672 4.45537 34.8484 3.52763 33.5548 3.40648C31.5086 3.21484 27.5344 3 20 3C12.4656 3 8.49144 3.21484 6.44518 3.40648C5.15159 3.52763 4.23277 4.45537 4.1342 5.75088C4.06037 6.72113 4 8.09647 4 10C4 11.9035 4.06037 13.2789 4.1342 14.2491C4.23277 15.5446 5.15159 16.4724 6.44518 16.5935C8.49144 16.7852 12.4656 17 20 17C27.5344 17 31.5086 16.7852 33.5548 16.5935C34.8484 16.4724 35.7672 15.5446 35.8658 14.2491C35.9396 13.2789 36 11.9035 36 10C36 8.09647 35.9396 6.72113 35.8658 5.75088Z"/><path fill="#576684" d="M17.3696 28.0969C16.1719 28.199 15.337 29.0849 15.2247 30.2816C15.1087 31.5176 15 33.4811 15 36.5C15 39.5189 15.1087 41.4824 15.2247 42.7184C15.337 43.9151 16.1719 44.801 17.3696 44.9031C18.0254 44.959 18.8861 45 20 45C21.1139 45 21.9746 44.959 22.6304 44.9031C23.8281 44.801 24.663 43.9151 24.7753 42.7184C24.8913 41.4824 25 39.5189 25 36.5C25 33.4811 24.8913 31.5176 24.7753 30.2816C24.663 29.0849 23.8281 28.199 22.6304 28.0969C21.9746 28.041 21.1139 28 20 28C18.8861 28 18.0254 28.041 17.3696 28.0969Z"/></svg>