<!-- Copyright © Ewsgit 2022. -->
<!-- Licensed under the MIT License - https://ewsgit.github.io/devdash/copyright -->

<svg xmlns="http://www.w3.org/2000/svg" width="48" height="48" fill="none" viewBox="0 0 48 48"><path fill="#ACB4C9" d="M24 3C12.402 3 3 12.402 3 24C3 35.598 12.402 45 24 45C35.598 45 45 35.598 45 24C45 12.402 35.598 3 24 3Z"/><path fill="#576684" d="M23.3699 24.3593C23.1674 24.1623 23.1674 23.8377 23.3699 23.6407C24.3879 22.6504 27.3529 19.7545 30.3249 16.744C30.9966 16.0636 31.2565 15.0963 30.6877 14.3343C30.4549 14.0224 30.1452 13.669 29.7341 13.2897C29.1745 12.7734 28.6418 12.4281 28.1978 12.1985C27.4706 11.8226 26.6194 12.0143 25.9592 12.4909C20.7912 16.2209 17.2668 20.248 15.5623 22.4103C14.8126 23.3614 14.8126 24.6386 15.5623 25.5897C17.2668 27.752 20.7912 31.7791 25.9592 35.5091C26.6194 35.9857 27.4706 36.1774 28.1978 35.8015C28.6418 35.5719 29.1745 35.2266 29.7341 34.7103C30.1452 34.331 30.4549 33.9776 30.6877 33.6657C31.2565 32.9037 30.9966 31.9364 30.3249 31.2561C27.3529 28.2455 24.3879 25.3496 23.3699 24.3593Z"/></svg>