<!-- Copyright © Ewsgit 2022. -->
<!-- Licensed under the MIT License - https://ewsgit.github.io/devdash/copyright -->

<svg width="48" height="48" viewBox="0 0 48 48" fill="none" xmlns="http://www.w3.org/2000/svg">
<path d="M16.5559 4.0636C16.5559 4.0636 14.1076 5 9.60764 9.5C5.12411 13.9835 4.18389 16.4361 4.17706 16.454C4.06779 18.5905 4 21.089 4 24C4 32.6855 4.60351 37.6989 5.11162 40.3807C5.43804 42.1035 6.78233 43.2843 8.52567 43.4724C10.8789 43.7263 15.0315 44 22 44C28.9685 44 33.1211 43.7263 35.4743 43.4724C37.2177 43.2843 38.562 42.1035 38.8884 40.3807C39.3965 37.6989 40 32.6855 40 24C40 15.3145 39.3965 10.3011 38.8884 7.61934C38.562 5.89653 37.2177 4.7157 35.4743 4.52758C33.1211 4.27365 28.9685 4 22 4C19.9503 4 18.1442 4.02371 16.5559 4.0636Z" fill="#ACB4C9"/>
<path d="M4.17706 16.4539C7.05661 17.1782 10.4564 17.2263 13.3929 16.3292C14.6344 15.9499 15.6024 14.9828 16.0214 13.7542C17.0652 10.6935 17.3231 6.94714 16.5559 4.06348C16.5559 4.06348 14.1077 4.99988 9.60767 9.49988C5.10767 13.9999 4.17706 16.4539 4.17706 16.4539Z" fill="#576684"/>
<path d="M43.1716 24.5556C44.7337 22.9935 44.7337 20.4609 43.1716 18.8988L40.1011 15.8283C38.539 14.2662 36.0063 14.2662 34.4442 15.8283L23.1716 27.101C22.4214 27.8512 22 28.8686 22 29.9295L22 34.9999C22 36.1045 22.8954 36.9999 24 36.9999L29.0704 36.9999C30.1313 36.9999 31.1487 36.5785 31.8988 35.8283L43.1716 24.5556Z" fill="#576684"/>
</svg>