<!-- Copyright © Ewsgit 2022. -->
<!-- Licensed under the MIT License - https://ewsgit.github.io/devdash/copyright -->

<svg width="48" height="48" viewBox="0 0 48 48" fill="none" xmlns="http://www.w3.org/2000/svg">
<path d="M14 3.99997C14 3.99997 17 3 24 3C31 3 34 3.99997 34 3.99997V15C34 15 33 14 24 14C15 14 14 15 14 15V3.99997Z" fill="#ACB4C9"/>
<path d="M3.67842 14.4196C3.21296 15.3778 3.41166 16.506 4.10194 17.3173C6.16731 19.7449 10.9992 25.2489 17.4471 31.4694C17.2988 31.6466 17.1495 31.8235 16.9993 32H30.9993C30.849 31.8235 30.6998 31.6466 30.5514 31.4694C36.9994 25.2489 41.8312 19.7449 43.8966 17.3173C44.5869 16.506 44.7856 15.3778 44.3201 14.4196C40.9457 7.4732 33.9993 4 33.9993 4C33.9993 4 30.5187 12.7461 23.9993 22.6254C17.4799 12.7461 13.9993 4 13.9993 4C13.9993 4 7.05286 7.4732 3.67842 14.4196Z" fill="#576684"/>
<circle cx="24" cy="34" r="11" fill="#ACB4C9"/>
<path d="M22.866 27.6928C23.3427 26.7691 24.6573 26.7691 25.134 27.6928L26.6779 30.6851L29.9682 31.3363C30.9411 31.5288 31.3343 32.7136 30.6713 33.4547L28.333 36.0687L28.7612 39.5563C28.886 40.5729 27.8346 41.3199 26.9229 40.8625L24 39.396L21.0771 40.8625C20.1654 41.3199 19.114 40.5729 19.2388 39.5563L19.667 36.0687L17.3287 33.4547C16.6657 32.7136 17.0589 31.5288 18.0318 31.3363L21.3221 30.6851L22.866 27.6928Z" fill="#576684"/>
</svg>