<!-- Copyright © Ewsgit 2022. -->
<!-- Licensed under the MIT License - https://ewsgit.github.io/devdash/copyright -->

<svg width="48" height="48" viewBox="0 0 48 48" fill="none" xmlns="http://www.w3.org/2000/svg">
<path d="M4.95202 39.8405C9.12413 38.4253 16.9688 36.5873 23.5296 39.7625C23.8262 39.906 24.1738 39.906 24.4704 39.7625C31.0312 36.5873 38.8759 38.4253 43.048 39.8405C44.4426 40.3136 46 39.2942 46 37.8215V15.9594C46 14.7689 45.3007 13.6741 44.1671 13.3103C38.2289 11.4047 29.9092 11.5776 24.4033 13.8291C24.1443 13.935 23.8557 13.935 23.5967 13.8291C18.0908 11.5776 9.77112 11.4047 3.83294 13.3103C2.69931 13.6741 2 14.7689 2 15.9594V37.8215C2 39.2942 3.55737 40.3136 4.95202 39.8405Z" fill="#576684"/>
<path d="M40.815 33.9342C32.7662 33.2432 29.5063 34.895 24.9828 37.4449C24.3728 37.7888 23.6272 37.7888 23.0172 37.4449C18.4937 34.895 15.2338 33.2432 7.18499 33.9342C6.55509 33.9883 6 33.5278 6 32.9331V10.1055C6 9.11048 6.78304 8.26179 7.83629 8.16432C15.4134 7.46307 18.6176 9.08313 23.017 11.5624C23.6271 11.9062 24.3729 11.9062 24.983 11.5624C29.3824 9.08313 32.5866 7.46307 40.1637 8.16432C41.217 8.26179 42 9.11048 42 10.1055V32.9331C42 33.5278 41.4449 33.9883 40.815 33.9342Z" fill="#ACB4C9"/>
<path d="M23 11.5527C23.0057 11.5559 23.0113 11.5591 23.017 11.5623C23.6271 11.9061 24.3729 11.9061 24.983 11.5623C24.9887 11.5591 24.9943 11.5559 25 11.5527V37.4352C24.9943 37.4384 24.9885 37.4416 24.9828 37.4449C24.3728 37.7887 23.6272 37.7887 23.0172 37.4449C23.0115 37.4416 23.0057 37.4384 23 37.4352V11.5527Z" fill="#576684"/>
</svg>