<!-- Copyright © Ewsgit 2022. -->
<!-- Licensed under the MIT License - https://ewsgit.github.io/devdash/copyright -->

<svg width="48" height="48" viewBox="0 0 48 48" fill="none" xmlns="http://www.w3.org/2000/svg">
<path d="M26.1416 4.06042C26.1416 4.06042 28.4539 4.95 32.7039 9.225C36.9383 13.4843 37.8263 15.8143 37.8328 15.8313C37.936 17.8609 38 20.2345 38 23C38 31.2512 37.43 36.014 36.9501 38.5616C36.6419 40.1983 35.3722 41.3201 33.7258 41.4988C31.5032 41.74 27.5813 42 21 42C14.4187 42 10.4968 41.74 8.27425 41.4988C6.62776 41.3201 5.35814 40.1983 5.04986 38.5616C4.56998 36.014 4 31.2512 4 23C4 14.7488 4.56998 9.98604 5.04986 7.43837C5.35814 5.8017 6.62775 4.67991 8.27424 4.5012C10.4968 4.25997 14.4187 4 21 4C22.9358 4 24.6416 4.02253 26.1416 4.06042Z" fill="#ACB4C9"/>
<path d="M37.8332 15.8315C35.1136 16.5195 31.9027 16.5652 29.1293 15.713C27.9568 15.3527 27.0426 14.4339 26.6469 13.2667C25.661 10.3591 25.4175 6.80002 26.142 4.06055C26.142 4.06055 28.4543 4.95013 32.7043 9.22513C36.9543 13.5001 37.8332 15.8315 37.8332 15.8315Z" fill="#576684"/>
<path fill-rule="evenodd" clip-rule="evenodd" d="M35 21C31.4134 21 28.4569 23.8124 28.2778 27.3945L28.1853 29.2438C26.4476 29.4076 25.2401 30.6569 25.1255 32.4012C25.0539 33.4904 25 34.981 25 37C25 39.1788 25.0733 40.7422 25.1666 41.8499C25.3019 43.4565 26.4318 44.5842 28.0366 44.7395C29.4754 44.8786 31.6814 45 35 45C38.3186 45 40.5246 44.8786 41.9634 44.7395C43.5682 44.5842 44.6981 43.4565 44.8334 41.8499C44.9267 40.7422 45 39.1788 45 37C45 34.8212 44.9267 33.2578 44.8334 32.1501C44.6981 30.5435 43.5682 29.4158 41.9634 29.2605C41.9147 29.2558 41.8652 29.2511 41.8148 29.2465L41.7222 27.3945C41.5431 23.8124 38.5866 21 35 21ZM37.7991 29.0325L37.7272 27.5943C37.6546 26.141 36.4551 25 35 25C33.5449 25 32.3454 26.141 32.2728 27.5943L32.2009 29.0324C33.0335 29.0118 33.9632 29 35 29C36.0385 29 36.968 29.0119 37.7991 29.0325Z" fill="#576684"/>
<path d="M35.806 37.831C36.5091 37.521 37 36.8178 37 36C37 34.8954 36.1046 34 35 34C33.8954 34 33 34.8954 33 36C33 36.8178 33.4909 37.521 34.194 37.831L34.0532 39.083C34.0184 39.3923 34.069 39.7305 34.3485 39.8676C34.4998 39.9419 34.7107 40 35 40C35.2893 40 35.5002 39.9419 35.6515 39.8676C35.931 39.7305 35.9816 39.3923 35.9468 39.083L35.806 37.831Z" fill="#ACB4C9"/>
</svg>