<!-- Copyright © Ewsgit 2022. -->
<!-- Licensed under the MIT License - https://ewsgit.github.io/devdash/copyright -->

<svg width="48" height="48" viewBox="0 0 48 48" fill="none" xmlns="http://www.w3.org/2000/svg">
<circle r="22" transform="matrix(-1 0 0 1 24 24)" fill="#ACB4C9"/>
<path d="M11.2489 33.441C14.3751 37.7534 19.35 40.0965 24.4167 39.997C32.5706 39.8368 39.4853 33.1648 39.9727 24.9366C40.4996 16.0425 33.3235 8.19524 24.4167 8.00367C19.9501 7.9076 15.3152 9.70156 12.2001 12.9162C12.1848 12.932 12.1698 12.9479 12.155 12.9639C11.4245 12.511 10.7993 12.1646 10.2753 11.9002C9.15355 11.3342 8.03716 12.0829 8.0086 13.3447C7.97354 14.8935 8.03338 17.2197 8.42026 20.2853C8.57828 21.5374 9.75491 22.3893 10.9857 22.1427C13.9992 21.5388 16.2116 20.8577 17.6608 20.3328C18.8416 19.9052 19.1934 18.6028 18.3037 17.7126C17.8786 17.2873 17.3391 16.7882 16.6589 16.2195C16.6801 16.1955 16.701 16.1712 16.7217 16.1466C18.6467 13.8481 20.9359 12.4729 24.4167 12.5764C30.8448 12.7676 35.9462 18.5255 35.4163 24.9366C34.9426 30.6685 30.1074 35.2655 24.4167 35.4242C20.922 35.5217 17.4783 33.9904 15.2148 31.1347C14.5318 30.273 13.5975 29.6 12.598 30.0517C12.4136 30.135 12.2142 30.2369 12.0001 30.3612C11.786 30.4855 11.5985 30.6083 11.4346 30.7272C10.5459 31.3719 10.6034 32.5505 11.2489 33.441Z" fill="#576684"/>
</svg>