<!-- Copyright © Ewsgit 2022. -->
<!-- Licensed under the MIT License - https://ewsgit.github.io/devdash/copyright -->

<svg width="48" height="48" viewBox="0 0 48 48" fill="none" xmlns="http://www.w3.org/2000/svg">
<circle r="21" transform="matrix(-1 0 0 1 24 24)" fill="#ACB4C9"/>
<path d="M12.0918 22.8968C12.2416 22.0911 13.0071 21.7085 13.8257 21.6685C15.3167 21.5955 18.3482 21.5 24 21.5C29.6518 21.5 32.6833 21.5955 34.1743 21.6685C34.9929 21.7085 35.7584 22.0911 35.9083 22.8968C35.9632 23.1922 36 23.5558 36 24C36 24.4442 35.9632 24.8078 35.9083 25.1032C35.7584 25.9089 34.9929 26.2915 34.1743 26.3315C32.6833 26.4045 29.6518 26.5 24 26.5C18.3482 26.5 15.3167 26.4045 13.8257 26.3315C13.0071 26.2915 12.2416 25.9089 12.0918 25.1032C12.0368 24.8078 12 24.4442 12 24C12 23.5558 12.0368 23.1922 12.0918 22.8968Z" fill="#576684"/>
<path d="M35.9083 13.8968C35.7584 13.0911 34.9929 12.7085 34.1743 12.6685C32.6833 12.5955 29.6518 12.5 24 12.5C18.3482 12.5 15.3167 12.5955 13.8257 12.6685C13.0071 12.7085 12.2416 13.0911 12.0918 13.8968C12.0368 14.1922 12 14.5558 12 15C12 15.4442 12.0368 15.8078 12.0918 16.1032C12.2416 16.9089 13.0071 17.2915 13.8257 17.3315C15.3167 17.4045 18.3482 17.5 24 17.5C29.6518 17.5 32.6833 17.4045 34.1743 17.3315C34.9929 17.2915 35.7584 16.9089 35.9083 16.1032C35.9632 15.8078 36 15.4442 36 15C36 14.5558 35.9632 14.1922 35.9083 13.8968Z" fill="#576684"/>
<path d="M35.9083 31.8968C35.7584 31.0911 34.9929 30.7085 34.1743 30.6685C32.6833 30.5955 29.6518 30.5 24 30.5C18.3482 30.5 15.3167 30.5955 13.8257 30.6685C13.0071 30.7085 12.2416 31.0911 12.0918 31.8968C12.0368 32.1922 12 32.5558 12 33C12 33.4442 12.0368 33.8078 12.0918 34.1032C12.2416 34.9089 13.0071 35.2915 13.8257 35.3315C15.3167 35.4045 18.3482 35.5 24 35.5C29.6518 35.5 32.6833 35.4045 34.1743 35.3315C34.9929 35.2915 35.7584 34.9089 35.9083 34.1032C35.9632 33.8078 36 33.4442 36 33C36 32.5558 35.9632 32.1922 35.9083 31.8968Z" fill="#576684"/>
</svg>