<!-- Copyright © Ewsgit 2022. -->
<!-- Licensed under the MIT License - https://ewsgit.github.io/devdash/copyright -->

<svg xmlns="http://www.w3.org/2000/svg" width="48" height="48" fill="none" viewBox="0 0 48 48"><path fill="#ACB4C9" d="M4.48883 39.0496C4.72609 40.9154 5.97822 42.4315 7.82124 42.8067C10.5497 43.362 15.5279 44 24 44C32.4721 44 37.4503 43.362 40.1787 42.8067C42.0218 42.4316 43.2739 40.9154 43.5112 39.0496C43.9088 35.9229 43.983 33.2189 43.9968 32.3184C44.0001 32.1049 43.9886 31.893 43.9656 31.6808C42.9607 22.4003 41.5477 13.6004 40.7218 8.78862C40.3245 6.47402 38.5734 4.6943 36.2355 4.47194C33.7088 4.23164 29.7755 4 24 4C18.2246 4 14.2912 4.23164 11.7645 4.47194C9.42666 4.6943 7.6755 6.47401 7.27823 8.78861C6.45234 13.6004 5.03933 22.4003 4.03438 31.6808C4.0114 31.8931 3.99989 32.1048 4.00318 32.3183C4.01702 33.2188 4.09122 35.9229 4.48883 39.0496Z"/><path fill="#576684" d="M24 44C15.5279 44 10.5497 43.362 7.82124 42.8067C5.97822 42.4315 4.72609 40.9154 4.48883 39.0496C3.99997 35.2053 4 32 4 32H15.5585C16.8175 32 17.9352 32.8056 18.3333 34C18.7315 35.1944 19.8492 36 21.1082 36H26.8918C28.1508 36 29.2685 35.1944 29.6667 34C30.0648 32.8056 31.1825 32 32.4415 32H44C44 32 44 35.2053 43.5112 39.0496C43.2739 40.9154 42.0218 42.4316 40.1787 42.8067C37.4503 43.362 32.4721 44 24 44Z"/><path fill="#576684" fill-rule="evenodd" d="M20.9027 21.513C20.0448 20.6768 19.0767 19.7659 18.09 18.9008C17.4425 18.3331 16.5529 18.1116 15.8465 18.6042C15.6164 18.7646 15.3624 18.9683 15.0926 19.2264C14.7858 19.5199 14.5516 19.8034 14.3732 20.0602C13.8979 20.7445 14.1053 21.613 14.6383 22.2533C17.5982 25.8097 20.745 28.2725 22.5327 29.5303C23.4228 30.1565 24.5821 30.1565 25.4722 29.5303C27.2599 28.2725 30.4067 25.8097 33.3666 22.2533C33.8996 21.613 34.107 20.7445 33.6317 20.0602C33.4533 19.8034 33.2191 19.5199 32.9123 19.2264C32.6425 18.9683 32.3885 18.7646 32.1584 18.6042C31.452 18.1116 30.5624 18.3331 29.9149 18.9008C28.9283 19.7658 27.9603 20.6766 27.1025 21.5128C26.9605 18.2347 26.7251 14.6121 26.4652 11.7812C26.372 10.7661 25.515 10 24.4956 10H23.5099C22.4906 10 21.6337 10.7659 21.5404 11.781C21.2803 14.612 21.0447 18.2348 20.9027 21.513Z" clip-rule="evenodd"/></svg>