<!-- Copyright © Ewsgit 2022. -->
<!-- Licensed under the MIT License - https://ewsgit.github.io/devdash/copyright -->

<svg width="48" height="48" viewBox="0 0 48 48" fill="none" xmlns="http://www.w3.org/2000/svg">
<path d="M3.56402 10.5738C3.76291 8.80233 4.9656 7.43418 6.71897 7.11242C9.48875 6.60414 14.7306 6 24 6C33.2694 6 38.5112 6.60414 41.281 7.11242C43.0344 7.43418 44.2371 8.80233 44.436 10.5738C44.7054 12.9734 45 17.1609 45 24C45 30.8391 44.7054 35.0266 44.436 37.4262C44.2371 39.1977 43.0344 40.5658 41.281 40.8876C38.5113 41.3959 33.2694 42 24 42C14.7306 42 9.48875 41.3959 6.71897 40.8876C4.9656 40.5658 3.76291 39.1977 3.56402 37.4262C3.29461 35.0266 3 30.8391 3 24C3 17.1609 3.29461 12.9734 3.56402 10.5738Z" fill="#576684"/>
<path d="M44.9085 17.8752C44.9575 19.4035 44.111 20.8116 42.7321 21.4724C38.3278 23.5831 28.5657 28 23.9992 28C19.4327 28 9.67058 23.5831 5.26633 21.4724C3.88743 20.8116 3.04094 19.4035 3.08991 17.8752C3.19789 14.5047 3.38594 12.1531 3.56311 10.5748C3.76196 8.80332 4.9648 7.43418 6.71817 7.11242C9.48795 6.60414 14.7298 6 23.9992 6C33.2686 6 38.5105 6.60414 41.2802 7.11242C43.0336 7.43418 44.2364 8.80332 44.4353 10.5748C44.6125 12.1531 44.8005 14.5047 44.9085 17.8752Z" fill="#ACB4C9"/>
</svg>