<!-- Copyright © Ewsgit 2022. -->
<!-- Licensed under the MIT License - https://ewsgit.github.io/devdash/copyright -->

<svg xmlns="http://www.w3.org/2000/svg" width="48" height="48" fill="none" viewBox="0 0 48 48"><path fill="#576684" d="M24 4C19.319 4 9.46441 11.3039 5.35788 14.5152C4.15389 15.4567 3.39917 16.8452 3.29732 18.3702C3.15873 20.4454 3 23.929 3 29C3 33.7956 3.28392 37.1715 3.54919 39.2792C3.76791 41.017 4.93138 42.3951 6.64677 42.7492C9.39725 43.3169 14.6494 44 24 44C33.3506 44 38.6028 43.3169 41.3532 42.7492C43.0686 42.3951 44.2321 41.017 44.4508 39.2792C44.7161 37.1715 45 33.7956 45 29C45 23.929 44.8413 20.4454 44.7027 18.3702C44.6008 16.8452 43.8461 15.4567 42.6421 14.5152C38.5356 11.3039 28.681 4 24 4Z"/><path fill="#ACB4C9" d="M8 19.9099V10C8 6.68629 10.6863 4 14 4H34C37.3137 4 40 6.68629 40 10V19.9099C40 21.2193 39.3638 22.4436 38.2686 23.1612C34.8833 25.3792 27.42 30 24 30C20.58 30 13.1167 25.3792 9.73141 23.1612C8.63616 22.4436 8 21.2193 8 19.9099Z"/><path fill="#576684" d="M14 11.5C14 10.6716 14.6716 10 15.5 10H24.5C25.3284 10 26 10.6716 26 11.5C26 12.3284 25.3284 13 24.5 13H15.5C14.6716 13 14 12.3284 14 11.5Z"/><path fill="#576684" d="M14 18.5C14 17.6716 14.6716 17 15.5 17H30.5C31.3284 17 32 17.6716 32 18.5C32 19.3284 31.3284 20 30.5 20H15.5C14.6716 20 14 19.3284 14 18.5Z"/></svg>