<!-- Copyright © Ewsgit 2022. -->
<!-- Licensed under the MIT License - https://ewsgit.github.io/devdash/copyright -->

<svg width="48" height="48" viewBox="0 0 48 48" fill="none" xmlns="http://www.w3.org/2000/svg">
<path d="M16.709 44.873C14.3426 39.6987 14.6086 28.0005 14.6086 28.0005L40.388 8.01562C39.6611 15.103 28.2541 42.8846 16.709 44.873Z" fill="#ACB4C9"/>
<path d="M5.42442 23.0228C4.28064 22.0209 4.32863 20.4074 5.5839 19.5494C12.5289 14.8019 31.9884 5.17039 42.136 3.31365C43.7658 3.01544 45.1049 4.33853 44.9893 5.99134C44.2724 16.239 40.461 35.7996 37.0787 42.4004C36.4929 43.5436 35.126 43.781 34.0117 43.1419C31.4242 41.6579 26.1252 38.4317 17.8822 32.5631C11.0275 27.6828 7.34185 24.7023 5.42442 23.0228Z" fill="#ACB4C9"/>
<path d="M40.238 8.00014C39.2381 7.00014 15.9659 25.9165 14.1037 29.826C14.1037 29.826 14.026 44.4505 16.7088 44.8727C18.1602 44.8727 20.8223 37.1676 21.3831 35.4949C21.4548 35.2811 21.5529 35.0928 21.6896 34.9134C27.5379 27.242 41.2264 8.98863 40.238 8.00014Z" fill="#576684"/>
</svg>