<!-- Copyright © Ewsgit 2022. -->
<!-- Licensed under the MIT License - https://ewsgit.github.io/devdash/copyright -->

<svg width="48" height="48" viewBox="0 0 48 48" fill="none" xmlns="http://www.w3.org/2000/svg">
<path d="M18.8584 4.06042C18.8584 4.06042 16.5461 4.95 12.2961 9.225C8.06166 13.4843 7.17367 15.8143 7.16723 15.8313C7.06403 17.8609 7 20.2345 7 23C7 31.2512 7.56998 36.014 8.04986 38.5616C8.35815 40.1983 9.62776 41.3201 11.2742 41.4988C13.4968 41.74 17.4187 42 24 42C30.5813 42 34.5032 41.74 36.7258 41.4988C38.3722 41.3201 39.6419 40.1983 39.9501 38.5616C40.43 36.014 41 31.2512 41 23C41 14.7488 40.43 9.98604 39.9501 7.43837C39.6419 5.8017 38.3722 4.67991 36.7258 4.5012C34.5032 4.25997 30.5813 4 24 4C22.0642 4 20.3584 4.02253 18.8584 4.06042Z" fill="#ACB4C9"/>
<path d="M7.16679 15.8315C9.88637 16.5195 13.0973 16.5652 15.8707 15.713C17.0432 15.3527 17.9574 14.4339 18.3531 13.2667C19.339 10.3591 19.5825 6.80002 18.858 4.06055C18.858 4.06055 16.5457 4.95013 12.2957 9.22513C8.0457 13.5001 7.16679 15.8315 7.16679 15.8315Z" fill="#576684"/>
<path fill-rule="evenodd" clip-rule="evenodd" d="M35 23.7143C37.3791 23.7143 39.3077 25.6544 39.3077 28.0476V35.9524C39.3077 38.3456 37.3791 40.2857 35 40.2857C32.6209 40.2857 30.6923 38.3456 30.6923 35.9524V31.7619C30.6923 31.0781 31.2433 30.5238 31.9231 30.5238C32.6028 30.5238 33.1538 31.0781 33.1538 31.7619V35.5406C33.1538 36.5973 33.6093 37.6913 34.6611 37.7934C34.7684 37.8038 34.8813 37.8095 35 37.8095C35.1187 37.8095 35.2316 37.8038 35.3389 37.7934C36.3907 37.6913 36.8462 36.5973 36.8462 35.5406V31.7619C36.8462 29.0268 34.642 26.8095 31.9231 26.8095C29.2041 26.8095 27 29.0268 27 31.7619V35.9524C27 40.397 30.5817 44 35 44C39.4183 44 43 40.397 43 35.9524V28.0476C43 23.603 39.4183 20 35 20C33.2008 20 31.5355 20.5997 30.1982 21.6105C29.5474 22.0309 29.0853 22.7495 29.3855 23.4637C29.4846 23.6995 29.6271 23.9539 29.8311 24.2108C29.9933 24.4151 30.1552 24.579 30.3098 24.7105C30.9143 25.2246 31.7495 25.0106 32.416 24.58C33.1359 24.036 34.0279 23.7143 35 23.7143Z" fill="#576684"/>
</svg>