<!-- Copyright © Ewsgit 2022. -->
<!-- Licensed under the MIT License - https://ewsgit.github.io/devdash/copyright -->

<svg width="48" height="48" viewBox="0 0 48 48" fill="none" xmlns="http://www.w3.org/2000/svg">
<path fill-rule="evenodd" clip-rule="evenodd" d="M6.6057 5.00548C4.86345 5.32476 3.67964 6.70025 3.49522 8.46188C3.25569 10.7499 3 14.6739 3 21C3 27.3261 3.25569 31.2501 3.49522 33.5381C3.67964 35.2997 4.86345 36.6752 6.6057 36.9945C8.17321 37.2818 10.5406 37.5936 14.0001 37.7925V41.8388C14.0001 43.5158 15.94 44.4481 17.2495 43.4005L24.0144 37.9886C30.9159 37.9087 35.0498 37.4242 37.3943 36.9945C39.1366 36.6752 40.3204 35.2998 40.5048 33.5381C40.7443 31.2501 41 27.3261 41 21C41 14.6739 40.7443 10.7499 40.5048 8.46189C40.3204 6.70025 39.1366 5.32476 37.3943 5.00548C34.83 4.53556 30.1252 4 22 4C13.8748 4 9.16999 4.53556 6.6057 5.00548Z" fill="#ACB4C9"/>
<path d="M44.4434 18.2839C45.4126 17.3147 45.7938 15.9071 45.0869 14.7328C44.5601 13.8578 43.7455 12.7455 42.5 11.5C41.2545 10.2545 40.1422 9.43993 39.2672 8.91313C38.0929 8.20617 36.6853 8.58742 35.716 9.55663L23.1716 22.1012C22.4214 22.8513 22 23.8687 22 24.9296L22 30C22 31.1046 22.8954 32 24 32L29.0704 32C30.1313 32 31.1487 31.5786 31.8988 30.8284L44.4434 18.2839Z" fill="#576684"/>
<path d="M10 12.5838C10 11.8352 10.552 11.2116 11.2989 11.1601C12.3995 11.0844 14.244 11 17 11C19.756 11 21.6005 11.0844 22.7011 11.1601C23.448 11.2116 24 11.8352 24 12.5838V14.4162C24 15.1648 23.448 15.7884 22.7011 15.8399C21.6005 15.9156 19.756 16 17 16C14.244 16 12.3995 15.9156 11.2989 15.8399C10.552 15.7884 10 15.1648 10 14.4162V12.5838Z" fill="#576684"/>
<path d="M10 21.4179C10 20.7441 10.4565 20.1766 11.1273 20.113C11.7579 20.0532 12.6876 20 14 20C15.3124 20 16.2421 20.0532 16.8727 20.113C17.5435 20.1766 18 20.7441 18 21.4179V23.5821C18 24.2559 17.5435 24.8234 16.8727 24.887C16.2421 24.9468 15.3124 25 14 25C12.6876 25 11.7579 24.9468 11.1273 24.887C10.4565 24.8234 10 24.2559 10 23.5821V21.4179Z" fill="#576684"/>
</svg>