<!-- Copyright © Ewsgit 2022. -->
<!-- Licensed under the MIT License - https://ewsgit.github.io/devdash/copyright -->

<svg xmlns="http://www.w3.org/2000/svg" width="48" height="48" fill="none" viewBox="0 0 48 48"><path fill="#ACB4C9" fill-rule="evenodd" d="M7.68009 5.02577C5.92293 5.33785 4.71393 6.70729 4.51915 8.48128C4.26763 10.7721 4 14.6917 4 21C4 27.3083 4.26763 31.2279 4.51915 33.5187C4.71393 35.2927 5.92293 36.6622 7.68009 36.9742C9.24171 37.2516 11.5882 37.555 15 37.7594V41.8388C15 43.5158 16.9399 44.4481 18.2494 43.4005L25.0031 37.9975C33.0623 37.9569 37.7521 37.4303 40.3199 36.9742C42.0771 36.6622 43.2861 35.2927 43.4809 33.5187C43.7324 31.2279 44 27.3083 44 21C44 14.6917 43.7324 10.7721 43.4809 8.48128C43.2861 6.70728 42.0771 5.33785 40.3199 5.02577C37.6474 4.55112 32.6762 4 24 4C15.3238 4 10.3526 4.55112 7.68009 5.02577Z" clip-rule="evenodd"/><path fill="#576684" d="M22.2246 11.4229C22.9709 9.98407 25.0291 9.98407 25.7754 11.4229L27.9307 15.5783L32.5442 16.4867C34.0673 16.7866 34.683 18.6319 33.645 19.7863L30.36 23.4397L30.9599 28.3012C31.1553 29.8845 29.5092 31.0481 28.0818 30.3356L24 28.2983L19.9182 30.3356C18.4908 31.0481 16.8447 29.8845 17.0401 28.3012L17.64 23.4397L14.355 19.7863C13.317 18.6319 13.9327 16.7866 15.4558 16.4867L20.0693 15.5783L22.2246 11.4229Z"/></svg>