<!-- Copyright © Ewsgit 2022. -->
<!-- Licensed under the MIT License - https://ewsgit.github.io/devdash/copyright -->

<svg xmlns="http://www.w3.org/2000/svg" width="48" height="48" fill="none" viewBox="0 0 48 48"><path fill="#ACB4C9" d="M4.48883 39.0496C4.72609 40.9154 5.97822 42.4315 7.82124 42.8067C10.5497 43.362 15.5279 44 24 44C32.4721 44 37.4503 43.362 40.1787 42.8067C42.0218 42.4316 43.2739 40.9154 43.5112 39.0496C43.9088 35.9229 43.983 33.2189 43.9968 32.3184C44.0001 32.1049 43.9886 31.893 43.9656 31.6808C42.9607 22.4003 41.5477 13.6004 40.7218 8.78862C40.3245 6.47402 38.5734 4.6943 36.2355 4.47194C33.7088 4.23164 29.7755 4 24 4C18.2246 4 14.2912 4.23164 11.7645 4.47194C9.42666 4.6943 7.6755 6.47401 7.27823 8.78861C6.45234 13.6004 5.03933 22.4003 4.03438 31.6808C4.0114 31.8931 3.99989 32.1048 4.00318 32.3183C4.01702 33.2188 4.09122 35.9229 4.48883 39.0496Z"/><path fill="#576684" d="M24 44C15.5279 44 10.5497 43.362 7.82124 42.8067C5.97822 42.4315 4.72609 40.9154 4.48883 39.0496C3.99997 35.2053 4 32 4 32H15.5585C16.8175 32 17.9352 32.8056 18.3333 34C18.7315 35.1944 19.8492 36 21.1082 36H26.8918C28.1508 36 29.2685 35.1944 29.6667 34C30.0648 32.8056 31.1825 32 32.4415 32H44C44 32 44 35.2053 43.5112 39.0496C43.2739 40.9154 42.0218 42.4316 40.1787 42.8067C37.4503 43.362 32.4721 44 24 44Z"/><path fill="#576684" fill-rule="evenodd" d="M20.9027 18.487C20.0448 19.3232 19.0767 20.2341 18.09 21.0992C17.4425 21.6669 16.5529 21.8884 15.8465 21.3958C15.6164 21.2354 15.3624 21.0317 15.0926 20.7736C14.7858 20.4801 14.5516 20.1966 14.3732 19.9398C13.8979 19.2555 14.1053 18.387 14.6383 17.7467C17.5982 14.1903 20.745 11.7275 22.5327 10.4697C23.4228 9.84347 24.5821 9.84347 25.4722 10.4697C27.2599 11.7275 30.4067 14.1903 33.3666 17.7467C33.8996 18.387 34.107 19.2555 33.6317 19.9398C33.4533 20.1966 33.2191 20.4801 32.9123 20.7736C32.6425 21.0317 32.3885 21.2354 32.1584 21.3958C31.452 21.8884 30.5624 21.6669 29.9149 21.0992C28.9283 20.2342 27.9603 19.3234 27.1025 18.4872C26.9605 21.7653 26.7251 25.3879 26.4652 28.2188C26.372 29.2339 25.515 30 24.4956 30H23.5099C22.4906 30 21.6337 29.2341 21.5404 28.219C21.2803 25.388 21.0447 21.7652 20.9027 18.487Z" clip-rule="evenodd"/></svg>