<!-- Copyright © Ewsgit 2022. -->
<!-- Licensed under the MIT License - https://ewsgit.github.io/devdash/copyright -->

<svg width="48" height="48" viewBox="0 0 48 48" fill="none" xmlns="http://www.w3.org/2000/svg">
<path d="M3 24C3 35.598 12.402 45 24 45C35.598 45 45 35.598 45 24C45 12.402 35.598 3 24 3C12.402 3 3 12.402 3 24Z" fill="#ACB4C9"/>
<path fill-rule="evenodd" clip-rule="evenodd" d="M17 19.5C17 20.8807 15.8807 22 14.5 22C13.1193 22 12 20.8807 12 19.5C12 18.1193 13.1193 17 14.5 17C15.8807 17 17 18.1193 17 19.5ZM18 36.75C18.9665 36.75 19.75 35.9665 19.75 35C19.75 32.6528 21.6528 30.75 24 30.75C26.3472 30.75 28.25 32.6528 28.25 35C28.25 35.9665 29.0335 36.75 30 36.75C30.9665 36.75 31.75 35.9665 31.75 35C31.75 30.7198 28.2802 27.25 24 27.25C19.7198 27.25 16.25 30.7198 16.25 35C16.25 35.9665 17.0335 36.75 18 36.75ZM33.5 22C34.8807 22 36 20.8807 36 19.5C36 18.1193 34.8807 17 33.5 17C32.1193 17 31 18.1193 31 19.5C31 20.8807 32.1193 22 33.5 22Z" fill="#576684"/>
</svg>