<!-- Copyright © Ewsgit 2022. -->
<!-- Licensed under the MIT License - https://ewsgit.github.io/devdash/copyright -->

<svg width="49" height="48" viewBox="0 0 49 48" fill="none" xmlns="http://www.w3.org/2000/svg">
<path d="M25.273 31.985C26.5064 31.9343 27.289 30.9856 27.3464 29.7526C27.4226 28.1173 27.5 25.181 27.5 20C27.5 14.819 27.4226 11.8827 27.3464 10.2474C27.289 9.01436 26.5064 8.06569 25.273 8.01502C25.0414 8.0055 24.7845 8 24.5 8C24.2155 8 23.9586 8.0055 23.727 8.01502C22.4936 8.06569 21.711 9.01436 21.6536 10.2474C21.5774 11.8827 21.5 14.819 21.5 20C21.5 25.181 21.5774 28.1173 21.6536 29.7526C21.711 30.9856 22.4936 31.9343 23.727 31.985C23.9586 31.9945 24.2155 32 24.5 32C24.7845 32 25.0414 31.9945 25.273 31.985Z" fill="#ACB4C9"/>
<path d="M34.273 31.985C35.5064 31.9343 36.289 30.9856 36.3464 29.7526C36.4226 28.1173 36.5 25.181 36.5 20C36.5 14.819 36.4226 11.8827 36.3464 10.2474C36.289 9.01436 35.5064 8.06569 34.273 8.01502C34.0414 8.0055 33.7845 8 33.5 8C33.2155 8 32.9586 8.0055 32.727 8.01502C31.4936 8.06569 30.711 9.01436 30.6536 10.2474C30.5774 11.8827 30.5 14.819 30.5 20C30.5 25.181 30.5774 28.1173 30.6536 29.7526C30.711 30.9856 31.4936 31.9343 32.727 31.985C32.9586 31.9945 33.2155 32 33.5 32C33.7845 32 34.0414 31.9945 34.273 31.985Z" fill="#ACB4C9"/>
<path d="M16.273 31.985C17.5064 31.9343 18.289 30.9856 18.3464 29.7526C18.4226 28.1173 18.5 25.181 18.5 20C18.5 14.819 18.4226 11.8827 18.3464 10.2474C18.289 9.01436 17.5064 8.06569 16.273 8.01502C16.0414 8.0055 15.7845 8 15.5 8C15.2155 8 14.9586 8.0055 14.727 8.01502C13.4936 8.06569 12.711 9.01436 12.6536 10.2474C12.5774 11.8827 12.5 14.819 12.5 20C12.5 25.181 12.5774 28.1173 12.6536 29.7526C12.711 30.9856 13.4936 31.9343 14.727 31.985C14.9586 31.9945 15.2155 32 15.5 32C15.7845 32 16.0414 31.9945 16.273 31.985Z" fill="#ACB4C9"/>
<path d="M16.5778 39.9923C17.6196 39.9762 18.4059 39.3724 18.4661 38.3322C18.4868 37.9725 18.5 37.5339 18.5 37C18.5 36.4661 18.4868 36.0275 18.4661 35.6678C18.4059 34.6276 17.6196 34.0238 16.5778 34.0077C16.2727 34.0029 15.9157 34 15.5 34C15.0843 34 14.7273 34.0029 14.4222 34.0077C13.3804 34.0238 12.5941 34.6276 12.5339 35.6678C12.5132 36.0275 12.5 36.4661 12.5 37C12.5 37.5339 12.5132 37.9725 12.5339 38.3322C12.5941 39.3724 13.3804 39.9762 14.4222 39.9923C14.7273 39.9971 15.0843 40 15.5 40C15.9157 40 16.2727 39.9971 16.5778 39.9923Z" fill="#ACB4C9"/>
<path d="M25.5778 39.9923C26.6196 39.9762 27.4059 39.3724 27.4661 38.3322C27.4868 37.9725 27.5 37.5339 27.5 37C27.5 36.4661 27.4868 36.0275 27.4661 35.6678C27.4059 34.6276 26.6196 34.0238 25.5778 34.0077C25.2727 34.0029 24.9157 34 24.5 34C24.0843 34 23.7273 34.0029 23.4222 34.0077C22.3804 34.0238 21.5941 34.6276 21.5339 35.6678C21.5132 36.0275 21.5 36.4661 21.5 37C21.5 37.5339 21.5132 37.9725 21.5339 38.3322C21.5941 39.3724 22.3804 39.9762 23.4222 39.9923C23.7273 39.9971 24.0843 40 24.5 40C24.9157 40 25.2727 39.9971 25.5778 39.9923Z" fill="#ACB4C9"/>
<path d="M34.5778 39.9923C35.6196 39.9762 36.4059 39.3724 36.4661 38.3322C36.4868 37.9725 36.5 37.5339 36.5 37C36.5 36.4661 36.4868 36.0275 36.4661 35.6678C36.4059 34.6276 35.6196 34.0238 34.5778 34.0077C34.2727 34.0029 33.9157 34 33.5 34C33.0843 34 32.7273 34.0029 32.4222 34.0077C31.3804 34.0238 30.5941 34.6276 30.5339 35.6678C30.5132 36.0275 30.5 36.4661 30.5 37C30.5 37.5339 30.5132 37.9725 30.5339 38.3322C30.5941 39.3724 31.3804 39.9762 32.4222 39.9923C32.7273 39.9971 33.0843 40 33.5 40C33.9157 40 34.2727 39.9971 34.5778 39.9923Z" fill="#ACB4C9"/>
<path d="M7.47875 39.9669C8.60403 39.8848 9.26511 38.9638 9.31404 37.8366C9.39886 35.8823 9.5 31.8964 9.5 24C9.5 16.1036 9.39886 12.1177 9.31404 10.1634C9.26511 9.03617 8.60403 8.1152 7.47875 8.03313C7.19613 8.01252 6.87154 8 6.5 8C6.12846 8 5.80387 8.01252 5.52125 8.03313C4.39597 8.1152 3.73489 9.03617 3.68596 10.1634C3.60114 12.1177 3.5 16.1036 3.5 24C3.5 31.8964 3.60114 35.8823 3.68596 37.8366C3.73489 38.9638 4.39597 39.8848 5.52125 39.9669C5.80387 39.9875 6.12846 40 6.5 40C6.87154 40 7.19613 39.9875 7.47875 39.9669Z" fill="#ACB4C9"/>
<path d="M43.4788 39.9669C44.604 39.8848 45.2651 38.9638 45.314 37.8366C45.3989 35.8823 45.5 31.8964 45.5 24C45.5 16.1036 45.3989 12.1177 45.314 10.1634C45.2651 9.03617 44.604 8.1152 43.4788 8.03313C43.1961 8.01252 42.8715 8 42.5 8C42.1285 8 41.8039 8.01252 41.5212 8.03313C40.396 8.1152 39.7349 9.03617 39.686 10.1634C39.6011 12.1177 39.5 16.1036 39.5 24C39.5 31.8964 39.6011 35.8823 39.686 37.8366C39.7349 38.9638 40.396 39.8848 41.5212 39.9669C41.8039 39.9875 42.1285 40 42.5 40C42.8715 40 43.1961 39.9875 43.4788 39.9669Z" fill="#ACB4C9"/>
</svg>