<!-- Copyright © Ewsgit 2022. -->
<!-- Licensed under the MIT License - https://ewsgit.github.io/devdash/copyright -->

<svg width="49" height="48" viewBox="0 0 49 48" fill="none" xmlns="http://www.w3.org/2000/svg">
<path fill-rule="evenodd" clip-rule="evenodd" d="M5.62607 2.72269C4.35006 2.84515 3.34713 3.84806 3.22466 5.12407C2.86448 8.87675 3.16598 12.3431 3.36325 13.9912C3.4393 14.6266 3.84127 15.1791 4.46577 15.3185C5.01648 15.4414 5.75347 15.515 6.54341 15.3391C7.16799 15.2 7.56722 14.6266 7.64507 13.9915C7.88489 12.0351 7.96316 9.7684 7.98871 8.49718C7.9998 7.945 8.44706 7.49774 8.99924 7.48665C10.2704 7.46111 12.5371 7.38285 14.4935 7.14307C15.1286 7.06522 15.702 6.66599 15.8411 6.04139C16.017 5.25148 15.9434 4.5145 15.8205 3.96379C15.6811 3.33928 15.1286 2.93732 14.4932 2.86127C12.8451 2.66401 9.37876 2.36255 5.62607 2.72269ZM43.3759 2.72269C44.6519 2.84515 45.6548 3.84806 45.7773 5.12407C46.1374 8.87675 45.836 12.3431 45.6387 13.9912C45.5626 14.6266 45.1607 15.1791 44.5362 15.3185C43.9854 15.4414 43.2485 15.515 42.4585 15.3391C41.8339 15.2 41.4347 14.6266 41.3569 13.9915C41.117 12.0351 41.0388 9.7684 41.0132 8.49718C41.0021 7.945 40.5549 7.49774 40.0027 7.48665C38.7315 7.46111 36.4648 7.38285 34.5085 7.14307C33.8733 7.06522 33.2999 6.66599 33.1608 6.04139C32.985 5.25148 33.0585 4.5145 33.1814 3.96379C33.3209 3.33928 33.8734 2.93732 34.5087 2.86127C36.1569 2.66401 39.6232 2.36255 43.3759 2.72269ZM45.7773 42.874C45.6548 44.15 44.6519 45.1529 43.3759 45.2754C39.6232 45.6355 36.1569 45.334 34.5087 45.1368C33.8734 45.0607 33.3209 44.6588 33.1814 44.0343C33.0585 43.4835 32.985 42.7466 33.1608 41.9567C33.2999 41.3321 33.8733 40.9328 34.5085 40.855C36.4648 40.6152 38.7315 40.5369 40.0027 40.5114C40.5549 40.5003 41.0021 40.053 41.0132 39.5009C41.0388 38.2296 41.117 35.9629 41.3569 34.0065C41.4347 33.3714 41.8339 32.798 42.4585 32.659C43.2485 32.4831 43.9854 32.5566 44.5362 32.6796C45.1607 32.819 45.5626 33.3715 45.6387 34.0068C45.836 35.655 46.1374 39.1213 45.7773 42.874ZM5.62607 45.2754C4.35006 45.1529 3.34713 44.15 3.22466 42.874C2.86448 39.1213 3.16598 35.655 3.36325 34.0068C3.4393 33.3715 3.84126 32.819 4.46577 32.6796C5.01648 32.5566 5.75347 32.4831 6.5434 32.659C7.16799 32.798 7.56722 33.3714 7.64507 34.0065C7.88489 35.9629 7.96316 38.2296 7.98871 39.5009C7.9998 40.053 8.44706 40.5003 8.99924 40.5114C10.2704 40.5369 12.5371 40.6152 14.4935 40.855C15.1286 40.9328 15.702 41.3321 15.8411 41.9567C16.017 42.7466 15.9434 43.4835 15.8205 44.0343C15.6811 44.6588 15.1286 45.0607 14.4932 45.1368C12.8451 45.334 9.37876 45.6355 5.62607 45.2754Z" fill="#576684"/>
</svg>