<!-- Copyright © Ewsgit 2022. -->
<!-- Licensed under the MIT License - https://ewsgit.github.io/devdash/copyright -->

<svg width="48" height="48" viewBox="0 0 48 48" fill="none" xmlns="http://www.w3.org/2000/svg">
<path d="M4.48948 12.3479C4.68869 10.5885 5.92095 9.2718 7.66737 8.98005C10.3608 8.5301 15.3661 8 24 8C32.6339 8 37.6392 8.5301 40.3326 8.98005C42.079 9.2718 43.3113 10.5885 43.5105 12.3479C43.753 14.489 44 18.1147 44 24C44 29.8853 43.753 33.511 43.5105 35.6521C43.3113 37.4115 42.0791 38.7282 40.3326 39.02C37.6392 39.4699 32.6339 40 24 40C15.3661 40 10.3608 39.4699 7.66737 39.02C5.92095 38.7282 4.68869 37.4115 4.48948 35.6521C4.24704 33.511 4 29.8853 4 24C4 18.1147 4.24704 14.489 4.48948 12.3479Z" fill="#ACB4C9"/>
<path fill-rule="evenodd" clip-rule="evenodd" d="M43.8061 16C43.9199 18.0292 44 20.6481 44 24H4C4 20.6481 4.08013 18.0292 4.19391 16H43.8061Z" fill="#576684"/>
<path d="M38 32.9816C38 33.7015 37.4861 34.3099 36.769 34.3741C36.0446 34.4389 35.0004 34.5 33.6364 34.5C32.413 34.5 31.5755 34.4509 31.0157 34.394C30.397 34.331 30 33.8114 30 33.1895L30 30.8105C30 30.1886 30.397 29.669 31.0157 29.6061C31.5755 29.5491 32.413 29.5 33.6364 29.5C35.0004 29.5 36.0446 29.5611 36.769 29.6259C37.4861 29.6901 38 30.2985 38 31.0184L38 32.9816Z" fill="#576684"/>
</svg>