<!-- Copyright © Ewsgit 2022. -->
<!-- Licensed under the MIT License - https://ewsgit.github.io/devdash/copyright -->

<svg width="48" height="48" viewBox="0 0 48 48" fill="none" xmlns="http://www.w3.org/2000/svg">
<path d="M14 5.71429C14 4.76751 14.7675 4 15.7143 4H32.2857C33.2325 4 34 4.76751 34 5.71429V6C34 11.5228 29.5228 16 24 16C18.4772 16 14 11.5228 14 6V5.71429Z" fill="#ACB4C9"/>
<path d="M42 32C42 40.8366 33.9411 44 24 44C14.0589 44 6 40.8366 6 32C6 23.1634 14.0589 12 24 12C33.9411 12 42 23.1634 42 32Z" fill="#ACB4C9"/>
<path d="M18.7804 31.0281C18.7804 30.9125 18.7697 30.797 18.7483 30.6814C18.7483 30.5465 18.7483 30.4021 18.7483 30.248H17.4945C17.0873 30.248 16.7551 30.1421 16.4979 29.9302C16.2407 29.699 16.1122 29.3138 16.1122 28.7745C16.1122 28.576 16.1399 28.3847 16.1889 28.1985C16.3273 27.6719 16.8677 27.3876 17.4121 27.3876H18.4268C18.3839 27.0602 18.3518 26.7424 18.3304 26.4342C18.3089 26.1067 18.2982 25.8082 18.2982 25.5385C18.2982 24.4791 18.4804 23.5738 18.8447 22.8226C19.2091 22.0522 19.702 21.4262 20.3235 20.9446C20.9665 20.4438 21.7059 20.0778 22.5417 19.8467C23.399 19.6156 24.3098 19.5 25.2743 19.5C26.6888 19.5 27.7497 19.7119 28.4569 20.1356C29.1856 20.5401 29.5499 21.0602 29.5499 21.6958C29.5499 21.9295 29.5003 22.1805 29.4018 22.4146C29.1438 23.0274 28.3708 22.9843 27.7387 22.778C27.6252 22.741 27.511 22.7077 27.396 22.6782C26.9674 22.5433 26.4423 22.4759 25.8208 22.4759C24.6635 22.4759 23.7848 22.736 23.1847 23.256C22.606 23.7761 22.3167 24.614 22.3167 25.7697C22.3167 26.0008 22.3167 26.2512 22.3167 26.5209C22.3381 26.7905 22.3595 27.0795 22.381 27.3876H26.6748C27.2192 27.3876 27.7535 27.6743 27.8937 28.2004C27.9447 28.3916 27.9747 28.5854 27.9747 28.7745C27.9747 29.3138 27.8461 29.699 27.5889 29.9302C27.3317 30.1421 26.9888 30.248 26.5602 30.248H22.7025C22.7239 30.4021 22.7346 30.5562 22.7346 30.7103C22.7346 30.8451 22.7346 30.9703 22.7346 31.0859C22.7346 32.6075 22.2845 33.7825 21.3844 34.6108H28.6386C29.2451 34.6108 29.8438 34.9232 29.953 35.5198C29.9843 35.6908 30 35.8622 30 36.0265C30 36.5273 29.8714 36.9029 29.6142 37.1533C29.357 37.3844 29.0141 37.5 28.5855 37.5H17.816C17.3231 37.5 16.8944 37.3459 16.5301 37.0377C16.3173 36.8345 16.1713 36.5737 16.0873 36.2934C15.897 35.659 16.4321 35.1251 16.9949 34.7758C17.4559 34.4897 17.826 34.1554 18.1053 33.7729C18.5554 33.1565 18.7804 32.2416 18.7804 31.0281Z" fill="#576684"/>
</svg>