<!-- Copyright © Ewsgit 2022. -->
<!-- Licensed under the MIT License - https://ewsgit.github.io/devdash/copyright -->

<svg width="49" height="48" viewBox="0 0 49 48" fill="none" xmlns="http://www.w3.org/2000/svg">
<path fill-rule="evenodd" clip-rule="evenodd" d="M6.59153 3.34978C4.88086 3.58209 3.75919 4.91671 3.64986 6.63962C3.56731 7.9405 3.5 9.81048 3.5 12.45C3.5 15.0895 3.56731 16.9595 3.64986 18.2604C3.75919 19.9833 4.88086 21.3179 6.59154 21.5502C7.98302 21.7392 10.0262 21.9 12.95 21.9C15.8738 21.9 17.917 21.7392 19.3085 21.5502C21.0191 21.3179 22.1408 19.9833 22.2501 18.2604C22.3327 16.9595 22.4 15.0895 22.4 12.45C22.4 9.81048 22.3327 7.9405 22.2501 6.63962C22.1408 4.91671 21.0191 3.58209 19.3085 3.34978C17.917 3.16083 15.8739 3 12.95 3C10.0261 3 7.98301 3.16083 6.59153 3.34978ZM9.82524 8.45041C9.25758 8.54487 8.8833 8.99312 8.83794 9.56679C8.79227 10.1444 8.75 11.0556 8.75 12.45C8.75 13.8444 8.79227 14.7556 8.83794 15.3332C8.8833 15.9069 9.25758 16.3551 9.82524 16.4496C10.4364 16.5513 11.423 16.65 12.95 16.65C14.477 16.65 15.4636 16.5513 16.0748 16.4496C16.6424 16.3551 17.0167 15.9069 17.0621 15.3332C17.1077 14.7556 17.15 13.8444 17.15 12.45C17.15 11.0556 17.1077 10.1444 17.0621 9.56679C17.0167 8.99312 16.6424 8.54487 16.0748 8.45041C15.4636 8.3487 14.477 8.25 12.95 8.25C11.423 8.25 10.4364 8.3487 9.82524 8.45041ZM26.7291 27.5204C26.7812 26.9473 27.1566 26.4969 27.7221 26.3899C28.4605 26.2502 29.744 26.1 31.85 26.1C33.956 26.1 35.2395 26.2502 35.9779 26.3899C36.5434 26.4969 36.9188 26.9473 36.9709 27.5204C37.0348 28.2222 37.1 29.4132 37.1 31.35C37.1 32.871 37.0598 33.932 37.0116 34.6573C37.77 34.5692 38.8205 34.5 40.25 34.5C42.356 34.5 43.6395 34.6502 44.3779 34.7899C44.9434 34.8969 45.3188 35.3473 45.3709 35.9204C45.4348 36.6222 45.5 37.8132 45.5 39.75C45.5 41.6868 45.4348 42.8778 45.3709 43.5796C45.3188 44.1527 44.9434 44.6031 44.3779 44.7101C43.6395 44.8498 42.356 45 40.25 45C38.144 45 36.8605 44.8498 36.1221 44.7101C35.5566 44.6031 35.1812 44.1527 35.1291 43.5796C35.0652 42.8778 35 41.6868 35 39.75C35 38.229 35.0402 37.168 35.0884 36.4427C34.3301 36.5308 33.2795 36.6 31.85 36.6C29.744 36.6 28.4605 36.4498 27.7221 36.3101C27.1566 36.2031 26.7812 35.7527 26.7291 35.1796C26.6652 34.4778 26.6 33.2868 26.6 31.35C26.6 29.4132 26.6652 28.2222 26.7291 27.5204ZM40.2828 27.2618C40.3135 26.6871 40.6866 26.2447 41.2582 26.1784C41.6372 26.1345 42.1618 26.1 42.875 26.1C43.5882 26.1 44.1128 26.1345 44.4918 26.1784C45.0634 26.2447 45.4365 26.6871 45.4672 27.2618C45.4859 27.6126 45.5 28.0881 45.5 28.725C45.5 29.3619 45.4859 29.8375 45.4672 30.1882C45.4365 30.7629 45.0634 31.2053 44.4918 31.2716C44.1128 31.3155 43.5882 31.35 42.875 31.35C42.1618 31.35 41.6372 31.3155 41.2582 31.2716C40.6866 31.2053 40.3135 30.7629 40.2828 30.1882C40.2641 29.8375 40.25 29.3619 40.25 28.725C40.25 28.0881 40.2641 27.6126 40.2828 27.2618ZM27.6082 39.8284C27.0366 39.8947 26.6635 40.3371 26.6328 40.9118C26.6141 41.2626 26.6 41.7381 26.6 42.375C26.6 43.0119 26.6141 43.4874 26.6328 43.8382C26.6635 44.4129 27.0366 44.8553 27.6082 44.9216C27.9872 44.9655 28.5118 45 29.225 45C29.9382 45 30.4628 44.9655 30.8418 44.9216C31.4134 44.8553 31.7865 44.4129 31.8172 43.8382C31.8359 43.4874 31.85 43.0119 31.85 42.375C31.85 41.7381 31.8359 41.2626 31.8172 40.9118C31.7865 40.3371 31.4134 39.8947 30.8418 39.8284C30.4628 39.7845 29.9382 39.75 29.225 39.75C28.5118 39.75 27.9872 39.7845 27.6082 39.8284ZM3.64986 29.7396C3.75919 28.0167 4.88086 26.6821 6.59153 26.4498C7.98301 26.2608 10.0261 26.1 12.95 26.1C15.8739 26.1 17.917 26.2608 19.3085 26.4498C21.0191 26.6821 22.1408 28.0167 22.2501 29.7396C22.3327 31.0405 22.4 32.9105 22.4 35.55C22.4 38.1895 22.3327 40.0595 22.2501 41.3604C22.1408 43.0833 21.0191 44.4179 19.3085 44.6502C17.917 44.8392 15.8738 45 12.95 45C10.0262 45 7.98302 44.8392 6.59154 44.6502C4.88086 44.4179 3.75919 43.0833 3.64986 41.3604C3.56731 40.0595 3.5 38.1895 3.5 35.55C3.5 32.9105 3.56731 31.0405 3.64986 29.7396ZM29.6915 3.34978C27.9809 3.58209 26.8592 4.91671 26.7499 6.63962C26.6673 7.9405 26.6 9.81048 26.6 12.45C26.6 15.0895 26.6673 16.9595 26.7499 18.2604C26.8592 19.9833 27.9809 21.3179 29.6915 21.5502C31.083 21.7392 33.1262 21.9 36.05 21.9C38.9738 21.9 41.017 21.7392 42.4085 21.5502C44.1191 21.3179 45.2408 19.9833 45.3501 18.2604C45.4327 16.9595 45.5 15.0895 45.5 12.45C45.5 9.81048 45.4327 7.9405 45.3501 6.63962C45.2408 4.91671 44.1191 3.58209 42.4085 3.34978C41.017 3.16083 38.9739 3 36.05 3C33.1262 3 31.083 3.16083 29.6915 3.34978Z" fill="#ACB4C9"/>
</svg>