<!-- Copyright © Ewsgit 2022. -->
<!-- Licensed under the MIT License - https://ewsgit.github.io/devdash/copyright -->

<svg width="48" height="48" viewBox="0 0 48 48" fill="none" xmlns="http://www.w3.org/2000/svg">
<circle cx="24" cy="24" r="20" fill="#ACB4C9"/>
<path fill-rule="evenodd" clip-rule="evenodd" d="M25.2809 12.4968C24.5591 11.7953 23.4393 11.7953 22.7176 12.4969C20.7657 14.3943 17.0123 18.3215 14.522 22.6816C14.0552 23.499 14.0552 24.4994 14.522 25.3167C17.0123 29.6769 20.7657 33.6041 22.7176 35.5015C23.4393 36.203 24.5591 36.2031 25.2809 35.5016C27.233 33.6042 30.9867 29.6768 33.4767 25.3165C33.9433 24.4992 33.9433 23.4991 33.4767 22.6819C30.9867 18.3216 27.233 14.3942 25.2809 12.4968ZM19.6124 26.8928C21.7475 29.6345 23.9992 31.2777 23.9992 31.2777C23.9992 31.2777 26.2521 29.6343 28.3875 26.8922C26.4946 27.6837 24.5444 28.4395 23.9992 28.4395C23.4542 28.4395 21.5048 27.6841 19.6124 26.8928ZM29.7862 23.1214C27.382 19.1883 23.9992 16.7207 23.9992 16.7207C23.9992 16.7207 20.6176 19.1884 18.2129 23.1216C20.1937 23.9247 23.2434 25.1093 23.9996 25.1093C24.7559 25.1093 27.8057 23.9245 29.7862 23.1214Z" fill="#576684"/>
</svg>