<!-- Copyright © Ewsgit 2022. -->
<!-- Licensed under the MIT License - https://ewsgit.github.io/devdash/copyright -->

<svg width="48" height="48" viewBox="0 0 48 48" fill="none" xmlns="http://www.w3.org/2000/svg">
<path d="M44 24C44 35.0457 35.0457 44 24 44C12.9543 44 4 35.0457 4 24C4 12.9543 12.9543 4 24 4C35.0457 4 44 12.9543 44 24Z" fill="#ACB4C9"/>
<path d="M17.9285 25.072C17.3968 25.072 16.8537 24.8314 16.7524 24.3096C16.7197 24.1414 16.7034 23.9582 16.7034 23.76C16.7034 23.2693 16.81 22.9173 17.0234 22.704C17.2367 22.4907 17.5034 22.384 17.8234 22.384H20.1594C19.3487 21.104 18.57 19.824 17.8234 18.544C17.3245 17.6888 16.8971 16.9003 16.541 16.1784C16.2303 15.5484 16.2817 14.7476 16.8773 14.3751C17.2589 14.1365 17.6981 14 18.1754 14C18.794 14 19.274 14.1387 19.6154 14.416C19.9567 14.672 20.3194 15.1413 20.7034 15.824L24.2234 22.064H24.4154C24.7994 21.3387 25.1407 20.688 25.4394 20.112C25.7594 19.5147 26.058 18.928 26.3354 18.352C26.6127 17.7547 26.9007 17.1467 27.1994 16.528C27.3343 16.2485 27.4779 15.9516 27.6303 15.6372C28.0143 14.845 28.6447 14.1383 29.5187 14.0329C29.7005 14.011 29.8874 14 30.0794 14C30.634 14 31.082 14.1493 31.4234 14.448C31.7647 14.7467 31.9354 15.152 31.9354 15.664C31.9354 16.0267 31.6367 16.7627 31.0394 17.872C30.442 18.96 29.5567 20.464 28.3834 22.384H30.4166C31.0093 22.384 31.5857 22.7251 31.6977 23.3072C31.7266 23.4579 31.7434 23.6095 31.7434 23.76C31.7434 24.208 31.626 24.5387 31.3914 24.752C31.178 24.9653 30.9007 25.072 30.5594 25.072H17.9285ZM26.2714 29.648V32.2176C26.2714 33.0207 25.7265 33.7479 24.9264 33.8162C24.7454 33.8317 24.5642 33.84 24.3834 33.84C23.594 33.84 23.0287 33.6907 22.6874 33.392C22.346 33.0933 22.1754 32.6027 22.1754 31.92V29.648H17.9285C17.3968 29.648 16.856 29.4064 16.7547 28.8845C16.7205 28.7081 16.7034 28.5146 16.7034 28.304C16.7034 27.792 16.81 27.44 17.0234 27.248C17.2367 27.056 17.5034 26.96 17.8234 26.96H30.4323C31.0005 26.96 31.5533 27.2756 31.6629 27.8331C31.6939 27.9909 31.7114 28.1494 31.7114 28.304C31.7114 28.7733 31.594 29.1147 31.3594 29.328C31.146 29.5413 30.8794 29.648 30.5594 29.648H26.2714Z" fill="#576684"/>
<path d="M21.75 24.6133H26.75L26.2778 25.6133V26.6133V28.6133H22.1919V26.6133V25.6133L21.75 24.6133Z" fill="#576684"/>
</svg>