<!-- Copyright © Ewsgit 2022. -->
<!-- Licensed under the MIT License - https://ewsgit.github.io/devdash/copyright -->

<svg width="49" height="48" viewBox="0 0 49 48" fill="none" xmlns="http://www.w3.org/2000/svg">
<path fill-rule="evenodd" clip-rule="evenodd" d="M5.62411 2.72269C4.3481 2.84515 3.34517 3.84806 3.2227 5.12407C2.86253 8.87675 3.16402 12.3431 3.3613 13.9912C3.43735 14.6266 3.83931 15.1791 4.46381 15.3185C5.01453 15.4414 5.75152 15.515 6.54145 15.3391C7.16604 15.2 7.56526 14.6266 7.64312 13.9915C7.88294 12.0351 7.96121 9.7684 7.98675 8.49718C7.99785 7.945 8.44511 7.49774 8.99728 7.48665C10.2685 7.46111 12.5352 7.38285 14.4915 7.14307C15.1267 7.06522 15.7001 6.66599 15.8391 6.04139C16.015 5.25148 15.9415 4.5145 15.8185 3.96379C15.6791 3.33928 15.1266 2.93732 14.4913 2.86127C12.8431 2.66401 9.37681 2.36255 5.62411 2.72269ZM43.3759 2.72269C44.6519 2.84515 45.6548 3.84806 45.7773 5.12407C46.1374 8.87675 45.836 12.3431 45.6387 13.9912C45.5626 14.6266 45.1607 15.1791 44.5362 15.3185C43.9854 15.4414 43.2485 15.515 42.4585 15.3391C41.8339 15.2 41.4347 14.6266 41.3569 13.9915C41.117 12.0351 41.0388 9.7684 41.0132 8.49718C41.0021 7.945 40.5549 7.49774 40.0027 7.48665C38.7315 7.46111 36.4648 7.38285 34.5085 7.14307C33.8733 7.06522 33.2999 6.66599 33.1608 6.04139C32.985 5.25148 33.0585 4.5145 33.1814 3.96379C33.3209 3.33928 33.8734 2.93732 34.5087 2.86127C36.1569 2.66401 39.6232 2.36255 43.3759 2.72269ZM45.7773 42.8759C45.6548 44.1519 44.6519 45.1549 43.3759 45.2773C39.6232 45.6375 36.1569 45.336 34.5087 45.1387C33.8734 45.0627 33.3209 44.6607 33.1814 44.0362C33.0585 43.4855 32.985 42.7485 33.1608 41.9586C33.2999 41.334 33.8733 40.9348 34.5085 40.8569C36.4648 40.6172 38.7315 40.5389 40.0027 40.5134C40.5549 40.5023 41.0021 40.055 41.0132 39.5028C41.0388 38.2316 41.117 35.9649 41.3569 34.0085C41.4347 33.3734 41.8339 32.8 42.4585 32.6609C43.2485 32.485 43.9854 32.5586 44.5362 32.6815C45.1607 32.8209 45.5626 33.3734 45.6387 34.0088C45.836 35.6569 46.1374 39.1232 45.7773 42.8759ZM5.62411 45.2773C4.3481 45.1549 3.34517 44.1519 3.2227 42.8759C2.86253 39.1232 3.16402 35.6569 3.3613 34.0088C3.43735 33.3734 3.83931 32.8209 4.46381 32.6815C5.01453 32.5586 5.75152 32.485 6.54145 32.6609C7.16603 32.8 7.56526 33.3734 7.64312 34.0085C7.88294 35.9649 7.96121 38.2316 7.98675 39.5028C7.99785 40.055 8.44511 40.5023 8.99728 40.5134C10.2685 40.5389 12.5352 40.6172 14.4915 40.8569C15.1267 40.9348 15.7001 41.334 15.8391 41.9586C16.015 42.7485 15.9415 43.4855 15.8185 44.0362C15.6791 44.6607 15.1266 45.0627 14.4913 45.1387C12.8431 45.336 9.37681 45.6375 5.62411 45.2773Z" fill="#576684"/>
<path fill-rule="evenodd" clip-rule="evenodd" d="M13.4685 10.1446C11.7498 10.3072 10.6323 11.6264 10.5586 13.3512C10.524 14.1609 10.5 15.1934 10.5 16.5C10.5 17.8066 10.524 18.8391 10.5586 19.6488C10.6323 21.3736 11.7498 22.6928 13.4685 22.8554C14.3569 22.9395 15.5128 23 17 23C18.4872 23 19.6431 22.9395 20.5315 22.8554C22.2502 22.6928 23.3677 21.3736 23.4414 19.6488C23.476 18.8391 23.5 17.8066 23.5 16.5C23.5 15.1934 23.476 14.1609 23.4414 13.3512C23.3677 11.6264 22.2502 10.3072 20.5315 10.1446C19.6431 10.0605 18.4872 10 17 10C15.5128 10 14.3569 10.0605 13.4685 10.1446ZM15.5034 14.0698C14.9314 14.133 14.5582 14.5747 14.529 15.1494C14.5123 15.4791 14.5 15.9191 14.5 16.5C14.5 17.0809 14.5123 17.5209 14.529 17.8506C14.5582 18.4253 14.9314 18.867 15.5034 18.9302C15.8607 18.9697 16.3474 19 17 19C17.6526 19 18.1393 18.9697 18.4966 18.9302C19.0686 18.867 19.4418 18.4253 19.471 17.8506C19.4877 17.5209 19.5 17.0809 19.5 16.5C19.5 15.9191 19.4877 15.4791 19.471 15.1494C19.4418 14.5747 19.0686 14.133 18.4966 14.0698C18.1393 14.0303 17.6526 14 17 14C16.3474 14 15.8607 14.0303 15.5034 14.0698ZM26.5621 27.2478C26.6019 26.6737 26.9764 26.2273 27.5458 26.1436C28.0616 26.0677 28.8454 26 30 26C31.1546 26 31.9384 26.0677 32.4542 26.1436C33.0236 26.2273 33.3981 26.6737 33.4379 27.2478C33.4714 27.7322 33.5 28.4525 33.5 29.5C33.5 30.1262 33.4898 30.6355 33.4744 31.0473C33.8908 31.0186 34.3944 31 35 31C36.1546 31 36.9384 31.0677 37.4542 31.1436C38.0236 31.2273 38.3981 31.6737 38.4379 32.2478C38.4714 32.7322 38.5 33.4525 38.5 34.5C38.5 35.5475 38.4714 36.2678 38.4379 36.7522C38.3981 37.3263 38.0236 37.7727 37.4542 37.8564C36.9384 37.9323 36.1546 38 35 38C33.8454 38 33.0616 37.9323 32.5458 37.8564C31.9764 37.7727 31.6019 37.3263 31.5621 36.7522C31.5286 36.2678 31.5 35.5475 31.5 34.5C31.5 33.8738 31.5102 33.3645 31.5256 32.9527C31.1092 32.9814 30.6056 33 30 33C28.8454 33 28.0616 32.9323 27.5458 32.8564C26.9764 32.7727 26.6019 32.3263 26.5621 31.7522C26.5286 31.2678 26.5 30.5475 26.5 29.5C26.5 28.4525 26.5286 27.7322 26.5621 27.2478ZM35.5046 27.0519C35.5174 26.4766 35.8883 26.0437 36.4629 26.0132C36.6167 26.005 36.7947 26 37 26C37.2053 26 37.3833 26.005 37.5371 26.0132C38.1117 26.0437 38.4826 26.4766 38.4954 27.0519C38.4983 27.1829 38.5 27.3316 38.5 27.5C38.5 27.6684 38.4983 27.8171 38.4954 27.9481C38.4826 28.5234 38.1117 28.9563 37.5371 28.9868C37.3833 28.995 37.2053 29 37 29C36.7947 29 36.6167 28.995 36.4629 28.9868C35.8883 28.9563 35.5174 28.5234 35.5046 27.9481C35.5017 27.8171 35.5 27.6684 35.5 27.5C35.5 27.3316 35.5017 27.1829 35.5046 27.0519ZM27.4629 35.0132C26.8883 35.0437 26.5174 35.4766 26.5046 36.0519C26.5017 36.1829 26.5 36.3316 26.5 36.5C26.5 36.6684 26.5017 36.8171 26.5046 36.9481C26.5174 37.5234 26.8883 37.9563 27.4629 37.9868C27.6167 37.995 27.7947 38 28 38C28.2053 38 28.3833 37.995 28.5371 37.9868C29.1117 37.9563 29.4826 37.5234 29.4954 36.9481C29.4983 36.8171 29.5 36.6684 29.5 36.5C29.5 36.3316 29.4983 36.1829 29.4954 36.0519C29.4826 35.4766 29.1117 35.0437 28.5371 35.0132C28.3833 35.005 28.2053 35 28 35C27.7947 35 27.6167 35.005 27.4629 35.0132ZM10.5586 28.3512C10.6323 26.6264 11.7498 25.3072 13.4685 25.1446C14.3569 25.0605 15.5128 25 17 25C18.4872 25 19.6431 25.0605 20.5315 25.1446C22.2502 25.3072 23.3677 26.6264 23.4414 28.3512C23.476 29.1609 23.5 30.1934 23.5 31.5C23.5 32.8066 23.476 33.8391 23.4414 34.6488C23.3677 36.3736 22.2502 37.6928 20.5315 37.8554C19.6431 37.9395 18.4872 38 17 38C15.5128 38 14.3569 37.9395 13.4685 37.8554C11.7498 37.6928 10.6323 36.3736 10.5586 34.6488C10.524 33.8391 10.5 32.8066 10.5 31.5C10.5 30.1934 10.524 29.1609 10.5586 28.3512ZM28.4685 10.1446C26.7498 10.3072 25.6323 11.6264 25.5586 13.3512C25.524 14.1609 25.5 15.1934 25.5 16.5C25.5 17.8066 25.524 18.8391 25.5586 19.6488C25.6323 21.3736 26.7498 22.6928 28.4685 22.8554C29.3569 22.9395 30.5128 23 32 23C33.4872 23 34.6431 22.9395 35.5315 22.8554C37.2502 22.6928 38.3677 21.3736 38.4414 19.6488C38.476 18.8391 38.5 17.8066 38.5 16.5C38.5 15.1934 38.476 14.1609 38.4414 13.3512C38.3677 11.6264 37.2502 10.3072 35.5315 10.1446C34.6431 10.0605 33.4872 10 32 10C30.5128 10 29.3569 10.0605 28.4685 10.1446Z" fill="#ACB4C9"/>
</svg>