<!-- Copyright © Ewsgit 2022. -->
<!-- Licensed under the MIT License - https://ewsgit.github.io/devdash/copyright -->

<svg width="49" height="48" viewBox="0 0 49 48" fill="none" xmlns="http://www.w3.org/2000/svg">
<path fill-rule="evenodd" clip-rule="evenodd" d="M34.6284 4.17191C34.8696 4.18629 36.9133 4.41337 40.4999 7.99998C44.1181 11.6182 44.3141 13.5854 44.3248 13.7879C44.3249 13.7924 44.3251 13.797 44.3253 13.8016C44.3254 13.8041 44.3254 13.8053 44.3254 13.8053L44.3255 13.8052C44.4293 16.4095 44.5 19.7451 44.5 24C44.5 33.2895 44.1629 39.2081 43.8802 42.5387C43.7495 44.0781 42.0071 44.756 40.8203 43.7669L37.5 41L34.7658 43.7342C34.0452 44.4548 32.898 44.5184 32.1022 43.8817L28.5 41L25.9142 43.5858C25.1332 44.3668 23.8668 44.3668 23.0858 43.5858L20.5 41L16.8978 43.8817C16.102 44.5184 14.9548 44.4548 14.2342 43.7342L11.5 41L8.1797 43.7669C6.99285 44.756 5.25053 44.0781 5.11984 42.5387C4.83709 39.2081 4.5 33.2895 4.5 24C4.5 15.4507 4.78551 10.6131 5.05141 7.96144C5.23985 6.08233 6.58233 4.73985 8.46144 4.55141C11.1131 4.28551 15.9507 4 24.5 4C28.7189 4 32.0339 4.06953 34.6284 4.17191Z" fill="#ACB4C9"/>
<path d="M44.3255 13.8062C43.4504 13.9139 42.2134 14.0009 40.5 14.0009C39.241 14.0009 38.2393 13.9539 37.4493 13.8863C35.7292 13.739 34.6117 12.4239 34.5456 10.6988C34.5183 9.98491 34.5 9.09751 34.5 8.00091C34.5 6.22796 34.5478 5.00184 34.6043 4.17188C34.6043 4.17188 36.6745 4.17545 40.5 8.00091C44.3255 11.8264 44.3255 13.8062 44.3255 13.8062Z" fill="#576684"/>
<path fill-rule="evenodd" clip-rule="evenodd" d="M22.9076 30.9311C22.0042 30.3678 21.3164 29.5436 20.8442 28.4585H27.8351C28.1431 28.4585 28.3895 28.3542 28.5743 28.1455C28.7796 27.9369 28.8822 27.6239 28.8822 27.2066C28.8822 27.0722 28.8689 26.9374 28.8449 26.8039C28.7436 26.2413 28.1814 25.9233 27.6097 25.9233H20.2664C20.2352 25.6401 20.2192 25.3514 20.2192 25.0583C20.2192 24.7574 20.2361 24.4611 20.2689 24.1706H27.8351C28.1431 24.1706 28.3895 24.0767 28.5743 23.8889C28.7796 23.6802 28.8822 23.3568 28.8822 22.9186C28.8822 22.7866 28.8683 22.6515 28.8436 22.5165C28.7406 21.9542 28.1814 21.6354 27.6097 21.6354H20.8442C21.3164 20.5086 22.0042 19.6635 22.9076 19.1002C23.811 18.5368 24.8478 18.2551 26.0181 18.2551C27.0036 18.2551 27.8249 18.4011 28.4819 18.6933C28.7265 18.7943 28.9626 18.9011 29.1902 19.0136C29.8727 19.3513 30.7714 19.4335 31.1425 18.7686C31.2905 18.5034 31.3768 18.204 31.3768 17.8795C31.3768 17.483 31.2331 17.1179 30.9457 16.784C30.6787 16.4293 30.2886 16.1268 29.7754 15.8764C29.2826 15.6051 28.6667 15.3965 27.9275 15.2504C27.2089 15.0835 26.4082 15 25.5254 15C23.4517 15 21.6347 15.5634 20.0743 16.6901C18.5139 17.8169 17.436 19.4653 16.8406 21.6354H15.5471C15.2597 21.6354 15.0133 21.7293 14.808 21.9171C14.6027 22.1049 14.5 22.4387 14.5 22.9186C14.5 23.1057 14.5146 23.2779 14.5439 23.4352C14.6384 23.9422 15.1672 24.1706 15.6829 24.1706H16.6074V25.9233H15.5471C15.2597 25.9233 15.0133 26.0172 14.808 26.205C14.6027 26.3928 14.5 26.7267 14.5 27.2066C14.5 27.3772 14.5132 27.5368 14.5396 27.6851C14.6335 28.2133 15.1827 28.4585 15.7192 28.4585H16.8098C17.0767 29.5436 17.4873 30.493 18.0417 31.3067C18.6165 32.1205 19.2941 32.8091 20.0743 33.3725C20.8545 33.915 21.7271 34.3219 22.692 34.5931C23.6775 34.8644 24.7246 35 25.8333 35C26.942 35 27.8557 34.8957 28.5743 34.687C29.3134 34.4784 29.8883 34.2488 30.2989 33.9984C31.0996 33.5394 31.5 32.9447 31.5 32.2144C31.5 31.9204 31.4355 31.6471 31.3208 31.3993C30.9849 30.6737 30.0273 30.7322 29.3056 31.0765C29.0908 31.179 28.8675 31.2766 28.6359 31.3693C27.9789 31.6197 27.1679 31.7449 26.2029 31.7449C24.9094 31.7449 23.811 31.4737 22.9076 30.9311Z" fill="#576684"/>
</svg>