<!-- Copyright © Ewsgit 2022. -->
<!-- Licensed under the MIT License - https://ewsgit.github.io/devdash/copyright -->

<svg width="48" height="48" viewBox="0 0 48 48" fill="none" xmlns="http://www.w3.org/2000/svg">
<path d="M4.56198 8.68502C4.73932 6.96777 5.86521 5.60848 7.55375 5.24901C10.219 4.68162 15.2432 4 24 4C32.7568 4 37.781 4.68162 40.4463 5.24901C42.1348 5.60848 43.2607 6.96778 43.438 8.68502C43.701 11.2312 44 15.9061 44 24C44 32.0939 43.701 36.7688 43.438 39.315C43.2607 41.0322 42.1348 42.3915 40.4462 42.751C37.781 43.3184 32.7568 44 24 44C15.2432 44 10.219 43.3184 7.55375 42.751C5.86521 42.3915 4.73932 41.0322 4.56198 39.315C4.29904 36.7688 4 32.0939 4 24C4 15.9061 4.29904 11.2312 4.56198 8.68502Z" fill="#ACB4C9"/>
<path fill-rule="evenodd" clip-rule="evenodd" d="M4.2315 13.194C6.78095 15.7049 9.51524 18.094 11.6671 19.8969C12.2902 20.4189 12.8623 20.8901 13.3646 21.2989L16.8791 15.6757C17.3329 14.9496 18.1269 14.5062 18.9832 14.5008C19.8395 14.4953 20.639 14.9285 21.102 15.6488C23.2538 18.9961 25.6579 21.8837 27.534 23.9413C28.0008 24.4534 28.4333 24.9121 28.8189 25.3118L32.0785 21.4003C32.5496 20.8349 33.2459 20.5059 33.9817 20.5008C34.7176 20.4957 35.4183 20.815 35.8972 21.3737C38.8138 24.7764 41.7379 27.703 43.9413 29.7852C43.8838 32.4777 43.7886 34.6188 43.6814 36.3066C43.5708 36.2104 43.4485 36.1034 43.3152 35.986C42.6401 35.3912 41.681 34.5279 40.5325 33.4432C38.7266 31.7377 36.4426 29.4755 34.0532 26.8409L30.9196 30.6012C30.4832 31.1249 29.8518 31.4477 29.1717 31.4947C28.4916 31.5418 27.8218 31.3091 27.3174 30.8506L27.3161 30.8494L27.3143 30.8477L27.3092 30.8431C26.9703 30.5328 26.6406 30.2124 26.3135 29.8897C25.7006 29.285 24.8415 28.4094 23.8392 27.3101C22.4535 25.7904 20.7811 23.8286 19.1031 21.5512L16.1191 26.3257C15.7453 26.9237 15.1364 27.3361 14.4423 27.4611C13.7483 27.5861 13.033 27.4117 12.474 26.9817C12.0926 26.6875 11.715 26.3882 11.3385 26.0878C10.6302 25.5228 9.63004 24.7132 8.45603 23.7295C7.14845 22.634 5.6166 21.3155 4.02734 19.8733C4.06586 17.1876 4.14056 14.9868 4.2315 13.194Z" fill="#576684"/>
</svg>