<!-- Copyright © Ewsgit 2022. -->
<!-- Licensed under the MIT License - https://ewsgit.github.io/devdash/copyright -->

<svg width="49" height="48" viewBox="0 0 49 48" fill="none" xmlns="http://www.w3.org/2000/svg">
<path d="M26.5398 4.87554C29.2392 4.67628 35.2785 4.3443 41.7925 4.73917C43.6928 4.85436 45.2003 6.36189 45.3155 8.26221C45.7104 14.7761 45.3784 20.8154 45.1792 23.5149C45.1069 24.4938 44.774 25.4234 44.1963 26.2169C42.0194 29.2074 35.849 37.1259 27.3269 43.4053C25.9098 44.4494 24.0895 44.6559 22.6276 43.6756C20.8225 42.4653 17.9892 40.195 14.0556 35.9991C10.5589 32.2694 8.36642 29.6264 7.02208 27.8676C5.71455 26.1569 5.77604 23.8789 7.07278 22.16C13.2802 13.9319 20.9141 7.98666 23.8378 5.8584C24.6313 5.28074 25.5609 4.94779 26.5398 4.87554Z" fill="#ACB4C9"/>
<circle r="3" transform="matrix(-1 0 0 1 38.0547 12)" fill="#576684"/>
</svg>