<!-- Copyright © Ewsgit 2022. -->
<!-- Licensed under the MIT License - https://ewsgit.github.io/devdash/copyright -->

<svg width="48" height="48" viewBox="0 0 48 48" fill="none" xmlns="http://www.w3.org/2000/svg">
<path d="M44 24C44 35.0457 35.0457 44 24 44C12.9543 44 4 35.0457 4 24C4 12.9543 12.9543 4 24 4C35.0457 4 44 12.9543 44 24Z" fill="#ACB4C9"/>
<path fill-rule="evenodd" clip-rule="evenodd" d="M21.736 30.288C20.7973 29.712 20.0827 28.8693 19.592 27.76H26.856C27.176 27.76 27.432 27.6533 27.624 27.44C27.8373 27.2267 27.944 26.9067 27.944 26.48C27.944 26.3329 27.9281 26.1854 27.8997 26.0395C27.7913 25.4818 27.2331 25.168 26.6649 25.168H18.9916C18.9589 24.8769 18.942 24.5801 18.942 24.2788C18.942 23.9728 18.9594 23.6715 18.9932 23.376H26.856C27.176 23.376 27.432 23.28 27.624 23.088C27.8373 22.8747 27.944 22.544 27.944 22.096C27.944 21.9517 27.9275 21.8037 27.8983 21.6561C27.7883 21.0987 27.2331 20.784 26.6649 20.784H19.592C20.0827 19.632 20.7973 18.768 21.736 18.192C22.6747 17.616 23.752 17.328 24.968 17.328C25.992 17.328 26.8453 17.4773 27.528 17.776C27.8026 17.8876 28.0669 18.0061 28.3209 18.1314C28.9943 18.464 29.8737 18.5456 30.2631 17.9033C30.4349 17.6199 30.536 17.2964 30.536 16.944C30.536 16.5387 30.3867 16.1653 30.088 15.824C29.8107 15.4613 29.4053 15.152 28.872 14.896C28.36 14.6187 27.72 14.4053 26.952 14.256C26.2053 14.0853 25.3733 14 24.456 14C22.3013 14 20.4133 14.576 18.792 15.728C17.1707 16.88 16.0507 18.5653 15.432 20.784H14.088C13.7893 20.784 13.5333 20.88 13.32 21.072C13.1067 21.264 13 21.6053 13 22.096C13 22.2987 13.0171 22.4843 13.0513 22.6528C13.1528 23.1535 13.678 23.376 14.1889 23.376H15.192V25.168H14.088C13.7893 25.168 13.5333 25.264 13.32 25.456C13.1067 25.648 13 25.9893 13 26.48C13 26.6658 13.0155 26.8387 13.0466 26.9986C13.148 27.5205 13.6935 27.76 14.2251 27.76H15.4C15.6773 28.8693 16.104 29.84 16.68 30.672C17.2773 31.504 17.9813 32.208 18.792 32.784C19.6027 33.3387 20.5093 33.7547 21.512 34.032C22.536 34.3093 23.624 34.448 24.776 34.448C25.928 34.448 26.8773 34.3413 27.624 34.128C28.392 33.9147 28.9893 33.68 29.416 33.424C30.248 32.9547 30.664 32.3467 30.664 31.6C30.664 31.2777 30.587 30.9799 30.4512 30.7123C30.0943 30.0088 29.1568 30.0682 28.4448 30.4078C28.2029 30.5231 27.9506 30.6325 27.688 30.736C27.0053 30.992 26.1627 31.12 25.16 31.12C23.816 31.12 22.6747 30.8427 21.736 30.288Z" fill="#576684"/>
</svg>