<!-- Copyright © Ewsgit 2022. -->
<!-- Licensed under the MIT License - https://ewsgit.github.io/devdash/copyright -->

<svg xmlns="http://www.w3.org/2000/svg" width="49" height="48" fill="none" viewBox="0 0 49 48"><path fill="#576684" fill-rule="evenodd" d="M5.62411 2.72269C4.3481 2.84515 3.34517 3.84806 3.2227 5.12407C2.86253 8.87675 3.16402 12.3431 3.3613 13.9912C3.43735 14.6266 3.83931 15.1791 4.46381 15.3185C5.01453 15.4414 5.75152 15.515 6.54145 15.3391C7.16604 15.2 7.56526 14.6266 7.64312 13.9915C7.88294 12.0351 7.96121 9.7684 7.98675 8.49718C7.99785 7.945 8.44511 7.49774 8.99728 7.48665C10.2685 7.46111 12.5352 7.38285 14.4915 7.14307C15.1267 7.06522 15.7001 6.66599 15.8391 6.04139C16.015 5.25148 15.9415 4.5145 15.8185 3.96379C15.6791 3.33928 15.1266 2.93732 14.4913 2.86127C12.8431 2.66401 9.37681 2.36255 5.62411 2.72269ZM43.3759 2.72269C44.6519 2.84515 45.6548 3.84806 45.7773 5.12407C46.1374 8.87675 45.836 12.3431 45.6387 13.9912C45.5626 14.6266 45.1607 15.1791 44.5362 15.3185C43.9854 15.4414 43.2485 15.515 42.4585 15.3391C41.8339 15.2 41.4347 14.6266 41.3569 13.9915C41.117 12.0351 41.0388 9.7684 41.0132 8.49718C41.0021 7.945 40.5549 7.49774 40.0027 7.48665C38.7315 7.46111 36.4648 7.38285 34.5085 7.14307C33.8733 7.06522 33.2999 6.66599 33.1608 6.04139C32.985 5.25148 33.0585 4.5145 33.1814 3.96379C33.3209 3.33928 33.8734 2.93732 34.5087 2.86127C36.1569 2.66401 39.6232 2.36255 43.3759 2.72269ZM45.7773 42.8759C45.6548 44.1519 44.6519 45.1549 43.3759 45.2773C39.6232 45.6375 36.1569 45.336 34.5087 45.1387C33.8734 45.0627 33.3209 44.6607 33.1814 44.0362C33.0585 43.4855 32.985 42.7485 33.1608 41.9586C33.2999 41.334 33.8733 40.9348 34.5085 40.8569C36.4648 40.6172 38.7315 40.5389 40.0027 40.5134C40.5549 40.5023 41.0021 40.055 41.0132 39.5028C41.0388 38.2316 41.117 35.9649 41.3569 34.0085C41.4347 33.3734 41.8339 32.8 42.4585 32.6609C43.2485 32.485 43.9854 32.5586 44.5362 32.6815C45.1607 32.8209 45.5626 33.3734 45.6387 34.0088C45.836 35.6569 46.1374 39.1232 45.7773 42.8759ZM5.62411 45.2773C4.3481 45.1549 3.34517 44.1519 3.2227 42.8759C2.86253 39.1232 3.16402 35.6569 3.3613 34.0088C3.43735 33.3734 3.83931 32.8209 4.46381 32.6815C5.01453 32.5586 5.75152 32.485 6.54145 32.6609C7.16603 32.8 7.56526 33.3734 7.64312 34.0085C7.88294 35.9649 7.96121 38.2316 7.98675 39.5028C7.99785 40.055 8.44511 40.5023 8.99728 40.5134C10.2685 40.5389 12.5352 40.6172 14.4915 40.8569C15.1267 40.9348 15.7001 41.334 15.8391 41.9586C16.015 42.7485 15.9415 43.4855 15.8185 44.0362C15.6791 44.6607 15.1266 45.0627 14.4913 45.1387C12.8431 45.336 9.37681 45.6375 5.62411 45.2773Z" clip-rule="evenodd"/><path fill="#ACB4C9" fill-rule="evenodd" d="M13.5004 35.936C14.0317 35.8583 14.3297 35.3996 14.3552 34.8633C14.4144 33.6209 14.5 30.6713 14.5 24C14.5 17.3287 14.4144 14.3791 14.3552 13.1367C14.3297 12.6004 14.0317 12.1417 13.5004 12.064C13.2451 12.0266 12.9169 12 12.5 12C12.0831 12 11.7549 12.0266 11.4996 12.064C10.9683 12.1417 10.6703 12.6004 10.6448 13.1367C10.5856 14.3791 10.5 17.3287 10.5 24C10.5 30.6713 10.5856 33.6209 10.6448 34.8633C10.6703 35.3996 10.9683 35.8583 11.4996 35.936C11.7549 35.9734 12.0831 36 12.5 36C12.9169 36 13.2451 35.9734 13.5004 35.936ZM19.3787 29.9642C19.9743 29.91 20.3418 29.4318 20.3733 28.8346C20.4304 27.7544 20.5 25.5123 20.5 21C20.5 16.4877 20.4304 14.2456 20.3733 13.1654C20.3418 12.5682 19.9743 12.09 19.3787 12.0358C19.1431 12.0143 18.8534 12 18.5 12C18.1466 12 17.8569 12.0143 17.6213 12.0358C17.0257 12.09 16.6582 12.5682 16.6267 13.1654C16.5696 14.2456 16.5 16.4877 16.5 21C16.5 25.5123 16.5696 27.7544 16.6267 28.8346C16.6582 29.4318 17.0257 29.91 17.6213 29.9642C17.8569 29.9857 18.1466 30 18.5 30C18.8534 30 19.1431 29.9857 19.3787 29.9642ZM26.3733 28.8346C26.3418 29.4318 25.9743 29.91 25.3787 29.9642C25.1431 29.9857 24.8534 30 24.5 30C24.1466 30 23.8569 29.9857 23.6213 29.9642C23.0257 29.91 22.6582 29.4318 22.6267 28.8346C22.5696 27.7544 22.5 25.5123 22.5 21C22.5 16.4877 22.5696 14.2456 22.6267 13.1654C22.6582 12.5682 23.0257 12.09 23.6213 12.0358C23.8569 12.0143 24.1466 12 24.5 12C24.8534 12 25.1431 12.0143 25.3787 12.0358C25.9743 12.09 26.3418 12.5682 26.3733 13.1654C26.4304 14.2456 26.5 16.4877 26.5 21C26.5 25.5123 26.4304 27.7544 26.3733 28.8346ZM26.4579 35.1583C26.4123 35.6773 26.0101 35.9771 25.4893 35.9896C25.2355 35.9957 24.9108 36 24.5 36C24.0892 36 23.7645 35.9957 23.5107 35.9896C22.9899 35.9771 22.5877 35.6773 22.5421 35.1583C22.5175 34.8782 22.5 34.5024 22.5 34C22.5 33.4976 22.5175 33.1218 22.5421 32.8417C22.5877 32.3227 22.9899 32.0229 23.5107 32.0104C23.7645 32.0043 24.0892 32 24.5 32C24.9108 32 25.2355 32.0043 25.4893 32.0104C26.0101 32.0229 26.4123 32.3227 26.4579 32.8417C26.4825 33.1218 26.5 33.4976 26.5 34C26.5 34.5024 26.4825 34.8782 26.4579 35.1583ZM31.3787 29.9642C31.9743 29.91 32.3418 29.4318 32.3733 28.8346C32.4304 27.7544 32.5 25.5123 32.5 21C32.5 16.4877 32.4304 14.2456 32.3733 13.1654C32.3418 12.5682 31.9743 12.09 31.3787 12.0358C31.1431 12.0143 30.8534 12 30.5 12C30.1466 12 29.8569 12.0143 29.6213 12.0358C29.0257 12.09 28.6582 12.5682 28.6267 13.1654C28.5696 14.2456 28.5 16.4877 28.5 21C28.5 25.5123 28.5696 27.7544 28.6267 28.8346C28.6582 29.4318 29.0257 29.91 29.6213 29.9642C29.8569 29.9857 30.1466 30 30.5 30C30.8534 30 31.1431 29.9857 31.3787 29.9642ZM32.4579 35.1583C32.4123 35.6773 32.0101 35.9771 31.4893 35.9896C31.2355 35.9957 30.9108 36 30.5 36C30.0892 36 29.7645 35.9957 29.5107 35.9896C28.9899 35.9771 28.5877 35.6773 28.5421 35.1583C28.5175 34.8782 28.5 34.5024 28.5 34C28.5 33.4976 28.5175 33.1218 28.5421 32.8417C28.5877 32.3227 28.9899 32.0229 29.5107 32.0104C29.7645 32.0043 30.0892 32 30.5 32C30.9108 32 31.2355 32.0043 31.4893 32.0104C32.0101 32.0229 32.4123 32.3227 32.4579 32.8417C32.4825 33.1218 32.5 33.4976 32.5 34C32.5 34.5024 32.4825 34.8782 32.4579 35.1583ZM20.4579 35.1583C20.4123 35.6773 20.0101 35.9771 19.4893 35.9896C19.2355 35.9957 18.9108 36 18.5 36C18.0892 36 17.7645 35.9957 17.5107 35.9896C16.9899 35.9771 16.5877 35.6773 16.5421 35.1583C16.5175 34.8782 16.5 34.5024 16.5 34C16.5 33.4976 16.5175 33.1218 16.5421 32.8417C16.5877 32.3227 16.9899 32.0229 17.5107 32.0104C17.7645 32.0043 18.0892 32 18.5 32C18.9108 32 19.2355 32.0043 19.4893 32.0104C20.0101 32.0229 20.4123 32.3227 20.4579 32.8417C20.4825 33.1218 20.5 33.4976 20.5 34C20.5 34.5024 20.4825 34.8782 20.4579 35.1583ZM38.3552 34.8633C38.3297 35.3996 38.0317 35.8583 37.5004 35.936C37.2451 35.9734 36.9169 36 36.5 36C36.0831 36 35.7549 35.9734 35.4996 35.936C34.9683 35.8583 34.6703 35.3996 34.6448 34.8633C34.5856 33.6209 34.5 30.6713 34.5 24C34.5 17.3287 34.5856 14.3791 34.6448 13.1367C34.6703 12.6004 34.9683 12.1417 35.4996 12.064C35.7549 12.0266 36.0831 12 36.5 12C36.9169 12 37.2451 12.0266 37.5004 12.064C38.0317 12.1417 38.3297 12.6004 38.3552 13.1367C38.4144 14.3791 38.5 17.3287 38.5 24C38.5 30.6713 38.4144 33.6209 38.3552 34.8633Z" clip-rule="evenodd"/></svg>