<!-- Copyright © Ewsgit 2022. -->
<!-- Licensed under the MIT License - https://ewsgit.github.io/devdash/copyright -->

<svg width="48" height="48" viewBox="0 0 48 48" fill="none" xmlns="http://www.w3.org/2000/svg">
<path fill-rule="evenodd" clip-rule="evenodd" d="M37.2675 31.5389C38.999 28.7733 40 25.5035 40 22C40 12.0589 31.9411 4 22 4C12.0589 4 4 12.0589 4 22C4 31.9411 12.0589 40 22 40C25.4954 40 28.7581 39.0037 31.5196 37.2796C31.6767 37.4685 31.8333 37.6572 31.9897 37.8455C33.5982 39.7827 35.1783 41.6858 36.9976 43.5597C38.101 44.6962 39.748 44.8606 40.9265 43.8017C41.344 43.4266 41.8325 42.9657 42.3987 42.4005C42.9649 41.8353 43.4267 41.3476 43.8024 40.9308C44.8631 39.7544 44.6985 38.1102 43.5599 37.0087C41.6828 35.1925 39.7764 33.6151 37.8359 32.0094C37.6467 31.8529 37.4573 31.6962 37.2675 31.5389Z" fill="#576684"/>
<circle cx="22" cy="22" r="12" fill="#ACB4C9"/>
<path fill-rule="evenodd" clip-rule="evenodd" d="M29.4142 18.0858C30.1953 18.8668 30.1953 20.1332 29.4142 20.9142L23.4142 26.9142C22.6332 27.6953 21.3668 27.6953 20.5858 26.9142L17 23.3284L10.9142 29.4142C10.1332 30.1953 8.86683 30.1953 8.08579 29.4142C7.30474 28.6332 7.30474 27.3668 8.08579 26.5858L15.5858 19.0858C16.3668 18.3047 17.6332 18.3047 18.4142 19.0858L22 22.6716L26.5858 18.0858C27.3668 17.3047 28.6332 17.3047 29.4142 18.0858Z" fill="#576684"/>
</svg>