<!-- Copyright © Ewsgit 2022. -->
<!-- Licensed under the MIT License - https://ewsgit.github.io/devdash/copyright -->

<svg width="49" height="48" viewBox="0 0 49 48" fill="none" xmlns="http://www.w3.org/2000/svg">
<path fill-rule="evenodd" clip-rule="evenodd" d="M34.6284 4.17191C34.8696 4.18629 36.9133 4.41337 40.4999 7.99998C44.1181 11.6182 44.3141 13.5854 44.3248 13.7879C44.3249 13.7924 44.3251 13.797 44.3253 13.8016C44.3254 13.8041 44.3254 13.8053 44.3254 13.8053L44.3255 13.8052C44.4293 16.4095 44.5 19.7451 44.5 24C44.5 33.2895 44.1629 39.2081 43.8802 42.5387C43.7495 44.0781 42.0071 44.756 40.8203 43.7669L37.5 41L34.7658 43.7342C34.0452 44.4548 32.898 44.5184 32.1022 43.8817L28.5 41L25.9142 43.5858C25.1332 44.3668 23.8668 44.3668 23.0858 43.5858L20.5 41L16.8978 43.8817C16.102 44.5184 14.9548 44.4548 14.2342 43.7342L11.5 41L8.1797 43.7669C6.99285 44.756 5.25053 44.0781 5.11984 42.5387C4.83709 39.2081 4.5 33.2895 4.5 24C4.5 15.4507 4.78551 10.6131 5.05141 7.96144C5.23985 6.08233 6.58233 4.73985 8.46144 4.55141C11.1131 4.28551 15.9507 4 24.5 4C28.7189 4 32.0339 4.06953 34.6284 4.17191Z" fill="#ACB4C9"/>
<path d="M44.3255 13.8062C43.4504 13.9139 42.2134 14.0009 40.5 14.0009C39.241 14.0009 38.2393 13.9539 37.4493 13.8863C35.7292 13.739 34.6117 12.4239 34.5456 10.6988C34.5183 9.98491 34.5 9.09751 34.5 8.00091C34.5 6.22796 34.5478 5.00184 34.6043 4.17188C34.6043 4.17188 36.6745 4.17545 40.5 8.00091C44.3255 11.8264 44.3255 13.8062 44.3255 13.8062Z" fill="#576684"/>
<path fill-rule="evenodd" clip-rule="evenodd" d="M19.9717 17.5185C19.193 16.8001 17.9923 16.8342 17.2432 17.5834L17.0834 17.7432C16.3342 18.4923 16.3001 19.693 17.0185 20.4717C17.9749 21.5083 19.4208 23.0501 21.1796 24.846C19.504 26.5612 18.1256 28.0317 17.2028 29.0319C16.4844 29.8106 16.5185 31.0113 17.2676 31.7605L17.4274 31.9203C18.1766 32.6694 19.3773 32.7035 20.1559 31.9851C21.1565 31.0619 22.6278 29.6827 24.3439 28.0062C26.0601 29.6827 27.5313 31.0619 28.5319 31.9851C29.3106 32.7035 30.5113 32.6694 31.2605 31.9203L31.4203 31.7605C32.1694 31.0113 32.2035 29.8106 31.4851 29.0319C30.5623 28.0317 29.1838 26.5612 27.5082 24.846C29.2671 23.0501 30.7129 21.5083 31.6693 20.4717C32.3877 19.693 32.3536 18.4923 31.6045 17.7432L31.4447 17.5834C30.6956 16.8342 29.4948 16.8001 28.7162 17.5185C27.68 18.4746 26.1389 19.9197 24.3439 21.6776C22.5489 19.9197 21.0079 18.4746 19.9717 17.5185Z" fill="#576684"/>
</svg>