<!-- Copyright © Ewsgit 2022. -->
<!-- Licensed under the MIT License - https://ewsgit.github.io/devdash/copyright -->

<svg width="48" height="48" viewBox="0 0 48 48" fill="none" xmlns="http://www.w3.org/2000/svg">
<path d="M14 5.71429C14 4.76751 14.7675 4 15.7143 4H32.2857C33.2325 4 34 4.76751 34 5.71429V6C34 11.5228 29.5228 16 24 16C18.4772 16 14 11.5228 14 6V5.71429Z" fill="#ACB4C9"/>
<path d="M42 32C42 40.8366 33.9411 44 24 44C14.0589 44 6 40.8366 6 32C6 23.1634 14.0589 12 24 12C33.9411 12 42 23.1634 42 32Z" fill="#ACB4C9"/>
<path fill-rule="evenodd" clip-rule="evenodd" d="M20.3876 20.4773V18.9272C20.3876 18.4747 20.6913 18.0676 21.1416 18.0225C21.2892 18.0077 21.4366 18 21.5813 18C22.107 18 22.4836 18.0991 22.7109 18.2972C22.9525 18.4953 23.0733 18.8535 23.0733 19.3717V20.2478C23.4032 20.2362 23.7382 20.2305 24.0782 20.2305C24.3473 20.2305 24.6093 20.2355 24.8642 20.2454V18.9272C24.8642 18.4747 25.1678 18.0676 25.6181 18.0225C25.7657 18.0077 25.9131 18 26.0578 18C26.5835 18 26.9601 18.0991 27.1875 18.2972C27.429 18.4953 27.5498 18.8535 27.5498 19.3717V20.5959C28.2847 20.7778 28.9231 21.0277 29.465 21.3455C30.7325 22.0711 31.3663 23.2038 31.3663 24.7435C31.3663 25.5399 31.1358 26.2301 30.6749 26.8142C30.2332 27.3982 29.561 27.8672 28.6584 28.2212C29.7723 28.5575 30.6077 29.0619 31.1646 29.7344C31.7215 30.4069 32 31.2033 32 32.1236C32 33.805 31.3374 35.0527 30.0123 35.8668C29.3433 36.2779 28.5224 36.5851 27.5498 36.7887V39.0834C27.5498 39.4992 27.2922 39.8789 26.8824 39.9493C26.6964 39.9813 26.5126 40 26.3562 40C25.8304 40 25.4468 39.8603 25.2052 39.5808C24.9778 39.3014 24.8642 38.7963 24.8642 38.0654V37.0796C24.6639 37.0852 24.4595 37.088 24.251 37.088C23.8871 37.088 23.4945 37.0792 23.0733 37.0616V39.0834C23.0733 39.4992 22.8157 39.8789 22.4059 39.9493C22.2199 39.9813 22.036 40 21.8797 40C21.3539 40 20.9702 39.8603 20.7287 39.5808C20.5013 39.3014 20.3876 38.7963 20.3876 38.0654V36.7386C20.0314 36.6734 19.6964 36.5952 19.3827 36.5039C18.4609 36.2208 18 35.6987 18 34.9376V21.956C18 21.6198 18.096 21.3632 18.2881 21.1862C18.4801 21.0092 18.749 20.8676 19.0947 20.7614C19.4874 20.6443 19.9184 20.5496 20.3876 20.4773ZM27.3621 30.3184C27.9191 30.7255 28.1975 31.283 28.1975 31.9909C28.1975 32.8227 27.8615 33.4333 27.1893 33.8227C26.5364 34.1943 25.6241 34.3801 24.4527 34.3801C23.9534 34.3801 23.4444 34.3624 22.9259 34.3271C22.4266 34.2917 21.9945 34.2297 21.6296 34.1412V29.7078H25C26.037 29.7078 26.8244 29.9114 27.3621 30.3184ZM24.5391 27.1858H21.6296V23.071C21.9369 23.0179 22.3018 22.9737 22.7243 22.9383C23.166 22.9029 23.6269 22.8852 24.107 22.8852C26.4499 22.8852 27.6214 23.5843 27.6214 24.9824C27.6214 25.6727 27.3621 26.2124 26.8436 26.6018C26.3443 26.9912 25.5761 27.1858 24.5391 27.1858Z" fill="#576684"/>
</svg>