<!-- Copyright © Ewsgit 2022. -->
<!-- Licensed under the MIT License - https://ewsgit.github.io/devdash/copyright -->

<svg xmlns="http://www.w3.org/2000/svg" width="48" height="48" fill="none" viewBox="0 0 48 48"><path fill="#ACB4C9" d="M14 5.71429C14 4.76751 14.7675 4 15.7143 4H32.2857C33.2325 4 34 4.76751 34 5.71429V6C34 11.5228 29.5228 16 24 16C18.4772 16 14 11.5228 14 6V5.71429Z"/><path fill="#ACB4C9" d="M42 32C42 40.8366 33.9411 44 24 44C14.0589 44 6 40.8366 6 32C6 23.1634 14.0589 12 24 12C33.9411 12 42 23.1634 42 32Z"/><path fill="#576684" fill-rule="evenodd" d="M25.2822 17.528C24.5623 16.824 23.4357 16.824 22.7159 17.5281C20.9115 19.2931 17.5943 22.7948 15.3506 26.6845C14.8805 27.4995 14.8805 28.4999 15.3506 29.3149C17.5943 33.2046 20.9115 36.7063 22.7159 38.4713C23.4357 39.1754 24.5623 39.1754 25.2822 38.4714C27.0868 36.7063 30.4043 33.2045 32.6477 29.3146C33.1176 28.4998 33.1176 27.4996 32.6477 26.6848C30.4043 22.7949 27.0868 19.2931 25.2822 17.528ZM19.9701 30.6622C21.9314 33.1814 23.999 34.6911 23.999 34.6911C23.999 34.6911 26.0691 33.1802 28.0311 30.6593C26.2913 31.3872 24.4982 32.0826 23.9971 32.0826C23.4966 32.0826 21.7077 31.3891 19.9701 30.6622ZM29.3164 27.1927C27.1073 23.5769 23.999 21.3083 23.999 21.3083C23.999 21.3083 20.8912 23.5775 18.6816 27.1941C20.5016 27.9325 23.3028 29.021 23.9975 29.021C24.6926 29.021 27.4966 27.9311 29.3164 27.1927Z" clip-rule="evenodd"/></svg>