<!-- Copyright © Ewsgit 2022. -->
<!-- Licensed under the MIT License - https://ewsgit.github.io/devdash/copyright -->

<svg xmlns="http://www.w3.org/2000/svg" width="48" height="48" fill="none" viewBox="0 0 48 48"><path fill="#576684" d="M41.9206 12.1012C41.8212 14.0771 39.9417 14.8195 38.484 13.482C37.8211 12.8738 37.0276 12.1251 36.0835 11.2057C33.9512 13.1462 30.644 16.1717 26.7011 19.8329C25.6657 20.7944 23.984 20.6869 23.0794 19.6014L23.0787 19.6006C21.3035 17.4767 19.5151 15.3614 17.6644 13.3028C15.5018 14.8906 11.62 17.9165 7.76777 21.7687C6.79146 22.745 5.20854 22.745 4.23223 21.7687C3.25592 20.7924 3.25592 19.2095 4.23223 18.2332C8.01146 14.454 12.158 10.909 16.6051 7.92628L16.612 7.92164C16.6137 7.92053 16.6132 7.92083 16.6132 7.92083C17.6048 7.2598 18.9251 7.39053 19.7678 8.23319C21.7037 10.1691 23.453 12.2985 25.2236 14.3853C28.2338 11.6013 30.7696 9.28173 32.5479 7.6628C31.7409 6.83011 31.0724 6.12012 30.5199 5.51795C29.182 4.05994 29.9248 2.17996 31.9011 2.0805C34.4229 1.95359 37.011 1.87891 39.5021 2.34464C40.6238 2.55435 41.4466 3.37725 41.6562 4.49896C42.1219 6.99042 42.0475 9.57897 41.9206 12.1012Z"/><path fill="#ACB4C9" d="M5.21891 45.9686C3.54583 45.9261 2.27856 44.9198 2.14179 43.2518C2.05987 42.2527 2 40.8796 2 39C2 37.1204 2.05987 35.7473 2.14179 34.7482C2.27856 33.0802 3.54583 32.0739 5.21891 32.0314C5.9509 32.0128 6.86612 32 8 32C9.13388 32 10.0491 32.0128 10.7811 32.0314C12.4542 32.0739 13.7214 33.0802 13.8582 34.7482C13.9401 35.7473 14 37.1204 14 39C14 40.8796 13.9401 42.2527 13.8582 43.2518C13.7214 44.9198 12.4542 45.9261 10.7811 45.9686C10.0491 45.9872 9.13388 46 8 46C6.86612 46 5.9509 45.9872 5.21891 45.9686Z"/><path fill="#ACB4C9" d="M37.691 45.9585C35.7418 45.8816 34.375 44.5113 34.2486 42.5646C34.1176 40.5461 34 37.2674 34 32C34 26.7326 34.1176 23.4539 34.2486 21.4354C34.375 19.4887 35.7418 18.1184 37.691 18.0415C38.3342 18.0161 39.0979 18 40 18C40.9021 18 41.6658 18.0161 42.309 18.0415C44.2582 18.1184 45.625 19.4887 45.7514 21.4354C45.8824 23.4539 46 26.7326 46 32C46 37.2674 45.8824 40.5461 45.7514 42.5646C45.625 44.5113 44.2582 45.8816 42.309 45.9585C41.6658 45.9839 40.9021 46 40 46C39.0979 46 38.3342 45.9839 37.691 45.9585Z"/><path fill="#ACB4C9" d="M21.5532 45.9663C19.6854 45.9095 18.324 44.6837 18.1898 42.8199C18.0844 41.355 18 39.1872 18 36C18 32.8128 18.0844 30.645 18.1898 29.1801C18.324 27.3163 19.6854 26.0905 21.5532 26.0337C22.2243 26.0133 23.0326 26 24 26C24.9674 26 25.7757 26.0133 26.4468 26.0337C28.3146 26.0905 29.676 27.3163 29.8102 29.1801C29.9156 30.645 30 32.8128 30 36C30 39.1872 29.9156 41.355 29.8102 42.8199C29.676 44.6837 28.3146 45.9095 26.4468 45.9663C25.7757 45.9867 24.9674 46 24 46C23.0326 46 22.2243 45.9867 21.5532 45.9663Z"/></svg>