<!-- Copyright © Ewsgit 2022. -->
<!-- Licensed under the MIT License - https://ewsgit.github.io/devdash/copyright -->

<svg width="48" height="48" viewBox="0 0 48 48" fill="none" xmlns="http://www.w3.org/2000/svg">
<path fill-rule="evenodd" clip-rule="evenodd" d="M44 15.5335C44 10.2683 39.7317 6 34.4665 6C32.7924 6 31.314 7.09186 30.8217 8.69194L28.6127 15.8712C28.1487 17.3791 28.6145 19.0189 29.8018 20.0578L30.941 21.0546C31.536 21.5753 31.7795 22.4025 31.4811 23.1346C29.939 26.9171 26.9171 29.939 23.1346 31.4811C22.4025 31.7795 21.5753 31.536 21.0546 30.941L20.0578 29.8018C19.0189 28.6145 17.3791 28.1487 15.8712 28.6127L8.69194 30.8217C7.09187 31.314 6 32.7924 6 34.4665C6 39.7317 10.2683 44 15.5335 44H17.4C32.0908 44 44 32.0908 44 17.4V15.5335Z" fill="#ACB4C9"/>
<path fill-rule="evenodd" clip-rule="evenodd" d="M14.7176 9.88856C16.2696 9.92788 18.0122 9.9378 19.6955 9.87482C20.3041 9.85206 20.8625 9.52844 21.0094 8.93747C21.1097 8.53426 21.1894 7.98734 21.1782 7.28247C21.1646 6.42951 21.0029 5.77675 20.8387 5.32885C20.659 4.83879 20.1929 4.55088 19.6764 4.4759C14.0153 3.65419 9.15416 4.0727 6.61914 4.42549C5.46881 4.58557 4.58649 5.46789 4.42641 6.61823C4.07362 9.15324 3.65512 14.0144 4.47683 19.6755C4.5518 20.192 4.83971 20.6581 5.32978 20.8378C5.77768 21.002 6.43043 21.1636 7.2834 21.1773C7.98826 21.1885 8.53518 21.1087 8.93839 21.0085C9.52936 20.8616 9.85298 20.3031 9.87575 19.6946C9.93873 18.011 9.9288 16.268 9.88946 14.7159C12.8589 17.4726 16.3784 20.5867 19.1006 22.8594C19.8855 23.5147 21.0362 23.4515 21.7593 22.7285L22.7295 21.7582C23.4525 21.0352 23.5158 19.8846 22.8606 19.0997C20.5881 16.3774 17.4742 12.858 14.7176 9.88856Z" fill="#576684"/>
</svg>