<!-- Copyright © Ewsgit 2022. -->
<!-- Licensed under the MIT License - https://ewsgit.github.io/devdash/copyright -->

<svg xmlns="http://www.w3.org/2000/svg" width="48" height="48" fill="none" viewBox="0 0 48 48"><path fill="#ACB4C9" d="M26.9714 4.55757C28.4878 5.93934 30.419 8.56197 31 13.2099C30.9433 14.6837 30.8738 16.106 30.795 17.4696L43.4708 24.5997C44.4154 25.1311 45 26.1306 45 27.2145V28.2888C45 29.2646 44.0829 29.9806 43.1362 29.744L30.0888 26.4821C29.5459 31.9348 29 35.2099 29 35.2099L33.8284 40.0383C34.5786 40.7885 35 41.8059 35 42.8668V43.7329C35 44.4403 34.2855 44.9241 33.6286 44.6614L25 41.2099L16.3714 44.6614C15.7145 44.9241 15 44.4403 15 43.7329V42.8668C15 41.8059 15.4214 40.7885 16.1716 40.0383L21 35.2099C21 35.2099 20.4215 31.7388 19.8632 25.9941L4.8638 29.744C3.91708 29.9806 3 29.2646 3 28.2888V27.2145C3 26.1306 3.58459 25.1311 4.52922 24.5997L19.1446 16.3786C19.0904 15.3521 19.0417 14.295 19 13.2099C19.581 8.56197 21.5122 5.93934 23.0286 4.55757C24.1674 3.51987 25.8326 3.51987 26.9714 4.55757Z"/><path fill="#576684" d="M43.3041 35.7313C43.8345 36.273 44.1984 36.9816 43.9228 37.6879C43.718 38.2128 43.3133 38.8957 42.5251 39.6839C41.7369 40.472 41.0541 40.8768 40.5291 41.0815C39.8229 41.3571 39.1143 40.9932 38.5726 40.4629C35.9535 37.8984 27.7209 29.8294 23.0797 25.1882C18.4385 20.5469 10.3694 12.3143 7.805 9.69529C7.27461 9.1536 6.91076 8.44497 7.18631 7.73871C7.39111 7.2138 7.79582 6.53091 8.584 5.74273C9.37218 4.95456 10.0551 4.54984 10.58 4.34504C11.2862 4.06949 11.9949 4.43335 12.5366 4.96373C15.1556 7.52815 23.3882 15.5972 28.0294 20.2384C32.6707 24.8796 40.7397 33.1123 43.3041 35.7313Z"/></svg>