<!-- Copyright © Ewsgit 2022. -->
<!-- Licensed under the MIT License - https://ewsgit.github.io/devdash/copyright -->

<svg width="48" height="48" viewBox="0 0 48 48" fill="none" xmlns="http://www.w3.org/2000/svg">
<path fill-rule="evenodd" clip-rule="evenodd" d="M43 14.0589C43 8.7937 38.7317 4.52539 33.4665 4.52539C31.7924 4.52539 30.314 5.61726 29.8217 7.21733L27.6127 14.3966C27.1487 15.9045 27.6145 17.5443 28.8018 18.5832L29.941 19.58C30.536 20.1006 30.7795 20.9279 30.4811 21.66C28.939 25.4425 25.9171 28.4644 22.1346 30.0065C21.4025 30.3049 20.5753 30.0614 20.0546 29.4664L19.0578 28.3272C18.0189 27.1399 16.3791 26.6741 14.8712 27.1381L7.69194 29.3471C6.09187 29.8394 5 31.3178 5 32.9919C5 38.2571 9.2683 42.5254 14.5335 42.5254H16.4C31.0908 42.5254 43 30.6162 43 15.9254V14.0589Z" fill="#ACB4C9"/>
<path d="M41.3071 37.0477C41.8745 37.6283 42.24 38.4004 41.8997 39.1374C41.6704 39.634 41.2589 40.2665 40.5251 41.0003C39.7913 41.734 39.1589 42.1455 38.6623 42.3748C37.9253 42.7152 37.1531 42.3497 36.5726 41.7823C34.0357 39.3028 26.6732 32.098 22.4939 27.9188C18.3147 23.7395 11.1099 16.377 8.63043 13.8401C8.063 13.2596 7.69753 12.4874 8.03786 11.7504C8.26718 11.2538 8.67865 10.6213 9.41243 9.88757C10.1462 9.15378 10.7787 8.74231 11.2753 8.513C12.0123 8.17267 12.7844 8.53814 13.365 9.10556C15.9018 11.5851 23.2644 18.7898 27.4437 22.969C31.6229 27.1483 38.8276 34.5109 41.3071 37.0477Z" fill="#576684"/>
</svg>