<!-- Copyright © Ewsgit 2022. -->
<!-- Licensed under the MIT License - https://ewsgit.github.io/devdash/copyright -->

<svg width="48" height="48" viewBox="0 0 48 48" fill="none" xmlns="http://www.w3.org/2000/svg">
<path fill-rule="evenodd" clip-rule="evenodd" d="M22.0286 4.34858C20.5122 5.73036 18.581 8.35298 18 13.0009C18.0567 14.4747 18.1262 15.897 18.205 17.2606L5.52922 24.3907C4.58459 24.9221 4 25.9217 4 27.0055V28.0798C4 29.0556 4.91708 29.7717 5.8638 29.535L18.9112 26.2731C19.4541 31.7258 20 35.0009 20 35.0009L15.1716 39.8294C14.4214 40.5795 14 41.5969 14 42.6578V43.5239C14 44.2314 14.7145 44.7151 15.3714 44.4524L24 41.0009L32.6286 44.4524C33.2855 44.7151 34 44.2314 34 43.5239V42.6578C34 41.5969 33.5786 40.5795 32.8284 39.8294L28 35.0009C28 35.0009 28.5785 31.5298 29.1368 25.7851L44.1362 29.535C45.0829 29.7717 46 29.0556 46 28.0798V27.0055C46 25.9217 45.4154 24.9221 44.4708 24.3907L29.8554 16.1696C29.9096 15.1432 29.9583 14.086 30 13.0009C29.419 8.35298 27.4878 5.73036 25.9714 4.34858C24.8326 3.31089 23.1674 3.31089 22.0286 4.34858Z" fill="#ACB4C9"/>
</svg>