<!-- Copyright © Ewsgit 2022. -->
<!-- Licensed under the MIT License - https://ewsgit.github.io/devdash/copyright -->

<svg width="49" height="48" viewBox="0 0 49 48" fill="none" xmlns="http://www.w3.org/2000/svg">
<path fill-rule="evenodd" clip-rule="evenodd" d="M36.4152 15.3743C41.7698 16.3047 45.5 20.3053 45.5 26C45.5 32.3285 40.8933 36.5648 34.57 36.8204C31.9114 36.9278 28.5996 37 24.5 37C20.4004 37 17.0886 36.9278 14.43 36.8204C8.10674 36.5648 3.5 32.3285 3.5 26C3.5 20.3053 7.23022 16.3047 12.5848 15.3743C13.2257 9.33698 17.4584 5.04741 23.7827 5.00252C24.017 5.00086 24.2561 5 24.5 5C24.744 5 24.983 5.00086 25.2173 5.00252C31.5416 5.04741 35.7743 9.33698 36.4152 15.3743Z" fill="#ACB4C9"/>
<path fill-rule="evenodd" clip-rule="evenodd" d="M28.2672 32.513L27.6411 40.5536C27.5491 41.7351 26.9787 42.7917 25.802 42.9322C25.4439 42.975 25.0143 43.002 24.5001 43.002C23.9859 43.002 23.5563 42.975 23.1982 42.9323C22.0214 42.7917 21.451 41.735 21.3589 40.5535L20.7327 32.5125C19.0665 32.4811 17.7299 32.4301 16.6645 32.372C14.7033 32.2649 13.8871 30.4002 15.1678 28.911C15.9186 28.0379 16.8878 26.9665 18.1278 25.6812C20.2815 23.4489 21.8903 22.1845 22.9544 21.4799C23.9215 20.8396 25.1053 20.8395 26.0725 21.4798C27.1367 22.1843 28.7455 23.4487 30.899 25.6812C32.1384 26.9661 33.1073 28.0373 33.858 28.9102C35.1389 30.3997 34.3226 32.265 32.361 32.372C31.2902 32.4305 29.9454 32.4817 28.2672 32.513Z" fill="#576684"/>
</svg>