<!-- Copyright © Ewsgit 2022. -->
<!-- Licensed under the MIT License - https://ewsgit.github.io/devdash/copyright -->

<svg width="48" height="48" viewBox="0 0 48 48" fill="none" xmlns="http://www.w3.org/2000/svg">
<path d="M4.13459 7.59731C4.23926 5.87411 5.36053 4.5395 7.07238 4.31608C8.3939 4.1436 10.3038 4 13 4C15.6962 4 17.6061 4.1436 18.9276 4.31608C20.6395 4.5395 21.7607 5.87411 21.8654 7.59732C21.9403 8.82978 22 10.5734 22 13C22 15.4266 21.9403 17.1702 21.8654 18.4027C21.7607 20.1259 20.6395 21.4605 18.9276 21.6839C17.6061 21.8564 15.6962 22 13 22C10.3038 22 8.3939 21.8564 7.07238 21.6839C5.36053 21.4605 4.23926 20.1259 4.13459 18.4027C4.05973 17.1702 4 15.4266 4 13C4 10.5734 4.05973 8.82978 4.13459 7.59731Z" fill="#ACB4C9"/>
<path d="M4.13459 40.4027C4.23926 42.1259 5.36053 43.4605 7.07238 43.6839C8.3939 43.8564 10.3038 44 13 44C15.6962 44 17.6061 43.8564 18.9276 43.6839C20.6395 43.4605 21.7607 42.1259 21.8654 40.4027C21.9403 39.1702 22 37.4266 22 35C22 32.5734 21.9403 30.8298 21.8654 29.5973C21.7607 27.8741 20.6395 26.5395 18.9276 26.3161C17.6061 26.1436 15.6962 26 13 26C10.3038 26 8.3939 26.1436 7.07238 26.3161C5.36053 26.5395 4.23926 27.8741 4.13459 29.5973C4.05973 30.8298 4 32.5734 4 35C4 37.4266 4.05973 39.1702 4.13459 40.4027Z" fill="#ACB4C9"/>
<path d="M40.4027 4.13459C42.1259 4.23926 43.4605 5.36053 43.6839 7.07238C43.8564 8.3939 44 10.3038 44 13C44 15.6962 43.8564 17.6061 43.6839 18.9276C43.4605 20.6395 42.1259 21.7607 40.4027 21.8654C39.1702 21.9403 37.4266 22 35 22C32.5734 22 30.8298 21.9403 29.5973 21.8654C27.8741 21.7607 26.5395 20.6395 26.3161 18.9276C26.1436 17.6061 26 15.6962 26 13C26 10.3038 26.1436 8.3939 26.3161 7.07238C26.5395 5.36052 27.8741 4.23926 29.5973 4.13459C30.8298 4.05973 32.5734 4 35 4C37.4266 4 39.1702 4.05973 40.4027 4.13459Z" fill="#ACB4C9"/>
<path d="M32.1003 41.955C32.1393 42.9767 32.7688 43.8412 33.7861 43.9432C34.1288 43.9776 34.5318 44 35 44C35.4682 44 35.8712 43.9776 36.2139 43.9432C37.2312 43.8412 37.8607 42.9767 37.8997 41.955C37.9489 40.6632 38 38.4838 38 35C38 31.5162 37.9489 29.3368 37.8997 28.045C37.8607 27.0233 37.2312 26.1588 36.2139 26.0568C35.8712 26.0224 35.4682 26 35 26C34.5318 26 34.1288 26.0224 33.7861 26.0568C32.7688 26.1588 32.1393 27.0233 32.1003 28.045C32.0511 29.3368 32 31.5162 32 35C32 38.4838 32.0511 40.6632 32.1003 41.955Z" fill="#576684"/>
<path d="M28.045 32.1003C27.0233 32.1393 26.1588 32.7688 26.0568 33.7861C26.0224 34.1288 26 34.5318 26 35C26 35.4682 26.0224 35.8712 26.0568 36.2139C26.1588 37.2312 27.0233 37.8607 28.045 37.8997C29.3368 37.9489 31.5162 38 35 38C38.4838 38 40.6632 37.9489 41.955 37.8997C42.9767 37.8607 43.8412 37.2312 43.9432 36.2139C43.9776 35.8712 44 35.4682 44 35C44 34.5318 43.9776 34.1288 43.9432 33.7861C43.8412 32.7688 42.9767 32.1393 41.955 32.1003C40.6632 32.0511 38.4838 32 35 32C31.5162 32 29.3368 32.0511 28.045 32.1003Z" fill="#576684"/>
</svg>