<!-- Copyright © Ewsgit 2022. -->
<!-- Licensed under the MIT License - https://ewsgit.github.io/devdash/copyright -->

<svg width="48" height="48" viewBox="0 0 48 48" fill="none" xmlns="http://www.w3.org/2000/svg">
<circle r="20" transform="matrix(1 0 0 -1 24 24)" fill="#ACB4C9"/>
<path fill-rule="evenodd" clip-rule="evenodd" d="M44 24C44 12.9543 35.0457 4 24 4C12.9543 4 4 12.9543 4 24C4 35.0457 12.9543 44 24 44C35.0457 44 44 35.0457 44 24ZM9.06294 25.6851C9.51759 31.6335 12.4184 35.8513 17.2215 37.7945C15.7591 34.6325 14.7609 30.485 14.5442 25.885C12.2585 25.8257 10.4315 25.7521 9.06294 25.6851ZM9.06294 22.315C10.4315 22.248 12.2585 22.1743 14.5442 22.115C14.7609 17.515 15.7591 13.3675 17.2215 10.2055C12.4184 12.1487 9.51759 16.3665 9.06294 22.315ZM19.5465 25.976C19.7371 30.4681 20.6161 39 24 39C27.3839 39 28.2629 30.4681 28.4534 25.976C27.0743 25.9912 25.5898 26 24 26C22.4102 26 20.9257 25.9912 19.5465 25.976ZM28.4534 22.024C27.0743 22.0088 25.5898 22 24 22C22.4102 22 20.9257 22.0088 19.5465 22.024C19.7371 17.5319 20.6161 9 24 9C27.3839 9 28.2629 17.5319 28.4534 22.024ZM33.4558 25.885C33.2391 30.485 32.2409 34.6325 30.7785 37.7945C35.5816 35.8513 38.4824 31.6335 38.9371 25.6851C37.5685 25.7521 35.7414 25.8257 33.4558 25.885ZM38.9371 22.315C37.5685 22.248 35.7415 22.1743 33.4558 22.115C33.2391 17.515 32.2409 13.3675 30.7785 10.2055C35.5816 12.1487 38.4824 16.3665 38.9371 22.315Z" fill="#576684"/>
</svg>