<!-- Copyright © Ewsgit 2022. -->
<!-- Licensed under the MIT License - https://ewsgit.github.io/devdash/copyright -->

<svg width="49" height="48" viewBox="0 0 49 48" fill="none" xmlns="http://www.w3.org/2000/svg">
<path fill-rule="evenodd" clip-rule="evenodd" d="M36.4152 16.677C41.7698 17.6074 45.5 21.6081 45.5 27.3027C45.5 33.6312 40.8933 37.8676 34.57 38.1231C31.9114 38.2305 28.5996 38.3027 24.5 38.3027C20.4004 38.3027 17.0886 38.2305 14.43 38.1231C8.10674 37.8676 3.5 33.6312 3.5 27.3027C3.5 21.6081 7.23022 17.6074 12.5848 16.677C13.2257 10.6397 17.4584 6.35015 23.7827 6.30525C24.017 6.30359 24.2561 6.30273 24.5 6.30273C24.744 6.30273 24.983 6.30359 25.2173 6.30525C31.5416 6.35015 35.7743 10.6397 36.4152 16.677Z" fill="#ACB4C9"/>
<path d="M44.8426 38.0064C45.4235 38.5031 45.8543 39.1876 45.6353 39.9198C45.4743 40.4582 45.1294 41.1686 44.4182 42.0161C43.707 42.8637 43.0673 43.3267 42.5651 43.5787C41.8821 43.9216 41.1331 43.6161 40.5431 43.1304C37.4663 40.5973 27.3009 32.2219 22.2513 27.9848C17.2017 23.7477 7.18835 15.191 4.15949 12.6009C3.57865 12.1042 3.14779 11.4196 3.36682 10.6874C3.52784 10.1491 3.87273 9.4387 4.5839 8.59116C5.29507 7.74362 5.9348 7.28061 6.43698 7.02855C7.12004 6.68571 7.86899 6.99116 8.45902 7.47692C11.5358 10.01 21.7012 18.3853 26.7508 22.6225C31.8004 26.8596 41.8138 35.4162 44.8426 38.0064Z" fill="#576684"/>
</svg>