<!-- Copyright © Ewsgit 2022. -->
<!-- Licensed under the MIT License - https://ewsgit.github.io/devdash/copyright -->

<svg width="49" height="48" viewBox="0 0 49 48" fill="none" xmlns="http://www.w3.org/2000/svg">
<path d="M5.06198 8.68502C5.23932 6.96777 6.36521 5.60848 8.05375 5.24901C10.719 4.68162 15.7432 4 24.5 4C33.2568 4 38.281 4.68162 40.9463 5.24901C42.6348 5.60848 43.7607 6.96778 43.938 8.68502C44.201 11.2312 44.5 15.9061 44.5 24C44.5 32.0939 44.201 36.7688 43.938 39.315C43.7607 41.0322 42.6348 42.3915 40.9462 42.751C38.281 43.3184 33.2568 44 24.5 44C15.7432 44 10.719 43.3184 8.05375 42.751C6.36521 42.3915 5.23932 41.0322 5.06198 39.315C4.79904 36.7688 4.5 32.0939 4.5 24C4.5 15.9061 4.79904 11.2312 5.06198 8.68502Z" fill="#ACB4C9"/>
<path fill-rule="evenodd" clip-rule="evenodd" d="M44.3055 14H4.69336C4.79938 11.6365 4.9346 9.91315 5.06143 8.68502C5.23877 6.96777 6.36466 5.60848 8.0532 5.24901C10.7185 4.68162 15.7426 4 24.4995 4C33.2563 4 38.2804 4.68162 40.9457 5.24901C42.6342 5.60848 43.7601 6.96778 43.9375 8.68502C44.0643 9.91315 44.1995 11.6365 44.3055 14Z" fill="#576684"/>
<path d="M9.67807 36.3873C9.7463 37.4257 10.3428 38.3034 11.3566 38.538C12.3797 38.7747 14.008 39 16.5 39C18.992 39 20.6203 38.7747 21.6434 38.538C22.6572 38.3034 23.2537 37.4257 23.3219 36.3873C23.4089 35.0637 23.5 32.776 23.5 29C23.5 25.224 23.4089 22.9363 23.3219 21.6127C23.2537 20.5743 22.6572 19.6966 21.6434 19.462C20.6203 19.2253 18.992 19 16.5 19C14.008 19 12.3797 19.2253 11.3566 19.462C10.3428 19.6966 9.7463 20.5743 9.67807 21.6127C9.59112 22.9363 9.5 25.224 9.5 29C9.5 32.776 9.59112 35.0637 9.67807 36.3873Z" fill="#576684"/>
<path d="M27.5747 25.2247C27.645 26.1064 28.2806 26.7306 29.1603 26.8225C30.0409 26.9145 31.4191 27 33.5 27C35.5809 27 36.9591 26.9145 37.8397 26.8225C38.7194 26.7306 39.355 26.1064 39.4253 25.2247C39.468 24.6906 39.5 23.9674 39.5 23C39.5 22.0326 39.468 21.3094 39.4253 20.7753C39.355 19.8936 38.7194 19.2694 37.8397 19.1775C36.9591 19.0855 35.5809 19 33.5 19C31.4191 19 30.0409 19.0855 29.1603 19.1775C28.2806 19.2694 27.645 19.8936 27.5747 20.7753C27.532 21.3094 27.5 22.0326 27.5 23C27.5 23.9674 27.532 24.6906 27.5747 25.2247Z" fill="#576684"/>
<path d="M27.5747 37.2247C27.645 38.1064 28.2806 38.7306 29.1603 38.8225C30.0409 38.9145 31.4191 39 33.5 39C35.5809 39 36.9591 38.9145 37.8397 38.8225C38.7194 38.7306 39.355 38.1064 39.4253 37.2247C39.468 36.6906 39.5 35.9674 39.5 35C39.5 34.0326 39.468 33.3094 39.4253 32.7753C39.355 31.8936 38.7194 31.2694 37.8397 31.1775C36.9591 31.0855 35.5809 31 33.5 31C31.4191 31 30.0409 31.0855 29.1603 31.1775C28.2806 31.2694 27.645 31.8936 27.5747 32.7753C27.532 33.3094 27.5 34.0326 27.5 35C27.5 35.9674 27.532 36.6906 27.5747 37.2247Z" fill="#576684"/>
</svg>