<!-- Copyright © Ewsgit 2022. -->
<!-- Licensed under the MIT License - https://ewsgit.github.io/devdash/copyright -->

<svg xmlns="http://www.w3.org/2000/svg" width="49" height="48" fill="none" viewBox="0 0 49 48"><path fill="#ACB4C9" d="M4.95248 8.62382C5.14517 6.38804 6.7854 4.71471 9.01994 4.50814C11.7533 4.25546 16.2977 4 23.5 4C30.7023 4 35.2467 4.25546 37.9801 4.50814C40.2146 4.71471 41.8548 6.38804 42.0475 8.62382C42.2737 11.2487 42.5 15.499 42.5 22C42.5 28.501 42.2737 32.7513 42.0475 35.3762C41.8548 37.612 40.2146 39.2853 37.9801 39.4919C35.2467 39.7445 30.7023 40 23.5 40C16.2977 40 11.7533 39.7445 9.01994 39.4919C6.7854 39.2853 5.14517 37.612 4.95248 35.3762C4.72626 32.7513 4.5 28.501 4.5 22C4.5 15.499 4.72626 11.2487 4.95248 8.62382Z"/><path fill="#576684" fill-rule="evenodd" d="M42.2749 12H4.72461C4.79404 10.6581 4.87314 9.5416 4.95224 8.62382C5.14493 6.38804 6.78516 4.71471 9.0197 4.50814C11.753 4.25546 16.2974 4 23.4998 4C30.7021 4 35.2465 4.25546 37.9798 4.50814C40.2144 4.71471 41.8546 6.38804 42.0473 8.62382C42.1264 9.5416 42.2055 10.6581 42.2749 12Z" clip-rule="evenodd"/><path fill="#576684" d="M10.5 18.597C10.5 17.8191 11.0933 17.1755 11.8702 17.1364C13.1132 17.0738 15.2019 17 18.1364 17C20.6977 17 22.2925 17.0563 23.245 17.1121C23.9727 17.1549 24.5 17.7541 24.5 18.483V19.517C24.5 20.2459 23.9727 20.8451 23.245 20.8879C22.2925 20.9437 20.6977 21 18.1364 21C15.2019 21 13.1132 20.9262 11.8702 20.8636C11.0933 20.8245 10.5 20.1809 10.5 19.403V18.597Z"/><path fill="#576684" d="M10.5 26.4255C10.5 25.7224 10.9925 25.1365 11.6937 25.0854C12.3226 25.0396 13.2329 25 14.5 25C15.7671 25 16.6774 25.0396 17.3063 25.0854C18.0075 25.1365 18.5 25.7224 18.5 26.4255V27.5745C18.5 28.2776 18.0075 28.8635 17.3063 28.9146C16.6774 28.9604 15.7671 29 14.5 29C13.2329 29 12.3226 28.9604 11.6937 28.9146C10.9925 28.8635 10.5 28.2776 10.5 27.5745V26.4255Z"/><path fill="#576684" fill-rule="evenodd" d="M33.3397 22.5251C33.8883 22.3727 34.3598 22.8439 34.3858 23.4126C34.4517 24.8499 34.7201 26.4773 35.495 27.528C35.8441 28.0013 36.5159 28.1175 36.935 27.7051C37.4365 27.2116 37.8191 26.4216 38.1074 25.5784C38.3379 24.904 39.1495 24.5936 39.7029 25.0427C42.5483 27.3521 45.5 30.9024 45.5 35.6938C45.5 42.0792 40.5751 44.9432 34.5 44.9432C28.4249 44.9432 23.5 42.0792 23.5 35.6938C23.5 29.1226 29.052 24.8856 32.2673 22.9829C32.6095 22.7804 32.97 22.6277 33.3397 22.5251Z" clip-rule="evenodd"/><path fill="#ACB4C9" d="M34.8709 33.8541C34.6359 33.7344 34.3633 33.7344 34.1284 33.8541C33.1632 34.3458 30.6496 35.8721 30.6496 38.4331C30.6496 40.6211 32.3733 41.6025 34.4996 41.6025C36.6259 41.6025 38.3496 40.6211 38.3496 38.4331C38.3496 35.8721 35.836 34.3458 34.8709 33.8541Z"/></svg>