<!-- Copyright © Ewsgit 2022. -->
<!-- Licensed under the MIT License - https://ewsgit.github.io/devdash/copyright -->

<svg width="48" height="48" viewBox="0 0 48 48" fill="none" xmlns="http://www.w3.org/2000/svg">
<path d="M12.3791 3.35029C14.2183 3.20157 16.004 3.97724 17.2117 5.37233L18.9036 7.32676C19.6634 8.20442 20.767 8.70872 21.9279 8.70872H35.081C38.2031 8.70872 40.8024 11.1031 40.9015 14.2236C40.962 16.127 41 18.3864 41 21.0587C41 28.0727 40.7381 32.2418 40.4961 34.5969C40.3181 36.3287 39.1643 37.6796 37.456 38.0149C34.8832 38.52 30.1385 39.1087 22 39.1087C13.8615 39.1087 9.11681 38.52 6.54402 38.0149C4.8357 37.6796 3.68186 36.3287 3.50391 34.5969C3.26192 32.2418 3 28.0727 3 21.0587C3 14.0447 3.26192 9.8756 3.50391 7.52052C3.68186 5.78872 4.83692 4.43751 6.54525 4.10225C7.86435 3.84338 9.75411 3.56254 12.3791 3.35029Z" fill="#ACB4C9"/>
<path fill-rule="evenodd" clip-rule="evenodd" d="M30.427 18.0953C31.0034 17.8188 31.5457 18.1778 31.8656 18.7357C32.0539 19.0644 32.2881 19.4847 32.5562 19.99C32.9337 20.7013 33.3883 21.5998 33.7362 22.295C33.8237 22.2929 33.9116 22.2919 34 22.2919C34.0884 22.2919 34.1765 22.2929 34.264 22.295C34.6118 21.5998 35.0665 20.7013 35.444 19.99C35.7121 19.4847 35.9463 19.0644 36.1346 18.7357C36.4544 18.1778 36.9968 17.8188 37.5732 18.0953C37.7048 18.1585 37.8511 18.2387 38.0129 18.3403C38.1746 18.4419 38.3117 18.5397 38.4277 18.6321C38.936 19.037 38.9214 19.7276 38.6372 20.3079C38.4699 20.6498 38.2524 21.0805 37.9843 21.5858C37.7811 21.9687 37.546 22.3998 37.313 22.8216C39.9508 23.7257 41.8809 25.7382 42.6315 28.4793C42.725 28.4536 42.8166 28.4287 42.9053 28.4049C43.4506 28.2588 43.901 28.1514 44.2392 28.076C44.6984 27.9737 45.1691 28.0939 45.3641 28.5219C45.4464 28.7024 45.532 28.9348 45.6118 29.2326C45.6916 29.5305 45.7336 29.7745 45.7527 29.9719C45.7978 30.4401 45.4502 30.7795 45.0014 30.9205C44.6709 31.0244 44.227 31.1566 43.6818 31.3027C43.4635 31.3612 43.2272 31.4224 42.9851 31.4837C42.9948 32.0512 43 32.6533 43 33.2919C43 33.3858 42.9999 33.479 42.9997 33.5713C43.3789 33.5644 43.76 33.5598 44.1 33.5598C44.6645 33.5598 45.1274 33.5726 45.4736 33.5873C45.9436 33.6074 46.3671 33.8452 46.4447 34.3092C46.4775 34.5048 46.5 34.7514 46.5 35.0598C46.5 35.3681 46.4775 35.6147 46.4447 35.8103C46.3671 36.2743 45.9435 36.5121 45.4736 36.5322C45.1274 36.547 44.6645 36.5597 44.1 36.5597C43.7363 36.5597 43.3255 36.5544 42.9203 36.5467C42.849 37.2401 42.7096 37.8981 42.5082 38.516C42.9115 38.6157 43.3213 38.7197 43.6818 38.8163C44.227 38.9624 44.6709 39.0946 45.0014 39.1984C45.4502 39.3394 45.7978 39.6788 45.7527 40.147C45.7336 40.3444 45.6916 40.5885 45.6118 40.8863C45.532 41.1842 45.4464 41.4165 45.3641 41.597C45.1691 42.0251 44.6984 42.1452 44.2392 42.0429C43.901 41.9676 43.4506 41.8601 42.9053 41.714C42.3351 41.5613 41.6486 41.3628 41.0605 41.1891C39.4626 43.1471 36.9719 44.2919 34 44.2919C31.028 44.2919 28.5373 43.1471 26.9394 41.189C26.3514 41.3627 25.6649 41.5611 25.0947 41.7139C24.5494 41.86 24.099 41.9675 23.7608 42.0428C23.3016 42.1451 22.8309 42.025 22.6359 41.5969C22.5536 41.4164 22.468 41.184 22.3882 40.8862C22.3084 40.5884 22.2664 40.3443 22.2473 40.1469C22.2022 39.6787 22.5498 39.3393 22.9986 39.1983C23.3291 39.0944 23.773 38.9623 24.3182 38.8161C24.6786 38.7196 25.0884 38.6156 25.4917 38.5159C25.2903 37.898 25.151 37.24 25.0796 36.5466C24.6745 36.5543 24.2637 36.5596 23.9 36.5596C23.3355 36.5596 22.8726 36.5468 22.5264 36.5321C22.0565 36.512 21.6329 36.2742 21.5552 35.8102C21.5225 35.6146 21.5 35.368 21.5 35.0596C21.5 34.7513 21.5225 34.5047 21.5553 34.3091C21.6329 33.8451 22.0564 33.6073 22.5264 33.5872C22.8726 33.5724 23.3355 33.5596 23.9 33.5596C24.24 33.5596 24.6211 33.5643 25.0003 33.5712C25.0001 33.4789 25 33.3858 25 33.2919C25 32.6533 25.0052 32.0511 25.0149 31.4836C24.7728 31.4222 24.5365 31.361 24.3182 31.3026C23.773 31.1565 23.3291 31.0243 22.9986 30.9204C22.5498 30.7794 22.2022 30.44 22.2473 29.9718C22.2664 29.7744 22.3084 29.5303 22.3882 29.2325C22.468 28.9347 22.5536 28.7023 22.6359 28.5218C22.8309 28.0938 23.3016 27.9736 23.7608 28.0759C24.099 28.1512 24.5494 28.2587 25.0947 28.4048C25.1834 28.4286 25.275 28.4534 25.3685 28.4792C26.1191 25.7381 28.0493 23.7256 30.6872 22.8215C30.4542 22.3998 30.2191 21.9687 30.0159 21.5858C29.7478 21.0805 29.5303 20.6498 29.363 20.3079C29.0788 19.7276 29.0642 19.037 29.5725 18.6321C29.6885 18.5397 29.8255 18.4419 29.9873 18.3403C30.1491 18.2387 30.2954 18.1585 30.427 18.0953Z" fill="#576684"/>
<path fill-rule="evenodd" clip-rule="evenodd" d="M32.5005 31.333C32.5005 30.7715 32.038 30.3189 31.4769 30.3427C30.5988 30.38 29.8252 30.4354 29.1473 30.5011C28.8107 30.5336 28.5109 30.7376 28.3888 31.0529C28.1341 31.7109 27.9979 32.4285 28.0062 33.1833C28.0171 34.1615 28.0444 35.1774 28.0975 36.1592C28.2181 38.389 29.4842 40.1176 31.3576 40.8736C31.9336 41.1061 32.5005 40.6294 32.5005 40.0082V31.333ZM35.5005 40.0082C35.5005 40.6294 36.0673 41.1061 36.6434 40.8736C38.5168 40.1175 39.7828 38.3889 39.9034 36.1593C39.9565 35.1775 39.9839 34.1616 39.9947 33.1834C40.0031 32.4286 39.8668 31.711 39.6122 31.053C39.4901 30.7376 39.1903 30.5337 38.8537 30.5011C38.1758 30.4354 37.4022 30.38 36.5241 30.3427C35.963 30.3189 35.5005 30.7715 35.5005 31.333V40.0082Z" fill="#ACB4C9"/>
</svg>