<!-- Copyright © Ewsgit 2022. -->
<!-- Licensed under the MIT License - https://ewsgit.github.io/devdash/copyright -->

<svg xmlns="http://www.w3.org/2000/svg" width="49" height="48" fill="none" viewBox="0 0 49 48"><path fill="#ACB4C9" d="M5.06198 8.68502C5.23932 6.96777 6.36521 5.60848 8.05375 5.24901C10.719 4.68162 15.7432 4 24.5 4C33.2568 4 38.281 4.68162 40.9463 5.24901C42.6348 5.60848 43.7607 6.96778 43.938 8.68502C44.201 11.2312 44.5 15.9061 44.5 24C44.5 32.0939 44.201 36.7688 43.938 39.315C43.7607 41.0322 42.6348 42.3915 40.9462 42.751C38.281 43.3184 33.2568 44 24.5 44C15.7432 44 10.719 43.3184 8.05375 42.751C6.36521 42.3915 5.23932 41.0322 5.06198 39.315C4.79904 36.7688 4.5 32.0939 4.5 24C4.5 15.9061 4.79904 11.2312 5.06198 8.68502Z"/><path fill="#576684" fill-rule="evenodd" d="M44.2574 13H4.74219C4.83927 11.1412 4.95359 9.73285 5.0618 8.68502C5.23914 6.96777 6.36503 5.60848 8.05357 5.24901C10.7188 4.68162 15.743 4 24.4998 4C33.2566 4 38.2808 4.68162 40.9461 5.24901C42.6346 5.60848 43.7605 6.96778 43.9378 8.68502C44.046 9.73285 44.1604 11.1412 44.2574 13Z" clip-rule="evenodd"/><path fill="#576684" d="M21.5912 30.8661C22.5933 31.3381 23.4498 32.2498 23.1678 33.321C23.0832 33.6423 22.9526 33.9412 22.7798 34.1798C22.1378 35.0662 20.9247 35.0914 20.0213 34.7172C19.6571 34.5475 19.1928 34.3118 18.6284 34.0101L13.4312 31.2848C12.6276 30.8634 11.8593 30.2788 11.6436 29.3975C11.5479 29.0066 11.5 28.5737 11.5 28.099C11.5 26.9768 11.749 25.7549 12.7837 25.2424L18.8625 22.0844C20.2044 21.3873 22.0574 20.9705 22.902 22.2247C23.1146 22.5405 23.2441 22.9205 23.2441 23.3758C23.2441 24.7052 22.3925 25.4147 21.3596 25.9495L15.8972 28.1838L21.5912 30.8661Z"/><path fill="#576684" d="M27.4366 25.2132C26.4178 24.7452 25.544 23.8238 25.8375 22.7418C25.9222 22.4293 26.0509 22.1388 26.2202 21.9051C26.8845 20.9879 28.1203 20.9945 29.0333 21.4242C29.4521 21.5939 29.8982 21.8013 30.3716 22.0465L35.5449 24.7137C36.3639 25.1359 37.147 25.7278 37.3616 26.6239C37.4539 27.0092 37.5 27.4349 37.5 27.901C37.5 29.0496 37.2403 30.2044 36.2163 30.7576L30.2576 33.8951C28.9095 34.605 27.0185 35.0531 26.189 33.7752C25.9865 33.4633 25.8651 33.0849 25.8651 32.6242C25.8651 31.292 26.7106 30.5885 27.7497 30.0505L33.1028 27.8162L27.4366 25.2132Z"/></svg>