<!-- Copyright © Ewsgit 2022. -->
<!-- Licensed under the MIT License - https://ewsgit.github.io/devdash/copyright -->

<svg xmlns="http://www.w3.org/2000/svg" width="48" height="48" fill="none" viewBox="0 0 48 48"><path fill="#576684" fill-rule="evenodd" d="M10.6877 14.7045C10.2618 14.0026 9.3648 13.7893 8.68382 14.2282C8.00262 14.6673 7.79553 15.5927 8.22129 16.2952L9.45472 15.5002C8.22129 16.2952 8.22181 16.296 8.22181 16.296L8.22404 16.2997L8.2286 16.3072L8.24311 16.3307C8.25518 16.3502 8.27204 16.3772 8.29371 16.4114C8.33703 16.4798 8.39956 16.577 8.48131 16.7003C8.64477 16.9469 8.88525 17.298 9.20281 17.7319C9.83764 18.5993 10.7824 19.8002 12.0378 21.1596C14.5453 23.8748 18.3134 27.2449 23.3495 29.8416C23.759 30.0528 24.241 30.0528 24.6505 29.8416C29.6866 27.2449 33.4547 23.8748 35.9622 21.1596C37.2176 19.8002 38.1624 18.5993 38.7972 17.7319C39.1147 17.298 39.3552 16.9469 39.5187 16.7003C39.6004 16.577 39.663 16.4798 39.7063 16.4114C39.728 16.3772 39.7448 16.3502 39.7569 16.3307L39.7714 16.3072L39.776 16.2997L39.7782 16.296C39.7782 16.296 39.7787 16.2952 38.5453 15.5002L39.7787 16.2952C40.2045 15.5927 39.9974 14.6673 39.3162 14.2282C38.6352 13.7893 37.7382 14.0026 37.3123 14.7045L37.3053 14.7159C37.2984 14.727 37.2868 14.7455 37.2706 14.7711C37.2382 14.8223 37.1871 14.9018 37.1173 15.0071C36.9778 15.2175 36.7637 15.5305 36.4752 15.9247C35.8979 16.7135 35.0245 17.8251 33.8557 19.0907C31.625 21.506 28.3376 24.4619 24 26.8143C19.6624 24.4619 16.375 21.506 14.1443 19.0907C12.9755 17.8251 12.1021 16.7135 11.5248 15.9247C11.2363 15.5305 11.0222 15.2175 10.8827 15.0071C10.8129 14.9018 10.7618 14.8223 10.7294 14.7711C10.7132 14.7455 10.7016 14.727 10.6947 14.7159L10.6877 14.7045L10.6872 14.7036L10.6877 14.7045ZM10.6877 14.7045L10.6872 14.7036L10.6877 14.7045Z" clip-rule="evenodd"/><path fill="#576684" fill-rule="evenodd" d="M22.5 28V13H25.5V28H22.5Z" clip-rule="evenodd"/><path fill="#576684" d="M7.58695 16.6578C6.86107 16.8181 6.11659 16.2391 6.28345 15.5147C7.79136 8.96831 15.15 4 24.0007 4C32.8513 4 40.21 8.96831 41.7179 15.5147C41.8848 16.2391 41.1403 16.8181 40.4144 16.6578C38.5847 16.2538 35.9409 16 33.0007 16C29.3325 16 26.1257 16.395 24.3855 16.9839C24.1357 17.0685 23.8657 17.0685 23.6159 16.9839C21.8757 16.395 18.6688 16 15.0007 16C12.0605 16 9.41666 16.2538 7.58695 16.6578Z"/><path fill="#ACB4C9" d="M12.1741 29.6641C12.3142 27.8956 13.5572 26.6066 15.3191 26.3995C17.0801 26.1926 19.8371 26 24 26C28.1629 26 30.9199 26.1926 32.6809 26.3995C34.4428 26.6066 35.6858 27.8956 35.8259 29.6641C35.9232 30.8925 36 32.617 36 35C36 37.383 35.9232 39.1075 35.8259 40.3359C35.6858 42.1044 34.4428 43.3934 32.6809 43.6005C30.9199 43.8074 28.1629 44 24 44C19.8371 44 17.0801 43.8074 15.3191 43.6005C13.5572 43.3934 12.3142 42.1044 12.1741 40.3359C12.0768 39.1075 12 37.383 12 35C12 32.617 12.0768 30.8925 12.1741 29.6641Z"/><path fill="#576684" fill-rule="evenodd" d="M32.1663 36.9622C32.6504 36.9363 33 36.5358 33 36.051V35.949C33 35.4643 32.6504 35.0637 32.1663 35.0378C31.7779 35.0171 31.235 35 30.5 35C29.765 35 29.2221 35.0171 28.8337 35.0378C28.3496 35.0637 28 35.4642 28 35.949V36.051C28 36.5357 28.3496 36.9363 28.8337 36.9622C29.2221 36.9829 29.765 37 30.5 37C31.235 37 31.7779 36.9829 32.1663 36.9622ZM32.1136 40.9414C32.6161 40.9187 33 40.503 33 40C33 39.497 32.6161 39.0813 32.1136 39.0586C31.4781 39.0298 30.5008 39 29.1818 39C28.0734 39 27.3269 39.0211 26.8374 39.0449C26.352 39.0684 26 39.4657 26 39.9516V40.0484C26 40.5343 26.352 40.9316 26.8374 40.9551C27.3269 40.9789 28.0734 41 29.1818 41C30.5008 41 31.4781 40.9702 32.1136 40.9414Z" clip-rule="evenodd"/></svg>