<!-- Copyright © Ewsgit 2022. -->
<!-- Licensed under the MIT License - https://ewsgit.github.io/devdash/copyright -->

<svg width="49" height="48" viewBox="0 0 49 48" fill="none" xmlns="http://www.w3.org/2000/svg">
<path d="M8.8264 10.0049C9.00109 8.24121 10.2405 6.93478 11.9943 6.67928C14.2562 6.34978 18.1522 6 24.5 6C30.8478 6 34.7438 6.34978 37.0057 6.67928C38.7595 6.93478 39.9989 8.24121 40.1736 10.0049C40.3443 11.7279 40.5 14.4184 40.5 18.5C40.5 22.5816 40.3443 25.2721 40.1736 26.9951C39.9989 28.7588 38.7595 30.0652 37.0057 30.3207C34.7438 30.6502 30.8478 31 24.5 31C18.1522 31 14.2562 30.6502 11.9943 30.3207C10.2405 30.0652 9.00109 28.7588 8.8264 26.9951C8.65574 25.2721 8.5 22.5816 8.5 18.5C8.5 14.4184 8.65574 11.7279 8.8264 10.0049Z" fill="#ACB4C9"/>
<path fill-rule="evenodd" clip-rule="evenodd" d="M20.6406 6.0473C21.8133 6.0171 23.0969 6 24.5005 6C25.8868 6 27.1561 6.01668 28.3171 6.04619L27.8487 10.9249C27.8135 11.292 27.4065 11.4959 27.0914 11.3044L26.1913 10.7575C26.0108 10.6478 25.7809 10.6634 25.6169 10.7963L24.8053 11.4538C24.6165 11.6067 24.3452 11.6019 24.162 11.4423L23.4356 10.8092C23.2745 10.6689 23.0421 10.6464 22.8571 10.7532L21.8584 11.3296C21.5433 11.5116 21.1455 11.3066 21.1107 10.9444L20.6406 6.0473Z" fill="#576684"/>
<path fill-rule="evenodd" clip-rule="evenodd" d="M35.167 21.7813C35.6509 21.7522 36.0007 21.3506 36.0007 20.8658V20.4675C36.0007 19.9828 35.6509 19.5811 35.167 19.552C34.7074 19.5244 34.0329 19.5 33.084 19.5C32.1351 19.5 31.4606 19.5244 31.001 19.552C30.5171 19.5811 30.1673 19.9828 30.1673 20.4675L30.1673 20.8658C30.1673 21.3506 30.5171 21.7522 31.001 21.7813C31.4606 21.8089 32.1351 21.8333 33.084 21.8333C34.0329 21.8333 34.7074 21.8089 35.167 21.7813ZM35.087 26.4261C35.605 26.4013 36.0007 25.9724 36.0007 25.4539V25.2128C36.0007 24.6942 35.605 24.2654 35.087 24.2406C34.3511 24.2055 33.1708 24.1667 31.5461 24.1667C30.1422 24.1667 29.2361 24.1956 28.6708 24.2262C28.1856 24.2524 27.834 24.6509 27.834 25.1368L27.834 25.5298C27.834 26.0158 28.1856 26.4143 28.6708 26.4405C29.2361 26.471 30.1422 26.5 31.5461 26.5C33.1708 26.5 34.3511 26.4612 35.087 26.4261Z" fill="#576684"/>
<path d="M44.5 37C44.5 32.8681 41.2697 30.3976 37.1415 30.2225C34.2313 30.099 30.1398 30 24.5 30C18.8602 30 14.7687 30.099 11.8585 30.2225C7.73033 30.3976 4.5 32.8681 4.5 37C4.5 41.1319 7.73033 43.6024 11.8585 43.7775C14.7687 43.901 18.8602 44 24.5 44C30.1398 44 34.2313 43.901 37.1415 43.7775C41.2697 43.6024 44.5 41.1319 44.5 37Z" fill="#576684"/>
<circle r="3" transform="matrix(-1 0 0 1 12.5 37)" fill="#ACB4C9"/>
<circle r="3" transform="matrix(-1 0 0 1 24.5 37)" fill="#ACB4C9"/>
<circle r="3" transform="matrix(-1 0 0 1 36.5 37)" fill="#ACB4C9"/>
</svg>