<!-- Copyright © Ewsgit 2022. -->
<!-- Licensed under the MIT License - https://ewsgit.github.io/devdash/copyright -->

<svg width="48" height="48" viewBox="0 0 48 48" fill="none" xmlns="http://www.w3.org/2000/svg">
<path d="M43.0824 17.7807C43.7463 17.7696 44.3239 17.3233 44.5022 16.6836L45.7648 12.153C45.9101 11.6316 45.7633 11.0724 45.3805 10.6896L37.3104 2.61946C36.9276 2.23673 36.3684 2.08988 35.847 2.23518L31.3164 3.49783C30.6767 3.67609 30.2304 4.2537 30.2193 4.91763L30.0693 13.8642C30.0314 16.1256 31.8744 17.9686 34.1358 17.9307L43.0824 17.7807Z" fill="#ACB4C9"/>
<path fill-rule="evenodd" clip-rule="evenodd" d="M21.0001 44.0001C30.3889 44.0001 38.0001 36.3889 38.0001 27.0001C38.0001 17.6112 30.3889 10 21.0001 10C11.6112 10 4 17.6112 4 27.0001C4 36.3889 11.6112 44.0001 21.0001 44.0001ZM21 39C27.6274 39 33 33.6274 33 27C33 20.3726 27.6274 15 21 15C14.3726 15 9 20.3726 9 27C9 33.6274 14.3726 39 21 39Z" fill="#576684"/>
</svg>