<!-- Copyright © Ewsgit 2022. -->
<!-- Licensed under the MIT License - https://ewsgit.github.io/devdash/copyright -->

<svg width="48" height="48" viewBox="0 0 48 48" fill="none" xmlns="http://www.w3.org/2000/svg">
<path d="M42 22H6C6 22 6.77761 31.3314 9.01855 40.394C9.56774 42.615 11.4288 44.2352 13.7046 44.47C16.2206 44.7296 19.8399 45 24 45C28.1601 45 31.7794 44.7296 34.2954 44.47C36.5712 44.2352 38.4323 42.615 38.9814 40.394C41.2224 31.3314 42 22 42 22Z" fill="#576684"/>
<path d="M4.19222 20.0465C4.45391 18.8786 5.58469 18.3414 6.78013 18.2822C9.16381 18.1642 14.2355 18 24 18C33.7645 18 38.8362 18.1642 41.2199 18.2822C42.4153 18.3414 43.5461 18.8786 43.8078 20.0465C43.9207 20.5503 44 21.1918 44 22C44 22.8082 43.9207 23.4497 43.8078 23.9535C43.5461 25.1214 42.4153 25.6586 41.2199 25.7178C38.8362 25.8358 33.7645 26 24 26C14.2355 26 9.16381 25.8358 6.78013 25.7178C5.58469 25.6586 4.45391 25.1214 4.19222 23.9535C4.07934 23.4497 4 22.8082 4 22C4 21.1918 4.07934 20.5503 4.19222 20.0465Z" fill="#ACB4C9"/>
<path d="M15.1994 21.8448C16.6788 23.3934 18.9729 24.0244 20.6051 22.6379C20.7846 22.4855 20.9646 22.3206 21.1429 22.1423C21.3211 21.964 21.486 21.784 21.6385 21.6046C23.025 19.9723 22.3939 17.6783 20.8453 16.1989C18.6036 14.0573 15.1097 10.8102 11.5021 7.81089C10.2237 6.74803 8.34849 6.55786 7.08901 7.64307C7.00358 7.71668 6.92546 7.78827 6.85714 7.85659C6.78882 7.92491 6.71723 8.00303 6.64363 8.08845C5.55841 9.34793 5.74858 11.2231 6.81145 12.5015C9.81078 16.1091 13.0579 19.6031 15.1994 21.8448Z" fill="#576684"/>
<path d="M32.8006 21.8448C31.3212 23.3934 29.0271 24.0244 27.3949 22.6379C27.2154 22.4855 27.0354 22.3206 26.8571 22.1423C26.6789 21.964 26.514 21.784 26.3615 21.6046C24.975 19.9723 25.6061 17.6783 27.1547 16.1989C29.3964 14.0573 32.8903 10.8102 36.4979 7.81089C37.7763 6.74803 39.6515 6.55786 40.911 7.64307C40.9964 7.71668 41.0745 7.78827 41.1429 7.85659C41.2112 7.92491 41.2828 8.00303 41.3564 8.08845C42.4416 9.34793 42.2514 11.2231 41.1886 12.5015C38.1892 16.1091 34.9421 19.6031 32.8006 21.8448Z" fill="#576684"/>
<path d="M25.8507 31.1499C25.8211 30.7617 25.6625 30.3844 25.3046 30.231C25.0207 30.1093 24.5989 30 24 30C23.4091 30 22.9906 30.1064 22.7068 30.2261C22.3411 30.3804 22.181 30.7645 22.153 31.1604C22.057 32.517 21.8696 35.915 22.1403 38.8669C22.175 39.2449 22.3331 39.6107 22.681 39.7628C22.965 39.8869 23.3909 40 24 40C24.5989 40 25.0207 39.8907 25.3046 39.769C25.6625 39.6156 25.8224 39.238 25.855 38.8501C26.1291 35.5851 25.9482 32.4275 25.8507 31.1499Z" fill="#ACB4C9"/>
<path d="M34.9506 31.5204C34.994 30.8897 34.6654 30.2754 34.0525 30.1201C33.2174 29.9085 32.4408 30.0112 31.8799 30.1628C31.3025 30.3189 30.9377 30.842 30.8398 31.432C30.2879 34.7601 30.0987 37.1985 30.0338 38.4792C30.0018 39.1106 30.3346 39.7246 30.9475 39.8799C31.7658 40.0873 32.528 39.9928 33.0861 39.8463C33.6841 39.6892 34.0541 39.139 34.1418 38.527C34.6685 34.8473 34.872 32.6606 34.9506 31.5204Z" fill="#ACB4C9"/>
<path d="M13.0494 31.5204C13.006 30.8897 13.3346 30.2754 13.9475 30.1201C14.7826 29.9085 15.5592 30.0112 16.1201 30.1628C16.6975 30.3189 17.0623 30.842 17.1602 31.432C17.7121 34.7601 17.9013 37.1985 17.9662 38.4792C17.9982 39.1106 17.6654 39.7246 17.0525 39.8799C16.2342 40.0873 15.472 39.9928 14.9139 39.8463C14.3159 39.6892 13.9459 39.139 13.8582 38.527C13.3315 34.8473 13.128 32.6606 13.0494 31.5204Z" fill="#ACB4C9"/>
</svg>