<!-- Copyright © Ewsgit 2022. -->
<!-- Licensed under the MIT License - https://ewsgit.github.io/devdash/copyright -->

<svg width="48" height="48" viewBox="0 0 48 48" fill="none" xmlns="http://www.w3.org/2000/svg">
<path d="M43.8347 18.0024L38.8682 9.48839C38.3306 8.56673 37.3439 8 36.2769 8H11.7231C10.6561 8 9.66941 8.56673 9.13177 9.48839L4.16529 18.0024C3.4786 19.1795 3.67165 20.6716 4.6353 21.6353L22.5858 39.5858C23.3668 40.3668 24.6332 40.3668 25.4142 39.5858L43.3647 21.6353C44.3284 20.6716 44.5214 19.1795 43.8347 18.0024Z" fill="#576684"/>
<path d="M36.0697 26.3587C36.4027 25.5146 37.5973 25.5146 37.9303 26.3587L39.1034 29.3332C39.205 29.591 39.409 29.795 39.6668 29.8966L42.6413 31.0697C43.4854 31.4027 43.4854 32.5973 42.6413 32.9303L39.6668 34.1034C39.409 34.205 39.205 34.409 39.1034 34.6668L37.9303 37.6413C37.5973 38.4854 36.4027 38.4854 36.0697 37.6413L34.8966 34.6668C34.795 34.409 34.591 34.205 34.3332 34.1034L31.3587 32.9303C30.5146 32.5973 30.5146 31.4027 31.3587 31.0697L34.3332 29.8966C34.591 29.795 34.795 29.591 34.8966 29.3332L36.0697 26.3587Z" fill="#ACB4C9"/>
<path d="M19.0697 4.35871C19.4027 3.51457 20.5973 3.51457 20.9303 4.35872L22.9519 9.4847C23.0536 9.74243 23.2576 9.94643 23.5153 10.0481L28.6413 12.0697C29.4854 12.4027 29.4854 13.5973 28.6413 13.9303L23.5153 15.9519C23.2576 16.0536 23.0536 16.2576 22.9519 16.5153L20.9303 21.6413C20.5973 22.4854 19.4027 22.4854 19.0697 21.6413L17.0481 16.5153C16.9464 16.2576 16.7424 16.0536 16.4847 15.9519L11.3587 13.9303C10.5146 13.5973 10.5146 12.4027 11.3587 12.0697L16.4847 10.0481C16.7424 9.94643 16.9464 9.74243 17.0481 9.4847L19.0697 4.35871Z" fill="#ACB4C9"/>
</svg>