<!-- Copyright © Ewsgit 2022. -->
<!-- Licensed under the MIT License - https://ewsgit.github.io/devdash/copyright -->

<svg width="48" height="48" viewBox="0 0 48 48" fill="none" xmlns="http://www.w3.org/2000/svg">
<path fill-rule="evenodd" clip-rule="evenodd" d="M34.9733 6.42945C32.7357 5.81918 30.6123 6.76089 28.863 8.91013C27.0946 11.0829 25.9993 14.2038 25.9993 16.9999L21.9993 16.9999C21.9993 14.2038 20.904 11.0828 19.1357 8.91011C17.3864 6.76089 15.2632 5.81919 13.0255 6.42945C11.5025 6.84481 10.6968 8.3116 10.9207 10.058C11.1396 11.7646 12.2537 12.9999 13.9995 12.9999V16.9999C9.74551 16.9999 7.35953 13.7353 6.95323 10.5668C6.55205 7.43821 7.99613 3.65501 11.9731 2.57039C16.2356 1.40789 19.8623 3.46617 22.238 6.38513C22.9047 7.2043 23.4952 8.11311 23.9993 9.07914C24.5034 8.1131 25.094 7.20428 25.7607 6.38511C28.1365 3.46616 31.7633 1.40789 36.0258 2.57039C40.0027 3.65501 41.4468 7.43821 41.0456 10.5668C40.6393 13.7353 38.2533 16.9999 33.9993 16.9999V12.9999C35.7452 12.9999 36.8593 11.7646 37.0781 10.058C37.302 8.3116 36.4963 6.84481 34.9733 6.42945Z" fill="#576684"/>
<path d="M43.4949 40.0457C43.2845 41.9225 41.9177 43.2601 40.0386 43.4486C37.3869 43.7145 32.5493 44 24 44C15.4507 44 10.6131 43.7145 7.96144 43.4486C6.08233 43.2601 4.71553 41.9225 4.5051 40.0457C4.25341 37.801 4 34.0408 4 28C4 21.9592 4.25341 18.199 4.5051 15.9543C4.71553 14.0775 6.08232 12.7399 7.96144 12.5514C10.6131 12.2855 15.4507 12 24 12C32.5493 12 37.3869 12.2855 40.0386 12.5514C41.9177 12.7399 43.2845 14.0775 43.4949 15.9543C43.7466 18.199 44 21.9592 44 28C44 34.0408 43.7466 37.801 43.4949 40.0457Z" fill="#ACB4C9"/>
<path fill-rule="evenodd" clip-rule="evenodd" d="M27 12.0125C26.0547 12.0044 25.0556 12 24 12C22.9444 12 21.9453 12.0044 21 12.0125V25L4.02244 25C4.00795 25.9313 4 26.9298 4 28C4 29.0702 4.00795 30.0687 4.02244 31H21V43.9875C21.9453 43.9956 22.9444 44 24 44C25.0556 44 26.0547 43.9956 27 43.9875V31H43.9776C43.9921 30.0687 44 29.0702 44 28C44 26.9298 43.9921 25.9313 43.9776 25L27 25V12.0125Z" fill="#576684"/>
</svg>