<!-- Copyright © Ewsgit 2022. -->
<!-- Licensed under the MIT License - https://ewsgit.github.io/devdash/copyright -->

<svg xmlns="http://www.w3.org/2000/svg" width="48" height="48" fill="none" viewBox="0 0 48 48"><path fill="#ACB4C9" d="M45.9998 6.5C45.9998 5.11929 44.8805 4 43.4998 4H40.1229C38.2874 4 36.6875 5.24919 36.2423 7.02986L34.9998 12H7.99978C5.79064 12 4.07982 13.7876 4.34806 15.9804C4.56643 17.7655 4.92172 20.2243 5.49978 23.5C6.99978 32 8.99978 35 8.99978 35C8.99978 35 11.222 36 21.1109 36C30.9998 36 34.222 35 34.222 35C34.222 35 35.9998 30.5 38.1109 22C39.1248 17.9179 40.3883 11.9353 40.8345 9.7965C40.9314 9.33185 41.3404 9 41.8151 9H43.4998C44.8805 9 45.9998 7.88071 45.9998 6.5Z"/><path fill="#576684" d="M17 38C17 41.3137 14.3137 44 11 44C7.68629 44 5 41.3137 5 38C5 34.6863 7.68629 32 11 32C14.3137 32 17 34.6863 17 38Z"/><path fill="#576684" d="M38 38C38 41.3137 35.3137 44 32 44C28.6863 44 26 41.3137 26 38C26 34.6863 28.6863 32 32 32C35.3137 32 38 34.6863 38 38Z"/><path fill="#576684" d="M15.2191 21.1881C15.1019 20.0166 16.0219 19 17.1993 19C18.2217 19 19.0777 19.7747 19.1795 20.7921L19.7814 26.8119C19.8986 27.9834 18.9786 29 17.8012 29C16.7788 29 15.9228 28.2253 15.821 27.2079L15.2191 21.1881Z"/><path fill="#576684" d="M24.821 20.7921C24.9228 19.7747 25.7788 19 26.8012 19C27.9786 19 28.8986 20.0166 28.7814 21.1881L28.1795 27.2079C28.0777 28.2253 27.2217 29 26.1993 29C25.0219 29 24.1019 27.9834 24.2191 26.8119L24.821 20.7921Z"/></svg>