<!-- Copyright © Ewsgit 2022. -->
<!-- Licensed under the MIT License - https://ewsgit.github.io/devdash/copyright -->

<svg width="48" height="48" viewBox="0 0 48 48" fill="none" xmlns="http://www.w3.org/2000/svg">
<path fill-rule="evenodd" clip-rule="evenodd" d="M8.29725 8.41311C6.20739 8.56929 4.65889 10.0453 4.45213 12.1307C4.31405 13.5235 4.1786 15.4294 4.09237 17.9857C4.07355 18.5433 4.52313 18.9958 5.0683 19.1145C7.31609 19.6041 8.99932 21.6055 8.99932 24C8.99932 26.3945 7.31609 28.3959 5.06831 28.8855C4.52313 29.0042 4.07355 29.4567 4.09237 30.0143C4.1786 32.5706 4.31405 34.4765 4.45213 35.8693C4.65889 37.9547 6.20738 39.4307 8.29725 39.5869C11.0308 39.7912 15.8244 40 23.9993 40C32.1742 40 36.9678 39.7912 39.7014 39.5869C41.7912 39.4307 43.3397 37.9547 43.5465 35.8693C43.6846 34.4765 43.82 32.5706 43.9063 30.0143C43.9251 29.4567 43.4755 29.0042 42.9303 28.8855C40.6825 28.3959 38.9993 26.3945 38.9993 24C38.9993 21.6055 40.6825 19.6041 42.9303 19.1145C43.4755 18.9958 43.9251 18.5433 43.9063 17.9857C43.82 15.4294 43.6846 13.5235 43.5465 12.1307C43.3397 10.0453 41.7913 8.56929 39.7014 8.41311C36.9679 8.20884 32.1742 8 23.9993 8C15.8245 8 11.0308 8.20884 8.29725 8.41311Z" fill="#ACB4C9"/>
<path fill-rule="evenodd" clip-rule="evenodd" d="M28.0833 16.3446C27.6115 16.1882 27.1174 16.4313 26.8545 16.853L19.3138 28.9478C19.1346 29.2315 18.9778 29.4928 18.8434 29.7317C18.724 29.9706 18.6643 30.2095 18.6643 30.4484C18.6643 30.7919 18.8509 31.0756 19.2242 31.2995C19.4279 31.4092 19.6562 31.4963 19.9091 31.5607C20.361 31.6759 20.8127 31.4321 21.0597 31.0366L28.6313 18.9135C28.8254 18.6 28.9822 18.3237 29.1017 18.0848C29.2211 17.8459 29.2808 17.6145 29.2808 17.3905C29.2808 17.047 29.0718 16.7783 28.6537 16.5842C28.474 16.491 28.2838 16.4111 28.0833 16.3446ZM22.2121 19.843C22.2121 20.9629 21.8761 21.8364 21.2042 22.4636C20.5323 23.0907 19.6662 23.4043 18.6061 23.4043C17.531 23.4043 16.6574 23.0907 15.9855 22.4636C15.3285 21.8364 15 20.9629 15 19.843C15 18.7381 15.3285 17.872 15.9855 17.2449C16.6574 16.6177 17.531 16.3042 18.6061 16.3042C19.6662 16.3042 20.5323 16.6177 21.2042 17.2449C21.8761 17.872 22.2121 18.7381 22.2121 19.843ZM17.7102 19.843C17.7102 20.291 17.7923 20.627 17.9565 20.8509C18.1357 21.06 18.3522 21.1645 18.6061 21.1645C18.8599 21.1645 19.069 21.06 19.2332 20.8509C19.4124 20.627 19.502 20.291 19.502 19.843C19.502 19.41 19.4124 19.089 19.2332 18.8799C19.069 18.6709 18.8599 18.5663 18.6061 18.5663C18.3522 18.5663 18.1357 18.6709 17.9565 18.8799C17.7923 19.089 17.7102 19.41 17.7102 19.843ZM33 28.1414C33 29.2613 32.664 30.1349 31.9921 30.762C31.3202 31.3891 30.4541 31.7027 29.3939 31.7027C28.3188 31.7027 27.4453 31.3891 26.7734 30.762C26.1164 30.1349 25.7879 29.2613 25.7879 28.1414C25.7879 27.0365 26.1164 26.1704 26.7734 25.5433C27.4453 24.9162 28.3188 24.6026 29.3939 24.6026C30.4541 24.6026 31.3202 24.9162 31.9921 25.5433C32.664 26.1704 33 27.0365 33 28.1414ZM28.498 28.1414C28.498 28.5894 28.5801 28.9254 28.7444 29.1493C28.9235 29.3584 29.1401 29.4629 29.3939 29.4629C29.6477 29.4629 29.8568 29.3584 30.021 29.1493C30.2002 28.9254 30.2898 28.5894 30.2898 28.1414C30.2898 27.7084 30.2002 27.3874 30.021 27.1783C29.8568 26.9693 29.6477 26.8648 29.3939 26.8648C29.1401 26.8648 28.9235 26.9693 28.7444 27.1783C28.5801 27.3874 28.498 27.7084 28.498 28.1414Z" fill="#576684"/>
</svg>