<!-- Copyright © Ewsgit 2022. -->
<!-- Licensed under the MIT License - https://ewsgit.github.io/devdash/copyright -->

<svg xmlns="http://www.w3.org/2000/svg" width="49" height="48" fill="none" viewBox="0 0 49 48"><path fill="#576684" d="M40.5751 18.2585C42.3172 18.4016 43.6545 19.5655 43.922 21.2928C44.2145 23.1819 44.5 26.2439 44.5 31C44.5 37.3205 43.9957 40.9094 43.641 42.6522C43.4739 43.4728 42.7456 44 41.9082 44C40.436 44 37.5986 44 32.5 44C27.4014 44 24.564 44 23.0918 44C22.2544 44 21.5261 43.4728 21.359 42.6522C21.0043 40.9094 20.5 37.3205 20.5 31C20.5 26.2439 20.7855 23.1819 21.078 21.2928C21.3455 19.5655 22.6828 18.4016 24.4249 18.2585C26.0818 18.1225 28.6444 18 32.5 18C36.3556 18 38.9182 18.1225 40.5751 18.2585Z"/><path fill="#ACB4C9" d="M30.2489 4.46875C32.0111 4.67348 33.3096 5.92916 33.5835 7.68189C34.0048 10.3788 34.5 15.3816 34.5 24C34.5 34.5532 33.7575 40.1567 33.3173 42.5515C33.1576 43.4202 32.3979 44 31.5147 44C29.7556 44 26.1806 44 19.5 44C12.8194 44 9.24442 44 7.48531 44C6.6021 44 5.84236 43.4202 5.68269 42.5515C5.24247 40.1567 4.5 34.5532 4.5 24C4.5 15.3816 4.99518 10.3788 5.41652 7.68189C5.69036 5.92916 6.98892 4.67348 8.75107 4.46875C10.7788 4.23316 14.1397 4 19.5 4C24.8603 4 28.2212 4.23316 30.2489 4.46875Z"/><path fill="#576684" d="M11.5 14C11.5 12.8954 12.3954 12 13.5 12H25.5C26.6046 12 27.5 12.8954 27.5 14C27.5 15.1046 26.6046 16 25.5 16H13.5C12.3954 16 11.5 15.1046 11.5 14Z"/><path fill="#576684" d="M11.5 24C11.5 22.8954 12.3954 22 13.5 22H25.5C26.6046 22 27.5 22.8954 27.5 24C27.5 25.1046 26.6046 26 25.5 26H13.5C12.3954 26 11.5 25.1046 11.5 24Z"/><path fill="#576684" d="M14.0633 38.8821C13.997 37.1617 15.1299 35.7061 16.8474 35.5854C17.5713 35.5345 18.4496 35.5 19.5005 35.5C20.5514 35.5 21.4298 35.5345 22.1537 35.5854C23.8712 35.7061 25.0041 37.1617 24.9378 38.8821C24.8752 40.5058 24.7502 42.5022 24.5005 44H14.5005C14.2509 42.5022 14.1259 40.5058 14.0633 38.8821Z"/></svg>