<!-- Copyright © Ewsgit 2022. -->
<!-- Licensed under the MIT License - https://ewsgit.github.io/devdash/copyright -->

<svg width="48" height="48" viewBox="0 0 48 48" fill="none" xmlns="http://www.w3.org/2000/svg">
<g clip-path="url(#clip0_2058_22261)">
<path d="M4 24C4 35.0457 12.9543 44 24 44C35.0457 44 44 35.0457 44 24C44 12.9543 35.0457 4 24 4C12.9543 4 4 12.9543 4 24Z" fill="#ACB4C9"/>
<path fill-rule="evenodd" clip-rule="evenodd" d="M39.4974 11.3543C37.5896 13.501 33.674 17.7905 27.5268 23.9991C28.6927 25.1767 29.7783 26.2851 30.7852 27.3231C34.6363 24.3096 39.3373 22.9054 43.9804 23.1106C44.0442 24.5556 43.9522 26.0063 43.7043 27.4351C40.4053 27.526 37.0938 28.7274 34.244 30.9337C36.6737 33.5044 38.411 35.4215 39.4974 36.6439C39.0753 37.1599 38.6236 37.6598 38.1421 38.1412C37.6607 38.6227 37.1608 39.0745 36.6448 39.4966C35.4224 38.4102 33.5052 36.6728 30.9346 34.2431C28.7282 37.0929 27.5269 40.4044 27.436 43.7034C26.0072 43.9513 24.5565 44.0434 23.1115 43.9795C22.9063 39.3364 24.3105 34.6354 27.324 30.7843C26.286 29.7774 25.1775 28.6918 24 27.526C17.7914 33.6731 13.5019 37.5887 11.3552 39.4965C10.8392 39.0745 10.3393 38.6227 9.85786 38.1412C9.37642 37.6598 8.92466 37.1599 8.50256 36.6439C10.4104 34.4972 14.326 30.2077 20.4732 23.9991C19.3073 22.8216 18.2217 21.7131 17.2148 20.6751C13.3637 23.6887 8.66275 25.0928 4.01962 24.8876C3.95576 23.4426 4.04778 21.992 4.29567 20.5631C7.59474 20.4722 10.9062 19.2709 13.756 17.0645C11.3263 14.4939 9.58895 12.5767 8.50257 11.3544C8.92466 10.8383 9.37642 10.3384 9.85786 9.85698C10.3393 9.37554 10.8392 8.92377 11.3552 8.50168C12.5776 9.58807 14.4947 11.3254 17.0654 13.7551C19.2718 10.9053 20.4731 7.59385 20.564 4.29478C21.9928 4.04689 23.4435 3.95488 24.8885 4.01874C25.0937 8.66186 23.6895 13.3629 20.676 17.2139C21.714 18.2208 22.8225 19.3064 24 20.4723C30.2086 14.3252 34.4981 10.4096 36.6448 8.50168C37.1608 8.92377 37.6607 9.37554 38.1421 9.85698C38.6236 10.3384 39.0753 10.8383 39.4974 11.3543Z" fill="#576684"/>
</g>
<defs>
<clipPath id="clip0_2058_22261">
<rect width="48" height="48" fill="white"/>
</clipPath>
</defs>
</svg>