<!-- Copyright © Ewsgit 2022. -->
<!-- Licensed under the MIT License - https://ewsgit.github.io/devdash/copyright -->

<svg width="48" height="48" viewBox="0 0 48 48" fill="none" xmlns="http://www.w3.org/2000/svg">
<path d="M6.69707 13.6344C6.87047 12.6877 7.69742 12 8.65984 12H39.3401C40.3026 12 41.1295 12.6877 41.3029 13.6344C44.034 28.5448 44.5 36 44.5 36C44.5 36 44.5 37.39 44.3976 39.3507C44.2544 42.0918 42.0876 44.1721 39.3447 44.276C36.29 44.3918 31.4436 44.5 24 44.5C16.5564 44.5 11.71 44.3918 8.65532 44.276C5.91243 44.1721 3.74563 42.0918 3.60243 39.3507C3.5 37.39 3.5 36 3.5 36C3.5 36 3.96588 28.5448 6.69707 13.6344Z" fill="#ACB4C9"/>
<path fill-rule="evenodd" clip-rule="evenodd" d="M14 12C14 6.47715 18.4772 2 24 2C29.5228 2 34 6.47715 34 12V16C34 17.1046 33.1046 18 32 18C30.8954 18 30 17.1046 30 16V12C30 8.68629 27.3137 6 24 6C20.6863 6 18 8.68629 18 12V16C18 17.1046 17.1046 18 16 18C14.8954 18 14 17.1046 14 16V12Z" fill="#576684"/>
<path fill-rule="evenodd" clip-rule="evenodd" d="M44.5 36H3.5C3.5 36 3.5 37.39 3.60243 39.3507C3.74563 42.0918 5.91243 44.1721 8.65532 44.276C11.71 44.3918 16.5564 44.5 24 44.5C31.4436 44.5 36.29 44.3918 39.3447 44.276C42.0876 44.1721 44.2544 42.0918 44.3976 39.3507C44.5 37.39 44.5 36 44.5 36Z" fill="#576684"/>
</svg>