<!-- Copyright © Ewsgit 2022. -->
<!-- Licensed under the MIT License - https://ewsgit.github.io/devdash/copyright -->

<svg width="48" height="48" viewBox="0 0 48 48" fill="none" xmlns="http://www.w3.org/2000/svg">
<path d="M6 38C6 41.3137 14.0589 44 24 44C33.9411 44 42 41.3137 42 38C42 34.6863 33.9411 32 24 32C14.0589 32 6 34.6863 6 38Z" fill="#ACB4C9"/>
<path d="M13.1353 8.50056C19.1361 2.49981 28.8652 2.49981 34.8659 8.50056C40.8667 14.5013 40.8667 24.2304 34.8659 30.2312C31.5729 33.5242 28.7162 35.791 26.7594 37.1937C25.0898 38.3907 22.9115 38.3907 21.2418 37.1937C19.2851 35.791 16.4283 33.5242 13.1353 30.2312C7.13458 24.2304 7.13458 14.5013 13.1353 8.50056Z" fill="#576684"/>
<circle cx="24.0009" cy="19.3661" r="5.12195" fill="#ACB4C9"/>
</svg>