<!-- Copyright © Ewsgit 2022. -->
<!-- Licensed under the MIT License - https://ewsgit.github.io/devdash/copyright -->

<svg width="48" height="48" viewBox="0 0 48 48" fill="none" xmlns="http://www.w3.org/2000/svg">
<path fill-rule="evenodd" clip-rule="evenodd" d="M16.7834 7.6C17.4056 5.46667 19.3612 4 21.5834 4H26.4167C28.639 4 30.5945 5.46667 31.2167 7.6L32.9201 13.44L29.0801 14.56L27.3767 8.72C27.2523 8.29333 26.8612 8 26.4167 8H21.5834C21.139 8 20.7479 8.29333 20.6234 8.72L18.9201 14.56L15.0801 13.44L16.7834 7.6Z" fill="#576684"/>
<path d="M4.50915 15.4386C4.70711 13.6583 5.93135 12.2962 7.69672 11.9927C10.3732 11.5327 15.3418 11 24 11C32.6582 11 37.6268 11.5327 40.3033 11.9927C42.0687 12.2962 43.2929 13.6583 43.4908 15.4386C43.7394 17.674 44 21.4583 44 27.5C44 33.5417 43.7394 37.326 43.4908 39.5614C43.2929 41.3417 42.0687 42.7038 40.3033 43.0073C37.6268 43.4673 32.6582 44 24 44C15.3418 44 10.3732 43.4673 7.69672 43.0073C5.93134 42.7038 4.70711 41.3417 4.50915 39.5614C4.26059 37.326 4 33.5417 4 27.5C4 21.4583 4.26059 17.674 4.50915 15.4386Z" fill="#ACB4C9"/>
<path fill-rule="evenodd" clip-rule="evenodd" d="M37 43.4496C35.6294 43.5921 33.978 43.7222 32 43.8201V11.1797C33.978 11.2776 35.6294 11.4077 37 11.5502V43.4496ZM16 11.1797V43.8201C14.022 43.7222 12.3706 43.5921 11 43.4496V11.5502C12.3706 11.4077 14.022 11.2776 16 11.1797Z" fill="#576684"/>
</svg>