<!-- Copyright © Ewsgit 2022. -->
<!-- Licensed under the MIT License - https://ewsgit.github.io/devdash/copyright -->

<svg width="48" height="48" viewBox="0 0 48 48" fill="none" xmlns="http://www.w3.org/2000/svg">
<path fill-rule="evenodd" clip-rule="evenodd" d="M30.0006 10C30.0006 13.3137 27.3143 16 24.0006 16C20.6869 16 18.0006 13.3137 18.0006 10C18.0006 6.68629 20.6869 4 24.0006 4C27.3143 4 30.0006 6.68629 30.0006 10ZM12.7854 21.3111C12.373 20.1183 13.1688 18.8742 14.4279 18.7876C16.4077 18.6514 19.5986 18.5 24.0006 18.5C28.4026 18.5 31.5935 18.6514 33.5733 18.7876C34.8324 18.8742 35.6282 20.1183 35.2158 21.3111C32.499 29.1704 30.0006 35 30.0006 35L29.2428 41.8198C29.0986 43.1182 28.1302 44.177 26.8322 44.325C25.9939 44.4205 24.9973 44.5 24.0006 44.5C23.0451 44.5 22.1627 44.427 21.437 44.3367C20.2518 44.1893 19.3736 43.238 19.1772 42.0598L18.0006 35C18.0006 35 15.5022 29.1704 12.7854 21.3111Z" fill="#ACB4C9"/>
</svg>