<!-- Copyright © Ewsgit 2022. -->
<!-- Licensed under the MIT License - https://ewsgit.github.io/devdash/copyright -->

<svg width="48" height="48" viewBox="0 0 48 48" fill="none" xmlns="http://www.w3.org/2000/svg">
<path d="M26 44H41.4831C42.428 44 43.2317 43.3395 43.3636 42.4039C43.6292 40.52 44 37.0104 44 32.1C44 26.5918 43.5334 23.2869 43.2721 21.8682C43.1722 21.3255 42.9286 20.8239 42.5584 20.4147C39.5382 17.0757 32.0308 11.5006 26.922 10.1927C26.3157 10.0375 25.6843 10.0375 25.078 10.1927C19.9692 11.5006 12.4618 17.0757 9.44155 20.4147C9.0714 20.8239 8.8278 21.3255 8.72786 21.8682C8.4666 23.2869 8 26.5918 8 32.1C8 37.0104 8.37081 40.52 8.6364 42.4039C8.7683 43.3395 9.57199 44 10.5169 44H26Z" fill="#ACB4C9"/>
<path fill-rule="evenodd" clip-rule="evenodd" d="M31.3065 44.0003H26H20.0269C20.0103 43.1504 20 42.1506 20 40.9781C20 37.2432 20.1045 35.2602 20.1834 34.295C20.2254 33.7817 20.514 33.34 21.0056 33.1864C21.7604 32.9506 23.1841 32.667 25.6667 32.667C28.1492 32.667 29.573 32.9506 30.3278 33.1864C30.8193 33.34 31.108 33.7817 31.1499 34.295C31.2289 35.2602 31.3333 37.2432 31.3333 40.9781C31.3333 42.1506 31.323 43.1504 31.3065 44.0003Z" fill="#576684"/>
<path d="M6.63604 12.636C10.1508 9.12132 15.8492 9.12132 19.364 12.636C22.8787 16.1508 22.8787 21.8492 19.364 25.364C17.005 27.7229 15.0283 29.1828 13.9307 29.9173C13.3616 30.2982 12.6384 30.2982 12.0693 29.9173C10.9717 29.1828 8.995 27.7229 6.63604 25.364C3.12132 21.8492 3.12132 16.1508 6.63604 12.636Z" fill="#576684"/>
<circle cx="13" cy="19" r="3" fill="#ACB4C9"/>
</svg>