<!-- Copyright © Ewsgit 2022. -->
<!-- Licensed under the MIT License - https://ewsgit.github.io/devdash/copyright -->

<svg width="48" height="48" viewBox="0 0 48 48" fill="none" xmlns="http://www.w3.org/2000/svg">
<path fill-rule="evenodd" clip-rule="evenodd" d="M19.3246 9C16.742 9 14.4491 10.6526 13.6325 13.1026L10.8554 21.4338C10.7403 21.7792 10.4459 22.0337 10.089 22.1054C8.12253 22.5006 6.8326 22.9285 6.03722 23.2555C5.29472 23.5607 4.75234 24.168 4.55819 24.947C4.29617 25.9982 4 27.8771 4 31C4 33.0527 4.12796 34.568 4.29008 35.664C4.53558 37.3237 5.88909 38.3645 7.56076 38.5072C10.2036 38.7328 15.193 39 24 39C32.807 39 37.7964 38.7328 40.4392 38.5072C42.1109 38.3645 43.4644 37.3237 43.7099 35.664C43.872 34.568 44 33.0527 44 31C44 27.8771 43.7038 25.9982 43.4418 24.947C43.2477 24.168 42.7053 23.5607 41.9628 23.2555C41.344 23.0011 40.4259 22.6856 39.1228 22.372C38.7592 22.2845 38.469 22.0086 38.3726 21.6473L36.1877 13.454C35.4873 10.8275 33.1086 9 30.3903 9H19.3246Z" fill="#ACB4C9"/>
<circle cx="15" cy="38" r="6" fill="#576684"/>
<circle cx="33" cy="38" r="6" fill="#576684"/>
<path fill-rule="evenodd" clip-rule="evenodd" d="M24.0005 13C24.0005 12.4477 23.5528 12 23.0005 12H20.1292C18.3523 12 16.7883 13.1723 16.2898 14.8779L14.8748 19.7195C14.6877 20.3596 15.1677 21 15.8346 21H23.0005C23.5528 21 24.0005 20.5523 24.0005 20V13ZM27.0005 20C27.0005 20.5523 27.4482 21 28.0005 21H33.2916C33.9191 21 34.3915 20.4289 34.2739 19.8126L33.4033 15.2502C33.0434 13.3642 31.3943 12 29.4742 12H28.0005C27.4482 12 27.0005 12.4477 27.0005 13V20Z" fill="#576684"/>
</svg>