<!-- Copyright © Ewsgit 2022. -->
<!-- Licensed under the MIT License - https://ewsgit.github.io/devdash/copyright -->

<svg width="48" height="48" viewBox="0 0 48 48" fill="none" xmlns="http://www.w3.org/2000/svg">
<path fill-rule="evenodd" clip-rule="evenodd" d="M26.9142 26.7865C28.4994 25.8081 29.5559 24.0552 29.5559 22.0556C29.5559 18.9873 27.0685 16.5 24.0003 16.5C20.932 16.5 18.4447 18.9873 18.4447 22.0556C18.4447 24.0552 19.5012 25.8081 21.0865 26.7866C19.3783 27.4773 17.9714 28.7571 17.1177 30.3742C16.93 30.7299 17.0127 31.1646 17.3116 31.4337C19.0834 33.029 21.4285 33.9999 24.0004 33.9999C26.5723 33.9999 28.9174 33.029 30.6892 31.4337C30.9881 31.1646 31.0708 30.7299 30.8831 30.3742C30.0294 28.7571 28.6225 27.4772 26.9142 26.7865Z" fill="#ACB4C9"/>
<path fill-rule="evenodd" clip-rule="evenodd" d="M20.9433 2.80861L20.9438 2.80635C20.9808 2.64774 21.0203 2.47839 21.1576 2.39102C21.4208 2.22357 22.1235 2 24 2C25.8765 2 26.5792 2.22357 26.8424 2.39102C26.9797 2.47839 27.0192 2.64774 27.0562 2.80635L27.0567 2.80861C27.2076 3.45576 27.6226 5.34409 27.8486 7.43748C34.147 8.89518 39.1048 13.853 40.5625 20.1514C42.6559 20.3774 44.5442 20.7924 45.1914 20.9433L45.1937 20.9438C45.3523 20.9808 45.5216 21.0203 45.609 21.1576C45.7764 21.4208 46 22.1235 46 24C46 25.8765 45.7764 26.5792 45.609 26.8424C45.5216 26.9797 45.3523 27.0192 45.1937 27.0562L45.1914 27.0567C44.5442 27.2076 42.6559 27.6226 40.5625 27.8486C39.1048 34.147 34.147 39.1048 27.8486 40.5625C27.6226 42.6559 27.2076 44.5442 27.0567 45.1914L27.0562 45.1937C27.0192 45.3523 26.9797 45.5216 26.8424 45.609C26.5792 45.7764 25.8765 46 24 46C22.1235 46 21.4208 45.7764 21.1576 45.609C21.0203 45.5216 20.9808 45.3523 20.9438 45.1937L20.9433 45.1914C20.7924 44.5442 20.3774 42.6559 20.1514 40.5625C13.853 39.1048 8.89518 34.147 7.43748 27.8486C5.34409 27.6226 3.45576 27.2076 2.80861 27.0567L2.80635 27.0562C2.64774 27.0192 2.47839 26.9797 2.39102 26.8424C2.22357 26.5792 2 25.8765 2 24C2 22.1235 2.22357 21.4208 2.39102 21.1576C2.47838 21.0203 2.64772 20.9808 2.80632 20.9438L2.80634 20.9438L2.80861 20.9433C3.45576 20.7924 5.34409 20.3774 7.43748 20.1514C8.89518 13.853 13.853 8.89518 20.1514 7.43748C20.3774 5.34409 20.7924 3.45576 20.9433 2.80861ZM24 36C17.3726 36 12 30.6274 12 24C12 17.3726 17.3726 12 24 12C30.6274 12 36 17.3726 36 24C36 30.6274 30.6274 36 24 36Z" fill="#576684"/>
</svg>