<!-- Copyright © Ewsgit 2022. -->
<!-- Licensed under the MIT License - https://ewsgit.github.io/devdash/copyright -->

<svg xmlns="http://www.w3.org/2000/svg" width="48" height="48" fill="none" viewBox="0 0 48 48"><path fill="#576684" d="M38.3951 44.1018C40.7832 43.8618 42.4742 41.953 42.6177 39.5572C42.8028 36.467 43 31.4308 43 24C43 16.5692 42.8028 11.533 42.6177 8.44284C42.4742 6.04696 40.7832 4.13821 38.3951 3.8982C36.2874 3.68637 33.2308 3.5 29 3.5C24.7692 3.5 21.7126 3.68638 19.6049 3.89821C17.2168 4.13822 15.5258 6.04696 15.3823 8.44284C15.1972 11.533 15 16.5692 15 24C15 31.4308 15.1972 36.467 15.3823 39.5572C15.5258 41.953 17.2168 43.8618 19.6049 44.1018C21.7126 44.3136 24.7692 44.5 29 44.5C33.2308 44.5 36.2874 44.3136 38.3951 44.1018Z"/><path fill="#ACB4C9" fill-rule="evenodd" d="M32 21.5C34.7614 21.5 37 19.2614 37 16.5C37 13.7386 34.7614 11.5 32 11.5C29.2386 11.5 27 13.7386 27 16.5C27 19.2614 29.2386 21.5 32 21.5ZM27.7161 35.1758C27.6956 36.6286 27.607 40.2624 27.2231 44.4886C25.7246 44.469 24.3952 44.4253 23.2221 44.3666V36.8567C23.2221 36.6261 23.1427 36.4029 22.9892 36.2307C22.5422 35.7291 21.4756 34.6027 20 33.5C20 33.5 18.264 35.0243 16.1597 36.4095C15.5541 36.8082 14.8417 37.0005 14.1168 36.9869C12.6071 36.9587 9.69466 36.87 6.28402 36.5918C5.64813 36.5399 5.11875 36.0844 5.05332 35.4498C5.00254 34.9571 4.97407 34.33 5.03271 33.655C5.09228 32.9693 5.70508 32.5003 6.39336 32.5003H12.7264C13.0388 32.5003 13.3314 32.3568 13.5224 32.1096C14.4355 30.9276 17.342 27.2114 21 23L20.2427 22.2426C20.0854 22.0854 19.8804 21.9847 19.6596 21.9588C16.9625 21.6436 13.9887 21.545 12.3915 21.5142C11.7033 21.5009 11.1065 21.0296 11.043 20.3442C10.9967 19.8446 10.9761 19.2223 11.0417 18.558C11.1048 17.919 11.6507 17.4652 12.2917 17.427C14.0732 17.3208 17.8226 17.1618 21.5531 17.4087C22.3171 17.4592 23.0478 17.7459 23.6359 18.2362C26.8332 20.9019 29.0169 23.6732 29.7389 24.6411C29.9087 24.8687 30.1606 25.0207 30.4428 25.0528C33.1889 25.3652 36.3819 25.4594 38.0579 25.4878C38.7439 25.4995 39.3389 25.9678 39.4021 26.651C39.4481 27.1484 39.4682 27.7694 39.4021 28.4377C39.3386 29.0787 38.7919 29.5352 38.1488 29.5739C36.4187 29.6781 32.8652 29.8317 29.4921 29.6054C28.6648 29.5499 27.8864 29.2076 27.2612 28.663L26.5 28L25 29.5001C25 29.5001 26.3173 30.8172 27.4887 33.8632C27.6499 34.2823 27.7224 34.7269 27.7161 35.1758Z" clip-rule="evenodd"/></svg>