<!-- Copyright © Ewsgit 2022. -->
<!-- Licensed under the MIT License - https://ewsgit.github.io/devdash/copyright -->

<svg width="24" height="35" viewBox="0 0 24 35" fill="none" xmlns="http://www.w3.org/2000/svg">
<path d="M22.7322 3.26791C22.3419 3.94388 21.6166 4.30584 20.8871 4.26515L19.8198 5.89746C22.3792 8.09817 24 11.3598 24 15C24 19.9193 21.0399 24.1472 16.8038 25.9998C19.4424 27.1536 21.586 29.2289 22.8277 31.8189C19.7071 33.8318 15.9904 35 12.0008 35C8.01115 35 4.29437 33.8318 1.17383 31.8189C2.41536 29.2291 4.55869 27.154 7.19699 26.0002C2.96043 24.1477 0 19.9196 0 15C0 11.3598 1.62085 8.09817 4.1802 5.89746L3.11287 4.26515C2.38338 4.30584 1.6581 3.94388 1.26783 3.26791C0.715548 2.31133 1.0433 1.08815 1.99988 0.535861C2.95647 -0.0164233 4.17965 0.311327 4.73193 1.26791C5.1222 1.94388 5.07303 2.75297 4.67305 3.36438L5.46614 4.93307C7.3462 3.71033 9.59015 2.99997 12 2.99997C14.4099 2.99997 16.6538 3.71033 18.5339 4.93307L19.327 3.36438C18.927 2.75297 18.8778 1.94388 19.2681 1.26791C19.8204 0.311327 21.0435 -0.0164233 22.0001 0.535861C22.9567 1.08815 23.2845 2.31133 22.7322 3.26791Z" fill="#ACB4C9"/>
</svg>