<!-- Copyright © Ewsgit 2022. -->
<!-- Licensed under the MIT License - https://ewsgit.github.io/devdash/copyright -->

<svg xmlns="http://www.w3.org/2000/svg" width="32" height="32" fill="none" viewBox="0 0 32 32"><path fill="#ACB4C9" d="M20.8038 22.9998C24.5193 21.3749 27.2531 17.9227 27.869 13.7795C28.218 13.9217 28.5999 14 29 14C30.6569 14 32 12.6569 32 11C32 9.93774 31.4479 9.00444 30.615 8.47137C30.8601 8.03664 31 7.53465 31 7C31 5.34315 29.6569 4 28 4C28 2.34315 26.6569 1 25 1C24.0856 1 23.2667 1.4091 22.7165 2.05426C20.7999 0.757408 18.4884 0 16 0C13.5116 0 11.2001 0.757408 9.28351 2.05426C8.73326 1.4091 7.9144 1 7 1C5.34315 1 4 2.34315 4 4C2.34315 4 1 5.34315 1 7C1 7.53465 1.13986 8.03664 1.38499 8.47137C0.552094 9.00444 0 9.93774 0 11C0 12.6569 1.34315 14 3 14C3.40014 14 3.78199 13.9217 4.13103 13.7795C4.74698 17.923 7.48111 21.3754 11.197 23.0002C8.55867 24.154 6.41536 26.2291 5.17383 28.8189C8.29437 30.8318 12.0111 32 16.0008 32C19.9904 32 23.7071 30.8318 26.8277 28.8189C25.586 26.2289 23.4424 24.1536 20.8038 22.9998Z"/></svg>