<!-- Copyright © Ewsgit 2022. -->
<!-- Licensed under the MIT License - https://ewsgit.github.io/devdash/copyright -->

<svg width="30" height="33" viewBox="0 0 30 33" fill="none" xmlns="http://www.w3.org/2000/svg">
<path d="M22 0C24.2091 0 26 1.79086 26 4V8H28C28 7.44772 28.4477 7 29 7C29.5523 7 30 7.44772 30 8V12C30 12.5523 29.5523 13 29 13C28.4477 13 28 12.5523 28 12H26V14C26 18.3967 23.4205 22.1908 19.6924 23.9518C22.3821 25.0954 24.5686 27.1925 25.8277 29.8189C22.7071 31.8318 18.9904 33 15.0008 33C11.0111 33 7.29437 31.8318 4.17383 29.8189C5.43278 27.1928 7.619 25.0958 10.3083 23.9521C6.57979 22.1913 4 18.3969 4 14V12H2C2 12.5523 1.55228 13 1 13C0.447716 13 0 12.5523 0 12V8C0 7.44772 0.447716 7 1 7C1.55228 7 2 7.44772 2 8H4V4C4 1.79086 5.79086 0 8 0H22Z" fill="#ACB4C9"/>
</svg>