<!-- Copyright © Ewsgit 2022. -->
<!-- Licensed under the MIT License - https://ewsgit.github.io/devdash/copyright -->

<svg xmlns="http://www.w3.org/2000/svg" width="14" height="12" fill="none" viewBox="0 0 14 12"><path fill="#576684" fill-rule="evenodd" d="M4 7C4.55228 7 5 7.44772 5 8C5 9.10457 5.89543 10 7 10C8.10457 10 9 9.10457 9 8C9 7.44772 9.44772 7 10 7C10.5523 7 11 7.44772 11 8C11 10.2091 9.20914 12 7 12C4.79086 12 3 10.2091 3 8C3 7.44772 3.44772 7 4 7Z" clip-rule="evenodd"/><path fill="#576684" d="M3.82883 3.34308C2.95293 4.21897 1.53282 4.21897 0.656923 3.34308C-0.218974 2.46718 -0.218974 1.04707 0.656923 0.171173C1.59391 -0.765811 4.76581 2.40609 3.82883 3.34308Z"/><path fill="#576684" d="M13.4019 0.181096C14.2402 1.09792 14.1913 2.5345 13.2927 3.38979C12.3941 4.24508 10.9861 4.1952 10.1478 3.27837C9.27334 2.32197 12.5274 -0.775304 13.4019 0.181096Z"/></svg>